<?xml version="1.0" encoding="utf-8"?>
<!-- Generator: Adobe Illustrator 15.0.0, SVG Export Plug-In  -->
<!DOCTYPE svg PUBLIC "-//W3C//DTD SVG 1.1//EN" "http://www.w3.org/Graphics/SVG/1.1/DTD/svg11.dtd" [
	<!ENTITY ns_flows "http://ns.adobe.com/Flows/1.0/">
]>
<svg version="1.1"
	 xmlns="http://www.w3.org/2000/svg" xmlns:xlink="http://www.w3.org/1999/xlink" xmlns:a="http://ns.adobe.com/AdobeSVGViewerExtensions/3.0/"
	 x="0px" y="0px" width="1156px" height="84px" viewBox="-1.901 -4.961 1156 84"
	 overflow="visible" enable-background="new -1.901 -4.961 1156 84" xml:space="preserve">
<defs>
</defs>
<path fill="#E8A723" d="M47.303,69.804L55.403,7L32.802,61.504H22.602L14.201,7L6.101,69.804H0L9,0.8h10.501l8.601,55.403h0.6
	L51.903,0.8h10.5l-9,69.004H47.303z"/>
<path fill="#E8A723" d="M82.401,19.101h22.001l-5.9,45.303h18.801l-0.7,5.4H73.101l0.7-5.4h18.801l5.2-39.902H81.701L82.401,19.101z
	 M109.103,5.3c0,3.7-3,6.3-6.3,6.3c-3,0-5.301-2.3-5.301-5.2c0-3.7,3-6.3,6.5-6.3C107.003,0.1,109.103,2.4,109.103,5.3z"/>
<path fill="#E8A723" d="M200.5,60.304c-4.2-5.9-6.3-13.801-6.3-21.901c0-9,2.399-18.401,7.6-25.602C207.2,5.2,215.301,0,226.302,0
	c8.7,0,15.301,4.1,19.602,10.201c2.599,3.7,4.8,9,5.4,13.601h-6.3c-0.9-3.6-2.2-7-4.2-9.9c-3.4-4.9-8.2-8-14.801-8
	c-8.701,0-15.001,4.3-19.302,10.4c-4.3,6.101-6.3,14.101-6.3,21.901c0,7,1.6,13.601,4.9,18.401c3.4,4.9,8.5,8.101,15.001,8.101
	c8.7,0,15.001-4.4,19.201-10.601c1.7-2.4,3.2-5.2,4.1-8.3h6.501c-0.9,4.1-3.201,8.5-5.601,11.901
	c-5.301,7.6-13.401,12.901-24.502,12.901C211.601,70.604,204.7,66.404,200.5,60.304z"/>
<path fill="#E8A723" d="M267.7,63.204c-3.4-4.5-5-10.601-5-16.701c0-6.601,1.801-13.601,6-19.102c4.301-5.6,10.602-9.3,19.402-9.3
	c8.199,0,13.6,4.1,17,10.301h0.301l1.199-9.301h5.9l-6.5,50.703h-5.9l1-8.9h-0.4c-4.299,5.6-8.6,9.701-17.5,9.701
	C276.5,70.604,271.1,67.704,267.7,63.204z M298.702,57.604c3.301-4.4,4.701-10,4.701-15.301c0-4.8-1.201-9.601-3.801-13.001
	c-2.5-3.4-6.199-5.601-11.301-5.601c-6.801,0-11.6,3-14.9,7.301c-3.301,4.4-4.701,10-4.701,15.401c0,4.9,1.201,9.601,3.801,13
	c2.5,3.4,6.301,5.601,11.301,5.601C290.602,65.004,295.403,61.904,298.702,57.604z"/>
<path fill="#E8A723" d="M335.1,41.203c-2.1-2.3-3.299-5.101-3.299-8.401c0-4.4,2.199-7.8,6.1-10.5c3.801-2.5,9-4.2,14.5-4.2
	c6.602,0,11.602,2,15.301,4.9c3.602,2.9,5.502,6.9,5.502,11.101v1.6h-6.102v-1.6c0-2.8-1.299-5.5-3.9-7.4c-2.5-1.8-6.1-3-10.699-3
	c-4.002,0-7.602,0.9-10.301,2.7c-2.701,1.6-4.301,3.9-4.301,6.5c0,1.8,0.699,3.3,1.9,4.5c0.9,0.9,2.5,2.6,12.701,3.8
	c5.799,0.7,12.199,1.8,15.301,4.7c2.199,2,3.6,4.6,3.6,8.2c0,4.5-2.5,8.701-6.5,11.601c-4,3-9.301,4.9-15.602,4.9
	c-6.4,0-11.801-1.8-15.701-4.801c-4-3-6.5-7.1-6.5-11.601v-1.9h6.1v2c0,2.9,1.701,5.601,4.701,7.4c2.9,1.8,6.9,3,11.4,3
	c4.4,0,8.301-1.2,11.301-3c2.9-1.8,4.701-4.5,4.701-7.4c0-1.9-0.9-3.4-2.201-4.4c-2.6-2.1-8.6-2.6-12.801-3.3
	C346.901,46.003,339,45.603,335.1,41.203z"/>
<path fill="#E8A723" d="M395.7,63.204c-3.4-4.5-5-10.601-5-16.701c0-6.601,1.801-13.601,6-19.102c4.301-5.6,10.602-9.3,19.402-9.3
	c8.199,0,13.6,4.1,17,10.301h0.301l1.199-9.301h5.9l-6.5,50.703h-5.9l1-8.9h-0.4c-4.299,5.6-8.6,9.701-17.5,9.701
	C404.5,70.604,399.1,67.704,395.7,63.204z M426.702,57.604c3.301-4.4,4.701-10,4.701-15.301c0-4.8-1.201-9.601-3.801-13.001
	c-2.5-3.4-6.199-5.601-11.301-5.601c-6.801,0-11.6,3-14.9,7.301c-3.301,4.4-4.701,10-4.701,15.401c0,4.9,1.201,9.601,3.801,13
	c2.5,3.4,6.301,5.601,11.301,5.601C418.602,65.004,423.403,61.904,426.702,57.604z"/>
<path fill="#E8A723" d="M569.502,6.5h-38.602L527.6,32.002h35.604l-0.801,5.7h-35.602l-3.4,26.402h41.602l-0.699,5.7H516.6l9-69.004
	h44.703L569.502,6.5z"/>
<path fill="#E8A723" d="M591.1,41.203c-2.1-2.3-3.299-5.101-3.299-8.401c0-4.4,2.199-7.8,6.1-10.5c3.801-2.5,9-4.2,14.5-4.2
	c6.602,0,11.602,2,15.301,4.9c3.602,2.9,5.502,6.9,5.502,11.101v1.6h-6.102v-1.6c0-2.8-1.299-5.5-3.9-7.4c-2.5-1.8-6.1-3-10.699-3
	c-4.002,0-7.602,0.9-10.301,2.7c-2.701,1.6-4.301,3.9-4.301,6.5c0,1.8,0.699,3.3,1.9,4.5c0.9,0.9,2.5,2.6,12.701,3.8
	c5.799,0.7,12.199,1.8,15.301,4.7c2.199,2,3.6,4.6,3.6,8.2c0,4.5-2.5,8.701-6.5,11.601c-4,3-9.301,4.9-15.602,4.9
	c-6.4,0-11.801-1.8-15.701-4.801c-4-3-6.5-7.1-6.5-11.601v-1.9h6.1v2c0,2.9,1.701,5.601,4.701,7.4c2.9,1.8,6.9,3,11.4,3
	c4.4,0,8.301-1.2,11.301-3c2.9-1.8,4.701-4.5,4.701-7.4c0-1.9-0.9-3.4-2.201-4.4c-2.6-2.1-8.6-2.6-12.801-3.3
	C602.901,46.003,595,45.603,591.1,41.203z"/>
<path fill="#E8A723" d="M766.504,6.5h-23.902l-8.201,63.304h-6.1L736.502,6.5h-23.703L713.6,0.8h53.703L766.504,6.5z"/>
<path fill="#E8A723" d="M812.903,41.402l3-22.301h5.9l-6.602,50.703h-5.9l1.4-10.701h-0.6c-4.9,7-12.1,11.501-20.301,11.501
	c-8,0-14.4-5.801-14.4-13.001c0-0.6,0-0.8,0.1-1.6l4.801-36.902h5.9L781.5,55.003c-0.1,0.6-0.1,0.9-0.1,1.4
	c0,3.4,2.699,8.601,9.801,8.601C799.801,65.004,810.903,56.303,812.903,41.402z"/>
<path fill="#E8A723" d="M904.5,60.304c-4.201-5.9-6.301-13.801-6.301-21.901c0-9,2.4-18.401,7.6-25.602
	C911.2,5.2,919.301,0,930.301,0c8.701,0,15.301,4.1,19.602,10.201c2.6,3.7,4.801,9,5.4,13.601h-6.301c-0.9-3.6-2.199-7-4.199-9.9
	c-3.4-4.9-8.201-8-14.801-8c-8.701,0-15.002,4.3-19.303,10.4c-4.299,6.101-6.299,14.101-6.299,21.901c0,7,1.6,13.601,4.9,18.401
	c3.4,4.9,8.5,8.101,15,8.101c8.701,0,15.002-4.4,19.201-10.601c1.701-2.4,3.201-5.2,4.1-8.3h6.502c-0.9,4.1-3.201,8.5-5.602,11.901
	c-5.301,7.6-13.4,12.901-24.502,12.901C915.6,70.604,908.7,66.404,904.5,60.304z"/>
<path fill="#E8A723" d="M971.7,63.204c-3.4-4.5-5-10.601-5-16.701c0-6.601,1.801-13.601,6-19.102c4.301-5.6,10.602-9.3,19.402-9.3
	c8.199,0,13.6,4.1,17,10.301h0.301l1.199-9.301h5.9l-6.5,50.703h-5.9l1-8.9h-0.4c-4.299,5.6-8.6,9.701-17.5,9.701
	C980.5,70.604,975.1,67.704,971.7,63.204z M1002.702,57.604c3.301-4.4,4.701-10,4.701-15.301c0-4.8-1.201-9.601-3.801-13.001
	c-2.5-3.4-6.199-5.601-11.301-5.601c-6.801,0-11.6,3-14.9,7.301c-3.301,4.4-4.701,10-4.701,15.401c0,4.9,1.201,9.601,3.801,13
	c2.5,3.4,6.301,5.601,11.301,5.601C994.602,65.004,999.403,61.904,1002.702,57.604z"/>
<path fill="#E8A723" d="M1039.1,41.203c-2.1-2.3-3.299-5.101-3.299-8.401c0-4.4,2.199-7.8,6.1-10.5c3.801-2.5,9-4.2,14.5-4.2
	c6.602,0,11.602,2,15.301,4.9c3.602,2.9,5.502,6.9,5.502,11.101v1.6h-6.102v-1.6c0-2.8-1.299-5.5-3.9-7.4c-2.5-1.8-6.1-3-10.699-3
	c-4.002,0-7.602,0.9-10.301,2.7c-2.701,1.6-4.301,3.9-4.301,6.5c0,1.8,0.699,3.3,1.9,4.5c0.9,0.9,2.5,2.6,12.701,3.8
	c5.799,0.7,12.199,1.8,15.301,4.7c2.199,2,3.6,4.6,3.6,8.2c0,4.5-2.5,8.701-6.5,11.601c-4,3-9.301,4.9-15.602,4.9
	c-6.4,0-11.801-1.8-15.701-4.801c-4-3-6.5-7.1-6.5-11.601v-1.9h6.1v2c0,2.9,1.701,5.601,4.701,7.4c2.9,1.8,6.9,3,11.4,3
	c4.4,0,8.301-1.2,11.301-3c2.9-1.8,4.701-4.5,4.701-7.4c0-1.9-0.9-3.4-2.201-4.4c-2.6-2.1-8.6-2.6-12.801-3.3
	C1050.901,46.003,1043,45.603,1039.1,41.203z"/>
<path fill="#E8A723" d="M1099.7,63.204c-3.4-4.5-5-10.601-5-16.701c0-6.601,1.801-13.601,6-19.102c4.301-5.6,10.602-9.3,19.402-9.3
	c8.199,0,13.6,4.1,17,10.301h0.301l1.199-9.301h5.9l-6.5,50.703h-5.9l1-8.9h-0.4c-4.299,5.6-8.6,9.701-17.5,9.701
	C1108.5,70.604,1103.1,67.704,1099.7,63.204z M1130.702,57.604c3.301-4.4,4.701-10,4.701-15.301c0-4.8-1.201-9.601-3.801-13.001
	c-2.5-3.4-6.199-5.601-11.301-5.601c-6.801,0-11.6,3-14.9,7.301c-3.301,4.4-4.701,10-4.701,15.401c0,4.9,1.201,9.601,3.801,13
	c2.5,3.4,6.301,5.601,11.301,5.601C1122.602,65.004,1127.403,61.904,1130.702,57.604z"/>
</svg>
