<?xml version="1.0" encoding="utf-8"?>
<!-- Generator: Adobe Illustrator 15.0.0, SVG Export Plug-In  -->
<!DOCTYPE svg PUBLIC "-//W3C//DTD SVG 1.1//EN" "http://www.w3.org/Graphics/SVG/1.1/DTD/svg11.dtd" [
	<!ENTITY ns_flows "http://ns.adobe.com/Flows/1.0/">
]>
<svg version="1.1"
	 xmlns="http://www.w3.org/2000/svg" xmlns:xlink="http://www.w3.org/1999/xlink" xmlns:a="http://ns.adobe.com/AdobeSVGViewerExtensions/3.0/"
	 x="0px" y="0px" width="494px" height="44px" viewBox="-6.149 -3.365 494 44"
	 overflow="visible" enable-background="new -6.149 -3.365 494 44" xml:space="preserve">
<defs>
</defs>
<path d="M22.602,36.702l-2.95-9.801H8.051l-3,9.801H0L10.951,2.2h5.801l10.9,34.502H22.602z M9.801,22.751h8.051l-4-15.401
	L9.801,22.751z"/>
<path d="M34.75,32.852h9.101V14.901H36.05v-3.85h12.551v21.801h8.801v3.85H34.75V32.852z M46.051,1.35c2,0,3.6,1.6,3.6,3.6
	c0,1.9-1.6,3.45-3.6,3.45c-1.9,0-3.45-1.55-3.45-3.45C42.601,2.95,44.151,1.35,46.051,1.35z"/>
<path d="M75.501,36.702V19.451c0-0.6-0.05-4.9-2.5-4.9c-2,0-4.4,2.85-4.4,10.101v12.051h-4.75V11.051h4.75v2.6h0.6
	c0.85-1.55,2.55-3.15,5.35-3.15c2.7,0,4.101,1.5,4.851,3.15h0.95c0.9-1.55,2.7-3.15,5.601-3.15c5.9,0,5.95,6.5,5.95,7.451v18.751
	h-4.75V19.451c0-0.6-0.05-4.9-2.5-4.9c-1.95,0-4.3,2.75-4.4,9.601v12.551H75.501z"/>
<path d="M102.65,25.102c0.45,4.8,3.701,7.95,7.451,7.95c3.05,0,5.65-2.05,7.05-5.45l4.3,1.9c-1.9,4.7-6.3,7.6-11.351,7.6
	c-6.95,0-12.451-5.35-12.451-13.201c0-8,5.4-13.401,12.201-13.401s12.201,5.4,12.201,13.401v1.2H102.65z M102.851,21.351h14.001
	c-0.85-4.1-3.7-6.8-7-6.8C106.501,14.551,103.651,17.251,102.851,21.351z M102.951,8.5l0.75-3.6L116.901,0l-1.05,5.15L102.951,8.5z"
	/>
<path d="M134.65,25.102c0.45,4.8,3.701,7.95,7.451,7.95c3.05,0,5.65-2.05,7.05-5.45l4.3,1.9c-1.9,4.7-6.3,7.6-11.351,7.6
	c-6.95,0-12.451-5.35-12.451-13.201c0-8,5.4-13.401,12.201-13.401s12.201,5.4,12.201,13.401v1.2H134.65z M134.851,21.351h14.001
	c-0.85-4.1-3.7-6.8-7-6.8C138.501,14.551,135.651,17.251,134.851,21.351z"/>
<path d="M192.899,36.702v-4.3L213.201,6.35H194.5V2.2h24.501v4.25L198.65,32.552h20.901v4.15H192.899z"/>
<path d="M226.75,32.852h9.101V14.901h-7.801v-3.85h12.551v21.801h8.801v3.85H226.75V32.852z M238.051,1.35c2,0,3.6,1.6,3.6,3.6
	c0,1.9-1.6,3.45-3.6,3.45c-1.9,0-3.45-1.55-3.45-3.45C234.601,2.95,236.15,1.35,238.051,1.35z"/>
<path d="M262.95,11.351V1.9h4.75v9.451h11.901v3.85H267.7v12.951c0,0.6,0.05,4.9,4.45,4.9c3.351,0,4.95-2.3,5.551-3.15l4.05,2.25
	c-2.2,3.45-5.05,4.95-9.601,4.95c-9.15,0-9.2-6.5-9.2-7.45V15.201h-6.75v-3.85H262.95z"/>
<path d="M301.9,10.5c6.851,0,12.351,5.4,12.351,13.401c0,7.851-5.5,13.201-12.351,13.201c-6.95,0-12.45-5.35-12.45-13.201
	C289.45,15.901,294.95,10.5,301.9,10.5z M301.851,33.052c4.05,0,7.45-3.75,7.45-9.25c0-5.45-3.4-9.25-7.45-9.25s-7.45,3.8-7.45,9.25
	C294.4,29.302,297.801,33.052,301.851,33.052z"/>
<path d="M359.45,32.552h18.852v4.15H354.6V2.2h4.851V32.552z"/>
<path d="M390.65,25.102c0.45,4.8,3.7,7.95,7.45,7.95c3.05,0,5.65-2.05,7.051-5.45l4.3,1.9c-1.9,4.7-6.3,7.6-11.351,7.6
	c-6.95,0-12.451-5.35-12.451-13.201c0-8,5.4-13.401,12.201-13.401s12.201,5.4,12.201,13.401v1.2H390.65z M390.851,21.351h14
	c-0.85-4.1-3.7-6.8-7-6.8C394.5,14.551,391.65,17.251,390.851,21.351z"/>
<path d="M427.5,36.702V19.451c0-0.6-0.05-4.9-2.5-4.9c-2,0-4.4,2.85-4.4,10.101v12.051h-4.75V11.051h4.75v2.6h0.601
	c0.85-1.55,2.55-3.15,5.351-3.15c2.7,0,4.1,1.5,4.85,3.15h0.95c0.9-1.55,2.7-3.15,5.601-3.15c5.9,0,5.95,6.5,5.95,7.451v18.751
	h-4.75V19.451c0-0.6-0.05-4.9-2.5-4.9c-1.95,0-4.301,2.75-4.4,9.601v12.551H427.5z"/>
<path d="M450.3,18.801c0.1-1.55,0.55-2.9,1.4-4.15c1.35-2.05,4.1-4.15,9.5-4.15c2.15,0,3.751,0.45,5.001,1
	c3.45,1.6,4.1,4.65,4.1,7.201v13.25c0,0.85,0.601,1.35,1.15,1.35s0.8-0.25,1-0.5c0.15-0.15,0.25-0.3,0.3-0.5l3.351,1.65
	c-0.3,0.6-0.65,1.15-1.101,1.6c-0.75,0.8-1.85,1.55-3.3,1.55c-2.601,0-4.65-1.9-4.8-3.25h-0.4c-2.601,2.55-5.5,3.25-7.65,3.25
	c-1.601,0-9.801-0.15-9.801-7.9c0-4.8,4.601-7,8.351-7.8l8.15-1.7v-1c0-1.4-0.1-4.15-4.5-4.15c-2.95,0-4.4,1.1-5.15,2.15
	c-0.45,0.6-0.7,1.3-0.8,2.1H450.3z M465.551,23.651l-6,1.25c-2.7,0.55-5.551,1.8-5.551,4.35c0,3.701,3.5,3.8,4.851,3.8h0.2
	c2.95,0,6.5-2.25,6.5-5.05V23.651z"/>
</svg>
