<?xml version="1.0" encoding="utf-8"?>
<!-- Generator: Adobe Illustrator 15.0.0, SVG Export Plug-In . SVG Version: 6.00 Build 0)  -->
<!DOCTYPE svg PUBLIC "-//W3C//DTD SVG 1.1//EN" "http://www.w3.org/Graphics/SVG/1.1/DTD/svg11.dtd">
<svg version="1.1" id="Layer_1" xmlns="http://www.w3.org/2000/svg" xmlns:xlink="http://www.w3.org/1999/xlink" x="0px" y="0px"
	 width="334.5px" height="81px" viewBox="-4.5 -4.5 334.5 81" enable-background="new -4.5 -4.5 334.5 81" xml:space="preserve">
<path fill="#E8A723" d="M0,69.004L9,0h44.703l-0.8,5.701H14.301L11,31.202h35.602l-0.8,5.7H10.201L6.1,69.004H0z"/>
<path fill="#E8A723" d="M80.101,0h22.001l-8.3,63.604h18.801l-0.7,5.4H68.4l0.7-5.4h18.801L95.502,5.4H79.401L80.101,0z"/>
<path fill="#E8A723" d="M135.7,62.404c-3.6-4.5-5.2-10.602-5.2-16.701c0-6.601,1.9-13.601,6.3-19.102c4.5-5.6,11.101-9.3,20.301-9.3
	c7.101,0,12.601,2.9,16.201,7.4c3.601,4.5,5.2,10.701,5.2,16.701c0,6.4-1.9,13.401-6.301,18.901
	c-4.6,5.602-11.101,9.502-20.301,9.502C144.901,69.805,139.301,66.904,135.7,62.404z M167.502,56.805c3.4-4.4,4.801-10,4.801-15.302
	c0-4.8-1.199-9.601-3.801-13.001c-2.6-3.4-6.5-5.601-11.7-5.601c-7,0-11.901,3-15.301,7.301c-3.4,4.4-4.8,10-4.8,15.401
	c0,4.899,1.2,9.601,3.8,13s6.601,5.601,11.701,5.601C159.202,64.204,164.103,61.104,167.502,56.805z"/>
<path fill="#E8A723" d="M207.102,46.503l-3,22.501h-5.9l6.6-50.703h5.9l-1.5,11.101h0.4c4.899-7,12.399-12.101,20.602-12.101
	c8,0,14.4,5.8,14.4,13.001c0,0.6,0,0.8-0.1,1.6l-0.201,1.6h-5.9l0.101-0.6c0.101-0.6,0.101-0.9,0.101-1.4
	c0-3.4-2.699-8.601-9.801-8.601C220.201,22.901,209.102,31.602,207.102,46.503z"/>
<path fill="#E8A723" d="M263.1,62.404c-3.4-4.5-5-10.602-5-16.701c0-6.601,1.801-13.601,6-19.102c4.301-5.6,10.602-9.3,19.401-9.3
	c8.199,0,13.601,4.1,17,10.301h0.301l1.199-9.301h5.899l-6.5,50.703h-5.899l1-8.9h-0.399c-4.3,5.601-8.601,9.701-17.5,9.701
	C271.9,69.805,266.5,66.904,263.1,62.404z M294.102,56.805c3.301-4.4,4.7-10,4.7-15.302c0-4.8-1.2-9.601-3.801-13.001
	c-2.5-3.4-6.199-5.601-11.301-5.601c-6.802,0-11.601,3-14.9,7.301c-3.301,4.4-4.7,10-4.7,15.401c0,4.899,1.2,9.601,3.801,13
	c2.5,3.399,6.301,5.601,11.301,5.601C286.001,64.204,290.802,61.104,294.102,56.805z"/>
</svg>
