<?xml version="1.0" encoding="utf-8"?>
<!-- Generator: Adobe Illustrator 15.0.0, SVG Export Plug-In . SVG Version: 6.00 Build 0)  -->
<!DOCTYPE svg PUBLIC "-//W3C//DTD SVG 1.1//EN" "http://www.w3.org/Graphics/SVG/1.1/DTD/svg11.dtd">
<svg version="1.1" id="Layer_1" xmlns="http://www.w3.org/2000/svg" xmlns:xlink="http://www.w3.org/1999/xlink" x="0px" y="0px"
	 width="395px" height="46px" viewBox="-6 -3.5 395 46" enable-background="new -6 -3.5 395 46" xml:space="preserve">
<path d="M22.602,35.352l-2.95-9.801H8.051l-3,9.801H0L10.951,0.85h5.801l10.9,34.501H22.602z M9.801,21.401h8.051L13.851,6
	L9.801,21.401z"/>
<path d="M34.5,31.502h9.101V4.4H35.8V0.55h12.551v30.952h8.801v3.85H34.5V31.502z"/>
<path d="M66.75,31.502h9.101V13.551H68.05v-3.85h12.551v21.801h8.801v3.85H66.75V31.502z M78.051,0c2,0,3.6,1.6,3.6,3.6
	c0,1.9-1.6,3.45-3.6,3.45c-1.9,0-3.45-1.55-3.45-3.45C74.601,1.6,76.151,0,78.051,0z"/>
<path d="M109.701,31.702c3,0,5.9-2.2,6.95-6.101h5c-1.35,6.4-6.25,10.15-11.901,10.15c-6.85,0-12.301-5.35-12.301-13.201
	c0-8,5.451-13.401,12.301-13.401c5.8,0,10.651,4,11.901,10.151h-5c-1-3.7-3.8-6.101-6.95-6.101c-3.95,0-7.301,3.8-7.301,9.25
	C102.4,27.952,105.751,31.702,109.701,31.702z"/>
<path d="M134.65,23.751c0.45,4.8,3.701,7.95,7.451,7.95c3.05,0,5.65-2.051,7.05-5.45l4.3,1.899c-1.9,4.701-6.3,7.601-11.351,7.601
	c-6.95,0-12.451-5.351-12.451-13.201c0-8,5.4-13.401,12.201-13.401c6.801,0,12.201,5.4,12.201,13.401v1.2L134.65,23.751
	L134.65,23.751z M134.851,20.001h14.001c-0.85-4.1-3.7-6.8-7-6.8C138.501,13.201,135.651,15.901,134.851,20.001z"/>
<path d="M198.95,35.352h-4.85V0.85h16.102c5.101,0,9.25,4.5,9.25,10c0,4.55-2.899,8.15-6.601,9.4l8.15,15.102h-5.352l-7.75-14.4H199
	L198.95,35.352z M208.852,16.801c3.051,0,5.551-1.75,5.551-5.9c0-2.35-0.95-5.9-5.551-5.9h-9.9v11.801L208.852,16.801
	L208.852,16.801z"/>
<path d="M237.9,9.15c6.851,0,12.351,5.4,12.351,13.401c0,7.852-5.5,13.201-12.351,13.201c-6.95,0-12.45-5.35-12.45-13.201
	C225.45,14.551,230.95,9.15,237.9,9.15z M237.852,31.702c4.049,0,7.449-3.75,7.449-9.25c0-5.45-3.4-9.25-7.449-9.25
	c-4.051,0-7.451,3.8-7.451,9.25C230.4,27.952,233.801,31.702,237.852,31.702z"/>
<path d="M259,35.352V9.701h4.75v3.6h0.4c1.25-1.55,4.05-4.15,8.199-4.15c8.252,0,8.301,6.5,8.301,7.451v18.751h-4.75V18.101
	c0-0.6-0.051-4.9-4.449-4.9c-3.501,0-7.701,4.3-7.701,11.551v10.602H259V35.352z"/>
<path d="M301.7,31.702c3.001,0,5.899-2.2,6.95-6.101h5c-1.351,6.4-6.25,10.15-11.899,10.15c-6.851,0-12.301-5.35-12.301-13.201
	c0-8,5.45-13.401,12.301-13.401c5.8,0,10.649,4,11.899,10.151h-5c-1-3.7-3.801-6.101-6.95-6.101c-3.95,0-7.3,3.8-7.3,9.25
	C294.4,27.952,297.75,31.702,301.7,31.702z"/>
<path d="M323,35.352V0.55h4.75v12.751h0.4c1.25-1.55,4.05-4.15,8.199-4.15c8.252,0,8.301,6.5,8.301,7.451v18.751h-4.75V18.101
	c0-0.6-0.051-4.9-4.449-4.9c-3.501,0-7.701,4.3-7.701,11.551v10.602H323V35.352z"/>
<path d="M354.75,31.502h9.102V13.551h-7.802v-3.85h12.552v21.801h8.801v3.85H354.75V31.502z M366.051,0c2,0,3.6,1.6,3.6,3.6
	c0,1.9-1.6,3.45-3.6,3.45c-1.9,0-3.449-1.55-3.449-3.45C362.602,1.6,364.15,0,366.051,0z"/>
</svg>
