<?xml version="1.0" encoding="utf-8"?>
<!-- Generator: Adobe Illustrator 15.0.0, SVG Export Plug-In  -->
<!DOCTYPE svg PUBLIC "-//W3C//DTD SVG 1.1//EN" "http://www.w3.org/Graphics/SVG/1.1/DTD/svg11.dtd" [
	<!ENTITY ns_flows "http://ns.adobe.com/Flows/1.0/">
]>
<svg version="1.1"
	 xmlns="http://www.w3.org/2000/svg" xmlns:xlink="http://www.w3.org/1999/xlink" xmlns:a="http://ns.adobe.com/AdobeSVGViewerExtensions/3.0/"
	 x="0px" y="0px" width="454px" height="53px" viewBox="-8.25 -5.265 454 53"
	 overflow="visible" enable-background="new -8.25 -5.265 454 53" xml:space="preserve">
<defs>
</defs>
<path d="M19.451,16.451v0.15c3.25,1.45,5.45,5,5.45,8.601c0,5.35-4.2,9.601-9.351,9.601H0V0.3h14.75c5.101,0,9.251,4,9.251,8.95
	C24.001,12.351,21.901,14.851,19.451,16.451z M4.85,14.601h9.3c2.95,0,4.801-2.2,4.801-5.101c0-2.85-1.851-5.05-4.801-5.05h-9.3
	V14.601z M4.85,30.652h9.4c3.351,0,5.601-1.75,5.601-6c0-3.25-2.55-5.9-5.601-5.9h-9.4V30.652z"/>
<path d="M32.9,34.802V9.151h4.75v3.6h0.4c1.25-1.55,4.05-4.15,8.2-4.15c8.25,0,8.301,6.5,8.301,7.451v1.25h-4.75
	c-0.05-1.05-0.45-4.65-4.45-4.65c-3.5,0-7.701,4.3-7.701,11.551v10.601H32.9z"/>
<path d="M64.2,16.901c0.1-1.55,0.55-2.9,1.4-4.15c1.35-2.05,4.1-4.15,9.5-4.15c2.15,0,3.75,0.45,5,1
	c3.45,1.6,4.101,4.65,4.101,7.201v13.25c0,0.85,0.6,1.35,1.15,1.35s0.8-0.25,1-0.5c0.15-0.15,0.25-0.3,0.3-0.5l3.35,1.65
	c-0.3,0.6-0.65,1.15-1.1,1.6c-0.75,0.8-1.85,1.55-3.3,1.55c-2.6,0-4.65-1.9-4.8-3.25h-0.4c-2.6,2.55-5.5,3.25-7.65,3.25
	c-1.6,0-9.801-0.15-9.801-7.9c0-4.8,4.6-7,8.351-7.8l8.15-1.7v-1c0-1.4-0.1-4.15-4.5-4.15c-2.95,0-4.4,1.1-5.15,2.15
	c-0.45,0.6-0.7,1.3-0.8,2.1H64.2z M79.451,21.751l-6,1.25c-2.7,0.55-5.55,1.8-5.55,4.35c0,3.701,3.5,3.8,4.851,3.8h0.2
	c2.95,0,6.5-2.25,6.5-5.05V21.751z"/>
<path d="M105.4,34.802V17.551c0-0.6-0.05-4.9-2.5-4.9c-2,0-4.4,2.85-4.4,10.101v12.051h-4.75V9.151h4.75v2.6h0.6
	c0.85-1.55,2.55-3.15,5.35-3.15c2.7,0,4.101,1.5,4.851,3.15h0.95c0.9-1.55,2.7-3.15,5.601-3.15c5.9,0,5.95,6.5,5.95,7.451v18.751
	h-4.75V17.551c0-0.6-0.05-4.9-2.5-4.9c-1.95,0-4.3,2.75-4.4,9.601v12.551H105.4z"/>
<path d="M183.501,34.802h-4.75v-2.85h-0.35c-1.351,1.45-3.951,3.25-7.351,3.25c-6.551,0-11.701-6-11.701-13.25
	c0-7.351,5.15-13.351,11.701-13.351c3.399,0,6.05,2.1,7.3,3.5h0.4V0h4.75V34.802z M178.751,21.901c0-5.5-2.65-9.25-7.251-9.25
	c-4.05,0-7.2,4.05-7.2,9.25s3.15,9.25,7.2,9.25c4.451,0,7.101-3.6,7.251-8.851V21.901z"/>
<path d="M196.55,23.202c0.45,4.8,3.7,7.95,7.45,7.95c3.05,0,5.65-2.05,7.051-5.45l4.3,1.9c-1.9,4.7-6.3,7.6-11.351,7.6
	c-6.95,0-12.451-5.35-12.451-13.201c0-8,5.4-13.401,12.201-13.401s12.201,5.4,12.201,13.401v1.2H196.55z M196.75,19.451h14
	c-0.85-4.1-3.7-6.8-7-6.8C200.399,12.651,197.55,15.351,196.75,19.451z"/>
<path d="M279.051,0.3v22.051c0,8.05-3.3,12.851-12.15,12.851c-7.301,0-11.151-3.8-12.352-9.5l4.801-1.05c0.85,4.15,3.05,6.3,7.4,6.3
	c6.301,0,7.45-3.45,7.45-8.601V0.3H279.051z"/>
<path d="M299.8,8.601c6.851,0,12.351,5.4,12.351,13.401c0,7.851-5.5,13.201-12.351,13.201c-6.95,0-12.45-5.35-12.45-13.201
	C287.35,14.001,292.85,8.601,299.8,8.601z M299.75,31.152c4.05,0,7.45-3.75,7.45-9.25c0-5.45-3.4-9.25-7.45-9.25
	s-7.45,3.8-7.45,9.25C292.3,27.402,295.7,31.152,299.75,31.152z"/>
<path d="M320.899,34.802V9.151h4.75v3.6h0.4c1.25-1.55,4.05-4.15,8.2-4.15c8.251,0,8.301,6.5,8.301,7.451v18.751h-4.75V17.551
	c0-0.6-0.051-4.9-4.45-4.9c-3.501,0-7.701,4.3-7.701,11.551v10.601H320.899z"/>
<path d="M356.55,36.603c1.85,2.85,3.8,4.4,6.45,4.4c5.05,0,7.25-2.5,7.25-6.05v-2.7h-0.6c-1.7,1.75-4.101,2.95-7.4,2.95
	c-6.051,0-10.9-5.9-10.9-13.201c0-7.5,4.85-13.401,10.9-13.401c3.3,0,5.5,1.3,7.65,3.5h0.35v-2.95h4.751v25.901
	c0,5.45-3.751,10-11.701,10c-4.55,0-8.351-1.9-10.95-6.4L356.55,36.603z M370.25,20.501c0-5.351-3.649-7.851-7.25-7.851
	c-4.05,0-7.2,4.15-7.2,9.25c0,5.101,3.15,9.25,7.2,9.25c3.5,0,7.25-2.45,7.25-7.6V20.501z"/>
<path d="M384.899,34.802V0h4.75v12.751h0.4c1.25-1.55,4.05-4.15,8.2-4.15c8.251,0,8.301,6.5,8.301,7.451v18.751h-4.75V17.551
	c0-0.6-0.051-4.9-4.45-4.9c-3.501,0-7.701,4.3-7.701,11.551v10.601H384.899z"/>
<path d="M420.55,23.202c0.45,4.8,3.7,7.95,7.45,7.95c3.05,0,5.65-2.05,7.051-5.45l4.3,1.9c-1.9,4.7-6.3,7.6-11.351,7.6
	c-6.95,0-12.451-5.35-12.451-13.201c0-8,5.4-13.401,12.201-13.401s12.201,5.4,12.201,13.401v1.2H420.55z M420.75,19.451h14
	c-0.85-4.1-3.7-6.8-7-6.8C424.399,12.651,421.55,15.351,420.75,19.451z"/>
</svg>
