<?xml version="1.0" encoding="utf-8"?>
<!-- Generator: Adobe Illustrator 15.0.0, SVG Export Plug-In . SVG Version: 6.00 Build 0)  -->
<!DOCTYPE svg PUBLIC "-//W3C//DTD SVG 1.1//EN" "http://www.w3.org/Graphics/SVG/1.1/DTD/svg11.dtd">
<svg version="1.1" id="Layer_1" xmlns="http://www.w3.org/2000/svg" xmlns:xlink="http://www.w3.org/1999/xlink" x="0px" y="0px"
	 width="454px" height="53px" viewBox="0 0 454 53" enable-background="new 0 0 454 53" xml:space="preserve">
<path d="M25.454,20.395v0.15c3.25,1.45,5.45,4.999,5.45,8.601c0,5.351-4.2,9.602-9.351,9.602H6.003V4.244h14.75
	c5.101,0,9.251,4,9.251,8.95C30.004,16.295,27.904,18.795,25.454,20.395z M10.853,18.545h9.3c2.95,0,4.801-2.2,4.801-5.101
	c0-2.85-1.851-5.05-4.801-5.05h-9.3V18.545z M10.853,34.597h9.4c3.351,0,5.601-1.75,5.601-6.002c0-3.25-2.55-5.899-5.601-5.899h-9.4
	V34.597z"/>
<path d="M38.903,38.746V13.095h4.75v3.6h0.4c1.25-1.55,4.05-4.15,8.2-4.15c8.25,0,8.301,6.5,8.301,7.451v1.25h-4.75
	c-0.05-1.05-0.45-4.65-4.45-4.65c-3.5,0-7.701,4.3-7.701,11.551v10.603h-4.75V38.746z"/>
<path d="M70.203,20.845c0.1-1.55,0.55-2.9,1.4-4.15c1.35-2.05,4.1-4.15,9.5-4.15c2.15,0,3.75,0.45,5,1
	c3.45,1.6,4.101,4.65,4.101,7.201v13.25c0,0.851,0.6,1.351,1.15,1.351c0.55,0,0.8-0.25,1-0.5c0.15-0.15,0.25-0.301,0.3-0.5
	l3.35,1.649c-0.3,0.601-0.65,1.15-1.1,1.601c-0.75,0.8-1.85,1.55-3.3,1.55c-2.6,0-4.65-1.9-4.8-3.25h-0.4
	c-2.6,2.55-5.5,3.25-7.65,3.25c-1.6,0-9.801-0.15-9.801-7.9c0-4.801,4.6-7,8.351-7.801l8.15-1.7v-1c0-1.4-0.1-4.15-4.5-4.15
	c-2.95,0-4.4,1.1-5.15,2.15c-0.45,0.6-0.7,1.3-0.8,2.1L70.203,20.845L70.203,20.845z M85.454,25.694l-6,1.25
	c-2.7,0.549-5.55,1.8-5.55,4.352c0,3.7,3.5,3.799,4.851,3.799h0.2c2.95,0,6.5-2.25,6.5-5.05L85.454,25.694L85.454,25.694z"/>
<path d="M111.403,38.746V21.495c0-0.6-0.05-4.9-2.5-4.9c-2,0-4.4,2.85-4.4,10.1v12.052h-4.75V13.095h4.75v2.6h0.6
	c0.85-1.55,2.55-3.15,5.35-3.15c2.7,0,4.101,1.5,4.851,3.15h0.95c0.9-1.55,2.7-3.15,5.601-3.15c5.9,0,5.95,6.5,5.95,7.451v18.751
	h-4.75V21.495c0-0.6-0.05-4.9-2.5-4.9c-1.95,0-4.3,2.75-4.4,9.6v12.552L111.403,38.746L111.403,38.746z"/>
<path d="M189.504,38.746h-4.75v-2.85h-0.35c-1.351,1.45-3.951,3.25-7.351,3.25c-6.551,0-11.701-6-11.701-13.251
	c0-7.351,5.15-13.351,11.701-13.351c3.399,0,6.05,2.1,7.3,3.5h0.4V3.944h4.75L189.504,38.746L189.504,38.746z M184.754,25.844
	c0-5.499-2.65-9.249-7.251-9.249c-4.05,0-7.2,4.05-7.2,9.249c0,5.202,3.15,9.251,7.2,9.251c4.451,0,7.101-3.6,7.251-8.852V25.844z"
	/>
<path d="M202.553,27.145c0.45,4.802,3.7,7.952,7.45,7.952c3.05,0,5.65-2.051,7.051-5.451l4.3,1.9c-1.9,4.7-6.3,7.601-11.351,7.601
	c-6.95,0-12.451-5.351-12.451-13.202c0-8,5.4-13.4,12.201-13.4s12.201,5.4,12.201,13.4v1.199L202.553,27.145L202.553,27.145z
	 M202.753,23.395h14c-0.85-4.1-3.7-6.8-7-6.8C206.402,16.595,203.553,19.295,202.753,23.395z"/>
<path d="M285.057,4.244v22.05c0,8.051-3.3,12.853-12.15,12.853c-7.301,0-11.15-3.8-12.352-9.501l4.801-1.051
	c0.851,4.151,3.051,6.302,7.4,6.302c6.301,0,7.45-3.45,7.45-8.603V4.244H285.057z"/>
<path d="M305.806,12.545c6.851,0,12.351,5.4,12.351,13.4c0,7.853-5.5,13.202-12.351,13.202c-6.95,0-12.45-5.35-12.45-13.202
	C293.355,17.945,298.855,12.545,305.806,12.545z M305.756,35.097c4.05,0,7.45-3.75,7.45-9.252c0-5.449-3.4-9.249-7.45-9.249
	s-7.45,3.8-7.45,9.249C298.306,31.347,301.706,35.097,305.756,35.097z"/>
<path d="M326.904,38.746V13.095h4.75v3.6h0.4c1.25-1.55,4.051-4.15,8.2-4.15c8.251,0,8.301,6.5,8.301,7.451v18.751h-4.75V21.495
	c0-0.6-0.051-4.9-4.45-4.9c-3.5,0-7.701,4.3-7.701,11.551v10.602L326.904,38.746L326.904,38.746z"/>
<path d="M362.556,40.548c1.851,2.85,3.8,4.399,6.45,4.399c5.05,0,7.25-2.5,7.25-6.05v-2.7h-0.6c-1.7,1.75-4.102,2.95-7.4,2.95
	c-6.051,0-10.9-5.9-10.9-13.202c0-7.5,4.851-13.4,10.9-13.4c3.3,0,5.5,1.3,7.65,3.5h0.35v-2.95h4.751v25.901
	c0,5.45-3.751,10-11.701,10c-4.55,0-8.351-1.899-10.95-6.399L362.556,40.548z M376.256,24.445c0-5.351-3.648-7.851-7.25-7.851
	c-4.05,0-7.2,4.15-7.2,9.249c0,5.103,3.15,9.252,7.2,9.252c3.5,0,7.25-2.45,7.25-7.603V24.445z"/>
<path d="M390.904,38.746V3.944h4.75v12.751h0.4c1.25-1.55,4.051-4.15,8.2-4.15c8.251,0,8.301,6.5,8.301,7.451v18.751h-4.75V21.495
	c0-0.6-0.051-4.9-4.45-4.9c-3.5,0-7.701,4.3-7.701,11.551v10.602L390.904,38.746L390.904,38.746z"/>
<path d="M426.556,27.145c0.45,4.802,3.7,7.952,7.45,7.952c3.05,0,5.65-2.051,7.051-5.451l4.3,1.9c-1.899,4.7-6.3,7.601-11.351,7.601
	c-6.95,0-12.451-5.351-12.451-13.202c0-8,5.4-13.4,12.201-13.4s12.201,5.4,12.201,13.4v1.199L426.556,27.145L426.556,27.145z
	 M426.756,23.395h14c-0.85-4.1-3.7-6.8-7-6.8C430.405,16.595,427.556,19.295,426.756,23.395z"/>
</svg>
