<?xml version="1.0" encoding="utf-8"?>
<!-- Generator: Adobe Illustrator 15.0.0, SVG Export Plug-In  -->
<!DOCTYPE svg PUBLIC "-//W3C//DTD SVG 1.1//EN" "http://www.w3.org/Graphics/SVG/1.1/DTD/svg11.dtd" [
	<!ENTITY ns_flows "http://ns.adobe.com/Flows/1.0/">
]>
<svg version="1.1"
	 xmlns="http://www.w3.org/2000/svg" xmlns:xlink="http://www.w3.org/1999/xlink" xmlns:a="http://ns.adobe.com/AdobeSVGViewerExtensions/3.0/"
	 x="0px" y="0px" width="737px" height="179px" viewBox="-3.897 -9.215 737 179"
	 overflow="visible" enable-background="new -3.897 -9.215 737 179" xml:space="preserve">
<defs>
</defs>
<path d="M0.8,35.352V0.85h13.451c7.451,0,13.401,7.75,13.401,17.251s-5.95,17.251-13.401,17.251H0.8z M13.651,31.202
	c4.951,0,8.951-5.9,8.951-13.051c0-7.3-4-13.151-8.951-13.151h-8v26.202H13.651z"/>
<path d="M34.55,17.451c0.1-1.55,0.55-2.9,1.4-4.15c1.35-2.05,4.1-4.15,9.5-4.15c2.15,0,3.75,0.45,5,1
	c3.45,1.6,4.101,4.65,4.101,7.201v13.25c0,0.85,0.6,1.35,1.15,1.35s0.8-0.25,1-0.5c0.15-0.15,0.25-0.3,0.3-0.5l3.35,1.65
	c-0.3,0.6-0.65,1.15-1.1,1.6c-0.75,0.8-1.85,1.55-3.3,1.55c-2.6,0-4.65-1.9-4.8-3.25h-0.4c-2.6,2.55-5.5,3.25-7.65,3.25
	c-1.6,0-9.801-0.15-9.801-7.9c0-4.8,4.6-7,8.351-7.8l8.15-1.7v-1c0-1.4-0.1-4.15-4.5-4.15c-2.95,0-4.4,1.1-5.15,2.15
	c-0.45,0.6-0.7,1.3-0.8,2.1H34.55z M49.801,22.301l-6,1.25c-2.7,0.55-5.55,1.8-5.55,4.35c0,3.701,3.5,3.8,4.851,3.8h0.2
	c2.95,0,6.5-2.25,6.5-5.05V22.301z"/>
<path d="M90.852,9.701l-9.951,25.651h-5.601L65.35,9.701h5l7.75,20.851l7.75-20.851H90.852z"/>
<path d="M99,31.502h9.101V13.551H100.3v-3.85h12.551v21.801h8.801v3.85H99V31.502z M110.301,0c2,0,3.6,1.6,3.6,3.6
	c0,1.9-1.6,3.45-3.6,3.45c-1.9,0-3.45-1.55-3.45-3.45C106.851,1.6,108.401,0,110.301,0z"/>
<path d="M153.852,35.352h-4.75v-2.85h-0.35c-1.35,1.45-3.95,3.25-7.351,3.25c-6.55,0-11.701-6-11.701-13.25
	c0-7.351,5.15-13.351,11.701-13.351c3.4,0,6.05,2.1,7.301,3.5h0.4V0.55h4.75V35.352z M149.102,22.451c0-5.5-2.65-9.25-7.25-9.25
	c-4.05,0-7.201,4.05-7.201,9.25s3.15,9.25,7.201,9.25c4.45,0,7.101-3.6,7.25-8.851V22.451z"/>
<path d="M213.801,17.001v0.15c3.25,1.45,5.45,5,5.45,8.601c0,5.35-4.2,9.601-9.351,9.601H194.35V0.85h14.751
	c5.101,0,9.251,4,9.251,8.95C218.352,12.901,216.251,15.401,213.801,17.001z M199.2,15.151h9.301c2.95,0,4.8-2.2,4.8-5.101
	c0-2.85-1.85-5.05-4.8-5.05H199.2V15.151z M199.2,31.202h9.4c3.351,0,5.601-1.75,5.601-6c0-3.25-2.55-5.9-5.601-5.9h-9.4V31.202z"/>
<path d="M230.9,23.751c0.45,4.8,3.7,7.95,7.45,7.95c3.049,0,5.647-2.05,7.047-5.45l4.3,1.9c-1.9,4.7-6.299,7.6-11.347,7.6
	c-6.95,0-12.451-5.35-12.451-13.201c0-8,5.4-13.401,12.201-13.401c6.797,0,12.197,5.4,12.197,13.401v1.2H230.9z M231.101,20.001
	h13.997c-0.849-4.1-3.697-6.8-6.997-6.8C234.75,13.201,231.9,15.901,231.101,20.001z"/>
<path d="M259.247,35.352V9.701h4.75v3.6h0.4c1.25-1.55,4.049-4.15,8.199-4.15c8.252,0,8.301,6.5,8.301,7.451v1.25h-4.75
	c-0.051-1.05-0.449-4.65-4.449-4.65c-3.502,0-7.701,4.3-7.701,11.551v10.601H259.247z"/>
<path d="M291.247,35.352V9.701h4.75v3.6h0.4c1.25-1.55,4.049-4.15,8.199-4.15c8.252,0,8.301,6.5,8.301,7.451v18.751h-4.75V18.101
	c0-0.6-0.051-4.9-4.449-4.9c-3.502,0-7.701,4.3-7.701,11.551v10.601H291.247z"/>
<path d="M339.948,17.551c-0.15-0.75-0.701-4.35-6.102-4.35c-5.199,0-5.85,2.7-5.85,3.5c0,2.8,4.949,3.3,6.699,3.5
	c4.852,0.5,11.402,1.25,11.402,7.7c0,3.75-3.352,7.851-11.602,7.851c-7.85,0-12.25-4.95-12.4-8.95h4.949
	c0.201,2.1,2.301,4.9,7.352,4.9c5.301,0,6.75-2.15,6.75-3.8c0-3.7-4.5-3.3-8.301-3.85c-4-0.6-9.801-2-9.801-7.351
	c0-1.3,1-7.55,10.701-7.55c10.051,0,11.201,8.101,11.25,8.4H339.948z"/>
<path d="M359.196,10V0.55h4.75V10h11.902v3.85h-11.902v12.951c0,0.6,0.051,4.9,4.451,4.9c3.35,0,4.949-2.3,5.551-3.15l4.049,2.25
	c-2.199,3.45-5.049,4.95-9.6,4.95c-9.15,0-9.201-6.5-9.201-7.45V13.851h-6.75V10H359.196z"/>
<path d="M390.897,23.751c0.449,4.8,3.699,7.95,7.449,7.95c3.051,0,5.65-2.05,7.051-5.45l4.301,1.9c-1.9,4.7-6.301,7.6-11.352,7.6
	c-6.949,0-12.451-5.35-12.451-13.201c0-8,5.4-13.401,12.201-13.401s12.201,5.4,12.201,13.401v1.2H390.897z M391.096,20.001h14
	c-0.85-4.1-3.699-6.8-7-6.8C394.747,13.201,391.897,15.901,391.096,20.001z"/>
<path d="M418.997,31.502h9.1V13.551h-7.801v-3.85h12.551v21.801h8.801v3.85h-22.65V31.502z M430.297,0c2,0,3.6,1.6,3.6,3.6
	c0,1.9-1.6,3.45-3.6,3.45c-1.9,0-3.451-1.55-3.451-3.45C426.846,1.6,428.397,0,430.297,0z"/>
<path d="M451.247,35.352V9.701h4.75v3.6h0.4c1.25-1.55,4.049-4.15,8.199-4.15c8.252,0,8.301,6.5,8.301,7.451v18.751h-4.75V18.101
	c0-0.6-0.051-4.9-4.449-4.9c-3.502,0-7.701,4.3-7.701,11.551v10.601H451.247z"/>
<path d="M494.696,28.352c2.201,0,3.852,1.6,3.852,4.3v0.65c0,6.4-7.051,10.151-7.051,10.151l-1.85-2.2c2.549-2,4.049-3.6,4.799-5.65
	c-1.799,0-3.398-1.6-3.398-3.5C491.047,30.002,492.797,28.352,494.696,28.352z"/>
<path d="M26.452,70.25h-5.25c-0.8-3.8-3.7-5.6-8.151-5.6c-3.1,0-7.3,1.6-7.3,5.35c0,3.9,4.601,4.9,8.65,5.3
	c6.451,0.6,13.851,2.05,13.851,9.851c0,7.3-5.601,10.601-12.901,10.601C7,95.752,1.1,91.302,0,83.701h5.101
	c1.1,5.201,4.8,7.851,10,7.851c4.25,0,8.101-1.25,8.101-6.4c0-4-3-4.95-9.4-5.65C7.901,78.851,0.7,77.001,0.7,70
	c0-5.95,6.3-9.551,12.201-9.551C19.952,60.45,25.002,63.5,26.452,70.25z"/>
<path d="M39.201,70V60.55h4.75V70h11.9v3.85h-11.9v12.951c0,0.6,0.05,4.9,4.45,4.9c3.35,0,4.95-2.3,5.55-3.15l4.05,2.25
	c-2.2,3.45-5.05,4.95-9.601,4.95c-9.151,0-9.201-6.5-9.201-7.45V73.851h-6.75V70H39.201z"/>
<path d="M78.251,101.203c-1.2,3.15-4.3,5.351-8.2,5.351c-1.4,0-2.9-0.301-4.451-0.9c-1.8-0.7-3.1-1.601-4.1-2.551l3.45-2.6
	c0.65,0.65,1.4,1.1,2.25,1.45c0.7,0.25,1.45,0.399,2.15,0.399c2.05,0,3.9-0.899,4.75-2.899l2.45-5.75l-10.4-24.001h5l7.65,18.251
	l6.8-18.251h5L78.251,101.203z"/>
<path d="M99.25,95.352V69.701H104v3.6h0.4c1.25-1.55,4.05-4.15,8.2-4.15c8.25,0,8.301,6.5,8.301,7.451v1.25h-4.75
	c-0.05-1.05-0.45-4.65-4.45-4.65c-3.5,0-7.701,4.3-7.701,11.551v10.601H99.25z"/>
<path d="M139.751,95.352V78.101c0-0.6-0.05-4.9-2.5-4.9c-2,0-4.4,2.85-4.4,10.101v12.051h-4.75V69.701h4.75v2.6h0.6
	c0.85-1.55,2.55-3.15,5.35-3.15c2.7,0,4.101,1.5,4.851,3.15h0.95c0.9-1.55,2.7-3.15,5.601-3.15c5.9,0,5.95,6.5,5.95,7.451v18.751
	h-4.75V78.101c0-0.6-0.05-4.9-2.5-4.9c-1.95,0-4.3,2.75-4.4,9.601v12.551H139.751z"/>
<path d="M163,91.502h9.101V73.551h-7.8v-3.85h12.551v21.801h8.8v3.85H163V91.502z M174.301,60c2,0,3.601,1.6,3.601,3.6
	c0,1.9-1.601,3.45-3.601,3.45c-1.899,0-3.45-1.55-3.45-3.45C170.851,61.6,172.401,60,174.301,60z"/>
<path d="M195.25,95.352V69.701H200v3.6h0.4c1.25-1.55,4.05-4.15,8.2-4.15c8.251,0,8.301,6.5,8.301,7.451v1.25h-4.75
	c-0.051-1.05-0.45-4.65-4.45-4.65c-3.501,0-7.701,4.3-7.701,11.551v10.601H195.25z"/>
<path d="M259.795,65.35c2.65-3.05,6.451-4.8,10.4-4.8c3.9,0,7.65,1.75,10.252,4.8c2.65,3.1,4.25,7.451,4.25,12.801
	c0,5.4-1.6,9.75-4.201,12.851c-2.65,3.05-6.4,4.75-10.301,4.75c-3.949,0-7.75-1.7-10.449-4.8c-2.602-3.05-4.25-7.4-4.25-12.801
	C255.497,72.801,257.145,68.45,259.795,65.35z M263.446,87.901c1.65,2.351,4.102,3.65,6.65,3.65c2.602,0,5.051-1.3,6.701-3.65
	c1.801-2.25,2.85-5.6,2.85-9.8c0-4.15-1.049-7.5-2.85-9.75c-1.65-2.35-4.1-3.7-6.701-3.7c-2.549,0-5,1.35-6.65,3.7
	c-1.85,2.25-2.9,5.6-2.9,9.75C260.545,82.301,261.596,85.651,263.446,87.901z M264.096,50.649c2,0,3.6,1.6,3.6,3.6
	c0,1.9-1.6,3.45-3.6,3.45c-1.9,0-3.449-1.55-3.449-3.45C260.647,52.25,262.196,50.649,264.096,50.649z M275.997,50.649
	c2,0,3.602,1.6,3.602,3.6c0,1.9-1.602,3.45-3.602,3.45c-1.9,0-3.449-1.55-3.449-3.45C272.547,52.25,274.096,50.649,275.997,50.649z"
	/>
<path d="M291.247,95.352V69.701h4.75v3.6h0.4c1.25-1.55,4.049-4.15,8.199-4.15c8.252,0,8.301,6.5,8.301,7.451v1.25h-4.75
	c-0.051-1.05-0.449-4.65-4.449-4.65c-3.502,0-7.701,4.3-7.701,11.551v10.601H291.247z"/>
<path d="M323.247,95.352V69.701h4.75v3.6h0.4c1.25-1.55,4.049-4.15,8.199-4.15c8.252,0,8.301,6.5,8.301,7.451v18.751h-4.75V78.101
	c0-0.6-0.051-4.9-4.449-4.9c-3.502,0-7.701,4.3-7.701,11.551v10.601H323.247z"/>
<path d="M406.997,90.752c-1.049,2.2-4.449,5-8.6,5s-7.701-1.7-10.451-4.75c-2.75-3.101-4.449-7.5-4.449-12.901
	c0-5.351,1.699-9.75,4.5-12.851c2.699-3.05,6.25-4.8,10.4-4.8c6.6,0,13.451,4.25,13.451,12.351h-4.801c0-4.95-4.15-8.15-8.65-8.15
	c-6.5,0-9.852,7-9.852,13.451c0,4.15,1.15,7.5,3,9.851c1.801,2.3,4.102,3.6,6.852,3.6c5.199,0,8.85-5.5,8.9-10.4l-9.352,0.05v-4.15
	h13.902v18.301h-4.852V90.752z"/>
<path d="M440.948,69.701v25.651h-4.75v-3.65h-0.5c-1.301,1.55-3.951,4.05-8.102,4.05c-8.25,0-8.301-6.4-8.301-7.35V69.701h4.75
	v17.151c0,0.6,0.051,4.85,4.451,4.85c3.5,0,7.701-4.2,7.701-11.351v-10.65H440.948z"/>
<path d="M466.297,70.351c-0.9-1.25-2.551-2.85-4.551-4.55l-4.801,2.7l-2.299-2.4l4.25-2.45c-1.25-0.8-2.852-1.65-4.25-2.35l2.6-2.55
	c1.9,0.9,3.801,2.05,5.35,3.1c1.75-1,3.4-2,5.102-2.95l2.549,2.3l-4.85,2.75c4.951,4.35,9.201,10.301,9.201,18.451
	c0,7.95-5.201,13.351-12.352,13.351c-7,0-12.602-5.35-12.602-13.25c0-7.951,5.65-13.351,12.451-13.351
	C464.497,69.15,466.047,70.25,466.297,70.351z M462.147,91.702c4.051,0,7.449-3.75,7.449-9.25c0-5.45-3.398-9.25-7.449-9.25
	s-7.451,3.8-7.451,9.25C454.696,87.952,458.096,91.702,462.147,91.702z"/>
<path d="M491.747,95.352V78.101c0-0.6-0.051-4.9-2.5-4.9c-2,0-4.4,2.85-4.4,10.101v12.051h-4.75V69.701h4.75v2.6h0.6
	c0.85-1.55,2.551-3.15,5.352-3.15c2.699,0,4.1,1.5,4.85,3.15h0.949c0.9-1.55,2.701-3.15,5.602-3.15c5.9,0,5.949,6.5,5.949,7.451
	v18.751h-4.75V78.101c0-0.6-0.049-4.9-2.5-4.9c-1.949,0-4.301,2.75-4.4,9.601v12.551H491.747z"/>
<path d="M536.948,69.701v25.651h-4.75v-3.65h-0.5c-1.301,1.55-3.951,4.05-8.102,4.05c-8.25,0-8.301-6.4-8.301-7.35V69.701h4.75
	v17.151c0,0.6,0.051,4.85,4.451,4.85c3.5,0,7.701-4.2,7.701-11.351v-10.65H536.948z"/>
<path d="M547.247,95.352V69.701h4.75v3.6h0.4c1.25-1.55,4.049-4.15,8.199-4.15c8.252,0,8.301,6.5,8.301,7.451v18.751h-4.75V78.101
	c0-0.6-0.051-4.9-4.449-4.9c-3.502,0-7.701,4.3-7.701,11.551v10.601H547.247z"/>
<path d="M601.848,95.352h-4.752v-2.85h-0.35c-1.35,1.45-3.949,3.25-7.35,3.25c-6.551,0-11.701-6-11.701-13.25
	c0-7.351,5.15-13.351,11.701-13.351c3.4,0,6.051,2.1,7.301,3.5h0.398V60.55h4.752V95.352z M597.096,82.451
	c0-5.5-2.648-9.25-7.25-9.25c-4.049,0-7.199,4.05-7.199,9.25s3.15,9.25,7.199,9.25c4.451,0,7.102-3.6,7.25-8.851V82.451z"/>
<path d="M627.948,77.551c-0.15-0.75-0.701-4.35-6.102-4.35c-5.199,0-5.85,2.7-5.85,3.5c0,2.8,4.949,3.3,6.699,3.5
	c4.852,0.5,11.402,1.25,11.402,7.7c0,3.75-3.352,7.851-11.602,7.851c-7.85,0-12.25-4.95-12.4-8.95h4.949
	c0.201,2.1,2.301,4.9,7.352,4.9c5.301,0,6.75-2.15,6.75-3.8c0-3.7-4.5-3.3-8.301-3.85c-4-0.6-9.801-2-9.801-7.351
	c0-1.3,1-7.55,10.701-7.55c10.051,0,11.201,8.101,11.25,8.4H627.948z"/>
<path d="M659.948,77.551c-0.15-0.75-0.701-4.35-6.102-4.35c-5.199,0-5.85,2.7-5.85,3.5c0,2.8,4.949,3.3,6.699,3.5
	c4.852,0.5,11.402,1.25,11.402,7.7c0,3.75-3.352,7.851-11.602,7.851c-7.85,0-12.25-4.95-12.4-8.95h4.949
	c0.201,2.1,2.301,4.9,7.352,4.9c5.301,0,6.75-2.15,6.75-3.8c0-3.7-4.5-3.3-8.301-3.85c-4-0.6-9.801-2-9.801-7.351
	c0-1.3,1-7.55,10.701-7.55c10.051,0,11.201,8.101,11.25,8.4H659.948z"/>
<path d="M686.147,69.15c6.85,0,12.35,5.4,12.35,13.401c0,7.851-5.5,13.201-12.35,13.201c-6.951,0-12.451-5.35-12.451-13.201
	C673.696,74.551,679.196,69.15,686.147,69.15z M686.096,91.702c4.051,0,7.451-3.75,7.451-9.25c0-5.45-3.4-9.25-7.451-9.25
	c-4.049,0-7.449,3.8-7.449,9.25C678.647,87.952,682.047,91.702,686.096,91.702z"/>
<path d="M707.247,95.352V69.701h4.75v3.6h0.4c1.25-1.55,4.049-4.15,8.199-4.15c8.252,0,8.301,6.5,8.301,7.451v18.751h-4.75V78.101
	c0-0.6-0.051-4.9-4.449-4.9c-3.502,0-7.701,4.3-7.701,11.551v10.601H707.247z"/>
<path d="M2.55,137.451c0.1-1.55,0.55-2.899,1.4-4.15c1.35-2.05,4.1-4.149,9.5-4.149c2.15,0,3.75,0.449,5,1
	c3.45,1.6,4.101,4.65,4.101,7.2v13.251c0,0.85,0.6,1.35,1.15,1.35s0.8-0.25,1-0.5c0.15-0.149,0.25-0.3,0.3-0.5l3.35,1.65
	c-0.3,0.6-0.65,1.15-1.1,1.6c-0.75,0.801-1.85,1.551-3.3,1.551c-2.6,0-4.65-1.9-4.8-3.251h-0.4c-2.6,2.551-5.5,3.251-7.65,3.251
	c-1.6,0-9.801-0.15-9.801-7.9c0-4.801,4.6-7.001,8.351-7.801l8.15-1.7v-1c0-1.4-0.1-4.15-4.5-4.15c-2.95,0-4.4,1.1-5.15,2.15
	c-0.45,0.6-0.7,1.3-0.8,2.1H2.55z M17.801,142.301l-6,1.25c-2.7,0.55-5.55,1.8-5.55,4.351c0,3.7,3.5,3.8,4.851,3.8h0.2
	c2.95,0,6.5-2.25,6.5-5.05V142.301z"/>
<path d="M35.25,155.352v-25.651H40v3.6h0.4c1.25-1.55,4.05-4.149,8.2-4.149c8.25,0,8.301,6.5,8.301,7.45v18.751h-4.75v-17.251
	c0-0.601-0.05-4.9-4.45-4.9c-3.5,0-7.701,4.3-7.701,11.551v10.601H35.25z"/>
<path d="M89.852,155.352h-4.75v-2.851h-0.35c-1.35,1.45-3.95,3.251-7.351,3.251c-6.55,0-11.701-6.001-11.701-13.251
	c0-7.351,5.15-13.351,11.701-13.351c3.4,0,6.05,2.1,7.301,3.5h0.4V120.55h4.75V155.352z M85.102,142.452
	c0-5.501-2.65-9.251-7.25-9.251c-4.05,0-7.201,4.05-7.201,9.251c0,5.2,3.15,9.25,7.201,9.25c4.45,0,7.101-3.6,7.25-8.851V142.452z"
	/>
<path d="M135.201,155.352h-4.85V120.85h16.101c5.101,0,9.251,4.5,9.251,10c0,4.551-2.9,8.151-6.601,9.401l8.15,15.101h-5.35
	l-7.75-14.4h-8.901L135.201,155.352z M145.101,136.801c3.05,0,5.55-1.75,5.55-5.9c0-2.351-0.95-5.9-5.55-5.9h-9.9v11.801H145.101z"
	/>
<path d="M174.151,129.151c6.851,0,12.351,5.4,12.351,13.4c0,7.851-5.5,13.201-12.351,13.201c-6.951,0-12.451-5.351-12.451-13.201
	C161.7,134.551,167.2,129.151,174.151,129.151z M174.102,151.702c4.05,0,7.45-3.75,7.45-9.25c0-5.451-3.4-9.251-7.45-9.251
	c-4.051,0-7.451,3.8-7.451,9.251C166.65,147.952,170.051,151.702,174.102,151.702z"/>
<path d="M211.951,137.551c-0.15-0.75-0.7-4.351-6.101-4.351c-5.2,0-5.851,2.7-5.851,3.5c0,2.801,4.95,3.301,6.7,3.5
	c4.851,0.5,11.401,1.251,11.401,7.701c0,3.75-3.351,7.851-11.601,7.851c-7.851,0-12.251-4.95-12.401-8.951h4.95
	c0.2,2.101,2.301,4.9,7.351,4.9c5.301,0,6.751-2.15,6.751-3.8c0-3.7-4.501-3.301-8.301-3.851c-4-0.6-9.801-2-9.801-7.351
	c0-1.3,1-7.55,10.701-7.55c10.05,0,11.2,8.1,11.25,8.4H211.951z"/>
<path d="M226.55,137.451c0.1-1.55,0.55-2.899,1.4-4.15c1.35-2.05,4.1-4.149,9.5-4.149c2.149,0,3.75,0.449,5,1
	c3.448,1.6,4.098,4.65,4.098,7.2v13.251c0,0.85,0.6,1.35,1.15,1.35c0.549,0,0.799-0.25,1-0.5c0.15-0.149,0.25-0.3,0.299-0.5
	l3.352,1.65c-0.301,0.6-0.65,1.15-1.102,1.6c-0.75,0.801-1.85,1.551-3.299,1.551c-2.601,0-4.648-1.9-4.799-3.251h-0.4
	c-2.598,2.551-5.498,3.251-7.648,3.251c-1.601,0-9.801-0.15-9.801-7.9c0-4.801,4.601-7.001,8.351-7.801l8.149-1.7v-1
	c0-1.4-0.1-4.15-4.499-4.15c-2.95,0-4.4,1.1-5.15,2.15c-0.45,0.6-0.7,1.3-0.8,2.1H226.55z M241.8,142.301l-5.999,1.25
	c-2.7,0.55-5.551,1.8-5.551,4.351c0,3.7,3.5,3.8,4.851,3.8h0.2c2.95,0,6.499-2.25,6.499-5.05V142.301z"/>
<path d="M314.448,130.25h-5.25c-0.801-3.8-3.701-5.601-8.15-5.601c-3.102,0-7.301,1.601-7.301,5.351c0,3.9,4.6,4.9,8.65,5.301
	c6.449,0.6,13.85,2.05,13.85,9.851c0,7.3-5.6,10.601-12.9,10.601c-8.35,0-14.25-4.45-15.35-12.051h5.1c1.1,5.2,4.801,7.851,10,7.851
	c4.25,0,8.102-1.251,8.102-6.4c0-4.001-3-4.951-9.4-5.65c-5.9-0.65-13.102-2.501-13.102-9.501c0-5.95,6.301-9.551,12.201-9.551
	C307.948,120.45,312.997,123.5,314.448,130.25z"/>
<path d="M322.997,151.501h9.1V133.55h-7.801v-3.85h12.551v21.801h8.801v3.851h-22.65V151.501z M334.297,120c2,0,3.6,1.601,3.6,3.601
	c0,1.9-1.6,3.45-3.6,3.45c-1.9,0-3.451-1.55-3.451-3.45C330.846,121.6,332.397,120,334.297,120z"/>
<path d="M372.997,156.852c0,4.551-3.85,8.751-10.199,8.751c-5.002,0-6.852-1.7-9.352-3.851l4.201-2.45
	c1.949,2.15,3.25,2.25,5.299,2.25c2.9,0,5.301-2,5.301-4.7V133.55h-8.65v-3.85h13.4V156.852z M370.448,120c2,0,3.6,1.601,3.6,3.601
	c0,1.9-1.6,3.45-3.6,3.45c-1.9,0-3.451-1.55-3.451-3.45C366.997,121.6,368.547,120,370.448,120z"/>
<path d="M387.045,120.55h4.75v12.101h0.352c1.6-1.601,3.949-3.5,7.35-3.5c6.551,0,11.701,6,11.701,13.351
	c0,7.25-5.15,13.251-11.701,13.251c-3.4,0-5.75-1.65-7.35-3.251h-0.352v2.851h-4.75V120.55z M391.795,142.851
	c0.15,5.251,2.801,8.851,7.252,8.851c4.049,0,7.199-4.05,7.199-9.25c0-5.201-3.15-9.251-7.199-9.251
	c-4.602,0-7.252,3.75-7.252,9.251V142.851z"/>
<path d="M422.897,143.751c0.449,4.8,3.699,7.95,7.449,7.95c3.051,0,5.65-2.05,7.051-5.45l4.301,1.9
	c-1.9,4.7-6.301,7.601-11.352,7.601c-6.949,0-12.451-5.351-12.451-13.201c0-8,5.4-13.4,12.201-13.4s12.201,5.4,12.201,13.4v1.2
	H422.897z M423.096,140.001h14c-0.85-4.101-3.699-6.801-7-6.801C426.747,133.201,423.897,135.901,423.096,140.001z"/>
<path d="M451.247,155.352v-25.651h4.75v3.6h0.4c1.25-1.55,4.049-4.149,8.199-4.149c8.252,0,8.301,6.5,8.301,7.45v18.751h-4.75
	v-17.251c0-0.601-0.051-4.9-4.449-4.9c-3.502,0-7.701,4.3-7.701,11.551v10.601H451.247z"/>
</svg>
