<?xml version="1.0" encoding="utf-8"?>
<!-- Generator: Adobe Illustrator 15.0.0, SVG Export Plug-In  -->
<!DOCTYPE svg PUBLIC "-//W3C//DTD SVG 1.1//EN" "http://www.w3.org/Graphics/SVG/1.1/DTD/svg11.dtd" [
	<!ENTITY ns_flows "http://ns.adobe.com/Flows/1.0/">
]>
<svg version="1.1"
	 xmlns="http://www.w3.org/2000/svg" xmlns:xlink="http://www.w3.org/1999/xlink" xmlns:a="http://ns.adobe.com/AdobeSVGViewerExtensions/3.0/"
	 x="0px" y="0px" width="647px" height="88px" viewBox="-3.801 -5.761 647 88"
	 overflow="visible" enable-background="new -3.801 -5.761 647 88" xml:space="preserve">
<defs>
</defs>
<path fill="#F5A723" d="M0,69.004L9.2,0h23.702c8.601,0,14.901,3.8,19.201,9.901c4,5.7,6,13.5,6,21.401c0,8.8-2.4,18.001-7.4,25.001
	c-5.4,7.601-13.001,12.701-24.102,12.701H0z M26.702,63.204c8.601,0,14.701-4.1,19.001-10.201c4.1-5.9,6.101-13.901,6.101-21.501
	c0-6.7-1.7-13.201-4.9-18.001c-3.3-4.8-8-7.8-14.401-7.8H14.601L7.1,63.304L26.702,63.204z"/>
<path fill="#F5A723" d="M81.801,46.503l-3,22.501h-5.9l6.601-50.703h5.9l-1.5,11.101h0.4c4.9-7,12.4-12.101,20.601-12.101
	c8,0,14.401,5.8,14.401,13.001c0,0.6,0,0.8-0.1,1.6l-0.2,1.6h-5.9l0.1-0.6c0.1-0.6,0.1-0.9,0.1-1.4c0-3.4-2.7-8.601-9.8-8.601
	C94.902,22.901,83.801,31.602,81.801,46.503z"/>
<path fill="#F5A723" d="M138.601,62.304c-3.6-4.5-5.4-10.301-5.4-16.301c0-6.5,2-13.501,6.3-18.901
	c4.4-5.5,11.201-9.801,20.601-9.801c7.201,0,12.401,3.1,15.901,7.701c3.601,4.7,4.7,10,4.7,17.201c0,1-0.2,2.5-0.3,3H139.4v0.8
	c0,4.8,1.3,9.301,3.8,12.601c2.6,3.4,6.5,5.601,11.501,5.601c3.8,0,7.4-0.9,10.5-2.8c2.9-1.8,5.5-4.5,7.301-8.101l5.9,1.6
	c-0.9,1.9-2.101,3.8-3.4,5.5c-4.5,5.5-10.9,9.401-20.401,9.401C147.401,69.805,142.201,66.704,138.601,62.304z M147.101,27.602
	c-3.5,3-6,7.3-7.101,12.4h34.502c-0.101-4.6-1.101-9-3.7-12.201c-2.4-3-6.2-4.9-11.201-4.9
	C154.901,22.901,150.501,24.602,147.101,27.602z"/>
<path fill="#F5A723" d="M201.8,62.404c-3.4-4.5-5-10.601-5-16.701c0-6.601,1.8-13.601,6-19.102c4.301-5.6,10.601-9.3,19.401-9.3
	c8.2,0,13.601,4.1,17.001,10.301h0.3l1.2-9.301h5.9l-6.5,50.703h-5.9l1-8.9h-0.4c-4.3,5.6-8.601,9.701-17.501,9.701
	C210.601,69.805,205.2,66.904,201.8,62.404z M232.802,56.804c3.301-4.4,4.7-10,4.7-15.301c0-4.8-1.2-9.601-3.8-13.001
	c-2.5-3.4-6.2-5.601-11.301-5.601c-6.801,0-11.601,3-14.901,7.301c-3.3,4.4-4.7,10-4.7,15.401c0,4.9,1.2,9.601,3.801,13
	c2.5,3.4,6.3,5.601,11.301,5.601C224.701,64.204,229.502,61.104,232.802,56.804z"/>
<path fill="#F5A723" d="M284.401,31.902c0-0.3,0.1-0.5,0.1-1.1c0-3.5-1.9-7.901-5.5-7.901c-4.801,0-13.301,7.401-14.4,16.301
	L261,69.004h-5.9l6.799-50.703h5.9l-1,7.3h0.5c3.9-5.1,8.002-8.3,12.602-8.3c5,0,8.801,4.4,9.801,8.3h1.1
	c3.201-4.3,8.801-8.3,13.502-8.3c5.799,0,10.6,6,10.6,13.301c0,0.4,0,0.8-0.1,1.4l-4.701,37.002h-5.9l4.701-36.202
	c0-0.3,0.1-0.6,0.1-1.2c0-3.9-1.301-8.701-5.699-8.701c-4.9,0-13.102,8.101-14.201,17.001L285.5,69.004h-5.9L284.401,31.902z"/>
<path fill="#F5A723" d="M396.299,63.304h41.004l-0.701,5.7H389.5L398.5,0h6.1L396.299,63.304z"/>
<path fill="#F5A723" d="M457.799,62.404c-3.4-4.5-5-10.601-5-16.701c0-6.601,1.801-13.601,6-19.102c4.301-5.6,10.602-9.3,19.402-9.3
	c8.199,0,13.6,4.1,17,10.301h0.301l1.199-9.301h5.9l-6.5,50.703h-5.9l1-8.9h-0.4c-4.299,5.6-8.6,9.701-17.5,9.701
	C466.6,69.805,461.2,66.904,457.799,62.404z M488.801,56.804c3.301-4.4,4.701-10,4.701-15.301c0-4.8-1.201-9.601-3.801-13.001
	c-2.5-3.4-6.199-5.601-11.301-5.601c-6.801,0-11.6,3-14.9,7.301c-3.301,4.4-4.701,10-4.701,15.401c0,4.9,1.201,9.601,3.801,13
	c2.5,3.4,6.301,5.601,11.301,5.601C480.702,64.204,485.502,61.104,488.801,56.804z"/>
<path fill="#F5A723" d="M527.401,46.503l-3,22.501h-5.9l6.6-50.703h5.9l-1.5,11.101h0.4c4.9-7,12.4-12.101,20.602-12.101
	c8,0,14.4,5.8,14.4,13.001c0,0.6,0,0.8-0.1,1.6l-4.801,37.102h-5.9l4.701-36.102c0.1-0.6,0.1-0.9,0.1-1.4
	c0-3.4-2.701-8.601-9.801-8.601C540.5,22.901,529.401,31.602,527.401,46.503z"/>
<path fill="#F5A723" d="M584.5,62.404c-3.4-4.5-5-10.601-5-16.701c0-6.601,1.799-13.601,6-19.102c4.299-5.6,10.6-9.3,19.4-9.3
	c8.201,0,13.602,4.1,17.002,10.301h0.299L625.803,0h5.9l-8.9,69.004h-5.9l1-8.9h-0.301c-4.301,5.6-8.701,9.701-17.602,9.701
	C593.301,69.805,587.901,66.904,584.5,62.404z M615.502,56.804c3.299-4.4,4.699-10,4.699-15.301c0-4.8-1.199-9.601-3.799-13.001
	c-2.502-3.4-6.201-5.601-11.301-5.601c-6.801,0-11.602,3-14.902,7.301c-3.299,4.4-4.699,10-4.699,15.401c0,4.9,1.199,9.601,3.799,13
	c2.502,3.4,6.301,5.601,11.301,5.601C607.401,64.204,612.202,61.104,615.502,56.804z"/>
</svg>
