<?xml version="1.0" encoding="utf-8"?>
<!-- Generator: Adobe Illustrator 15.0.0, SVG Export Plug-In  -->
<!DOCTYPE svg PUBLIC "-//W3C//DTD SVG 1.1//EN" "http://www.w3.org/Graphics/SVG/1.1/DTD/svg11.dtd" [
	<!ENTITY ns_flows "http://ns.adobe.com/Flows/1.0/">
]>
<svg version="1.1"
	 xmlns="http://www.w3.org/2000/svg" xmlns:xlink="http://www.w3.org/1999/xlink" xmlns:a="http://ns.adobe.com/AdobeSVGViewerExtensions/3.0/"
	 x="0px" y="0px" width="586px" height="45px" viewBox="-2.001 -5.364 586 45"
	 overflow="visible" enable-background="new -2.001 -5.364 586 45" xml:space="preserve">
<defs>
</defs>
<path d="M25.251,28.852c-1.15,2-2.65,3.55-4.4,4.65c-1.8,1.2-3.851,1.8-6.25,1.8c-4.05,0-7.701-1.7-10.351-4.75
	C1.6,27.452,0,23.052,0,17.651C0,12.301,1.6,7.901,4.3,4.8C6.9,1.75,10.551,0,14.601,0c3.05,0,5.9,1.05,8.3,2.95
	c2.35,1.85,4.601,4.951,5.3,8.25h-3.1c-0.9-2.55-2.4-4.75-4.25-6.2s-4-2.05-6.25-2.05c-3.15,0-6,1.45-8.051,3.951
	c-2.1,2.6-3.4,6.2-3.4,10.7c0,4.601,1.3,8.25,3.4,10.851c2.05,2.5,4.9,3.9,8.051,3.9c2.65,0,5.35-1.15,7.35-3.3
	c1.95-2.05,3.3-5.1,3.5-8.95h-10.5v-2.85h13.351v17.651h-3.05V28.852z"/>
<path d="M58.652,3.25H39.351v12.75h17.801v2.851H39.351v13.201h20.801v2.85H36.3V0.4h22.352V3.25z"/>
<path d="M92.452,3.25H80.501v31.652h-3.05V3.25H65.6V0.4h26.852V3.25z"/>
<path d="M136.301,32.052h20.501v2.85H133.25V0.4h3.05V32.052z"/>
<path d="M164.75,4.8c2.65-3.05,6.351-4.8,10.351-4.8c3.9,0,7.551,1.75,10.15,4.8c2.7,3.101,4.25,7.5,4.25,12.851
	c0,5.4-1.55,9.8-4.2,12.901c-2.649,3.05-6.3,4.75-10.2,4.75c-4,0-7.7-1.7-10.4-4.8c-2.65-3.05-4.251-7.45-4.251-12.851
	C160.45,12.301,162.05,7.901,164.75,4.8z M167,28.402c2.05,2.55,4.9,3.95,8.001,3.95c3.1,0,5.95-1.4,8-3.95s3.351-6.2,3.351-10.75
	c0-4.5-1.301-8.15-3.351-10.701s-4.9-4-8-4c-3.101,0-5.951,1.45-8.001,4c-2.101,2.55-3.4,6.2-3.4,10.701
	C163.6,22.202,164.9,25.852,167,28.402z"/>
<path d="M214.651,2.2c2.2,1.5,3.9,3.75,5.15,7.351h-3.351c-0.949-2.35-2.149-4-3.85-5.1c-1.7-1.05-3.851-1.5-6.65-1.5
	c-2.101,0-4.4,0.6-6.101,1.7c-1.851,1.15-3.05,2.75-3.05,4.9c0,1.4,0.55,2.5,1.5,3.45c1.35,1.35,2.7,1.95,8.95,2.5
	c6.25,0.55,9.15,1.4,11.751,4.101c1.3,1.35,2,3.1,2,5.2c0,3.4-1.25,6.05-3.601,7.851c-2.3,1.75-5.7,2.65-9.65,2.65
	c-3.8,0-7.101-1.05-9.751-3.05c-2.5-1.9-4.649-5.2-5.4-8.5h3.251c0.85,2.7,2.3,5.15,4.35,6.601c2.001,1.45,4.501,2,7.4,2
	c3.15,0,5.65-0.45,7.451-1.75c1.85-1.35,2.8-3.45,2.8-5.95c0-1.2-0.55-2.35-1.45-3.25c-2.45-2.45-5.5-2.35-9.9-2.9
	c-5.65-0.7-7.851-0.95-10.4-3.4c-1.45-1.4-2.45-3.35-2.45-5.85c0-3,1.55-5.25,3.95-6.851s5.5-2.4,8.301-2.4
	C209.601,0,212.451,0.65,214.651,2.2z"/>
<path d="M252.451,3.25H240.5v31.652h-3.05V3.25H225.6V0.4h26.851V3.25z"/>
<path d="M265.801,21.501h14.4v2.7h-14.4V21.501z"/>
<path d="M297.949,16.701c0,0,0.15-7.65,10.352-7.65c8.15,0,8.65,4.95,8.65,7.55v13.201c0,0.85,0.25,2.9,2.699,2.95
	c1.75,0,2.451-1.35,2.5-1.45l2.502,1.25c-0.051,0.1-1.602,2.75-5.051,2.75c-3.4,0-4.65-2-5-3.75h-0.451
	c-2.949,3.25-6.9,3.75-8.15,3.75c-1.65,0-9.25-0.15-9.301-7.9c0-4.75,4.9-6.9,8.801-7.7l8.551-1.8v-1.3c0-1.55-0.35-4.75-5.85-4.75
	c-7.201,0-7.301,4.85-7.301,4.85H297.949z M314.051,20.602l-7.5,1.6c-3.701,0.8-6.9,2-6.9,5.15c0.049,4.8,5.199,5.15,6.301,5.15
	c3.699,0,8.1-2.8,8.1-6.301V20.602z"/>
<path d="M330.6,34.902V9.551h2.951v5.55h0.398c1.951-3.5,5.252-6.05,9.301-6.05c8.051,0,8.051,6.4,8.051,7.351v0.75h-2.9v-0.2
	c0-0.6-0.049-5.1-5.449-5.1c-4.301,0-9.4,4.45-9.4,12v11.051H330.6z"/>
<path d="M370.85,27.452c0,2.55,1.65,5.051,5.551,5.051c2.201,0,4.75-0.95,6.051-3.3l2.6,1.3c-1.9,3.4-5.551,4.8-8.65,4.8
	c-5.949,0-8.5-3.95-8.5-8V12.251h-7.15v-2.7h7.15V0.4h2.949v9.15h12.402v2.7H370.85V27.452z"/>
<path d="M426.6,34.902V9.551h2.951v5.55h0.398c1.951-3.5,5.252-6.05,9.301-6.05c8.051,0,8.051,6.4,8.051,7.351v0.75h-2.9v-0.2
	c0-0.6-0.049-5.1-5.449-5.1c-4.301,0-9.4,4.45-9.4,12v11.051H426.6z"/>
<path d="M469.051,9.051c6.449,0,11.85,5.35,11.85,13.151c0,7.8-5.4,13.101-11.85,13.101c-6.551,0-11.951-5.3-11.951-13.101
	C457.1,14.401,462.5,9.051,469.051,9.051z M469,32.502c4.852,0,8.852-4.15,8.852-10.301s-4-10.351-8.852-10.351
	c-4.85,0-8.85,4.2-8.85,10.351S464.15,32.502,469,32.502z"/>
<path d="M511.352,9.551v25.352H508.4v-5.7H508c-1.949,3.5-5.25,6.1-9.299,6.1c-8.051,0-8.102-6.4-8.102-7.35V9.551h2.951v17.851
	c0,0.6,0.049,5.101,5.449,5.101c4.301,0,9.4-4.451,9.4-12.001V9.551H511.352z"/>
<path d="M530.85,27.452c0,2.55,1.65,5.051,5.551,5.051c2.201,0,4.75-0.95,6.051-3.3l2.6,1.3c-1.9,3.4-5.551,4.8-8.65,4.8
	c-5.949,0-8.5-3.95-8.5-8V12.251h-7.15v-2.7h7.15V0.4h2.949v9.15h12.402v2.7H530.85V27.452z"/>
<path d="M553.4,22.202c0-7.801,5.4-13.151,11.949-13.151c6.602,0,11.352,5.35,11.352,13.151v0.8h-20.15
	c0.148,5.65,4.299,9.501,9.199,9.501c3.65,0,6.301-2.2,7.752-5.701l2.648,1.2c-1.949,4.5-6.049,7.3-10.801,7.3
	C558.801,35.302,553.4,30.002,553.4,22.202z M556.551,20.401h17c-0.6-5.15-3.9-8.55-8.25-8.55
	C560.801,11.851,557.15,15.251,556.551,20.401z"/>
</svg>
