<?xml version="1.0" encoding="utf-8"?>
<!-- Generator: Adobe Illustrator 15.0.0, SVG Export Plug-In  -->
<!DOCTYPE svg PUBLIC "-//W3C//DTD SVG 1.1//EN" "http://www.w3.org/Graphics/SVG/1.1/DTD/svg11.dtd" [
	<!ENTITY ns_flows "http://ns.adobe.com/Flows/1.0/">
]>
<svg version="1.1"
	 xmlns="http://www.w3.org/2000/svg" xmlns:xlink="http://www.w3.org/1999/xlink" xmlns:a="http://ns.adobe.com/AdobeSVGViewerExtensions/3.0/"
	 x="0px" y="0px" width="647px" height="88px" viewBox="-5.301 -4.961 647 88"
	 overflow="visible" enable-background="new -5.301 -4.961 647 88" xml:space="preserve">
<defs>
</defs>
<path fill="#E8A723" d="M58.704,0.8l-5.8,43.403c-2.3,17.101-10.301,26.402-29.002,26.402C6,70.604,0,59.403,0,47.703
	c0-1.7,0.1-3.3,0.3-4.6C2.1,28.902,6,0.8,6,0.8h6.1L6.4,42.502c-0.2,1.3-0.3,2.7-0.3,3.9c0,9.4,4.6,18.301,18.201,18.301
	c14.801,0,21.202-7.801,22.901-22.202l5.4-41.703H58.704z"/>
<path fill="#E8A723" d="M77.901,47.303l-3,22.501H69l6.6-50.703h5.9l-1.5,11.101h0.4c4.9-7,12.401-12.101,20.602-12.101
	c8,0,14.401,5.8,14.401,13.001c0,0.6,0,0.8-0.1,1.6l-4.8,37.102h-5.9l4.7-36.102c0.1-0.6,0.1-0.9,0.1-1.4
	c0-3.4-2.7-8.601-9.801-8.601C91.001,23.701,79.901,32.402,77.901,47.303z"/>
<path fill="#E8A723" d="M135,63.204c-3.4-4.5-5-10.601-5-16.701c0-6.601,1.8-13.601,6-19.102c4.3-5.6,10.601-9.3,19.401-9.3
	c8.201,0,13.601,4.1,17,10.301h0.301l3.6-27.602h5.9l-8.9,69.004h-5.9l1-8.9h-0.3c-4.301,5.6-8.7,9.701-17.601,9.701
	C143.801,70.604,138.4,67.704,135,63.204z M166.002,57.604c3.301-4.4,4.7-10,4.7-15.301c0-4.8-1.199-9.601-3.8-13.001
	c-2.5-3.4-6.2-5.601-11.301-5.601c-6.8,0-11.601,3-14.901,7.301c-3.3,4.4-4.7,10-4.7,15.401c0,4.9,1.2,9.601,3.8,13
	c2.5,3.4,6.3,5.601,11.301,5.601C157.901,65.004,162.702,61.904,166.002,57.604z"/>
<path fill="#E8A723" d="M201.1,63.104c-3.6-4.5-5.4-10.301-5.4-16.301c0-6.5,2.001-13.501,6.301-18.901
	c4.4-5.5,11.201-9.801,20.602-9.801c7.2,0,12.4,3.1,15.9,7.701c3.601,4.7,4.7,10,4.7,17.201c0,1-0.199,2.5-0.3,3H201.9v0.8
	c0,4.8,1.3,9.301,3.8,12.601c2.601,3.4,6.501,5.601,11.501,5.601c3.8,0,7.4-0.9,10.5-2.8c2.9-1.8,5.501-4.5,7.301-8.101l5.9,1.6
	c-0.9,1.9-2.1,3.8-3.4,5.5c-4.5,5.5-10.9,9.401-20.401,9.401C209.9,70.604,204.7,67.504,201.1,63.104z M209.601,28.402
	c-3.5,3-6,7.3-7.101,12.4h34.502c-0.1-4.6-1.1-9-3.7-12.201c-2.399-3-6.2-4.9-11.2-4.9
	C217.401,23.701,213.001,25.401,209.601,28.402z"/>
<path fill="#E8A723" d="M272.301,47.303l-3,22.501h-5.9l6.6-50.703h5.9l-1.5,11.101h0.4c4.9-7,12.4-12.101,20.602-12.101
	c8,0,14.4,5.8,14.4,13.001c0,0.6,0,0.8-0.1,1.6l-0.201,1.6h-5.9l0.1-0.6c0.102-0.6,0.102-0.9,0.102-1.4
	c0-3.4-2.701-8.601-9.801-8.601C285.401,23.701,274.301,32.402,272.301,47.303z"/>
<path fill="#E8A723" d="M376.204,0.8L326.2,69.804h-6.9L369.303,0.8H376.204z"/>
<path fill="#E8A723" d="M389.1,60.304c-4.201-5.9-6.301-13.801-6.301-21.901c0-9,2.4-18.401,7.6-25.602
	C395.901,5.2,403.901,0,414.901,0c8.701,0,15.301,4.1,19.502,10.201c4.199,5.9,6.301,13.901,6.301,21.901
	c0,9-2.4,18.401-7.602,25.602c-5.5,7.6-13.5,12.901-24.502,12.901C400.1,70.604,393.299,66.404,389.1,60.304z M428.202,54.303
	c4.301-6.1,6.301-14.201,6.301-22.001c0-6.9-1.6-13.601-4.9-18.401c-3.4-4.9-8.4-8-15-8c-8.701,0-15.002,4.3-19.303,10.4
	C391,22.401,389,30.502,389,38.302c0,7,1.6,13.601,4.9,18.401c3.4,4.9,8.5,8,15,8C417.602,64.704,423.903,60.404,428.202,54.303z"/>
<path fill="#E8A723" d="M500.803,19.101L476,69.804h-9.4L455,19.101h6.699l10.102,46.103H472l22.102-46.103H500.803z"/>
<path fill="#E8A723" d="M521.1,63.104c-3.6-4.5-5.4-10.301-5.4-16.301c0-6.5,2-13.501,6.301-18.901
	c4.4-5.5,11.201-9.801,20.602-9.801c7.199,0,12.4,3.1,15.9,7.701c3.6,4.7,4.699,10,4.699,17.201c0,1-0.199,2.5-0.299,3h-41.002v0.8
	c0,4.8,1.299,9.301,3.799,12.601c2.602,3.4,6.502,5.601,11.502,5.601c3.799,0,7.4-0.9,10.5-2.8c2.9-1.8,5.5-4.5,7.301-8.101l5.9,1.6
	c-0.9,1.9-2.1,3.8-3.4,5.5c-4.5,5.5-10.9,9.401-20.402,9.401C529.901,70.604,524.7,67.504,521.1,63.104z M529.6,28.402
	c-3.5,3-6,7.3-7.1,12.4h34.502c-0.1-4.6-1.1-9-3.701-12.201c-2.398-3-6.199-4.9-11.199-4.9C537.401,23.701,533,25.401,529.6,28.402z
	"/>
<path fill="#E8A723" d="M592.301,47.303l-3,22.501h-5.9l6.6-50.703h5.9l-1.5,11.101h0.4c4.9-7,12.4-12.101,20.602-12.101
	c8,0,14.4,5.8,14.4,13.001c0,0.6,0,0.8-0.1,1.6l-0.201,1.6h-5.9l0.1-0.6c0.102-0.6,0.102-0.9,0.102-1.4
	c0-3.4-2.701-8.601-9.801-8.601C605.401,23.701,594.301,32.402,592.301,47.303z"/>
</svg>
