<?xml version="1.0" encoding="utf-8"?>
<!-- Generator: Adobe Illustrator 15.0.0, SVG Export Plug-In  -->
<!DOCTYPE svg PUBLIC "-//W3C//DTD SVG 1.1//EN" "http://www.w3.org/Graphics/SVG/1.1/DTD/svg11.dtd" [
	<!ENTITY ns_flows "http://ns.adobe.com/Flows/1.0/">
]>
<svg version="1.1"
	 xmlns="http://www.w3.org/2000/svg" xmlns:xlink="http://www.w3.org/1999/xlink" xmlns:a="http://ns.adobe.com/AdobeSVGViewerExtensions/3.0/"
	 x="0px" y="0px" width="361px" height="48px" viewBox="-7.2 -4.715 361 48"
	 overflow="visible" enable-background="new -7.2 -4.715 361 48" xml:space="preserve">
<defs>
</defs>
<path d="M0,35.352V0.85h4.85v14.301h15.901V0.85h4.85v34.502h-4.85V19.301H4.85v16.051H0z"/>
<path d="M33.25,17.451c0.1-1.55,0.55-2.9,1.4-4.15c1.35-2.05,4.1-4.15,9.5-4.15c2.15,0,3.75,0.45,5,1
	c3.45,1.6,4.101,4.65,4.101,7.201v13.25c0,0.85,0.6,1.35,1.15,1.35s0.8-0.25,1-0.5c0.15-0.15,0.25-0.3,0.3-0.5l3.35,1.65
	c-0.3,0.6-0.65,1.15-1.1,1.6c-0.75,0.8-1.85,1.55-3.3,1.55c-2.6,0-4.65-1.9-4.8-3.25h-0.4c-2.6,2.55-5.5,3.25-7.65,3.25
	c-1.6,0-9.801-0.15-9.801-7.9c0-4.8,4.6-7,8.351-7.8l8.15-1.7v-1c0-1.4-0.1-4.15-4.5-4.15c-2.95,0-4.4,1.1-5.15,2.15
	c-0.45,0.6-0.7,1.3-0.8,2.1H33.25z M48.501,22.301l-6,1.25c-2.7,0.55-5.55,1.8-5.55,4.35c0,3.701,3.5,3.8,4.851,3.8H42
	c2.95,0,6.5-2.25,6.5-5.05V22.301z"/>
<path d="M65.95,35.352V9.701h4.75v3.6h0.4c1.25-1.55,4.05-4.15,8.2-4.15c8.25,0,8.301,6.5,8.301,7.451v18.751h-4.75V18.101
	c0-0.6-0.05-4.9-4.45-4.9c-3.5,0-7.701,4.3-7.701,11.551v10.601H65.95z"/>
<path d="M97.25,17.451c0.1-1.55,0.55-2.9,1.4-4.15c1.35-2.05,4.1-4.15,9.5-4.15c2.15,0,3.75,0.45,5,1
	c3.45,1.6,4.101,4.65,4.101,7.201v13.25c0,0.85,0.6,1.35,1.15,1.35s0.8-0.25,1-0.5c0.15-0.15,0.25-0.3,0.3-0.5l3.35,1.65
	c-0.3,0.6-0.65,1.15-1.1,1.6c-0.75,0.8-1.85,1.55-3.3,1.55c-2.6,0-4.65-1.9-4.8-3.25h-0.4c-2.6,2.55-5.5,3.25-7.65,3.25
	c-1.6,0-9.801-0.15-9.801-7.9c0-4.8,4.6-7,8.351-7.8l8.15-1.7v-1c0-1.4-0.1-4.15-4.5-4.15c-2.95,0-4.4,1.1-5.15,2.15
	c-0.45,0.6-0.7,1.3-0.8,2.1H97.25z M112.501,22.301l-6,1.25c-2.7,0.55-5.55,1.8-5.55,4.35c0,3.701,3.5,3.8,4.851,3.8h0.2
	c2.95,0,6.5-2.25,6.5-5.05V22.301z"/>
<path d="M133.6,23.751c0.45,4.8,3.701,7.95,7.451,7.95c3.05,0,5.65-2.05,7.05-5.45l4.3,1.9c-1.9,4.7-6.3,7.6-11.351,7.6
	c-6.95,0-12.451-5.35-12.451-13.201c0-8,5.4-13.401,12.201-13.401s12.201,5.4,12.201,13.401v1.2H133.6z M133.8,20.001h14.001
	c-0.85-4.1-3.7-6.8-7-6.8C137.451,13.201,134.601,15.901,133.8,20.001z"/>
<path d="M211.151,26.452L215,0.85h5.001l-5.65,34.502h-6.001L204.8,11l-3.55,24.352h-6.001l-5.65-34.502h5.001l3.85,25.602
	l2.9-20.201h6.9L211.151,26.452z"/>
<path d="M225.7,31.502h9.101V13.551H227v-3.85h12.551v21.801h8.801v3.85H225.7V31.502z M237,0c2,0,3.6,1.6,3.6,3.6
	c0,1.9-1.6,3.45-3.6,3.45c-1.9,0-3.45-1.55-3.45-3.45C233.55,1.6,235.1,0,237,0z"/>
<path d="M257.45,31.502h9.101V4.4h-7.801V0.55H271.3v30.952h8.801v3.85H257.45V31.502z"/>
<path d="M290.6,35.352V0.55h4.75v18.201l9.851-9.05h6.4l-9.601,8.7v0.45l11.601,16.501h-5.5L298.5,21.551l-3.15,2.9v10.901H290.6z"
	/>
<path d="M325.6,23.751c0.45,4.8,3.7,7.95,7.45,7.95c3.05,0,5.65-2.05,7.051-5.45l4.3,1.9c-1.9,4.7-6.3,7.6-11.351,7.6
	c-6.95,0-12.451-5.35-12.451-13.201c0-8,5.4-13.401,12.201-13.401s12.201,5.4,12.201,13.401v1.2H325.6z M325.8,20.001h14
	c-0.85-4.1-3.7-6.8-7-6.8C329.45,13.201,326.6,15.901,325.8,20.001z"/>
</svg>
