<?xml version="1.0" encoding="utf-8"?>
<!-- Generator: Adobe Illustrator 15.0.0, SVG Export Plug-In  -->
<!DOCTYPE svg PUBLIC "-//W3C//DTD SVG 1.1//EN" "http://www.w3.org/Graphics/SVG/1.1/DTD/svg11.dtd" [
	<!ENTITY ns_flows "http://ns.adobe.com/Flows/1.0/">
]>
<svg version="1.1"
	 xmlns="http://www.w3.org/2000/svg" xmlns:xlink="http://www.w3.org/1999/xlink" xmlns:a="http://ns.adobe.com/AdobeSVGViewerExtensions/3.0/"
	 x="0px" y="0px" width="590px" height="54px" viewBox="-2.001 -5.364 590 54"
	 overflow="visible" enable-background="new -2.001 -5.364 590 54" xml:space="preserve">
<defs>
</defs>
<path d="M25.251,28.852c-1.15,2-2.65,3.55-4.4,4.65c-1.8,1.2-3.851,1.8-6.25,1.8c-4.05,0-7.701-1.7-10.351-4.75
	C1.6,27.452,0,23.052,0,17.651C0,12.301,1.6,7.901,4.3,4.8C6.9,1.75,10.551,0,14.601,0c3.05,0,5.9,1.05,8.3,2.95
	c2.35,1.85,4.601,4.951,5.3,8.25h-3.1c-0.9-2.55-2.4-4.75-4.25-6.2s-4-2.05-6.25-2.05c-3.15,0-6,1.45-8.051,3.951
	c-2.1,2.6-3.4,6.2-3.4,10.7c0,4.601,1.3,8.25,3.4,10.851c2.05,2.5,4.9,3.9,8.051,3.9c2.65,0,5.35-1.15,7.35-3.3
	c1.95-2.05,3.3-5.1,3.5-8.95h-10.5v-2.85h13.351v17.651h-3.05V28.852z"/>
<path d="M64.302,34.902h-5c-0.85,0-2.3-0.05-3.7-1.8l-0.9-1.15c-3,2.4-6.2,3.35-9.45,3.35c-6.101,0-10.801-4.55-10.801-10.25
	c0-6.4,7.7-10.151,7.7-10.151s-4.8-5.25-4.8-8C37.35,2.95,40.851,0,44.801,0s7.351,2.95,7.351,6.901c0,5-6.351,8.55-6.351,8.55
	l9,12.25c1.55-1.8,2.55-3.4,3.8-7.2l2.8,0.95c-1.15,3.85-2.9,6.65-4.75,8.601v0.2l1.1,1.15c0.6,0.6,1.15,0.65,1.65,0.65h4.9V34.902z
	 M43.851,17.151h-0.25c0,0-6.1,3.25-6.1,7.851c0,4.1,3.4,7.4,7.6,7.4c2.4,0,5.15-0.75,7.601-2.7v-0.4L43.851,17.151z M44.75,2.95
	c-2.25,0-4.35,1.75-4.35,4.101c0,1.85,3.7,6,3.75,6.05h0.3c0.1-0.05,4.65-2.35,4.65-6.05C49.101,4.701,47.101,2.95,44.75,2.95z"/>
<path d="M90.651,2.2c2.2,1.5,3.9,3.75,5.15,7.351h-3.35c-0.95-2.35-2.15-4-3.851-5.1c-1.7-1.05-3.85-1.5-6.65-1.5
	c-2.1,0-4.4,0.6-6.1,1.7c-1.85,1.15-3.05,2.75-3.05,4.9c0,1.4,0.55,2.5,1.5,3.45c1.35,1.35,2.7,1.95,8.951,2.5
	c6.25,0.55,9.15,1.4,11.75,4.101c1.3,1.35,2,3.1,2,5.2c0,3.4-1.25,6.05-3.6,7.851c-2.3,1.75-5.701,2.65-9.651,2.65
	c-3.8,0-7.101-1.05-9.75-3.05c-2.5-1.9-4.65-5.2-5.4-8.5h3.25c0.85,2.7,2.3,5.15,4.351,6.601c2,1.45,4.5,2,7.4,2
	c3.15,0,5.65-0.45,7.45-1.75c1.85-1.35,2.8-3.45,2.8-5.95c0-1.2-0.55-2.35-1.45-3.25c-2.45-2.45-5.5-2.35-9.9-2.9
	c-5.65-0.7-7.851-0.95-10.401-3.4c-1.45-1.4-2.45-3.35-2.45-5.85c0-3,1.55-5.25,3.95-6.851c2.4-1.6,5.5-2.4,8.3-2.4
	C85.601,0,88.451,0.65,90.651,2.2z"/>
<path d="M160.452,0.4l-11,34.502h-4.95L133.5,0.4h3.3l10.101,32.252h0.15L157.151,0.4H160.452z"/>
<path d="M167.95,16.701c0,0,0.15-7.65,10.351-7.65c8.15,0,8.65,4.95,8.65,7.55v13.201c0,0.85,0.25,2.9,2.7,2.95
	c1.75,0,2.45-1.35,2.5-1.45l2.501,1.25c-0.051,0.1-1.601,2.75-5.051,2.75c-3.4,0-4.65-2-5-3.75h-0.45c-2.95,3.25-6.9,3.75-8.15,3.75
	c-1.65,0-9.251-0.15-9.301-7.9c0-4.75,4.9-6.9,8.801-7.7l8.551-1.8v-1.3c0-1.55-0.351-4.75-5.851-4.75
	c-7.201,0-7.301,4.85-7.301,4.85H167.95z M184.051,20.602l-7.501,1.6c-3.7,0.8-6.9,2-6.9,5.15c0.05,4.8,5.2,5.15,6.301,5.15
	c3.7,0,8.101-2.8,8.101-6.301V20.602z"/>
<path d="M202.4,26.752c0,0.1,0.55,2,2.15,3.35c1.399,1.15,3.55,2.25,7.05,2.25c3.45,0,5.4-0.95,6.551-2c1.15-1.1,1.45-2.3,1.45-2.95
	c0-3.75-5.101-3.65-8.65-4.05c-3.5-0.4-7.45-0.95-9.201-3.2c-1-1.3-1.399-2.45-1.399-3.45c0-0.65,0.149-2.55,1.6-4.35
	c1.301-1.7,3.851-3.3,8.601-3.3c5.101,0,7.7,2,9.15,4.05c1.301,1.95,1.351,3.9,1.351,4h-3c0-0.05-0.051-1.45-0.95-2.7
	c-0.95-1.3-2.75-2.55-6.4-2.55c-3.601,0-5.351,0.95-6.301,2.05c-0.899,1.05-1,2.1-1,2.55c0.05,2.95,3.65,3.6,8.251,4.1
	c6,0.65,7.75,0.95,9.45,2.65c1.05,1.05,1.55,2.55,1.55,4.25c0,1-0.45,2.9-2,4.601s-4.25,3.25-8.851,3.25c-4.75,0-7.7-1.6-9.551-3.4
	c-2.25-2.2-2.95-5-2.95-5.15H202.4z"/>
<path d="M240.85,27.452c0,2.55,1.65,5.051,5.551,5.051c2.201,0,4.75-0.95,6.05-3.3l2.6,1.3c-1.9,3.4-5.551,4.8-8.65,4.8
	c-5.95,0-8.501-3.95-8.501-8V12.251h-7.15v-2.7h7.15V0.4h2.95v9.15h12.402v2.7H240.85V27.452z"/>
<path d="M267.15,37.453c1.699,3.1,5,4.4,7.85,4.4c5.15,0,7.4-3.45,7.4-6.95v-4.6c-1.75,2.9-4.299,4.15-8,4.15
	c-6.051,0-10.9-5.6-10.9-12.65c0-7.151,4.85-12.751,10.9-12.751c3.301,0,5.951,1.65,7.75,4.15h0.25v-3.65h2.951v25.202
	c0,5-3.15,9.9-10.352,9.9c-3.75,0-8.15-1.75-10.449-5.95L267.15,37.453z M282.4,20.251c0-5.75-4-8.4-7.949-8.4
	c-4.451,0-7.9,4.45-7.9,9.9s3.449,9.901,7.9,9.901c3.85,0,7.949-2.601,7.949-8.101V20.251z"/>
<path d="M307.051,9.051c6.449,0,11.85,5.35,11.85,13.151c0,7.8-5.4,13.101-11.85,13.101c-6.551,0-11.951-5.3-11.951-13.101
	C295.1,14.401,300.5,9.051,307.051,9.051z M307,32.502c4.852,0,8.852-4.15,8.852-10.301s-4-10.351-8.852-10.351
	c-4.85,0-8.85,4.2-8.85,10.351S302.15,32.502,307,32.502z"/>
<path d="M327.4,22.202c0-7.801,5.4-13.151,11.949-13.151c6.602,0,11.352,5.35,11.352,13.151v0.8h-20.15
	c0.148,5.65,4.299,9.501,9.199,9.501c3.65,0,6.301-2.2,7.752-5.701l2.648,1.2c-1.949,4.5-6.049,7.3-10.801,7.3
	C332.801,35.302,327.4,30.002,327.4,22.202z M330.551,20.401h17c-0.6-5.15-3.9-8.55-8.25-8.55
	C334.801,11.851,331.15,15.251,330.551,20.401z"/>
<path d="M382.051,34.902h-2.949v-4.45h-0.301c-2.25,3.2-5.199,4.85-8.551,4.85c-6.35,0-11.4-5.9-11.4-13.101
	c0-7.25,5.051-13.151,11.4-13.151c3.352,0,6.301,1.95,8.551,5.15h0.301V0.4h2.949V34.902z M379.102,22.151
	c0-6.1-3.15-10.3-8.65-10.3c-4.801,0-8.551,4.55-8.551,10.351c0,5.75,3.75,10.301,8.551,10.301c5.35,0,8.5-4.05,8.65-9.901V22.151z"
	/>
<path d="M402.951,29.102c1.799,0,3.15,1.35,3.15,3.55v0.55c-0.4,5.3-5.752,9.601-5.752,9.601l-1.6-1.8c2.1-2.1,3.35-4.25,3.951-5.9
	c-1.5,0-2.801-1.3-2.801-2.95C399.9,30.502,401.301,29.102,402.951,29.102z"/>
<path d="M456.6,0.4h20.852v2.85h-8.9v28.802h8.9v2.85H456.6v-2.85h8.9V3.25h-8.9V0.4z"/>
<path d="M491.949,28.552c2.102,2.65,4.951,3.8,8.102,3.8c2.449,0,4.65-0.65,6.449-2.3c1.752-1.6,3.102-4.15,3.801-7.15h3.102
	c-0.801,3.85-2.65,7.1-4.9,9.2c-2.352,2.1-5.252,3.2-8.451,3.2c-4.051,0-7.701-1.7-10.352-4.8c-2.65-3.05-4.25-7.45-4.25-12.851
	c0-5.351,1.6-9.75,4.301-12.851C492.35,1.75,496,0,500.051,0c3.15,0,5.949,1.15,8.301,3.15c2.25,2,4.1,5.1,4.949,8.75h-3.15
	c-0.75-2.75-2.049-5.15-3.799-6.7c-1.801-1.55-3.951-2.25-6.301-2.25c-3.15,0-6,1.2-8.102,3.851c-2.049,2.55-3.35,6.3-3.35,10.9
	C488.6,22.202,489.9,26.002,491.949,28.552z"/>
<path d="M520.75,4.8C523.4,1.75,527.1,0,531.1,0c3.9,0,7.551,1.75,10.152,4.8c2.699,3.101,4.25,7.5,4.25,12.851
	c0,5.4-1.551,9.8-4.201,12.901c-2.65,3.05-6.301,4.75-10.201,4.75c-4,0-7.699-1.7-10.4-4.8c-2.65-3.05-4.25-7.45-4.25-12.851
	C516.449,12.301,518.049,7.901,520.75,4.8z M523,28.402c2.051,2.55,4.9,3.95,8,3.95c3.102,0,5.951-1.4,8.002-3.95
	c2.049-2.55,3.35-6.2,3.35-10.75c0-4.5-1.301-8.15-3.35-10.701c-2.051-2.55-4.9-4-8.002-4c-3.1,0-5.949,1.45-8,4
	c-2.1,2.55-3.4,6.2-3.4,10.701C519.6,22.202,520.9,25.852,523,28.402z"/>
<path d="M576.352,0.4v34.502h-5.5L552.9,2.55h-0.201v32.352h-3.049V0.4h5.5l17.9,32.352h0.25V0.4H576.352z"/>
</svg>
