<?xml version="1.0" encoding="utf-8"?>
<!-- Generator: Adobe Illustrator 15.0.0, SVG Export Plug-In  -->
<!DOCTYPE svg PUBLIC "-//W3C//DTD SVG 1.1//EN" "http://www.w3.org/Graphics/SVG/1.1/DTD/svg11.dtd" [
	<!ENTITY ns_flows "http://ns.adobe.com/Flows/1.0/">
]>
<svg version="1.1"
	 xmlns="http://www.w3.org/2000/svg" xmlns:xlink="http://www.w3.org/1999/xlink" xmlns:a="http://ns.adobe.com/AdobeSVGViewerExtensions/3.0/"
	 x="0px" y="0px" width="515px" height="88px" viewBox="-4.101 -4.961 515 88"
	 overflow="visible" enable-background="new -4.101 -4.961 515 88" xml:space="preserve">
<defs>
</defs>
<path fill="#E8A723" d="M6.3,60.304C2.1,54.403,0,46.503,0,38.402c0-9,2.4-18.401,7.601-25.602C13.101,5.2,21.102,0,32.102,0
	c8.701,0,15.301,4.1,19.501,10.201c4.201,5.9,6.301,13.901,6.301,21.901c0,9-2.4,18.401-7.601,25.602
	c-5.5,7.6-13.501,12.901-24.501,12.901C17.301,70.604,10.501,66.404,6.3,60.304z M45.403,54.303c4.3-6.1,6.3-14.201,6.3-22.001
	c0-6.9-1.6-13.601-4.9-18.401c-3.4-4.9-8.4-8-15-8c-8.701,0-15.001,4.3-19.301,10.4c-4.3,6.101-6.3,14.201-6.3,22.001
	c0,7,1.6,13.601,4.9,18.401c3.4,4.9,8.5,8,15.001,8C34.802,64.704,41.103,60.404,45.403,54.303z"/>
<path fill="#E8A723" d="M114.003,25.501c3.4,4.5,5,10.601,5,16.701c0,6.6-1.8,13.601-6,19.101c-4.3,5.6-10.601,9.301-19.401,9.301
	c-8.201,0-13.601-3.5-17.001-9.701h-0.4l-3.6,27.602h-5.9l9-69.404h5.9l-1.1,9.301h0.3c4.3-5.601,8.8-10.301,17.701-10.301
	C105.203,18.101,110.603,21.001,114.003,25.501z M83.001,31.102c-3.3,4.4-4.701,10-4.701,15.301c0,4.8,1.2,9.601,3.8,13
	c2.5,3.4,6.201,5.601,11.301,5.601c6.8,0,11.601-3,14.901-7.3c3.3-4.4,4.7-10.001,4.7-15.401c0-4.9-1.2-9.601-3.8-13.001
	c-2.5-3.4-6.3-5.601-11.3-5.601C91.102,23.701,86.301,26.802,83.001,31.102z"/>
<path fill="#E8A723" d="M138.301,63.104c-3.6-4.5-5.4-10.301-5.4-16.301c0-6.5,2-13.501,6.3-18.901
	c4.4-5.5,11.201-9.801,20.601-9.801c7.201,0,12.401,3.1,15.901,7.701c3.601,4.7,4.7,10,4.7,17.201c0,1-0.2,2.5-0.3,3h-41.003v0.8
	c0,4.8,1.3,9.301,3.8,12.601c2.6,3.4,6.5,5.601,11.501,5.601c3.8,0,7.4-0.9,10.5-2.8c2.9-1.8,5.5-4.5,7.301-8.101l5.9,1.6
	c-0.9,1.9-2.101,3.8-3.4,5.5c-4.5,5.5-10.9,9.401-20.401,9.401C147.101,70.604,141.901,67.504,138.301,63.104z M146.801,28.402
	c-3.5,3-6,7.3-7.101,12.4h34.502c-0.101-4.6-1.101-9-3.7-12.201c-2.4-3-6.2-4.9-11.201-4.9
	C154.602,23.701,150.202,25.401,146.801,28.402z"/>
<path fill="#E8A723" d="M207.101,47.303l-3,22.501h-5.9l6.601-50.703h5.9L209.2,30.202h0.4c4.9-7,12.4-12.101,20.602-12.101
	c8,0,14.4,5.8,14.4,13.001c0,0.6,0,0.8-0.1,1.6l-4.801,37.102h-5.9l4.701-36.102c0.1-0.6,0.1-0.9,0.1-1.4
	c0-3.4-2.7-8.601-9.801-8.601C220.201,23.701,209.101,32.402,207.101,47.303z"/>
<path fill="#E8A723" d="M316.304,6.5h-23.902l-8.201,63.304h-6.1L286.302,6.5h-23.703L263.4,0.8h53.703L316.304,6.5z"/>
<path fill="#E8A723" d="M316.8,80.105c2.799,4.4,6.5,6.5,10.4,6.5c5.1,0,8.301-2.3,9.801-5.301l6.799-13.601l-15.199-48.603h6.699
	l12.301,39.402h0.801l20.201-39.402h6.699l-32.9,64.004c-2.701,5.2-7.9,9.101-15.803,9.101c-5.6,0-10.799-3.3-14.4-9.4L316.8,80.105
	z"/>
<path fill="#E8A723" d="M434.003,25.501c3.4,4.5,5,10.601,5,16.701c0,6.6-1.801,13.601-6,19.101
	c-4.301,5.6-10.602,9.301-19.402,9.301c-8.199,0-13.6-3.5-17-9.701h-0.4l-3.6,27.602h-5.9l9-69.404h5.9l-1.1,9.301h0.299
	c4.301-5.601,8.801-10.301,17.701-10.301C425.203,18.101,430.603,21.001,434.003,25.501z M403.001,31.102
	c-3.301,4.4-4.701,10-4.701,15.301c0,4.8,1.201,9.601,3.801,13c2.5,3.4,6.199,5.601,11.301,5.601c6.801,0,11.6-3,14.9-7.3
	c3.301-4.4,4.701-10.001,4.701-15.401c0-4.9-1.201-9.601-3.801-13.001c-2.5-3.4-6.301-5.601-11.301-5.601
	C411.101,23.701,406.3,26.802,403.001,31.102z"/>
<path fill="#E8A723" d="M458.3,63.104c-3.6-4.5-5.4-10.301-5.4-16.301c0-6.5,2-13.501,6.301-18.901
	c4.4-5.5,11.201-9.801,20.602-9.801c7.199,0,12.4,3.1,15.9,7.701c3.6,4.7,4.699,10,4.699,17.201c0,1-0.199,2.5-0.299,3h-41.002v0.8
	c0,4.8,1.299,9.301,3.799,12.601c2.602,3.4,6.502,5.601,11.502,5.601c3.799,0,7.4-0.9,10.5-2.8c2.9-1.8,5.5-4.5,7.301-8.101l5.9,1.6
	c-0.9,1.9-2.1,3.8-3.4,5.5c-4.5,5.5-10.9,9.401-20.402,9.401C467.101,70.604,461.9,67.504,458.3,63.104z M466.8,28.402
	c-3.5,3-6,7.3-7.1,12.4h34.502c-0.1-4.6-1.1-9-3.701-12.201c-2.398-3-6.199-4.9-11.199-4.9
	C474.601,23.701,470.201,25.401,466.8,28.402z"/>
</svg>
