<?xml version="1.0" encoding="utf-8"?>
<!-- Generator: Adobe Illustrator 15.0.0, SVG Export Plug-In  -->
<!DOCTYPE svg PUBLIC "-//W3C//DTD SVG 1.1//EN" "http://www.w3.org/Graphics/SVG/1.1/DTD/svg11.dtd" [
	<!ENTITY ns_flows "http://ns.adobe.com/Flows/1.0/">
]>
<svg version="1.1"
	 xmlns="http://www.w3.org/2000/svg" xmlns:xlink="http://www.w3.org/1999/xlink" xmlns:a="http://ns.adobe.com/AdobeSVGViewerExtensions/3.0/"
	 x="0px" y="0px" width="456px" height="56px" viewBox="-6.8 -4.715 456 56"
	 overflow="visible" enable-background="new -6.8 -4.715 456 56" xml:space="preserve">
<defs>
</defs>
<path d="M24.501,0.85v22.051c0,8.05-3.3,12.851-12.151,12.851c-7.3,0-11.15-3.8-12.351-9.5l4.8-1.05c0.85,4.15,3.05,6.3,7.4,6.3
	c6.3,0,7.45-3.45,7.45-8.601V0.85H24.501z"/>
<path d="M38,23.751c0.45,4.8,3.701,7.95,7.451,7.95c3.05,0,5.65-2.05,7.05-5.45l4.3,1.9c-1.9,4.7-6.3,7.6-11.351,7.6
	C38.5,35.752,33,30.402,33,22.551c0-8,5.4-13.401,12.201-13.401s12.201,5.4,12.201,13.401v1.2H38z M38.2,20.001h14.001
	c-0.85-4.1-3.7-6.8-7-6.8C41.851,13.201,39,15.901,38.2,20.001z"/>
<path d="M66.35,35.352V9.701h4.75v3.6h0.4c1.25-1.55,4.05-4.15,8.2-4.15c8.25,0,8.301,6.5,8.301,7.451v18.751h-4.75V18.101
	c0-0.6-0.05-4.9-4.45-4.9c-3.5,0-7.701,4.3-7.701,11.551v10.601H66.35z"/>
<path d="M98.35,35.352V9.701h4.75v3.6h0.4c1.25-1.55,4.05-4.15,8.2-4.15c8.25,0,8.301,6.5,8.301,7.451v18.751h-4.75V18.101
	c0-0.6-0.05-4.9-4.45-4.9c-3.5,0-7.701,4.3-7.701,11.551v10.601H98.35z"/>
<path d="M141.351,41.203c-1.2,3.15-4.3,5.35-8.2,5.35c-1.4,0-2.9-0.3-4.451-0.9c-1.8-0.7-3.1-1.6-4.1-2.55l3.45-2.6
	c0.65,0.65,1.4,1.1,2.25,1.45c0.7,0.25,1.45,0.4,2.15,0.4c2.05,0,3.9-0.9,4.75-2.9l2.45-5.75l-10.4-24.001h5l7.65,18.251l6.8-18.251
	h5L141.351,41.203z"/>
<path d="M198.8,31.202h18.852v4.15h-23.702V0.85h4.851V31.202z"/>
<path d="M226.1,31.502h9.101V13.551h-7.801v-3.85h12.551v21.801h8.801v3.85H226.1V31.502z M237.4,0c2,0,3.6,1.6,3.6,3.6
	c0,1.9-1.6,3.45-3.6,3.45c-1.9,0-3.45-1.55-3.45-3.45C233.95,1.6,235.5,0,237.4,0z"/>
<path d="M258.35,35.352V9.701h4.75v3.6h0.4c1.25-1.55,4.05-4.15,8.2-4.15c8.251,0,8.301,6.5,8.301,7.451v18.751h-4.75V18.101
	c0-0.6-0.051-4.9-4.45-4.9c-3.501,0-7.701,4.3-7.701,11.551v10.601H258.35z"/>
<path d="M312.951,35.352H308.2v-2.85h-0.35c-1.35,1.45-3.95,3.25-7.351,3.25c-6.55,0-11.7-6-11.7-13.25
	c0-7.351,5.15-13.351,11.7-13.351c3.4,0,6.051,2.1,7.301,3.5h0.399V0.55h4.751V35.352z M308.2,22.451c0-5.5-2.649-9.25-7.25-9.25
	c-4.05,0-7.2,4.05-7.2,9.25s3.15,9.25,7.2,9.25c4.45,0,7.101-3.6,7.25-8.851V22.451z"/>
<path d="M322.149,0.55h4.75v12.101h0.351c1.6-1.6,3.95-3.5,7.351-3.5c6.55,0,11.7,6,11.7,13.351c0,7.25-5.15,13.25-11.7,13.25
	c-3.4,0-5.751-1.65-7.351-3.25h-0.351v2.85h-4.75V0.55z M326.899,22.851c0.15,5.25,2.801,8.851,7.251,8.851
	c4.05,0,7.2-4.05,7.2-9.25s-3.15-9.25-7.2-9.25c-4.601,0-7.251,3.75-7.251,9.25V22.851z"/>
<path d="M353.85,31.502h9.101V4.4h-7.801V0.55H367.7v30.952h8.801v3.85H353.85V31.502z"/>
<path d="M397.25,9.15c6.851,0,12.351,5.4,12.351,13.401c0,7.851-5.5,13.201-12.351,13.201c-6.95,0-12.45-5.35-12.45-13.201
	C384.8,14.551,390.3,9.15,397.25,9.15z M397.2,31.702c4.05,0,7.45-3.75,7.45-9.25c0-5.45-3.4-9.25-7.45-9.25s-7.45,3.8-7.45,9.25
	C389.75,27.952,393.15,31.702,397.2,31.702z"/>
<path d="M426.85,35.352V18.101c0-0.6-0.05-4.9-2.5-4.9c-2,0-4.4,2.85-4.4,10.101v12.051h-4.75V9.701h4.75v2.6h0.601
	c0.85-1.55,2.55-3.15,5.351-3.15c2.7,0,4.1,1.5,4.85,3.15h0.95c0.9-1.55,2.7-3.15,5.601-3.15c5.9,0,5.95,6.5,5.95,7.451v18.751
	h-4.75V18.101c0-0.6-0.05-4.9-2.5-4.9c-1.95,0-4.301,2.75-4.4,9.601v12.551H426.85z"/>
</svg>
