<?xml version="1.0" encoding="utf-8"?>
<!-- Generator: Adobe Illustrator 15.0.0, SVG Export Plug-In  -->
<!DOCTYPE svg PUBLIC "-//W3C//DTD SVG 1.1//EN" "http://www.w3.org/Graphics/SVG/1.1/DTD/svg11.dtd" [
	<!ENTITY ns_flows "http://ns.adobe.com/Flows/1.0/">
]>
<svg version="1.1"
	 xmlns="http://www.w3.org/2000/svg" xmlns:xlink="http://www.w3.org/1999/xlink" xmlns:a="http://ns.adobe.com/AdobeSVGViewerExtensions/3.0/"
	 x="0px" y="0px" width="1462px" height="100px" viewBox="-5.803 -4.961 1462 100"
	 overflow="visible" enable-background="new -5.803 -4.961 1462 100" xml:space="preserve">
<defs>
</defs>
<path fill="#E8A723" d="M0,46.603h6v0.9c0,5,2.4,9.201,6.601,12.301c4,3.1,9.601,4.9,15.701,4.9c6.2,0,11.701-1.8,15.701-4.701
	c4.1-3,6.5-7.1,6.5-11.8c0-8.401-11.501-10.501-20.201-11.601C10,34.102,6,28.102,6,18.801C6,13.601,8.9,9,13.601,5.5
	C18.301,2.1,24.602,0,32.102,0c7.5,0,13.801,2,18.501,5.4c4.7,3.4,7.7,7.9,7.7,13.101v1.1h-6.3v-0.8c0-3.601-2.1-6.801-5.7-9.101
	c-3.7-2.4-8.601-3.8-14.201-3.8c-5.5,0-10.5,1.4-14.201,3.8c-3.6,2.3-5.7,5.5-5.7,9.101c0,9.101,9.201,11.201,19.701,12.4
	c13.201,1.5,24.602,4.9,24.602,16.701c0,6.4-3.2,12.101-8.401,16.201c-5.1,4.1-11.9,6.5-19.901,6.5c-7.9,0-14.701-2.5-19.801-6.5
	C3.3,60.003,0,54.203,0,47.703V46.603z"/>
<path fill="#E8A723" d="M81.501,19.101h22.001l-5.9,45.303h18.801l-0.7,5.4H72.2l0.7-5.4h18.801l5.2-39.902H80.801L81.501,19.101z
	 M108.203,5.3c0,3.7-3,6.3-6.3,6.3c-3,0-5.301-2.3-5.301-5.2c0-3.7,3-6.3,6.5-6.3C106.103,0.1,108.203,2.4,108.203,5.3z"/>
<path fill="#E8A723" d="M147.801,0.8h22.002l-8.301,63.604h18.801l-0.7,5.4H136.1l0.7-5.4h18.801L163.202,6.2h-16.101L147.801,0.8z"
	/>
<path fill="#E8A723" d="M247.304,19.101l-24.803,50.703h-9.4L201.5,19.101h6.7l10.101,46.103h0.2l22.102-46.103H247.304z"/>
<path fill="#E8A723" d="M267.602,63.104c-3.6-4.5-5.4-10.301-5.4-16.301c0-6.5,2-13.501,6.301-18.901
	c4.4-5.5,11.201-9.801,20.602-9.801c7.199,0,12.4,3.1,15.9,7.701c3.6,4.7,4.699,10,4.699,17.201c0,1-0.199,2.5-0.299,3h-41.002v0.8
	c0,4.8,1.299,9.301,3.799,12.601c2.602,3.4,6.502,5.601,11.502,5.601c3.799,0,7.4-0.9,10.5-2.8c2.9-1.8,5.5-4.5,7.301-8.101l5.9,1.6
	c-0.9,1.9-2.1,3.8-3.4,5.5c-4.5,5.5-10.9,9.401-20.402,9.401C276.402,70.604,271.201,67.504,267.602,63.104z M276.102,28.402
	c-3.5,3-6,7.3-7.1,12.4h34.502c-0.1-4.6-1.1-9-3.701-12.201c-2.398-3-6.199-4.9-11.199-4.9
	C283.902,23.701,279.502,25.401,276.102,28.402z"/>
<path fill="#E8A723" d="M338.803,47.303l-3,22.501h-5.9l6.6-50.703h5.9l-1.5,11.101h0.4c4.9-7,12.4-12.101,20.602-12.101
	c8,0,14.4,5.8,14.4,13.001c0,0.6,0,0.8-0.1,1.6l-0.201,1.6h-5.9l0.1-0.6c0.102-0.6,0.102-0.9,0.102-1.4
	c0-3.4-2.701-8.601-9.801-8.601C351.902,23.701,340.803,32.402,338.803,47.303z"/>
<path fill="#E8A723" d="M448,46.603h6.002v0.9c0,5,2.398,9.201,6.6,12.301c4,3.1,9.602,4.9,15.701,4.9
	c6.199,0,11.701-1.8,15.701-4.701c4.1-3,6.5-7.1,6.5-11.8c0-8.401-11.5-10.501-20.201-11.601c-20.301-2.5-24.301-8.5-24.301-17.801
	c0-5.201,2.898-9.801,7.6-13.301c4.701-3.4,11-5.5,18.502-5.5c7.5,0,13.801,2,18.5,5.4c4.701,3.4,7.701,7.9,7.701,13.101v1.1h-6.301
	v-0.8c0-3.601-2.1-6.801-5.701-9.101c-3.699-2.4-8.6-3.8-14.199-3.8c-5.502,0-10.502,1.4-14.201,3.8
	c-3.602,2.3-5.701,5.5-5.701,9.101c0,9.101,9.201,11.201,19.701,12.4c13.201,1.5,24.602,4.9,24.602,16.701
	c0,6.4-3.199,12.101-8.4,16.201c-5.1,4.1-11.9,6.5-19.9,6.5c-7.9,0-14.701-2.5-19.803-6.5c-5.1-4.101-8.4-9.901-8.4-16.401V46.603z"
	/>
<path fill="#E8A723" d="M523.402,63.204c-3.602-4.5-5.201-10.601-5.201-16.701c0-6.601,1.9-13.601,6.301-19.102
	c4.5-5.6,11.1-9.3,20.301-9.3c7.1,0,12.5,3.1,16.102,7.5c2.5,3.2,4.299,7.8,4.9,12.601h-6.301c-0.4-2.9-1.6-6.7-3.4-8.9
	c-2.6-3.4-6.4-5.601-11.602-5.601c-7,0-11.9,3-15.301,7.301c-3.4,4.4-4.799,10-4.799,15.401c0,4.9,1.199,9.601,3.699,13
	c2.6,3.4,6.701,5.601,11.801,5.601c7,0,11.9-3.1,15.301-7.4c0.801-1.2,1.801-3,2.5-4.5h6.5c-0.898,2.4-2.699,5.9-4.299,8
	c-4.4,5.601-10.9,9.501-20.303,9.501C532.602,70.604,527.002,67.704,523.402,63.204z"/>
<path fill="#E8A723" d="M594.803,47.303l-3,22.501h-5.9l6.6-50.703h5.9l-1.5,11.101h0.4c4.9-7,12.4-12.101,20.602-12.101
	c8,0,14.4,5.8,14.4,13.001c0,0.6,0,0.8-0.1,1.6l-0.201,1.6h-5.9l0.1-0.6c0.102-0.6,0.102-0.9,0.102-1.4
	c0-3.4-2.701-8.601-9.801-8.601C607.902,23.701,596.803,32.402,594.803,47.303z"/>
<path fill="#E8A723" d="M651.602,63.104c-3.6-4.5-5.4-10.301-5.4-16.301c0-6.5,2-13.501,6.301-18.901
	c4.4-5.5,11.201-9.801,20.602-9.801c7.199,0,12.4,3.1,15.9,7.701c3.6,4.7,4.699,10,4.699,17.201c0,1-0.199,2.5-0.299,3h-41.002v0.8
	c0,4.8,1.299,9.301,3.799,12.601c2.602,3.4,6.502,5.601,11.502,5.601c3.799,0,7.4-0.9,10.5-2.8c2.9-1.8,5.5-4.5,7.301-8.101l5.9,1.6
	c-0.9,1.9-2.1,3.8-3.4,5.5c-4.5,5.5-10.9,9.401-20.402,9.401C660.402,70.604,655.201,67.504,651.602,63.104z M660.102,28.402
	c-3.5,3-6,7.3-7.1,12.4h34.502c-0.1-4.6-1.1-9-3.701-12.201c-2.398-3-6.199-4.9-11.199-4.9
	C667.902,23.701,663.502,25.401,660.102,28.402z"/>
<path fill="#E8A723" d="M715.602,63.104c-3.6-4.5-5.4-10.301-5.4-16.301c0-6.5,2-13.501,6.301-18.901
	c4.4-5.5,11.201-9.801,20.602-9.801c7.199,0,12.4,3.1,15.9,7.701c3.6,4.7,4.699,10,4.699,17.201c0,1-0.199,2.5-0.299,3h-41.002v0.8
	c0,4.8,1.299,9.301,3.799,12.601c2.602,3.4,6.502,5.601,11.502,5.601c3.799,0,7.4-0.9,10.5-2.8c2.9-1.8,5.5-4.5,7.301-8.101l5.9,1.6
	c-0.9,1.9-2.1,3.8-3.4,5.5c-4.5,5.5-10.9,9.401-20.402,9.401C724.402,70.604,719.201,67.504,715.602,63.104z M724.102,28.402
	c-3.5,3-6,7.3-7.1,12.4h34.502c-0.1-4.6-1.1-9-3.701-12.201c-2.398-3-6.199-4.9-11.199-4.9
	C731.902,23.701,727.502,25.401,724.102,28.402z"/>
<path fill="#E8A723" d="M784.402,47.303l-3,22.501h-5.9l6.6-50.703h5.9l-1.5,11.101h0.4c4.9-7,12.4-12.101,20.602-12.101
	c8,0,14.4,5.8,14.4,13.001c0,0.6,0,0.8-0.1,1.6l-4.801,37.102h-5.9l4.701-36.102c0.1-0.6,0.1-0.9,0.1-1.4
	c0-3.4-2.701-8.601-9.801-8.601C797.502,23.701,786.402,32.402,784.402,47.303z"/>
<path fill="#E8A723" d="M895.602,69.804l9-69.004h6.1l-3.9,29.902h39.803l3.9-29.902h6.102l-9.002,69.004h-6.1l4.301-33.402h-39.803
	l-4.301,33.402H895.602z"/>
<path fill="#E8A723" d="M971.402,63.204c-3.602-4.5-5.201-10.601-5.201-16.701c0-6.601,1.9-13.601,6.301-19.102
	c4.5-5.6,11.1-9.3,20.301-9.3c7.1,0,12.602,2.9,16.201,7.4s5.201,10.701,5.201,16.701c0,6.4-1.9,13.401-6.301,18.901
	c-4.602,5.601-11.102,9.501-20.303,9.501C980.602,70.604,975.002,67.704,971.402,63.204z M1003.203,57.604
	c3.4-4.4,4.801-10,4.801-15.301c0-4.8-1.201-9.601-3.801-13.001s-6.5-5.601-11.701-5.601c-7,0-11.9,3-15.301,7.301
	c-3.4,4.4-4.799,10-4.799,15.401c0,4.9,1.199,9.601,3.799,13c2.602,3.4,6.602,5.601,11.701,5.601
	C994.902,65.004,999.803,61.904,1003.203,57.604z"/>
<path fill="#E8A723" d="M1047.703,56.303c0,2.4,0.699,4.8,2.6,6.4c1.6,1.4,4,2.3,7.301,2.3c4.4,0,9.801-1.9,13-6.601l4.801,2.601
	c-4.602,6.8-12.201,9.601-18.402,9.601c-5,0-8.6-1.4-11.1-3.601c-2.801-2.6-4.1-6.1-4.1-10.601c0-1.5,3.799-31.902,3.799-31.902
	h-14.301l0.701-5.4h14.301l2.299-18.301h5.9l-2.299,18.301h24.801l-0.699,5.4h-24.803
	C1051.502,24.501,1047.703,55.303,1047.703,56.303z"/>
<path fill="#E8A723" d="M1152,46.603h6.002v0.9c0,5,2.398,9.201,6.6,12.301c4,3.1,9.602,4.9,15.701,4.9
	c6.199,0,11.701-1.8,15.701-4.701c4.1-3,6.5-7.1,6.5-11.8c0-8.401-11.5-10.501-20.201-11.601c-20.301-2.5-24.301-8.5-24.301-17.801
	c0-5.201,2.898-9.801,7.6-13.301c4.701-3.4,11-5.5,18.502-5.5c7.5,0,13.801,2,18.5,5.4c4.701,3.4,7.701,7.9,7.701,13.101v1.1h-6.301
	v-0.8c0-3.601-2.1-6.801-5.701-9.101c-3.699-2.4-8.6-3.8-14.199-3.8c-5.502,0-10.502,1.4-14.201,3.8
	c-3.602,2.3-5.701,5.5-5.701,9.101c0,9.101,9.201,11.201,19.701,12.4c13.201,1.5,24.602,4.9,24.602,16.701
	c0,6.4-3.199,12.101-8.4,16.201c-5.1,4.1-11.9,6.5-19.9,6.5c-7.9,0-14.701-2.5-19.803-6.5c-5.1-4.101-8.4-9.901-8.4-16.401V46.603z"
	/>
<path fill="#E8A723" d="M1267.305,25.501c3.4,4.5,5,10.601,5,16.701c0,6.6-1.801,13.601-6,19.101
	c-4.301,5.6-10.602,9.301-19.402,9.301c-8.199,0-13.6-3.5-17-9.701h-0.4l-3.6,27.602h-5.9l9-69.404h5.9l-1.1,9.301h0.299
	c4.301-5.601,8.801-10.301,17.701-10.301C1258.504,18.101,1263.904,21.001,1267.305,25.501z M1236.303,31.102
	c-3.301,4.4-4.701,10-4.701,15.301c0,4.8,1.201,9.601,3.801,13c2.5,3.4,6.199,5.601,11.301,5.601c6.801,0,11.6-3,14.9-7.3
	c3.301-4.4,4.701-10.001,4.701-15.401c0-4.9-1.201-9.601-3.801-13.001c-2.5-3.4-6.301-5.601-11.301-5.601
	C1244.402,23.701,1239.602,26.802,1236.303,31.102z"/>
<path fill="#E8A723" d="M1291.402,63.204c-3.602-4.5-5.201-10.601-5.201-16.701c0-6.601,1.9-13.601,6.301-19.102
	c4.5-5.6,11.1-9.3,20.301-9.3c7.1,0,12.602,2.9,16.201,7.4s5.201,10.701,5.201,16.701c0,6.4-1.9,13.401-6.301,18.901
	c-4.602,5.601-11.102,9.501-20.303,9.501C1300.602,70.604,1295.002,67.704,1291.402,63.204z M1323.203,57.604
	c3.4-4.4,4.801-10,4.801-15.301c0-4.8-1.201-9.601-3.801-13.001s-6.5-5.601-11.701-5.601c-7,0-11.9,3-15.301,7.301
	c-3.4,4.4-4.799,10-4.799,15.401c0,4.9,1.199,9.601,3.799,13c2.602,3.4,6.602,5.601,11.701,5.601
	C1314.902,65.004,1319.803,61.904,1323.203,57.604z"/>
<path fill="#E8A723" d="M1367.703,56.303c0,2.4,0.699,4.8,2.6,6.4c1.6,1.4,4,2.3,7.301,2.3c4.4,0,9.801-1.9,13-6.601l4.801,2.601
	c-4.602,6.8-12.201,9.601-18.402,9.601c-5,0-8.6-1.4-11.1-3.601c-2.801-2.6-4.1-6.1-4.1-10.601c0-1.5,3.799-31.902,3.799-31.902
	h-14.301l0.701-5.4h14.301l2.299-18.301h5.9l-2.299,18.301h24.801l-0.699,5.4h-24.803
	C1371.502,24.501,1367.703,55.303,1367.703,56.303z"/>
</svg>
