<?xml version="1.0" encoding="utf-8"?>
<!-- Generator: Adobe Illustrator 15.0.0, SVG Export Plug-In  -->
<!DOCTYPE svg PUBLIC "-//W3C//DTD SVG 1.1//EN" "http://www.w3.org/Graphics/SVG/1.1/DTD/svg11.dtd" [
	<!ENTITY ns_flows "http://ns.adobe.com/Flows/1.0/">
]>
<svg version="1.1"
	 xmlns="http://www.w3.org/2000/svg" xmlns:xlink="http://www.w3.org/1999/xlink" xmlns:a="http://ns.adobe.com/AdobeSVGViewerExtensions/3.0/"
	 x="0px" y="0px" width="457px" height="44px" viewBox="-8.75 -4.715 457 44"
	 overflow="visible" enable-background="new -8.75 -4.715 457 44" xml:space="preserve">
<defs>
</defs>
<path d="M4.85,31.202h18.851v4.15H0V0.85h4.85V31.202z"/>
<path d="M36.05,23.751c0.45,4.8,3.701,7.95,7.451,7.95c3.05,0,5.65-2.05,7.05-5.45l4.3,1.9c-1.9,4.7-6.3,7.6-11.351,7.6
	c-6.95,0-12.451-5.35-12.451-13.201c0-8,5.4-13.401,12.201-13.401s12.201,5.4,12.201,13.401v1.2H36.05z M36.25,20.001h14.001
	c-0.85-4.1-3.7-6.8-7-6.8C39.9,13.201,37.05,15.901,36.25,20.001z"/>
<path d="M64.4,35.352V9.701h4.75v3.6h0.4c1.25-1.55,4.05-4.15,8.2-4.15c8.25,0,8.301,6.5,8.301,7.451v18.751h-4.75V18.101
	c0-0.6-0.05-4.9-4.45-4.9c-3.5,0-7.701,4.3-7.701,11.551v10.601H64.4z"/>
<path d="M96.4,35.352V9.701h4.75v3.6h0.4c1.25-1.55,4.05-4.15,8.2-4.15c8.25,0,8.301,6.5,8.301,7.451v18.751h-4.75V18.101
	c0-0.6-0.05-4.9-4.45-4.9c-3.5,0-7.701,4.3-7.701,11.551v10.601H96.4z"/>
<path d="M127.7,17.451c0.1-1.55,0.55-2.9,1.4-4.15c1.35-2.05,4.1-4.15,9.5-4.15c2.15,0,3.75,0.45,5,1
	c3.45,1.6,4.101,4.65,4.101,7.201v13.25c0,0.85,0.6,1.35,1.15,1.35s0.8-0.25,1-0.5c0.15-0.15,0.25-0.3,0.3-0.5l3.35,1.65
	c-0.3,0.6-0.65,1.15-1.1,1.6c-0.75,0.8-1.85,1.55-3.3,1.55c-2.6,0-4.65-1.9-4.8-3.25h-0.4c-2.6,2.55-5.5,3.25-7.65,3.25
	c-1.6,0-9.801-0.15-9.801-7.9c0-4.8,4.6-7,8.351-7.8l8.15-1.7v-1c0-1.4-0.1-4.15-4.5-4.15c-2.95,0-4.4,1.1-5.15,2.15
	c-0.45,0.6-0.7,1.3-0.8,2.1H127.7z M142.951,22.301l-6,1.25c-2.7,0.55-5.55,1.8-5.55,4.35c0,3.701,3.5,3.8,4.851,3.8h0.2
	c2.95,0,6.5-2.25,6.5-5.05V22.301z"/>
<path d="M160.399,35.352V9.701h4.751v3.6h0.399c1.25-1.55,4.051-4.15,8.201-4.15c8.25,0,8.3,6.5,8.3,7.451v1.25h-4.75
	c-0.05-1.05-0.45-4.65-4.45-4.65c-3.5,0-7.7,4.3-7.7,11.551v10.601H160.399z"/>
<path d="M196.35,10V0.55h4.75V10h11.901v3.85H201.1v12.951c0,0.6,0.05,4.9,4.45,4.9c3.351,0,4.95-2.3,5.551-3.15l4.05,2.25
	c-2.2,3.45-5.05,4.95-9.601,4.95c-9.15,0-9.2-6.5-9.2-7.45V13.851h-6.75V10H196.35z"/>
<path d="M260.85,31.202h18.852v4.15h-23.702V0.85h4.851V31.202z"/>
<path d="M287.699,17.451c0.1-1.55,0.55-2.9,1.4-4.15c1.35-2.05,4.1-4.15,9.5-4.15c2.15,0,3.751,0.45,5.001,1
	c3.45,1.6,4.1,4.65,4.1,7.201v13.25c0,0.85,0.601,1.35,1.15,1.35s0.8-0.25,1-0.5c0.15-0.15,0.25-0.3,0.3-0.5l3.351,1.65
	c-0.3,0.6-0.65,1.15-1.101,1.6c-0.75,0.8-1.85,1.55-3.3,1.55c-2.601,0-4.65-1.9-4.8-3.25h-0.4c-2.601,2.55-5.5,3.25-7.65,3.25
	c-1.601,0-9.801-0.15-9.801-7.9c0-4.8,4.601-7,8.351-7.8l8.15-1.7v-1c0-1.4-0.1-4.15-4.5-4.15c-2.95,0-4.4,1.1-5.15,2.15
	c-0.45,0.6-0.7,1.3-0.8,2.1H287.699z M302.95,22.301l-6,1.25c-2.7,0.55-5.551,1.8-5.551,4.35c0,3.701,3.5,3.8,4.851,3.8h0.2
	c2.95,0,6.5-2.25,6.5-5.05V22.301z"/>
<path d="M320.399,35.352V0.55h4.75v12.751h0.4c1.25-1.55,4.05-4.15,8.2-4.15c8.251,0,8.301,6.5,8.301,7.451v18.751h-4.75V18.101
	c0-0.6-0.051-4.9-4.45-4.9c-3.501,0-7.701,4.3-7.701,11.551v10.601H320.399z"/>
<path d="M374.101,9.701v25.651h-4.75v-3.65h-0.5c-1.301,1.55-3.95,4.05-8.101,4.05c-8.251,0-8.301-6.4-8.301-7.35V9.701h4.75v17.151
	c0,0.6,0.051,4.85,4.45,4.85c3.501,0,7.701-4.2,7.701-11.351V9.701H374.101z"/>
<path d="M384.149,31.502h9.101V13.551h-7.801v-3.85H398v21.801h8.801v3.85h-22.651V31.502z M395.45,0c2,0,3.6,1.6,3.6,3.6
	c0,1.9-1.6,3.45-3.6,3.45c-1.9,0-3.45-1.55-3.45-3.45C392,1.6,393.55,0,395.45,0z"/>
<path d="M433.101,17.551c-0.15-0.75-0.7-4.35-6.101-4.35c-5.2,0-5.851,2.7-5.851,3.5c0,2.8,4.95,3.3,6.7,3.5
	c4.851,0.5,11.401,1.25,11.401,7.7c0,3.75-3.351,7.851-11.601,7.851c-7.851,0-12.251-4.95-12.401-8.95h4.95
	c0.2,2.1,2.301,4.9,7.351,4.9c5.301,0,6.751-2.15,6.751-3.8c0-3.7-4.501-3.3-8.301-3.85c-4-0.6-9.801-2-9.801-7.351
	c0-1.3,1-7.55,10.701-7.55c10.05,0,11.2,8.101,11.25,8.4H433.101z"/>
</svg>
