<?xml version="1.0" encoding="utf-8"?>
<!-- Generator: Adobe Illustrator 15.0.0, SVG Export Plug-In  -->
<!DOCTYPE svg PUBLIC "-//W3C//DTD SVG 1.1//EN" "http://www.w3.org/Graphics/SVG/1.1/DTD/svg11.dtd" [
	<!ENTITY ns_flows "http://ns.adobe.com/Flows/1.0/">
]>
<svg version="1.1"
	 xmlns="http://www.w3.org/2000/svg" xmlns:xlink="http://www.w3.org/1999/xlink" xmlns:a="http://ns.adobe.com/AdobeSVGViewerExtensions/3.0/"
	 x="0px" y="0px" width="834px" height="88px" viewBox="-2.801 -4.961 834 88"
	 overflow="visible" enable-background="new -2.801 -4.961 834 88" xml:space="preserve">
<defs>
</defs>
<path fill="#E8A723" d="M0,46.603h6v0.9c0,5,2.4,9.201,6.601,12.301c4,3.1,9.601,4.9,15.701,4.9c6.2,0,11.701-1.8,15.701-4.701
	c4.1-3,6.5-7.1,6.5-11.8c0-8.401-11.501-10.501-20.201-11.601C10,34.102,6,28.102,6,18.801C6,13.601,8.9,9,13.601,5.5
	C18.301,2.1,24.602,0,32.102,0c7.5,0,13.801,2,18.501,5.4c4.7,3.4,7.7,7.9,7.7,13.101v1.1h-6.3v-0.8c0-3.601-2.1-6.801-5.7-9.101
	c-3.7-2.4-8.601-3.8-14.201-3.8c-5.5,0-10.5,1.4-14.201,3.8c-3.6,2.3-5.7,5.5-5.7,9.101c0,9.101,9.201,11.201,19.701,12.4
	c13.201,1.5,24.602,4.9,24.602,16.701c0,6.4-3.2,12.101-8.401,16.201c-5.1,4.1-11.9,6.5-19.901,6.5c-7.9,0-14.701-2.5-19.801-6.5
	C3.3,60.003,0,54.203,0,47.703V46.603z"/>
<path fill="#E8A723" d="M87.701,56.303c0,2.4,0.7,4.8,2.6,6.4c1.6,1.4,4,2.3,7.301,2.3c4.4,0,9.8-1.9,13-6.601l4.8,2.601
	c-4.6,6.8-12.201,9.601-18.401,9.601c-5,0-8.601-1.4-11.101-3.601c-2.8-2.6-4.101-6.1-4.101-10.601c0-1.5,3.8-31.902,3.8-31.902
	H71.3l0.7-5.4h14.301l2.3-18.301h5.9l-2.3,18.301h24.801l-0.7,5.4H91.501C91.501,24.501,87.701,55.303,87.701,56.303z"/>
<path fill="#E8A723" d="M145.501,19.101h22.001l-5.9,45.303h18.802l-0.7,5.4H136.2l0.7-5.4h18.801l5.2-39.902h-16.101
	L145.501,19.101z M172.202,5.3c0,3.7-3,6.3-6.3,6.3c-3,0-5.301-2.3-5.301-5.2c0-3.7,3-6.3,6.501-6.3
	C170.103,0.1,172.202,2.4,172.202,5.3z"/>
<path fill="#E8A723" d="M211.801,0.8h22.001l-8.301,63.604h18.802l-0.7,5.4H200.1l0.7-5.4h18.801L227.201,6.2h-16.101L211.801,0.8z"
	/>
<path fill="#E8A723" d="M267.6,63.104c-3.6-4.5-5.4-10.301-5.4-16.301c0-6.5,2-13.501,6.301-18.901
	c4.4-5.5,11.201-9.801,20.602-9.801c7.199,0,12.4,3.1,15.9,7.701c3.6,4.7,4.699,10,4.699,17.201c0,1-0.199,2.5-0.299,3h-41.002v0.8
	c0,4.8,1.299,9.301,3.799,12.601c2.602,3.4,6.502,5.601,11.502,5.601c3.799,0,7.4-0.9,10.5-2.8c2.9-1.8,5.5-4.5,7.301-8.101l5.9,1.6
	c-0.9,1.9-2.1,3.8-3.4,5.5c-4.5,5.5-10.9,9.401-20.402,9.401C276.401,70.604,271.2,67.504,267.6,63.104z M276.1,28.402
	c-3.5,3-6,7.3-7.1,12.4h34.502c-0.1-4.6-1.1-9-3.701-12.201c-2.398-3-6.199-4.9-11.199-4.9
	C283.901,23.701,279.5,25.401,276.1,28.402z"/>
<path fill="#E8A723" d="M393.5,63.204c-3.4-4.5-5-10.601-5-16.701c0-6.601,1.799-13.601,6-19.102c4.299-5.6,10.6-9.3,19.4-9.3
	c8.201,0,13.602,4.1,17.002,10.301h0.299L434.803,0.8h5.9l-8.9,69.004h-5.9l1-8.9h-0.301c-4.301,5.6-8.701,9.701-17.602,9.701
	C402.301,70.604,396.901,67.704,393.5,63.204z M424.502,57.604c3.299-4.4,4.699-10,4.699-15.301c0-4.8-1.199-9.601-3.799-13.001
	c-2.502-3.4-6.201-5.601-11.301-5.601c-6.801,0-11.602,3-14.902,7.301c-3.299,4.4-4.699,10-4.699,15.401c0,4.9,1.199,9.601,3.799,13
	c2.502,3.4,6.301,5.601,11.301,5.601C416.401,65.004,421.202,61.904,424.502,57.604z"/>
<path fill="#E8A723" d="M465.5,19.101h22.002l-5.9,45.303h18.801l-0.701,5.4H456.2l0.699-5.4h18.803l5.199-39.902h-16.1
	L465.5,19.101z M492.202,5.3c0,3.7-3,6.3-6.301,6.3c-3,0-5.299-2.3-5.299-5.2c0-3.7,3-6.3,6.5-6.3
	C490.102,0.1,492.202,2.4,492.202,5.3z"/>
<path fill="#E8A723" d="M636.803,0.8l-31.002,69.004h-9.9L582.899,0.8h6.602l11.701,64.504h0.299L630.204,0.8H636.803z"/>
<path fill="#E8A723" d="M657.5,19.101h22.002l-5.9,45.303h18.801l-0.701,5.4H648.2l0.699-5.4h18.803l5.199-39.902h-16.1
	L657.5,19.101z M684.202,5.3c0,3.7-3,6.3-6.301,6.3c-3,0-5.299-2.3-5.299-5.2c0-3.7,3-6.3,6.5-6.3
	C682.102,0.1,684.202,2.4,684.202,5.3z"/>
<path fill="#E8A723" d="M727.702,56.303c0,2.4,0.699,4.8,2.6,6.4c1.6,1.4,4,2.3,7.301,2.3c4.4,0,9.801-1.9,13-6.601l4.801,2.601
	c-4.602,6.8-12.201,9.601-18.402,9.601c-5,0-8.6-1.4-11.1-3.601c-2.801-2.6-4.1-6.1-4.1-10.601c0-1.5,3.799-31.902,3.799-31.902
	h-14.301l0.701-5.4h14.301L728.6,0.8h5.9l-2.299,18.301h24.801l-0.699,5.4H731.5C731.5,24.501,727.702,55.303,727.702,56.303z"/>
<path fill="#E8A723" d="M778.799,63.204c-3.4-4.5-5-10.601-5-16.701c0-6.601,1.801-13.601,6-19.102c4.301-5.6,10.602-9.3,19.402-9.3
	c8.199,0,13.6,4.1,17,10.301h0.301l1.199-9.301h5.9l-6.5,50.703h-5.9l1-8.9h-0.4c-4.299,5.6-8.6,9.701-17.5,9.701
	C787.6,70.604,782.2,67.704,778.799,63.204z M809.801,57.604c3.301-4.4,4.701-10,4.701-15.301c0-4.8-1.201-9.601-3.801-13.001
	c-2.5-3.4-6.199-5.601-11.301-5.601c-6.801,0-11.6,3-14.9,7.301c-3.301,4.4-4.701,10-4.701,15.401c0,4.9,1.201,9.601,3.801,13
	c2.5,3.4,6.301,5.601,11.301,5.601C801.702,65.004,806.502,61.904,809.801,57.604z"/>
</svg>
