<?xml version="1.0" encoding="utf-8"?>
<!-- Generator: Adobe Illustrator 15.0.0, SVG Export Plug-In . SVG Version: 6.00 Build 0)  -->
<!DOCTYPE svg PUBLIC "-//W3C//DTD SVG 1.1//EN" "http://www.w3.org/Graphics/SVG/1.1/DTD/svg11.dtd">
<svg version="1.1" id="Layer_1" xmlns="http://www.w3.org/2000/svg" xmlns:xlink="http://www.w3.org/1999/xlink" x="0px" y="0px"
	 width="425.825px" height="49.131px" viewBox="-3.825 -5.131 425.825 49.131"
	 enable-background="new -3.825 -5.131 425.825 49.131" xml:space="preserve">
<path d="M4.85,7.5v28.402H0V1.4h7.45l5.75,24.352L18.951,1.4h7.45v34.502h-4.85V7.5l-5.65,24.102h-5.4L4.85,7.5z"/>
<path d="M33.65,18.001c0.1-1.55,0.55-2.9,1.4-4.15c1.35-2.05,4.1-4.15,9.5-4.15c2.15,0,3.75,0.45,5,1
	c3.45,1.6,4.101,4.65,4.101,7.201v13.25c0,0.85,0.6,1.35,1.15,1.35c0.55,0,0.8-0.25,1-0.5c0.15-0.15,0.25-0.3,0.3-0.5l3.35,1.65
	c-0.3,0.6-0.65,1.149-1.1,1.6c-0.75,0.8-1.85,1.55-3.3,1.55c-2.6,0-4.65-1.899-4.8-3.25h-0.4c-2.6,2.55-5.5,3.25-7.65,3.25
	c-1.6,0-9.801-0.149-9.801-7.899c0-4.801,4.6-7,8.351-7.8l8.15-1.7v-1c0-1.4-0.1-4.15-4.5-4.15c-2.95,0-4.4,1.1-5.15,2.15
	c-0.45,0.6-0.7,1.3-0.8,2.1L33.65,18.001L33.65,18.001z M48.901,22.852l-6,1.25c-2.7,0.551-5.55,1.801-5.55,4.351
	c0,3.7,3.5,3.8,4.851,3.8h0.2c2.95,0,6.5-2.25,6.5-5.05L48.901,22.852L48.901,22.852z"/>
<path d="M66.35,35.902V10.251h4.75v3.6h0.4c1.25-1.55,4.05-4.15,8.2-4.15c8.25,0,8.301,6.5,8.301,7.451v1.25h-4.75
	c-0.05-1.05-0.45-4.65-4.45-4.65c-3.5,0-7.701,4.3-7.701,11.551v10.602h-4.75V35.902z"/>
<path d="M102.3,10.551V1.1h4.75v9.451h11.9v3.85h-11.9v12.951c0,0.601,0.05,4.9,4.45,4.9c3.35,0,4.95-2.3,5.55-3.15l4.05,2.25
	c-2.2,3.45-5.05,4.95-9.601,4.95c-9.151,0-9.201-6.5-9.201-7.45V14.401h-6.75v-3.85H102.3z"/>
<path d="M130.1,32.052h9.101V14.101H131.4v-3.85h12.551v21.801h8.801v3.851H130.1V32.052z M141.401,0.55c2,0,3.6,1.6,3.6,3.6
	c0,1.9-1.6,3.45-3.6,3.45c-1.9,0-3.45-1.55-3.45-3.45C137.951,2.15,139.5,0.55,141.401,0.55z"/>
<path d="M162.35,35.902V10.251h4.751v3.6h0.399c1.25-1.55,4.051-4.15,8.201-4.15c8.25,0,8.3,6.5,8.3,7.451v18.75h-4.75V18.651
	c0-0.6-0.05-4.9-4.45-4.9c-3.5,0-7.7,4.3-7.7,11.551v10.601H162.35L162.35,35.902z"/>
<path d="M233.45,20.051h-1.25l-2.302,2.3v13.551h-4.85V1.4h4.85v14.651L244.352,1.4h6.449l-14.199,14.201v1.1l14.801,19.201h-5.852
	L233.45,20.051z"/>
<path d="M257.648,18.001c0.101-1.55,0.551-2.9,1.4-4.15c1.35-2.05,4.1-4.15,9.5-4.15c2.15,0,3.751,0.45,5.001,1
	c3.45,1.6,4.101,4.65,4.101,7.201v13.25c0,0.85,0.601,1.35,1.149,1.35c0.55,0,0.8-0.25,1-0.5c0.15-0.15,0.25-0.3,0.3-0.5l3.352,1.65
	c-0.301,0.6-0.65,1.149-1.102,1.6c-0.75,0.8-1.85,1.55-3.3,1.55c-2.601,0-4.649-1.899-4.8-3.25h-0.4
	c-2.601,2.55-5.5,3.25-7.649,3.25c-1.601,0-9.802-0.149-9.802-7.899c0-4.801,4.602-7,8.352-7.8l8.15-1.7v-1
	c0-1.4-0.101-4.15-4.5-4.15c-2.95,0-4.4,1.1-5.15,2.15c-0.45,0.6-0.7,1.3-0.8,2.1L257.648,18.001L257.648,18.001z M262.2,0
	c2,0,3.6,1.6,3.6,3.601c0,1.9-1.6,3.45-3.6,3.45c-1.9,0-3.45-1.55-3.45-3.45C258.75,1.6,260.3,0,262.2,0z M272.9,22.852l-6,1.25
	c-2.7,0.551-5.551,1.801-5.551,4.351c0,3.7,3.5,3.8,4.851,3.8h0.2c2.949,0,6.5-2.25,6.5-5.05V22.852L272.9,22.852z M274.102,0
	c2,0,3.601,1.6,3.601,3.601c0,1.9-1.601,3.45-3.601,3.45c-1.9,0-3.451-1.55-3.451-3.45C270.65,1.6,272.2,0,274.102,0z"/>
<path d="M290.35,35.902V1.1h4.75v12.751h0.4c1.25-1.55,4.05-4.15,8.2-4.15c8.251,0,8.301,6.5,8.301,7.451v18.75h-4.75V18.651
	c0-0.6-0.051-4.9-4.45-4.9c-3.501,0-7.701,4.3-7.701,11.551v10.601H290.35L290.35,35.902z"/>
<path d="M321.85,32.052h9.102V4.951h-7.801V1.1h12.55v30.952h8.801v3.851H321.85V32.052z"/>
<path d="M358,24.302c0.45,4.8,3.7,7.95,7.45,7.95c3.05,0,5.649-2.05,7.051-5.45l4.3,1.9c-1.9,4.7-6.3,7.6-11.351,7.6
	c-6.95,0-12.451-5.35-12.451-13.2c0-8,5.399-13.401,12.201-13.401c6.801,0,12.2,5.4,12.2,13.401v1.199L358,24.302L358,24.302z
	 M358.2,20.551h14c-0.851-4.1-3.7-6.8-7-6.8C361.85,13.751,359,16.451,358.2,20.551z"/>
<path d="M386.35,35.902V10.251h4.75v3.6h0.4c1.25-1.55,4.05-4.15,8.2-4.15c8.251,0,8.301,6.5,8.301,7.451v1.25h-4.75
	c-0.051-1.05-0.45-4.65-4.45-4.65c-3.501,0-7.701,4.3-7.701,11.551v10.602h-4.75V35.902z"/>
</svg>
