<?xml version="1.0" encoding="utf-8"?>
<!-- Generator: Adobe Illustrator 15.0.0, SVG Export Plug-In  -->
<!DOCTYPE svg PUBLIC "-//W3C//DTD SVG 1.1//EN" "http://www.w3.org/Graphics/SVG/1.1/DTD/svg11.dtd" [
	<!ENTITY ns_flows "http://ns.adobe.com/Flows/1.0/">
]>
<svg version="1.1"
	 xmlns="http://www.w3.org/2000/svg" xmlns:xlink="http://www.w3.org/1999/xlink" xmlns:a="http://ns.adobe.com/AdobeSVGViewerExtensions/3.0/"
	 x="0px" y="0px" width="829px" height="54px" viewBox="-3.651 -5.415 829 54"
	 overflow="visible" enable-background="new -3.651 -5.415 829 54" xml:space="preserve">
<defs>
</defs>
<path d="M26.701,0.35v34.502h-5.5L3.25,2.5h-0.2v32.352H0V0.35h5.5l17.901,32.352h0.25V0.35H26.701z"/>
<path d="M34.3,16.651c0,0,0.15-7.65,10.351-7.65c8.151,0,8.651,4.95,8.651,7.55v13.201c0,0.85,0.25,2.9,2.7,2.95
	c1.75,0,2.45-1.35,2.5-1.45l2.5,1.25c-0.05,0.1-1.6,2.75-5.05,2.75c-3.4,0-4.65-2-5-3.75h-0.45c-2.95,3.25-6.9,3.75-8.15,3.75
	c-1.65,0-9.251-0.15-9.301-7.9c0-4.75,4.9-6.9,8.801-7.7l8.55-1.8v-1.3c0-1.55-0.35-4.75-5.851-4.75c-7.2,0-7.3,4.85-7.3,4.85H34.3z
	 M50.401,20.551l-7.5,1.6c-3.7,0.8-6.9,2-6.9,5.15c0.05,4.8,5.2,5.15,6.3,5.15c3.7,0,8.101-2.8,8.101-6.301V20.551z"/>
<path d="M75.201,27.401c0,2.55,1.65,5.051,5.55,5.051c2.2,0,4.75-0.95,6.05-3.3l2.6,1.3c-1.9,3.4-5.55,4.8-8.65,4.8
	c-5.951,0-8.5-3.95-8.5-8V12.201H65.1V9.5h7.151V0.35h2.95V9.5h12.4v2.7h-12.4V27.401z"/>
<path d="M100.55,9.5h11v22.651h9.4v2.7H99.2v-2.7h9.4V12.201h-8.05V9.5z M110.101,0c1.6,0,2.9,1.3,2.9,2.9s-1.3,2.851-2.9,2.851
	s-2.85-1.25-2.85-2.851S108.5,0,110.101,0z"/>
<path d="M141.4,9c6.451,0,11.851,5.35,11.851,13.151c0,7.8-5.4,13.101-11.851,13.101c-6.55,0-11.951-5.3-11.951-13.101
	C129.45,14.351,134.85,9,141.4,9z M141.351,32.452c4.85,0,8.851-4.15,8.851-10.301s-4-10.351-8.851-10.351s-8.851,4.2-8.851,10.351
	S136.5,32.452,141.351,32.452z"/>
<path d="M162.95,34.852V9.5h2.95v5.55h0.4c1.95-3.5,5.25-6.05,9.301-6.05c8.05,0,8.101,6.4,8.101,7.351v18.501h-2.95V16.901
	c0-0.6-0.051-5.1-5.451-5.1c-4.3,0-9.4,4.45-9.4,12v11.051H162.95z"/>
<path d="M194.299,16.651c0,0,0.15-7.65,10.351-7.65c8.15,0,8.65,4.95,8.65,7.55v13.201c0,0.85,0.25,2.9,2.7,2.95
	c1.75,0,2.45-1.35,2.5-1.45l2.501,1.25c-0.051,0.1-1.601,2.75-5.051,2.75c-3.4,0-4.65-2-5-3.75h-0.45c-2.95,3.25-6.9,3.75-8.15,3.75
	c-1.65,0-9.251-0.15-9.301-7.9c0-4.75,4.9-6.9,8.801-7.7l8.551-1.8v-1.3c0-1.55-0.351-4.75-5.851-4.75
	c-7.201,0-7.301,4.85-7.301,4.85H194.299z M210.401,20.551l-7.501,1.6c-3.7,0.8-6.9,2-6.9,5.15c0.05,4.8,5.2,5.15,6.301,5.15
	c3.7,0,8.101-2.8,8.101-6.301V20.551z"/>
<path d="M228.549,0.35h11.001v31.802h9.401v2.7H227.2v-2.7h9.4V3.05h-8.051V0.35z"/>
<path d="M257.75,22.151c0-7.801,5.4-13.151,11.949-13.151c6.602,0,11.352,5.35,11.352,13.151v0.8H260.9
	c0.148,5.65,4.299,9.501,9.199,9.501c3.65,0,6.301-2.2,7.752-5.701l2.648,1.2c-1.949,4.5-6.049,7.3-10.801,7.3
	C263.15,35.252,257.75,29.952,257.75,22.151z M260.9,20.351h17c-0.6-5.15-3.9-8.55-8.25-8.55
	C265.15,11.801,261.5,15.201,260.9,20.351z"/>
<path d="M325.25,20.551v14.301h-3.051V0.35h15.65c5.102,0,9.201,4.4,9.201,10c0,5.6-4.1,10.201-9.201,10.201H325.25z M325.25,17.701
	h12.201c3.5,0,6.449-3.25,6.449-7.25c0-4-2.949-7.25-6.449-7.25H325.25V17.701z"/>
<path d="M365.4,9c6.449,0,11.85,5.35,11.85,13.151c0,7.8-5.4,13.101-11.85,13.101c-6.551,0-11.951-5.3-11.951-13.101
	C353.449,14.351,358.85,9,365.4,9z M365.35,32.452c4.852,0,8.852-4.15,8.852-10.301s-4-10.351-8.852-10.351
	c-4.85,0-8.85,4.2-8.85,10.351S360.5,32.452,365.35,32.452z"/>
<path d="M388.75,26.702c0,0.1,0.549,2,2.15,3.35c1.398,1.15,3.549,2.25,7.049,2.25c3.451,0,5.4-0.95,6.551-2
	c1.15-1.1,1.451-2.3,1.451-2.95c0-3.75-5.102-3.65-8.65-4.05c-3.5-0.4-7.451-0.95-9.201-3.2c-1-1.3-1.4-2.45-1.4-3.45
	c0-0.65,0.15-2.55,1.6-4.35c1.301-1.7,3.852-3.3,8.602-3.3c5.1,0,7.699,2,9.15,4.05c1.301,1.95,1.35,3.9,1.35,4h-3
	c0-0.05-0.051-1.45-0.949-2.7c-0.951-1.3-2.75-2.55-6.4-2.55c-3.602,0-5.352,0.95-6.301,2.05c-0.9,1.05-1,2.1-1,2.55
	c0.049,2.95,3.65,3.6,8.25,4.1c6,0.65,7.75,0.95,9.451,2.65c1.049,1.05,1.549,2.55,1.549,4.25c0,1-0.449,2.9-2,4.601
	c-1.549,1.7-4.25,3.25-8.85,3.25c-4.75,0-7.701-1.6-9.551-3.4c-2.25-2.2-2.951-5-2.951-5.15H388.75z"/>
<path d="M427.199,27.401c0,2.55,1.65,5.051,5.551,5.051c2.201,0,4.75-0.95,6.051-3.3l2.6,1.3c-1.9,3.4-5.551,4.8-8.65,4.8
	c-5.949,0-8.5-3.95-8.5-8V12.201h-7.15V9.5h7.15V0.35h2.949V9.5h12.402v2.7h-12.402V27.401z"/>
<path d="M461.199,32.452c3.502,0,6.551-2.2,7.9-5.951h3.201c-1.551,5.351-6,8.75-11.102,8.75c-6.449,0-11.75-5.3-11.75-13.101
	c0-7.801,5.301-13.151,11.75-13.151c5.502,0,10.201,4,11.402,10.051h-3.15c-1.102-4.451-4.4-7.25-8.252-7.25
	c-4.799,0-8.699,4.2-8.699,10.351S456.4,32.452,461.199,32.452z"/>
<path d="M493.4,9c6.449,0,11.85,5.35,11.85,13.151c0,7.8-5.4,13.101-11.85,13.101c-6.551,0-11.951-5.3-11.951-13.101
	C481.449,14.351,486.85,9,493.4,9z M493.35,32.452c4.852,0,8.852-4.15,8.852-10.301s-4-10.351-8.852-10.351
	c-4.85,0-8.85,4.2-8.85,10.351S488.5,32.452,493.35,32.452z"/>
<path d="M536.4,34.852h-2.949v-4.45h-0.301c-2.25,3.2-5.199,4.85-8.551,4.85c-6.35,0-11.4-5.9-11.4-13.101
	c0-7.25,5.051-13.151,11.4-13.151c3.352,0,6.301,1.95,8.551,5.15h0.301V0.35h2.949V34.852z M533.451,22.101
	c0-6.1-3.15-10.3-8.65-10.3c-4.801,0-8.551,4.55-8.551,10.351c0,5.75,3.75,10.301,8.551,10.301c5.35,0,8.5-4.05,8.65-9.901V22.101z"
	/>
<path d="M545.75,22.151c0-7.801,5.4-13.151,11.949-13.151c6.602,0,11.352,5.35,11.352,13.151v0.8H548.9
	c0.148,5.65,4.299,9.501,9.199,9.501c3.65,0,6.301-2.2,7.752-5.701l2.648,1.2c-1.949,4.5-6.049,7.3-10.801,7.3
	C551.15,35.252,545.75,29.952,545.75,22.151z M548.9,20.351h17c-0.6-5.15-3.9-8.55-8.25-8.55
	C553.15,11.801,549.5,15.201,548.9,20.351z"/>
<path d="M614.65,32.002h20.5v2.85H611.6V0.35h3.051V32.002z"/>
<path d="M653.4,9c6.449,0,11.85,5.35,11.85,13.151c0,7.8-5.4,13.101-11.85,13.101c-6.551,0-11.951-5.3-11.951-13.101
	C641.449,14.351,646.85,9,653.4,9z M653.35,32.452c4.852,0,8.852-4.15,8.852-10.301s-4-10.351-8.852-10.351
	c-4.85,0-8.85,4.2-8.85,10.351S648.5,32.452,653.35,32.452z"/>
<path d="M683.199,27.401c0,2.55,1.65,5.051,5.551,5.051c2.201,0,4.75-0.95,6.051-3.3l2.6,1.3c-1.9,3.4-5.551,4.8-8.65,4.8
	c-5.949,0-8.5-3.95-8.5-8V12.201h-7.15V9.5h7.15V0.35h2.949V9.5h12.402v2.7h-12.402V27.401z"/>
<path d="M705.75,22.151c0-7.801,5.4-13.151,11.949-13.151c6.602,0,11.352,5.35,11.352,13.151v0.8H708.9
	c0.148,5.65,4.299,9.501,9.199,9.501c3.65,0,6.301-2.2,7.752-5.701l2.648,1.2c-1.949,4.5-6.049,7.3-10.801,7.3
	C711.15,35.252,705.75,29.952,705.75,22.151z M708.9,20.351h17c-0.6-5.15-3.9-8.55-8.25-8.55
	C713.15,11.801,709.5,15.201,708.9,20.351z"/>
<path d="M738.949,34.852V9.5h2.951v5.55h0.398c1.951-3.5,5.252-6.05,9.301-6.05c8.051,0,8.051,6.4,8.051,7.351v0.75h-2.9v-0.2
	c0-0.6-0.049-5.1-5.449-5.1c-4.301,0-9.4,4.45-9.4,12v11.051H738.949z"/>
<path d="M772.549,9.5h11.002v22.651h9.4v2.7h-21.752v-2.7h9.4V12.201h-8.051V9.5z M782.1,0c1.602,0,2.9,1.3,2.9,2.9
	s-1.299,2.851-2.9,2.851c-1.6,0-2.85-1.25-2.85-2.851S780.5,0,782.1,0z"/>
<path d="M804.4,39.302c1.299,2.35,3.85,3.3,6.049,3.3c3.9,0,5.551-2.5,5.551-5.05V12.201h-8.9V9.5h11.852v27.902
	c0,4.05-2.551,8-8.502,8c-3.1,0-6.75-1.4-8.65-4.8L804.4,39.302z M817.5,0c1.6,0,2.9,1.3,2.9,2.9S819.1,5.75,817.5,5.75
	s-2.85-1.25-2.85-2.851S815.9,0,817.5,0z"/>
</svg>
