<?xml version="1.0" encoding="utf-8"?>
<!-- Generator: Adobe Illustrator 15.0.0, SVG Export Plug-In  -->
<!DOCTYPE svg PUBLIC "-//W3C//DTD SVG 1.1//EN" "http://www.w3.org/Graphics/SVG/1.1/DTD/svg11.dtd" [
	<!ENTITY ns_flows "http://ns.adobe.com/Flows/1.0/">
]>
<svg version="1.1"
	 xmlns="http://www.w3.org/2000/svg" xmlns:xlink="http://www.w3.org/1999/xlink" xmlns:a="http://ns.adobe.com/AdobeSVGViewerExtensions/3.0/"
	 x="0px" y="0px" width="483px" height="47px" viewBox="-2.451 -5.364 483 47"
	 overflow="visible" enable-background="new -2.451 -5.364 483 47" xml:space="preserve">
<defs>
</defs>
<path d="M4.3,4.8C6.95,1.75,10.65,0,14.651,0c3.9,0,7.55,1.75,10.15,4.8c2.7,3.101,4.25,7.5,4.25,12.851c0,5.4-1.55,9.8-4.2,12.901
	c-2.65,3.05-6.3,4.75-10.201,4.75c-4,0-7.701-1.7-10.401-4.8C1.6,27.452,0,23.052,0,17.651C0,12.301,1.6,7.901,4.3,4.8z
	 M6.55,28.402c2.05,2.55,4.9,3.95,8,3.95s5.95-1.4,8-3.95s3.35-6.2,3.35-10.75c0-4.5-1.3-8.15-3.35-10.701s-4.9-4-8-4
	s-5.95,1.45-8,4c-2.1,2.55-3.4,6.2-3.4,10.701C3.15,22.202,4.45,25.852,6.55,28.402z"/>
<path d="M60.001,0.4l-11,34.502h-4.95L33.05,0.4h3.3l10.101,32.252h0.15L56.701,0.4H60.001z"/>
<path d="M88.801,28.852c-1.15,2-2.65,3.55-4.4,4.65c-1.8,1.2-3.851,1.8-6.25,1.8c-4.05,0-7.701-1.7-10.351-4.75
	c-2.65-3.101-4.25-7.5-4.25-12.901c0-5.351,1.6-9.75,4.3-12.851c2.6-3.05,6.25-4.8,10.301-4.8c3.05,0,5.9,1.05,8.3,2.95
	c2.35,1.85,4.601,4.951,5.3,8.25h-3.1c-0.9-2.55-2.4-4.75-4.25-6.2s-4-2.05-6.25-2.05c-3.15,0-6,1.45-8.051,3.951
	c-2.1,2.6-3.4,6.2-3.4,10.7c0,4.601,1.3,8.25,3.4,10.851c2.05,2.5,4.9,3.9,8.051,3.9c2.65,0,5.35-1.15,7.35-3.3
	c1.95-2.05,3.3-5.1,3.5-8.95h-10.5v-2.85h13.351v17.651h-3.05V28.852z"/>
<path d="M132.15,34.902V9.551h2.95v5.55h0.4c1.95-3.5,5.25-6.05,9.3-6.05c8.051,0,8.051,6.4,8.051,7.351v0.75h-2.9v-0.2
	c0-0.6-0.05-5.1-5.45-5.1c-4.3,0-9.401,4.45-9.401,12v11.051H132.15z"/>
<path d="M162.95,22.202c0-7.801,5.4-13.151,11.951-13.151c6.601,0,11.351,5.35,11.351,13.151v0.8H166.1
	c0.15,5.65,4.301,9.501,9.201,9.501c3.649,0,6.3-2.2,7.75-5.701l2.65,1.2c-1.95,4.5-6.051,7.3-10.801,7.3
	C168.35,35.302,162.95,30.002,162.95,22.202z M166.1,20.401h17.001c-0.6-5.15-3.9-8.55-8.25-8.55
	C170.35,11.851,166.701,15.251,166.1,20.401z"/>
<path d="M195.5,16.701c0,0,0.15-7.65,10.351-7.65c8.15,0,8.65,4.95,8.65,7.55v13.201c0,0.85,0.25,2.9,2.7,2.95
	c1.75,0,2.45-1.35,2.5-1.45l2.501,1.25c-0.051,0.1-1.601,2.75-5.051,2.75c-3.4,0-4.65-2-5-3.75h-0.45c-2.95,3.25-6.9,3.75-8.15,3.75
	c-1.65,0-9.251-0.15-9.301-7.9c0-4.75,4.9-6.9,8.801-7.7l8.551-1.8v-1.3c0-1.55-0.351-4.75-5.851-4.75
	c-7.201,0-7.301,4.85-7.301,4.85H195.5z M211.601,20.602l-7.501,1.6c-3.7,0.8-6.9,2-6.9,5.15c0.05,4.8,5.2,5.15,6.301,5.15
	c3.7,0,8.101-2.8,8.101-6.301V20.602z"/>
<path d="M229.75,0.4h11.001v31.802h9.401v2.7H228.4v-2.7h9.4V3.101h-8.051V0.4z"/>
<path d="M290.95,22.202c0-7.801,5.4-13.151,11.949-13.151c6.602,0,11.352,5.35,11.352,13.151v0.8h-20.15
	c0.148,5.65,4.299,9.501,9.199,9.501c3.65,0,6.301-2.2,7.752-5.701l2.648,1.2c-1.949,4.5-6.049,7.3-10.801,7.3
	C296.351,35.302,290.95,30.002,290.95,22.202z M294.101,20.401h17c-0.6-5.15-3.9-8.55-8.25-8.55
	C298.351,11.851,294.7,15.251,294.101,20.401z"/>
<path d="M325.95,26.752c0,0.1,0.549,2,2.15,3.35c1.398,1.15,3.549,2.25,7.049,2.25c3.451,0,5.4-0.95,6.551-2
	c1.15-1.1,1.451-2.3,1.451-2.95c0-3.75-5.102-3.65-8.65-4.05c-3.5-0.4-7.451-0.95-9.201-3.2c-1-1.3-1.4-2.45-1.4-3.45
	c0-0.65,0.15-2.55,1.6-4.35c1.301-1.7,3.852-3.3,8.602-3.3c5.1,0,7.699,2,9.15,4.05c1.301,1.95,1.35,3.9,1.35,4h-3
	c0-0.05-0.051-1.45-0.949-2.7c-0.951-1.3-2.75-2.55-6.4-2.55c-3.602,0-5.352,0.95-6.301,2.05c-0.9,1.05-1,2.1-1,2.55
	c0.049,2.95,3.65,3.6,8.25,4.1c6,0.65,7.75,0.95,9.451,2.65c1.049,1.05,1.549,2.55,1.549,4.25c0,1-0.449,2.9-2,4.601
	c-1.549,1.7-4.25,3.25-8.85,3.25c-4.75,0-7.701-1.6-9.551-3.4c-2.25-2.2-2.951-5-2.951-5.15H325.95z"/>
<path d="M364.399,27.452c0,2.55,1.65,5.051,5.551,5.051c2.201,0,4.75-0.95,6.051-3.3l2.6,1.3c-1.9,3.4-5.551,4.8-8.65,4.8
	c-5.949,0-8.5-3.95-8.5-8V12.251h-7.15v-2.7h7.15V0.4h2.949v9.15h12.402v2.7h-12.402V27.452z"/>
<path d="M387.499,16.701c0,0,0.15-7.65,10.352-7.65c8.15,0,8.65,4.95,8.65,7.55v13.201c0,0.85,0.25,2.9,2.699,2.95
	c1.75,0,2.451-1.35,2.5-1.45l2.502,1.25c-0.051,0.1-1.602,2.75-5.051,2.75c-3.4,0-4.65-2-5-3.75H403.7
	c-2.949,3.25-6.9,3.75-8.15,3.75c-1.65,0-9.25-0.15-9.301-7.9c0-4.75,4.9-6.9,8.801-7.7l8.551-1.8v-1.3c0-1.55-0.35-4.75-5.85-4.75
	c-7.201,0-7.301,4.85-7.301,4.85H387.499z M403.601,20.602l-7.5,1.6c-3.701,0.8-6.9,2-6.9,5.15c0.049,4.8,5.199,5.15,6.301,5.15
	c3.699,0,8.1-2.8,8.1-6.301V20.602z"/>
<path d="M428.399,27.452c0,2.55,1.65,5.051,5.551,5.051c2.201,0,4.75-0.95,6.051-3.3l2.6,1.3c-1.9,3.4-5.551,4.8-8.65,4.8
	c-5.949,0-8.5-3.95-8.5-8V12.251h-7.15v-2.7h7.15V0.4h2.949v9.15h12.402v2.7h-12.402V27.452z"/>
<path d="M450.95,22.202c0-7.801,5.4-13.151,11.949-13.151c6.602,0,11.352,5.35,11.352,13.151v0.8h-20.15
	c0.148,5.65,4.299,9.501,9.199,9.501c3.65,0,6.301-2.2,7.752-5.701l2.648,1.2c-1.949,4.5-6.049,7.3-10.801,7.3
	C456.351,35.302,450.95,30.002,450.95,22.202z M454.101,20.401h17c-0.6-5.15-3.9-8.55-8.25-8.55
	C458.351,11.851,454.7,15.251,454.101,20.401z"/>
</svg>
