<?xml version="1.0" encoding="utf-8"?>
<!-- Generator: Adobe Illustrator 15.0.0, SVG Export Plug-In  -->
<!DOCTYPE svg PUBLIC "-//W3C//DTD SVG 1.1//EN" "http://www.w3.org/Graphics/SVG/1.1/DTD/svg11.dtd" [
	<!ENTITY ns_flows "http://ns.adobe.com/Flows/1.0/">
]>
<svg version="1.1"
	 xmlns="http://www.w3.org/2000/svg" xmlns:xlink="http://www.w3.org/1999/xlink" xmlns:a="http://ns.adobe.com/AdobeSVGViewerExtensions/3.0/"
	 x="0px" y="0px" width="230px" height="46px" viewBox="-5.851 -5.765 230 46"
	 overflow="visible" enable-background="new -5.851 -5.765 230 46" xml:space="preserve">
<defs>
</defs>
<path d="M3.05,20.201v14.301H0V0h15.651c5.1,0,9.2,4.4,9.2,10c0,5.6-4.1,10.201-9.2,10.201H3.05z M3.05,17.351h12.201
	c3.5,0,6.451-3.25,6.451-7.25c0-4-2.95-7.25-6.451-7.25H3.05V17.351z"/>
<path d="M32.75,34.502V9.15h2.95v5.55h0.4c1.95-3.5,5.25-6.05,9.3-6.05c8.051,0,8.051,6.4,8.051,7.351v0.75h-2.9v-0.2
	c0-0.6-0.05-5.1-5.45-5.1c-4.3,0-9.401,4.45-9.401,12v11.051H32.75z"/>
<path d="M75.201,8.65c6.451,0,11.851,5.35,11.851,13.151c0,7.8-5.4,13.101-11.851,13.101c-6.55,0-11.951-5.3-11.951-13.101
	C63.25,14,68.65,8.65,75.201,8.65z M75.151,32.102c4.85,0,8.851-4.15,8.851-10.301s-4-10.351-8.851-10.351s-8.851,4.2-8.851,10.351
	S70.301,32.102,75.151,32.102z"/>
<path d="M118.602,9.15l-9.101,25.352h-4.7L95.7,9.15h3.35l8.051,23.051h0.1l8.051-23.051H118.602z"/>
<path d="M128.1,16.301c0,0,0.15-7.65,10.351-7.65c8.151,0,8.651,4.95,8.651,7.55v13.201c0,0.85,0.25,2.9,2.7,2.95
	c1.75,0,2.45-1.35,2.5-1.45l2.5,1.25c-0.05,0.1-1.6,2.75-5.05,2.75c-3.4,0-4.65-2-5-3.75h-0.45c-2.95,3.25-6.9,3.75-8.15,3.75
	c-1.65,0-9.251-0.15-9.301-7.9c0-4.75,4.9-6.9,8.801-7.7l8.55-1.8v-1.3c0-1.55-0.35-4.75-5.851-4.75c-7.2,0-7.3,4.85-7.3,4.85H128.1
	z M144.201,20.201l-7.5,1.6c-3.7,0.8-6.9,2-6.9,5.15c0.05,4.8,5.2,5.15,6.3,5.15c3.7,0,8.101-2.8,8.101-6.301V20.201z"/>
<path d="M162.551,26.352c0,0.1,0.55,2,2.149,3.35c1.4,1.15,3.551,2.25,7.051,2.25c3.45,0,5.4-0.95,6.551-2
	c1.149-1.1,1.449-2.3,1.449-2.95c0-3.75-5.1-3.65-8.65-4.05c-3.5-0.4-7.45-0.95-9.2-3.2c-1-1.3-1.4-2.45-1.4-3.45
	c0-0.65,0.15-2.55,1.601-4.35c1.3-1.7,3.85-3.3,8.601-3.3c5.1,0,7.7,2,9.15,4.05c1.3,1.95,1.35,3.9,1.35,4h-3
	c0-0.05-0.05-1.45-0.95-2.7c-0.95-1.3-2.75-2.55-6.4-2.55c-3.6,0-5.35,0.95-6.3,2.05c-0.9,1.05-1,2.1-1,2.55
	c0.05,2.95,3.649,3.6,8.25,4.1c6.001,0.65,7.751,0.95,9.451,2.65c1.05,1.05,1.55,2.55,1.55,4.25c0,1-0.45,2.9-2,4.601
	c-1.551,1.7-4.251,3.25-8.851,3.25c-4.751,0-7.701-1.6-9.551-3.4c-2.25-2.2-2.95-5-2.95-5.15H162.551z"/>
<path d="M201,27.051c0,2.55,1.65,5.051,5.551,5.051c2.2,0,4.75-0.95,6.05-3.3l2.601,1.3c-1.9,3.4-5.551,4.8-8.65,4.8
	c-5.95,0-8.501-3.95-8.501-8V11.851h-7.15v-2.7h7.15V0H201v9.15h12.401v2.7H201V27.051z"/>
</svg>
