<?xml version="1.0" encoding="utf-8"?>
<!-- Generator: Adobe Illustrator 15.0.0, SVG Export Plug-In  -->
<!DOCTYPE svg PUBLIC "-//W3C//DTD SVG 1.1//EN" "http://www.w3.org/Graphics/SVG/1.1/DTD/svg11.dtd" [
	<!ENTITY ns_flows "http://ns.adobe.com/Flows/1.0/">
]>
<svg version="1.1"
	 xmlns="http://www.w3.org/2000/svg" xmlns:xlink="http://www.w3.org/1999/xlink" xmlns:a="http://ns.adobe.com/AdobeSVGViewerExtensions/3.0/"
	 x="0px" y="0px" width="710px" height="45px" viewBox="-4.851 -5.765 710 45"
	 overflow="visible" enable-background="new -4.851 -5.765 710 45" xml:space="preserve">
<defs>
</defs>
<path d="M23.202,34.502h-2.95v-4.45h-0.3c-2.25,3.2-5.2,4.85-8.55,4.85C5.05,34.902,0,29.001,0,21.801
	C0,14.551,5.05,8.65,11.401,8.65c3.35,0,6.3,1.95,8.55,5.15h0.3V0h2.95V34.502z M20.251,21.751c0-6.1-3.15-10.3-8.65-10.3
	c-4.8,0-8.551,4.55-8.551,10.351c0,5.75,3.75,10.301,8.551,10.301c5.35,0,8.5-4.05,8.65-9.901V21.751z"/>
<path d="M32.55,21.801c0-7.801,5.4-13.151,11.951-13.151c6.6,0,11.351,5.35,11.351,13.151v0.8H35.7c0.15,5.65,4.3,9.501,9.201,9.501
	c3.65,0,6.3-2.2,7.75-5.701l2.65,1.2c-1.95,4.5-6.051,7.3-10.801,7.3C37.951,34.902,32.55,29.602,32.55,21.801z M35.7,20.001h17.001
	c-0.6-5.15-3.9-8.55-8.25-8.55C39.951,11.451,36.3,14.851,35.7,20.001z"/>
<path d="M97.75,34.502V9.15h2.95v5.55h0.4c1.95-3.5,5.25-6.05,9.3-6.05c8.051,0,8.051,6.4,8.051,7.351v0.75h-2.9v-0.2
	c0-0.6-0.05-5.1-5.45-5.1c-4.3,0-9.401,4.45-9.401,12v11.051H97.75z"/>
<path d="M128.55,21.801c0-7.801,5.4-13.151,11.951-13.151c6.6,0,11.351,5.35,11.351,13.151v0.8H131.7
	c0.15,5.65,4.3,9.501,9.201,9.501c3.65,0,6.3-2.2,7.75-5.701l2.65,1.2c-1.95,4.5-6.051,7.3-10.801,7.3
	C133.951,34.902,128.55,29.602,128.55,21.801z M131.7,20.001h17.001c-0.6-5.15-3.9-8.55-8.25-8.55
	C135.951,11.451,132.3,14.851,131.7,20.001z"/>
<path d="M172.001,32.102c3.5,0,6.551-2.2,7.9-5.951h3.2c-1.55,5.351-6,8.75-11.101,8.75c-6.45,0-11.751-5.3-11.751-13.101
	c0-7.801,5.301-13.151,11.751-13.151c5.5,0,10.2,4,11.4,10.051h-3.15c-1.1-4.451-4.399-7.25-8.25-7.25c-4.801,0-8.7,4.2-8.7,10.351
	S167.2,32.102,172.001,32.102z"/>
<path d="M193.75,34.502V0h2.95v14.701h0.399c1.95-3.5,5.251-6.05,9.301-6.05c8.051,0,8.101,6.4,8.101,7.351v18.501h-2.95V16.551
	c0-0.6-0.05-5.1-5.45-5.1c-4.301,0-9.4,4.45-9.4,12v11.051H193.75z"/>
<path d="M234,27.051c0,2.55,1.65,5.051,5.551,5.051c2.2,0,4.75-0.95,6.05-3.3l2.6,1.3c-1.9,3.4-5.55,4.8-8.65,4.8
	c-5.95,0-8.501-3.95-8.501-8V11.851h-7.15v-2.7h7.15V0H234v9.15h12.402v2.7H234V27.051z"/>
<path d="M257.099,0h2.951v13.801h0.299c2.25-3.2,5.201-5.15,8.551-5.15c6.352,0,11.4,5.9,11.4,13.151
	c0,7.2-5.049,13.101-11.4,13.101c-3.35,0-6.301-1.65-8.551-4.85h-0.299v4.45h-2.951V0z M260.05,22.201
	c0.15,5.851,3.301,9.901,8.65,9.901c4.801,0,8.551-4.55,8.551-10.301c0-5.8-3.75-10.351-8.551-10.351c-5.5,0-8.65,4.2-8.65,10.3
	V22.201z"/>
<path d="M289.099,16.301c0,0,0.15-7.65,10.352-7.65c8.15,0,8.65,4.95,8.65,7.55v13.201c0,0.85,0.25,2.9,2.699,2.95
	c1.75,0,2.451-1.35,2.5-1.45l2.502,1.25c-0.051,0.1-1.602,2.75-5.051,2.75c-3.4,0-4.65-2-5-3.75H305.3
	c-2.949,3.25-6.9,3.75-8.15,3.75c-1.65,0-9.25-0.15-9.301-7.9c0-4.75,4.9-6.9,8.801-7.7l8.551-1.8v-1.3c0-1.55-0.35-4.75-5.85-4.75
	c-7.201,0-7.301,4.85-7.301,4.85H289.099z M305.201,20.201l-7.5,1.6c-3.701,0.8-6.9,2-6.9,5.15c0.049,4.8,5.199,5.15,6.301,5.15
	c3.699,0,8.1-2.8,8.1-6.301V20.201z"/>
<path d="M321.75,34.502V9.15h2.951v5.55h0.398c1.951-3.5,5.252-6.05,9.301-6.05c8.051,0,8.102,6.4,8.102,7.351v18.501h-2.951V16.551
	c0-0.6-0.049-5.1-5.449-5.1c-4.301,0-9.4,4.45-9.4,12v11.051H321.75z"/>
<path d="M354.3,34.502V0h2.949v19.001h0.451l11.9-9.851h4.301l-10.252,8.65v0.5l12.602,16.201h-3.85l-10.951-14.051h-0.701
	l-3.5,2.95v11.101H354.3z"/>
<path d="M425.701,0h4.85l11,34.502h-3.25l-3.25-10.25H421.3l-3.25,10.25h-3.25L425.701,0z M434.101,21.351L428.15,2.25h-0.049
	l-5.9,19.101H434.101z"/>
<path d="M449.4,34.502h-2.951V9.15h2.951v3.65h0.65c1.6-2.7,3-4.15,5.35-4.15c3.5,0,5.051,2.15,5.75,4.15h0.75
	c1.602-2.65,3.352-4.15,5.701-4.15c6.25,0,6.301,5.75,6.301,6.75v19.101h-2.951V15.801c0-0.65-0.049-4.35-3.551-4.35
	c-2.799,0-5.75,4.15-5.75,8.45v14.601h-2.949V15.801c0-0.65-0.051-4.35-3.5-4.35c-2.801,0-5.801,4.15-5.801,8.45V34.502z"/>
<path d="M483.55,26.352c0,0.1,0.549,2,2.15,3.35c1.398,1.15,3.549,2.25,7.049,2.25c3.451,0,5.4-0.95,6.551-2
	c1.15-1.1,1.451-2.3,1.451-2.95c0-3.75-5.102-3.65-8.65-4.05c-3.5-0.4-7.451-0.95-9.201-3.2c-1-1.3-1.4-2.45-1.4-3.45
	c0-0.65,0.15-2.55,1.6-4.35c1.301-1.7,3.852-3.3,8.602-3.3c5.1,0,7.699,2,9.15,4.05c1.301,1.95,1.35,3.9,1.35,4h-3
	c0-0.05-0.051-1.45-0.949-2.7c-0.951-1.3-2.75-2.55-6.4-2.55c-3.602,0-5.352,0.95-6.301,2.05c-0.9,1.05-1,2.1-1,2.55
	c0.049,2.95,3.65,3.6,8.25,4.1c6,0.65,7.75,0.95,9.451,2.65c1.049,1.05,1.549,2.55,1.549,4.25c0,1-0.449,2.9-2,4.601
	c-1.549,1.7-4.25,3.25-8.85,3.25c-4.75,0-7.701-1.6-9.551-3.4c-2.25-2.2-2.951-5-2.951-5.15H483.55z"/>
<path d="M522,27.051c0,2.55,1.65,5.051,5.551,5.051c2.201,0,4.75-0.95,6.051-3.3l2.6,1.3c-1.9,3.4-5.551,4.8-8.65,4.8
	c-5.949,0-8.5-3.95-8.5-8V11.851h-7.15v-2.7h7.15V0H522v9.15h12.402v2.7H522V27.051z"/>
<path d="M544.55,21.801c0-7.801,5.4-13.151,11.949-13.151c6.602,0,11.352,5.35,11.352,13.151v0.8h-20.15
	c0.148,5.65,4.299,9.501,9.199,9.501c3.65,0,6.301-2.2,7.752-5.701l2.648,1.2c-1.949,4.5-6.049,7.3-10.801,7.3
	C549.951,34.902,544.55,29.602,544.55,21.801z M547.701,20.001h17c-0.6-5.15-3.9-8.55-8.25-8.55
	C551.951,11.451,548.3,14.851,547.701,20.001z"/>
<path d="M577.75,34.502V9.15h2.951v5.55h0.398c1.951-3.5,5.252-6.05,9.301-6.05c8.051,0,8.051,6.4,8.051,7.351v0.75h-2.9v-0.2
	c0-0.6-0.049-5.1-5.449-5.1c-4.301,0-9.4,4.45-9.4,12v11.051H577.75z"/>
<path d="M631.201,34.502h-2.949v-4.45h-0.301c-2.25,3.2-5.199,4.85-8.551,4.85c-6.35,0-11.4-5.9-11.4-13.101
	c0-7.25,5.051-13.151,11.4-13.151c3.352,0,6.301,1.95,8.551,5.15h0.301V0h2.949V34.502z M628.251,21.751c0-6.1-3.15-10.3-8.65-10.3
	c-4.801,0-8.551,4.55-8.551,10.351c0,5.75,3.75,10.301,8.551,10.301c5.35,0,8.5-4.05,8.65-9.901V21.751z"/>
<path d="M641.099,16.301c0,0,0.15-7.65,10.352-7.65c8.15,0,8.65,4.95,8.65,7.55v13.201c0,0.85,0.25,2.9,2.699,2.95
	c1.75,0,2.451-1.35,2.5-1.45l2.502,1.25c-0.051,0.1-1.602,2.75-5.051,2.75c-3.4,0-4.65-2-5-3.75H657.3
	c-2.949,3.25-6.9,3.75-8.15,3.75c-1.65,0-9.25-0.15-9.301-7.9c0-4.75,4.9-6.9,8.801-7.7l8.551-1.8v-1.3c0-1.55-0.35-4.75-5.85-4.75
	c-7.201,0-7.301,4.85-7.301,4.85H641.099z M657.201,20.201l-7.5,1.6c-3.701,0.8-6.9,2-6.9,5.15c0.049,4.8,5.199,5.15,6.301,5.15
	c3.699,0,8.1-2.8,8.1-6.301V20.201z"/>
<path d="M673.4,34.502h-2.951V9.15h2.951v3.65h0.65c1.6-2.7,3-4.15,5.35-4.15c3.5,0,5.051,2.15,5.75,4.15h0.75
	c1.602-2.65,3.352-4.15,5.701-4.15c6.25,0,6.301,5.75,6.301,6.75v19.101h-2.951V15.801c0-0.65-0.049-4.35-3.551-4.35
	c-2.799,0-5.75,4.15-5.75,8.45v14.601h-2.949V15.801c0-0.65-0.051-4.35-3.5-4.35c-2.801,0-5.801,4.15-5.801,8.45V34.502z"/>
</svg>
