<?xml version="1.0" encoding="utf-8"?>
<!-- Generator: Adobe Illustrator 15.0.0, SVG Export Plug-In  -->
<!DOCTYPE svg PUBLIC "-//W3C//DTD SVG 1.1//EN" "http://www.w3.org/Graphics/SVG/1.1/DTD/svg11.dtd" [
	<!ENTITY ns_flows "http://ns.adobe.com/Flows/1.0/">
]>
<svg version="1.1"
	 xmlns="http://www.w3.org/2000/svg" xmlns:xlink="http://www.w3.org/1999/xlink" xmlns:a="http://ns.adobe.com/AdobeSVGViewerExtensions/3.0/"
	 x="0px" y="0px" width="773px" height="54px" viewBox="-2.001 -5.364 773 54"
	 overflow="visible" enable-background="new -2.001 -5.364 773 54" xml:space="preserve">
<defs>
</defs>
<path d="M25.251,28.852c-1.15,2-2.65,3.55-4.4,4.65c-1.8,1.2-3.851,1.8-6.25,1.8c-4.05,0-7.701-1.7-10.351-4.75
	C1.6,27.452,0,23.052,0,17.651C0,12.301,1.6,7.901,4.3,4.8C6.9,1.75,10.551,0,14.601,0c3.05,0,5.9,1.05,8.3,2.95
	c2.35,1.85,4.601,4.951,5.3,8.25h-3.1c-0.9-2.55-2.4-4.75-4.25-6.2s-4-2.05-6.25-2.05c-3.15,0-6,1.45-8.051,3.951
	c-2.1,2.6-3.4,6.2-3.4,10.7c0,4.601,1.3,8.25,3.4,10.851c2.05,2.5,4.9,3.9,8.051,3.9c2.65,0,5.35-1.15,7.35-3.3
	c1.95-2.05,3.3-5.1,3.5-8.95h-10.5v-2.85h13.351v17.651h-3.05V28.852z"/>
<path d="M35.4,22.202c0-7.801,5.4-13.151,11.951-13.151c6.6,0,11.351,5.35,11.351,13.151v0.8H38.55c0.15,5.65,4.3,9.501,9.201,9.501
	c3.65,0,6.3-2.2,7.75-5.701l2.65,1.2c-1.95,4.5-6.051,7.3-10.801,7.3C40.801,35.302,35.4,30.002,35.4,22.202z M38.55,20.401h17.001
	c-0.6-5.15-3.9-8.55-8.25-8.55C42.801,11.851,39.15,15.251,38.55,20.401z"/>
<path d="M68.6,34.902V9.551h2.95v5.55h0.4c1.95-3.5,5.25-6.05,9.3-6.05c8.051,0,8.051,6.4,8.051,7.351v0.75h-2.9v-0.2
	c0-0.6-0.05-5.1-5.45-5.1c-4.3,0-9.401,4.45-9.401,12v11.051H68.6z"/>
<path d="M100.6,34.902V9.551h2.95v5.55h0.4c1.95-3.5,5.25-6.05,9.3-6.05c8.051,0,8.051,6.4,8.051,7.351v0.75h-2.9v-0.2
	c0-0.6-0.05-5.1-5.45-5.1c-4.3,0-9.401,4.45-9.401,12v11.051H100.6z"/>
<path d="M134.201,9.551h11v22.651h9.4v2.7h-21.751v-2.7h9.4V12.251h-8.05V9.551z M143.751,0.05c1.6,0,2.9,1.3,2.9,2.9
	s-1.3,2.851-2.9,2.851s-2.85-1.25-2.85-2.851S142.151,0.05,143.751,0.05z"/>
<path d="M172.851,27.452c0,2.55,1.649,5.051,5.55,5.051c2.2,0,4.751-0.95,6.051-3.3l2.6,1.3c-1.899,3.4-5.55,4.8-8.65,4.8
	c-5.95,0-8.5-3.95-8.5-8V12.251h-7.15v-2.7h7.15V0.4h2.95v9.15h12.4v2.7h-12.4V27.452z"/>
<path d="M230.4,34.902h-3.05V0.4h14.601c5,0,9.051,4.5,9.051,10.05c0,4.601-2.701,8.351-6.351,9.651l7.9,14.801h-3.4l-7.65-14.301
	H230.4V34.902z M241.401,17.751c3.55,0,6.45-3.2,6.45-7.201c0-4.1-2.9-7.3-6.45-7.3H230.4v14.501H241.401z"/>
<path d="M262.199,9.551h11.002v22.651h9.4v2.7H260.85v-2.7h9.4V12.251h-8.051V9.551z M271.75,0.05c1.602,0,2.9,1.3,2.9,2.9
	s-1.299,2.851-2.9,2.851c-1.6,0-2.85-1.25-2.85-2.851S270.15,0.05,271.75,0.05z"/>
<path d="M291.4,22.202c0-7.801,5.4-13.151,11.949-13.151c6.602,0,11.352,5.35,11.352,13.151v0.8h-20.15
	c0.148,5.65,4.299,9.501,9.199,9.501c3.65,0,6.301-2.2,7.752-5.701l2.648,1.2c-1.949,4.5-6.049,7.3-10.801,7.3
	C296.801,35.302,291.4,30.002,291.4,22.202z M294.551,20.401h17c-0.6-5.15-3.9-8.55-8.25-8.55
	C298.801,11.851,295.15,15.251,294.551,20.401z"/>
<path d="M332.85,27.452c0,2.55,1.65,5.051,5.551,5.051c2.201,0,4.75-0.95,6.051-3.3l2.6,1.3c-1.9,3.4-5.551,4.8-8.65,4.8
	c-5.949,0-8.5-3.95-8.5-8V12.251h-7.15v-2.7h7.15V0.4h2.949v9.15h12.402v2.7H332.85V27.452z"/>
<path d="M378.451,9.551l-9.1,25.352h-4.701l-9.102-25.352h3.352l8.051,23.051h0.1l8.051-23.051H378.451z"/>
<path d="M387.4,22.202c0-7.801,5.4-13.151,11.949-13.151c6.602,0,11.352,5.35,11.352,13.151v0.8h-20.15
	c0.148,5.65,4.299,9.501,9.199,9.501c3.65,0,6.301-2.2,7.752-5.701l2.648,1.2c-1.949,4.5-6.049,7.3-10.801,7.3
	C392.801,35.302,387.4,30.002,387.4,22.202z M390.551,20.401h17c-0.6-5.15-3.9-8.55-8.25-8.55
	C394.801,11.851,391.15,15.251,390.551,20.401z"/>
<path d="M422.199,0.4h11.002v31.802h9.4v2.7H420.85v-2.7h9.4V3.101h-8.051V0.4z"/>
<path d="M474.051,34.902h-2.949v-4.45h-0.301c-2.25,3.2-5.199,4.85-8.551,4.85c-6.35,0-11.4-5.9-11.4-13.101
	c0-7.25,5.051-13.151,11.4-13.151c3.352,0,6.301,1.95,8.551,5.15h0.301V0.4h2.949V34.902z M471.102,22.151
	c0-6.1-3.15-10.3-8.65-10.3c-4.801,0-8.551,4.55-8.551,10.351c0,5.75,3.75,10.301,8.551,10.301c5.35,0,8.5-4.05,8.65-9.901V22.151z"
	/>
<path d="M524.551,0.4h4.85l11,34.502h-3.25l-3.25-10.25h-13.75l-3.25,10.25h-3.25L524.551,0.4z M532.951,21.751L527,2.65h-0.049
	l-5.9,19.101H532.951z"/>
<path d="M558.85,32.502c3.502,0,6.551-2.2,7.9-5.951h3.201c-1.551,5.351-6,8.75-11.102,8.75c-6.449,0-11.75-5.3-11.75-13.101
	c0-7.801,5.301-13.151,11.75-13.151c5.502,0,10.201,4,11.402,10.051h-3.15c-1.102-4.451-4.4-7.25-8.252-7.25
	c-4.799,0-8.699,4.2-8.699,10.351S554.051,32.502,558.85,32.502z"/>
<path d="M579.949,16.701c0,0,0.15-7.65,10.352-7.65c8.15,0,8.65,4.95,8.65,7.55v13.201c0,0.85,0.25,2.9,2.699,2.95
	c1.75,0,2.451-1.35,2.5-1.45l2.502,1.25c-0.051,0.1-1.602,2.75-5.051,2.75c-3.4,0-4.65-2-5-3.75h-0.451
	c-2.949,3.25-6.9,3.75-8.15,3.75c-1.65,0-9.25-0.15-9.301-7.9c0-4.75,4.9-6.9,8.801-7.7l8.551-1.8v-1.3c0-1.55-0.35-4.75-5.85-4.75
	c-7.201,0-7.301,4.85-7.301,4.85H579.949z M596.051,20.602l-7.5,1.6c-3.701,0.8-6.9,2-6.9,5.15c0.049,4.8,5.199,5.15,6.301,5.15
	c3.699,0,8.1-2.8,8.1-6.301V20.602z"/>
<path d="M634.051,34.902h-2.949v-4.45h-0.301c-2.25,3.2-5.199,4.85-8.551,4.85c-6.35,0-11.4-5.9-11.4-13.101
	c0-7.25,5.051-13.151,11.4-13.151c3.352,0,6.301,1.95,8.551,5.15h0.301V0.4h2.949V34.902z M631.102,22.151
	c0-6.1-3.15-10.3-8.65-10.3c-4.801,0-8.551,4.55-8.551,10.351c0,5.75,3.75,10.301,8.551,10.301c5.35,0,8.5-4.05,8.65-9.901V22.151z"
	/>
<path d="M643.4,22.202c0-7.801,5.4-13.151,11.949-13.151c6.602,0,11.352,5.35,11.352,13.151v0.8h-20.15
	c0.148,5.65,4.299,9.501,9.199,9.501c3.65,0,6.301-2.2,7.752-5.701l2.648,1.2c-1.949,4.5-6.049,7.3-10.801,7.3
	C648.801,35.302,643.4,30.002,643.4,22.202z M646.551,20.401h17c-0.6-5.15-3.9-8.55-8.25-8.55
	C650.801,11.851,647.15,15.251,646.551,20.401z"/>
<path d="M676.25,34.902h-2.951V9.551h2.951v3.65h0.65c1.6-2.7,3-4.15,5.35-4.15c3.5,0,5.051,2.15,5.75,4.15h0.75
	c1.602-2.65,3.352-4.15,5.701-4.15c6.25,0,6.301,5.75,6.301,6.75v19.101h-2.951V16.201c0-0.65-0.049-4.35-3.551-4.35
	c-2.799,0-5.75,4.15-5.75,8.45v14.601h-2.949V16.201c0-0.65-0.051-4.35-3.5-4.35c-2.801,0-5.801,4.15-5.801,8.45V34.902z"/>
<path d="M710.199,9.551h11.002v22.651h9.4v2.7H708.85v-2.7h9.4V12.251h-8.051V9.551z M719.75,0.05c1.602,0,2.9,1.3,2.9,2.9
	s-1.299,2.851-2.9,2.851c-1.6,0-2.85-1.25-2.85-2.851S718.15,0.05,719.75,0.05z"/>
<path d="M739.4,22.202c0-7.801,5.4-13.151,11.949-13.151c6.602,0,11.352,5.35,11.352,13.151v0.8h-20.15
	c0.148,5.65,4.299,9.501,9.199,9.501c3.65,0,6.301-2.2,7.752-5.701l2.648,1.2c-1.949,4.5-6.049,7.3-10.801,7.3
	C744.801,35.302,739.4,30.002,739.4,22.202z M742.551,20.401h17c-0.6-5.15-3.9-8.55-8.25-8.55
	C746.801,11.851,743.15,15.251,742.551,20.401z"/>
</svg>
