<?xml version="1.0" encoding="utf-8"?>
<!-- Generator: Adobe Illustrator 15.0.0, SVG Export Plug-In  -->
<!DOCTYPE svg PUBLIC "-//W3C//DTD SVG 1.1//EN" "http://www.w3.org/Graphics/SVG/1.1/DTD/svg11.dtd" [
	<!ENTITY ns_flows "http://ns.adobe.com/Flows/1.0/">
]>
<svg version="1.1"
	 xmlns="http://www.w3.org/2000/svg" xmlns:xlink="http://www.w3.org/1999/xlink" xmlns:a="http://ns.adobe.com/AdobeSVGViewerExtensions/3.0/"
	 x="0px" y="0px" width="294px" height="63px" viewBox="-5.899 -4.214 294 63"
	 overflow="visible" enable-background="new -5.899 -4.214 294 63" xml:space="preserve">
<defs>
</defs>
<path d="M26.452,20.751h-5.25c-0.8-3.8-3.7-5.6-8.151-5.6c-3.1,0-7.3,1.6-7.3,5.35c0,3.9,4.601,4.9,8.65,5.3
	c6.451,0.6,13.851,2.05,13.851,9.851c0,7.3-5.601,10.601-12.901,10.601C7,46.253,1.1,41.803,0,34.202h5.101
	c1.1,5.201,4.8,7.851,10,7.851c4.25,0,8.101-1.25,8.101-6.4c0-4-3-4.95-9.4-5.65c-5.9-0.65-13.101-2.5-13.101-9.5
	c0-5.95,6.3-9.551,12.201-9.551C19.952,10.951,25.002,14.001,26.452,20.751z"/>
<path d="M56.952,20.202v25.651h-4.75v-3.65h-0.5c-1.3,1.55-3.95,4.05-8.1,4.05c-8.25,0-8.301-6.4-8.301-7.35V20.202h4.75v17.151
	c0,0.6,0.05,4.85,4.45,4.85c3.5,0,7.701-4.2,7.701-11.351v-10.65H56.952z"/>
<path d="M66.55,27.952c0.1-1.55,0.55-2.9,1.4-4.15c1.35-2.05,4.1-4.15,9.5-4.15c2.15,0,3.75,0.45,5,1
	c3.45,1.6,4.101,4.65,4.101,7.201v13.25c0,0.85,0.6,1.35,1.15,1.35s0.8-0.25,1-0.5c0.15-0.15,0.25-0.3,0.3-0.5l3.35,1.65
	c-0.3,0.6-0.65,1.15-1.1,1.6c-0.75,0.8-1.85,1.55-3.3,1.55c-2.6,0-4.65-1.9-4.8-3.25h-0.4c-2.6,2.55-5.5,3.25-7.65,3.25
	c-1.6,0-9.801-0.15-9.801-7.9c0-4.8,4.6-7,8.351-7.8l8.15-1.7v-1c0-1.4-0.1-4.15-4.5-4.15c-2.95,0-4.4,1.1-5.15,2.15
	c-0.45,0.6-0.7,1.3-0.8,2.1H66.55z M81.801,32.802l-6,1.25c-2.7,0.55-5.55,1.8-5.55,4.35c0,3.701,3.5,3.8,4.851,3.8h0.2
	c2.95,0,6.5-2.25,6.5-5.05V32.802z"/>
<path d="M103.201,20.501v-9.451h4.75v9.451h11.9v3.85h-11.9v12.951c0,0.6,0.05,4.9,4.45,4.9c3.35,0,4.95-2.3,5.55-3.15l4.05,2.25
	c-2.2,3.45-5.05,4.95-9.601,4.95c-9.151,0-9.201-6.5-9.201-7.45V24.352h-6.75v-3.85H103.201z"/>
<path d="M163.801,15.851c2.649-3.05,6.45-4.8,10.4-4.8c3.9,0,7.65,1.75,10.251,4.8c2.649,3.1,4.25,7.451,4.25,12.801
	c0,5.4-1.601,9.75-4.2,12.851c-2.65,3.05-6.4,4.75-10.301,4.75c-3.95,0-7.751-1.7-10.451-4.8c-2.6-3.05-4.25-7.4-4.25-12.801
	C159.5,23.302,161.15,18.951,163.801,15.851z M167.45,38.402c1.65,2.351,4.101,3.65,6.651,3.65c2.6,0,5.05-1.3,6.7-3.65
	c1.8-2.25,2.85-5.6,2.85-9.8c0-4.15-1.05-7.5-2.85-9.75c-1.65-2.35-4.101-3.7-6.7-3.7c-2.551,0-5.001,1.35-6.651,3.7
	c-1.85,2.25-2.899,5.6-2.899,9.75C164.551,32.802,165.601,36.152,167.45,38.402z M168.101,1.15c2,0,3.601,1.6,3.601,3.6
	c0,1.9-1.601,3.45-3.601,3.45c-1.9,0-3.45-1.55-3.45-3.45C164.65,2.75,166.2,1.15,168.101,1.15z M180.001,1.15
	c2.001,0,3.601,1.6,3.601,3.6c0,1.9-1.6,3.45-3.601,3.45c-1.899,0-3.45-1.55-3.45-3.45C176.551,2.75,178.102,1.15,180.001,1.15z"/>
<path d="M198.9,47.653c1.85,2.85,3.8,4.4,6.45,4.4c5.05,0,7.25-2.5,7.25-6.05v-2.7h-0.6c-1.7,1.75-4.101,2.95-7.4,2.95
	c-6.051,0-10.9-5.9-10.9-13.201c0-7.5,4.85-13.401,10.9-13.401c3.3,0,5.5,1.3,7.65,3.5h0.35v-2.95h4.751v25.901
	c0,5.45-3.751,10-11.701,10c-4.55,0-8.351-1.9-10.95-6.4L198.9,47.653z M212.601,31.552c0-5.351-3.649-7.851-7.25-7.851
	c-4.05,0-7.2,4.15-7.2,9.25c0,5.101,3.15,9.25,7.2,9.25c3.5,0,7.25-2.45,7.25-7.6V31.552z M198.7,0h3.5v0.35
	c0,2.15,1.7,3.851,3.9,3.851c2.15,0,3.9-1.7,3.9-3.851V0h3.5v0.35c0,4.101-3.351,7.351-7.4,7.351s-7.4-3.25-7.4-7.351V0z"/>
<path d="M248.951,20.202v25.651h-4.75v-3.65h-0.5c-1.301,1.55-3.95,4.05-8.101,4.05c-8.251,0-8.301-6.4-8.301-7.35V20.202h4.75
	v17.151c0,0.6,0.051,4.85,4.45,4.85c3.501,0,7.701-4.2,7.701-11.351v-10.65H248.951z M232.05,10.501c2.001,0,3.601,1.6,3.601,3.6
	c0,1.9-1.6,3.45-3.601,3.45c-1.899,0-3.45-1.55-3.45-3.45C228.6,12.101,230.15,10.501,232.05,10.501z M243.951,10.501
	c2,0,3.6,1.6,3.6,3.6c0,1.9-1.6,3.45-3.6,3.45c-1.9,0-3.45-1.55-3.45-3.45C240.501,12.101,242.051,10.501,243.951,10.501z"/>
<path d="M263.2,20.501v-9.451h4.75v9.451h11.901v3.85H267.95v12.951c0,0.6,0.05,4.9,4.45,4.9c3.351,0,4.95-2.3,5.551-3.15l4.05,2.25
	c-2.2,3.45-5.05,4.95-9.601,4.95c-9.15,0-9.2-6.5-9.2-7.45V24.352h-6.75v-3.85H263.2z"/>
</svg>
