<?xml version="1.0" encoding="utf-8"?>
<!-- Generator: Adobe Illustrator 15.0.0, SVG Export Plug-In  -->
<!DOCTYPE svg PUBLIC "-//W3C//DTD SVG 1.1//EN" "http://www.w3.org/Graphics/SVG/1.1/DTD/svg11.dtd" [
	<!ENTITY ns_flows "http://ns.adobe.com/Flows/1.0/">
]>
<svg version="1.1"
	 xmlns="http://www.w3.org/2000/svg" xmlns:xlink="http://www.w3.org/1999/xlink" xmlns:a="http://ns.adobe.com/AdobeSVGViewerExtensions/3.0/"
	 x="0px" y="0px" width="1462px" height="204px" viewBox="-2.801 -4.961 1462 204"
	 overflow="visible" enable-background="new -2.801 -4.961 1462 204" xml:space="preserve">
<defs>
</defs>
<path fill="#E8A723" d="M0,46.603h6v0.9c0,5,2.4,9.201,6.601,12.301c4,3.1,9.601,4.9,15.701,4.9c6.2,0,11.701-1.8,15.701-4.701
	c4.1-3,6.5-7.1,6.5-11.8c0-8.401-11.501-10.501-20.201-11.601C10,34.102,6,28.102,6,18.801C6,13.601,8.9,9,13.601,5.5
	C18.301,2.1,24.602,0,32.102,0c7.5,0,13.801,2,18.501,5.4c4.7,3.4,7.7,7.9,7.7,13.101v1.1h-6.3v-0.8c0-3.601-2.1-6.801-5.7-9.101
	c-3.7-2.4-8.601-3.8-14.201-3.8c-5.5,0-10.5,1.4-14.201,3.8c-3.6,2.3-5.7,5.5-5.7,9.101c0,9.101,9.201,11.201,19.701,12.4
	c13.201,1.5,24.602,4.9,24.602,16.701c0,6.4-3.2,12.101-8.401,16.201c-5.1,4.1-11.9,6.5-19.901,6.5c-7.9,0-14.701-2.5-19.801-6.5
	C3.3,60.003,0,54.203,0,47.703V46.603z"/>
<path fill="#E8A723" d="M87.701,56.303c0,2.4,0.7,4.8,2.6,6.4c1.6,1.4,4,2.3,7.301,2.3c4.4,0,9.8-1.9,13-6.601l4.8,2.601
	c-4.6,6.8-12.201,9.601-18.401,9.601c-5,0-8.601-1.4-11.101-3.601c-2.8-2.6-4.101-6.1-4.101-10.601c0-1.5,3.8-31.902,3.8-31.902
	H71.3l0.7-5.4h14.301l2.3-18.301h5.9l-2.3,18.301h24.801l-0.7,5.4H91.501C91.501,24.501,87.701,55.303,87.701,56.303z"/>
<path fill="#E8A723" d="M139.4,63.204c-3.6-4.5-5.2-10.601-5.2-16.701c0-6.601,1.9-13.601,6.3-19.102c4.5-5.6,11.101-9.3,20.301-9.3
	c7.101,0,12.601,2.9,16.201,7.4s5.2,10.701,5.2,16.701c0,6.4-1.9,13.401-6.301,18.901c-4.6,5.601-11.101,9.501-20.301,9.501
	C148.601,70.604,143.001,67.704,139.4,63.204z M171.202,57.604c3.4-4.4,4.801-10,4.801-15.301c0-4.8-1.2-9.601-3.801-13.001
	c-2.6-3.4-6.5-5.601-11.7-5.601c-7,0-11.901,3-15.301,7.301c-3.4,4.4-4.8,10-4.8,15.401c0,4.9,1.2,9.601,3.8,13
	c2.6,3.4,6.601,5.601,11.701,5.601C162.902,65.004,167.803,61.904,171.202,57.604z"/>
<path fill="#E8A723" d="M211.801,0.8h22.001l-8.301,63.604h18.802l-0.7,5.4H200.1l0.7-5.4h18.801L227.201,6.2h-16.101L211.801,0.8z"
	/>
<path fill="#E8A723" d="M267.6,63.104c-3.6-4.5-5.4-10.301-5.4-16.301c0-6.5,2-13.501,6.301-18.901
	c4.4-5.5,11.201-9.801,20.602-9.801c7.199,0,12.4,3.1,15.9,7.701c3.6,4.7,4.699,10,4.699,17.201c0,1-0.199,2.5-0.299,3h-41.002v0.8
	c0,4.8,1.299,9.301,3.799,12.601c2.602,3.4,6.502,5.601,11.502,5.601c3.799,0,7.4-0.9,10.5-2.8c2.9-1.8,5.5-4.5,7.301-8.101l5.9,1.6
	c-0.9,1.9-2.1,3.8-3.4,5.5c-4.5,5.5-10.9,9.401-20.402,9.401C276.401,70.604,271.2,67.504,267.6,63.104z M276.1,28.402
	c-3.5,3-6,7.3-7.1,12.4h34.502c-0.1-4.6-1.1-9-3.701-12.201c-2.398-3-6.199-4.9-11.199-4.9
	C283.901,23.701,279.5,25.401,276.1,28.402z"/>
<path fill="#E8A723" d="M336.401,47.303l-3,22.501h-5.9l6.6-50.703h5.9l-1.5,11.101h0.4c4.9-7,12.4-12.101,20.602-12.101
	c8,0,14.4,5.8,14.4,13.001c0,0.6,0,0.8-0.1,1.6l-4.801,37.102h-5.9l4.701-36.102c0.1-0.6,0.1-0.9,0.1-1.4
	c0-3.4-2.701-8.601-9.801-8.601C349.5,23.701,338.401,32.402,336.401,47.303z"/>
<path fill="#E8A723" d="M460,41.203l-3.701,28.602H450.1l9-69.004h30.402c10.1,0,16.701,8.701,16.701,20.001
	c0,11.201-9.9,20.401-20.102,20.401H460z M460.5,35.502h25.301c7,0,14.002-6.6,14.002-14.501c0-8-4.801-14.5-12.002-14.5H464.5
	L460.5,35.502z"/>
<path fill="#E8A723" d="M530.801,47.303l-3,22.501h-5.9l6.6-50.703h5.9l-1.5,11.101h0.4c4.9-7,12.4-12.101,20.602-12.101
	c8,0,14.4,5.8,14.4,13.001c0,0.6,0,0.8-0.1,1.6l-0.201,1.6h-5.9l0.1-0.6c0.102-0.6,0.102-0.9,0.102-1.4
	c0-3.4-2.701-8.601-9.801-8.601C543.901,23.701,532.801,32.402,530.801,47.303z"/>
<path fill="#E8A723" d="M587.401,63.204c-3.602-4.5-5.201-10.601-5.201-16.701c0-6.601,1.9-13.601,6.301-19.102
	c4.5-5.6,11.1-9.3,20.301-9.3c7.1,0,12.602,2.9,16.201,7.4s5.201,10.701,5.201,16.701c0,6.4-1.9,13.401-6.301,18.901
	c-4.602,5.601-11.102,9.501-20.303,9.501C596.6,70.604,591,67.704,587.401,63.204z M619.202,57.604c3.4-4.4,4.801-10,4.801-15.301
	c0-4.8-1.201-9.601-3.801-13.001s-6.5-5.601-11.701-5.601c-7,0-11.9,3-15.301,7.301c-3.4,4.4-4.799,10-4.799,15.401
	c0,4.9,1.199,9.601,3.799,13c2.602,3.4,6.602,5.601,11.701,5.601C610.901,65.004,615.801,61.904,619.202,57.604z"/>
<path fill="#E8A723" d="M691.303,25.501c3.4,4.5,5,10.601,5,16.701c0,6.6-1.801,13.601-6,19.101
	c-4.301,5.6-10.602,9.301-19.402,9.301c-8.199,0-13.6-3.5-17-9.701h-0.4l-3.6,27.602H644l9-69.404h5.9l-1.1,9.301h0.299
	c4.301-5.601,8.801-10.301,17.701-10.301C682.502,18.101,687.903,21.001,691.303,25.501z M660.301,31.102
	c-3.301,4.4-4.701,10-4.701,15.301c0,4.8,1.201,9.601,3.801,13c2.5,3.4,6.199,5.601,11.301,5.601c6.801,0,11.6-3,14.9-7.3
	c3.301-4.4,4.701-10.001,4.701-15.401c0-4.9-1.201-9.601-3.801-13.001c-2.5-3.4-6.301-5.601-11.301-5.601
	C668.401,23.701,663.6,26.802,660.301,31.102z"/>
<path fill="#E8A723" d="M715.6,63.104c-3.6-4.5-5.4-10.301-5.4-16.301c0-6.5,2-13.501,6.301-18.901
	c4.4-5.5,11.201-9.801,20.602-9.801c7.199,0,12.4,3.1,15.9,7.701c3.6,4.7,4.699,10,4.699,17.201c0,1-0.199,2.5-0.299,3h-41.002v0.8
	c0,4.8,1.299,9.301,3.799,12.601c2.602,3.4,6.502,5.601,11.502,5.601c3.799,0,7.4-0.9,10.5-2.8c2.9-1.8,5.5-4.5,7.301-8.101l5.9,1.6
	c-0.9,1.9-2.1,3.8-3.4,5.5c-4.5,5.5-10.9,9.401-20.402,9.401C724.401,70.604,719.2,67.504,715.6,63.104z M724.1,28.402
	c-3.5,3-6,7.3-7.1,12.4h34.502c-0.1-4.6-1.1-9-3.701-12.201c-2.398-3-6.199-4.9-11.199-4.9
	C731.901,23.701,727.5,25.401,724.1,28.402z"/>
<path fill="#E8A723" d="M786.801,47.303l-3,22.501h-5.9l6.6-50.703h5.9l-1.5,11.101h0.4c4.9-7,12.4-12.101,20.602-12.101
	c8,0,14.4,5.8,14.4,13.001c0,0.6,0,0.8-0.1,1.6l-0.201,1.6h-5.9l0.1-0.6c0.102-0.6,0.102-0.9,0.102-1.4
	c0-3.4-2.701-8.601-9.801-8.601C799.901,23.701,788.801,32.402,786.801,47.303z"/>
<path fill="#E8A723" d="M855.702,56.303c0,2.4,0.699,4.8,2.6,6.4c1.6,1.4,4,2.3,7.301,2.3c4.4,0,9.801-1.9,13-6.601l4.801,2.601
	c-4.602,6.8-12.201,9.601-18.402,9.601c-5,0-8.6-1.4-11.1-3.601c-2.801-2.6-4.1-6.1-4.1-10.601c0-1.5,3.799-31.902,3.799-31.902
	h-14.301l0.701-5.4h14.301L856.6,0.8h5.9l-2.299,18.301h24.801l-0.699,5.4H859.5C859.5,24.501,855.702,55.303,855.702,56.303z"/>
<path fill="#E8A723" d="M894.1,80.105c2.799,4.4,6.5,6.5,10.4,6.5c5.1,0,8.301-2.3,9.801-5.301l6.799-13.601l-15.199-48.603h6.699
	l12.301,39.402h0.801l20.201-39.402h6.699l-32.9,64.004c-2.701,5.2-7.9,9.101-15.803,9.101c-5.6,0-10.799-3.3-14.4-9.4L894.1,80.105
	z"/>
<path fill="#E8A723" d="M1035.799,0.8h25.703c10.199,0,18.5,8.101,18.5,18.101c0,7.301-4.301,12.701-10.701,15.101l-0.299,1.1
	c5.1,3.3,8.699,9.201,8.699,15.901c0,10.501-8.299,18.801-18.301,18.801H1026.7L1035.799,0.8z M1033.5,64.704h24.9
	c7.102,0,13.102-6,13.102-13.501s-6-13.501-13.102-13.501H1037L1033.5,64.704z M1060.801,32.002c7.201,0,13.002-5.9,13.002-13.101
	c0-7.1-5.801-13-13.002-13h-19.4l-3.4,26.102H1060.801z"/>
<path fill="#E8A723" d="M1132.002,41.402l3-22.301h5.9l-6.602,50.703h-5.9l1.4-10.701h-0.6c-4.9,7-12.1,11.501-20.301,11.501
	c-8,0-14.4-5.801-14.4-13.001c0-0.6,0-0.8,0.1-1.6l4.801-36.902h5.9l-4.701,35.902c-0.1,0.6-0.1,0.9-0.1,1.4
	c0,3.4,2.699,8.601,9.801,8.601C1118.901,65.004,1130.002,56.303,1132.002,41.402z"/>
<path fill="#E8A723" d="M1170.801,47.303l-3,22.501h-5.9l6.6-50.703h5.9l-1.5,11.101h0.4c4.9-7,12.4-12.101,20.602-12.101
	c8,0,14.4,5.8,14.4,13.001c0,0.6,0,0.8-0.1,1.6l-0.201,1.6h-5.9l0.1-0.6c0.102-0.6,0.102-0.9,0.102-1.4
	c0-3.4-2.701-8.601-9.801-8.601C1183.901,23.701,1172.801,32.402,1170.801,47.303z"/>
<path fill="#E8A723" d="M1227.6,63.104c-3.6-4.5-5.4-10.301-5.4-16.301c0-6.5,2-13.501,6.301-18.901
	c4.4-5.5,11.201-9.801,20.602-9.801c7.199,0,12.4,3.1,15.9,7.701c3.6,4.7,4.699,10,4.699,17.201c0,1-0.199,2.5-0.299,3h-41.002v0.8
	c0,4.8,1.299,9.301,3.799,12.601c2.602,3.4,6.502,5.601,11.502,5.601c3.799,0,7.4-0.9,10.5-2.8c2.9-1.8,5.5-4.5,7.301-8.101l5.9,1.6
	c-0.9,1.9-2.1,3.8-3.4,5.5c-4.5,5.5-10.9,9.401-20.402,9.401C1236.401,70.604,1231.2,67.504,1227.6,63.104z M1236.1,28.402
	c-3.5,3-6,7.3-7.1,12.4h34.502c-0.1-4.6-1.1-9-3.701-12.201c-2.398-3-6.199-4.9-11.199-4.9
	C1243.901,23.701,1239.5,25.401,1236.1,28.402z"/>
<path fill="#E8A723" d="M1290.799,63.204c-3.4-4.5-5-10.601-5-16.701c0-6.601,1.801-13.601,6-19.102
	c4.301-5.6,10.602-9.3,19.402-9.3c8.199,0,13.6,4.1,17,10.301h0.301l1.199-9.301h5.9l-6.5,50.703h-5.9l1-8.9h-0.4
	c-4.299,5.6-8.6,9.701-17.5,9.701C1299.6,70.604,1294.2,67.704,1290.799,63.204z M1321.801,57.604c3.301-4.4,4.701-10,4.701-15.301
	c0-4.8-1.201-9.601-3.801-13.001c-2.5-3.4-6.199-5.601-11.301-5.601c-6.801,0-11.6,3-14.9,7.301c-3.301,4.4-4.701,10-4.701,15.401
	c0,4.9,1.201,9.601,3.801,13c2.5,3.4,6.301,5.601,11.301,5.601C1313.702,65.004,1318.502,61.904,1321.801,57.604z"/>
<path fill="#E8A723" d="M1388.002,41.402l3-22.301h5.9l-6.602,50.703h-5.9l1.4-10.701h-0.6c-4.9,7-12.1,11.501-20.301,11.501
	c-8,0-14.4-5.801-14.4-13.001c0-0.6,0-0.8,0.1-1.6l4.801-36.902h5.9l-4.701,35.902c-0.1,0.6-0.1,0.9-0.1,1.4
	c0,3.4,2.699,8.601,9.801,8.601C1374.901,65.004,1386.002,56.303,1388.002,41.402z"/>
<path fill="#E8A723" d="M1442,63.804c0,4-3.199,6.801-6.799,6.801c-3.201,0-5.701-2.5-5.701-5.601c0-4,3.201-6.8,7-6.8
	C1439.702,58.204,1442,60.704,1442,63.804z M1446.901,26.901c0,4-3.199,6.801-6.799,6.801c-3.201,0-5.701-2.5-5.701-5.601
	c0-4,3.201-6.8,7-6.8C1444.602,21.301,1446.901,23.801,1446.901,26.901z"/>
<path fill="#E8A723" d="M61.604,126.501H37.702l-8.201,63.304h-6.1l8.2-63.304H7.9l0.8-5.7h53.704L61.604,126.501z"/>
<path fill="#E8A723" d="M79.901,167.304l-3,22.501H71l9.001-69.004h5.9l-3.9,29.401h0.4c4.9-7,12.401-12.101,20.601-12.101
	c8.001,0,14.401,5.801,14.401,13.001c0,0.6,0,0.8-0.1,1.6l-4.8,37.103h-5.9l4.7-36.103c0.1-0.6,0.1-0.899,0.1-1.399
	c0-3.4-2.7-8.601-9.801-8.601C93.001,143.702,81.901,152.402,79.901,167.304z"/>
<path fill="#E8A723" d="M139.601,183.104c-3.6-4.501-5.4-10.301-5.4-16.301c0-6.501,2-13.501,6.3-18.901
	c4.4-5.501,11.201-9.801,20.601-9.801c7.201,0,12.401,3.101,15.901,7.7c3.601,4.7,4.7,10.001,4.7,17.201c0,1-0.2,2.5-0.3,3H140.4
	v0.801c0,4.8,1.3,9.3,3.8,12.601c2.6,3.4,6.5,5.6,11.501,5.6c3.8,0,7.4-0.899,10.5-2.8c2.9-1.8,5.5-4.5,7.301-8.101l5.9,1.601
	c-0.9,1.899-2.101,3.8-3.4,5.5c-4.5,5.5-10.9,9.4-20.401,9.4C148.401,190.604,143.201,187.505,139.601,183.104z M148.101,148.402
	c-3.5,3-6,7.3-7.101,12.4h34.502c-0.101-4.6-1.101-9-3.7-12.2c-2.4-3.001-6.2-4.9-11.201-4.9
	C155.901,143.702,151.501,145.402,148.101,148.402z"/>
<path fill="#E8A723" d="M255.6,189.805l9-69.004h6.1l-3.9,29.901h39.803l3.9-29.901h6.102l-9.002,69.004h-6.1l4.301-33.402H266
	l-4.301,33.402H255.6z"/>
<path fill="#E8A723" d="M331.401,183.204c-3.602-4.5-5.201-10.601-5.201-16.701c0-6.6,1.9-13.601,6.301-19.101
	c4.5-5.601,11.1-9.301,20.301-9.301c7.1,0,12.602,2.9,16.201,7.4s5.201,10.701,5.201,16.701c0,6.4-1.9,13.4-6.301,18.901
	c-4.602,5.6-11.102,9.5-20.303,9.5C340.6,190.604,335,187.704,331.401,183.204z M363.202,177.604c3.4-4.399,4.801-10,4.801-15.301
	c0-4.8-1.201-9.601-3.801-13.001c-2.6-3.399-6.5-5.6-11.701-5.6c-7,0-11.9,3-15.301,7.3c-3.4,4.4-4.799,10.001-4.799,15.401
	c0,4.9,1.199,9.601,3.799,13.001c2.602,3.4,6.602,5.6,11.701,5.6C354.901,185.004,359.801,181.904,363.202,177.604z"/>
<path fill="#E8A723" d="M402.801,167.304l-3,22.501h-5.9l6.6-50.703h5.9l-1.5,11.101h0.4c4.9-7,12.4-12.101,20.602-12.101
	c8,0,14.4,5.801,14.4,13.001c0,0.6,0,0.8-0.1,1.6l-0.201,1.601h-5.9l0.1-0.601c0.102-0.6,0.102-0.899,0.102-1.399
	c0-3.4-2.701-8.601-9.801-8.601C415.901,143.702,404.801,152.402,402.801,167.304z"/>
<path fill="#E8A723" d="M462.2,161.203c-2.1-2.301-3.299-5.101-3.299-8.4c0-4.4,2.199-7.801,6.1-10.501c3.801-2.5,9-4.2,14.5-4.2
	c6.602,0,11.602,2,15.301,4.9c3.602,2.9,5.502,6.9,5.502,11.101v1.6h-6.102v-1.6c0-2.8-1.299-5.5-3.9-7.4c-2.5-1.8-6.1-3-10.699-3
	c-4.002,0-7.602,0.899-10.301,2.7c-2.701,1.6-4.301,3.9-4.301,6.5c0,1.8,0.699,3.301,1.9,4.5c0.9,0.9,2.5,2.601,12.701,3.801
	c5.799,0.7,12.199,1.8,15.301,4.7c2.199,2,3.6,4.601,3.6,8.2c0,4.5-2.5,8.701-6.5,11.601c-4,3.001-9.301,4.9-15.602,4.9
	c-6.4,0-11.801-1.8-15.701-4.8c-4-3-6.5-7.101-6.5-11.601v-1.9h6.1v2c0,2.9,1.701,5.601,4.701,7.4c2.9,1.8,6.9,3,11.4,3
	c4.4,0,8.301-1.2,11.301-3c2.9-1.8,4.701-4.5,4.701-7.4c0-1.9-0.9-3.4-2.201-4.4c-2.6-2.1-8.6-2.6-12.801-3.3
	C474,166.003,466.1,165.604,462.2,161.203z"/>
<path fill="#E8A723" d="M523.6,183.104c-3.6-4.501-5.4-10.301-5.4-16.301c0-6.501,2-13.501,6.301-18.901
	c4.4-5.501,11.201-9.801,20.602-9.801c7.199,0,12.4,3.101,15.9,7.7c3.6,4.7,4.699,10.001,4.699,17.201c0,1-0.199,2.5-0.299,3
	h-41.002v0.801c0,4.8,1.299,9.3,3.799,12.601c2.602,3.4,6.502,5.6,11.502,5.6c3.799,0,7.4-0.899,10.5-2.8
	c2.9-1.8,5.5-4.5,7.301-8.101l5.9,1.601c-0.9,1.899-2.1,3.8-3.4,5.5c-4.5,5.5-10.9,9.4-20.402,9.4
	C532.401,190.604,527.2,187.505,523.6,183.104z M532.1,148.402c-3.5,3-6,7.3-7.1,12.4h34.502c-0.1-4.6-1.1-9-3.701-12.2
	c-2.398-3.001-6.199-4.9-11.199-4.9C539.901,143.702,535.5,145.402,532.1,148.402z"/>
<path fill="#E8A723" d="M657.5,139.102h22.002l-5.9,45.303h18.801l-0.701,5.4H648.2l0.699-5.4h18.803l5.199-39.902h-16.1
	L657.5,139.102z M684.202,125.301c0,3.7-3,6.301-6.301,6.301c-3,0-5.299-2.301-5.299-5.201c0-3.7,3-6.3,6.5-6.3
	C682.102,120.101,684.202,122.4,684.202,125.301z"/>
<path fill="#E8A723" d="M718.2,161.203c-2.1-2.301-3.299-5.101-3.299-8.4c0-4.4,2.199-7.801,6.1-10.501c3.801-2.5,9-4.2,14.5-4.2
	c6.602,0,11.602,2,15.301,4.9c3.602,2.9,5.502,6.9,5.502,11.101v1.6h-6.102v-1.6c0-2.8-1.299-5.5-3.9-7.4c-2.5-1.8-6.1-3-10.699-3
	c-4.002,0-7.602,0.899-10.301,2.7c-2.701,1.6-4.301,3.9-4.301,6.5c0,1.8,0.699,3.301,1.9,4.5c0.9,0.9,2.5,2.601,12.701,3.801
	c5.799,0.7,12.199,1.8,15.301,4.7c2.199,2,3.6,4.601,3.6,8.2c0,4.5-2.5,8.701-6.5,11.601c-4,3.001-9.301,4.9-15.602,4.9
	c-6.4,0-11.801-1.8-15.701-4.8c-4-3-6.5-7.101-6.5-11.601v-1.9h6.1v2c0,2.9,1.701,5.601,4.701,7.4c2.9,1.8,6.9,3,11.4,3
	c4.4,0,8.301-1.2,11.301-3c2.9-1.8,4.701-4.5,4.701-7.4c0-1.9-0.9-3.4-2.201-4.4c-2.6-2.1-8.6-2.6-12.801-3.3
	C730,166.003,722.1,165.604,718.2,161.203z"/>
<path fill="#E8A723" d="M843.799,120.801h25.703c10.199,0,18.5,8.101,18.5,18.101c0,7.301-4.301,12.701-10.701,15.102l-0.299,1.1
	c5.1,3.3,8.699,9.2,8.699,15.901c0,10.5-8.299,18.801-18.301,18.801H834.7L843.799,120.801z M841.5,184.704h24.9
	c7.102,0,13.102-6,13.102-13.501c0-7.5-6-13.5-13.102-13.5H845L841.5,184.704z M868.801,152.002c7.201,0,13.002-5.9,13.002-13.101
	c0-7.101-5.801-13.001-13.002-13.001h-19.4l-3.4,26.102H868.801z"/>
<path fill="#E8A723" d="M906.799,183.204c-3.4-4.5-5-10.601-5-16.701c0-6.6,1.801-13.601,6-19.101
	c4.301-5.601,10.602-9.301,19.402-9.301c8.199,0,13.6,4.101,17,10.301h0.301l1.199-9.301h5.9l-6.5,50.703h-5.9l1-8.9h-0.4
	c-4.299,5.601-8.6,9.7-17.5,9.7C915.6,190.604,910.2,187.704,906.799,183.204z M937.801,177.604c3.301-4.399,4.701-10,4.701-15.301
	c0-4.8-1.201-9.601-3.801-13.001c-2.5-3.399-6.199-5.6-11.301-5.6c-6.801,0-11.6,3-14.9,7.3c-3.301,4.4-4.701,10.001-4.701,15.401
	c0,4.9,1.201,9.601,3.801,13.001c2.5,3.4,6.301,5.6,11.301,5.6C929.702,185.004,934.502,181.904,937.801,177.604z"/>
<path fill="#E8A723" d="M971.401,183.204c-3.602-4.5-5.201-10.601-5.201-16.701c0-6.6,1.9-13.601,6.301-19.101
	c4.5-5.601,11.1-9.301,20.301-9.301c7.1,0,12.5,3.101,16.102,7.5c2.5,3.2,4.299,7.801,4.9,12.602h-6.301
	c-0.4-2.9-1.6-6.701-3.4-8.901c-2.6-3.399-6.4-5.6-11.602-5.6c-7,0-11.9,3-15.301,7.3c-3.4,4.4-4.799,10.001-4.799,15.401
	c0,4.9,1.199,9.601,3.699,13.001c2.6,3.4,6.701,5.6,11.801,5.6c7,0,11.9-3.1,15.301-7.4c0.801-1.199,1.801-3,2.5-4.5h6.5
	c-0.898,2.4-2.699,5.9-4.299,8.001c-4.4,5.6-10.9,9.5-20.303,9.5C980.6,190.604,975,187.704,971.401,183.204z"/>
<path fill="#E8A723" d="M1033.6,189.805l9-69.004h5.9l-5,38.002h0.9l26.4-19.701h8.602l-22.801,17.301l-0.102,1l21.002,32.402
	h-7.701l-18.301-28.102h-1.4l-7.799,5.9l-2.801,22.201H1033.6z"/>
</svg>
