<?xml version="1.0" encoding="utf-8"?>
<!-- Generator: Adobe Illustrator 15.0.0, SVG Export Plug-In  -->
<!DOCTYPE svg PUBLIC "-//W3C//DTD SVG 1.1//EN" "http://www.w3.org/Graphics/SVG/1.1/DTD/svg11.dtd" [
	<!ENTITY ns_flows "http://ns.adobe.com/Flows/1.0/">
]>
<svg version="1.1"
	 xmlns="http://www.w3.org/2000/svg" xmlns:xlink="http://www.w3.org/1999/xlink" xmlns:a="http://ns.adobe.com/AdobeSVGViewerExtensions/3.0/"
	 x="0px" y="0px" width="837px" height="54px" viewBox="-2.451 -5.364 837 54"
	 overflow="visible" enable-background="new -2.451 -5.364 837 54" xml:space="preserve">
<defs>
</defs>
<path d="M0,34.902v-3L23.801,3.601V3.25H1.65V0.4h25.852v2.95L3.7,31.702v0.35h25.251v2.85H0z"/>
<path d="M56.901,9.551v25.352h-2.95v-5.7h-0.4c-1.95,3.5-5.25,6.1-9.301,6.1c-8.05,0-8.101-6.4-8.101-7.35V9.551h2.95v17.851
	c0,0.6,0.05,5.101,5.451,5.101c4.3,0,9.4-4.451,9.4-12.001V9.551H56.901z"/>
<path d="M69.75,9.551h11v22.651h9.4v2.7H68.4v-2.7h9.4V12.251h-8.05V9.551z M79.301,0.05c1.6,0,2.9,1.3,2.9,2.9
	s-1.3,2.851-2.9,2.851s-2.85-1.25-2.85-2.851S77.701,0.05,79.301,0.05z"/>
<path d="M121.602,34.902h-2.95v-4.45h-0.3c-2.25,3.2-5.2,4.85-8.55,4.85c-6.351,0-11.401-5.9-11.401-13.101
	c0-7.25,5.05-13.151,11.401-13.151c3.35,0,6.3,1.95,8.55,5.15h0.3V0.4h2.95V34.902z M118.651,22.151c0-6.1-3.15-10.3-8.65-10.3
	c-4.8,0-8.551,4.55-8.551,10.351c0,5.75,3.75,10.301,8.551,10.301c5.35,0,8.5-4.05,8.65-9.901V22.151z"/>
<path d="M131.5,16.701c0,0,0.15-7.65,10.351-7.65c8.151,0,8.651,4.95,8.651,7.55v13.201c0,0.85,0.25,2.9,2.7,2.95
	c1.75,0,2.45-1.35,2.5-1.45l2.5,1.25c-0.05,0.1-1.6,2.75-5.05,2.75c-3.4,0-4.65-2-5-3.75h-0.45c-2.95,3.25-6.9,3.75-8.15,3.75
	c-1.65,0-9.251-0.15-9.301-7.9c0-4.75,4.9-6.9,8.801-7.7l8.55-1.8v-1.3c0-1.55-0.35-4.75-5.851-4.75c-7.2,0-7.3,4.85-7.3,4.85H131.5
	z M147.601,20.602l-7.5,1.6c-3.7,0.8-6.9,2-6.9,5.15c0.05,4.8,5.2,5.15,6.3,5.15c3.7,0,8.101-2.8,8.101-6.301V20.602z"/>
<path d="M165.951,26.752c0,0.1,0.55,2,2.149,3.35c1.4,1.15,3.551,2.25,7.051,2.25c3.45,0,5.4-0.95,6.551-2
	c1.149-1.1,1.449-2.3,1.449-2.95c0-3.75-5.1-3.65-8.65-4.05c-3.5-0.4-7.45-0.95-9.2-3.2c-1-1.3-1.4-2.45-1.4-3.45
	c0-0.65,0.15-2.55,1.601-4.35c1.3-1.7,3.85-3.3,8.601-3.3c5.1,0,7.7,2,9.15,4.05c1.3,1.95,1.35,3.9,1.35,4h-3
	c0-0.05-0.05-1.45-0.95-2.7c-0.95-1.3-2.75-2.55-6.4-2.55c-3.6,0-5.35,0.95-6.3,2.05c-0.9,1.05-1,2.1-1,2.55
	c0.05,2.95,3.649,3.6,8.25,4.1c6.001,0.65,7.751,0.95,9.451,2.65c1.05,1.05,1.55,2.55,1.55,4.25c0,1-0.45,2.9-2,4.601
	c-1.551,1.7-4.251,3.25-8.851,3.25c-4.751,0-7.701-1.6-9.551-3.4c-2.25-2.2-2.95-5-2.95-5.15H165.951z"/>
<path d="M206.5,29.102c1.8,0,3.15,1.35,3.15,3.55v0.55c-0.4,5.3-5.751,9.601-5.751,9.601l-1.6-1.8c2.1-2.1,3.35-4.25,3.95-5.9
	c-1.5,0-2.801-1.3-2.801-2.95C203.45,30.502,204.85,29.102,206.5,29.102z"/>
<path d="M280.802,28.852c-1.15,2-2.65,3.55-4.4,4.65c-1.801,1.2-3.852,1.8-6.252,1.8c-4.049,0-7.699-1.7-10.35-4.75
	c-2.65-3.101-4.25-7.5-4.25-12.901c0-5.351,1.6-9.75,4.301-12.851c2.6-3.05,6.25-4.8,10.299-4.8c3.051,0,5.9,1.05,8.301,2.95
	c2.352,1.85,4.602,4.951,5.301,8.25h-3.1c-0.9-2.55-2.4-4.75-4.25-6.2c-1.852-1.45-4-2.05-6.252-2.05c-3.148,0-6,1.45-8.049,3.951
	c-2.102,2.6-3.4,6.2-3.4,10.7c0,4.601,1.299,8.25,3.4,10.851c2.049,2.5,4.9,3.9,8.049,3.9c2.65,0,5.352-1.15,7.352-3.3
	c1.949-2.05,3.301-5.1,3.5-8.95h-10.5v-2.85h13.35v17.651h-3.049V28.852z"/>
<path d="M290.95,22.202c0-7.801,5.4-13.151,11.949-13.151c6.602,0,11.352,5.35,11.352,13.151v0.8h-20.15
	c0.148,5.65,4.299,9.501,9.199,9.501c3.65,0,6.301-2.2,7.752-5.701l2.648,1.2c-1.949,4.5-6.049,7.3-10.801,7.3
	C296.351,35.302,290.95,30.002,290.95,22.202z M294.101,20.401h17c-0.6-5.15-3.9-8.55-8.25-8.55
	C298.351,11.851,294.7,15.251,294.101,20.401z"/>
<path d="M323.8,34.902h-2.951V9.551h2.951v3.65h0.65c1.6-2.7,3-4.15,5.35-4.15c3.5,0,5.051,2.15,5.75,4.15h0.75
	c1.602-2.65,3.352-4.15,5.701-4.15c6.25,0,6.301,5.75,6.301,6.75v19.101h-2.951V16.201c0-0.65-0.049-4.35-3.551-4.35
	c-2.799,0-5.75,4.15-5.75,8.45v14.601h-2.949V16.201c0-0.65-0.051-4.35-3.5-4.35c-2.801,0-5.801,4.15-5.801,8.45V34.902z"/>
<path d="M354.95,22.202c0-7.801,5.4-13.151,11.949-13.151c6.602,0,11.352,5.35,11.352,13.151v0.8h-20.15
	c0.148,5.65,4.299,9.501,9.199,9.501c3.65,0,6.301-2.2,7.752-5.701l2.648,1.2c-1.949,4.5-6.049,7.3-10.801,7.3
	C360.351,35.302,354.95,30.002,354.95,22.202z M358.101,20.401h17c-0.6-5.15-3.9-8.55-8.25-8.55
	C362.351,11.851,358.7,15.251,358.101,20.401z"/>
<path d="M386.95,22.202c0-7.801,5.4-13.151,11.949-13.151c6.602,0,11.352,5.35,11.352,13.151v0.8h-20.15
	c0.148,5.65,4.299,9.501,9.199,9.501c3.65,0,6.301-2.2,7.752-5.701l2.648,1.2c-1.949,4.5-6.049,7.3-10.801,7.3
	C392.351,35.302,386.95,30.002,386.95,22.202z M390.101,20.401h17c-0.6-5.15-3.9-8.55-8.25-8.55
	C394.351,11.851,390.7,15.251,390.101,20.401z"/>
<path d="M420.149,34.902V9.551h2.951v5.55h0.398c1.951-3.5,5.252-6.05,9.301-6.05c8.051,0,8.102,6.4,8.102,7.351v18.501h-2.951
	V16.951c0-0.6-0.049-5.1-5.449-5.1c-4.301,0-9.4,4.45-9.4,12v11.051H420.149z"/>
<path d="M460.399,27.452c0,2.55,1.65,5.051,5.551,5.051c2.201,0,4.75-0.95,6.051-3.3l2.6,1.3c-1.9,3.4-5.551,4.8-8.65,4.8
	c-5.949,0-8.5-3.95-8.5-8V12.251h-7.15v-2.7h7.15V0.4h2.949v9.15h12.402v2.7h-12.402V27.452z"/>
<path d="M482.95,22.202c0-7.801,5.4-13.151,11.949-13.151c6.602,0,11.352,5.35,11.352,13.151v0.8h-20.15
	c0.148,5.65,4.299,9.501,9.199,9.501c3.65,0,6.301-2.2,7.752-5.701l2.648,1.2c-1.949,4.5-6.049,7.3-10.801,7.3
	C488.351,35.302,482.95,30.002,482.95,22.202z M486.101,20.401h17c-0.6-5.15-3.9-8.55-8.25-8.55
	C490.351,11.851,486.7,15.251,486.101,20.401z"/>
<path d="M556.101,0.4h4.85l11,34.502h-3.25l-3.25-10.25H551.7l-3.25,10.25h-3.25L556.101,0.4z M564.501,21.751L558.55,2.65h-0.049
	l-5.9,19.101H564.501z"/>
<path d="M579.8,34.902h-2.951V9.551h2.951v3.65h0.65c1.6-2.7,3-4.15,5.35-4.15c3.5,0,5.051,2.15,5.75,4.15h0.75
	c1.602-2.65,3.352-4.15,5.701-4.15c6.25,0,6.301,5.75,6.301,6.75v19.101h-2.951V16.201c0-0.65-0.049-4.35-3.551-4.35
	c-2.799,0-5.75,4.15-5.75,8.45v14.601h-2.949V16.201c0-0.65-0.051-4.35-3.5-4.35c-2.801,0-5.801,4.15-5.801,8.45V34.902z"/>
<path d="M613.95,26.752c0,0.1,0.549,2,2.15,3.35c1.398,1.15,3.549,2.25,7.049,2.25c3.451,0,5.4-0.95,6.551-2
	c1.15-1.1,1.451-2.3,1.451-2.95c0-3.75-5.102-3.65-8.65-4.05c-3.5-0.4-7.451-0.95-9.201-3.2c-1-1.3-1.4-2.45-1.4-3.45
	c0-0.65,0.15-2.55,1.6-4.35c1.301-1.7,3.852-3.3,8.602-3.3c5.1,0,7.699,2,9.15,4.05c1.301,1.95,1.35,3.9,1.35,4h-3
	c0-0.05-0.051-1.45-0.949-2.7c-0.951-1.3-2.75-2.55-6.4-2.55c-3.602,0-5.352,0.95-6.301,2.05c-0.9,1.05-1,2.1-1,2.55
	c0.049,2.95,3.65,3.6,8.25,4.1c6,0.65,7.75,0.95,9.451,2.65c1.049,1.05,1.549,2.55,1.549,4.25c0,1-0.449,2.9-2,4.601
	c-1.549,1.7-4.25,3.25-8.85,3.25c-4.75,0-7.701-1.6-9.551-3.4c-2.25-2.2-2.951-5-2.951-5.15H613.95z"/>
<path d="M652.399,27.452c0,2.55,1.65,5.051,5.551,5.051c2.201,0,4.75-0.95,6.051-3.3l2.6,1.3c-1.9,3.4-5.551,4.8-8.65,4.8
	c-5.949,0-8.5-3.95-8.5-8V12.251h-7.15v-2.7h7.15V0.4h2.949v9.15h12.402v2.7h-12.402V27.452z"/>
<path d="M674.95,22.202c0-7.801,5.4-13.151,11.949-13.151c6.602,0,11.352,5.35,11.352,13.151v0.8h-20.15
	c0.148,5.65,4.299,9.501,9.199,9.501c3.65,0,6.301-2.2,7.752-5.701l2.648,1.2c-1.949,4.5-6.049,7.3-10.801,7.3
	C680.351,35.302,674.95,30.002,674.95,22.202z M678.101,20.401h17c-0.6-5.15-3.9-8.55-8.25-8.55
	C682.351,11.851,678.7,15.251,678.101,20.401z"/>
<path d="M708.149,34.902V9.551h2.951v5.55h0.398c1.951-3.5,5.252-6.05,9.301-6.05c8.051,0,8.051,6.4,8.051,7.351v0.75h-2.9v-0.2
	c0-0.6-0.049-5.1-5.449-5.1c-4.301,0-9.4,4.45-9.4,12v11.051H708.149z"/>
<path d="M761.601,34.902h-2.949v-4.45h-0.301c-2.25,3.2-5.199,4.85-8.551,4.85c-6.35,0-11.4-5.9-11.4-13.101
	c0-7.25,5.051-13.151,11.4-13.151c3.352,0,6.301,1.95,8.551,5.15h0.301V0.4h2.949V34.902z M758.651,22.151
	c0-6.1-3.15-10.3-8.65-10.3c-4.801,0-8.551,4.55-8.551,10.351c0,5.75,3.75,10.301,8.551,10.301c5.35,0,8.5-4.05,8.65-9.901V22.151z"
	/>
<path d="M771.499,16.701c0,0,0.15-7.65,10.352-7.65c8.15,0,8.65,4.95,8.65,7.55v13.201c0,0.85,0.25,2.9,2.699,2.95
	c1.75,0,2.451-1.35,2.5-1.45l2.502,1.25c-0.051,0.1-1.602,2.75-5.051,2.75c-3.4,0-4.65-2-5-3.75H787.7
	c-2.949,3.25-6.9,3.75-8.15,3.75c-1.65,0-9.25-0.15-9.301-7.9c0-4.75,4.9-6.9,8.801-7.7l8.551-1.8v-1.3c0-1.55-0.35-4.75-5.85-4.75
	c-7.201,0-7.301,4.85-7.301,4.85H771.499z M787.601,20.602l-7.5,1.6c-3.701,0.8-6.9,2-6.9,5.15c0.049,4.8,5.199,5.15,6.301,5.15
	c3.699,0,8.1-2.8,8.1-6.301V20.602z"/>
<path d="M803.8,34.902h-2.951V9.551h2.951v3.65h0.65c1.6-2.7,3-4.15,5.35-4.15c3.5,0,5.051,2.15,5.75,4.15h0.75
	c1.602-2.65,3.352-4.15,5.701-4.15c6.25,0,6.301,5.75,6.301,6.75v19.101h-2.951V16.201c0-0.65-0.049-4.35-3.551-4.35
	c-2.799,0-5.75,4.15-5.75,8.45v14.601h-2.949V16.201c0-0.65-0.051-4.35-3.5-4.35c-2.801,0-5.801,4.15-5.801,8.45V34.902z"/>
</svg>
