<?xml version="1.0" encoding="utf-8"?>
<!-- Generator: Adobe Illustrator 15.0.0, SVG Export Plug-In . SVG Version: 6.00 Build 0)  -->
<!DOCTYPE svg PUBLIC "-//W3C//DTD SVG 1.1//EN" "http://www.w3.org/Graphics/SVG/1.1/DTD/svg11.dtd">
<svg version="1.1" id="Layer_1" xmlns="http://www.w3.org/2000/svg" xmlns:xlink="http://www.w3.org/1999/xlink" x="0px" y="0px"
	 width="1225px" height="560px" viewBox="0 0 1225 560" enable-background="new 0 0 1225 560" xml:space="preserve">
<rect x="179.508" y="59.41" fill="none" width="659.835" height="438.525"/>
<text transform="matrix(1 0 0 1 179.5083 198.6094)"><tspan x="0" y="0" font-family="'LetteraPro-Bold'" font-size="200">G</tspan><tspan x="128" y="0" font-family="'LetteraPro-Bold'" font-size="200" letter-spacing="-8">E</tspan><tspan x="248" y="0" font-family="'LetteraPro-Bold'" font-size="200">T </tspan><tspan x="0" y="164" font-family="'LetteraPro-Bold'" font-size="200"> </tspan><tspan x="128" y="164" font-family="'LetteraPro-Bold'" font-size="200" letter-spacing="-12">L</tspan><tspan x="244" y="164" font-family="'LetteraPro-Bold'" font-size="200" letter-spacing="4">O</tspan><tspan x="376" y="164" font-family="'LetteraPro-Bold'" font-size="200" letter-spacing="-4">S</tspan><tspan x="500" y="164" font-family="'LetteraPro-Bold'" font-size="200">T</tspan></text>
<rect x="315.574" y="388.098" fill="none" width="452.458" height="58.196"/>
<text transform="matrix(1 0 0 1 315.5737 442.3857)" font-family="'LetteraPro-Bold'" font-size="78">art route</text>
<rect x="315.574" y="461.59" fill="none" width="466.393" height="58.196"/>
<text transform="matrix(1 0 0 1 315.5737 482.4961)" fill="#FFCC00" font-family="'LetteraPro'" font-size="30.3">where the sidewalk ends</text>
<rect x="187.574" y="225.59" fill="none" width="86.759" height="54.742"/>
<text transform="matrix(1 0 0 1 186.1738 237.6646)"><tspan x="0" y="0" font-family="'LetteraPro'" font-size="17.5">1</tspan><tspan x="10.85" y="0" font-family="'LetteraPro'" font-size="17.5">2</tspan><tspan x="22.05" y="0" font-family="'LetteraPro'" font-size="17.5">.</tspan><tspan x="32.551" y="0" font-family="'LetteraPro'" font-size="17.5">0</tspan><tspan x="43.751" y="0" font-family="'LetteraPro'" font-size="17.5">6</tspan><tspan x="54.601" y="0" font-family="'LetteraPro'" font-size="17.5" letter-spacing="-1">.</tspan><tspan x="64.051" y="0" font-family="'LetteraPro'" font-size="17.5" letter-spacing="-1">1</tspan><tspan x="73.852" y="0" font-family="'LetteraPro'" font-size="17.5">5</tspan><tspan x="1.4" y="40" font-family="'LetteraPro'" font-size="17.5" letter-spacing="-1">2</tspan><tspan x="11.55" y="40" font-family="'LetteraPro'" font-size="17.5">7.</tspan><tspan x="32.55" y="40" font-family="'LetteraPro'" font-size="17.5">06</tspan><tspan x="54.251" y="40" font-family="'LetteraPro'" font-size="17.5" letter-spacing="-1">.1</tspan><tspan x="74.551" y="40" font-family="'LetteraPro'" font-size="17.5">5</tspan></text>
<rect x="558.24" y="89.59" fill="none" width="344.76" height="105.409"/>
<text transform="matrix(1 0 0 1 556.8398 101.6646)"><tspan x="0" y="0" fill="#FFCC00" font-family="'LetteraPro'" font-size="17.5">FESTIVE OPENING:</tspan><tspan x="1.4" y="21" font-family="'LetteraPro'" font-size="17.5">12.06.15 from 4</tspan><tspan x="169.403" y="21" font-family="'LetteraPro'" font-size="17.5" letter-spacing="-3"> </tspan><tspan x="177.104" y="21" font-family="'LetteraPro'" font-size="17.5">–</tspan><tspan x="188.304" y="21" font-family="'LetteraPro'" font-size="17.5" letter-spacing="-3"> </tspan><tspan x="195.654" y="21" font-family="'LetteraPro'" font-size="17.5">8 </tspan><tspan x="218.055" y="21" font-family="'LetteraPro'" font-size="17.5">P</tspan><tspan x="229.955" y="21" font-family="'LetteraPro'" font-size="17.5">M</tspan><tspan x="1.4" y="63" font-family="'LetteraPro'" font-size="17.5">Prinses Irenelaan x  </tspan><tspan x="1.4" y="84" font-family="'LetteraPro'" font-size="17.5">Minervalaan, Zuidas Amsterdam</tspan></text>
<rect x="189.502" y="330.67" fill="none" width="150.025" height="49.002"/>
<text transform="matrix(1 0 0 1 189.1523 342.7441)"><tspan x="0" y="0" font-family="'LetteraPro'" font-size="17.5">Z</tspan><tspan x="11.2" y="0" font-family="'LetteraPro'" font-size="17.5">u</tspan><tspan x="22.05" y="0" font-family="'LetteraPro'" font-size="17.5" letter-spacing="-1">i</tspan><tspan x="32.201" y="0" font-family="'LetteraPro'" font-size="17.5">d</tspan><tspan x="43.401" y="0" font-family="'LetteraPro'" font-size="17.5">a</tspan><tspan x="54.251" y="0" font-family="'LetteraPro'" font-size="17.5">s</tspan><tspan x="-0.7" y="21" font-family="'LetteraPro'" font-size="17.5">A</tspan><tspan x="11.201" y="21" font-family="'LetteraPro'" font-size="17.5">m</tspan><tspan x="22.75" y="21" font-family="'LetteraPro'" font-size="17.5" letter-spacing="-1">s</tspan><tspan x="32.901" y="21" font-family="'LetteraPro'" font-size="17.5">te</tspan><tspan x="54.601" y="21" font-family="'LetteraPro'" font-size="17.5" letter-spacing="-1">r</tspan><tspan x="64.751" y="21" font-family="'LetteraPro'" font-size="17.5">d</tspan><tspan x="75.952" y="21" font-family="'LetteraPro'" font-size="17.5">a</tspan><tspan x="87.852" y="21" font-family="'LetteraPro'" font-size="17.5">m</tspan></text>
<line fill="none" stroke="#FFCC00" stroke-width="3" stroke-miterlimit="10" x1="189" y1="252.5" x2="272" y2="252.5"/>
</svg>
