<?xml version="1.0" encoding="utf-8"?>
<!-- Generator: Adobe Illustrator 15.0.0, SVG Export Plug-In . SVG Version: 6.00 Build 0)  -->
<!DOCTYPE svg PUBLIC "-//W3C//DTD SVG 1.1//EN" "http://www.w3.org/Graphics/SVG/1.1/DTD/svg11.dtd">
<svg version="1.1" id="Layer_1" xmlns="http://www.w3.org/2000/svg" xmlns:xlink="http://www.w3.org/1999/xlink" x="0px" y="0px"
	 width="319.086px" height="87.5px" viewBox="0 0 319.086 87.5" enable-background="new 0 0 319.086 87.5" xml:space="preserve">
<rect y="5.434" fill="none" width="325.521" height="77.848"/>
<g enable-background="new    ">
	<path d="M49.503,75.033l-5.9-19.602H20.401l-6,19.602H4.3L26.202,6.029h11.601l21.801,69.004H49.503z M23.901,47.132h16.101
		l-8-30.802L23.901,47.132z"/>
	<path d="M111.403,38.331v0.3c6.5,2.9,10.901,10.001,10.901,17.201c0,10.7-8.401,19.201-18.701,19.201H72.5V6.029h29.502
		c10.201,0,18.501,8,18.501,17.9C120.503,30.131,116.303,35.131,111.403,38.331z M82.201,34.631h18.601
		c5.9,0,9.601-4.4,9.601-10.201c0-5.7-3.7-10.101-9.601-10.101H82.201V34.631z M82.201,66.732h18.801c6.7,0,11.201-3.5,11.201-12
		c0-6.501-5.101-11.801-11.201-11.801H82.201V66.732z"/>
	<path d="M139.401,15.029c5.3-6.101,12.9-9.601,20.801-9.601c7.8,0,15.301,3.5,20.501,9.601c5.301,6.2,8.5,14.901,8.5,25.602
		c0,10.801-3.199,19.501-8.4,25.702c-5.3,6.1-12.801,9.5-20.601,9.5c-7.901,0-15.501-3.4-20.901-9.601
		c-5.2-6.101-8.5-14.801-8.5-25.602C130.8,29.931,134.101,21.229,139.401,15.029z M146.701,60.132
		c3.3,4.701,8.201,7.301,13.301,7.301c5.2,0,10.101-2.6,13.4-7.301c3.601-4.5,5.701-11.2,5.701-19.601
		c0-8.301-2.101-15.001-5.701-19.501c-3.3-4.7-8.2-7.4-13.4-7.4c-5.1,0-10,2.7-13.301,7.4c-3.7,4.5-5.8,11.2-5.8,19.501
		C140.901,48.932,143.001,55.632,146.701,60.132z"/>
	<path d="M239.902,46.132V6.029h9.701v42.902c0,15.301-5.601,26.901-25.602,26.901S198.4,64.232,198.4,48.932V6.029h9.701v40.103
		c0,12,1,21.301,15.9,21.301S239.902,58.132,239.902,46.132z"/>
	<path d="M315.704,14.329h-23.002v60.704h-9.7V14.329H260.2v-8.3h55.504V14.329z"/>
</g>
</svg>
