<?xml version="1.0" encoding="utf-8"?>
<!-- Generator: Adobe Illustrator 15.0.0, SVG Export Plug-In  -->
<!DOCTYPE svg PUBLIC "-//W3C//DTD SVG 1.1//EN" "http://www.w3.org/Graphics/SVG/1.1/DTD/svg11.dtd" [
	<!ENTITY ns_flows "http://ns.adobe.com/Flows/1.0/">
]>
<svg version="1.1"
	 xmlns="http://www.w3.org/2000/svg" xmlns:xlink="http://www.w3.org/1999/xlink" xmlns:a="http://ns.adobe.com/AdobeSVGViewerExtensions/3.0/"
	 x="0px" y="0px" width="900px" height="88px" viewBox="-4.3 -7.431 900 88"
	 overflow="visible" enable-background="new -4.3 -7.431 900 88" xml:space="preserve">
<defs>
</defs>
<path d="M45.203,69.604l-5.9-19.601H16.101l-6,19.601H0L21.901,0.6h11.601l21.801,69.004H45.203z M19.601,41.702h16.101l-8-30.802
	L19.601,41.702z"/>
<path d="M105.103,32.902v0.3c6.5,2.9,10.901,10,10.901,17.201c0,10.701-8.401,19.201-18.701,19.201H66.2V0.6h29.502
	c10.201,0,18.501,8,18.501,17.901C114.203,24.701,110.003,29.702,105.103,32.902z M75.901,29.202h18.601
	c5.9,0,9.601-4.4,9.601-10.201c0-5.7-3.7-10.101-9.601-10.101H75.901V29.202z M75.901,61.304h18.801c6.7,0,11.201-3.5,11.201-12.001
	c0-6.5-5.101-11.801-11.201-11.801H75.901V61.304z"/>
<path d="M133.101,9.601C138.401,3.5,146.001,0,153.902,0c7.8,0,15.3,3.5,20.501,9.601c5.3,6.2,8.5,14.901,8.5,25.602
	c0,10.8-3.2,19.501-8.4,25.701c-5.301,6.101-12.801,9.501-20.601,9.501c-7.901,0-15.501-3.4-20.901-9.601
	c-5.2-6.101-8.5-14.801-8.5-25.602C124.5,24.501,127.8,15.801,133.101,9.601z M140.401,54.703c3.3,4.7,8.201,7.3,13.301,7.3
	c5.201,0,10.101-2.6,13.401-7.3c3.601-4.5,5.7-11.201,5.7-19.601c0-8.301-2.1-15.001-5.7-19.501c-3.3-4.7-8.2-7.4-13.401-7.4
	c-5.1,0-10,2.7-13.301,7.4c-3.7,4.5-5.8,11.201-5.8,19.501C134.601,43.502,136.701,50.203,140.401,54.703z"/>
<path d="M233.603,40.702V0.6h9.7v42.903c0,15.301-5.601,26.902-25.602,26.902S192.1,58.803,192.1,43.502V0.6h9.7v40.103
	c0,12.001,1,21.301,15.901,21.301S233.603,52.703,233.603,40.702z"/>
<path d="M309.403,8.9h-23.002v60.704h-9.699V8.9h-22.803V0.6h55.504V8.9z"/>
<path d="M437.403,8.9h-23.002v60.704h-9.699V8.9h-22.803V0.6h55.504V8.9z"/>
<path d="M448.1,69.604V0.6h9.699v28.602h31.803V0.6h9.701v69.004h-9.701V37.502h-31.803v32.102H448.1z"/>
<path d="M559.903,8.9H523.1v21.601h32.803v8.301H523.1v22.501h38.803v8.3h-48.504V0.6h46.504V8.9z"/>
<path d="M683.202,69.604l-5.9-19.601H654.1l-6,19.601h-10.102L659.901,0.6h11.602l21.801,69.004H683.202z M657.6,41.702h16.102
	l-8-30.802L657.6,41.702z"/>
<path d="M713.901,69.604H704.2V0.6h32.201c10.201,0,18.502,9.001,18.502,20.001c0,9.101-5.801,16.301-13.201,18.801l16.301,30.202
	h-10.699l-15.502-28.802H714L713.901,69.604z M733.702,32.502c6.1,0,11.1-3.5,11.1-11.801c0-4.7-1.898-11.801-11.1-11.801h-19.801
	v23.602H733.702z"/>
<path d="M813.903,8.9H777.1v21.601h32.803v8.301H777.1v22.501h38.803v8.3h-48.504V0.6h46.504V8.9z"/>
<path d="M873.202,69.604l-5.9-19.601H844.1l-6,19.601h-10.102L849.901,0.6h11.602l21.801,69.004H873.202z M847.6,41.702h16.102
	l-8-30.802L847.6,41.702z"/>
</svg>
