<?xml version="1.0" encoding="utf-8"?>
<!-- Generator: Adobe Illustrator 15.0.0, SVG Export Plug-In  -->
<!DOCTYPE svg PUBLIC "-//W3C//DTD SVG 1.1//EN" "http://www.w3.org/Graphics/SVG/1.1/DTD/svg11.dtd" [
	<!ENTITY ns_flows "http://ns.adobe.com/Flows/1.0/">
]>
<svg version="1.1"
	 xmlns="http://www.w3.org/2000/svg" xmlns:xlink="http://www.w3.org/1999/xlink" xmlns:a="http://ns.adobe.com/AdobeSVGViewerExtensions/3.0/"
	 x="0px" y="0px" width="450px" height="88px" viewBox="-4.3 -7.231 450 88"
	 overflow="visible" enable-background="new -4.3 -7.231 450 88" xml:space="preserve">
<defs>
</defs>
<path d="M45.203,69.804l-5.9-19.601H16.101l-6,19.601H0L21.901,0.8h11.601l21.801,69.004H45.203z M19.601,41.902h16.101l-8-30.802
	L19.601,41.902z"/>
<path d="M77.901,69.804H68.2V0.8h32.202c10.201,0,18.501,9.001,18.501,20.001c0,9.101-5.8,16.301-13.201,18.801l16.301,30.202
	h-10.701L95.802,41.002H78.001L77.901,69.804z M97.702,32.702c6.1,0,11.101-3.5,11.101-11.801c0-4.7-1.9-11.801-11.101-11.801
	H77.901v23.602H97.702z"/>
<path d="M183.403,9.101h-23.001v60.704h-9.701V9.101H127.9V0.8h55.503V9.101z"/>
<path d="M197.1,0.8h45.303v8.301h-17.801v52.403h17.801v8.3H197.1v-8.3H214.9V9.101H197.1V0.8z"/>
<path d="M308.403,19.601h-10.5C296.301,12,290.502,8.4,281.6,8.4c-6.199,0-14.6,3.2-14.6,10.701c0,7.8,9.201,9.801,17.301,10.601
	c12.9,1.2,27.701,4.1,27.701,19.701c0,14.601-11.201,21.202-25.801,21.202c-16.701,0-28.502-8.901-30.703-24.102H265.7
	c2.201,10.4,9.602,15.701,20.002,15.701c8.5,0,16.201-2.5,16.201-12.801c0-8-6-9.9-18.801-11.301
	c-11.801-1.3-26.203-5-26.203-19.001C256.899,7.2,269.5,0,281.301,0C295.403,0,305.502,6.1,308.403,19.601z"/>
<path d="M375.403,9.101h-23.002v60.704h-9.699V9.101h-22.803V0.8h55.504V9.101z"/>
<path d="M436.403,19.601h-10.5C424.301,12,418.502,8.4,409.6,8.4c-6.199,0-14.6,3.2-14.6,10.701c0,7.8,9.201,9.801,17.301,10.601
	c12.9,1.2,27.701,4.1,27.701,19.701c0,14.601-11.201,21.202-25.801,21.202c-16.701,0-28.502-8.901-30.703-24.102H393.7
	c2.201,10.4,9.602,15.701,20.002,15.701c8.5,0,16.201-2.5,16.201-12.801c0-8-6-9.9-18.801-11.301
	c-11.801-1.3-26.203-5-26.203-19.001C384.899,7.2,397.5,0,409.301,0C423.403,0,433.502,6.1,436.403,19.601z"/>
</svg>
