<?xml version="1.0" encoding="utf-8"?>
<!-- Generator: Adobe Illustrator 15.0.0, SVG Export Plug-In . SVG Version: 6.00 Build 0)  -->
<!DOCTYPE svg PUBLIC "-//W3C//DTD SVG 1.1//EN" "http://www.w3.org/Graphics/SVG/1.1/DTD/svg11.dtd">
<svg version="1.1" id="Layer_1" xmlns="http://www.w3.org/2000/svg" xmlns:xlink="http://www.w3.org/1999/xlink" x="0px" y="0px"
	 width="574.073px" height="87.5px" viewBox="0 0 574.073 87.5" enable-background="new 0 0 574.073 87.5" xml:space="preserve">
<g>
	<path d="M49.503,75.034l-5.9-19.601H20.401l-6,19.601H4.3L26.202,6.029h11.601l21.801,69.004H49.503z M23.901,47.132h16.101
		l-8-30.802L23.901,47.132z"/>
	<path d="M82.201,75.034H72.5V6.029h32.202c10.201,0,18.501,9.001,18.501,20.001c0,9.101-5.8,16.301-13.201,18.801l16.301,30.202
		h-10.701l-15.501-28.802H82.301L82.201,75.034z M102.002,37.932c6.1,0,11.101-3.5,11.101-11.801c0-4.7-1.9-11.801-11.101-11.801
		H82.201v23.602H102.002z"/>
	<path d="M187.704,14.33h-23.001v60.704h-9.701V14.33H132.2V6.029h55.503V14.33z"/>
	<path d="M274.201,75.034H264.5V6.029h32.201c10.201,0,18.502,9.001,18.502,20.001c0,9.101-5.801,16.301-13.201,18.801
		l16.301,30.202h-10.699l-15.502-28.802h-17.801L274.201,75.034z M294.002,37.932c6.1,0,11.1-3.5,11.1-11.801
		c0-4.7-1.898-11.801-11.1-11.801h-19.801v23.602H294.002z"/>
	<path d="M331.4,15.03c5.301-6.101,12.9-9.601,20.801-9.601c7.801,0,15.301,3.5,20.502,9.601c5.301,6.2,8.5,14.901,8.5,25.602
		c0,10.8-3.199,19.501-8.4,25.701c-5.301,6.101-12.801,9.501-20.602,9.501c-7.9,0-15.5-3.4-20.9-9.601
		c-5.201-6.101-8.502-14.801-8.502-25.602C322.799,29.931,326.1,21.23,331.4,15.03z M338.701,60.133c3.299,4.7,8.199,7.3,13.301,7.3
		c5.199,0,10.1-2.6,13.4-7.3c3.6-4.5,5.701-11.201,5.701-19.601c0-8.301-2.102-15.001-5.701-19.501c-3.301-4.7-8.201-7.4-13.4-7.4
		c-5.102,0-10.002,2.7-13.301,7.4c-3.701,4.5-5.801,11.201-5.801,19.501C332.9,48.932,335,55.632,338.701,60.133z"/>
	<path d="M431.902,46.132V6.029h9.701v42.903c0,15.301-5.602,26.902-25.602,26.902C396,75.834,390.4,64.233,390.4,48.932V6.029
		h9.699v40.103c0,12.001,1,21.301,15.902,21.301C430.902,67.433,431.902,58.133,431.902,46.132z"/>
	<path d="M507.703,14.33h-23.002v60.704h-9.699V14.33h-22.803V6.029h55.504V14.33z"/>
	<path d="M566.203,14.33H529.4v21.601h32.803v8.301H529.4v22.501h38.803v8.3h-48.504V6.029h46.504V14.33z"/>
</g>
</svg>
