<?xml version="1.0" encoding="utf-8"?>
<!-- Generator: Adobe Illustrator 15.0.0, SVG Export Plug-In  -->
<!DOCTYPE svg PUBLIC "-//W3C//DTD SVG 1.1//EN" "http://www.w3.org/Graphics/SVG/1.1/DTD/svg11.dtd" [
	<!ENTITY ns_flows "http://ns.adobe.com/Flows/1.0/">
]>
<svg version="1.1"
	 xmlns="http://www.w3.org/2000/svg" xmlns:xlink="http://www.w3.org/1999/xlink" xmlns:a="http://ns.adobe.com/AdobeSVGViewerExtensions/3.0/"
	 x="0px" y="0px" width="580px" height="88px" viewBox="-4.3 -7.431 580 88"
	 overflow="visible" enable-background="new -4.3 -7.431 580 88" xml:space="preserve">
<defs>
</defs>
<path d="M45.203,69.604l-5.9-19.601H16.101l-6,19.601H0L21.901,0.6h11.601l21.801,69.004H45.203z M19.601,41.702h16.101l-8-30.802
	L19.601,41.702z"/>
<path d="M103.603,40.702V0.6h9.701v42.903c0,15.301-5.6,26.902-25.602,26.902S62.1,58.803,62.1,43.502V0.6h9.701v40.103
	c0,12.001,1,21.301,15.901,21.301S103.603,52.703,103.603,40.702z"/>
<path d="M127.1,69.604V0.6h26.901c14.901,0,26.802,15.501,26.802,34.502c0,19.001-11.901,34.502-26.802,34.502H127.1z
	 M152.802,61.304c9.9,0,17.901-11.801,17.901-26.102c0-14.601-8.001-26.302-17.901-26.302h-16.001v52.403H152.802z"/>
<path d="M193.1,0.6h45.303V8.9h-17.801v52.403h17.801v8.3H193.1v-8.3H210.9V8.9H193.1V0.6z"/>
<path d="M259.1,9.601C264.401,3.5,272,0,279.901,0c7.801,0,15.301,3.5,20.502,9.601c5.301,6.2,8.5,14.901,8.5,25.602
	c0,10.8-3.199,19.501-8.4,25.701c-5.301,6.101-12.801,9.501-20.602,9.501c-7.9,0-15.5-3.4-20.9-9.601
	c-5.201-6.101-8.502-14.801-8.502-25.602C250.499,24.501,253.799,15.801,259.1,9.601z M266.401,54.703
	c3.299,4.7,8.199,7.3,13.301,7.3c5.199,0,10.1-2.6,13.4-7.3c3.6-4.5,5.701-11.201,5.701-19.601c0-8.301-2.102-15.001-5.701-19.501
	c-3.301-4.7-8.201-7.4-13.4-7.4c-5.102,0-10.002,2.7-13.301,7.4c-3.701,4.5-5.801,11.201-5.801,19.501
	C260.6,43.502,262.7,50.203,266.401,54.703z"/>
<path d="M371.403,8.9h-23.002v60.704h-9.699V8.9h-22.803V0.6h55.504V8.9z"/>
<path d="M387.1,9.601C392.401,3.5,400,0,407.901,0c7.801,0,15.301,3.5,20.502,9.601c5.301,6.2,8.5,14.901,8.5,25.602
	c0,10.8-3.199,19.501-8.4,25.701c-5.301,6.101-12.801,9.501-20.602,9.501c-7.9,0-15.5-3.4-20.9-9.601
	c-5.201-6.101-8.502-14.801-8.502-25.602C378.499,24.501,381.799,15.801,387.1,9.601z M394.401,54.703
	c3.299,4.7,8.199,7.3,13.301,7.3c5.199,0,10.1-2.6,13.4-7.3c3.6-4.5,5.701-11.201,5.701-19.601c0-8.301-2.102-15.001-5.701-19.501
	c-3.301-4.7-8.201-7.4-13.4-7.4c-5.102,0-10.002,2.7-13.301,7.4c-3.701,4.5-5.801,11.201-5.801,19.501
	C388.6,43.502,390.7,50.203,394.401,54.703z"/>
<path d="M489.602,40.702V0.6h9.701v42.903c0,15.301-5.602,26.902-25.602,26.902c-20.002,0-25.602-11.601-25.602-26.902V0.6h9.699
	v40.103c0,12.001,1,21.301,15.902,21.301C488.602,62.003,489.602,52.703,489.602,40.702z"/>
<path d="M523.901,69.604H514.2V0.6h32.201c10.201,0,18.502,9.001,18.502,20.001c0,9.101-5.801,16.301-13.201,18.801l16.301,30.202
	h-10.699l-15.502-28.802H524L523.901,69.604z M543.702,32.502c6.1,0,11.1-3.5,11.1-11.801c0-4.7-1.898-11.801-11.1-11.801h-19.801
	v23.602H543.702z"/>
</svg>
