<?xml version="1.0" encoding="utf-8"?>
<!-- Generator: Adobe Illustrator 15.0.0, SVG Export Plug-In  -->
<!DOCTYPE svg PUBLIC "-//W3C//DTD SVG 1.1//EN" "http://www.w3.org/Graphics/SVG/1.1/DTD/svg11.dtd" [
	<!ENTITY ns_flows "http://ns.adobe.com/Flows/1.0/">
]>
<svg version="1.1"
	 xmlns="http://www.w3.org/2000/svg" xmlns:xlink="http://www.w3.org/1999/xlink" xmlns:a="http://ns.adobe.com/AdobeSVGViewerExtensions/3.0/"
	 x="0px" y="0px" width="376px" height="40px" viewBox="-2.678 -5.766 376 40"
	 overflow="visible" enable-background="new -2.678 -5.766 376 40" xml:space="preserve">
<defs>
</defs>
<path d="M17.628,27.145l-2.301-7.644H6.279l-2.34,7.644H0L8.541,0.234h4.524l8.502,26.911H17.628z M7.644,16.264h6.279l-3.12-12.013
	L7.644,16.264z"/>
<path d="M41.964,15.874V0.234h3.783v16.732c0,5.967-2.184,10.491-9.984,10.491s-9.984-4.524-9.984-10.491V0.234h3.783v15.64
	c0,4.68,0.39,8.307,6.201,8.307S41.964,20.554,41.964,15.874z"/>
<path d="M51.128,27.145V0.234H61.62c5.811,0,10.452,6.045,10.452,13.456S67.431,27.145,61.62,27.145H51.128z M61.152,23.908
	c3.861,0,6.981-4.602,6.981-10.179c0-5.694-3.12-10.257-6.981-10.257h-6.24v20.437H61.152z"/>
<path d="M76.089,0.234h17.668v3.237h-6.942v20.437h6.942v3.237H76.089v-3.237h6.942V3.471h-6.942V0.234z"/>
<path d="M100.269,3.744C102.336,1.365,105.3,0,108.381,0c3.042,0,5.967,1.365,7.995,3.744c2.067,2.418,3.315,5.811,3.315,9.984
	c0,4.212-1.248,7.605-3.276,10.023c-2.067,2.379-4.992,3.705-8.034,3.705c-3.081,0-6.045-1.326-8.151-3.744
	c-2.028-2.379-3.315-5.772-3.315-9.984C96.915,9.555,98.202,6.162,100.269,3.744z M103.116,21.334
	c1.287,1.833,3.198,2.847,5.187,2.847c2.028,0,3.939-1.014,5.226-2.847c1.404-1.755,2.223-4.368,2.223-7.645
	c0-3.237-0.819-5.85-2.223-7.605c-1.287-1.833-3.198-2.886-5.226-2.886c-1.989,0-3.9,1.053-5.187,2.886
	c-1.443,1.755-2.262,4.368-2.262,7.605C100.854,16.966,101.673,19.579,103.116,21.334z"/>
<path d="M158.379,24.181c3.822,0,5.851-3.354,6.747-6.747h3.939c-0.624,3.12-2.145,5.733-3.939,7.449
	c-1.911,1.677-4.212,2.574-6.747,2.574c-3.198,0-6.162-1.326-8.151-3.744c-2.067-2.379-3.393-5.772-3.393-9.984
	c0-4.173,1.287-7.566,3.432-9.984C152.256,1.365,155.181,0,158.379,0c5.344,0,9.36,4.212,10.53,9.555h-3.978
	c-0.663-2.613-2.926-6.357-6.553-6.357c-4.953,0-7.605,5.577-7.605,10.491C150.774,18.721,153.348,24.181,158.379,24.181z"/>
<path d="M175.149,3.744C177.217,1.365,180.181,0,183.262,0c3.042,0,5.967,1.365,7.995,3.744c2.067,2.418,3.315,5.811,3.315,9.984
	c0,4.212-1.248,7.605-3.276,10.023c-2.067,2.379-4.992,3.705-8.034,3.705c-3.081,0-6.045-1.326-8.151-3.744
	c-2.028-2.379-3.315-5.772-3.315-9.984C171.795,9.555,173.082,6.162,175.149,3.744z M177.996,21.334
	c1.287,1.833,3.198,2.847,5.188,2.847c2.028,0,3.939-1.014,5.227-2.847c1.403-1.755,2.223-4.368,2.223-7.645
	c0-3.237-0.819-5.85-2.223-7.605c-1.287-1.833-3.198-2.886-5.227-2.886c-1.989,0-3.9,1.053-5.188,2.886
	c-1.442,1.755-2.262,4.368-2.262,7.605C175.734,16.966,176.554,19.579,177.996,21.334z"/>
<path d="M203.189,4.992v22.153h-3.783V0.234h5.812l4.485,18.994l4.485-18.994H220v26.911h-3.783V4.992l-4.407,18.799h-4.213
	L203.189,4.992z"/>
<path d="M230.842,16.498v10.647h-3.783V0.234h12.598c4.056,0,7.332,3.549,7.332,8.035c0,4.524-3.276,8.229-7.332,8.229H230.842z
	 M230.842,13.261h7.878c2.964,0,4.329-2.146,4.329-4.875c0-3.159-1.677-4.914-4.329-4.914h-7.878V13.261z"/>
<path d="M264.889,27.145l-2.301-7.644h-9.049l-2.34,7.644h-3.94l8.542-26.911h4.523l8.504,26.911H264.889z M254.905,16.264h6.279
	l-3.121-12.013L254.905,16.264z"/>
<path d="M293.008,0.234v26.911h-5.812L276.823,4.251v22.894h-3.783V0.234h5.811l10.375,22.972V0.234H293.008z"/>
<path d="M299.168,0.234h17.668v3.237h-6.941v20.437h6.941v3.237h-17.668v-3.237h6.943V3.471h-6.943V0.234z"/>
<path d="M323.348,3.744C325.417,1.365,328.379,0,331.461,0c3.041,0,5.967,1.365,7.994,3.744c2.068,2.418,3.316,5.811,3.316,9.984
	c0,4.212-1.248,7.605-3.277,10.023c-2.066,2.379-4.992,3.705-8.033,3.705c-3.082,0-6.045-1.326-8.152-3.744
	c-2.027-2.379-3.314-5.772-3.314-9.984C319.995,9.555,321.282,6.162,323.348,3.744z M326.196,21.334
	c1.287,1.833,3.197,2.847,5.188,2.847c2.027,0,3.939-1.014,5.227-2.847c1.402-1.755,2.223-4.368,2.223-7.645
	c0-3.237-0.82-5.85-2.223-7.605c-1.287-1.833-3.199-2.886-5.227-2.886c-1.99,0-3.9,1.053-5.188,2.886
	c-1.443,1.755-2.262,4.368-2.262,7.605C323.934,16.966,324.752,19.579,326.196,21.334z"/>
<path d="M367.108,0.234v26.911h-5.812L350.922,4.251v22.894h-3.783V0.234h5.811l10.375,22.972V0.234H367.108z"/>
</svg>
