<?xml version="1.0" encoding="utf-8"?>
<!-- Generator: Adobe Illustrator 15.0.0, SVG Export Plug-In . SVG Version: 6.00 Build 0)  -->
<!DOCTYPE svg PUBLIC "-//W3C//DTD SVG 1.1//EN" "http://www.w3.org/Graphics/SVG/1.1/DTD/svg11.dtd">
<svg version="1.1" id="Layer_1" xmlns="http://www.w3.org/2000/svg" xmlns:xlink="http://www.w3.org/1999/xlink" x="0px" y="0px"
	 width="460px" height="87.5px" viewBox="0 0 460 87.5" enable-background="new 0 0 460 87.5" xml:space="preserve">
<rect x="1.001" y="103.767" fill="none" width="580.844" height="139.344"/>
<text transform="matrix(1 0 0 1 1.001 173.3672)" font-family="'LetteraPro-Bold'" font-size="100">art route</text>
<g>
	<path d="M33.403,67.767c9.801,0,15.001-8.601,17.301-17.301h10.101c-1.6,8-5.5,14.701-10.101,19.101
		c-4.9,4.3-10.801,6.601-17.301,6.601c-8.2,0-15.801-3.4-20.901-9.601c-5.3-6.101-8.7-14.801-8.7-25.602
		c0-10.701,3.3-19.401,8.8-25.602c5.101-6.101,12.601-9.601,20.801-9.601c13.701,0,24.001,10.8,27.002,24.501H50.204
		c-1.7-6.701-7.5-16.301-16.801-16.301c-12.701,0-19.501,14.301-19.501,26.902C13.902,53.766,20.502,67.767,33.403,67.767z"/>
	<path d="M76.402,15.364c5.3-6.101,12.9-9.601,20.801-9.601c7.8,0,15.301,3.5,20.501,9.601c5.3,6.2,8.5,14.901,8.5,25.602
		c0,10.8-3.2,19.501-8.4,25.701c-5.3,6.101-12.801,9.501-20.601,9.501c-7.901,0-15.501-3.4-20.901-9.601
		c-5.2-6.101-8.5-14.801-8.5-25.602C67.801,30.265,71.102,21.564,76.402,15.364z M83.702,60.466c3.3,4.7,8.201,7.3,13.301,7.3
		c5.2,0,10.101-2.6,13.401-7.3c3.6-4.5,5.7-11.201,5.7-19.601c0-8.301-2.1-15.001-5.7-19.501c-3.3-4.7-8.201-7.4-13.401-7.4
		c-5.1,0-10,2.7-13.301,7.4c-3.7,4.5-5.8,11.201-5.8,19.501C77.902,49.266,80.002,55.966,83.702,60.466z"/>
	<path d="M188.604,6.363v69.004h-14.9l-26.602-58.704v58.704h-9.701V6.363h14.901l26.602,58.904V6.363H188.604z"/>
	<path d="M254.604,6.363v69.004h-14.902l-26.602-58.704v58.704h-9.7V6.363h14.901l26.602,58.904V6.363H254.604z"/>
	<path d="M315.204,14.664h-36.803v21.601h32.803v8.301h-32.803v22.501h38.803v8.3H268.7V6.363h46.504V14.664z"/>
	<path d="M355.403,67.767c9.799,0,15-8.601,17.301-17.301h10.1c-1.6,8-5.5,14.701-10.1,19.101c-4.9,4.3-10.801,6.601-17.301,6.601
		c-8.201,0-15.803-3.4-20.902-9.601c-5.301-6.101-8.701-14.801-8.701-25.602c0-10.701,3.301-19.401,8.801-25.602
		c5.102-6.101,12.602-9.601,20.803-9.601c13.699,0,24,10.8,27,24.501h-10.199c-1.701-6.701-7.502-16.301-16.801-16.301
		c-12.701,0-19.502,14.301-19.502,26.902C335.901,53.766,342.501,67.767,355.403,67.767z"/>
	<path d="M446.704,14.664h-23.002v60.704h-9.699V14.664H391.2V6.363h55.504V14.664z"/>
</g>
<rect x="1.001" y="202.767" fill="none" width="617.511" height="36.677"/>
<text transform="matrix(1 0 0 1 1.001 229.9111)" font-family="'LetteraPro-Bold'" font-size="39">where the sidewalk ends</text>
</svg>
