<?xml version="1.0" encoding="utf-8"?>
<!-- Generator: Adobe Illustrator 15.0.0, SVG Export Plug-In  -->
<!DOCTYPE svg PUBLIC "-//W3C//DTD SVG 1.1//EN" "http://www.w3.org/Graphics/SVG/1.1/DTD/svg11.dtd" [
	<!ENTITY ns_flows "http://ns.adobe.com/Flows/1.0/">
]>
<svg version="1.1"
	 xmlns="http://www.w3.org/2000/svg" xmlns:xlink="http://www.w3.org/1999/xlink" xmlns:a="http://ns.adobe.com/AdobeSVGViewerExtensions/3.0/"
	 x="0px" y="0px" width="767px" height="88px" viewBox="-2.8 -7.231 767 88"
	 overflow="visible" enable-background="new -2.8 -7.231 767 88" xml:space="preserve">
<defs>
</defs>
<path d="M29.602,62.204c9.801,0,15.001-8.601,17.301-17.301h10.101c-1.6,8-5.5,14.701-10.101,19.101
	c-4.9,4.3-10.801,6.601-17.301,6.601c-8.2,0-15.801-3.4-20.901-9.601C3.4,54.903,0,46.203,0,35.402C0,24.702,3.3,16.001,8.8,9.801
	C13.901,3.7,21.401,0.2,29.602,0.2c13.701,0,24.001,10.8,27.002,24.501H46.403c-1.7-6.701-7.5-16.301-16.801-16.301
	c-12.701,0-19.501,14.301-19.501,26.902C10.101,48.203,16.701,62.204,29.602,62.204z"/>
<path d="M72.601,9.801C77.901,3.7,85.501,0.2,93.402,0.2c7.8,0,15.301,3.5,20.501,9.601c5.3,6.2,8.5,14.901,8.5,25.602
	c0,10.8-3.2,19.501-8.4,25.701c-5.3,6.101-12.801,9.501-20.601,9.501c-7.901,0-15.501-3.4-20.901-9.601
	C67.3,54.903,64,46.203,64,35.402C64,24.702,67.3,16.001,72.601,9.801z M79.901,54.903c3.3,4.7,8.201,7.3,13.301,7.3
	c5.2,0,10.101-2.6,13.401-7.3c3.6-4.5,5.7-11.201,5.7-19.601c0-8.301-2.1-15.001-5.7-19.501c-3.3-4.7-8.201-7.4-13.401-7.4
	c-5.1,0-10,2.7-13.301,7.4c-3.7,4.5-5.8,11.201-5.8,19.501C74.101,43.703,76.201,50.403,79.901,54.903z"/>
<path d="M141.401,69.804H131.7V0.8h32.202c10.2,0,18.501,9.001,18.501,20.001c0,9.101-5.801,16.301-13.201,18.801l16.302,30.202
	h-10.701l-15.501-28.802h-17.801L141.401,69.804z M161.202,32.702c6.101,0,11.101-3.5,11.101-11.801c0-4.7-1.9-11.801-11.101-11.801
	h-19.801v23.602H161.202z"/>
<path d="M205.4,42.502v27.302h-9.7V0.8h32.302c10.4,0,18.801,9.101,18.801,20.602c0,11.601-8.4,21.101-18.801,21.101H205.4z
	 M205.4,34.202h20.201c7.601,0,11.101-5.5,11.101-12.501c0-8.101-4.3-12.601-11.101-12.601H205.4V34.202z"/>
<path d="M262.6,9.801C267.901,3.7,275.5,0.2,283.401,0.2c7.801,0,15.301,3.5,20.502,9.601c5.301,6.2,8.5,14.901,8.5,25.602
	c0,10.8-3.199,19.501-8.4,25.701c-5.301,6.101-12.801,9.501-20.602,9.501c-7.9,0-15.5-3.4-20.9-9.601
	c-5.201-6.101-8.502-14.801-8.502-25.602C253.999,24.702,257.299,16.001,262.6,9.801z M269.901,54.903
	c3.299,4.7,8.199,7.3,13.301,7.3c5.199,0,10.1-2.6,13.4-7.3c3.6-4.5,5.701-11.201,5.701-19.601c0-8.301-2.102-15.001-5.701-19.501
	c-3.301-4.7-8.201-7.4-13.4-7.4c-5.102,0-10.002,2.7-13.301,7.4c-3.701,4.5-5.801,11.201-5.801,19.501
	C264.1,43.703,266.2,50.403,269.901,54.903z"/>
<path d="M331.401,69.804H321.7V0.8h32.201c10.201,0,18.502,9.001,18.502,20.001c0,9.101-5.801,16.301-13.201,18.801l16.301,30.202
	h-10.699l-15.502-28.802H331.5L331.401,69.804z M351.202,32.702c6.1,0,11.1-3.5,11.1-11.801c0-4.7-1.898-11.801-11.1-11.801h-19.801
	v23.602H351.202z"/>
<path d="M428.702,69.804l-5.9-19.601H399.6l-6,19.601h-10.102L405.401,0.8h11.602l21.801,69.004H428.702z M403.1,41.902h16.102
	l-8-30.802L403.1,41.902z"/>
<path d="M498.903,9.101h-23.002v60.704h-9.699V9.101h-22.803V0.8h55.504V9.101z"/>
<path d="M510.6,0.8h45.303v8.301h-17.801v52.403h17.801v8.3H510.6v-8.3h17.801V9.101H510.6V0.8z"/>
<path d="M576.6,9.801C581.901,3.7,589.5,0.2,597.401,0.2c7.801,0,15.301,3.5,20.502,9.601c5.301,6.2,8.5,14.901,8.5,25.602
	c0,10.8-3.199,19.501-8.4,25.701c-5.301,6.101-12.801,9.501-20.602,9.501c-7.9,0-15.5-3.4-20.9-9.601
	c-5.201-6.101-8.502-14.801-8.502-25.602C567.999,24.702,571.299,16.001,576.6,9.801z M583.901,54.903
	c3.299,4.7,8.199,7.3,13.301,7.3c5.199,0,10.1-2.6,13.4-7.3c3.6-4.5,5.701-11.201,5.701-19.601c0-8.301-2.102-15.001-5.701-19.501
	c-3.301-4.7-8.201-7.4-13.4-7.4c-5.102,0-10.002,2.7-13.301,7.4c-3.701,4.5-5.801,11.201-5.801,19.501
	C578.1,43.703,580.2,50.403,583.901,54.903z"/>
<path d="M687.804,0.8v69.004h-14.902L646.3,11.101v58.704h-9.699V0.8h14.9l26.602,58.904V0.8H687.804z"/>
<path d="M750.904,19.601h-10.5C738.802,12,733.003,8.4,724.101,8.4c-6.199,0-14.6,3.2-14.6,10.701c0,7.8,9.201,9.801,17.301,10.601
	c12.9,1.2,27.701,4.1,27.701,19.701c0,14.601-11.201,21.202-25.801,21.202c-16.701,0-28.502-8.901-30.703-24.102h10.201
	c2.201,10.4,9.602,15.701,20.002,15.701c8.5,0,16.201-2.5,16.201-12.801c0-8-6-9.9-18.801-11.301
	c-11.801-1.3-26.203-5-26.203-19.001C699.4,7.2,712.001,0,723.802,0C737.904,0,748.003,6.1,750.904,19.601z"/>
</svg>
