<?xml version="1.0" encoding="utf-8"?>
<!-- Generator: Adobe Illustrator 15.0.0, SVG Export Plug-In  -->
<!DOCTYPE svg PUBLIC "-//W3C//DTD SVG 1.1//EN" "http://www.w3.org/Graphics/SVG/1.1/DTD/svg11.dtd" [
	<!ENTITY ns_flows "http://ns.adobe.com/Flows/1.0/">
]>
<svg version="1.1"
	 xmlns="http://www.w3.org/2000/svg" xmlns:xlink="http://www.w3.org/1999/xlink" xmlns:a="http://ns.adobe.com/AdobeSVGViewerExtensions/3.0/"
	 x="0px" y="0px" width="166px" height="105px" viewBox="21.607 420.409 166 105"
	 overflow="visible" enable-background="new 21.607 420.409 166 105" xml:space="preserve">
<defs>
</defs>
<g>
	<defs>
		<polygon id="SVGID_1_" points="0,715.289 947.305,715.289 1073.576,0 0,123.729 		"/>
	</defs>
	<clipPath id="SVGID_6_">
		<use xlink:href="#SVGID_1_"  overflow="visible"/>
	</clipPath>
	<g clip-path="url(#SVGID_6_)">
		<path fill="#231F20" d="M225.361,569.556h89.792v19.768H202.258v-164.34h23.103V569.556z"/>
		<path fill="#231F20" d="M340.162,446.419c12.623-14.528,30.724-22.865,49.54-22.865c18.577,0,36.44,8.337,48.825,22.865
			c12.624,14.768,20.245,35.488,20.245,60.973c0,25.723-7.621,46.443-20.007,61.211c-12.623,14.529-30.486,22.627-49.063,22.627
			c-18.816,0-36.917-8.098-49.778-22.865c-12.386-14.529-20.245-35.25-20.245-60.973
			C319.678,481.908,327.538,461.187,340.162,446.419z M357.548,553.835c7.859,11.195,19.53,17.387,31.677,17.387
			c12.385,0,24.056-6.191,31.915-17.387c8.574-10.717,13.576-26.674,13.576-46.682c0-19.768-5.002-35.727-13.576-46.443
			c-7.859-11.195-19.53-17.625-31.915-17.625c-12.146,0-23.817,6.43-31.677,17.625c-8.812,10.717-13.814,26.676-13.814,46.443
			C343.734,527.162,348.736,543.119,357.548,553.835z"/>
		<path fill="#231F20" d="M605.25,469.761h-25.009c-3.811-18.102-17.624-26.676-38.822-26.676c-14.767,0-34.773,7.621-34.773,25.484
			c0,18.578,21.912,23.341,41.204,25.246c30.725,2.858,65.975,9.766,65.975,46.92c0,34.773-26.676,50.494-61.449,50.494
			c-39.774,0-67.88-21.197-73.119-57.4h24.294c5.239,24.77,22.864,37.393,47.635,37.393c20.245,0,38.584-5.953,38.584-30.486
			c0-19.053-14.29-23.578-44.776-26.912c-28.104-3.098-62.402-11.91-62.402-45.254c0-28.343,30.011-45.491,58.115-45.491
			C574.287,423.079,598.342,437.607,605.25,469.761z"/>
		<path fill="#231F20" d="M760.064,444.752h-54.78v144.571H682.18V444.752h-54.304v-19.769h132.188V444.752z"/>
	</g>
	<g clip-path="url(#SVGID_6_)">
		<g>
			<path fill="#231F20" d="M470.442,245.875h-54.78v144.572h-23.104V245.875h-54.304v-19.769h132.188V245.875z"/>
		</g>
		<g>
			<path fill="#231F20" d="M314.438,245.875h-87.647v51.446h78.121v19.768h-78.121v53.589h92.411v19.769H203.687v-164.34h110.751
				V245.875z"/>
		</g>
		<g>
			<path fill="#231F20" d="M151.525,368.535c-5.001,10.48-21.197,23.817-40.966,23.817s-36.679-8.098-49.778-22.626
				c-13.1-14.767-21.197-35.726-21.197-61.449c0-25.484,8.098-46.444,21.436-61.21c12.861-14.529,29.771-22.865,49.54-22.865
				c31.439,0,64.069,20.245,64.069,58.829h-22.865c0-23.58-19.769-38.823-41.204-38.823c-30.963,0-46.92,33.345-46.92,64.069
				c0,19.769,5.478,35.727,14.29,46.92c8.574,10.956,19.53,17.149,32.63,17.149c24.771,0,42.157-26.199,42.396-49.541l-44.539,0.238
				v-19.769h66.213v87.172h-23.104V368.535z"/>
		</g>
	</g>
	<g clip-path="url(#SVGID_6_)">
		<path fill="#404041" d="M42.118,152.204v-2.481l11.715-15.033H43.042v-2.395H57.18v2.453l-11.744,15.062h12.062v2.395H42.118z"/>
		<path fill="#404041" d="M74.324,137.401v14.802h-2.741v-2.106h-0.289c-0.75,0.895-2.279,2.337-4.674,2.337
			c-4.761,0-4.79-3.693-4.79-4.242v-10.792h2.741v9.897c0,0.346,0.029,2.799,2.568,2.799c2.02,0,4.443-2.424,4.443-6.55v-6.146
			H74.324z"/>
		<path fill="#404041" d="M79.551,149.982h5.251v-10.359h-4.501v-2.222h7.242v12.581h5.079v2.222H79.551V149.982z M86.072,131.804
			c1.154,0,2.078,0.923,2.078,2.077c0,1.097-0.924,1.991-2.078,1.991c-1.096,0-1.99-0.895-1.99-1.991
			C84.082,132.727,84.976,131.804,86.072,131.804z"/>
		<path fill="#404041" d="M109.505,152.204h-2.741v-1.645h-0.202c-0.778,0.836-2.279,1.875-4.241,1.875
			c-3.78,0-6.752-3.463-6.752-7.646c0-4.242,2.972-7.704,6.752-7.704c1.962,0,3.491,1.212,4.213,2.02h0.23v-6.982h2.741V152.204z
			 M106.764,144.759c0-3.174-1.529-5.338-4.184-5.338c-2.337,0-4.155,2.337-4.155,5.338s1.818,5.338,4.155,5.338
			c2.568,0,4.098-2.078,4.184-5.107V144.759z"/>
		<path fill="#404041" d="M114.531,141.874c0.059-0.894,0.317-1.673,0.809-2.395c0.778-1.183,2.366-2.395,5.482-2.395
			c1.24,0,2.164,0.26,2.885,0.577c1.991,0.923,2.366,2.683,2.366,4.155v7.646c0,0.491,0.347,0.779,0.664,0.779
			s0.461-0.145,0.577-0.289c0.086-0.087,0.144-0.173,0.173-0.289l1.934,0.952c-0.174,0.346-0.376,0.664-0.635,0.923
			c-0.434,0.461-1.068,0.895-1.905,0.895c-1.5,0-2.683-1.097-2.77-1.875h-0.23c-1.501,1.471-3.175,1.875-4.415,1.875
			c-0.924,0-5.655-0.087-5.655-4.559c0-2.77,2.654-4.04,4.818-4.501l4.703-0.981v-0.577c0-0.808-0.058-2.395-2.597-2.395
			c-1.702,0-2.539,0.635-2.972,1.241c-0.26,0.346-0.404,0.75-0.462,1.211H114.531z M123.332,144.673l-3.462,0.721
			c-1.559,0.317-3.203,1.039-3.203,2.51c0,2.135,2.02,2.193,2.799,2.193h0.115c1.702,0,3.751-1.298,3.751-2.914V144.673z"/>
		<path fill="#404041" d="M141.918,141.932c-0.087-0.433-0.404-2.511-3.521-2.511c-3.001,0-3.376,1.559-3.376,2.02
			c0,1.616,2.856,1.904,3.866,2.02c2.799,0.289,6.579,0.721,6.579,4.443c0,2.164-1.934,4.53-6.694,4.53
			c-4.53,0-7.069-2.857-7.156-5.165h2.857c0.115,1.212,1.327,2.828,4.241,2.828c3.059,0,3.896-1.241,3.896-2.193
			c0-2.135-2.597-1.904-4.79-2.222c-2.309-0.346-5.655-1.154-5.655-4.242c0-0.75,0.577-4.357,6.175-4.357
			c5.8,0,6.463,4.674,6.492,4.848H141.918z"/>
	</g>
	<g clip-path="url(#SVGID_6_)">
		<path fill="#404041" d="M53.919,186.836l-1.702-5.655h-6.694l-1.731,5.655h-2.914l6.319-19.91h3.347l6.291,19.91H53.919z
			 M46.533,178.786h4.646l-2.308-8.887L46.533,178.786z"/>
		<path fill="#404041" d="M67.14,186.836v-9.955c0-0.346-0.029-2.828-1.442-2.828c-1.154,0-2.539,1.645-2.539,5.829v6.954h-2.741
			v-14.802h2.741v1.5h0.346c0.49-0.895,1.472-1.818,3.088-1.818c1.558,0,2.365,0.866,2.799,1.818h0.548
			c0.52-0.895,1.559-1.818,3.231-1.818c3.405,0,3.434,3.751,3.434,4.299v10.82h-2.741v-9.955c0-0.346-0.028-2.828-1.442-2.828
			c-1.125,0-2.481,1.587-2.539,5.54v7.243H67.14z"/>
		<path fill="#404041" d="M90.892,176.564c-0.087-0.433-0.404-2.511-3.521-2.511c-3.001,0-3.376,1.559-3.376,2.02
			c0,1.616,2.856,1.904,3.866,2.02c2.799,0.289,6.579,0.721,6.579,4.443c0,2.164-1.934,4.53-6.694,4.53
			c-4.53,0-7.069-2.857-7.156-5.165h2.857c0.115,1.212,1.327,2.828,4.241,2.828c3.059,0,3.896-1.241,3.896-2.193
			c0-2.135-2.597-1.904-4.79-2.222c-2.309-0.346-5.655-1.154-5.655-4.242c0-0.75,0.577-4.357,6.175-4.357
			c5.8,0,6.463,4.674,6.492,4.848H90.892z"/>
		<path fill="#404041" d="M100.302,172.207v-5.453h2.741v5.453h6.867v2.222h-6.867v7.473c0,0.346,0.029,2.828,2.568,2.828
			c1.934,0,2.856-1.327,3.203-1.818l2.337,1.298c-1.27,1.991-2.914,2.857-5.54,2.857c-5.28,0-5.31-3.751-5.31-4.299v-8.339h-3.896
			v-2.222H100.302z"/>
		<path fill="#404041" d="M116.898,180.142c0.26,2.77,2.135,4.588,4.299,4.588c1.761,0,3.261-1.183,4.069-3.145l2.481,1.097
			c-1.097,2.712-3.636,4.386-6.551,4.386c-4.011,0-7.185-3.087-7.185-7.618c0-4.617,3.116-7.733,7.041-7.733
			c3.924,0,7.04,3.116,7.04,7.733v0.692H116.898z M117.013,177.978h8.079c-0.49-2.366-2.135-3.924-4.039-3.924
			C119.12,174.054,117.475,175.612,117.013,177.978z"/>
		<path fill="#404041" d="M132.137,186.836v-14.802h2.741v2.078h0.23c0.722-0.895,2.338-2.395,4.732-2.395
			c4.761,0,4.79,3.751,4.79,4.299v0.721h-2.741c-0.029-0.606-0.26-2.684-2.568-2.684c-2.02,0-4.443,2.482-4.443,6.666v6.117H132.137
			z"/>
		<path fill="#404041" d="M161.919,186.836h-2.741v-1.645h-0.202c-0.779,0.836-2.279,1.875-4.241,1.875
			c-3.78,0-6.752-3.463-6.752-7.646c0-4.242,2.972-7.704,6.752-7.704c1.962,0,3.491,1.212,4.212,2.02h0.231v-6.982h2.741V186.836z
			 M159.178,179.392c0-3.174-1.529-5.338-4.184-5.338c-2.338,0-4.155,2.337-4.155,5.338s1.817,5.338,4.155,5.338
			c2.567,0,4.097-2.078,4.184-5.107V179.392z"/>
		<path fill="#404041" d="M166.944,176.506c0.059-0.894,0.317-1.673,0.809-2.395c0.778-1.183,2.366-2.395,5.482-2.395
			c1.24,0,2.164,0.26,2.885,0.577c1.991,0.923,2.366,2.683,2.366,4.155v7.646c0,0.491,0.347,0.779,0.664,0.779
			s0.461-0.145,0.577-0.289c0.086-0.087,0.144-0.173,0.173-0.289l1.934,0.952c-0.174,0.346-0.376,0.664-0.635,0.923
			c-0.434,0.461-1.068,0.895-1.905,0.895c-1.5,0-2.683-1.097-2.77-1.875h-0.23c-1.501,1.471-3.175,1.875-4.415,1.875
			c-0.924,0-5.655-0.087-5.655-4.559c0-2.77,2.654-4.04,4.818-4.501l4.703-0.981v-0.577c0-0.808-0.058-2.395-2.597-2.395
			c-1.702,0-2.539,0.635-2.972,1.241c-0.26,0.346-0.404,0.75-0.462,1.211H166.944z M175.745,179.306l-3.462,0.721
			c-1.559,0.317-3.203,1.039-3.203,2.51c0,2.135,2.02,2.193,2.799,2.193h0.115c1.702,0,3.751-1.298,3.751-2.914V179.306z"/>
		<path fill="#404041" d="M191.302,186.836v-9.955c0-0.346-0.029-2.828-1.442-2.828c-1.154,0-2.539,1.645-2.539,5.829v6.954h-2.741
			v-14.802h2.741v1.5h0.346c0.49-0.895,1.472-1.818,3.088-1.818c1.558,0,2.365,0.866,2.799,1.818h0.548
			c0.52-0.895,1.559-1.818,3.231-1.818c3.405,0,3.434,3.751,3.434,4.299v10.82h-2.741v-9.955c0-0.346-0.028-2.828-1.442-2.828
			c-1.125,0-2.481,1.587-2.539,5.54v7.243H191.302z"/>
	</g>
	<g clip-path="url(#SVGID_6_)">
		<path fill="#383738" d="M42.515,430.476c-1.733,1.116-3.144,1.293-4.965,1.293v-2.291c2.38,0,4.965-0.588,4.965-2.82h2.79v20.268
			h-2.79V430.476z"/>
		<path fill="#383738" d="M53.033,432.503v-0.383c0-1.438,1.615-5.697,6.462-5.697c4.288,0,6.521,3.73,6.521,5.757
			c0,1.821-0.499,4.817-5.64,7.108c-2.173,0.969-4.435,2.291-4.435,4.846v0.5h10.867v2.291l-13.952,0.029v-0.852
			c0-5.493,2.174-7.05,6.492-9.105c3.318-1.586,3.76-3.496,3.76-4.611c0-1.41-1.234-3.584-3.584-3.584
			c-2.673,0-3.583,2.673-3.583,3.584v0.117H53.033z"/>
		<path fill="#383738" d="M79.588,445.016c0,1.175-0.94,2.144-2.203,2.144c-1.175,0-2.145-0.969-2.145-2.144
			c0-1.263,0.97-2.203,2.145-2.203C78.648,442.813,79.588,443.753,79.588,445.016z"/>
		<path fill="#383738" d="M99.535,429.449c1.233,1.85,1.821,4.436,1.821,7.284c0,2.907-0.588,5.493-1.821,7.401
			c-1.204,1.881-2.85,3.025-5.053,3.025c-2.262,0-3.936-1.145-5.14-3.025c-1.234-1.908-1.821-4.494-1.821-7.401
			c0-2.849,0.587-5.435,1.821-7.284c1.204-1.852,2.878-3.025,5.14-3.025C96.685,426.423,98.331,427.597,99.535,429.449z
			 M91.457,431.123c-0.646,1.41-1.027,3.407-1.027,5.64s0.382,4.229,1.027,5.669c0.734,1.439,1.704,2.35,2.996,2.35
			c1.264,0,2.232-0.91,2.967-2.35c0.646-1.439,1.028-3.437,1.028-5.669s-0.382-4.229-1.028-5.64c-0.734-1.41-1.703-2.32-2.967-2.32
			C93.161,428.802,92.191,429.712,91.457,431.123z"/>
		<path fill="#383738" d="M117.425,431.945c-0.617-1.851-1.733-3.143-3.848-3.143c-2.762,0-4.142,3.407-4.406,6.639
			c0.44-0.559,2.026-2.262,4.259-2.262c3.937,0,6.903,3.201,6.903,7.107c0,3.789-2.967,6.873-6.756,6.873
			c-3.056,0-5.287-1.762-6.463-4.729c-0.646-1.615-0.91-3.525-0.91-5.758c0-5.785,3.055-10.25,7.52-10.25
			c3.407,0,5.287,1.791,6.345,4.523L117.425,431.945z M109.67,440.169c0,2.585,1.733,4.611,3.878,4.611
			c2.144,0,3.877-2.026,3.877-4.611c0-2.556-1.733-4.611-3.877-4.611C111.404,435.558,109.67,437.614,109.67,440.169z"/>
		<path fill="#383738" d="M133.083,445.016c0,1.175-0.94,2.144-2.203,2.144c-1.175,0-2.145-0.969-2.145-2.144
			c0-1.263,0.97-2.203,2.145-2.203C132.143,442.813,133.083,443.753,133.083,445.016z"/>
		<path fill="#383738" d="M147.743,430.476c-1.733,1.116-3.144,1.293-4.965,1.293v-2.291c2.38,0,4.965-0.588,4.965-2.82h2.79v20.268
			h-2.79V430.476z"/>
		<path fill="#383738" d="M161.08,440.845c0,0,0.294,3.936,3.789,3.936c3.496,0,3.789-3.936,3.789-5.141
			c0-1.469-0.558-4.523-3.26-4.523c-2.291,0-3.349,2.145-3.437,2.674l-2.879-0.294l1.058-10.839h10.516v2.291h-7.96
			c-0.235,2.203-0.323,2.732-0.529,4.994c0.265-0.206,1.733-1.205,3.466-1.205c4.876,0,5.934,4.553,5.934,6.844
			c0,1.733-0.528,7.578-6.727,7.578c-5.434,0-6.491-4.904-6.608-5.874L161.08,440.845z"/>
	</g>
	<g clip-path="url(#SVGID_6_)">
		<path fill="#383738" d="M39.519,503.007v-0.382c0-1.438,1.615-5.698,6.462-5.698c4.288,0,6.521,3.73,6.521,5.758
			c0,1.82-0.499,4.816-5.64,7.107c-2.173,0.97-4.435,2.291-4.435,4.848v0.498h10.867v2.291l-13.952,0.029v-0.852
			c0-5.492,2.174-7.049,6.492-9.105c3.318-1.586,3.76-3.495,3.76-4.611c0-1.41-1.234-3.584-3.584-3.584
			c-2.673,0-3.583,2.674-3.583,3.584v0.117H39.519z"/>
		<path fill="#383738" d="M59.348,511.349c0,0,0.294,3.936,3.789,3.936s3.789-3.936,3.789-5.14c0-1.469-0.559-4.523-3.261-4.523
			c-2.291,0-3.349,2.145-3.437,2.673l-2.879-0.293l1.058-10.84h10.516v2.291h-7.96c-0.235,2.203-0.323,2.732-0.528,4.994
			c0.264-0.205,1.732-1.204,3.466-1.204c4.876,0,5.934,4.553,5.934,6.844c0,1.733-0.529,7.579-6.727,7.579
			c-5.435,0-6.491-4.906-6.609-5.875L59.348,511.349z"/>
		<path fill="#383738" d="M82.526,515.521c0,1.174-0.94,2.145-2.203,2.145c-1.175,0-2.145-0.971-2.145-2.145
			c0-1.264,0.97-2.203,2.145-2.203C81.585,513.318,82.526,514.257,82.526,515.521z"/>
		<path fill="#383738" d="M101.884,499.953c1.234,1.851,1.821,4.436,1.821,7.285c0,2.907-0.587,5.492-1.821,7.402
			c-1.204,1.879-2.849,3.025-5.052,3.025c-2.262,0-3.937-1.146-5.141-3.025c-1.233-1.91-1.821-4.495-1.821-7.402
			c0-2.85,0.588-5.435,1.821-7.285c1.204-1.851,2.879-3.025,5.141-3.025C99.036,496.927,100.68,498.102,101.884,499.953z
			 M93.807,501.626c-0.646,1.41-1.028,3.408-1.028,5.641s0.382,4.229,1.028,5.668c0.734,1.439,1.703,2.35,2.996,2.35
			c1.263,0,2.232-0.91,2.967-2.35c0.646-1.439,1.027-3.436,1.027-5.668s-0.382-4.23-1.027-5.641c-0.734-1.41-1.704-2.32-2.967-2.32
			C95.51,499.306,94.542,500.216,93.807,501.626z"/>
		<path fill="#383738" d="M110.258,512.142c0.616,1.852,1.732,3.143,3.848,3.143c2.761,0,4.142-3.406,4.406-6.638
			c-0.441,0.558-2.027,2.262-4.26,2.262c-3.936,0-6.902-3.202-6.902-7.108c0-3.789,2.967-6.873,6.756-6.873
			c3.055,0,5.287,1.762,6.462,4.729c0.646,1.616,0.91,3.525,0.91,5.758c0,5.787-3.055,10.252-7.52,10.252
			c-3.407,0-5.287-1.793-6.344-4.524L110.258,512.142z M118.012,503.917c0-2.584-1.732-4.611-3.877-4.611s-3.877,2.027-3.877,4.611
			c0,2.557,1.732,4.612,3.877,4.612S118.012,506.474,118.012,503.917z"/>
		<path fill="#383738" d="M134.258,515.521c0,1.174-0.94,2.145-2.203,2.145c-1.175,0-2.145-0.971-2.145-2.145
			c0-1.264,0.97-2.203,2.145-2.203C133.318,513.318,134.258,514.257,134.258,515.521z"/>
		<path fill="#383738" d="M147.184,500.98c-1.732,1.117-3.143,1.293-4.964,1.293v-2.291c2.379,0,4.964-0.588,4.964-2.82h2.791
			v20.268h-2.791V500.98z"/>
		<path fill="#383738" d="M159.934,511.349c0,0,0.294,3.936,3.789,3.936s3.789-3.936,3.789-5.14c0-1.469-0.559-4.523-3.261-4.523
			c-2.291,0-3.349,2.145-3.437,2.673l-2.879-0.293l1.058-10.84h10.516v2.291h-7.96c-0.235,2.203-0.323,2.732-0.528,4.994
			c0.264-0.205,1.732-1.204,3.466-1.204c4.876,0,5.934,4.553,5.934,6.844c0,1.733-0.529,7.579-6.727,7.579
			c-5.435,0-6.491-4.906-6.609-5.875L159.934,511.349z"/>
	</g>
	<g clip-path="url(#SVGID_6_)">
		<path fill="#231F20" d="M205.304,637.058c0.119-1.846,0.655-3.453,1.668-4.941c1.607-2.441,4.882-4.943,11.312-4.943
			c2.56,0,4.465,0.537,5.954,1.191c4.107,1.906,4.882,5.537,4.882,8.574v15.777c0,1.012,0.715,1.607,1.369,1.607
			c0.655,0,0.953-0.297,1.191-0.596c0.179-0.178,0.297-0.355,0.356-0.594l3.989,1.965c-0.356,0.713-0.773,1.369-1.31,1.904
			c-0.894,0.953-2.203,1.846-3.93,1.846c-3.096,0-5.537-2.262-5.716-3.869h-0.477c-3.096,3.035-6.549,3.869-9.109,3.869
			c-1.905,0-11.67-0.178-11.67-9.406c0-5.717,5.478-8.336,9.943-9.289l9.705-2.023v-1.191c0-1.668-0.119-4.941-5.358-4.941
			c-3.513,0-5.24,1.309-6.133,2.559c-0.536,0.715-0.834,1.549-0.953,2.502H205.304z M223.464,642.833l-7.145,1.488
			c-3.216,0.654-6.609,2.143-6.609,5.18c0,4.406,4.168,4.525,5.775,4.525h0.238c3.513,0,7.74-2.68,7.74-6.014V642.833z"/>
		<path fill="#231F20" d="M244.247,658.373V627.83h5.656v4.287h0.476c1.489-1.846,4.823-4.943,9.765-4.943
			c9.824,0,9.884,7.74,9.884,8.873v1.488h-5.656c-0.06-1.25-0.536-5.537-5.299-5.537c-4.168,0-9.169,5.119-9.169,13.754v12.621
			H244.247z"/>
		<path fill="#231F20" d="M287.058,628.187v-11.254h5.656v11.254h14.17v4.584h-14.17v15.42c0,0.715,0.06,5.836,5.299,5.836
			c3.989,0,5.895-2.738,6.608-3.752l4.823,2.68c-2.62,4.109-6.014,5.895-11.432,5.895c-10.896,0-10.955-7.74-10.955-8.871v-17.207
			h-8.038v-4.584H287.058z"/>
		<path fill="#231F20" d="M358.571,658.373V627.83h5.656v4.287h0.477c1.488-1.846,4.822-4.943,9.764-4.943
			c9.824,0,9.884,7.74,9.884,8.873v1.488h-5.656c-0.06-1.25-0.535-5.537-5.299-5.537c-4.168,0-9.169,5.119-9.169,13.754v12.621
			H358.571z"/>
		<path fill="#231F20" d="M406.085,627.173c8.157,0,14.706,6.432,14.706,15.957c0,9.348-6.549,15.719-14.706,15.719
			c-8.276,0-14.825-6.371-14.825-15.719C391.26,633.605,397.809,627.173,406.085,627.173z M406.026,654.027
			c4.822,0,8.871-4.465,8.871-11.016c0-6.49-4.049-11.014-8.871-11.014s-8.871,4.523-8.871,11.014
			C397.155,649.562,401.204,654.027,406.026,654.027z"/>
		<path fill="#231F20" d="M457.054,627.83v30.543h-5.656v-4.346h-0.596c-1.548,1.846-4.703,4.822-9.645,4.822
			c-9.824,0-9.884-7.621-9.884-8.752V627.83h5.656v20.422c0,0.715,0.06,5.775,5.299,5.775c4.168,0,9.169-5.002,9.169-13.516V627.83
			H457.054z"/>
		<path fill="#231F20" d="M474.025,628.187v-11.254h5.656v11.254h14.171v4.584h-14.171v15.42c0,0.715,0.06,5.836,5.3,5.836
			c3.988,0,5.894-2.738,6.608-3.752l4.823,2.68c-2.62,4.109-6.014,5.895-11.432,5.895c-10.896,0-10.956-7.74-10.956-8.871v-17.207
			h-8.037v-4.584H474.025z"/>
		<path fill="#231F20" d="M509.394,644.56c0.536,5.715,4.406,9.467,8.872,9.467c3.632,0,6.728-2.441,8.395-6.49l5.121,2.262
			c-2.263,5.598-7.502,9.051-13.516,9.051c-8.276,0-14.825-6.371-14.825-15.719c0-9.525,6.43-15.957,14.527-15.957
			s14.527,6.432,14.527,15.957v1.43H509.394z M509.632,640.095h16.672c-1.013-4.883-4.406-8.098-8.336-8.098
			C513.979,631.998,510.585,635.212,509.632,640.095z"/>
		<path fill="#231F20" d="M580.549,629.138v-0.773c0-2.918,3.274-11.551,13.099-11.551c8.693,0,13.218,7.562,13.218,11.67
			c0,3.691-1.012,9.766-11.432,14.408c-4.405,1.965-8.99,4.645-8.99,9.824v1.012h22.03v4.645l-28.282,0.061v-1.727
			c0-11.135,4.406-14.291,13.158-18.457c6.729-3.217,7.621-7.086,7.621-9.35c0-2.857-2.5-7.264-7.264-7.264
			c-5.418,0-7.264,5.418-7.264,7.264v0.238H580.549z"/>
		<path fill="#231F20" d="M640.211,622.947c2.5,3.752,3.691,8.99,3.691,14.766c0,5.895-1.191,11.135-3.691,15.004
			c-2.441,3.811-5.775,6.133-10.241,6.133c-4.585,0-7.979-2.322-10.42-6.133c-2.5-3.869-3.691-9.109-3.691-15.004
			c0-5.775,1.191-11.014,3.691-14.766c2.441-3.75,5.835-6.133,10.42-6.133C634.436,616.814,637.77,619.197,640.211,622.947z
			 M623.837,626.341c-1.31,2.857-2.084,6.906-2.084,11.432c0,4.523,0.774,8.572,2.084,11.49c1.488,2.918,3.453,4.764,6.073,4.764
			c2.561,0,4.525-1.846,6.014-4.764c1.31-2.918,2.084-6.967,2.084-11.49c0-4.525-0.774-8.574-2.084-11.432
			c-1.488-2.859-3.453-4.705-6.014-4.705C627.291,621.636,625.326,623.482,623.837,626.341z"/>
		<path fill="#231F20" d="M661.648,625.031c-3.513,2.262-6.371,2.619-10.062,2.619v-4.643c4.823,0,10.062-1.191,10.062-5.717h5.656
			v41.082h-5.656V625.031z"/>
		<path fill="#231F20" d="M685.048,646.048c0,0,0.596,7.979,7.681,7.979s7.681-7.979,7.681-10.42c0-2.977-1.131-9.168-6.608-9.168
			c-4.645,0-6.788,4.346-6.967,5.418L681,639.261l2.144-21.971h21.315v4.645h-16.136c-0.476,4.465-0.654,5.537-1.071,10.121
			c0.536-0.416,3.513-2.441,7.025-2.441c9.884,0,12.027,9.229,12.027,13.873c0,3.514-1.071,15.361-13.635,15.361
			c-11.015,0-13.158-9.943-13.396-11.908L685.048,646.048z"/>
	</g>
	<g clip-path="url(#SVGID_6_)">
		<defs>
			<rect id="SVGID_5_" y="123.729" width="947.305" height="591.56"/>
		</defs>
		<clipPath id="SVGID_7_">
			<use xlink:href="#SVGID_5_"  overflow="visible"/>
		</clipPath>
		<g clip-path="url(#SVGID_7_)">
			<path fill="#404041" d="M674.194,263.717c-1.31,0-2.292-0.953-2.292-2.56v-0.387c0-3.811,4.197-6.043,4.197-6.043l1.102,1.31
				c-1.518,1.191-2.411,2.144-2.857,3.364c1.071,0,2.024,0.953,2.024,2.084C676.368,262.735,675.326,263.717,674.194,263.717z"/>
			<path fill="#404041" d="M690.717,275.387h-3.542l-2.947-15.272h2.798l1.965,11.849l2.382-10.539h3.096l2.411,10.539l1.936-11.849
				h2.798l-2.947,15.272h-3.542l-2.203-10.598L690.717,275.387z"/>
			<path fill="#404041" d="M705.514,275.387v-20.72h2.828v7.591h0.238c0.744-0.923,2.411-2.471,4.882-2.471
				c4.912,0,4.942,3.87,4.942,4.436v11.164h-2.828v-10.271c0-0.357-0.03-2.917-2.649-2.917c-2.084,0-4.585,2.56-4.585,6.877v6.311
				H705.514z"/>
			<path fill="#404041" d="M726.741,268.48c0.269,2.858,2.203,4.733,4.436,4.733c1.816,0,3.364-1.22,4.198-3.245l2.56,1.131
				c-1.131,2.798-3.751,4.525-6.758,4.525c-4.138,0-7.412-3.186-7.412-7.859c0-4.763,3.215-7.979,7.264-7.979
				s7.264,3.215,7.264,7.979v0.714H726.741z M726.86,266.248h8.336c-0.506-2.441-2.203-4.049-4.168-4.049
				C729.034,262.199,727.336,263.807,726.86,266.248z"/>
			<path fill="#404041" d="M743.623,275.387v-15.272h2.828v2.144h0.238c0.744-0.923,2.411-2.471,4.882-2.471
				c4.912,0,4.942,3.87,4.942,4.436v0.744h-2.828c-0.03-0.625-0.269-2.769-2.65-2.769c-2.083,0-4.584,2.56-4.584,6.877v6.311
				H743.623z"/>
			<path fill="#404041" d="M764.849,268.48c0.269,2.858,2.203,4.733,4.436,4.733c1.816,0,3.364-1.22,4.198-3.245l2.56,1.131
				c-1.131,2.798-3.751,4.525-6.758,4.525c-4.138,0-7.412-3.186-7.412-7.859c0-4.763,3.215-7.979,7.264-7.979
				s7.264,3.215,7.264,7.979v0.714H764.849z M764.968,266.248h8.336c-0.506-2.441-2.203-4.049-4.168-4.049
				C767.142,262.199,765.445,263.807,764.968,266.248z"/>
		</g>
	</g>
	<g clip-path="url(#SVGID_6_)">
		<path fill="#404041" d="M707.271,296.019v-5.626h2.828v5.626h7.085v2.292h-7.085v7.71c0,0.357,0.03,2.917,2.649,2.917
			c1.995,0,2.947-1.369,3.305-1.875l2.411,1.34c-1.31,2.054-3.007,2.947-5.716,2.947c-5.447,0-5.478-3.87-5.478-4.436v-8.604h-4.019
			v-2.292H707.271z"/>
		<path fill="#404041" d="M723.973,311.112v-20.72h2.828v7.591h0.238c0.744-0.923,2.411-2.471,4.882-2.471
			c4.912,0,4.942,3.87,4.942,4.436v11.164h-2.828v-10.271c0-0.357-0.03-2.917-2.649-2.917c-2.084,0-4.585,2.56-4.585,6.877v6.311
			H723.973z"/>
		<path fill="#404041" d="M745.2,304.205c0.269,2.858,2.203,4.733,4.436,4.733c1.816,0,3.364-1.22,4.198-3.245l2.56,1.131
			c-1.131,2.798-3.751,4.525-6.758,4.525c-4.138,0-7.412-3.186-7.412-7.859c0-4.763,3.215-7.979,7.264-7.979
			s7.264,3.215,7.264,7.979v0.714H745.2z M745.319,301.973h8.336c-0.506-2.441-2.203-4.049-4.168-4.049
			C747.493,297.924,745.795,299.531,745.319,301.973z"/>
	</g>
	<g clip-path="url(#SVGID_6_)">
		<path fill="#404041" d="M677.35,336.24c-0.09-0.446-0.417-2.59-3.632-2.59c-3.097,0-3.483,1.607-3.483,2.084
			c0,1.667,2.947,1.965,3.989,2.083c2.888,0.298,6.787,0.745,6.787,4.585c0,2.232-1.994,4.674-6.906,4.674
			c-4.674,0-7.294-2.947-7.383-5.329h2.947c0.119,1.25,1.369,2.917,4.376,2.917c3.155,0,4.019-1.28,4.019-2.262
			c0-2.203-2.679-1.965-4.941-2.292c-2.382-0.357-5.835-1.191-5.835-4.376c0-0.774,0.596-4.496,6.371-4.496
			c5.983,0,6.668,4.823,6.698,5.001H677.35z"/>
		<path fill="#404041" d="M686.311,344.546h5.419v-10.687h-4.645v-2.292h7.473v12.979h5.239v2.292h-13.486V344.546z M693.04,325.791
			c1.19,0,2.144,0.953,2.144,2.144c0,1.131-0.953,2.054-2.144,2.054c-1.131,0-2.054-0.923-2.054-2.054
			C690.986,326.744,691.909,325.791,693.04,325.791z"/>
		<path fill="#404041" d="M718.97,346.838h-2.828v-1.697h-0.209c-0.804,0.863-2.352,1.935-4.376,1.935
			c-3.899,0-6.966-3.573-6.966-7.889c0-4.376,3.066-7.949,6.966-7.949c2.024,0,3.603,1.25,4.347,2.084h0.238v-7.204h2.828V346.838z
			 M716.142,339.158c0-3.275-1.578-5.507-4.316-5.507c-2.412,0-4.287,2.411-4.287,5.507s1.875,5.507,4.287,5.507
			c2.649,0,4.227-2.143,4.316-5.269V339.158z"/>
		<path fill="#404041" d="M726.741,339.932c0.269,2.858,2.203,4.733,4.436,4.733c1.816,0,3.364-1.22,4.198-3.245l2.56,1.131
			c-1.131,2.798-3.751,4.525-6.758,4.525c-4.138,0-7.412-3.186-7.412-7.859c0-4.763,3.215-7.979,7.264-7.979
			s7.264,3.215,7.264,7.979v0.714H726.741z M726.86,337.699h8.336c-0.506-2.441-2.203-4.049-4.168-4.049
			C729.034,333.65,727.336,335.258,726.86,337.699z"/>
		<path fill="#404041" d="M747.879,346.838h-3.542l-2.947-15.272h2.798l1.965,11.849l2.382-10.539h3.096l2.411,10.539l1.936-11.849
			h2.798l-2.947,15.272h-3.542l-2.203-10.598L747.879,346.838z"/>
		<path fill="#404041" d="M762.259,336.181c0.06-0.923,0.327-1.727,0.834-2.471c0.804-1.221,2.44-2.471,5.656-2.471
			c1.28,0,2.232,0.268,2.977,0.596c2.055,0.953,2.441,2.769,2.441,4.287v7.889c0,0.506,0.357,0.804,0.685,0.804
			s0.477-0.149,0.596-0.298c0.089-0.089,0.148-0.178,0.179-0.297l1.994,0.982c-0.179,0.357-0.387,0.685-0.655,0.953
			c-0.446,0.476-1.102,0.923-1.965,0.923c-1.548,0-2.769-1.131-2.857-1.935h-0.238c-1.548,1.518-3.274,1.935-4.555,1.935
			c-0.953,0-5.835-0.089-5.835-4.704c0-2.858,2.739-4.168,4.972-4.644l4.853-1.012v-0.596c0-0.833-0.06-2.471-2.68-2.471
			c-1.756,0-2.619,0.655-3.066,1.28c-0.268,0.357-0.416,0.774-0.476,1.25H762.259z M771.339,339.068l-3.572,0.744
			c-1.607,0.328-3.305,1.072-3.305,2.59c0,2.203,2.084,2.262,2.888,2.262h0.119c1.756,0,3.87-1.339,3.87-3.007V339.068z"/>
		<path fill="#404041" d="M781.432,344.546h5.418v-16.135h-4.644v-2.292h7.472v18.427h5.239v2.292h-13.485V344.546z"/>
		<path fill="#404041" d="M801.17,346.838v-20.72h2.828v10.836l5.865-5.388h3.811l-5.716,5.18v0.268l6.906,9.824h-3.274
			l-5.716-8.216l-1.876,1.727v6.49H801.17z"/>
	</g>
	<g clip-path="url(#SVGID_6_)">
		<path fill="#404041" d="M707.687,375.657c0.269,2.858,2.203,4.733,4.436,4.733c1.816,0,3.364-1.22,4.198-3.245l2.56,1.131
			c-1.131,2.798-3.751,4.525-6.758,4.525c-4.138,0-7.412-3.186-7.412-7.859c0-4.763,3.215-7.979,7.264-7.979
			s7.264,3.215,7.264,7.979v0.714H707.687z M707.806,373.425h8.336c-0.506-2.441-2.203-4.049-4.168-4.049
			C709.98,369.376,708.283,370.983,707.806,373.425z"/>
		<path fill="#404041" d="M724.568,382.564v-15.272h2.828v2.144h0.238c0.744-0.923,2.411-2.471,4.882-2.471
			c4.912,0,4.942,3.87,4.942,4.436v11.164h-2.828v-10.271c0-0.357-0.03-2.917-2.65-2.917c-2.083,0-4.584,2.56-4.584,6.877v6.311
			H724.568z"/>
		<path fill="#404041" d="M757.079,382.564h-2.828v-1.697h-0.209c-0.804,0.863-2.352,1.935-4.376,1.935
			c-3.899,0-6.966-3.573-6.966-7.889c0-4.376,3.066-7.949,6.966-7.949c2.024,0,3.603,1.25,4.347,2.084h0.238v-7.204h2.828V382.564z
			 M754.25,374.883c0-3.275-1.578-5.507-4.316-5.507c-2.412,0-4.287,2.411-4.287,5.507s1.875,5.507,4.287,5.507
			c2.649,0,4.227-2.143,4.316-5.269V374.883z"/>
		<path fill="#404041" d="M772.62,371.966c-0.09-0.446-0.417-2.59-3.632-2.59c-3.097,0-3.483,1.607-3.483,2.084
			c0,1.667,2.947,1.965,3.989,2.083c2.888,0.298,6.787,0.745,6.787,4.585c0,2.232-1.994,4.674-6.906,4.674
			c-4.674,0-7.294-2.947-7.383-5.329h2.947c0.119,1.25,1.369,2.917,4.376,2.917c3.155,0,4.019-1.28,4.019-2.262
			c0-2.203-2.679-1.965-4.941-2.292c-2.382-0.357-5.835-1.191-5.835-4.376c0-0.774,0.596-4.496,6.371-4.496
			c5.983,0,6.668,4.823,6.698,5.001H772.62z"/>
		<path fill="#404041" d="M787.863,361.725c1.31,0,2.292,0.953,2.292,2.56v0.387c0,3.811-4.197,6.043-4.197,6.043l-1.102-1.31
			c1.518-1.191,2.411-2.144,2.857-3.364c-1.071,0-2.024-0.953-2.024-2.083C785.689,362.708,786.731,361.725,787.863,361.725z"/>
	</g>
	<g clip-path="url(#SVGID_6_)">
		<defs>
			<rect id="SVGID_2_" y="123.729" width="947.305" height="591.56"/>
		</defs>
		<clipPath id="SVGID_8_">
			<use xlink:href="#SVGID_2_"  overflow="visible"/>
		</clipPath>
		<g clip-path="url(#SVGID_8_)">
			<g>
				<defs>
					<rect id="SVGID_4_" x="11.12" y="456.546" width="187.393" height="27.639"/>
				</defs>
				<clipPath id="SVGID_9_">
					<use xlink:href="#SVGID_4_"  overflow="visible"/>
				</clipPath>
				
					<line clip-path="url(#SVGID_9_)" fill="none" stroke="#FFE500" stroke-width="3.528" stroke-linecap="square" x1="27.179" y1="478.525" x2="182.455" y2="462.207"/>
			</g>
		</g>
		<g clip-path="url(#SVGID_8_)">
			<g>
				<defs>
					<rect id="SVGID_3_" x="589.983" y="230.489" width="279.674" height="240.438"/>
				</defs>
				<clipPath id="SVGID_10_">
					<use xlink:href="#SVGID_3_"  overflow="visible"/>
				</clipPath>
				<path clip-path="url(#SVGID_10_)" fill="none" stroke="#FFE500" stroke-width="3.528" stroke-linecap="round" d="M623.147,316.3
					c4.555-49.935,77.23-75.555,117.02-79.674c32.691-3.386,78.729-6.679,100.684,24.464c17.635,25.015,14.979,64.759,6.412,92.398
					c-10.877,35.103-36.143,59.705-66.957,77.394c-37.34,21.441-79.799,38.365-123.342,35.74
					c-21.854-1.318-54.594-5.908-50.982-35.285c5.383-43.776,43.221-72.149,75.605-94.878"/>
			</g>
		</g>
	</g>
</g>
</svg>
