<?xml version="1.0" encoding="utf-8"?>
<!-- Generator: Adobe Illustrator 15.0.0, SVG Export Plug-In  -->
<!DOCTYPE svg PUBLIC "-//W3C//DTD SVG 1.1//EN" "http://www.w3.org/Graphics/SVG/1.1/DTD/svg11.dtd" [
	<!ENTITY ns_flows "http://ns.adobe.com/Flows/1.0/">
]>
<svg version="1.1"
	 xmlns="http://www.w3.org/2000/svg" xmlns:xlink="http://www.w3.org/1999/xlink" xmlns:a="http://ns.adobe.com/AdobeSVGViewerExtensions/3.0/"
	 x="0px" y="0px" width="606px" height="348px" viewBox="2.439 -7.23 606 348"
	 overflow="visible" enable-background="new 2.439 -7.23 606 348" xml:space="preserve">
<defs>
</defs>
<path d="M38.528,13.801c-5.9,3.8-10.701,4.4-16.901,4.4V10.4c8.101,0,16.901-2,16.901-9.601h9.5v69.004h-9.5V13.801z"/>
<path d="M68.324,20.701v-1.3c0-4.9,5.5-19.401,22.001-19.401c14.601,0,22.201,12.701,22.201,19.601c0,6.2-1.7,16.401-19.201,24.202
	c-7.4,3.3-15.101,7.8-15.101,16.501v1.7h37.002v7.8l-47.503,0.1v-2.9c0-18.701,7.4-24.001,22.102-31.002
	c11.3-5.4,12.801-11.9,12.801-15.701c0-4.8-4.2-12.201-12.201-12.201c-9.1,0-12.201,9.101-12.201,12.201v0.4H68.324z"/>
<path d="M155.623,63.304c0,4-3.2,7.3-7.5,7.3c-4,0-7.3-3.3-7.3-7.3c0-4.3,3.3-7.5,7.3-7.5
	C152.422,55.803,155.623,59.003,155.623,63.304z"/>
<path d="M221.516,10.301c4.2,6.3,6.2,15.101,6.2,24.801c0,9.9-2,18.701-6.2,25.202c-4.1,6.4-9.7,10.3-17.201,10.3
	c-7.7,0-13.4-3.9-17.501-10.3c-4.2-6.5-6.2-15.301-6.2-25.202c0-9.701,2-18.501,6.2-24.801C190.915,4,196.615,0,204.315,0
	C211.816,0,217.417,4,221.516,10.301z M194.015,16.001c-2.2,4.8-3.501,11.601-3.501,19.201s1.301,14.401,3.501,19.301
	c2.5,4.9,5.8,8,10.2,8c4.3,0,7.601-3.1,10.101-8c2.2-4.9,3.5-11.701,3.5-19.301s-1.3-14.401-3.5-19.201
	c-2.5-4.8-5.801-7.9-10.101-7.9C199.815,8.101,196.515,11.201,194.015,16.001z"/>
<path d="M281.41,18.801c-2.102-6.301-5.9-10.701-13.102-10.701c-9.4,0-14.102,11.601-15,22.601c1.5-1.9,6.9-7.7,14.5-7.7
	c13.4,0,23.502,10.9,23.502,24.201c0,12.901-10.102,23.401-23.002,23.401c-10.4,0-18.002-6-22.002-16.101
	c-2.199-5.5-3.1-12.001-3.1-19.602c0-19.701,10.4-34.902,25.602-34.902c11.602,0,18.002,6.1,21.602,15.401L281.41,18.801z
	 M255.008,46.803c0,8.801,5.9,15.701,13.201,15.701s13.201-6.9,13.201-15.701c0-8.701-5.9-15.701-13.201-15.701
	S255.008,38.102,255.008,46.803z"/>
<path d="M336.605,63.304c0,4-3.201,7.3-7.5,7.3c-4.002,0-7.301-3.3-7.301-7.3c0-4.3,3.299-7.5,7.301-7.5
	C333.404,55.803,336.605,59.003,336.605,63.304z"/>
<path d="M372.303,20.701v-1.3c0-4.9,5.5-19.401,22.002-19.401c14.602,0,22.201,12.701,22.201,19.601
	c0,6.2-1.699,16.401-19.201,24.202c-7.4,3.3-15.102,7.8-15.102,16.501v1.7h37.004v7.8l-47.504,0.1v-2.9
	c0-18.701,7.4-24.001,22.102-31.002c11.301-5.4,12.801-11.9,12.801-15.701c0-4.8-4.201-12.201-12.201-12.201
	c-9.1,0-12.201,9.101-12.201,12.201v0.4H372.303z"/>
<path d="M472.502,10.301c4.199,6.3,6.199,15.101,6.199,24.801c0,9.9-2,18.701-6.199,25.202c-4.1,6.4-9.701,10.3-17.201,10.3
	c-7.701,0-13.4-3.9-17.502-10.3c-4.199-6.5-6.199-15.301-6.199-25.202c0-9.701,2-18.501,6.199-24.801C441.9,4,447.6,0,455.301,0
	C462.801,0,468.402,4,472.502,10.301z M445,16.001c-2.199,4.8-3.5,11.601-3.5,19.201s1.301,14.401,3.5,19.301
	c2.5,4.9,5.801,8,10.201,8c4.299,0,7.6-3.1,10.1-8c2.201-4.9,3.5-11.701,3.5-19.301s-1.299-14.401-3.5-19.201
	c-2.5-4.8-5.801-7.9-10.1-7.9C450.801,8.101,447.5,11.201,445,16.001z"/>
<path d="M512.496,13.801c-5.9,3.8-10.699,4.4-16.9,4.4V10.4c8.1,0,16.9-2,16.9-9.601h9.502v69.004h-9.502V13.801z"/>
<path d="M552.788,49.103c0,0,1,13.401,12.9,13.401s12.9-13.401,12.9-17.501c0-5-1.9-15.401-11.102-15.401
	c-7.799,0-11.4,7.301-11.699,9.101l-9.801-1l3.6-36.902h35.803v7.801h-27.102c-0.801,7.5-1.102,9.3-1.801,17.001
	c0.9-0.7,5.9-4.1,11.801-4.1c16.602,0,20.201,15.501,20.201,23.301c0,5.9-1.801,25.801-22.9,25.801
	c-18.502,0-22.102-16.701-22.502-20.001L552.788,49.103z"/>
<path d="M30.333,281.223v-1.301c0-4.9,5.5-19.401,22.001-19.401c14.601,0,22.201,12.701,22.201,19.602
	c0,6.2-1.7,16.401-19.201,24.201c-7.4,3.301-15.101,7.801-15.101,16.501v1.7h37.002v7.801l-47.503,0.1v-2.899
	c0-18.701,7.4-24.002,22.102-31.002c11.3-5.4,12.801-11.901,12.801-15.701c0-4.801-4.2-12.201-12.201-12.201
	c-9.1,0-12.201,9.101-12.201,12.201v0.4H30.333z"/>
<path d="M151.613,323.825c0,4-3.2,7.3-7.501,7.3c-4,0-7.3-3.3-7.3-7.3c0-4.301,3.3-7.501,7.3-7.501
	C148.413,316.324,151.613,319.524,151.613,323.825z"/>
<path d="M225.512,270.821c4.2,6.301,6.2,15.102,6.2,24.802c0,9.9-2,18.701-6.2,25.201c-4.1,6.4-9.7,10.301-17.201,10.301
	c-7.7,0-13.4-3.9-17.501-10.301c-4.2-6.5-6.2-15.301-6.2-25.201c0-9.7,2-18.501,6.2-24.802c4.101-6.3,9.801-10.301,17.501-10.301
	C215.812,260.521,221.413,264.521,225.512,270.821z M198.011,276.521c-2.2,4.801-3.501,11.602-3.501,19.201
	c0,7.601,1.301,14.401,3.501,19.302c2.5,4.9,5.8,8,10.2,8c4.3,0,7.601-3.1,10.101-8c2.2-4.9,3.5-11.701,3.5-19.302
	c0-7.6-1.3-14.4-3.5-19.201c-2.5-4.8-5.801-7.9-10.101-7.9C203.811,268.621,200.511,271.722,198.011,276.521z"/>
<path d="M258.014,312.324c2.101,6.3,5.901,10.7,13.103,10.7c9.4,0,14.1-11.601,15-22.601c-1.5,1.899-6.9,7.7-14.5,7.7
	c-13.403,0-23.505-10.9-23.505-24.202c0-12.9,10.102-23.401,23.005-23.401c10.4,0,18,6.001,22,16.102
	c2.201,5.5,3.102,12.001,3.102,19.601c0,19.701-10.402,34.902-25.602,34.902c-11.602,0-18.005-6.101-21.604-15.4L258.014,312.324z
	 M284.417,284.322c0-8.801-5.9-15.701-13.201-15.701s-13.202,6.9-13.202,15.701c0,8.7,5.901,15.701,13.202,15.701
	S284.417,293.022,284.417,284.322z"/>
<path d="M339.612,323.825c0,4-3.201,7.3-7.5,7.3c-4.002,0-7.301-3.3-7.301-7.3c0-4.301,3.299-7.501,7.301-7.501
	C336.411,316.324,339.612,319.524,339.612,323.825z"/>
<path d="M368.305,281.223v-1.301c0-4.9,5.5-19.401,22.002-19.401c14.602,0,22.201,12.701,22.201,19.602
	c0,6.2-1.699,16.401-19.201,24.201c-7.4,3.301-15.102,7.801-15.102,16.501v1.7h37.004v7.801l-47.504,0.1v-2.899
	c0-18.701,7.4-24.002,22.102-31.002c11.301-5.4,12.801-11.901,12.801-15.701c0-4.801-4.201-12.201-12.201-12.201
	c-9.1,0-12.201,9.101-12.201,12.201v0.4H368.305z"/>
<path d="M470.506,270.821c4.199,6.301,6.199,15.102,6.199,24.802c0,9.9-2,18.701-6.199,25.201c-4.1,6.4-9.701,10.301-17.201,10.301
	c-7.701,0-13.4-3.9-17.502-10.301c-4.199-6.5-6.199-15.301-6.199-25.201c0-9.7,2-18.501,6.199-24.802
	c4.102-6.3,9.801-10.301,17.502-10.301C460.805,260.521,466.406,264.521,470.506,270.821z M443.004,276.521
	c-2.199,4.801-3.5,11.602-3.5,19.201c0,7.601,1.301,14.401,3.5,19.302c2.5,4.9,5.801,8,10.201,8c4.299,0,7.6-3.1,10.1-8
	c2.201-4.9,3.5-11.701,3.5-19.302c0-7.6-1.299-14.4-3.5-19.201c-2.5-4.8-5.801-7.9-10.1-7.9
	C448.805,268.621,445.504,271.722,443.004,276.521z"/>
<path d="M509.499,274.322c-5.9,3.8-10.699,4.399-16.9,4.399v-7.8c8.1,0,16.9-2,16.9-9.601h9.502v69.004h-9.502V274.322z"/>
<path d="M552.794,309.624c0,0,1,13.4,12.9,13.4s12.9-13.4,12.9-17.501c0-5-1.9-15.4-11.102-15.4c-7.799,0-11.4,7.3-11.699,9.101
	l-9.801-1l3.6-36.902h35.803v7.8h-27.102c-0.801,7.501-1.102,9.301-1.801,17.001c0.9-0.699,5.9-4.1,11.801-4.1
	c16.602,0,20.201,15.501,20.201,23.301c0,5.9-1.801,25.802-22.9,25.802c-18.502,0-22.102-16.701-22.502-20.001L552.794,309.624z"/>
<path d="M96.509,331.357v-0.301c0-32.002,14.401-51.803,22.602-60.903H86.109v-7.801h44.103v7.001c0,0-24.102,19.201-24.102,61.703
	v0.301H96.509z"/>
<line fill="none" stroke="#FFCC00" stroke-width="20" stroke-miterlimit="10" x1="0.591" y1="188.975" x2="654.58" y2="150.231"/>
</svg>
