<?xml version="1.0" encoding="utf-8"?>
<!-- Generator: Adobe Illustrator 15.0.0, SVG Export Plug-In . SVG Version: 6.00 Build 0)  -->
<!DOCTYPE svg PUBLIC "-//W3C//DTD SVG 1.1//EN" "http://www.w3.org/Graphics/SVG/1.1/DTD/svg11.dtd">
<svg version="1.1" id="Layer_1" xmlns="http://www.w3.org/2000/svg" xmlns:xlink="http://www.w3.org/1999/xlink" x="0px" y="0px"
	 width="390px" height="87.5px" viewBox="0 0 390 87.5" enable-background="new 0 0 390 87.5" xml:space="preserve">
<g>
	<path d="M57.203,17.146H20.401v21.601h32.802v8.301H20.401V69.55h38.803v8.3H10.701V8.846h46.502V17.146z"/>
	<path d="M126.604,8.846L104.802,77.85H93.202L71.3,8.846h10.201L99.002,67.25l17.401-58.404H126.604z"/>
	<path d="M185.203,17.146h-36.802v21.601h32.802v8.301h-32.802V69.55h38.803v8.3h-48.503V8.846h46.502V17.146z"/>
	<path d="M252.604,8.846V77.85h-14.901l-26.602-58.703V77.85h-9.7V8.846h14.901l26.602,58.904V8.846H252.604z"/>
	<path d="M318.704,17.146h-23.002V77.85h-9.7V17.146H263.2V8.846h55.504V17.146z"/>
	<path d="M379.703,27.647h-10.5c-1.601-7.601-7.4-11.201-16.302-11.201c-6.2,0-14.601,3.2-14.601,10.701
		c0,7.8,9.201,9.801,17.301,10.601c12.901,1.2,27.702,4.1,27.702,19.702c0,14.601-11.201,21.201-25.802,21.201
		c-16.701,0-28.502-8.9-30.702-24.102h10.201c2.2,10.4,9.601,15.701,20.001,15.701c8.501,0,16.201-2.5,16.201-12.801
		c0-8.001-6-9.9-18.801-11.301c-11.801-1.301-26.202-5-26.202-19.001c0-11.901,12.601-19.101,24.401-19.101
		C366.703,8.046,376.804,14.146,379.703,27.647z"/>
</g>
</svg>
