<?xml version="1.0" encoding="utf-8"?>
<!-- Generator: Adobe Illustrator 15.0.0, SVG Export Plug-In  -->
<!DOCTYPE svg PUBLIC "-//W3C//DTD SVG 1.1//EN" "http://www.w3.org/Graphics/SVG/1.1/DTD/svg11.dtd" [
	<!ENTITY ns_flows "http://ns.adobe.com/Flows/1.0/">
]>
<svg version="1.1"
	 xmlns="http://www.w3.org/2000/svg" xmlns:xlink="http://www.w3.org/1999/xlink" xmlns:a="http://ns.adobe.com/AdobeSVGViewerExtensions/3.0/"
	 x="0px" y="0px" width="767px" height="88px" viewBox="-2.8 -5.229 767 88"
	 overflow="visible" enable-background="new -2.8 -5.229 767 88" xml:space="preserve">
<defs>
</defs>
<path d="M47.003,60.604c-2.1,4.4-8.901,10.001-17.201,10.001c-8.301,0-15.401-3.4-20.901-9.501C3.4,54.903,0,46.103,0,35.302
	C0,24.602,3.4,15.801,9,9.601C14.401,3.5,21.501,0,29.802,0c13.201,0,26.901,8.5,26.901,24.702h-9.601
	c0-9.901-8.3-16.301-17.301-16.301c-13.001,0-19.701,14.001-19.701,26.902c0,8.3,2.3,15.001,6,19.701c3.6,4.6,8.2,7.2,13.701,7.2
	c10.4,0,17.701-11,17.801-20.801l-18.701,0.1v-8.3h27.801v36.602h-9.7V60.604z"/>
<path d="M115.403,9.101H78.601v21.601h32.802v8.301H78.601v22.501h38.803v8.3H68.9V0.8h46.502V9.101z"/>
<path d="M182.903,9.101h-23.001v60.704h-9.701V9.101H127.4V0.8h55.503V9.101z"/>
<path d="M260.6,0.8h45.303v8.301h-17.801v52.403h17.801v8.3H260.6v-8.3h17.801V9.101H260.6V0.8z"/>
<path d="M372.803,0.8v69.004h-14.902l-26.602-58.704v58.704H321.6V0.8h14.9l26.602,58.904V0.8H372.803z"/>
<path d="M502.903,9.101h-23.002v60.704h-9.699V9.101h-22.803V0.8h55.504V9.101z"/>
<path d="M516.6,9.801C521.901,3.7,529.5,0.2,537.401,0.2c7.801,0,15.301,3.5,20.502,9.601c5.301,6.2,8.5,14.901,8.5,25.602
	c0,10.8-3.199,19.501-8.4,25.701c-5.301,6.101-12.801,9.501-20.602,9.501c-7.9,0-15.5-3.4-20.9-9.601
	c-5.201-6.101-8.502-14.801-8.502-25.602C507.999,24.702,511.299,16.001,516.6,9.801z M523.901,54.903
	c3.299,4.7,8.199,7.3,13.301,7.3c5.199,0,10.1-2.6,13.4-7.3c3.6-4.5,5.701-11.201,5.701-19.601c0-8.301-2.102-15.001-5.701-19.501
	c-3.301-4.7-8.201-7.4-13.4-7.4c-5.102,0-10.002,2.7-13.301,7.4c-3.701,4.5-5.801,11.201-5.801,19.501
	C518.1,43.703,520.2,50.403,523.901,54.903z"/>
<path d="M617.102,40.902V0.8h9.701v42.903c0,15.301-5.602,26.902-25.602,26.902c-20.002,0-25.602-11.601-25.602-26.902V0.8h9.699
	v40.103c0,12.001,1,21.301,15.902,21.301C616.102,62.204,617.102,52.903,617.102,40.902z"/>
<path d="M665.602,62.204c9.799,0,15-8.601,17.301-17.301h10.1c-1.6,8-5.5,14.701-10.1,19.101c-4.9,4.3-10.801,6.601-17.301,6.601
	c-8.201,0-15.803-3.4-20.902-9.601c-5.301-6.101-8.701-14.801-8.701-25.602c0-10.701,3.301-19.401,8.801-25.602
	C649.901,3.7,657.401,0.2,665.602,0.2c13.699,0,24,10.8,27,24.501h-10.199C680.702,18.001,674.901,8.4,665.602,8.4
	c-12.701,0-19.502,14.301-19.502,26.902C646.1,48.203,652.7,62.204,665.602,62.204z"/>
<path d="M703.6,69.804V0.8h9.699v28.602h31.803V0.8h9.701v69.004h-9.701V37.702h-31.803v32.102H703.6z"/>
</svg>
