<?xml version="1.0" encoding="utf-8"?>
<!-- Generator: Adobe Illustrator 15.0.0, SVG Export Plug-In . SVG Version: 6.00 Build 0)  -->
<!DOCTYPE svg PUBLIC "-//W3C//DTD SVG 1.1//EN" "http://www.w3.org/Graphics/SVG/1.1/DTD/svg11.dtd">
<svg version="1.1" id="Layer_1" xmlns="http://www.w3.org/2000/svg" xmlns:xlink="http://www.w3.org/1999/xlink" x="0px" y="0px"
	 width="737.329px" height="57.7px" viewBox="0 0 737.329 57.7" enable-background="new 0 0 737.329 57.7" xml:space="preserve">
<g>
	<path d="M-847.493-72.119c0.2-3.1,1.1-5.8,2.8-8.3c2.7-4.101,8.201-8.301,19.001-8.301c4.3,0,7.5,0.9,10.001,2
		c6.9,3.2,8.2,9.3,8.2,14.4v26.502c0,1.7,1.2,2.7,2.3,2.7s1.6-0.5,2-1c0.3-0.3,0.5-0.6,0.6-1l6.701,3.3c-0.6,1.2-1.3,2.3-2.2,3.2
		c-1.5,1.6-3.7,3.101-6.601,3.101c-5.2,0-9.3-3.8-9.601-6.5h-0.8c-5.201,5.1-11.001,6.5-15.301,6.5c-3.2,0-19.601-0.3-19.601-15.801
		c0-9.601,9.201-14.001,16.701-15.601l16.301-3.4v-2c0-2.8-0.2-8.3-9-8.3c-5.9,0-8.801,2.2-10.301,4.3c-0.9,1.2-1.4,2.6-1.6,4.2
		H-847.493z M-816.991-62.418l-12,2.5c-5.4,1.1-11.101,3.6-11.101,8.701c0,7.4,7,7.601,9.701,7.601h0.4c5.9,0,13-4.5,13-10.101
		V-62.418z"/>
	<path d="M-782.093-36.316V-87.62h9.5v7.201h0.8c2.5-3.1,8.101-8.301,16.401-8.301c16.501,0,16.601,13.001,16.601,14.901v2.5h-9.5
		c-0.1-2.1-0.9-9.301-8.9-9.301c-7,0-15.401,8.601-15.401,23.102v21.201H-782.093z"/>
	<path d="M-710.192-87.02v-18.901h9.5v18.901h23.802v7.701h-23.802v25.901c0,1.2,0.1,9.801,8.9,9.801c6.7,0,9.9-4.601,11.101-6.301
		l8.101,4.5c-4.4,6.9-10.101,9.901-19.201,9.901c-18.301,0-18.401-13.001-18.401-14.901v-28.901h-13.501v-7.701H-710.192z"/>
	<path d="M-590.093-36.316V-87.62h9.5v7.201h0.801c2.5-3.1,8.1-8.301,16.4-8.301c16.5,0,16.602,13.001,16.602,14.901v2.5h-9.502
		c-0.1-2.1-0.898-9.301-8.9-9.301c-7,0-15.4,8.601-15.4,23.102v21.201H-590.093z"/>
	<path d="M-504.292-88.72c13.701,0,24.701,10.801,24.701,26.802c0,15.701-11,26.402-24.701,26.402
		c-13.9,0-24.902-10.701-24.902-26.402C-529.194-77.919-518.192-88.72-504.292-88.72z M-504.392-43.617c8.1,0,14.9-7.5,14.9-18.501
		c0-10.9-6.801-18.501-14.9-18.501c-8.102,0-14.902,7.601-14.902,18.501C-519.294-51.117-512.493-43.617-504.392-43.617z"/>
	<path d="M-418.69-87.62v51.303h-9.5v-7.3h-1c-2.602,3.1-7.902,8.101-16.201,8.101c-16.502,0-16.602-12.801-16.602-14.701V-87.62
		h9.5v34.302c0,1.2,0.1,9.701,8.9,9.701c7,0,15.402-8.401,15.402-22.702V-87.62H-418.69z"/>
	<path d="M-390.192-87.02v-18.901h9.5v18.901h23.801v7.701h-23.801v25.901c0,1.2,0.1,9.801,8.9,9.801
		c6.701,0,9.9-4.601,11.102-6.301l8.1,4.5c-4.4,6.9-10.1,9.901-19.201,9.901c-18.301,0-18.4-13.001-18.4-14.901v-28.901h-13.502
		v-7.701H-390.192z"/>
	<path d="M-326.792-59.518c0.898,9.601,7.4,15.901,14.9,15.901c6.1,0,11.301-4.101,14.1-10.901l8.602,3.8
		c-3.801,9.4-12.602,15.201-22.701,15.201c-13.9,0-24.902-10.701-24.902-26.402c0-16.001,10.801-26.802,24.402-26.802
		c13.6,0,24.4,10.801,24.4,26.802v2.4H-326.792z M-326.394-67.018h28.002c-1.699-8.201-7.4-13.601-14-13.601
		C-319.093-80.619-324.792-75.219-326.394-67.018z"/>
</g>
<g>
	<path d="M-806.59-143.517c-2.1,4.4-8.901,10.001-17.201,10.001c-8.301,0-15.401-3.4-20.901-9.501c-5.5-6.2-8.9-15.001-8.9-25.801
		c0-10.701,3.4-19.501,9-25.702c5.4-6.101,12.5-9.601,20.801-9.601c13.201,0,26.901,8.5,26.901,24.702h-9.601
		c0-9.901-8.3-16.301-17.301-16.301c-13.001,0-19.701,14.001-19.701,26.902c0,8.3,2.3,15.001,6,19.701c3.6,4.6,8.2,7.2,13.701,7.2
		c10.4,0,17.701-11,17.801-20.801l-18.701,0.1v-8.3h27.801v36.602h-9.7V-143.517z"/>
	<path d="M-738.19-195.02h-36.802v21.601h32.802v8.301h-32.802v22.501h38.803v8.3h-48.503v-69.004h46.502V-195.02z"/>
	<path d="M-668.69-195.02h-23.001v60.704h-9.701v-60.704h-22.801v-8.301h55.503V-195.02z"/>
	<path d="M-581.192-142.617h37.701v8.3h-47.402v-69.004h9.701V-142.617z"/>
	<path d="M-524.993-194.32c5.301-6.101,12.9-9.601,20.801-9.601c7.801,0,15.301,3.5,20.502,9.601c5.301,6.2,8.5,14.901,8.5,25.602
		c0,10.8-3.199,19.501-8.4,25.701c-5.301,6.101-12.801,9.501-20.602,9.501c-7.9,0-15.5-3.4-20.9-9.601
		c-5.201-6.101-8.502-14.801-8.502-25.602C-533.595-179.419-530.294-188.12-524.993-194.32z M-517.692-149.217
		c3.299,4.7,8.199,7.3,13.301,7.3c5.199,0,10.1-2.6,13.4-7.3c3.6-4.5,5.701-11.201,5.701-19.601c0-8.301-2.102-15.001-5.701-19.501
		c-3.301-4.7-8.201-7.4-13.4-7.4c-5.102,0-10.002,2.7-13.301,7.4c-3.701,4.5-5.801,11.201-5.801,19.501
		C-523.493-160.418-521.394-153.718-517.692-149.217z"/>
	<path d="M-415.69-184.52h-10.5c-1.602-7.601-7.4-11.201-16.303-11.201c-6.199,0-14.6,3.2-14.6,10.701
		c0,7.8,9.201,9.801,17.301,10.601c12.9,1.2,27.701,4.1,27.701,19.701c0,14.601-11.201,21.202-25.801,21.202
		c-16.701,0-28.502-8.901-30.703-24.102h10.201c2.201,10.4,9.602,15.701,20.002,15.701c8.5,0,16.201-2.5,16.201-12.801
		c0-8-6-9.9-18.801-11.301c-11.801-1.3-26.203-5-26.203-19.001c0-11.901,12.602-19.101,24.402-19.101
		C-428.69-204.121-418.591-198.021-415.69-184.52z"/>
	<path d="M-348.69-195.02h-23.002v60.704h-9.699v-60.704h-22.803v-8.301h55.504V-195.02z"/>
</g>
<g>
	<path d="M-846.799,20.228h-4.641l-3.861-20.008h3.666l2.574,15.522l3.12-13.806h4.056l3.159,13.806l2.535-15.522h3.666
		l-3.861,20.008h-4.641l-2.886-13.884L-846.799,20.228z"/>
	<path d="M-827.417,20.228V-6.917h3.705v9.945h0.312c0.975-1.209,3.159-3.237,6.396-3.237c6.435,0,6.474,5.07,6.474,5.812v14.625
		h-3.705V6.772c0-0.468-0.039-3.822-3.471-3.822c-2.73,0-6.006,3.354-6.006,9.01v8.268H-827.417z"/>
	<path d="M-799.609,11.179c0.351,3.744,2.886,6.201,5.811,6.201c2.379,0,4.407-1.599,5.5-4.251l3.354,1.482
		c-1.482,3.666-4.914,5.928-8.854,5.928c-5.421,0-9.711-4.173-9.711-10.296c0-6.24,4.212-10.453,9.516-10.453
		s9.516,4.212,9.516,10.453v0.936H-799.609z M-799.454,8.254h10.921c-0.663-3.198-2.886-5.304-5.46-5.304
		C-796.606,2.95-798.83,5.056-799.454,8.254z"/>
	<path d="M-777.497,20.228V0.22h3.705v2.808h0.312c0.975-1.209,3.159-3.237,6.396-3.237c6.435,0,6.474,5.07,6.474,5.812v0.975
		h-3.705c-0.039-0.819-0.351-3.627-3.471-3.627c-2.73,0-6.006,3.354-6.006,9.01v8.268H-777.497z"/>
	<path d="M-749.689,11.179c0.351,3.744,2.886,6.201,5.811,6.201c2.379,0,4.407-1.599,5.5-4.251l3.354,1.482
		c-1.482,3.666-4.914,5.928-8.854,5.928c-5.421,0-9.711-4.173-9.711-10.296c0-6.24,4.212-10.453,9.516-10.453
		s9.516,4.212,9.516,10.453v0.936H-749.689z M-749.534,8.254h10.921c-0.663-3.198-2.886-5.304-5.46-5.304
		C-746.687,2.95-748.91,5.056-749.534,8.254z"/>
	<path d="M-699.536,0.454v-7.371h3.705v7.371h9.282v3.003h-9.282v10.101c0,0.468,0.039,3.822,3.472,3.822
		c2.612,0,3.86-1.794,4.329-2.457l3.159,1.755c-1.717,2.691-3.939,3.861-7.488,3.861c-7.138,0-7.177-5.07-7.177-5.811V3.457h-5.265
		V0.454H-699.536z"/>
	<path d="M-677.656,20.228V-6.917h3.705v9.945h0.312c0.976-1.209,3.159-3.237,6.396-3.237c6.436,0,6.474,5.07,6.474,5.812v14.625
		h-3.705V6.772c0-0.468-0.039-3.822-3.471-3.822c-2.73,0-6.006,3.354-6.006,9.01v8.268H-677.656z"/>
	<path d="M-649.849,11.179c0.351,3.744,2.886,6.201,5.812,6.201c2.379,0,4.407-1.599,5.499-4.251l3.354,1.482
		c-1.481,3.666-4.914,5.928-8.853,5.928c-5.422,0-9.712-4.173-9.712-10.296c0-6.24,4.213-10.453,9.517-10.453
		s9.517,4.212,9.517,10.453v0.936H-649.849z M-649.693,8.254h10.92c-0.663-3.198-2.886-5.304-5.46-5.304
		C-646.846,2.95-649.069,5.056-649.693,8.254z"/>
	<path d="M-589.749,6.343c-0.117-0.585-0.547-3.394-4.76-3.394c-4.055,0-4.562,2.106-4.562,2.73c0,2.184,3.861,2.574,5.227,2.73
		c3.783,0.39,8.893,0.975,8.893,6.006c0,2.925-2.613,6.123-9.049,6.123c-6.123,0-9.555-3.861-9.672-6.981h3.861
		c0.156,1.638,1.793,3.822,5.732,3.822c4.135,0,5.266-1.677,5.266-2.964c0-2.886-3.51-2.574-6.475-3.003
		c-3.119-0.468-7.645-1.56-7.645-5.733c0-1.014,0.781-5.89,8.346-5.89c7.84,0,8.736,6.318,8.775,6.553H-589.749z"/>
	<path d="M-578.011,17.225h7.098V3.223h-6.084V0.22h9.789v17.005h6.865v3.003h-17.668V17.225z M-569.196-7.347
		c1.559,0,2.807,1.248,2.807,2.808c0,1.482-1.248,2.691-2.807,2.691c-1.482,0-2.691-1.209-2.691-2.691
		C-571.888-6.099-570.679-7.347-569.196-7.347z"/>
	<path d="M-535.228,20.228h-3.705v-2.223h-0.273c-1.053,1.131-3.08,2.535-5.732,2.535c-5.109,0-9.127-4.68-9.127-10.335
		c0-5.733,4.018-10.414,9.127-10.414c2.652,0,4.719,1.638,5.693,2.73h0.312v-9.438h3.705V20.228z M-538.933,10.165
		c0-4.29-2.066-7.215-5.656-7.215c-3.158,0-5.615,3.159-5.615,7.215s2.457,7.215,5.615,7.215c3.473,0,5.539-2.808,5.656-6.903
		V10.165z"/>
	<path d="M-525.05,11.179c0.352,3.744,2.887,6.201,5.812,6.201c2.379,0,4.406-1.599,5.498-4.251l3.355,1.482
		c-1.482,3.666-4.916,5.928-8.854,5.928c-5.422,0-9.713-4.173-9.713-10.296c0-6.24,4.213-10.453,9.518-10.453
		s9.516,4.212,9.516,10.453v0.936H-525.05z M-524.894,8.254h10.92c-0.662-3.198-2.885-5.304-5.459-5.304
		C-522.046,2.95-524.269,5.056-524.894,8.254z"/>
	<path d="M-497.358,20.228h-4.643l-3.861-20.008h3.666l2.574,15.522l3.121-13.806h4.057l3.158,13.806l2.535-15.522h3.666
		l-3.861,20.008h-4.641l-2.887-13.884L-497.358,20.228z"/>
	<path d="M-478.522,6.265c0.078-1.209,0.43-2.262,1.092-3.237c1.053-1.599,3.199-3.237,7.41-3.237c1.678,0,2.926,0.351,3.9,0.78
		c2.691,1.248,3.197,3.627,3.197,5.616v10.335c0,0.663,0.469,1.053,0.898,1.053c0.428,0,0.623-0.195,0.779-0.39
		c0.117-0.117,0.195-0.234,0.234-0.39l2.613,1.287c-0.234,0.468-0.508,0.897-0.857,1.248c-0.586,0.624-1.443,1.209-2.574,1.209
		c-2.029,0-3.627-1.482-3.744-2.535h-0.312c-2.029,1.989-4.291,2.535-5.967,2.535c-1.248,0-7.645-0.117-7.645-6.162
		c0-3.744,3.588-5.46,6.514-6.084l6.355-1.326v-0.78c0-1.092-0.076-3.237-3.51-3.237c-2.301,0-3.432,0.858-4.018,1.677
		c-0.35,0.468-0.545,1.014-0.623,1.638H-478.522z M-466.628,10.048l-4.68,0.975c-2.105,0.429-4.328,1.404-4.328,3.394
		c0,2.886,2.729,2.964,3.783,2.964h0.156c2.301,0,5.068-1.755,5.068-3.939V10.048z"/>
	<path d="M-453.407,17.225h7.1V-3.915h-6.084v-3.003h9.789v24.142h6.863v3.003h-17.668V17.225z"/>
	<path d="M-427.55,20.228V-6.917h3.705V7.279l7.684-7.059h4.992l-7.488,6.786v0.351l9.049,12.871h-4.291l-7.488-10.764l-2.457,2.262
		v8.502H-427.55z"/>
	<path d="M-375.29,11.179c0.352,3.744,2.887,6.201,5.812,6.201c2.379,0,4.406-1.599,5.498-4.251l3.355,1.482
		c-1.482,3.666-4.916,5.928-8.854,5.928c-5.422,0-9.713-4.173-9.713-10.296c0-6.24,4.213-10.453,9.518-10.453
		s9.516,4.212,9.516,10.453v0.936H-375.29z M-375.134,8.254h10.92c-0.662-3.198-2.885-5.304-5.459-5.304
		C-372.286,2.95-374.509,5.056-375.134,8.254z"/>
	<path d="M-353.177,20.228V0.22h3.705v2.808h0.312c0.975-1.209,3.158-3.237,6.396-3.237c6.436,0,6.475,5.07,6.475,5.812v14.625
		h-3.707V6.772c0-0.468-0.037-3.822-3.471-3.822c-2.73,0-6.006,3.354-6.006,9.01v8.268H-353.177z"/>
	<path d="M-310.589,20.228h-3.705v-2.223h-0.271c-1.055,1.131-3.082,2.535-5.734,2.535c-5.109,0-9.125-4.68-9.125-10.335
		c0-5.733,4.016-10.414,9.125-10.414c2.652,0,4.719,1.638,5.695,2.73h0.311v-9.438h3.705V20.228z M-314.294,10.165
		c0-4.29-2.066-7.215-5.654-7.215c-3.16,0-5.617,3.159-5.617,7.215s2.457,7.215,5.617,7.215c3.471,0,5.537-2.808,5.654-6.903V10.165
		z"/>
	<path d="M-290.229,6.343c-0.117-0.585-0.547-3.394-4.76-3.394c-4.055,0-4.562,2.106-4.562,2.73c0,2.184,3.861,2.574,5.227,2.73
		c3.783,0.39,8.893,0.975,8.893,6.006c0,2.925-2.613,6.123-9.049,6.123c-6.123,0-9.555-3.861-9.672-6.981h3.861
		c0.156,1.638,1.793,3.822,5.732,3.822c4.135,0,5.266-1.677,5.266-2.964c0-2.886-3.51-2.574-6.475-3.003
		c-3.119-0.468-7.645-1.56-7.645-5.733c0-1.014,0.781-5.89,8.346-5.89c7.84,0,8.736,6.318,8.775,6.553H-290.229z"/>
</g>
<g>
	<path d="M105.143-68.785c0.2-3.1,1.101-5.8,2.8-8.3c2.701-4.101,8.201-8.301,19.002-8.301c4.3,0,7.5,0.9,10,2
		c6.9,3.2,8.201,9.3,8.201,14.4v26.502c0,1.7,1.199,2.7,2.3,2.7s1.601-0.5,2-1c0.3-0.3,0.5-0.6,0.601-1l6.7,3.3
		c-0.601,1.2-1.3,2.3-2.2,3.2c-1.5,1.6-3.7,3.101-6.601,3.101c-5.2,0-9.3-3.8-9.601-6.5h-0.8c-5.2,5.1-11.001,6.5-15.302,6.5
		c-3.199,0-19.601-0.3-19.601-15.801c0-9.601,9.2-14.001,16.701-15.601l16.301-3.4v-2c0-2.8-0.2-8.3-9.001-8.3
		c-5.9,0-8.801,2.2-10.301,4.3c-0.899,1.2-1.399,2.6-1.6,4.2H105.143z M135.645-59.084l-12.001,2.5
		c-5.4,1.1-11.101,3.6-11.101,8.701c0,7.4,7.001,7.601,9.7,7.601h0.4c5.9,0,13.001-4.5,13.001-10.101V-59.084z"/>
	<path d="M170.543-32.983v-51.303h9.501v7.201h0.799c2.501-3.1,8.102-8.301,16.402-8.301c16.5,0,16.6,13.001,16.6,14.901v2.5h-9.5
		c-0.1-2.1-0.9-9.301-8.9-9.301c-7,0-15.4,8.601-15.4,23.102v21.201H170.543z"/>
	<path d="M242.443-83.686v-18.901h9.501v18.901h23.801v7.701h-23.801v25.901c0,1.2,0.1,9.801,8.9,9.801
		c6.699,0,9.9-4.601,11.1-6.301l8.102,4.5c-4.4,6.9-10.102,9.901-19.201,9.901c-18.301,0-18.401-13.001-18.401-14.901v-28.901
		h-13.501v-7.701H242.443z"/>
	<path d="M362.542-32.983v-51.303h9.5v7.201h0.801c2.5-3.1,8.102-8.301,16.4-8.301c16.502,0,16.602,13.001,16.602,14.901v2.5h-9.5
		c-0.1-2.1-0.9-9.301-8.9-9.301c-7,0-15.402,8.601-15.402,23.102v21.201H362.542z"/>
	<path d="M448.343-85.386c13.701,0,24.703,10.801,24.703,26.802c0,15.701-11.002,26.402-24.703,26.402
		c-13.9,0-24.9-10.701-24.9-26.402C423.442-74.585,434.442-85.386,448.343-85.386z M448.243-40.283
		c8.102,0,14.902-7.5,14.902-18.501c0-10.9-6.801-18.501-14.902-18.501c-8.1,0-14.9,7.601-14.9,18.501
		C433.343-47.784,440.144-40.283,448.243-40.283z"/>
	<path d="M533.944-84.286v51.303h-9.5v-7.3h-1c-2.6,3.1-7.9,8.101-16.201,8.101c-16.5,0-16.602-12.801-16.602-14.701v-37.402h9.502
		v34.302c0,1.2,0.1,9.701,8.9,9.701c7,0,15.4-8.401,15.4-22.702v-21.301H533.944z"/>
	<path d="M562.442-83.686v-18.901h9.502v18.901h23.801v7.701h-23.801v25.901c0,1.2,0.1,9.801,8.9,9.801
		c6.699,0,9.9-4.601,11.1-6.301l8.102,4.5c-4.4,6.9-10.102,9.901-19.201,9.901c-18.303,0-18.402-13.001-18.402-14.901v-28.901h-13.5
		v-7.701H562.442z"/>
	<path d="M625.843-56.185c0.9,9.601,7.4,15.901,14.9,15.901c6.102,0,11.301-4.101,14.102-10.901l8.6,3.8
		c-3.799,9.4-12.6,15.201-22.701,15.201c-13.9,0-24.9-10.701-24.9-26.402c0-16.001,10.801-26.802,24.4-26.802
		c13.602,0,24.402,10.801,24.402,26.802v2.4H625.843z M626.243-63.685h28.002c-1.701-8.201-7.4-13.601-14.002-13.601
		C633.544-77.286,627.843-71.885,626.243-63.685z"/>
</g>
<g>
	<path d="M146.046-136.184c-2.101,4.4-8.901,10.001-17.201,10.001c-8.301,0-15.401-3.4-20.902-9.501c-5.5-6.2-8.9-15.001-8.9-25.801
		c0-10.701,3.4-19.501,9.001-25.702c5.4-6.101,12.501-9.601,20.802-9.601c13.2,0,26.9,8.5,26.9,24.702h-9.6
		c0-9.901-8.301-16.301-17.301-16.301c-13.002,0-19.701,14.001-19.701,26.902c0,8.3,2.299,15.001,6,19.701
		c3.6,4.6,8.2,7.2,13.701,7.2c10.4,0,17.701-11,17.801-20.801l-18.701,0.1v-8.3h27.801v36.602h-9.699V-136.184z"/>
	<path d="M214.445-187.687h-36.802v21.601h32.802v8.301h-32.802v22.501h38.803v8.3h-48.504v-69.004h46.503V-187.687z"/>
	<path d="M283.946-187.687h-23.002v60.704h-9.701v-60.704h-22.801v-8.301h55.504V-187.687z"/>
	<path d="M371.442-135.283h37.703v8.3h-47.402v-69.004h9.699V-135.283z"/>
	<path d="M427.642-186.986c5.301-6.101,12.902-9.601,20.803-9.601c7.799,0,15.301,3.5,20.5,9.601
		c5.301,6.2,8.502,14.901,8.502,25.602c0,10.8-3.201,19.501-8.402,25.701c-5.299,6.101-12.801,9.501-20.6,9.501
		c-7.9,0-15.502-3.4-20.902-9.601c-5.199-6.101-8.5-14.801-8.5-25.602C419.042-172.085,422.343-180.786,427.642-186.986z
		 M434.942-141.884c3.301,4.7,8.201,7.3,13.301,7.3c5.201,0,10.102-2.6,13.4-7.3c3.602-4.5,5.701-11.201,5.701-19.601
		c0-8.301-2.1-15.001-5.701-19.501c-3.299-4.7-8.199-7.4-13.4-7.4c-5.1,0-10,2.7-13.301,7.4c-3.699,4.5-5.801,11.201-5.801,19.501
		C429.142-153.084,431.243-146.384,434.942-141.884z"/>
	<path d="M536.944-177.186h-10.5c-1.6-7.601-7.4-11.201-16.301-11.201c-6.201,0-14.602,3.2-14.602,10.701
		c0,7.8,9.201,9.801,17.301,10.601c12.902,1.2,27.703,4.1,27.703,19.701c0,14.601-11.201,21.202-25.803,21.202
		c-16.701,0-28.502-8.901-30.701-24.102h10.201c2.199,10.4,9.6,15.701,20,15.701c8.502,0,16.201-2.5,16.201-12.801
		c0-8-6-9.9-18.801-11.301c-11.801-1.3-26.201-5-26.201-19.001c0-11.901,12.6-19.101,24.4-19.101
		C523.944-196.787,534.046-190.687,536.944-177.186z"/>
	<path d="M603.946-187.687h-23.002v60.704h-9.701v-60.704h-22.801v-8.301h55.504V-187.687z"/>
</g>
<g>
	<path d="M2.801,16.898h3l1.5,21.151l7.101-18.301h3.6l2.301,18.301l7.101-21.151h3L21.602,42.25h-3.5l-2.351-19.001L8.501,42.25
		h-3.5L2.801,16.898z"/>
	<path d="M40.851,31l-1.5,11.25H36.4l4.5-34.502h2.95L41.9,22.449h0.2c2.45-3.5,6.2-6.05,10.301-6.05c4,0,7.2,2.9,7.2,6.5
		c0,0.3,0,0.4-0.05,0.8l-2.4,18.551h-2.95l2.351-18.051c0.05-0.3,0.05-0.45,0.05-0.7c0-1.7-1.35-4.3-4.9-4.3
		C47.401,19.199,41.851,23.549,40.851,31z"/>
	<path d="M70.7,38.9c-1.8-2.25-2.7-5.15-2.7-8.15c0-3.25,1.001-6.75,3.15-9.451c2.2-2.75,5.601-4.9,10.301-4.9
		c3.601,0,6.2,1.55,7.95,3.85c1.801,2.35,2.351,5,2.351,8.601c0,0.5-0.1,1.25-0.15,1.5H71.101v0.4c0,2.4,0.65,4.65,1.9,6.3
		c1.3,1.7,3.25,2.8,5.75,2.8c1.9,0,3.7-0.45,5.25-1.4c1.45-0.9,2.751-2.25,3.65-4.05l2.95,0.8c-0.45,0.95-1.05,1.9-1.7,2.75
		c-2.25,2.75-5.45,4.701-10.2,4.701C75.101,42.65,72.501,41.1,70.7,38.9z M74.951,21.549c-1.75,1.5-3,3.65-3.551,6.2h17.251
		c-0.05-2.3-0.55-4.5-1.85-6.1c-1.2-1.5-3.101-2.45-5.601-2.45C78.852,19.199,76.651,20.049,74.951,21.549z"/>
	<path d="M106.301,31l-1.5,11.25h-2.95l3.3-25.352h2.95l-0.75,5.55h0.2c2.45-3.5,6.2-6.05,10.301-6.05c4,0,7.2,2.9,7.2,6.5
		c0,0.3,0,0.4-0.05,0.8l-0.1,0.8h-2.95l0.05-0.3c0.05-0.3,0.05-0.45,0.05-0.7c0-1.7-1.35-4.3-4.9-4.3
		C112.852,19.199,107.301,23.549,106.301,31z"/>
	<path d="M134.7,38.9c-1.8-2.25-2.7-5.15-2.7-8.15c0-3.25,1.001-6.75,3.15-9.451c2.2-2.75,5.601-4.9,10.301-4.9
		c3.601,0,6.2,1.55,7.95,3.85c1.801,2.35,2.351,5,2.351,8.601c0,0.5-0.1,1.25-0.15,1.5h-20.501v0.4c0,2.4,0.65,4.65,1.9,6.3
		c1.3,1.7,3.25,2.8,5.75,2.8c1.9,0,3.7-0.45,5.25-1.4c1.45-0.9,2.751-2.25,3.65-4.05l2.95,0.8c-0.45,0.95-1.05,1.9-1.7,2.75
		c-2.25,2.75-5.45,4.701-10.2,4.701C139.101,42.65,136.501,41.1,134.7,38.9z M138.951,21.549c-1.75,1.5-3,3.65-3.551,6.2h17.251
		c-0.05-2.3-0.55-4.5-1.85-6.1c-1.2-1.5-3.101-2.45-5.601-2.45C142.852,19.199,140.651,20.049,138.951,21.549z"/>
	<path d="M204.751,35.5c0,1.2,0.35,2.4,1.3,3.2c0.8,0.7,2,1.15,3.65,1.15c2.2,0,4.9-0.95,6.5-3.3l2.4,1.3
		c-2.3,3.4-6.101,4.801-9.2,4.801c-2.5,0-4.301-0.7-5.551-1.801c-1.4-1.3-2.05-3.05-2.05-5.3c0-0.75,1.9-15.951,1.9-15.951h-7.151
		l0.351-2.7h7.15l1.15-9.15h2.95l-1.15,9.15h12.4l-0.35,2.7h-12.4C206.651,19.599,204.751,35,204.751,35.5z"/>
	<path d="M232.851,31l-1.5,11.25h-2.95l4.5-34.502h2.95l-1.95,14.701h0.2c2.45-3.5,6.2-6.05,10.301-6.05c4,0,7.2,2.9,7.2,6.5
		c0,0.3,0,0.4-0.05,0.8l-2.4,18.551h-2.95l2.351-18.051c0.05-0.3,0.05-0.45,0.05-0.7c0-1.7-1.351-4.3-4.9-4.3
		C239.401,19.199,233.851,23.549,232.851,31z"/>
	<path d="M262.7,38.9c-1.8-2.25-2.7-5.15-2.7-8.15c0-3.25,1-6.75,3.15-9.451c2.2-2.75,5.601-4.9,10.301-4.9
		c3.601,0,6.2,1.55,7.95,3.85c1.801,2.35,2.351,5,2.351,8.601c0,0.5-0.101,1.25-0.15,1.5h-20.501v0.4c0,2.4,0.649,4.65,1.9,6.3
		c1.3,1.7,3.25,2.8,5.75,2.8c1.9,0,3.7-0.45,5.25-1.4c1.45-0.9,2.75-2.25,3.65-4.05l2.95,0.8c-0.45,0.95-1.05,1.9-1.7,2.75
		c-2.25,2.75-5.45,4.701-10.2,4.701C267.101,42.65,264.501,41.1,262.7,38.9z M266.95,21.549c-1.75,1.5-3,3.65-3.55,6.2h17.251
		c-0.05-2.3-0.55-4.5-1.85-6.1c-1.2-1.5-3.101-2.45-5.601-2.45C270.851,19.199,268.65,20.049,266.95,21.549z"/>
	<path d="M328.001,27.949c-1.051-1.15-1.65-2.55-1.65-4.2c0-2.2,1.1-3.9,3.05-5.25c1.9-1.25,4.5-2.1,7.251-2.1
		c3.3,0,5.8,1,7.65,2.45c1.8,1.45,2.75,3.45,2.75,5.55v0.8h-3.051v-0.8c0-1.4-0.649-2.75-1.949-3.7c-1.25-0.9-3.051-1.5-5.351-1.5
		c-2,0-3.801,0.45-5.15,1.35c-1.351,0.8-2.15,1.95-2.15,3.25c0,0.9,0.351,1.65,0.95,2.25c0.45,0.45,1.25,1.3,6.351,1.9
		c2.9,0.35,6.101,0.9,7.65,2.35c1.1,1,1.8,2.3,1.8,4.1c0,2.25-1.25,4.351-3.25,5.8c-2,1.501-4.65,2.451-7.801,2.451
		c-3.2,0-5.9-0.9-7.851-2.4c-2-1.5-3.25-3.55-3.25-5.8V33.5h3.051v1c0,1.45,0.85,2.8,2.35,3.7c1.45,0.9,3.45,1.5,5.7,1.5
		c2.2,0,4.15-0.6,5.65-1.5c1.45-0.9,2.351-2.25,2.351-3.7c0-0.95-0.45-1.7-1.101-2.2c-1.3-1.05-4.3-1.3-6.4-1.65
		C333.9,30.349,329.95,30.149,328.001,27.949z"/>
	<path d="M361.65,16.898h11.001l-2.95,22.651h9.4l-0.35,2.7H357l0.351-2.7h9.4l2.6-19.951h-8.05L361.65,16.898z M375.001,9.998
		c0,1.85-1.5,3.15-3.149,3.15c-1.5,0-2.65-1.15-2.65-2.601c0-1.85,1.5-3.15,3.25-3.15C373.951,7.398,375.001,8.548,375.001,9.998z"
		/>
	<path d="M389.65,38.95c-1.7-2.25-2.5-5.3-2.5-8.351c0-3.3,0.899-6.8,3-9.55c2.15-2.8,5.301-4.65,9.7-4.65
		c4.101,0,6.801,2.05,8.501,5.15h0.15l1.8-13.801h2.95l-4.45,34.502h-2.95l0.5-4.45h-0.15c-2.15,2.8-4.35,4.851-8.801,4.851
		C394.051,42.65,391.351,41.199,389.65,38.95z M405.151,36.149c1.65-2.2,2.35-5,2.35-7.65c0-2.4-0.6-4.8-1.899-6.5
		c-1.25-1.7-3.101-2.8-5.65-2.8c-3.4,0-5.801,1.5-7.45,3.65c-1.65,2.2-2.351,5-2.351,7.701c0,2.45,0.6,4.8,1.9,6.5
		c1.25,1.7,3.149,2.8,5.65,2.8C401.101,39.85,403.501,38.3,405.151,36.149z"/>
	<path d="M422.7,38.9c-1.8-2.25-2.7-5.15-2.7-8.15c0-3.25,1-6.75,3.15-9.451c2.2-2.75,5.601-4.9,10.301-4.9
		c3.601,0,6.2,1.55,7.95,3.85c1.801,2.35,2.351,5,2.351,8.601c0,0.5-0.101,1.25-0.15,1.5h-20.501v0.4c0,2.4,0.649,4.65,1.9,6.3
		c1.3,1.7,3.25,2.8,5.75,2.8c1.9,0,3.7-0.45,5.25-1.4c1.45-0.9,2.75-2.25,3.65-4.05l2.95,0.8c-0.45,0.95-1.05,1.9-1.7,2.75
		c-2.25,2.75-5.45,4.701-10.2,4.701C427.101,42.65,424.501,41.1,422.7,38.9z M426.95,21.549c-1.75,1.5-3,3.65-3.55,6.2h17.251
		c-0.05-2.3-0.55-4.5-1.85-6.1c-1.2-1.5-3.101-2.45-5.601-2.45C430.851,19.199,428.65,20.049,426.95,21.549z"/>
	<path d="M450.8,16.898h3.001l1.5,21.151l7.101-18.301h3.6l2.3,18.301l7.101-21.151h3l-8.8,25.352h-3.5l-2.351-19.001l-7.25,19.001
		H453L450.8,16.898z"/>
	<path d="M486.301,38.95c-1.7-2.25-2.501-5.3-2.501-8.351c0-3.3,0.9-6.8,3.001-9.55c2.149-2.8,5.3-4.65,9.7-4.65
		c4.101,0,6.801,2.05,8.501,5.15h0.149l0.601-4.65h2.95l-3.251,25.352h-2.95l0.5-4.45h-0.199c-2.15,2.8-4.301,4.851-8.751,4.851
		C490.7,42.65,488.001,41.199,486.301,38.95z M501.802,36.149c1.649-2.2,2.35-5,2.35-7.65c0-2.4-0.6-4.8-1.9-6.5
		c-1.25-1.7-3.1-2.8-5.65-2.8c-3.399,0-5.8,1.5-7.45,3.65c-1.65,2.2-2.35,5-2.35,7.701c0,2.45,0.6,4.8,1.899,6.5
		c1.25,1.7,3.15,2.8,5.65,2.8C497.751,39.85,500.151,38.3,501.802,36.149z"/>
	<path d="M522.801,7.748h11.001l-4.15,31.802h9.4l-0.351,2.7H516.95l0.351-2.7h9.4l3.8-29.102h-8.051L522.801,7.748z"/>
	<path d="M549.7,42.25l4.5-34.502h2.95l-2.5,19.001h0.45l13.201-9.851h4.3l-11.4,8.65l-0.05,0.5l10.5,16.201h-3.85l-9.15-14.051
		h-0.7l-3.9,2.95l-1.4,11.101H549.7z"/>
	<path d="M614.7,38.9c-1.8-2.25-2.7-5.15-2.7-8.15c0-3.25,1-6.75,3.15-9.451c2.2-2.75,5.601-4.9,10.301-4.9
		c3.601,0,6.2,1.55,7.95,3.85c1.801,2.35,2.351,5,2.351,8.601c0,0.5-0.101,1.25-0.15,1.5h-20.501v0.4c0,2.4,0.649,4.65,1.9,6.3
		c1.3,1.7,3.25,2.8,5.75,2.8c1.9,0,3.7-0.45,5.25-1.4c1.45-0.9,2.75-2.25,3.65-4.05l2.95,0.8c-0.45,0.95-1.05,1.9-1.7,2.75
		c-2.25,2.75-5.45,4.701-10.2,4.701C619.101,42.65,616.501,41.1,614.7,38.9z M618.95,21.549c-1.75,1.5-3,3.65-3.55,6.2h17.251
		c-0.05-2.3-0.55-4.5-1.85-6.1c-1.2-1.5-3.101-2.45-5.601-2.45C622.851,19.199,620.65,20.049,618.95,21.549z"/>
	<path d="M649.101,31l-1.5,11.25h-2.95l3.3-25.352h2.95l-0.75,5.55h0.2c2.45-3.5,6.2-6.05,10.301-6.05c4,0,7.2,2.9,7.2,6.5
		c0,0.3,0,0.4-0.05,0.8l-2.4,18.551h-2.95l2.351-18.051c0.05-0.3,0.05-0.45,0.05-0.7c0-1.7-1.351-4.3-4.9-4.3
		C655.651,19.199,650.101,23.549,649.101,31z"/>
	<path d="M677.65,38.95c-1.7-2.25-2.5-5.3-2.5-8.351c0-3.3,0.899-6.8,3-9.55c2.15-2.8,5.301-4.65,9.7-4.65
		c4.101,0,6.801,2.05,8.501,5.15h0.15l1.8-13.801h2.95l-4.45,34.502h-2.95l0.5-4.45h-0.15c-2.15,2.8-4.35,4.851-8.801,4.851
		C682.051,42.65,679.351,41.199,677.65,38.95z M693.151,36.149c1.65-2.2,2.35-5,2.35-7.65c0-2.4-0.6-4.8-1.899-6.5
		c-1.25-1.7-3.101-2.8-5.65-2.8c-3.4,0-5.801,1.5-7.45,3.65c-1.65,2.2-2.351,5-2.351,7.701c0,2.45,0.6,4.8,1.9,6.5
		c1.25,1.7,3.149,2.8,5.65,2.8C689.101,39.85,691.501,38.3,693.151,36.149z"/>
	<path d="M712.001,27.949c-1.051-1.15-1.65-2.55-1.65-4.2c0-2.2,1.1-3.9,3.05-5.25c1.9-1.25,4.5-2.1,7.251-2.1
		c3.3,0,5.8,1,7.65,2.45c1.8,1.45,2.75,3.45,2.75,5.55v0.8h-3.051v-0.8c0-1.4-0.649-2.75-1.949-3.7c-1.25-0.9-3.051-1.5-5.351-1.5
		c-2,0-3.801,0.45-5.15,1.35c-1.351,0.8-2.15,1.95-2.15,3.25c0,0.9,0.351,1.65,0.95,2.25c0.45,0.45,1.25,1.3,6.351,1.9
		c2.9,0.35,6.101,0.9,7.65,2.35c1.1,1,1.8,2.3,1.8,4.1c0,2.25-1.25,4.351-3.25,5.8c-2,1.501-4.65,2.451-7.801,2.451
		c-3.2,0-5.9-0.9-7.851-2.4c-2-1.5-3.25-3.55-3.25-5.8V33.5h3.051v1c0,1.45,0.85,2.8,2.35,3.7c1.45,0.9,3.45,1.5,5.7,1.5
		c2.2,0,4.15-0.6,5.65-1.5c1.45-0.9,2.351-2.25,2.351-3.7c0-0.95-0.45-1.7-1.101-2.2c-1.3-1.05-4.3-1.3-6.4-1.65
		C717.9,30.349,713.95,30.149,712.001,27.949z"/>
</g>
<rect x="891.243" y="-102.583" fill="none" width="580.844" height="139.345"/>
<text transform="matrix(1 0 0 1 891.2422 -32.9829)" font-family="'LetteraPro-Bold'" font-size="100">art route</text>
<rect x="891.243" y="-196.583" fill="none" width="580.844" height="139.345"/>
<text transform="matrix(1 0 0 1 891.2422 -126.9829)" font-family="'LetteraPro-Bold'" font-size="100">GET LOST</text>
<rect x="795.001" y="7.75" fill="none" width="737.328" height="42.066"/>
<text transform="matrix(1 0 0 1 795 42.25)" font-family="'LetteraPro-Italic'" font-size="50">where the sidewalk ends</text>
</svg>
