<?xml version="1.0" encoding="utf-8"?>
<!-- Generator: Adobe Illustrator 15.0.0, SVG Export Plug-In . SVG Version: 6.00 Build 0)  -->
<!DOCTYPE svg PUBLIC "-//W3C//DTD SVG 1.1//EN" "http://www.w3.org/Graphics/SVG/1.1/DTD/svg11.dtd">
<svg version="1.1" id="Layer_1" xmlns="http://www.w3.org/2000/svg" xmlns:xlink="http://www.w3.org/1999/xlink" x="0px" y="0px"
	 width="733.667px" height="168.667px" viewBox="0 0 733.667 168.667" enable-background="new 0 0 733.667 168.667"
	 xml:space="preserve">
<g>
	<path d="M-849.765,126.067c0.2-3.1,1.1-5.8,2.8-8.3c2.7-4.101,8.201-8.301,19.001-8.301c4.3,0,7.5,0.9,10.001,2
		c6.9,3.2,8.2,9.3,8.2,14.4v26.502c0,1.7,1.2,2.7,2.3,2.7s1.6-0.5,2-1c0.3-0.3,0.5-0.6,0.6-1l6.701,3.3c-0.6,1.2-1.3,2.3-2.2,3.2
		c-1.5,1.6-3.7,3.101-6.601,3.101c-5.2,0-9.3-3.8-9.601-6.5h-0.8c-5.201,5.1-11.001,6.5-15.301,6.5c-3.2,0-19.601-0.3-19.601-15.801
		c0-9.601,9.201-14.001,16.701-15.601l16.301-3.4v-2c0-2.8-0.2-8.3-9-8.3c-5.9,0-8.801,2.2-10.301,4.3c-0.9,1.2-1.4,2.6-1.6,4.2
		H-849.765z M-819.263,135.768l-12,2.5c-5.4,1.1-11.101,3.6-11.101,8.701c0,7.4,7,7.601,9.701,7.601h0.4c5.9,0,13-4.5,13-10.101
		V135.768z"/>
	<path d="M-784.364,161.87v-51.303h9.5v7.201h0.8c2.5-3.1,8.101-8.301,16.401-8.301c16.501,0,16.601,13.001,16.601,14.901v2.5h-9.5
		c-0.1-2.1-0.9-9.301-8.9-9.301c-7,0-15.401,8.601-15.401,23.102v21.201H-784.364z"/>
	<path d="M-712.464,111.167V92.266h9.5v18.901h23.802v7.701h-23.802v25.901c0,1.2,0.1,9.801,8.9,9.801c6.7,0,9.9-4.601,11.101-6.301
		l8.101,4.5c-4.4,6.9-10.101,9.901-19.201,9.901c-18.301,0-18.401-13.001-18.401-14.901v-28.901h-13.501v-7.701H-712.464z"/>
	<path d="M-592.364,161.87v-51.303h9.5v7.201h0.801c2.5-3.1,8.1-8.301,16.4-8.301c16.5,0,16.602,13.001,16.602,14.901v2.5h-9.502
		c-0.1-2.1-0.898-9.301-8.9-9.301c-7,0-15.4,8.601-15.4,23.102v21.201H-592.364z"/>
	<path d="M-506.563,109.466c13.701,0,24.701,10.801,24.701,26.802c0,15.701-11,26.402-24.701,26.402
		c-13.9,0-24.902-10.701-24.902-26.402C-531.466,120.267-520.464,109.466-506.563,109.466z M-506.663,154.569
		c8.1,0,14.9-7.5,14.9-18.501c0-10.9-6.801-18.501-14.9-18.501c-8.102,0-14.902,7.601-14.902,18.501
		C-521.565,147.069-514.765,154.569-506.663,154.569z"/>
	<path d="M-420.962,110.566v51.303h-9.5v-7.3h-1c-2.602,3.1-7.902,8.101-16.201,8.101c-16.502,0-16.602-12.801-16.602-14.701
		v-37.402h9.5v34.302c0,1.2,0.1,9.701,8.9,9.701c7,0,15.402-8.401,15.402-22.702v-21.301H-420.962z"/>
	<path d="M-392.464,111.167V92.266h9.5v18.901h23.801v7.701h-23.801v25.901c0,1.2,0.1,9.801,8.9,9.801
		c6.701,0,9.9-4.601,11.102-6.301l8.1,4.5c-4.4,6.9-10.1,9.901-19.201,9.901c-18.301,0-18.4-13.001-18.4-14.901v-28.901h-13.502
		v-7.701H-392.464z"/>
	<path d="M-329.063,138.668c0.898,9.601,7.4,15.901,14.9,15.901c6.1,0,11.301-4.101,14.1-10.901l8.602,3.8
		c-3.801,9.4-12.602,15.201-22.701,15.201c-13.9,0-24.902-10.701-24.902-26.402c0-16.001,10.801-26.802,24.402-26.802
		c13.6,0,24.4,10.801,24.4,26.802v2.4H-329.063z M-328.665,131.168h28.002c-1.699-8.201-7.4-13.601-14-13.601
		C-321.364,117.567-327.063,122.967-328.665,131.168z"/>
</g>
<g>
	<path d="M-808.862,54.669c-2.1,4.4-8.901,10.001-17.201,10.001c-8.301,0-15.401-3.4-20.901-9.501c-5.5-6.2-8.9-15.001-8.9-25.801
		c0-10.701,3.4-19.501,9-25.702c5.4-6.101,12.5-9.601,20.801-9.601c13.201,0,26.901,8.5,26.901,24.702h-9.601
		c0-9.901-8.3-16.301-17.301-16.301c-13.001,0-19.701,14.001-19.701,26.902c0,8.3,2.3,15.001,6,19.701c3.6,4.6,8.2,7.2,13.701,7.2
		c10.4,0,17.701-11,17.801-20.801l-18.701,0.1v-8.3h27.801V63.87h-9.7V54.669z"/>
	<path d="M-740.462,3.166h-36.802v21.601h32.802v8.301h-32.802v22.501h38.803v8.3h-48.503V-5.135h46.502V3.166z"/>
	<path d="M-670.961,3.166h-23.001V63.87h-9.701V3.166h-22.801v-8.301h55.503V3.166z"/>
	<path d="M-583.464,55.569h37.701v8.3h-47.402V-5.135h9.701V55.569z"/>
	<path d="M-527.265,3.866c5.301-6.101,12.9-9.601,20.801-9.601c7.801,0,15.301,3.5,20.502,9.601c5.301,6.2,8.5,14.901,8.5,25.602
		c0,10.8-3.199,19.501-8.4,25.701c-5.301,6.101-12.801,9.501-20.602,9.501c-7.9,0-15.5-3.4-20.9-9.601
		c-5.201-6.101-8.502-14.801-8.502-25.602C-535.866,18.767-532.565,10.066-527.265,3.866z M-519.964,48.969
		c3.299,4.7,8.199,7.3,13.301,7.3c5.199,0,10.1-2.6,13.4-7.3c3.6-4.5,5.701-11.201,5.701-19.601c0-8.301-2.102-15.001-5.701-19.501
		c-3.301-4.7-8.201-7.4-13.4-7.4c-5.102,0-10.002,2.7-13.301,7.4c-3.701,4.5-5.801,11.201-5.801,19.501
		C-525.765,37.768-523.665,44.468-519.964,48.969z"/>
	<path d="M-417.962,13.667h-10.5c-1.602-7.601-7.4-11.201-16.303-11.201c-6.199,0-14.6,3.2-14.6,10.701
		c0,7.8,9.201,9.801,17.301,10.601c12.9,1.2,27.701,4.1,27.701,19.701c0,14.601-11.201,21.202-25.801,21.202
		c-16.701,0-28.502-8.901-30.703-24.102h10.201c2.201,10.4,9.602,15.701,20.002,15.701c8.5,0,16.201-2.5,16.201-12.801
		c0-8-6-9.9-18.801-11.301c-11.801-1.3-26.203-5-26.203-19.001c0-11.901,12.602-19.101,24.402-19.101
		C-430.962-5.935-420.862,0.166-417.962,13.667z"/>
	<path d="M-350.962,3.166h-23.002V63.87h-9.699V3.166h-22.803v-8.301h55.504V3.166z"/>
</g>
<g>
	<path d="M-849.071,218.414h-4.641l-3.861-20.008h3.666l2.574,15.522l3.12-13.806h4.056l3.159,13.806l2.535-15.522h3.666
		l-3.861,20.008h-4.641l-2.886-13.884L-849.071,218.414z"/>
	<path d="M-829.688,218.414v-27.145h3.705v9.945h0.312c0.975-1.209,3.159-3.237,6.396-3.237c6.435,0,6.474,5.07,6.474,5.812v14.625
		h-3.705v-13.456c0-0.468-0.039-3.822-3.471-3.822c-2.73,0-6.006,3.354-6.006,9.01v8.268H-829.688z"/>
	<path d="M-801.881,209.365c0.351,3.744,2.886,6.201,5.811,6.201c2.379,0,4.407-1.599,5.5-4.251l3.354,1.482
		c-1.482,3.666-4.914,5.928-8.854,5.928c-5.421,0-9.711-4.173-9.711-10.296c0-6.24,4.212-10.453,9.516-10.453
		s9.516,4.212,9.516,10.453v0.936H-801.881z M-801.725,206.44h10.921c-0.663-3.198-2.886-5.304-5.46-5.304
		C-798.878,201.136-801.101,203.242-801.725,206.44z"/>
	<path d="M-779.768,218.414v-20.008h3.705v2.808h0.312c0.975-1.209,3.159-3.237,6.396-3.237c6.435,0,6.474,5.07,6.474,5.812v0.975
		h-3.705c-0.039-0.819-0.351-3.627-3.471-3.627c-2.73,0-6.006,3.354-6.006,9.01v8.268H-779.768z"/>
	<path d="M-751.961,209.365c0.351,3.744,2.886,6.201,5.811,6.201c2.379,0,4.407-1.599,5.5-4.251l3.354,1.482
		c-1.482,3.666-4.914,5.928-8.854,5.928c-5.421,0-9.711-4.173-9.711-10.296c0-6.24,4.212-10.453,9.516-10.453
		s9.516,4.212,9.516,10.453v0.936H-751.961z M-751.805,206.44h10.921c-0.663-3.198-2.886-5.304-5.46-5.304
		C-748.958,201.136-751.181,203.242-751.805,206.44z"/>
	<path d="M-701.807,198.64v-7.371h3.705v7.371h9.282v3.003h-9.282v10.101c0,0.468,0.039,3.822,3.472,3.822
		c2.612,0,3.86-1.794,4.329-2.457l3.159,1.755c-1.717,2.691-3.939,3.861-7.488,3.861c-7.138,0-7.177-5.07-7.177-5.811v-11.271
		h-5.265v-3.003H-701.807z"/>
	<path d="M-679.927,218.414v-27.145h3.705v9.945h0.312c0.976-1.209,3.159-3.237,6.396-3.237c6.436,0,6.474,5.07,6.474,5.812v14.625
		h-3.705v-13.456c0-0.468-0.039-3.822-3.471-3.822c-2.73,0-6.006,3.354-6.006,9.01v8.268H-679.927z"/>
	<path d="M-652.121,209.365c0.351,3.744,2.886,6.201,5.812,6.201c2.379,0,4.407-1.599,5.499-4.251l3.354,1.482
		c-1.481,3.666-4.914,5.928-8.853,5.928c-5.422,0-9.712-4.173-9.712-10.296c0-6.24,4.213-10.453,9.517-10.453
		s9.517,4.212,9.517,10.453v0.936H-652.121z M-651.964,206.44h10.92c-0.663-3.198-2.886-5.304-5.46-5.304
		C-649.118,201.136-651.34,203.242-651.964,206.44z"/>
	<path d="M-592.021,204.529c-0.117-0.585-0.547-3.394-4.76-3.394c-4.055,0-4.562,2.106-4.562,2.73c0,2.184,3.861,2.574,5.227,2.73
		c3.783,0.39,8.893,0.975,8.893,6.006c0,2.925-2.613,6.123-9.049,6.123c-6.123,0-9.555-3.861-9.672-6.981h3.861
		c0.156,1.638,1.793,3.822,5.732,3.822c4.135,0,5.266-1.677,5.266-2.964c0-2.886-3.51-2.574-6.475-3.003
		c-3.119-0.468-7.645-1.56-7.645-5.733c0-1.014,0.781-5.89,8.346-5.89c7.84,0,8.736,6.318,8.775,6.553H-592.021z"/>
	<path d="M-580.282,215.411h7.098v-14.001h-6.084v-3.003h9.789v17.005h6.865v3.003h-17.668V215.411z M-571.468,190.839
		c1.559,0,2.807,1.248,2.807,2.808c0,1.482-1.248,2.691-2.807,2.691c-1.482,0-2.691-1.209-2.691-2.691
		C-574.159,192.087-572.95,190.839-571.468,190.839z"/>
	<path d="M-537.499,218.414h-3.705v-2.223h-0.273c-1.053,1.131-3.08,2.535-5.732,2.535c-5.109,0-9.127-4.68-9.127-10.335
		c0-5.733,4.018-10.414,9.127-10.414c2.652,0,4.719,1.638,5.693,2.73h0.312v-9.438h3.705V218.414z M-541.204,208.351
		c0-4.29-2.066-7.215-5.656-7.215c-3.158,0-5.615,3.159-5.615,7.215s2.457,7.215,5.615,7.215c3.473,0,5.539-2.808,5.656-6.903
		V208.351z"/>
	<path d="M-527.321,209.365c0.352,3.744,2.887,6.201,5.812,6.201c2.379,0,4.406-1.599,5.498-4.251l3.355,1.482
		c-1.482,3.666-4.916,5.928-8.854,5.928c-5.422,0-9.713-4.173-9.713-10.296c0-6.24,4.213-10.453,9.518-10.453
		s9.516,4.212,9.516,10.453v0.936H-527.321z M-527.165,206.44h10.92c-0.662-3.198-2.885-5.304-5.459-5.304
		C-524.317,201.136-526.54,203.242-527.165,206.44z"/>
	<path d="M-499.63,218.414h-4.643l-3.861-20.008h3.666l2.574,15.522l3.121-13.806h4.057l3.158,13.806l2.535-15.522h3.666
		l-3.861,20.008h-4.641l-2.887-13.884L-499.63,218.414z"/>
	<path d="M-480.794,204.451c0.078-1.209,0.43-2.262,1.092-3.237c1.053-1.599,3.199-3.237,7.41-3.237c1.678,0,2.926,0.351,3.9,0.78
		c2.691,1.248,3.197,3.627,3.197,5.616v10.335c0,0.663,0.469,1.053,0.898,1.053c0.428,0,0.623-0.195,0.779-0.39
		c0.117-0.117,0.195-0.234,0.234-0.39l2.613,1.287c-0.234,0.468-0.508,0.897-0.857,1.248c-0.586,0.624-1.443,1.209-2.574,1.209
		c-2.029,0-3.627-1.482-3.744-2.535h-0.312c-2.029,1.989-4.291,2.535-5.967,2.535c-1.248,0-7.645-0.117-7.645-6.162
		c0-3.744,3.588-5.46,6.514-6.084l6.355-1.326v-0.78c0-1.092-0.076-3.237-3.51-3.237c-2.301,0-3.432,0.858-4.018,1.677
		c-0.35,0.468-0.545,1.014-0.623,1.638H-480.794z M-468.899,208.234l-4.68,0.975c-2.105,0.429-4.328,1.404-4.328,3.394
		c0,2.886,2.729,2.964,3.783,2.964h0.156c2.301,0,5.068-1.755,5.068-3.939V208.234z"/>
	<path d="M-455.679,215.411h7.1v-21.139h-6.084v-3.003h9.789v24.142h6.863v3.003h-17.668V215.411z"/>
	<path d="M-429.821,218.414v-27.145h3.705v14.196l7.684-7.059h4.992l-7.488,6.786v0.351l9.049,12.871h-4.291l-7.488-10.764
		l-2.457,2.262v8.502H-429.821z"/>
	<path d="M-377.562,209.365c0.352,3.744,2.887,6.201,5.812,6.201c2.379,0,4.406-1.599,5.498-4.251l3.355,1.482
		c-1.482,3.666-4.916,5.928-8.854,5.928c-5.422,0-9.713-4.173-9.713-10.296c0-6.24,4.213-10.453,9.518-10.453
		s9.516,4.212,9.516,10.453v0.936H-377.562z M-377.405,206.44h10.92c-0.662-3.198-2.885-5.304-5.459-5.304
		C-374.558,201.136-376.78,203.242-377.405,206.44z"/>
	<path d="M-355.448,218.414v-20.008h3.705v2.808h0.312c0.975-1.209,3.158-3.237,6.396-3.237c6.436,0,6.475,5.07,6.475,5.812v14.625
		h-3.707v-13.456c0-0.468-0.037-3.822-3.471-3.822c-2.73,0-6.006,3.354-6.006,9.01v8.268H-355.448z"/>
	<path d="M-312.86,218.414h-3.705v-2.223h-0.271c-1.055,1.131-3.082,2.535-5.734,2.535c-5.109,0-9.125-4.68-9.125-10.335
		c0-5.733,4.016-10.414,9.125-10.414c2.652,0,4.719,1.638,5.695,2.73h0.311v-9.438h3.705V218.414z M-316.565,208.351
		c0-4.29-2.066-7.215-5.654-7.215c-3.16,0-5.617,3.159-5.617,7.215s2.457,7.215,5.617,7.215c3.471,0,5.537-2.808,5.654-6.903
		V208.351z"/>
	<path d="M-292.501,204.529c-0.117-0.585-0.547-3.394-4.76-3.394c-4.055,0-4.562,2.106-4.562,2.73c0,2.184,3.861,2.574,5.227,2.73
		c3.783,0.39,8.893,0.975,8.893,6.006c0,2.925-2.613,6.123-9.049,6.123c-6.123,0-9.555-3.861-9.672-6.981h3.861
		c0.156,1.638,1.793,3.822,5.732,3.822c4.135,0,5.266-1.677,5.266-2.964c0-2.886-3.51-2.574-6.475-3.003
		c-3.119-0.468-7.645-1.56-7.645-5.733c0-1.014,0.781-5.89,8.346-5.89c7.84,0,8.736,6.318,8.775,6.553H-292.501z"/>
</g>
<g>
	<path d="M102.871,129.401c0.2-3.1,1.101-5.8,2.8-8.3c2.701-4.101,8.201-8.301,19.002-8.301c4.3,0,7.5,0.9,10,2
		c6.9,3.2,8.201,9.3,8.201,14.4v26.502c0,1.7,1.199,2.7,2.3,2.7s1.601-0.5,2-1c0.3-0.3,0.5-0.6,0.601-1l6.7,3.3
		c-0.601,1.2-1.3,2.3-2.2,3.2c-1.5,1.6-3.7,3.101-6.601,3.101c-5.2,0-9.3-3.8-9.601-6.5h-0.8c-5.2,5.1-11.001,6.5-15.302,6.5
		c-3.199,0-19.601-0.3-19.601-15.801c0-9.601,9.2-14.001,16.701-15.601l16.301-3.4v-2c0-2.8-0.2-8.3-9.001-8.3
		c-5.9,0-8.801,2.2-10.301,4.3c-0.899,1.2-1.399,2.6-1.6,4.2H102.871z M133.373,139.102l-12.001,2.5
		c-5.4,1.1-11.101,3.6-11.101,8.701c0,7.4,7.001,7.601,9.7,7.601h0.4c5.9,0,13.001-4.5,13.001-10.101V139.102z"/>
	<path d="M168.271,165.203V113.9h9.501v7.201h0.799c2.501-3.1,8.102-8.301,16.402-8.301c16.5,0,16.6,13.001,16.6,14.901v2.5h-9.5
		c-0.1-2.1-0.9-9.301-8.9-9.301c-7,0-15.4,8.601-15.4,23.102v21.201H168.271z"/>
	<path d="M240.172,114.5V95.599h9.501V114.5h23.801v7.701h-23.801v25.901c0,1.2,0.1,9.801,8.9,9.801c6.699,0,9.9-4.601,11.1-6.301
		l8.102,4.5c-4.4,6.9-10.102,9.901-19.201,9.901c-18.301,0-18.401-13.001-18.401-14.901v-28.901h-13.501V114.5H240.172z"/>
	<path d="M360.271,165.203V113.9h9.5v7.201h0.801c2.5-3.1,8.102-8.301,16.4-8.301c16.502,0,16.602,13.001,16.602,14.901v2.5h-9.5
		c-0.1-2.1-0.9-9.301-8.9-9.301c-7,0-15.402,8.601-15.402,23.102v21.201H360.271z"/>
	<path d="M446.071,112.8c13.701,0,24.703,10.801,24.703,26.802c0,15.701-11.002,26.402-24.703,26.402
		c-13.9,0-24.9-10.701-24.9-26.402C421.171,123.601,432.171,112.8,446.071,112.8z M445.972,157.903
		c8.102,0,14.902-7.5,14.902-18.501c0-10.9-6.801-18.501-14.902-18.501c-8.1,0-14.9,7.601-14.9,18.501
		C431.071,150.402,437.872,157.903,445.972,157.903z"/>
	<path d="M531.673,113.9v51.303h-9.5v-7.3h-1c-2.6,3.1-7.9,8.101-16.201,8.101c-16.5,0-16.602-12.801-16.602-14.701V113.9h9.502
		v34.302c0,1.2,0.1,9.701,8.9,9.701c7,0,15.4-8.401,15.4-22.702V113.9H531.673z"/>
	<path d="M560.171,114.5V95.599h9.502V114.5h23.801v7.701h-23.801v25.901c0,1.2,0.1,9.801,8.9,9.801c6.699,0,9.9-4.601,11.1-6.301
		l8.102,4.5c-4.4,6.9-10.102,9.901-19.201,9.901c-18.303,0-18.402-13.001-18.402-14.901v-28.901h-13.5V114.5H560.171z"/>
	<path d="M623.571,142.001c0.9,9.601,7.4,15.901,14.9,15.901c6.102,0,11.301-4.101,14.102-10.901l8.6,3.8
		c-3.799,9.4-12.6,15.201-22.701,15.201c-13.9,0-24.9-10.701-24.9-26.402c0-16.001,10.801-26.802,24.4-26.802
		c13.602,0,24.402,10.801,24.402,26.802v2.4H623.571z M623.972,134.501h28.002c-1.701-8.201-7.4-13.601-14.002-13.601
		C631.272,120.9,625.571,126.301,623.972,134.501z"/>
</g>
<g>
	<path d="M143.774,62.002c-2.101,4.4-8.901,10.001-17.201,10.001c-8.301,0-15.401-3.4-20.902-9.501c-5.5-6.2-8.9-15.001-8.9-25.801
		c0-10.701,3.4-19.501,9.001-25.702c5.4-6.101,12.501-9.601,20.802-9.601c13.2,0,26.9,8.5,26.9,24.702h-9.6
		c0-9.901-8.301-16.301-17.301-16.301c-13.002,0-19.701,14.001-19.701,26.902c0,8.3,2.299,15.001,6,19.701
		c3.6,4.6,8.2,7.2,13.701,7.2c10.4,0,17.701-11,17.801-20.801l-18.701,0.1v-8.3h27.801v36.602h-9.699V62.002z"/>
	<path d="M212.174,10.5h-36.802v21.601h32.802v8.301h-32.802v22.501h38.803v8.3h-48.504V2.199h46.503V10.5z"/>
	<path d="M281.675,10.5h-23.002v60.704h-9.701V10.5h-22.801V2.199h55.504V10.5z"/>
	<path d="M369.171,62.903h37.703v8.3h-47.402V2.199h9.699V62.903z"/>
	<path d="M425.37,11.2c5.301-6.101,12.902-9.601,20.803-9.601c7.799,0,15.301,3.5,20.5,9.601c5.301,6.2,8.502,14.901,8.502,25.602
		c0,10.8-3.201,19.501-8.402,25.701c-5.299,6.101-12.801,9.501-20.6,9.501c-7.9,0-15.502-3.4-20.902-9.601
		c-5.199-6.101-8.5-14.801-8.5-25.602C416.771,26.101,420.071,17.4,425.37,11.2z M432.671,56.302c3.301,4.7,8.201,7.3,13.301,7.3
		c5.201,0,10.102-2.6,13.4-7.3c3.602-4.5,5.701-11.201,5.701-19.601c0-8.301-2.1-15.001-5.701-19.501c-3.299-4.7-8.199-7.4-13.4-7.4
		c-5.1,0-10,2.7-13.301,7.4c-3.699,4.5-5.801,11.201-5.801,19.501C426.87,45.102,428.972,51.802,432.671,56.302z"/>
	<path d="M534.673,21h-10.5c-1.6-7.601-7.4-11.201-16.301-11.201c-6.201,0-14.602,3.2-14.602,10.701
		c0,7.8,9.201,9.801,17.301,10.601c12.902,1.2,27.703,4.1,27.703,19.701c0,14.601-11.201,21.202-25.803,21.202
		c-16.701,0-28.502-8.901-30.701-24.102h10.201c2.199,10.4,9.6,15.701,20,15.701c8.502,0,16.201-2.5,16.201-12.801
		c0-8-6-9.9-18.801-11.301c-11.801-1.3-26.201-5-26.201-19.001c0-11.901,12.6-19.101,24.4-19.101
		C521.673,1.399,531.774,7.499,534.673,21z"/>
	<path d="M601.675,10.5h-23.002v60.704h-9.701V10.5h-22.801V2.199h55.504V10.5z"/>
</g>
<g>
	<path d="M0.529,215.084h3l1.5,21.151l7.101-18.301h3.6l2.301,18.301l7.101-21.151h3l-8.801,25.352h-3.5l-2.351-19.001l-7.25,19.001
		h-3.5L0.529,215.084z"/>
	<path d="M38.579,229.186l-1.5,11.25h-2.95l4.5-34.502h2.95l-1.95,14.701h0.2c2.45-3.5,6.2-6.05,10.301-6.05c4,0,7.2,2.9,7.2,6.5
		c0,0.3,0,0.4-0.05,0.8l-2.4,18.551h-2.95l2.351-18.051c0.05-0.3,0.05-0.45,0.05-0.7c0-1.7-1.35-4.3-4.9-4.3
		C45.13,217.385,39.579,221.735,38.579,229.186z"/>
	<path d="M68.429,237.086c-1.8-2.25-2.7-5.15-2.7-8.15c0-3.25,1.001-6.75,3.15-9.451c2.2-2.75,5.601-4.9,10.301-4.9
		c3.601,0,6.2,1.55,7.95,3.85c1.801,2.35,2.351,5,2.351,8.601c0,0.5-0.1,1.25-0.15,1.5H68.829v0.4c0,2.4,0.65,4.65,1.9,6.3
		c1.3,1.7,3.25,2.8,5.75,2.8c1.9,0,3.7-0.45,5.25-1.4c1.45-0.9,2.751-2.25,3.65-4.05l2.95,0.8c-0.45,0.95-1.05,1.9-1.7,2.75
		c-2.25,2.75-5.45,4.701-10.2,4.701C72.829,240.836,70.229,239.286,68.429,237.086z M72.68,219.735c-1.75,1.5-3,3.65-3.551,6.2
		H86.38c-0.05-2.3-0.55-4.5-1.85-6.1c-1.2-1.5-3.101-2.45-5.601-2.45C76.58,217.385,74.38,218.235,72.68,219.735z"/>
	<path d="M104.029,229.186l-1.5,11.25h-2.95l3.3-25.352h2.95l-0.75,5.55h0.2c2.45-3.5,6.2-6.05,10.301-6.05c4,0,7.2,2.9,7.2,6.5
		c0,0.3,0,0.4-0.05,0.8l-0.1,0.8h-2.95l0.05-0.3c0.05-0.3,0.05-0.45,0.05-0.7c0-1.7-1.35-4.3-4.9-4.3
		C110.58,217.385,105.029,221.735,104.029,229.186z"/>
	<path d="M132.429,237.086c-1.8-2.25-2.7-5.15-2.7-8.15c0-3.25,1.001-6.75,3.15-9.451c2.2-2.75,5.601-4.9,10.301-4.9
		c3.601,0,6.2,1.55,7.95,3.85c1.801,2.35,2.351,5,2.351,8.601c0,0.5-0.1,1.25-0.15,1.5h-20.501v0.4c0,2.4,0.65,4.65,1.9,6.3
		c1.3,1.7,3.25,2.8,5.75,2.8c1.9,0,3.7-0.45,5.25-1.4c1.45-0.9,2.751-2.25,3.65-4.05l2.95,0.8c-0.45,0.95-1.05,1.9-1.7,2.75
		c-2.25,2.75-5.45,4.701-10.2,4.701C136.829,240.836,134.229,239.286,132.429,237.086z M136.68,219.735c-1.75,1.5-3,3.65-3.551,6.2
		h17.251c-0.05-2.3-0.55-4.5-1.85-6.1c-1.2-1.5-3.101-2.45-5.601-2.45C140.58,217.385,138.38,218.235,136.68,219.735z"/>
	<path d="M202.479,233.686c0,1.2,0.35,2.4,1.3,3.2c0.8,0.7,2,1.15,3.65,1.15c2.2,0,4.9-0.95,6.5-3.3l2.4,1.3
		c-2.3,3.4-6.101,4.801-9.2,4.801c-2.5,0-4.301-0.7-5.551-1.801c-1.4-1.3-2.05-3.05-2.05-5.3c0-0.75,1.9-15.951,1.9-15.951h-7.151
		l0.351-2.7h7.15l1.15-9.15h2.95l-1.15,9.15h12.4l-0.35,2.7h-12.4C204.38,217.785,202.479,233.186,202.479,233.686z"/>
	<path d="M230.579,229.186l-1.5,11.25h-2.95l4.5-34.502h2.95l-1.95,14.701h0.2c2.45-3.5,6.2-6.05,10.301-6.05c4,0,7.2,2.9,7.2,6.5
		c0,0.3,0,0.4-0.05,0.8l-2.4,18.551h-2.95l2.351-18.051c0.05-0.3,0.05-0.45,0.05-0.7c0-1.7-1.351-4.3-4.9-4.3
		C237.13,217.385,231.579,221.735,230.579,229.186z"/>
	<path d="M260.429,237.086c-1.8-2.25-2.7-5.15-2.7-8.15c0-3.25,1-6.75,3.15-9.451c2.2-2.75,5.601-4.9,10.301-4.9
		c3.601,0,6.2,1.55,7.95,3.85c1.801,2.35,2.351,5,2.351,8.601c0,0.5-0.101,1.25-0.15,1.5h-20.501v0.4c0,2.4,0.649,4.65,1.9,6.3
		c1.3,1.7,3.25,2.8,5.75,2.8c1.9,0,3.7-0.45,5.25-1.4c1.45-0.9,2.75-2.25,3.65-4.05l2.95,0.8c-0.45,0.95-1.05,1.9-1.7,2.75
		c-2.25,2.75-5.45,4.701-10.2,4.701C264.829,240.836,262.229,239.286,260.429,237.086z M264.679,219.735c-1.75,1.5-3,3.65-3.55,6.2
		h17.251c-0.05-2.3-0.55-4.5-1.85-6.1c-1.2-1.5-3.101-2.45-5.601-2.45C268.579,217.385,266.379,218.235,264.679,219.735z"/>
	<path d="M325.729,226.135c-1.051-1.15-1.65-2.55-1.65-4.2c0-2.2,1.1-3.9,3.05-5.25c1.9-1.25,4.5-2.1,7.251-2.1
		c3.3,0,5.8,1,7.65,2.45c1.8,1.45,2.75,3.45,2.75,5.55v0.8h-3.051v-0.8c0-1.4-0.649-2.75-1.949-3.7c-1.25-0.9-3.051-1.5-5.351-1.5
		c-2,0-3.801,0.45-5.15,1.35c-1.351,0.8-2.15,1.95-2.15,3.25c0,0.9,0.351,1.65,0.95,2.25c0.45,0.45,1.25,1.3,6.351,1.9
		c2.9,0.35,6.101,0.9,7.65,2.35c1.1,1,1.8,2.3,1.8,4.1c0,2.25-1.25,4.351-3.25,5.8c-2,1.501-4.65,2.451-7.801,2.451
		c-3.2,0-5.9-0.9-7.851-2.4c-2-1.5-3.25-3.55-3.25-5.8v-0.95h3.051v1c0,1.45,0.85,2.8,2.35,3.7c1.45,0.9,3.45,1.5,5.7,1.5
		c2.2,0,4.15-0.6,5.65-1.5c1.45-0.9,2.351-2.25,2.351-3.7c0-0.95-0.45-1.7-1.101-2.2c-1.3-1.05-4.3-1.3-6.4-1.65
		C331.629,228.535,327.679,228.335,325.729,226.135z"/>
	<path d="M359.379,215.084h11.001l-2.95,22.651h9.4l-0.35,2.7h-21.752l0.351-2.7h9.4l2.6-19.951h-8.05L359.379,215.084z
		 M372.729,208.184c0,1.85-1.5,3.15-3.149,3.15c-1.5,0-2.65-1.15-2.65-2.601c0-1.85,1.5-3.15,3.25-3.15
		C371.68,205.584,372.729,206.734,372.729,208.184z"/>
	<path d="M387.379,237.136c-1.7-2.25-2.5-5.3-2.5-8.351c0-3.3,0.899-6.8,3-9.55c2.15-2.8,5.301-4.65,9.7-4.65
		c4.101,0,6.801,2.05,8.501,5.15h0.15l1.8-13.801h2.95l-4.45,34.502h-2.95l0.5-4.45h-0.15c-2.15,2.8-4.35,4.851-8.801,4.851
		C391.779,240.836,389.079,239.385,387.379,237.136z M402.88,234.335c1.65-2.2,2.35-5,2.35-7.65c0-2.4-0.6-4.8-1.899-6.5
		c-1.25-1.7-3.101-2.8-5.65-2.8c-3.4,0-5.801,1.5-7.45,3.65c-1.65,2.2-2.351,5-2.351,7.701c0,2.45,0.6,4.8,1.9,6.5
		c1.25,1.7,3.149,2.8,5.65,2.8C398.829,238.036,401.229,236.486,402.88,234.335z"/>
	<path d="M420.429,237.086c-1.8-2.25-2.7-5.15-2.7-8.15c0-3.25,1-6.75,3.15-9.451c2.2-2.75,5.601-4.9,10.301-4.9
		c3.601,0,6.2,1.55,7.95,3.85c1.801,2.35,2.351,5,2.351,8.601c0,0.5-0.101,1.25-0.15,1.5h-20.501v0.4c0,2.4,0.649,4.65,1.9,6.3
		c1.3,1.7,3.25,2.8,5.75,2.8c1.9,0,3.7-0.45,5.25-1.4c1.45-0.9,2.75-2.25,3.65-4.05l2.95,0.8c-0.45,0.95-1.05,1.9-1.7,2.75
		c-2.25,2.75-5.45,4.701-10.2,4.701C424.829,240.836,422.229,239.286,420.429,237.086z M424.679,219.735c-1.75,1.5-3,3.65-3.55,6.2
		h17.251c-0.05-2.3-0.55-4.5-1.85-6.1c-1.2-1.5-3.101-2.45-5.601-2.45C428.579,217.385,426.379,218.235,424.679,219.735z"/>
	<path d="M448.528,215.084h3.001l1.5,21.151l7.101-18.301h3.6l2.3,18.301l7.101-21.151h3l-8.8,25.352h-3.5l-2.351-19.001
		l-7.25,19.001h-3.501L448.528,215.084z"/>
	<path d="M484.029,237.136c-1.7-2.25-2.501-5.3-2.501-8.351c0-3.3,0.9-6.8,3.001-9.55c2.149-2.8,5.3-4.65,9.7-4.65
		c4.101,0,6.801,2.05,8.501,5.15h0.149l0.601-4.65h2.95l-3.251,25.352h-2.95l0.5-4.45h-0.199c-2.15,2.8-4.301,4.851-8.751,4.851
		C488.429,240.836,485.729,239.385,484.029,237.136z M499.53,234.335c1.649-2.2,2.35-5,2.35-7.65c0-2.4-0.6-4.8-1.9-6.5
		c-1.25-1.7-3.1-2.8-5.65-2.8c-3.399,0-5.8,1.5-7.45,3.65c-1.65,2.2-2.35,5-2.35,7.701c0,2.45,0.6,4.8,1.899,6.5
		c1.25,1.7,3.15,2.8,5.65,2.8C495.479,238.036,497.88,236.486,499.53,234.335z"/>
	<path d="M520.529,205.934h11.001l-4.15,31.802h9.4l-0.351,2.7h-21.751l0.351-2.7h9.4l3.8-29.102h-8.051L520.529,205.934z"/>
	<path d="M547.429,240.436l4.5-34.502h2.95l-2.5,19.001h0.45l13.201-9.851h4.3l-11.4,8.65l-0.05,0.5l10.5,16.201h-3.85l-9.15-14.051
		h-0.7l-3.9,2.95l-1.4,11.101H547.429z"/>
	<path d="M612.429,237.086c-1.8-2.25-2.7-5.15-2.7-8.15c0-3.25,1-6.75,3.15-9.451c2.2-2.75,5.601-4.9,10.301-4.9
		c3.601,0,6.2,1.55,7.95,3.85c1.801,2.35,2.351,5,2.351,8.601c0,0.5-0.101,1.25-0.15,1.5h-20.501v0.4c0,2.4,0.649,4.65,1.9,6.3
		c1.3,1.7,3.25,2.8,5.75,2.8c1.9,0,3.7-0.45,5.25-1.4c1.45-0.9,2.75-2.25,3.65-4.05l2.95,0.8c-0.45,0.95-1.05,1.9-1.7,2.75
		c-2.25,2.75-5.45,4.701-10.2,4.701C616.829,240.836,614.229,239.286,612.429,237.086z M616.679,219.735c-1.75,1.5-3,3.65-3.55,6.2
		h17.251c-0.05-2.3-0.55-4.5-1.85-6.1c-1.2-1.5-3.101-2.45-5.601-2.45C620.579,217.385,618.379,218.235,616.679,219.735z"/>
	<path d="M646.829,229.186l-1.5,11.25h-2.95l3.3-25.352h2.95l-0.75,5.55h0.2c2.45-3.5,6.2-6.05,10.301-6.05c4,0,7.2,2.9,7.2,6.5
		c0,0.3,0,0.4-0.05,0.8l-2.4,18.551h-2.95l2.351-18.051c0.05-0.3,0.05-0.45,0.05-0.7c0-1.7-1.351-4.3-4.9-4.3
		C653.38,217.385,647.829,221.735,646.829,229.186z"/>
	<path d="M675.379,237.136c-1.7-2.25-2.5-5.3-2.5-8.351c0-3.3,0.899-6.8,3-9.55c2.15-2.8,5.301-4.65,9.7-4.65
		c4.101,0,6.801,2.05,8.501,5.15h0.15l1.8-13.801h2.95l-4.45,34.502h-2.95l0.5-4.45h-0.15c-2.15,2.8-4.35,4.851-8.801,4.851
		C679.779,240.836,677.079,239.385,675.379,237.136z M690.88,234.335c1.65-2.2,2.35-5,2.35-7.65c0-2.4-0.6-4.8-1.899-6.5
		c-1.25-1.7-3.101-2.8-5.65-2.8c-3.4,0-5.801,1.5-7.45,3.65c-1.65,2.2-2.351,5-2.351,7.701c0,2.45,0.6,4.8,1.9,6.5
		c1.25,1.7,3.149,2.8,5.65,2.8C686.829,238.036,689.229,236.486,690.88,234.335z"/>
	<path d="M709.729,226.135c-1.051-1.15-1.65-2.55-1.65-4.2c0-2.2,1.1-3.9,3.05-5.25c1.9-1.25,4.5-2.1,7.251-2.1
		c3.3,0,5.8,1,7.65,2.45c1.8,1.45,2.75,3.45,2.75,5.55v0.8h-3.051v-0.8c0-1.4-0.649-2.75-1.949-3.7c-1.25-0.9-3.051-1.5-5.351-1.5
		c-2,0-3.801,0.45-5.15,1.35c-1.351,0.8-2.15,1.95-2.15,3.25c0,0.9,0.351,1.65,0.95,2.25c0.45,0.45,1.25,1.3,6.351,1.9
		c2.9,0.35,6.101,0.9,7.65,2.35c1.1,1,1.8,2.3,1.8,4.1c0,2.25-1.25,4.351-3.25,5.8c-2,1.501-4.65,2.451-7.801,2.451
		c-3.2,0-5.9-0.9-7.851-2.4c-2-1.5-3.25-3.55-3.25-5.8v-0.95h3.051v1c0,1.45,0.85,2.8,2.35,3.7c1.45,0.9,3.45,1.5,5.7,1.5
		c2.2,0,4.15-0.6,5.65-1.5c1.45-0.9,2.351-2.25,2.351-3.7c0-0.95-0.45-1.7-1.101-2.2c-1.3-1.05-4.3-1.3-6.4-1.65
		C715.629,228.535,711.679,228.335,709.729,226.135z"/>
</g>
<rect x="888.972" y="95.603" fill="none" width="580.844" height="139.345"/>
<text transform="matrix(1 0 0 1 888.9707 165.2031)" font-family="'LetteraPro-Bold'" font-size="100">art route</text>
<rect x="888.972" y="1.603" fill="none" width="580.844" height="139.345"/>
<text transform="matrix(1 0 0 1 888.9707 71.2031)" font-family="'LetteraPro-Bold'" font-size="100">GET LOST</text>
<rect x="792.729" y="205.937" fill="none" width="737.328" height="42.066"/>
<text transform="matrix(1 0 0 1 792.7285 240.436)" font-family="'LetteraPro-Italic'" font-size="50">where the sidewalk ends</text>
</svg>
