<?xml version="1.0" encoding="utf-8"?>
<!-- Generator: Adobe Illustrator 15.0.0, SVG Export Plug-In . SVG Version: 6.00 Build 0)  -->
<!DOCTYPE svg PUBLIC "-//W3C//DTD SVG 1.1//EN" "http://www.w3.org/Graphics/SVG/1.1/DTD/svg11.dtd">
<svg version="1.1" id="Layer_1" xmlns="http://www.w3.org/2000/svg" xmlns:xlink="http://www.w3.org/1999/xlink" x="0px" y="0px"
	 width="1287px" height="87px" viewBox="0 0 1287 87" enable-background="new 0 0 1287 87" xml:space="preserve">
<g>
	<path d="M57.803,67.399c-2.1,4.4-8.901,10.001-17.201,10.001c-8.301,0-15.401-3.4-20.901-9.501c-5.5-6.2-8.9-15.001-8.9-25.802
		c0-10.7,3.4-19.501,9-25.701c5.4-6.101,12.5-9.601,20.801-9.601c13.201,0,26.901,8.501,26.901,24.702h-9.601
		c0-9.901-8.3-16.302-17.301-16.302c-13.001,0-19.701,14.001-19.701,26.901c0,8.301,2.3,15.002,6,19.701
		c3.6,4.601,8.2,7.201,13.701,7.201c10.4,0,17.701-11.001,17.801-20.802l-18.701,0.101v-8.301h27.801V76.6h-9.7V67.399z"/>
	<path d="M126.203,15.896H89.401v21.602h32.802v8.301H89.401V68.3h38.803v8.3H79.701V7.596h46.502V15.896z"/>
	<path d="M195.704,15.896h-23.001V76.6h-9.701V15.896H140.2V7.596h55.503V15.896z"/>
	<path d="M283.201,68.3h37.702v8.3h-47.402V7.596h9.7V68.3z"/>
	<path d="M335.4,16.597c5.301-6.101,12.901-9.601,20.802-9.601c7.8,0,15.301,3.5,20.501,9.601c5.301,6.2,8.501,14.901,8.501,25.602
		c0,10.8-3.2,19.501-8.401,25.701c-5.3,6.101-12.801,9.501-20.601,9.501c-7.9,0-15.501-3.4-20.901-9.601
		c-5.2-6.101-8.501-14.802-8.501-25.602C326.8,31.498,330.101,22.797,335.4,16.597z M342.701,61.699c3.3,4.7,8.2,7.301,13.301,7.301
		c5.2,0,10.101-2.601,13.4-7.301c3.601-4.5,5.701-11.201,5.701-19.602c0-8.301-2.101-15-5.701-19.501c-3.3-4.7-8.2-7.4-13.4-7.4
		c-5.101,0-10.001,2.7-13.301,7.4c-3.7,4.501-5.801,11.2-5.801,19.501C336.9,50.498,339.001,57.199,342.701,61.699z"/>
	<path d="M446.703,26.396h-10.5c-1.601-7.6-7.4-11.2-16.302-11.2c-6.2,0-14.601,3.2-14.601,10.7c0,7.801,9.201,9.801,17.301,10.602
		c12.901,1.199,27.702,4.1,27.702,19.701c0,14.601-11.201,21.201-25.802,21.201c-16.701,0-28.502-8.9-30.702-24.102h10.201
		c2.2,10.4,9.601,15.701,20.001,15.701c8.501,0,16.201-2.5,16.201-12.801c0-8.001-6-9.9-18.801-11.301
		c-11.801-1.301-26.202-5-26.202-19.002c0-11.9,12.601-19.101,24.401-19.101C433.703,6.796,443.804,12.896,446.703,26.396z"/>
	<path d="M513.704,15.896h-23.002V76.6h-9.7V15.896H458.2V7.596h55.504V15.896z"/>
	<path d="M598.601,48.498h30.803v7.9h-30.803V48.498z"/>
	<path d="M718.9,40.798c0.2-3.101,1.101-5.8,2.801-8.3c2.699-4.102,8.2-8.301,19.001-8.301c4.3,0,7.5,0.9,10,2
		c6.9,3.2,8.201,9.301,8.201,14.4V67.1c0,1.7,1.2,2.7,2.3,2.7s1.6-0.5,2-1c0.3-0.3,0.5-0.601,0.601-1l6.7,3.3
		c-0.601,1.2-1.301,2.301-2.2,3.2c-1.5,1.601-3.7,3.101-6.601,3.101c-5.2,0-9.301-3.801-9.601-6.5h-0.8
		c-5.2,5.1-11.001,6.5-15.301,6.5c-3.2,0-19.602-0.301-19.602-15.801c0-9.602,9.2-14.002,16.701-15.602l16.301-3.4v-2
		c0-2.8-0.2-8.301-9-8.301c-5.9,0-8.801,2.201-10.301,4.301c-0.9,1.2-1.4,2.6-1.601,4.2H718.9z M749.402,50.498l-12.001,2.5
		c-5.4,1.101-11.101,3.601-11.101,8.701c0,7.4,7.001,7.601,9.701,7.601h0.399c5.9,0,13.001-4.501,13.001-10.101V50.498z"/>
	<path d="M784.301,76.6V25.297h9.5v7.201h0.801c2.5-3.101,8.101-8.301,16.4-8.301c16.501,0,16.602,13,16.602,14.9v2.5h-9.501
		c-0.1-2.1-0.899-9.301-8.9-9.301c-7,0-15.401,8.602-15.401,23.102V76.6H784.301z"/>
	<path d="M856.201,25.896v-18.9h9.501v18.9h23.801v7.701h-23.801v25.901c0,1.2,0.1,9.801,8.9,9.801c6.7,0,9.9-4.601,11.101-6.301
		l8.101,4.501c-4.4,6.9-10.101,9.9-19.201,9.9c-18.302,0-18.401-13.001-18.401-14.901V33.598H842.7v-7.701H856.201z"/>
	<path d="M976.301,76.6V25.297h9.5v7.201h0.801c2.5-3.101,8.101-8.301,16.4-8.301c16.501,0,16.602,13,16.602,14.9v2.5h-9.501
		c-0.1-2.1-0.899-9.301-8.9-9.301c-7,0-15.401,8.602-15.401,23.102V76.6H976.301z"/>
	<path d="M1056.102,24.197c13.701,0,24.702,10.801,24.702,26.801c0,15.701-11.001,26.402-24.702,26.402
		c-13.9,0-24.901-10.701-24.901-26.402C1031.2,34.998,1042.201,24.197,1056.102,24.197z M1056.002,69.3
		c8.101,0,14.901-7.501,14.901-18.501c0-10.9-6.801-18.502-14.901-18.502s-14.901,7.602-14.901,18.502
		C1041.101,61.799,1047.901,69.3,1056.002,69.3z"/>
	<path d="M1141.703,25.297V76.6h-9.5v-7.3h-1c-2.601,3.101-7.901,8.101-16.201,8.101c-16.501,0-16.602-12.801-16.602-14.701V25.297
		h9.501V59.6c0,1.199,0.1,9.7,8.9,9.7c7,0,15.401-8.401,15.401-22.702V25.297H1141.703z"/>
	<path d="M1170.201,25.896v-18.9h9.501v18.9h23.801v7.701h-23.801v25.901c0,1.2,0.1,9.801,8.9,9.801c6.7,0,9.9-4.601,11.101-6.301
		l8.101,4.501c-4.4,6.9-10.101,9.9-19.201,9.9c-18.302,0-18.401-13.001-18.401-14.901V33.598H1156.7v-7.701H1170.201z"/>
	<path d="M1233.602,53.398c0.899,9.601,7.4,15.901,14.9,15.901c6.101,0,11.301-4.101,14.101-10.901l8.601,3.801
		c-3.8,9.4-12.601,15.201-22.701,15.201c-13.9,0-24.901-10.701-24.901-26.402c0-16,10.801-26.801,24.401-26.801
		s24.401,10.801,24.401,26.801v2.4H1233.602z M1234.001,45.898h28.002c-1.7-8.201-7.4-13.602-14.001-13.602
		C1241.302,32.297,1235.602,37.697,1234.001,45.898z"/>
</g>
</svg>
