<?xml version="1.0" encoding="utf-8"?>
<!-- Generator: Adobe Illustrator 15.0.0, SVG Export Plug-In . SVG Version: 6.00 Build 0)  -->
<!DOCTYPE svg PUBLIC "-//W3C//DTD SVG 1.1//EN" "http://www.w3.org/Graphics/SVG/1.1/DTD/svg11.dtd">
<svg version="1.1" id="Layer_1" xmlns="http://www.w3.org/2000/svg" xmlns:xlink="http://www.w3.org/1999/xlink" x="0px" y="0px"
	 width="574.333px" height="87.5px" viewBox="0 0 574.333 87.5" enable-background="new 0 0 574.333 87.5" xml:space="preserve">
<g>
	<path d="M10.568,39.065c0.2-3.1,1.1-5.8,2.8-8.3c2.7-4.101,8.201-8.301,19.001-8.301c4.3,0,7.5,0.9,10.001,2
		c6.9,3.2,8.2,9.3,8.2,14.4v26.502c0,1.7,1.2,2.7,2.3,2.7s1.6-0.5,2-1c0.3-0.3,0.5-0.6,0.6-1l6.701,3.3c-0.6,1.2-1.3,2.3-2.2,3.2
		c-1.5,1.6-3.7,3.101-6.601,3.101c-5.2,0-9.3-3.8-9.601-6.5h-0.8c-5.201,5.1-11.001,6.5-15.301,6.5c-3.2,0-19.601-0.3-19.601-15.801
		c0-9.601,9.201-14.001,16.701-15.601l16.301-3.4v-2c0-2.8-0.2-8.3-9-8.3c-5.9,0-8.801,2.2-10.301,4.3c-0.9,1.2-1.4,2.6-1.6,4.2
		H10.568z M41.07,48.766l-12,2.5c-5.4,1.1-11.101,3.6-11.101,8.701c0,7.4,7,7.601,9.701,7.601h0.4c5.9,0,13-4.5,13-10.101V48.766z"
		/>
	<path d="M75.969,74.867V23.564h9.5v7.201h0.8c2.5-3.1,8.101-8.301,16.401-8.301c16.501,0,16.601,13.001,16.601,14.901v2.5h-9.5
		c-0.1-2.1-0.9-9.301-8.9-9.301c-7,0-15.401,8.601-15.401,23.102v21.201H75.969z"/>
	<path d="M147.869,24.164V5.263h9.5v18.901h23.802v7.701H157.37v25.901c0,1.2,0.1,9.801,8.9,9.801c6.7,0,9.9-4.601,11.101-6.301
		l8.101,4.5c-4.4,6.9-10.101,9.901-19.201,9.901c-18.301,0-18.401-13.001-18.401-14.901V31.865h-13.501v-7.701H147.869z"/>
	<path d="M267.969,74.867V23.564h9.5v7.201h0.801c2.5-3.1,8.1-8.301,16.4-8.301c16.5,0,16.602,13.001,16.602,14.901v2.5h-9.502
		c-0.1-2.1-0.898-9.301-8.9-9.301c-7,0-15.4,8.601-15.4,23.102v21.201H267.969z"/>
	<path d="M353.77,22.464c13.701,0,24.701,10.801,24.701,26.802c0,15.701-11,26.402-24.701,26.402
		c-13.9,0-24.902-10.701-24.902-26.402C328.867,33.265,339.869,22.464,353.77,22.464z M353.67,67.567c8.1,0,14.9-7.5,14.9-18.501
		c0-10.9-6.801-18.501-14.9-18.501c-8.102,0-14.902,7.601-14.902,18.501C338.768,60.066,345.568,67.567,353.67,67.567z"/>
	<path d="M439.371,23.564v51.303h-9.5v-7.3h-1c-2.602,3.1-7.902,8.101-16.201,8.101c-16.502,0-16.602-12.801-16.602-14.701V23.564
		h9.5v34.302c0,1.2,0.1,9.701,8.9,9.701c7,0,15.402-8.401,15.402-22.702V23.564H439.371z"/>
	<path d="M467.869,24.164V5.263h9.5v18.901h23.801v7.701h-23.801v25.901c0,1.2,0.1,9.801,8.9,9.801c6.701,0,9.9-4.601,11.102-6.301
		l8.1,4.5c-4.4,6.9-10.1,9.901-19.201,9.901c-18.301,0-18.4-13.001-18.4-14.901V31.865h-13.502v-7.701H467.869z"/>
	<path d="M531.27,51.666c0.898,9.601,7.4,15.901,14.9,15.901c6.1,0,11.301-4.101,14.1-10.901l8.602,3.8
		c-3.801,9.4-12.602,15.201-22.701,15.201c-13.9,0-24.902-10.701-24.902-26.402c0-16.001,10.801-26.802,24.402-26.802
		c13.6,0,24.4,10.801,24.4,26.802v2.4H531.27z M531.668,44.166h28.002c-1.699-8.201-7.4-13.601-14-13.601
		C538.969,30.564,533.27,35.965,531.668,44.166z"/>
</g>
<g>
	<path d="M51.471-32.333c-2.1,4.4-8.901,10.001-17.201,10.001c-8.301,0-15.401-3.4-20.901-9.501c-5.5-6.2-8.9-15.001-8.9-25.801
		c0-10.701,3.4-19.501,9-25.702c5.4-6.101,12.5-9.601,20.801-9.601c13.201,0,26.901,8.5,26.901,24.702h-9.601
		c0-9.901-8.3-16.301-17.301-16.301c-13.001,0-19.701,14.001-19.701,26.902c0,8.3,2.3,15.001,6,19.701c3.6,4.6,8.2,7.2,13.701,7.2
		c10.4,0,17.701-11,17.801-20.801l-18.701,0.1v-8.3h27.801v36.602h-9.7V-32.333z"/>
	<path d="M119.871-83.836H83.069v21.601h32.802v8.301H83.069v22.501h38.803v8.3H73.369v-69.004h46.502V-83.836z"/>
	<path d="M189.372-83.836h-23.001v60.704h-9.701v-60.704h-22.801v-8.301h55.503V-83.836z"/>
	<path d="M276.869-31.433h37.701v8.3h-47.402v-69.004h9.701V-31.433z"/>
	<path d="M333.068-83.136c5.301-6.101,12.9-9.601,20.801-9.601c7.801,0,15.301,3.5,20.502,9.601c5.301,6.2,8.5,14.901,8.5,25.602
		c0,10.8-3.199,19.501-8.4,25.701c-5.301,6.101-12.801,9.501-20.602,9.501c-7.9,0-15.5-3.4-20.9-9.601
		c-5.201-6.101-8.502-14.801-8.502-25.602C324.467-68.235,327.768-76.936,333.068-83.136z M340.369-38.034
		c3.299,4.7,8.199,7.3,13.301,7.3c5.199,0,10.1-2.6,13.4-7.3c3.6-4.5,5.701-11.201,5.701-19.601c0-8.301-2.102-15.001-5.701-19.501
		c-3.301-4.7-8.201-7.4-13.4-7.4c-5.102,0-10.002,2.7-13.301,7.4c-3.701,4.5-5.801,11.201-5.801,19.501
		C334.568-49.234,336.668-42.534,340.369-38.034z"/>
	<path d="M442.371-73.336h-10.5c-1.602-7.601-7.4-11.201-16.303-11.201c-6.199,0-14.6,3.2-14.6,10.701
		c0,7.8,9.201,9.801,17.301,10.601c12.9,1.2,27.701,4.1,27.701,19.701c0,14.601-11.201,21.202-25.801,21.202
		c-16.701,0-28.502-8.901-30.703-24.102h10.201c2.201,10.4,9.602,15.701,20.002,15.701c8.5,0,16.201-2.5,16.201-12.801
		c0-8-6-9.9-18.801-11.301c-11.801-1.3-26.203-5-26.203-19.001c0-11.901,12.602-19.101,24.402-19.101
		C429.371-92.937,439.471-86.837,442.371-73.336z"/>
	<path d="M509.371-83.836h-23.002v60.704h-9.699v-60.704h-22.803v-8.301h55.504V-83.836z"/>
</g>
<g>
	<path d="M11.262,131.411H6.621L2.76,111.403h3.666L9,126.926l3.12-13.806h4.056l3.159,13.806l2.535-15.522h3.666l-3.861,20.008
		h-4.641l-2.886-13.884L11.262,131.411z"/>
	<path d="M30.645,131.411v-27.145h3.705v9.945h0.312c0.975-1.209,3.159-3.237,6.396-3.237c6.435,0,6.474,5.07,6.474,5.812v14.625
		h-3.705v-13.456c0-0.468-0.039-3.822-3.471-3.822c-2.73,0-6.006,3.354-6.006,9.01v8.268H30.645z"/>
	<path d="M58.452,122.363c0.351,3.744,2.886,6.201,5.811,6.201c2.379,0,4.407-1.599,5.5-4.251l3.354,1.482
		c-1.482,3.666-4.914,5.928-8.854,5.928c-5.421,0-9.711-4.173-9.711-10.296c0-6.24,4.212-10.453,9.516-10.453
		s9.516,4.212,9.516,10.453v0.936H58.452z M58.608,119.438h10.921c-0.663-3.198-2.886-5.304-5.46-5.304
		C61.455,114.133,59.232,116.24,58.608,119.438z"/>
	<path d="M80.565,131.411v-20.008h3.705v2.808h0.312c0.975-1.209,3.159-3.237,6.396-3.237c6.435,0,6.474,5.07,6.474,5.812v0.975
		h-3.705c-0.039-0.819-0.351-3.627-3.471-3.627c-2.73,0-6.006,3.354-6.006,9.01v8.268H80.565z"/>
	<path d="M108.372,122.363c0.351,3.744,2.886,6.201,5.811,6.201c2.379,0,4.407-1.599,5.5-4.251l3.354,1.482
		c-1.482,3.666-4.914,5.928-8.854,5.928c-5.421,0-9.711-4.173-9.711-10.296c0-6.24,4.212-10.453,9.516-10.453
		s9.516,4.212,9.516,10.453v0.936H108.372z M108.528,119.438h10.921c-0.663-3.198-2.886-5.304-5.46-5.304
		C111.375,114.133,109.152,116.24,108.528,119.438z"/>
	<path d="M158.526,111.637v-7.371h3.705v7.371h9.282v3.003h-9.282v10.101c0,0.468,0.039,3.822,3.472,3.822
		c2.612,0,3.86-1.794,4.329-2.457l3.159,1.755c-1.717,2.691-3.939,3.861-7.488,3.861c-7.138,0-7.177-5.07-7.177-5.811v-11.271
		h-5.265v-3.003H158.526z"/>
	<path d="M180.406,131.411v-27.145h3.705v9.945h0.312c0.976-1.209,3.159-3.237,6.396-3.237c6.436,0,6.474,5.07,6.474,5.812v14.625
		h-3.705v-13.456c0-0.468-0.039-3.822-3.471-3.822c-2.73,0-6.006,3.354-6.006,9.01v8.268H180.406z"/>
	<path d="M208.212,122.363c0.351,3.744,2.886,6.201,5.812,6.201c2.379,0,4.407-1.599,5.499-4.251l3.354,1.482
		c-1.481,3.666-4.914,5.928-8.853,5.928c-5.422,0-9.712-4.173-9.712-10.296c0-6.24,4.213-10.453,9.517-10.453
		s9.517,4.212,9.517,10.453v0.936H208.212z M208.369,119.438h10.92c-0.663-3.198-2.886-5.304-5.46-5.304
		C211.215,114.133,208.993,116.24,208.369,119.438z"/>
	<path d="M268.312,117.527c-0.117-0.585-0.547-3.394-4.76-3.394c-4.055,0-4.562,2.106-4.562,2.73c0,2.184,3.861,2.574,5.227,2.73
		c3.783,0.39,8.893,0.975,8.893,6.006c0,2.925-2.613,6.123-9.049,6.123c-6.123,0-9.555-3.861-9.672-6.981h3.861
		c0.156,1.638,1.793,3.822,5.732,3.822c4.135,0,5.266-1.677,5.266-2.964c0-2.886-3.51-2.574-6.475-3.003
		c-3.119-0.468-7.645-1.56-7.645-5.733c0-1.014,0.781-5.89,8.346-5.89c7.84,0,8.736,6.318,8.775,6.553H268.312z"/>
	<path d="M280.051,128.408h7.098v-14.001h-6.084v-3.003h9.789v17.005h6.865v3.003h-17.668V128.408z M288.865,103.837
		c1.559,0,2.807,1.248,2.807,2.808c0,1.482-1.248,2.691-2.807,2.691c-1.482,0-2.691-1.209-2.691-2.691
		C286.174,105.085,287.383,103.837,288.865,103.837z"/>
	<path d="M322.834,131.411h-3.705v-2.223h-0.273c-1.053,1.131-3.08,2.535-5.732,2.535c-5.109,0-9.127-4.68-9.127-10.335
		c0-5.733,4.018-10.414,9.127-10.414c2.652,0,4.719,1.638,5.693,2.73h0.312v-9.438h3.705V131.411z M319.129,121.349
		c0-4.29-2.066-7.215-5.656-7.215c-3.158,0-5.615,3.159-5.615,7.215s2.457,7.215,5.615,7.215c3.473,0,5.539-2.808,5.656-6.903
		V121.349z"/>
	<path d="M333.012,122.363c0.352,3.744,2.887,6.201,5.812,6.201c2.379,0,4.406-1.599,5.498-4.251l3.355,1.482
		c-1.482,3.666-4.916,5.928-8.854,5.928c-5.422,0-9.713-4.173-9.713-10.296c0-6.24,4.213-10.453,9.518-10.453
		s9.516,4.212,9.516,10.453v0.936H333.012z M333.168,119.438h10.92c-0.662-3.198-2.885-5.304-5.459-5.304
		C336.016,114.133,333.793,116.24,333.168,119.438z"/>
	<path d="M360.703,131.411h-4.643l-3.861-20.008h3.666l2.574,15.522l3.121-13.806h4.057l3.158,13.806l2.535-15.522h3.666
		l-3.861,20.008h-4.641l-2.887-13.884L360.703,131.411z"/>
	<path d="M379.539,117.449c0.078-1.209,0.43-2.262,1.092-3.237c1.053-1.599,3.199-3.237,7.41-3.237c1.678,0,2.926,0.351,3.9,0.78
		c2.691,1.248,3.197,3.627,3.197,5.616v10.335c0,0.663,0.469,1.053,0.898,1.053c0.428,0,0.623-0.195,0.779-0.39
		c0.117-0.117,0.195-0.234,0.234-0.39l2.613,1.287c-0.234,0.468-0.508,0.897-0.857,1.248c-0.586,0.624-1.443,1.209-2.574,1.209
		c-2.029,0-3.627-1.482-3.744-2.535h-0.312c-2.029,1.989-4.291,2.535-5.967,2.535c-1.248,0-7.645-0.117-7.645-6.162
		c0-3.744,3.588-5.46,6.514-6.084l6.355-1.326v-0.78c0-1.092-0.076-3.237-3.51-3.237c-2.301,0-3.432,0.858-4.018,1.677
		c-0.35,0.468-0.545,1.014-0.623,1.638H379.539z M391.434,121.232l-4.68,0.975c-2.105,0.429-4.328,1.404-4.328,3.394
		c0,2.886,2.729,2.964,3.783,2.964h0.156c2.301,0,5.068-1.755,5.068-3.939V121.232z"/>
	<path d="M404.654,128.408h7.1v-21.139h-6.084v-3.003h9.789v24.142h6.863v3.003h-17.668V128.408z"/>
	<path d="M430.512,131.411v-27.145h3.705v14.196l7.684-7.059h4.992l-7.488,6.786v0.351l9.049,12.871h-4.291l-7.488-10.764
		l-2.457,2.262v8.502H430.512z"/>
	<path d="M482.771,122.363c0.352,3.744,2.887,6.201,5.812,6.201c2.379,0,4.406-1.599,5.498-4.251l3.355,1.482
		c-1.482,3.666-4.916,5.928-8.854,5.928c-5.422,0-9.713-4.173-9.713-10.296c0-6.24,4.213-10.453,9.518-10.453
		s9.516,4.212,9.516,10.453v0.936H482.771z M482.928,119.438h10.92c-0.662-3.198-2.885-5.304-5.459-5.304
		C485.775,114.133,483.553,116.24,482.928,119.438z"/>
	<path d="M504.885,131.411v-20.008h3.705v2.808h0.312c0.975-1.209,3.158-3.237,6.396-3.237c6.436,0,6.475,5.07,6.475,5.812v14.625
		h-3.707v-13.456c0-0.468-0.037-3.822-3.471-3.822c-2.73,0-6.006,3.354-6.006,9.01v8.268H504.885z"/>
	<path d="M547.473,131.411h-3.705v-2.223h-0.271c-1.055,1.131-3.082,2.535-5.734,2.535c-5.109,0-9.125-4.68-9.125-10.335
		c0-5.733,4.016-10.414,9.125-10.414c2.652,0,4.719,1.638,5.695,2.73h0.311v-9.438h3.705V131.411z M543.768,121.349
		c0-4.29-2.066-7.215-5.654-7.215c-3.16,0-5.617,3.159-5.617,7.215s2.457,7.215,5.617,7.215c3.471,0,5.537-2.808,5.654-6.903
		V121.349z"/>
	<path d="M567.832,117.527c-0.117-0.585-0.547-3.394-4.76-3.394c-4.055,0-4.562,2.106-4.562,2.73c0,2.184,3.861,2.574,5.227,2.73
		c3.783,0.39,8.893,0.975,8.893,6.006c0,2.925-2.613,6.123-9.049,6.123c-6.123,0-9.555-3.861-9.672-6.981h3.861
		c0.156,1.638,1.793,3.822,5.732,3.822c4.135,0,5.266-1.677,5.266-2.964c0-2.886-3.51-2.574-6.475-3.003
		c-3.119-0.468-7.645-1.56-7.645-5.733c0-1.014,0.781-5.89,8.346-5.89c7.84,0,8.736,6.318,8.775,6.553H567.832z"/>
</g>
<rect x="629.002" y="5.267" fill="none" width="580.844" height="139.344"/>
<text transform="matrix(1 0 0 1 629.002 74.8672)" font-family="'LetteraPro-Bold'" font-size="100">art route</text>
<rect x="629.002" y="-92.733" fill="none" width="580.844" height="139.345"/>
<text transform="matrix(1 0 0 1 629.002 -23.1328)" font-family="'LetteraPro-Bold'" font-size="100">GET LOST</text>
<rect x="629.002" y="104.267" fill="none" width="617.51" height="36.677"/>
<text transform="matrix(1 0 0 1 629.002 131.4111)" font-family="'LetteraPro-Bold'" font-size="39">where the sidewalk ends</text>
</svg>
