<?xml version="1.0" encoding="utf-8"?>
<!-- Generator: Adobe Illustrator 15.0.0, SVG Export Plug-In  -->
<!DOCTYPE svg PUBLIC "-//W3C//DTD SVG 1.1//EN" "http://www.w3.org/Graphics/SVG/1.1/DTD/svg11.dtd" [
	<!ENTITY ns_flows "http://ns.adobe.com/Flows/1.0/">
]>
<svg version="1.1"
	 xmlns="http://www.w3.org/2000/svg" xmlns:xlink="http://www.w3.org/1999/xlink" xmlns:a="http://ns.adobe.com/AdobeSVGViewerExtensions/3.0/"
	 x="0px" y="0px" width="1012px" height="88px" viewBox="-6.4 -5.229 1012 88"
	 overflow="visible" enable-background="new -6.4 -5.229 1012 88" xml:space="preserve">
<defs>
</defs>
<path d="M0,69.804V0.8h9.701v28.602h31.802V0.8h9.701v69.004h-9.701V37.702H9.701v32.102H0z"/>
<path d="M71,9.801C76.301,3.7,83.901,0.2,91.802,0.2c7.8,0,15.301,3.5,20.501,9.601c5.3,6.2,8.5,14.901,8.5,25.602
	c0,10.8-3.2,19.501-8.4,25.701c-5.3,6.101-12.801,9.501-20.601,9.501c-7.901,0-15.501-3.4-20.901-9.601
	c-5.2-6.101-8.5-14.801-8.5-25.602C62.4,24.702,65.7,16.001,71,9.801z M78.301,54.903c3.3,4.7,8.201,7.3,13.301,7.3
	c5.2,0,10.101-2.6,13.401-7.3c3.6-4.5,5.7-11.201,5.7-19.601c0-8.301-2.1-15.001-5.7-19.501c-3.3-4.7-8.201-7.4-13.401-7.4
	c-5.1,0-10,2.7-13.301,7.4c-3.7,4.5-5.8,11.201-5.8,19.501C72.5,43.703,74.601,50.403,78.301,54.903z"/>
<path d="M170.302,52.003l7.7-51.203h10.001l-11.301,69.004h-12.001l-7.101-48.703l-7.1,48.703h-12L127.2,0.8h10l7.701,51.203
	l5.8-40.402h13.801L170.302,52.003z"/>
<path d="M309.303,9.101h-23.002v60.704h-9.699V9.101h-22.803V0.8h55.504V9.101z"/>
<path d="M325,9.801C330.301,3.7,337.9,0.2,345.801,0.2c7.801,0,15.301,3.5,20.502,9.601c5.301,6.2,8.5,14.901,8.5,25.602
	c0,10.8-3.199,19.501-8.4,25.701c-5.301,6.101-12.801,9.501-20.602,9.501c-7.9,0-15.5-3.4-20.9-9.601
	c-5.201-6.101-8.502-14.801-8.502-25.602C316.398,24.702,319.699,16.001,325,9.801z M332.301,54.903c3.299,4.7,8.199,7.3,13.301,7.3
	c5.199,0,10.1-2.6,13.4-7.3c3.6-4.5,5.701-11.201,5.701-19.601c0-8.301-2.102-15.001-5.701-19.501c-3.301-4.7-8.201-7.4-13.4-7.4
	c-5.102,0-10.002,2.7-13.301,7.4c-3.701,4.5-5.801,11.201-5.801,19.501C326.5,43.703,328.6,50.403,332.301,54.903z"/>
<path d="M489.402,60.604c-2.1,4.4-8.9,10.001-17.201,10.001s-15.4-3.4-20.9-9.501c-5.502-6.2-8.902-15.001-8.902-25.801
	c0-10.701,3.4-19.501,9.002-25.702C456.801,3.5,463.9,0,472.201,0c13.201,0,26.902,8.5,26.902,24.702h-9.602
	c0-9.901-8.301-16.301-17.301-16.301c-13,0-19.701,14.001-19.701,26.902c0,8.3,2.301,15.001,6,19.701c3.6,4.6,8.201,7.2,13.701,7.2
	c10.4,0,17.701-11,17.801-20.801l-18.701,0.1v-8.3h27.803v36.602h-9.701V60.604z"/>
<path d="M557.803,9.101H521v21.601h32.803v8.301H521v22.501h38.803v8.3h-48.504V0.8h46.504V9.101z"/>
<path d="M625.303,9.101h-23.002v60.704h-9.699V9.101h-22.803V0.8h55.504V9.101z"/>
<path d="M747.303,9.101h-23.002v60.704h-9.699V9.101h-22.803V0.8h55.504V9.101z"/>
<path d="M758,69.804V0.8h9.699v28.602h31.803V0.8h9.701v69.004h-9.701V37.702h-31.803v32.102H758z"/>
<path d="M869.803,9.101H833v21.601h32.803v8.301H833v22.501h38.803v8.3h-48.504V0.8h46.504V9.101z"/>
<path d="M895.801,69.804H886.1V0.8h32.201c10.201,0,18.502,9.001,18.502,20.001c0,9.101-5.801,16.301-13.201,18.801l16.301,30.202
	h-10.699l-15.502-28.802H895.9L895.801,69.804z M915.602,32.702c6.1,0,11.1-3.5,11.1-11.801c0-4.7-1.898-11.801-11.1-11.801h-19.801
	v23.602H915.602z"/>
<path d="M995.803,9.101H959v21.601h32.803v8.301H959v22.501h38.803v8.3h-48.504V0.8h46.504V9.101z"/>
</svg>
