<?xml version="1.0" encoding="utf-8"?>
<!-- Generator: Adobe Illustrator 15.0.0, SVG Export Plug-In  -->
<!DOCTYPE svg PUBLIC "-//W3C//DTD SVG 1.1//EN" "http://www.w3.org/Graphics/SVG/1.1/DTD/svg11.dtd" [
	<!ENTITY ns_flows "http://ns.adobe.com/Flows/1.0/">
]>
<svg version="1.1"
	 xmlns="http://www.w3.org/2000/svg" xmlns:xlink="http://www.w3.org/1999/xlink" xmlns:a="http://ns.adobe.com/AdobeSVGViewerExtensions/3.0/"
	 x="0px" y="0px" width="805px" height="463px" viewBox="242.726 159.06 805 463"
	 overflow="visible" enable-background="new 242.726 159.06 805 463" xml:space="preserve">
<defs>
</defs>
<g>
	<defs>
		<polygon id="SVGID_7_" points="393.496,557.796 913.042,557.796 982.294,165.499 393.496,233.358 		"/>
	</defs>
	<clipPath id="SVGID_14_">
		<use xlink:href="#SVGID_7_"  overflow="visible"/>
	</clipPath>
	<g clip-path="url(#SVGID_14_)">
		<path fill="#231F20" d="M517.095,477.87h49.246v10.841h-61.917V398.58h12.671V477.87z"/>
		<path fill="#231F20" d="M580.057,410.336c6.923-7.968,16.851-12.54,27.17-12.54c10.188,0,19.985,4.572,26.778,12.54
			c6.923,8.099,11.104,19.464,11.104,33.44c0,14.107-4.18,25.471-10.973,33.57c-6.923,7.969-16.72,12.41-26.908,12.41
			c-10.32,0-20.247-4.441-27.301-12.541c-6.793-7.969-11.104-19.333-11.104-33.44C568.823,429.8,573.133,418.436,580.057,410.336z
			 M589.592,469.248c4.311,6.14,10.711,9.536,17.373,9.536c6.793,0,13.193-3.396,17.504-9.536
			c4.702-5.877,7.446-14.629,7.446-25.603c0-10.841-2.744-19.593-7.446-25.471c-4.311-6.14-10.711-9.666-17.504-9.666
			c-6.662,0-13.062,3.526-17.373,9.666c-4.833,5.878-7.577,14.63-7.577,25.471C582.016,454.619,584.759,463.371,589.592,469.248z"/>
		<path fill="#231F20" d="M725.444,423.138h-13.716c-2.09-9.928-9.666-14.63-21.292-14.63c-8.099,0-19.071,4.179-19.071,13.976
			c0,10.189,12.018,12.802,22.598,13.847c16.852,1.567,36.184,5.356,36.184,25.733c0,19.071-14.63,27.693-33.702,27.693
			c-21.814,0-37.228-11.625-40.102-31.48h13.324c2.874,13.584,12.54,20.507,26.125,20.507c11.103,0,21.161-3.265,21.161-16.719
			c0-10.45-7.837-12.932-24.557-14.76c-15.415-1.699-34.225-6.532-34.225-24.82c0-15.544,16.459-24.949,31.873-24.949
			C708.462,397.535,721.655,405.503,725.444,423.138z"/>
		<path fill="#231F20" d="M810.351,409.422h-30.044v79.289h-12.671v-79.289h-29.783V398.58h72.498V409.422z"/>
	</g>
	<g clip-path="url(#SVGID_14_)">
		<g>
			<path fill="#231F20" d="M651.509,300.349h-30.044v79.29h-12.671v-79.29h-29.782v-10.843h72.498V300.349z"/>
		</g>
		<g>
			<path fill="#231F20" d="M565.949,300.349h-48.07v28.215h42.846v10.842h-42.846v29.391h50.683v10.842h-63.354v-90.132h60.741
				V300.349z"/>
		</g>
		<g>
			<path fill="#231F20" d="M476.6,367.621c-2.743,5.748-11.625,13.062-22.468,13.062c-10.842,0-20.116-4.44-27.301-12.409
				c-7.185-8.099-11.625-19.594-11.625-33.702c0-13.977,4.441-25.471,11.756-33.57c7.054-7.968,16.329-12.541,27.17-12.541
				c17.243,0,35.139,11.103,35.139,32.265H476.73c0-12.932-10.842-21.292-22.598-21.292c-16.981,0-25.733,18.288-25.733,35.138
				c0,10.842,3.004,19.595,7.837,25.734c4.702,6.009,10.711,9.405,17.896,9.405c13.585,0,23.121-14.369,23.252-27.17l-24.428,0.13
				v-10.842h36.314v47.809H476.6V367.621z"/>
		</g>
	</g>
	<g clip-path="url(#SVGID_14_)">
		<path fill="#404041" d="M416.595,248.975v-1.361l6.425-8.245h-5.918v-1.313h7.754v1.345l-6.441,8.261h6.616v1.313H416.595z"/>
		<path fill="#404041" d="M434.259,240.856v8.118h-1.503v-1.155h-0.158c-0.412,0.49-1.251,1.281-2.564,1.281
			c-2.611,0-2.627-2.025-2.627-2.326v-5.918h1.503v5.428c0,0.189,0.016,1.535,1.409,1.535c1.107,0,2.437-1.33,2.437-3.593v-3.371
			H434.259z"/>
		<path fill="#404041" d="M437.126,247.756h2.879v-5.682h-2.468v-1.218h3.972v6.9h2.786v1.218h-7.169V247.756z M440.702,237.786
			c0.633,0,1.14,0.507,1.14,1.139c0,0.602-0.507,1.092-1.14,1.092c-0.601,0-1.091-0.49-1.091-1.092
			C439.61,238.293,440.101,237.786,440.702,237.786z"/>
		<path fill="#404041" d="M453.554,248.975h-1.503v-0.902h-0.111c-0.427,0.459-1.25,1.029-2.326,1.029
			c-2.074,0-3.703-1.899-3.703-4.193c0-2.327,1.629-4.226,3.703-4.226c1.076,0,1.915,0.665,2.311,1.108h0.126v-3.83h1.503V248.975z
			 M452.051,244.892c0-1.741-0.839-2.928-2.295-2.928c-1.281,0-2.279,1.282-2.279,2.928c0,1.646,0.998,2.928,2.279,2.928
			c1.409,0,2.248-1.14,2.295-2.801V244.892z"/>
		<path fill="#404041" d="M456.31,243.309c0.032-0.49,0.174-0.917,0.444-1.313c0.427-0.649,1.298-1.314,3.006-1.314
			c0.681,0,1.187,0.143,1.582,0.316c1.093,0.507,1.298,1.472,1.298,2.279v4.193c0,0.27,0.19,0.428,0.365,0.428
			c0.173,0,0.252-0.079,0.316-0.158c0.047-0.048,0.079-0.095,0.095-0.159l1.061,0.521c-0.096,0.19-0.207,0.365-0.348,0.507
			c-0.238,0.253-0.586,0.491-1.045,0.491c-0.823,0-1.471-0.602-1.52-1.029h-0.126c-0.823,0.807-1.741,1.029-2.421,1.029
			c-0.507,0-3.102-0.047-3.102-2.5c0-1.519,1.456-2.215,2.643-2.468l2.579-0.538v-0.316c0-0.443-0.032-1.314-1.424-1.314
			c-0.933,0-1.392,0.349-1.629,0.681c-0.143,0.19-0.222,0.412-0.253,0.665H456.31z M461.137,244.844l-1.898,0.396
			c-0.855,0.174-1.757,0.57-1.757,1.377c0,1.171,1.108,1.203,1.535,1.203h0.063c0.933,0,2.057-0.712,2.057-1.599V244.844z"/>
		<path fill="#404041" d="M471.331,243.341c-0.048-0.237-0.222-1.377-1.931-1.377c-1.646,0-1.852,0.855-1.852,1.108
			c0,0.886,1.566,1.044,2.121,1.108c1.535,0.158,3.608,0.396,3.608,2.437c0,1.187-1.061,2.484-3.671,2.484
			c-2.485,0-3.877-1.566-3.925-2.833h1.567c0.063,0.665,0.728,1.552,2.326,1.552c1.678,0,2.136-0.681,2.136-1.203
			c0-1.171-1.424-1.044-2.627-1.218c-1.266-0.19-3.102-0.634-3.102-2.327c0-0.411,0.316-2.39,3.387-2.39
			c3.181,0,3.544,2.563,3.561,2.659H471.331z"/>
	</g>
	<g clip-path="url(#SVGID_14_)">
		<path fill="#404041" d="M423.068,267.969l-0.934-3.102h-3.671l-0.95,3.102h-1.599l3.466-10.919h1.835l3.45,10.919H423.068z
			 M419.017,263.554h2.547l-1.265-4.874L419.017,263.554z"/>
		<path fill="#404041" d="M430.319,267.969v-5.459c0-0.19-0.016-1.551-0.791-1.551c-0.634,0-1.393,0.902-1.393,3.196v3.814h-1.503
			v-8.119h1.503v0.823h0.19c0.269-0.491,0.807-0.997,1.693-0.997c0.854,0,1.297,0.475,1.535,0.997h0.3
			c0.285-0.491,0.854-0.997,1.772-0.997c1.868,0,1.883,2.057,1.883,2.357v5.935h-1.503v-5.459c0-0.19-0.016-1.551-0.791-1.551
			c-0.617,0-1.361,0.871-1.393,3.038v3.973H430.319z"/>
		<path fill="#404041" d="M443.346,262.335c-0.048-0.237-0.222-1.376-1.931-1.376c-1.646,0-1.852,0.854-1.852,1.108
			c0,0.886,1.567,1.044,2.121,1.107c1.535,0.158,3.608,0.396,3.608,2.437c0,1.187-1.06,2.484-3.671,2.484
			c-2.485,0-3.877-1.566-3.925-2.833h1.567c0.063,0.665,0.728,1.551,2.326,1.551c1.677,0,2.137-0.681,2.137-1.203
			c0-1.171-1.424-1.044-2.627-1.218c-1.266-0.189-3.102-0.633-3.102-2.326c0-0.412,0.316-2.39,3.387-2.39
			c3.18,0,3.544,2.563,3.56,2.658H443.346z"/>
		<path fill="#404041" d="M448.506,259.946v-2.991h1.503v2.991h3.766v1.218h-3.766v4.099c0,0.19,0.016,1.551,1.409,1.551
			c1.061,0,1.567-0.728,1.757-0.997l1.281,0.712c-0.696,1.092-1.598,1.566-3.039,1.566c-2.896,0-2.912-2.057-2.912-2.357v-4.574
			h-2.137v-1.218H448.506z"/>
		<path fill="#404041" d="M457.608,264.297c0.142,1.52,1.171,2.517,2.358,2.517c0.965,0,1.788-0.649,2.231-1.726l1.361,0.602
			c-0.602,1.487-1.994,2.405-3.593,2.405c-2.2,0-3.941-1.693-3.941-4.178c0-2.532,1.709-4.241,3.862-4.241s3.861,1.709,3.861,4.241
			v0.38H457.608z M457.671,263.11h4.432c-0.269-1.297-1.171-2.152-2.216-2.152C458.827,260.958,457.925,261.813,457.671,263.11z"/>
		<path fill="#404041" d="M465.966,267.969v-8.119h1.503v1.139h0.127c0.395-0.49,1.282-1.313,2.595-1.313
			c2.611,0,2.627,2.057,2.627,2.357v0.396h-1.503c-0.017-0.332-0.142-1.472-1.409-1.472c-1.107,0-2.437,1.361-2.437,3.656v3.355
			H465.966z"/>
		<path fill="#404041" d="M482.3,267.969h-1.503v-0.902h-0.111c-0.427,0.459-1.25,1.028-2.326,1.028
			c-2.073,0-3.704-1.899-3.704-4.193c0-2.327,1.63-4.226,3.704-4.226c1.076,0,1.914,0.664,2.309,1.108h0.127v-3.83h1.503V267.969z
			 M480.797,263.886c0-1.741-0.839-2.928-2.295-2.928c-1.282,0-2.278,1.282-2.278,2.928s0.997,2.928,2.278,2.928
			c1.409,0,2.247-1.14,2.295-2.801V263.886z"/>
		<path fill="#404041" d="M485.056,262.303c0.032-0.49,0.174-0.917,0.443-1.313c0.427-0.649,1.298-1.313,3.007-1.313
			c0.68,0,1.187,0.142,1.582,0.316c1.092,0.506,1.298,1.472,1.298,2.279v4.194c0,0.269,0.19,0.427,0.364,0.427
			c0.175,0,0.253-0.079,0.317-0.158c0.047-0.048,0.079-0.096,0.095-0.159l1.061,0.522c-0.095,0.19-0.206,0.364-0.348,0.506
			c-0.238,0.253-0.586,0.49-1.045,0.49c-0.822,0-1.471-0.602-1.519-1.028h-0.126c-0.824,0.807-1.742,1.028-2.422,1.028
			c-0.506,0-3.102-0.047-3.102-2.5c0-1.52,1.456-2.215,2.643-2.469l2.58-0.537v-0.317c0-0.443-0.031-1.313-1.424-1.313
			c-0.934,0-1.393,0.348-1.63,0.681c-0.143,0.19-0.222,0.411-0.254,0.664H485.056z M489.883,263.838l-1.899,0.396
			c-0.854,0.174-1.756,0.569-1.756,1.376c0,1.171,1.107,1.203,1.535,1.203h0.063c0.934,0,2.058-0.713,2.058-1.599V263.838z"/>
		<path fill="#404041" d="M498.415,267.969v-5.459c0-0.19-0.016-1.551-0.791-1.551c-0.633,0-1.393,0.902-1.393,3.196v3.814h-1.503
			v-8.119h1.503v0.823h0.189c0.269-0.491,0.808-0.997,1.694-0.997c0.854,0,1.297,0.475,1.535,0.997h0.3
			c0.286-0.491,0.856-0.997,1.773-0.997c1.867,0,1.883,2.057,1.883,2.357v5.935h-1.503v-5.459c0-0.19-0.015-1.551-0.791-1.551
			c-0.617,0-1.362,0.871-1.393,3.038v3.973H498.415z"/>
	</g>
	<g clip-path="url(#SVGID_14_)">
		<path fill="#383738" d="M416.813,401.592c-0.951,0.612-1.725,0.709-2.723,0.709v-1.256c1.305,0,2.723-0.323,2.723-1.547h1.53
			v11.116h-1.53V401.592z"/>
		<path fill="#383738" d="M422.582,402.704v-0.209c0-0.789,0.886-3.125,3.544-3.125c2.352,0,3.577,2.045,3.577,3.157
			c0,0.999-0.274,2.643-3.093,3.899c-1.191,0.531-2.432,1.257-2.432,2.658v0.274h5.96v1.256l-7.652,0.016v-0.467
			c0-3.014,1.192-3.867,3.561-4.994c1.82-0.87,2.062-1.917,2.062-2.529c0-0.773-0.677-1.966-1.965-1.966
			c-1.466,0-1.965,1.466-1.965,1.966v0.063H422.582z"/>
		<path fill="#383738" d="M437.146,409.567c0,0.645-0.516,1.175-1.208,1.175c-0.645,0-1.176-0.53-1.176-1.175
			c0-0.692,0.532-1.208,1.176-1.208C436.63,408.359,437.146,408.875,437.146,409.567z"/>
		<path fill="#383738" d="M448.085,401.029c0.677,1.015,1,2.433,1,3.995c0,1.595-0.323,3.014-1,4.06
			c-0.66,1.032-1.562,1.659-2.771,1.659c-1.241,0-2.158-0.627-2.819-1.659c-0.677-1.046-0.999-2.465-0.999-4.06
			c0-1.562,0.322-2.98,0.999-3.995c0.661-1.015,1.578-1.659,2.819-1.659C446.523,399.37,447.425,400.014,448.085,401.029z
			 M443.655,401.947c-0.354,0.773-0.563,1.869-0.563,3.093c0,1.224,0.209,2.319,0.563,3.109c0.402,0.789,0.935,1.289,1.643,1.289
			c0.693,0,1.225-0.5,1.627-1.289c0.354-0.79,0.563-1.886,0.563-3.109c0-1.224-0.209-2.32-0.563-3.093
			c-0.403-0.773-0.935-1.272-1.627-1.272C444.59,400.674,444.058,401.174,443.655,401.947z"/>
		<path fill="#383738" d="M457.898,402.398c-0.339-1.015-0.951-1.724-2.11-1.724c-1.515,0-2.272,1.869-2.417,3.641
			c0.242-0.307,1.111-1.241,2.336-1.241c2.159,0,3.786,1.756,3.786,3.898c0,2.078-1.627,3.769-3.705,3.769
			c-1.676,0-2.9-0.965-3.545-2.592c-0.353-0.886-0.499-1.934-0.499-3.158c0-3.173,1.676-5.622,4.124-5.622
			c1.869,0,2.9,0.982,3.48,2.48L457.898,402.398z M453.645,406.908c0,1.418,0.95,2.53,2.127,2.53c1.175,0,2.126-1.111,2.126-2.53
			c0-1.401-0.951-2.529-2.126-2.529C454.595,404.379,453.645,405.507,453.645,406.908z"/>
		<path fill="#383738" d="M466.485,409.567c0,0.645-0.515,1.175-1.208,1.175c-0.644,0-1.176-0.53-1.176-1.175
			c0-0.692,0.532-1.208,1.176-1.208C465.97,408.359,466.485,408.875,466.485,409.567z"/>
		<path fill="#383738" d="M474.525,401.592c-0.951,0.612-1.724,0.709-2.724,0.709v-1.256c1.306,0,2.724-0.323,2.724-1.547h1.53
			v11.116h-1.53V401.592z"/>
		<path fill="#383738" d="M481.84,407.279c0,0,0.161,2.159,2.078,2.159c1.918,0,2.079-2.159,2.079-2.82
			c0-0.805-0.306-2.48-1.788-2.48c-1.256,0-1.836,1.176-1.884,1.466l-1.579-0.162l0.58-5.944h5.767v1.256h-4.366
			c-0.129,1.208-0.177,1.499-0.29,2.739c0.145-0.113,0.951-0.661,1.9-0.661c2.674,0,3.254,2.497,3.254,3.753
			c0,0.951-0.29,4.156-3.689,4.156c-2.979,0-3.56-2.689-3.624-3.221L481.84,407.279z"/>
	</g>
	<g clip-path="url(#SVGID_14_)">
		<path fill="#383738" d="M415.17,441.372v-0.209c0-0.789,0.886-3.125,3.543-3.125c2.353,0,3.577,2.045,3.577,3.158
			c0,0.999-0.274,2.642-3.093,3.899c-1.192,0.531-2.433,1.256-2.433,2.658v0.273h5.96v1.257l-7.651,0.016v-0.468
			c0-3.012,1.192-3.866,3.56-4.993c1.82-0.871,2.062-1.917,2.062-2.529c0-0.774-0.677-1.966-1.965-1.966
			c-1.466,0-1.965,1.466-1.965,1.966v0.063H415.17z"/>
		<path fill="#383738" d="M426.045,445.947c0,0,0.161,2.158,2.078,2.158s2.078-2.158,2.078-2.819c0-0.806-0.306-2.481-1.788-2.481
			c-1.257,0-1.837,1.176-1.885,1.466l-1.579-0.161l0.58-5.945h5.768v1.256h-4.366c-0.129,1.208-0.177,1.499-0.29,2.739
			c0.145-0.113,0.95-0.66,1.9-0.66c2.675,0,3.255,2.497,3.255,3.753c0,0.951-0.291,4.156-3.689,4.156c-2.98,0-3.56-2.69-3.625-3.221
			L426.045,445.947z"/>
		<path fill="#383738" d="M438.757,448.235c0,0.643-0.515,1.175-1.208,1.175c-0.644,0-1.176-0.532-1.176-1.175
			c0-0.693,0.532-1.208,1.176-1.208C438.242,447.027,438.757,447.542,438.757,448.235z"/>
		<path fill="#383738" d="M449.374,439.696c0.678,1.016,0.999,2.433,0.999,3.996c0,1.595-0.321,3.012-0.999,4.06
			c-0.66,1.03-1.562,1.659-2.771,1.659c-1.24,0-2.159-0.628-2.819-1.659c-0.677-1.048-0.999-2.465-0.999-4.06
			c0-1.562,0.322-2.98,0.999-3.996c0.66-1.015,1.579-1.659,2.819-1.659C447.812,438.037,448.714,438.682,449.374,439.696z
			 M444.944,440.615c-0.354,0.773-0.564,1.869-0.564,3.093c0,1.224,0.209,2.319,0.564,3.109c0.403,0.79,0.934,1.289,1.643,1.289
			c0.693,0,1.225-0.499,1.627-1.289c0.354-0.79,0.563-1.885,0.563-3.109c0-1.224-0.209-2.32-0.563-3.093
			c-0.403-0.773-0.935-1.272-1.627-1.272C445.878,439.342,445.347,439.841,444.944,440.615z"/>
		<path fill="#383738" d="M453.967,446.382c0.337,1.016,0.95,1.724,2.11,1.724c1.514,0,2.271-1.869,2.417-3.641
			c-0.242,0.306-1.112,1.241-2.336,1.241c-2.158,0-3.785-1.757-3.785-3.899c0-2.078,1.627-3.769,3.705-3.769
			c1.675,0,2.9,0.966,3.544,2.594c0.354,0.886,0.499,1.933,0.499,3.158c0,3.174-1.675,5.622-4.124,5.622
			c-1.869,0-2.899-0.983-3.479-2.481L453.967,446.382z M458.22,441.871c0-1.417-0.95-2.529-2.126-2.529s-2.126,1.112-2.126,2.529
			c0,1.402,0.95,2.53,2.126,2.53S458.22,443.273,458.22,441.871z"/>
		<path fill="#383738" d="M467.13,448.235c0,0.643-0.516,1.175-1.208,1.175c-0.645,0-1.176-0.532-1.176-1.175
			c0-0.693,0.532-1.208,1.176-1.208C466.614,447.027,467.13,447.542,467.13,448.235z"/>
		<path fill="#383738" d="M474.219,440.26c-0.95,0.613-1.724,0.709-2.722,0.709v-1.257c1.305,0,2.722-0.322,2.722-1.546h1.531
			v11.116h-1.531V440.26z"/>
		<path fill="#383738" d="M481.211,445.947c0,0,0.161,2.158,2.078,2.158s2.078-2.158,2.078-2.819c0-0.806-0.307-2.481-1.789-2.481
			c-1.256,0-1.836,1.176-1.885,1.466l-1.579-0.161l0.58-5.945h5.768v1.256h-4.366c-0.129,1.208-0.177,1.499-0.29,2.739
			c0.145-0.113,0.95-0.66,1.901-0.66c2.674,0,3.254,2.497,3.254,3.753c0,0.951-0.291,4.156-3.689,4.156
			c-2.981,0-3.561-2.69-3.625-3.221L481.211,445.947z"/>
	</g>
	<g clip-path="url(#SVGID_14_)">
		<path fill="#231F20" d="M506.095,514.893c0.065-1.013,0.359-1.894,0.915-2.711c0.881-1.339,2.677-2.711,6.204-2.711
			c1.404,0,2.448,0.296,3.265,0.653c2.253,1.046,2.678,3.036,2.678,4.703v8.652c0,0.555,0.392,0.883,0.75,0.883
			c0.36,0,0.523-0.164,0.654-0.328c0.098-0.096,0.163-0.195,0.195-0.324l2.188,1.078c-0.195,0.391-0.424,0.75-0.718,1.045
			c-0.49,0.521-1.208,1.01-2.155,1.01c-1.698,0-3.037-1.24-3.134-2.121h-0.262c-1.698,1.664-3.592,2.121-4.996,2.121
			c-1.045,0-6.401-0.096-6.401-5.158c0-3.134,3.005-4.572,5.454-5.093l5.322-1.109v-0.654c0-0.914-0.065-2.71-2.938-2.71
			c-1.926,0-2.874,0.718-3.364,1.403c-0.294,0.394-0.457,0.85-0.522,1.374H506.095z M516.054,518.059l-3.918,0.816
			c-1.764,0.359-3.625,1.176-3.625,2.839c0,2.418,2.286,2.482,3.167,2.482h0.13c1.927,0,4.245-1.469,4.245-3.296V518.059z"/>
		<path fill="#231F20" d="M527.452,526.582v-16.751h3.103v2.351h0.261c0.816-1.012,2.645-2.711,5.355-2.711
			c5.388,0,5.421,4.245,5.421,4.866v0.816h-3.103c-0.033-0.684-0.294-3.037-2.906-3.037c-2.286,0-5.028,2.808-5.028,7.544v6.921
			H527.452z"/>
		<path fill="#231F20" d="M550.932,510.026v-6.172h3.102v6.172h7.771v2.515h-7.771v8.458c0,0.391,0.033,3.199,2.906,3.199
			c2.188,0,3.233-1.502,3.625-2.059l2.646,1.471c-1.437,2.254-3.298,3.232-6.27,3.232c-5.976,0-6.008-4.244-6.008-4.863v-9.438
			h-4.409v-2.515H550.932z"/>
		<path fill="#231F20" d="M590.153,526.582v-16.751h3.103v2.351h0.261c0.816-1.012,2.645-2.711,5.355-2.711
			c5.388,0,5.42,4.245,5.42,4.866v0.816h-3.102c-0.033-0.684-0.294-3.037-2.907-3.037c-2.286,0-5.028,2.808-5.028,7.544v6.921
			H590.153z"/>
		<path fill="#231F20" d="M616.212,509.47c4.474,0,8.066,3.528,8.066,8.752c0,5.126-3.592,8.619-8.066,8.619
			c-4.539,0-8.131-3.492-8.131-8.619C608.082,512.999,611.673,509.47,616.212,509.47z M616.18,524.197
			c2.645,0,4.866-2.447,4.866-6.041c0-3.559-2.221-6.041-4.866-6.041c-2.645,0-4.865,2.482-4.865,6.041
			C611.314,521.75,613.535,524.197,616.18,524.197z"/>
		<path fill="#231F20" d="M644.166,509.831v16.751h-3.102v-2.385h-0.327c-0.849,1.014-2.58,2.645-5.29,2.645
			c-5.388,0-5.42-4.178-5.42-4.799v-12.212h3.102v11.199c0,0.395,0.033,3.167,2.906,3.167c2.286,0,5.029-2.742,5.029-7.412v-6.955
			H644.166z"/>
		<path fill="#231F20" d="M653.474,510.026v-6.172h3.102v6.172h7.772v2.515h-7.772v8.458c0,0.391,0.033,3.199,2.907,3.199
			c2.187,0,3.232-1.502,3.624-2.059l2.646,1.471c-1.438,2.254-3.298,3.232-6.27,3.232c-5.977,0-6.009-4.244-6.009-4.863v-9.438
			h-4.409v-2.515H653.474z"/>
		<path fill="#231F20" d="M672.872,519.006c0.295,3.132,2.417,5.191,4.866,5.191c1.992,0,3.689-1.338,4.604-3.558l2.809,1.24
			c-1.241,3.07-4.114,4.963-7.412,4.963c-4.54,0-8.131-3.492-8.131-8.619c0-5.224,3.527-8.752,7.968-8.752s7.967,3.528,7.967,8.752
			v0.783H672.872z M673.002,516.559h9.144c-0.555-2.679-2.417-4.443-4.572-4.443C675.387,512.116,673.525,513.879,673.002,516.559z"
			/>
		<path fill="#231F20" d="M711.897,510.547v-0.424c0-1.601,1.795-6.334,7.184-6.334c4.768,0,7.25,4.146,7.25,6.399
			c0,2.024-0.556,5.356-6.27,7.903c-2.416,1.078-4.931,2.547-4.931,5.386v0.555h12.082v2.549l-15.511,0.033v-0.947
			c0-6.107,2.417-7.837,7.217-10.123c3.69-1.764,4.18-3.885,4.18-5.128c0-1.565-1.372-3.983-3.984-3.983
			c-2.972,0-3.983,2.972-3.983,3.983v0.131H711.897z"/>
		<path fill="#231F20" d="M744.618,507.152c1.371,2.059,2.024,4.932,2.024,8.098c0,3.232-0.653,6.107-2.024,8.228
			c-1.339,2.092-3.168,3.363-5.617,3.363c-2.514,0-4.376-1.271-5.715-3.363c-1.371-2.121-2.025-4.996-2.025-8.228
			c0-3.167,0.654-6.04,2.025-8.098c1.339-2.057,3.201-3.362,5.715-3.362C741.45,503.79,743.279,505.095,744.618,507.152z
			 M735.638,509.013c-0.718,1.568-1.143,3.787-1.143,6.27c0,2.482,0.425,4.701,1.143,6.302c0.817,1.6,1.894,2.611,3.331,2.611
			c1.405,0,2.482-1.012,3.299-2.611c0.718-1.601,1.143-3.82,1.143-6.302c0-2.483-0.424-4.702-1.143-6.27
			c-0.817-1.566-1.894-2.58-3.299-2.58C737.532,506.433,736.455,507.447,735.638,509.013z"/>
		<path fill="#231F20" d="M756.375,508.295c-1.926,1.24-3.494,1.437-5.518,1.437v-2.547c2.646,0,5.518-0.652,5.518-3.135h3.103
			v22.531h-3.103V508.295z"/>
		<path fill="#231F20" d="M769.209,519.822c0,0,0.327,4.375,4.212,4.375c3.887,0,4.213-4.375,4.213-5.714
			c0-1.631-0.62-5.028-3.625-5.028c-2.547,0-3.722,2.383-3.82,2.973l-3.2-0.328l1.175-12.049h11.69v2.548h-8.85
			c-0.26,2.448-0.359,3.036-0.587,5.55c0.294-0.229,1.926-1.338,3.853-1.338c5.42,0,6.596,5.061,6.596,7.608
			c0,1.928-0.586,8.423-7.478,8.423c-6.041,0-7.216-5.453-7.347-6.531L769.209,519.822z"/>
	</g>
	<g clip-path="url(#SVGID_14_)">
		<defs>
			<rect id="SVGID_12_" x="393.496" y="233.358" width="519.546" height="324.438"/>
		</defs>
		<clipPath id="SVGID_16_">
			<use xlink:href="#SVGID_12_"  overflow="visible"/>
		</clipPath>
		<g clip-path="url(#SVGID_16_)">
			<path fill="#404041" d="M763.256,310.134c-0.718,0-1.257-0.522-1.257-1.404v-0.212c0-2.09,2.302-3.314,2.302-3.314l0.604,0.718
				c-0.833,0.654-1.324,1.176-1.568,1.846c0.587,0,1.111,0.522,1.111,1.143C764.448,309.595,763.876,310.134,763.256,310.134z"/>
			<path fill="#404041" d="M772.318,316.534h-1.942l-1.617-8.376h1.534l1.078,6.499l1.306-5.78h1.699l1.322,5.78l1.062-6.499h1.534
				l-1.617,8.376h-1.942l-1.208-5.813L772.318,316.534z"/>
			<path fill="#404041" d="M780.433,316.534v-11.363h1.551v4.163h0.131c0.408-0.506,1.322-1.355,2.678-1.355
				c2.693,0,2.71,2.122,2.71,2.433v6.123h-1.551v-5.633c0-0.196-0.017-1.6-1.453-1.6c-1.143,0-2.515,1.404-2.515,3.771v3.461
				H780.433z"/>
			<path fill="#404041" d="M792.074,312.746c0.148,1.567,1.209,2.596,2.434,2.596c0.996,0,1.844-0.669,2.303-1.78l1.403,0.621
				c-0.62,1.535-2.058,2.481-3.706,2.481c-2.27,0-4.065-1.747-4.065-4.311c0-2.612,1.763-4.375,3.983-4.375
				c2.22,0,3.984,1.763,3.984,4.375v0.392H792.074z M792.14,311.522h4.572c-0.277-1.339-1.208-2.221-2.286-2.221
				C793.333,309.301,792.401,310.183,792.14,311.522z"/>
			<path fill="#404041" d="M801.334,316.534v-8.376h1.55v1.176h0.132c0.407-0.506,1.321-1.355,2.677-1.355
				c2.693,0,2.709,2.122,2.709,2.433v0.408h-1.549c-0.017-0.343-0.147-1.519-1.454-1.519c-1.143,0-2.515,1.404-2.515,3.771v3.461
				H801.334z"/>
			<path fill="#404041" d="M812.976,312.746c0.146,1.567,1.209,2.596,2.432,2.596c0.996,0,1.846-0.669,2.305-1.78l1.402,0.621
				c-0.621,1.535-2.059,2.481-3.707,2.481c-2.27,0-4.064-1.747-4.064-4.311c0-2.612,1.764-4.375,3.984-4.375
				c2.219,0,3.984,1.763,3.984,4.375v0.392H812.976z M813.041,311.522h4.572c-0.277-1.339-1.209-2.221-2.285-2.221
				C814.234,309.301,813.304,310.183,813.041,311.522z"/>
		</g>
	</g>
	<g clip-path="url(#SVGID_14_)">
		<path fill="#404041" d="M781.397,327.849v-3.085h1.55v3.085h3.886v1.257h-3.886v4.229c0,0.196,0.017,1.6,1.454,1.6
			c1.095,0,1.617-0.751,1.812-1.029l1.322,0.735c-0.718,1.127-1.648,1.617-3.134,1.617c-2.987,0-3.004-2.123-3.004-2.433v-4.719
			h-2.204v-1.257H781.397z"/>
		<path fill="#404041" d="M790.557,336.127v-11.364h1.551v4.164h0.13c0.409-0.506,1.323-1.355,2.678-1.355
			c2.694,0,2.711,2.123,2.711,2.433v6.123h-1.551v-5.633c0-0.196-0.017-1.6-1.453-1.6c-1.144,0-2.515,1.404-2.515,3.771v3.461
			H790.557z"/>
		<path fill="#404041" d="M802.199,332.339c0.147,1.567,1.209,2.596,2.434,2.596c0.996,0,1.845-0.669,2.301-1.78l1.404,0.621
			c-0.619,1.534-2.057,2.481-3.705,2.481c-2.271,0-4.066-1.747-4.066-4.311c0-2.612,1.764-4.375,3.983-4.375
			c2.222,0,3.984,1.763,3.984,4.375v0.392H802.199z M802.263,331.115h4.573c-0.278-1.338-1.208-2.22-2.287-2.22
			C803.457,328.895,802.526,329.776,802.263,331.115z"/>
	</g>
	<g clip-path="url(#SVGID_14_)">
		<path fill="#404041" d="M764.986,349.909c-0.049-0.245-0.228-1.421-1.991-1.421c-1.698,0-1.911,0.881-1.911,1.144
			c0,0.914,1.616,1.078,2.188,1.142c1.584,0.164,3.723,0.409,3.723,2.515c0,1.224-1.094,2.563-3.789,2.563
			c-2.562,0-4-1.616-4.048-2.923h1.616c0.065,0.686,0.751,1.6,2.4,1.6c1.731,0,2.204-0.702,2.204-1.24
			c0-1.208-1.469-1.078-2.709-1.258c-1.306-0.196-3.201-0.653-3.201-2.399c0-0.425,0.327-2.466,3.494-2.466
			c3.282,0,3.658,2.645,3.674,2.743H764.986z"/>
		<path fill="#404041" d="M769.9,354.464h2.974v-5.861h-2.548v-1.257h4.099v7.118h2.873v1.257H769.9V354.464z M773.591,344.178
			c0.653,0,1.176,0.522,1.176,1.176c0,0.62-0.523,1.126-1.176,1.126c-0.62,0-1.126-0.506-1.126-1.126
			C772.465,344.7,772.971,344.178,773.591,344.178z"/>
		<path fill="#404041" d="M787.813,355.721h-1.55v-0.931h-0.115c-0.44,0.474-1.29,1.062-2.399,1.062
			c-2.139,0-3.821-1.959-3.821-4.327c0-2.4,1.682-4.359,3.821-4.359c1.109,0,1.975,0.686,2.384,1.143h0.131v-3.952h1.55V355.721z
			 M786.263,351.509c0-1.796-0.866-3.021-2.367-3.021c-1.324,0-2.352,1.323-2.352,3.021c0,1.698,1.028,3.021,2.352,3.021
			c1.452,0,2.317-1.175,2.367-2.89V351.509z"/>
		<path fill="#404041" d="M792.074,351.934c0.148,1.567,1.209,2.596,2.434,2.596c0.996,0,1.844-0.669,2.303-1.779l1.403,0.621
			c-0.62,1.535-2.058,2.481-3.706,2.481c-2.27,0-4.065-1.748-4.065-4.311c0-2.612,1.763-4.375,3.983-4.375
			c2.22,0,3.984,1.764,3.984,4.375v0.392H792.074z M792.14,350.709h4.572c-0.277-1.34-1.208-2.221-2.286-2.221
			C793.333,348.488,792.401,349.37,792.14,350.709z"/>
		<path fill="#404041" d="M803.667,355.721h-1.941l-1.617-8.375h1.535l1.077,6.498l1.306-5.78h1.699l1.322,5.78l1.062-6.498h1.534
			l-1.618,8.375h-1.941l-1.209-5.812L803.667,355.721z"/>
		<path fill="#404041" d="M811.555,349.876c0.032-0.506,0.18-0.946,0.456-1.355c0.443-0.669,1.338-1.355,3.104-1.355
			c0.701,0,1.223,0.147,1.631,0.327c1.129,0.522,1.34,1.518,1.34,2.351v4.327c0,0.278,0.197,0.441,0.377,0.441
			s0.262-0.082,0.324-0.163c0.051-0.049,0.084-0.099,0.1-0.164l1.094,0.54c-0.098,0.195-0.213,0.375-0.359,0.522
			c-0.244,0.262-0.605,0.506-1.078,0.506c-0.848,0-1.518-0.621-1.566-1.062h-0.131c-0.85,0.833-1.797,1.062-2.498,1.062
			c-0.521,0-3.199-0.049-3.199-2.58c0-1.567,1.502-2.286,2.727-2.547l2.66-0.555v-0.327c0-0.457-0.031-1.355-1.469-1.355
			c-0.963,0-1.438,0.359-1.682,0.702c-0.148,0.196-0.229,0.425-0.262,0.686H811.555z M816.535,351.46l-1.959,0.408
			c-0.881,0.18-1.811,0.588-1.811,1.421c0,1.208,1.141,1.24,1.582,1.24h0.066c0.961,0,2.121-0.734,2.121-1.649V351.46z"/>
		<path fill="#404041" d="M822.07,354.464h2.973v-8.849h-2.547v-1.257h4.096v10.106h2.875v1.257h-7.396V354.464z"/>
		<path fill="#404041" d="M832.896,355.721v-11.364h1.551v5.944l3.217-2.956h2.09l-3.135,2.841v0.147l3.787,5.388h-1.795
			l-3.135-4.505l-1.029,0.947v3.559H832.896z"/>
	</g>
	<g clip-path="url(#SVGID_14_)">
		<path fill="#404041" d="M781.625,371.527c0.148,1.568,1.208,2.596,2.433,2.596c0.996,0,1.846-0.669,2.302-1.779l1.404,0.62
			c-0.62,1.535-2.057,2.482-3.707,2.482c-2.269,0-4.065-1.747-4.065-4.311c0-2.612,1.763-4.375,3.983-4.375s3.984,1.764,3.984,4.375
			v0.392H781.625z M781.69,370.303h4.572c-0.278-1.339-1.209-2.221-2.287-2.221C782.882,368.082,781.952,368.964,781.69,370.303z"/>
		<path fill="#404041" d="M790.882,375.315v-8.375h1.551v1.175h0.131c0.409-0.505,1.322-1.355,2.678-1.355
			c2.694,0,2.711,2.122,2.711,2.433v6.122h-1.552v-5.632c0-0.196-0.017-1.601-1.453-1.601c-1.144,0-2.515,1.404-2.515,3.772v3.461
			H790.882z"/>
		<path fill="#404041" d="M808.712,375.315h-1.551v-0.93h-0.113c-0.44,0.473-1.29,1.061-2.4,1.061c-2.139,0-3.821-1.959-3.821-4.327
			c0-2.4,1.683-4.359,3.821-4.359c1.11,0,1.977,0.686,2.383,1.143h0.131v-3.951h1.551V375.315z M807.162,371.103
			c0-1.797-0.864-3.021-2.367-3.021c-1.322,0-2.35,1.323-2.35,3.021c0,1.698,1.027,3.02,2.35,3.02c1.455,0,2.318-1.175,2.367-2.89
			V371.103z"/>
		<path fill="#404041" d="M817.238,369.502c-0.051-0.245-0.23-1.42-1.992-1.42c-1.699,0-1.91,0.882-1.91,1.143
			c0,0.915,1.617,1.078,2.188,1.143c1.582,0.164,3.721,0.409,3.721,2.515c0,1.225-1.092,2.563-3.787,2.563
			c-2.562,0-4-1.617-4.049-2.922h1.617c0.064,0.686,0.752,1.6,2.4,1.6c1.73,0,2.203-0.702,2.203-1.241
			c0-1.208-1.469-1.078-2.711-1.257c-1.305-0.196-3.199-0.653-3.199-2.4c0-0.424,0.327-2.465,3.496-2.465
			c3.279,0,3.656,2.645,3.672,2.743H817.238z"/>
		<path fill="#404041" d="M825.597,363.887c0.717,0,1.256,0.522,1.256,1.404v0.212c0,2.09-2.301,3.314-2.301,3.314l-0.604-0.718
			c0.832-0.653,1.322-1.176,1.566-1.845c-0.586,0-1.111-0.522-1.111-1.143C824.404,364.425,824.976,363.887,825.597,363.887z"/>
	</g>
	<g clip-path="url(#SVGID_14_)">
		<defs>
			<rect id="SVGID_8_" x="393.496" y="233.358" width="519.546" height="324.438"/>
		</defs>
		<clipPath id="SVGID_18_">
			<use xlink:href="#SVGID_8_"  overflow="visible"/>
		</clipPath>
		<g clip-path="url(#SVGID_18_)">
			<g>
				<defs>
					<rect id="SVGID_10_" x="399.595" y="415.891" width="102.774" height="15.158"/>
				</defs>
				<clipPath id="SVGID_20_">
					<use xlink:href="#SVGID_10_"  overflow="visible"/>
				</clipPath>
				
					<line clip-path="url(#SVGID_20_)" fill="none" stroke="#FFE500" stroke-width="3.528" stroke-linecap="square" x1="408.402" y1="427.944" x2="493.562" y2="418.995"/>
			</g>
		</g>
		<g clip-path="url(#SVGID_18_)">
			<g>
				<defs>
					<rect id="SVGID_9_" x="717.07" y="291.91" width="153.386" height="131.868"/>
				</defs>
				<clipPath id="SVGID_21_">
					<use xlink:href="#SVGID_9_"  overflow="visible"/>
				</clipPath>
				<path clip-path="url(#SVGID_21_)" fill="none" stroke="#FFE500" stroke-width="3.528" stroke-linecap="round" d="
					M735.259,338.972c2.498-27.386,42.357-41.438,64.179-43.697c17.928-1.857,43.178-3.663,55.219,13.417
					c9.672,13.719,8.215,35.517,3.518,50.676c-5.965,19.252-19.824,32.745-36.723,42.447c-20.48,11.759-43.765,21.041-67.647,19.602
					c-11.986-0.723-29.942-3.24-27.961-19.353c2.953-24.009,23.705-39.569,41.466-52.036"/>
			</g>
		</g>
	</g>
</g>
<g>
	<defs>
		<polygon id="SVGID_3_" points="0,715.289 947.305,715.289 1073.576,0 0,123.729 		"/>
	</defs>
	<clipPath id="SVGID_22_">
		<use xlink:href="#SVGID_3_"  overflow="visible"/>
	</clipPath>
	<g clip-path="url(#SVGID_22_)">
		<path fill="#383738" d="M42.515,430.476c-1.733,1.116-3.144,1.293-4.965,1.293v-2.291c2.38,0,4.965-0.588,4.965-2.82h2.79v20.268
			h-2.79V430.476z"/>
		<path fill="#383738" d="M53.033,432.503v-0.383c0-1.438,1.615-5.697,6.462-5.697c4.288,0,6.521,3.73,6.521,5.757
			c0,1.821-0.499,4.817-5.64,7.108c-2.173,0.969-4.435,2.291-4.435,4.846v0.5h10.867v2.291l-13.952,0.029v-0.852
			c0-5.493,2.174-7.05,6.492-9.105c3.318-1.586,3.76-3.496,3.76-4.611c0-1.41-1.234-3.584-3.584-3.584
			c-2.673,0-3.583,2.673-3.583,3.584v0.117H53.033z"/>
		<path fill="#383738" d="M79.588,445.016c0,1.175-0.94,2.144-2.203,2.144c-1.175,0-2.145-0.969-2.145-2.144
			c0-1.263,0.97-2.203,2.145-2.203C78.648,442.813,79.588,443.753,79.588,445.016z"/>
		<path fill="#383738" d="M99.535,429.449c1.233,1.85,1.821,4.436,1.821,7.284c0,2.907-0.588,5.493-1.821,7.401
			c-1.204,1.881-2.85,3.025-5.053,3.025c-2.262,0-3.936-1.145-5.14-3.025c-1.234-1.908-1.821-4.494-1.821-7.401
			c0-2.849,0.587-5.435,1.821-7.284c1.204-1.852,2.878-3.025,5.14-3.025C96.685,426.423,98.331,427.597,99.535,429.449z
			 M91.457,431.123c-0.646,1.41-1.027,3.407-1.027,5.64s0.382,4.229,1.027,5.669c0.734,1.439,1.704,2.35,2.996,2.35
			c1.264,0,2.232-0.91,2.967-2.35c0.646-1.439,1.028-3.437,1.028-5.669s-0.382-4.229-1.028-5.64c-0.734-1.41-1.703-2.32-2.967-2.32
			C93.161,428.802,92.191,429.712,91.457,431.123z"/>
		<path fill="#383738" d="M117.425,431.945c-0.617-1.851-1.733-3.143-3.848-3.143c-2.762,0-4.142,3.407-4.406,6.639
			c0.44-0.559,2.026-2.262,4.259-2.262c3.937,0,6.903,3.201,6.903,7.107c0,3.789-2.967,6.873-6.756,6.873
			c-3.056,0-5.287-1.762-6.463-4.729c-0.646-1.615-0.91-3.525-0.91-5.758c0-5.785,3.055-10.25,7.52-10.25
			c3.407,0,5.287,1.791,6.345,4.523L117.425,431.945z M109.67,440.169c0,2.585,1.733,4.611,3.878,4.611
			c2.144,0,3.877-2.026,3.877-4.611c0-2.556-1.733-4.611-3.877-4.611C111.404,435.558,109.67,437.614,109.67,440.169z"/>
		<path fill="#383738" d="M133.083,445.016c0,1.175-0.94,2.144-2.203,2.144c-1.175,0-2.145-0.969-2.145-2.144
			c0-1.263,0.97-2.203,2.145-2.203C132.143,442.813,133.083,443.753,133.083,445.016z"/>
		<path fill="#383738" d="M147.743,430.476c-1.733,1.116-3.144,1.293-4.965,1.293v-2.291c2.38,0,4.965-0.588,4.965-2.82h2.79v20.268
			h-2.79V430.476z"/>
		<path fill="#383738" d="M161.08,440.845c0,0,0.294,3.936,3.789,3.936c3.496,0,3.789-3.936,3.789-5.141
			c0-1.469-0.558-4.523-3.26-4.523c-2.291,0-3.349,2.145-3.437,2.674l-2.879-0.294l1.058-10.839h10.516v2.291h-7.96
			c-0.235,2.203-0.323,2.732-0.529,4.994c0.265-0.206,1.733-1.205,3.466-1.205c4.876,0,5.934,4.553,5.934,6.844
			c0,1.733-0.528,7.578-6.727,7.578c-5.434,0-6.491-4.904-6.608-5.874L161.08,440.845z"/>
	</g>
	<g clip-path="url(#SVGID_22_)">
		<path fill="#383738" d="M39.519,503.007v-0.382c0-1.438,1.615-5.698,6.462-5.698c4.288,0,6.521,3.73,6.521,5.758
			c0,1.82-0.499,4.816-5.64,7.107c-2.173,0.97-4.435,2.291-4.435,4.848v0.498h10.867v2.291l-13.952,0.029v-0.852
			c0-5.492,2.174-7.049,6.492-9.105c3.318-1.586,3.76-3.495,3.76-4.611c0-1.41-1.234-3.584-3.584-3.584
			c-2.673,0-3.583,2.674-3.583,3.584v0.117H39.519z"/>
		<path fill="#383738" d="M59.348,511.349c0,0,0.294,3.936,3.789,3.936s3.789-3.936,3.789-5.14c0-1.469-0.559-4.523-3.261-4.523
			c-2.291,0-3.349,2.145-3.437,2.673l-2.879-0.293l1.058-10.84h10.516v2.291h-7.96c-0.235,2.203-0.323,2.732-0.528,4.994
			c0.264-0.205,1.732-1.204,3.466-1.204c4.876,0,5.934,4.553,5.934,6.844c0,1.733-0.529,7.579-6.727,7.579
			c-5.435,0-6.491-4.906-6.609-5.875L59.348,511.349z"/>
		<path fill="#383738" d="M82.526,515.521c0,1.174-0.94,2.145-2.203,2.145c-1.175,0-2.145-0.971-2.145-2.145
			c0-1.264,0.97-2.203,2.145-2.203C81.585,513.318,82.526,514.257,82.526,515.521z"/>
		<path fill="#383738" d="M101.884,499.953c1.234,1.851,1.821,4.436,1.821,7.285c0,2.907-0.587,5.492-1.821,7.402
			c-1.204,1.879-2.849,3.025-5.052,3.025c-2.262,0-3.937-1.146-5.141-3.025c-1.233-1.91-1.821-4.495-1.821-7.402
			c0-2.85,0.588-5.435,1.821-7.285c1.204-1.851,2.879-3.025,5.141-3.025C99.036,496.927,100.68,498.102,101.884,499.953z
			 M93.807,501.626c-0.646,1.41-1.028,3.408-1.028,5.641s0.382,4.229,1.028,5.668c0.734,1.439,1.703,2.35,2.996,2.35
			c1.263,0,2.232-0.91,2.967-2.35c0.646-1.439,1.027-3.436,1.027-5.668s-0.382-4.23-1.027-5.641c-0.734-1.41-1.704-2.32-2.967-2.32
			C95.51,499.306,94.542,500.216,93.807,501.626z"/>
		<path fill="#383738" d="M110.258,512.142c0.616,1.852,1.732,3.143,3.848,3.143c2.761,0,4.142-3.406,4.406-6.638
			c-0.441,0.558-2.027,2.262-4.26,2.262c-3.936,0-6.902-3.202-6.902-7.108c0-3.789,2.967-6.873,6.756-6.873
			c3.055,0,5.287,1.762,6.462,4.729c0.646,1.616,0.91,3.525,0.91,5.758c0,5.787-3.055,10.252-7.52,10.252
			c-3.407,0-5.287-1.793-6.344-4.524L110.258,512.142z M118.012,503.917c0-2.584-1.732-4.611-3.877-4.611s-3.877,2.027-3.877,4.611
			c0,2.557,1.732,4.612,3.877,4.612S118.012,506.474,118.012,503.917z"/>
		<path fill="#383738" d="M134.258,515.521c0,1.174-0.94,2.145-2.203,2.145c-1.175,0-2.145-0.971-2.145-2.145
			c0-1.264,0.97-2.203,2.145-2.203C133.318,513.318,134.258,514.257,134.258,515.521z"/>
		<path fill="#383738" d="M147.184,500.98c-1.732,1.117-3.143,1.293-4.964,1.293v-2.291c2.379,0,4.964-0.588,4.964-2.82h2.791
			v20.268h-2.791V500.98z"/>
		<path fill="#383738" d="M159.934,511.349c0,0,0.294,3.936,3.789,3.936s3.789-3.936,3.789-5.14c0-1.469-0.559-4.523-3.261-4.523
			c-2.291,0-3.349,2.145-3.437,2.673l-2.879-0.293l1.058-10.84h10.516v2.291h-7.96c-0.235,2.203-0.323,2.732-0.528,4.994
			c0.264-0.205,1.732-1.204,3.466-1.204c4.876,0,5.934,4.553,5.934,6.844c0,1.733-0.529,7.579-6.727,7.579
			c-5.435,0-6.491-4.906-6.609-5.875L159.934,511.349z"/>
	</g>
	<g clip-path="url(#SVGID_22_)">
		<defs>
			<rect id="SVGID_5_" y="123.729" width="947.305" height="591.56"/>
		</defs>
		<clipPath id="SVGID_23_">
			<use xlink:href="#SVGID_5_"  overflow="visible"/>
		</clipPath>
		<g clip-path="url(#SVGID_23_)">
			<g>
				<defs>
					<rect id="SVGID_6_" x="11.12" y="456.546" width="187.393" height="27.639"/>
				</defs>
				<clipPath id="SVGID_24_">
					<use xlink:href="#SVGID_6_"  overflow="visible"/>
				</clipPath>
				
					<line clip-path="url(#SVGID_24_)" fill="none" stroke="#FFE500" stroke-width="3.528" stroke-linecap="square" x1="27.179" y1="478.525" x2="182.455" y2="462.207"/>
			</g>
		</g>
	</g>
</g>
</svg>
