<?xml version="1.0" encoding="utf-8"?>
<!-- Generator: Adobe Illustrator 15.0.0, SVG Export Plug-In . SVG Version: 6.00 Build 0)  -->
<!DOCTYPE svg PUBLIC "-//W3C//DTD SVG 1.1//EN" "http://www.w3.org/Graphics/SVG/1.1/DTD/svg11.dtd">
<svg version="1.1" id="Layer_1" xmlns="http://www.w3.org/2000/svg" xmlns:xlink="http://www.w3.org/1999/xlink" x="0px" y="0px"
	 width="848px" height="606px" viewBox="-1173.5 110.5 848 606" enable-background="new -1173.5 110.5 848 606"
	 xml:space="preserve">
<rect x="-1081.5" y="195.5" fill="none" width="898" height="454"/>
<text transform="matrix(1 0 0 1 -1081.4998 334.6997)"><tspan x="0" y="0" font-family="'LetteraPro-Bold'" font-size="200" letter-spacing="4">G</tspan><tspan x="132" y="0" font-family="'LetteraPro-Bold'" font-size="200" letter-spacing="-4">E</tspan><tspan x="256" y="0" font-family="'LetteraPro-Bold'" font-size="200">T</tspan><tspan x="0" y="174" font-family="'LetteraPro-Bold'" font-size="200"> </tspan><tspan x="128" y="174" font-family="'LetteraPro-Bold'" font-size="200" letter-spacing="-8">L</tspan><tspan x="248" y="174" font-family="'LetteraPro-Bold'" font-size="200" letter-spacing="8">O</tspan><tspan x="384" y="174" font-family="'LetteraPro-Bold'" font-size="200" letter-spacing="-4">S</tspan><tspan x="508" y="174" font-family="'LetteraPro-Bold'" font-size="200">T</tspan></text>
<g>
	<g>
		<defs>
			<polygon id="SVGID_1_" points="0,715.289 947.305,715.289 1043.558,0 -30.019,123.729 			"/>
		</defs>
		<clipPath id="SVGID_2_">
			<use xlink:href="#SVGID_1_"  overflow="visible"/>
		</clipPath>
		<g clip-path="url(#SVGID_2_)">
			<path fill="#231F20" d="M225.361,569.556h89.792v19.769H202.258v-164.34h23.103V569.556z"/>
			<path fill="#231F20" d="M340.161,446.419c12.623-14.528,30.725-22.865,49.54-22.865c18.577,0,36.44,8.337,48.825,22.865
				c12.624,14.769,20.245,35.488,20.245,60.973c0,25.724-7.621,46.443-20.007,61.212c-12.623,14.528-30.486,22.627-49.063,22.627
				c-18.815,0-36.917-8.099-49.777-22.865c-12.387-14.529-20.245-35.25-20.245-60.974
				C319.678,481.908,327.537,461.188,340.161,446.419z M357.548,553.835c7.858,11.195,19.529,17.387,31.677,17.387
				c12.385,0,24.056-6.19,31.915-17.387c8.574-10.717,13.576-26.674,13.576-46.682c0-19.769-5.002-35.728-13.576-46.443
				c-7.859-11.195-19.53-17.625-31.915-17.625c-12.146,0-23.817,6.43-31.677,17.625c-8.812,10.717-13.814,26.676-13.814,46.443
				C343.734,527.162,348.736,543.119,357.548,553.835z"/>
			<path fill="#231F20" d="M605.25,469.761h-25.01c-3.811-18.102-17.624-26.676-38.821-26.676c-14.768,0-34.773,7.621-34.773,25.484
				c0,18.578,21.912,23.341,41.204,25.246c30.725,2.857,65.975,9.766,65.975,46.92c0,34.772-26.676,50.493-61.449,50.493
				c-39.773,0-67.88-21.196-73.118-57.399h24.294c5.238,24.77,22.863,37.393,47.635,37.393c20.245,0,38.584-5.953,38.584-30.485
				c0-19.054-14.29-23.578-44.776-26.912c-28.104-3.099-62.401-11.91-62.401-45.254c0-28.344,30.011-45.491,58.114-45.491
				C574.286,423.079,598.342,437.607,605.25,469.761z"/>
			<path fill="#231F20" d="M760.064,444.752h-54.78v144.571H682.18V444.752h-54.305v-19.769h132.188V444.752L760.064,444.752z"/>
		</g>
	</g>
	<g>
		<defs>
			<polygon id="SVGID_3_" points="0,715.289 947.305,715.289 1043.558,0 -30.019,123.729 			"/>
		</defs>
		<clipPath id="SVGID_4_">
			<use xlink:href="#SVGID_3_"  overflow="visible"/>
		</clipPath>
		<g clip-path="url(#SVGID_4_)">
			<g>
				<path fill="#231F20" d="M470.442,245.875h-54.78v144.572h-23.104V245.875h-54.304v-19.769h132.188V245.875L470.442,245.875z"/>
			</g>
			<g>
				<path fill="#231F20" d="M314.438,245.875h-87.646v51.446h78.121v19.768h-78.121v53.589h92.41v19.77H203.687v-164.34h110.751
					V245.875z"/>
			</g>
			<g>
				<path fill="#231F20" d="M151.525,368.535c-5.001,10.48-21.196,23.816-40.966,23.816c-19.769,0-36.679-8.098-49.778-22.625
					c-13.1-14.768-21.196-35.727-21.196-61.45c0-25.484,8.098-46.444,21.436-61.21c12.861-14.529,29.771-22.865,49.54-22.865
					c31.439,0,64.069,20.245,64.069,58.829h-22.865c0-23.58-19.769-38.823-41.204-38.823c-30.963,0-46.92,33.345-46.92,64.069
					c0,19.769,5.479,35.727,14.29,46.92c8.574,10.955,19.53,17.148,32.63,17.148c24.771,0,42.157-26.199,42.396-49.541
					l-44.539,0.238v-19.769h66.213v87.171h-23.104L151.525,368.535L151.525,368.535z"/>
			</g>
		</g>
	</g>
	<g>
		<defs>
			<polygon id="SVGID_5_" points="0,715.289 947.305,715.289 1043.558,0 -30.019,123.729 			"/>
		</defs>
		<clipPath id="SVGID_6_">
			<use xlink:href="#SVGID_5_"  overflow="visible"/>
		</clipPath>
		<g clip-path="url(#SVGID_6_)">
			<path fill="#404041" d="M12.099,152.204v-2.481l11.715-15.033H13.023v-2.395h14.138v2.453L15.417,149.81h12.062v2.395
				L12.099,152.204L12.099,152.204z"/>
			<path fill="#404041" d="M44.305,137.401v14.802h-2.741v-2.106h-0.289c-0.75,0.895-2.279,2.337-4.674,2.337
				c-4.762,0-4.79-3.693-4.79-4.242V137.4h2.74v9.897c0,0.346,0.029,2.799,2.568,2.799c2.021,0,4.443-2.424,4.443-6.55V137.4
				L44.305,137.401L44.305,137.401z"/>
			<path fill="#404041" d="M49.532,149.982h5.251v-10.359h-4.501v-2.222h7.242v12.581h5.079v2.222H49.532V149.982z M56.052,131.804
				c1.154,0,2.078,0.923,2.078,2.077c0,1.097-0.924,1.991-2.078,1.991c-1.096,0-1.989-0.895-1.989-1.991
				C54.063,132.727,54.957,131.804,56.052,131.804z"/>
			<path fill="#404041" d="M79.486,152.204h-2.741v-1.645h-0.202c-0.777,0.836-2.278,1.875-4.241,1.875
				c-3.779,0-6.752-3.463-6.752-7.646c0-4.242,2.973-7.704,6.752-7.704c1.963,0,3.491,1.212,4.214,2.02h0.229v-6.982h2.741V152.204z
				 M76.745,144.759c0-3.174-1.529-5.338-4.184-5.338c-2.337,0-4.155,2.337-4.155,5.338s1.818,5.338,4.155,5.338
				c2.567,0,4.098-2.078,4.184-5.107V144.759z"/>
			<path fill="#404041" d="M84.511,141.874c0.06-0.894,0.317-1.673,0.81-2.395c0.778-1.183,2.366-2.395,5.481-2.395
				c1.24,0,2.164,0.26,2.886,0.577c1.99,0.923,2.365,2.683,2.365,4.155v7.646c0,0.491,0.348,0.779,0.664,0.779
				c0.317,0,0.461-0.146,0.577-0.289c0.086-0.087,0.145-0.173,0.173-0.289l1.935,0.952c-0.174,0.346-0.376,0.664-0.635,0.923
				c-0.435,0.461-1.068,0.895-1.905,0.895c-1.5,0-2.683-1.097-2.771-1.875h-0.229c-1.501,1.471-3.175,1.875-4.415,1.875
				c-0.924,0-5.655-0.087-5.655-4.559c0-2.77,2.654-4.04,4.818-4.501l4.703-0.981v-0.577c0-0.808-0.059-2.395-2.598-2.395
				c-1.701,0-2.539,0.635-2.972,1.241c-0.26,0.346-0.404,0.75-0.462,1.211h-2.771V141.874z M93.313,144.673l-3.462,0.721
				c-1.56,0.317-3.203,1.039-3.203,2.51c0,2.135,2.02,2.193,2.799,2.193h0.115c1.702,0,3.751-1.298,3.751-2.914V144.673z"/>
			<path fill="#404041" d="M111.899,141.932c-0.087-0.433-0.404-2.511-3.521-2.511c-3.001,0-3.376,1.559-3.376,2.02
				c0,1.616,2.856,1.904,3.866,2.02c2.799,0.289,6.579,0.721,6.579,4.443c0,2.164-1.935,4.53-6.694,4.53
				c-4.529,0-7.068-2.857-7.155-5.165h2.856c0.115,1.212,1.327,2.828,4.241,2.828c3.059,0,3.896-1.241,3.896-2.193
				c0-2.135-2.597-1.904-4.79-2.222c-2.309-0.346-5.654-1.154-5.654-4.242c0-0.75,0.577-4.357,6.175-4.357
				c5.8,0,6.463,4.674,6.492,4.848L111.899,141.932L111.899,141.932z"/>
		</g>
	</g>
	<g>
		<defs>
			<polygon id="SVGID_7_" points="0,715.289 947.305,715.289 1043.558,0 -30.019,123.729 			"/>
		</defs>
		<clipPath id="SVGID_8_">
			<use xlink:href="#SVGID_7_"  overflow="visible"/>
		</clipPath>
		<g clip-path="url(#SVGID_8_)">
			<path fill="#404041" d="M23.9,186.836l-1.702-5.655h-6.694l-1.73,5.655h-2.914l6.318-19.91h3.348l6.291,19.91H23.9z
				 M16.514,178.786h4.646l-2.308-8.887L16.514,178.786z"/>
			<path fill="#404041" d="M37.121,186.836v-9.955c0-0.346-0.029-2.828-1.442-2.828c-1.153,0-2.538,1.646-2.538,5.829v6.954h-2.741
				v-14.802h2.741v1.5h0.346c0.49-0.895,1.472-1.818,3.088-1.818c1.558,0,2.365,0.866,2.799,1.818h0.548
				c0.521-0.895,1.56-1.818,3.231-1.818c3.405,0,3.434,3.751,3.434,4.299v10.82h-2.741v-9.955c0-0.346-0.027-2.828-1.441-2.828
				c-1.125,0-2.481,1.587-2.539,5.54v7.243L37.121,186.836L37.121,186.836z"/>
			<path fill="#404041" d="M60.873,176.564c-0.087-0.433-0.404-2.511-3.521-2.511c-3.001,0-3.376,1.559-3.376,2.021
				c0,1.616,2.855,1.904,3.865,2.02c2.8,0.289,6.579,0.721,6.579,4.443c0,2.164-1.934,4.53-6.693,4.53
				c-4.53,0-7.069-2.857-7.156-5.165h2.856c0.115,1.212,1.327,2.828,4.241,2.828c3.06,0,3.896-1.241,3.896-2.193
				c0-2.135-2.598-1.904-4.79-2.222c-2.31-0.346-5.655-1.154-5.655-4.242c0-0.75,0.577-4.357,6.175-4.357
				c5.8,0,6.463,4.674,6.492,4.848L60.873,176.564L60.873,176.564z"/>
			<path fill="#404041" d="M70.283,172.207v-5.453h2.741v5.453h6.867v2.222h-6.867v7.473c0,0.346,0.028,2.828,2.567,2.828
				c1.935,0,2.856-1.327,3.203-1.818l2.337,1.298c-1.27,1.991-2.914,2.857-5.54,2.857c-5.279,0-5.31-3.751-5.31-4.299v-8.339h-3.896
				v-2.222H70.283z"/>
			<path fill="#404041" d="M86.879,180.142c0.261,2.77,2.136,4.588,4.299,4.588c1.762,0,3.262-1.183,4.069-3.145l2.481,1.097
				c-1.098,2.712-3.637,4.386-6.552,4.386c-4.011,0-7.185-3.087-7.185-7.618c0-4.617,3.116-7.733,7.041-7.733
				c3.924,0,7.04,3.116,7.04,7.733v0.692H86.879z M86.994,177.978h8.079c-0.49-2.366-2.135-3.924-4.039-3.924
				C89.101,174.054,87.456,175.612,86.994,177.978z"/>
			<path fill="#404041" d="M102.118,186.836v-14.802h2.741v2.078h0.229c0.723-0.895,2.338-2.395,4.732-2.395
				c4.761,0,4.79,3.751,4.79,4.299v0.721h-2.741c-0.029-0.606-0.26-2.684-2.568-2.684c-2.02,0-4.442,2.482-4.442,6.666v6.117
				H102.118z"/>
			<path fill="#404041" d="M131.9,186.836h-2.741v-1.645h-0.202c-0.779,0.836-2.279,1.875-4.241,1.875
				c-3.779,0-6.752-3.463-6.752-7.646c0-4.242,2.973-7.704,6.752-7.704c1.962,0,3.491,1.212,4.212,2.02h0.231v-6.982h2.741V186.836z
				 M129.159,179.392c0-3.174-1.529-5.338-4.184-5.338c-2.339,0-4.155,2.337-4.155,5.338s1.816,5.338,4.155,5.338
				c2.566,0,4.097-2.078,4.184-5.107V179.392z"/>
			<path fill="#404041" d="M136.925,176.506c0.06-0.894,0.317-1.673,0.81-2.395c0.777-1.183,2.366-2.395,5.481-2.395
				c1.24,0,2.164,0.26,2.886,0.577c1.99,0.923,2.365,2.683,2.365,4.155v7.646c0,0.491,0.348,0.779,0.664,0.779
				c0.317,0,0.461-0.145,0.577-0.289c0.086-0.087,0.145-0.173,0.173-0.289l1.935,0.952c-0.174,0.346-0.376,0.664-0.635,0.923
				c-0.435,0.461-1.068,0.895-1.905,0.895c-1.5,0-2.684-1.097-2.771-1.875h-0.229c-1.501,1.471-3.175,1.875-4.415,1.875
				c-0.924,0-5.655-0.087-5.655-4.559c0-2.77,2.654-4.04,4.818-4.501l4.703-0.981v-0.577c0-0.808-0.059-2.395-2.598-2.395
				c-1.702,0-2.539,0.635-2.972,1.241c-0.26,0.346-0.404,0.75-0.462,1.211h-2.771V176.506z M145.726,179.306l-3.462,0.721
				c-1.56,0.317-3.203,1.039-3.203,2.51c0,2.135,2.02,2.193,2.799,2.193h0.115c1.701,0,3.751-1.298,3.751-2.914V179.306z"/>
			<path fill="#404041" d="M161.283,186.836v-9.955c0-0.346-0.029-2.828-1.442-2.828c-1.153,0-2.539,1.646-2.539,5.829v6.954h-2.74
				v-14.802h2.74v1.5h0.347c0.489-0.895,1.472-1.818,3.088-1.818c1.558,0,2.365,0.866,2.799,1.818h0.548
				c0.521-0.895,1.56-1.818,3.231-1.818c3.404,0,3.434,3.751,3.434,4.299v10.82h-2.741v-9.955c0-0.346-0.027-2.828-1.441-2.828
				c-1.125,0-2.481,1.587-2.539,5.54v7.243L161.283,186.836L161.283,186.836z"/>
		</g>
	</g>
	<g>
		<defs>
			<polygon id="SVGID_9_" points="0,715.289 947.305,715.289 1043.558,0 -30.019,123.729 			"/>
		</defs>
		<clipPath id="SVGID_10_">
			<use xlink:href="#SVGID_9_"  overflow="visible"/>
		</clipPath>
	</g>
	<g>
		<defs>
			<polygon id="SVGID_11_" points="0,715.289 947.305,715.289 1043.558,0 -30.019,123.729 			"/>
		</defs>
		<clipPath id="SVGID_12_">
			<use xlink:href="#SVGID_11_"  overflow="visible"/>
		</clipPath>
	</g>
	<g>
		<defs>
			<polygon id="SVGID_13_" points="0,715.289 947.305,715.289 1043.558,0 -30.019,123.729 			"/>
		</defs>
		<clipPath id="SVGID_14_">
			<use xlink:href="#SVGID_13_"  overflow="visible"/>
		</clipPath>
		<g clip-path="url(#SVGID_14_)">
			<path fill="#231F20" d="M205.304,637.058c0.119-1.846,0.655-3.452,1.668-4.94c1.607-2.441,4.882-4.943,11.312-4.943
				c2.56,0,4.465,0.537,5.953,1.191c4.107,1.906,4.883,5.537,4.883,8.574v15.776c0,1.012,0.715,1.607,1.368,1.607
				c0.655,0,0.953-0.297,1.191-0.597c0.179-0.178,0.297-0.354,0.356-0.594l3.988,1.965c-0.355,0.713-0.772,1.369-1.31,1.904
				c-0.895,0.953-2.203,1.846-3.93,1.846c-3.097,0-5.537-2.262-5.717-3.869h-0.477c-3.096,3.035-6.549,3.869-9.109,3.869
				c-1.904,0-11.67-0.178-11.67-9.405c0-5.718,5.479-8.337,9.943-9.289l9.705-2.023v-1.19c0-1.669-0.119-4.941-5.358-4.941
				c-3.513,0-5.24,1.309-6.133,2.559c-0.536,0.716-0.834,1.55-0.953,2.502L205.304,637.058L205.304,637.058z M223.464,642.833
				l-7.146,1.488c-3.216,0.653-6.608,2.143-6.608,5.18c0,4.406,4.168,4.525,5.774,4.525h0.238c3.513,0,7.74-2.681,7.74-6.015
				L223.464,642.833L223.464,642.833z"/>
			<path fill="#231F20" d="M244.247,658.373V627.83h5.655v4.287h0.477c1.489-1.846,4.823-4.943,9.765-4.943
				c9.824,0,9.884,7.74,9.884,8.873v1.488h-5.655c-0.061-1.25-0.536-5.537-5.3-5.537c-4.168,0-9.169,5.119-9.169,13.754v12.621
				H244.247z"/>
			<path fill="#231F20" d="M287.058,628.188v-11.255h5.656v11.255h14.17v4.584h-14.17v15.42c0,0.715,0.06,5.836,5.299,5.836
				c3.989,0,5.896-2.738,6.608-3.752l4.822,2.68c-2.62,4.109-6.014,5.895-11.432,5.895c-10.896,0-10.955-7.739-10.955-8.871v-17.207
				h-8.038v-4.584H287.058L287.058,628.188z"/>
			<path fill="#231F20" d="M358.571,658.373V627.83h5.656v4.287h0.477c1.488-1.846,4.822-4.943,9.765-4.943
				c9.824,0,9.884,7.74,9.884,8.873v1.488h-5.656c-0.06-1.25-0.535-5.537-5.299-5.537c-4.168,0-9.169,5.119-9.169,13.754v12.621
				H358.571z"/>
			<path fill="#231F20" d="M406.084,627.173c8.157,0,14.707,6.433,14.707,15.957c0,9.348-6.55,15.719-14.707,15.719
				c-8.275,0-14.824-6.371-14.824-15.719C391.26,633.605,397.809,627.173,406.084,627.173z M406.026,654.027
				c4.822,0,8.871-4.466,8.871-11.017c0-6.489-4.049-11.014-8.871-11.014s-8.871,4.522-8.871,11.014
				C397.155,649.562,401.203,654.027,406.026,654.027z"/>
			<path fill="#231F20" d="M457.054,627.83v30.543h-5.656v-4.346h-0.596c-1.548,1.846-4.703,4.821-9.646,4.821
				c-9.824,0-9.884-7.62-9.884-8.752V627.83h5.656v20.422c0,0.715,0.06,5.775,5.299,5.775c4.168,0,9.169-5.002,9.169-13.517V627.83
				H457.054z"/>
			<path fill="#231F20" d="M474.025,628.188v-11.255h5.656v11.255h14.171v4.584h-14.171v15.42c0,0.715,0.06,5.836,5.3,5.836
				c3.988,0,5.895-2.738,6.608-3.752l4.822,2.68c-2.62,4.109-6.014,5.895-11.432,5.895c-10.896,0-10.956-7.739-10.956-8.871v-17.207
				h-8.037v-4.584H474.025L474.025,628.188z"/>
			<path fill="#231F20" d="M509.394,644.56c0.536,5.716,4.406,9.468,8.872,9.468c3.632,0,6.728-2.441,8.395-6.49l5.121,2.262
				c-2.263,5.599-7.502,9.051-13.516,9.051c-8.276,0-14.825-6.37-14.825-15.719c0-9.524,6.43-15.957,14.527-15.957
				c8.097,0,14.526,6.433,14.526,15.957v1.43L509.394,644.56L509.394,644.56z M509.632,640.095h16.672
				c-1.013-4.883-4.406-8.098-8.336-8.098C513.979,631.998,510.584,635.212,509.632,640.095z"/>
			<path fill="#231F20" d="M580.549,629.138v-0.772c0-2.918,3.273-11.551,13.099-11.551c8.693,0,13.218,7.562,13.218,11.67
				c0,3.69-1.012,9.766-11.432,14.407c-4.405,1.966-8.99,4.646-8.99,9.824v1.012h22.03v4.646l-28.282,0.061v-1.727
				c0-11.135,4.406-14.291,13.158-18.457c6.729-3.217,7.621-7.086,7.621-9.35c0-2.857-2.5-7.265-7.264-7.265
				c-5.418,0-7.265,5.418-7.265,7.265v0.237H580.549z"/>
			<path fill="#231F20" d="M640.211,622.947c2.5,3.752,3.69,8.99,3.69,14.766c0,5.896-1.19,11.135-3.69,15.004
				c-2.441,3.812-5.775,6.133-10.241,6.133c-4.585,0-7.979-2.321-10.42-6.133c-2.5-3.869-3.691-9.108-3.691-15.004
				c0-5.775,1.191-11.014,3.691-14.766c2.44-3.75,5.835-6.133,10.42-6.133C634.436,616.814,637.77,619.197,640.211,622.947z
				 M623.837,626.341c-1.311,2.857-2.084,6.906-2.084,11.433c0,4.522,0.773,8.571,2.084,11.489c1.487,2.918,3.452,4.765,6.072,4.765
				c2.562,0,4.525-1.847,6.015-4.765c1.31-2.918,2.084-6.967,2.084-11.489c0-4.525-0.774-8.574-2.084-11.433
				c-1.488-2.858-3.453-4.705-6.015-4.705C627.291,621.636,625.325,623.482,623.837,626.341z"/>
			<path fill="#231F20" d="M661.648,625.031c-3.513,2.262-6.371,2.619-10.062,2.619v-4.644c4.822,0,10.062-1.19,10.062-5.717h5.656
				v41.082h-5.656V625.031z"/>
			<path fill="#231F20" d="M685.048,646.048c0,0,0.596,7.979,7.681,7.979s7.681-7.979,7.681-10.42c0-2.978-1.131-9.168-6.607-9.168
				c-4.646,0-6.788,4.346-6.967,5.418L681,639.261l2.144-21.971h21.315v4.645h-16.137c-0.476,4.466-0.653,5.537-1.07,10.121
				c0.535-0.416,3.513-2.44,7.024-2.44c9.884,0,12.027,9.229,12.027,13.873c0,3.514-1.071,15.36-13.635,15.36
				c-11.016,0-13.158-9.942-13.396-11.907L685.048,646.048z"/>
		</g>
	</g>
	<g>
		<defs>
			<polygon id="SVGID_15_" points="0,715.289 947.305,715.289 1043.558,0 -30.019,123.729 			"/>
		</defs>
		<clipPath id="SVGID_16_">
			<use xlink:href="#SVGID_15_"  overflow="visible"/>
		</clipPath>
		<g clip-path="url(#SVGID_16_)">
			<g>
				<defs>
					<polygon id="SVGID_17_" points="-30.019,123.729 917.287,123.729 947.305,715.289 0,715.289 					"/>
				</defs>
				<clipPath id="SVGID_18_">
					<use xlink:href="#SVGID_17_"  overflow="visible"/>
				</clipPath>
				<g clip-path="url(#SVGID_18_)">
					<path fill="#404041" d="M674.194,263.717c-1.31,0-2.292-0.953-2.292-2.56v-0.387c0-3.811,4.197-6.043,4.197-6.043l1.102,1.31
						c-1.518,1.191-2.411,2.144-2.856,3.364c1.07,0,2.023,0.953,2.023,2.084C676.367,262.735,675.325,263.717,674.194,263.717z"/>
					<path fill="#404041" d="M690.717,275.387h-3.542l-2.947-15.271h2.798l1.965,11.849l2.382-10.539h3.097l2.411,10.539
						l1.936-11.849h2.798l-2.947,15.271h-3.542l-2.202-10.598L690.717,275.387z"/>
					<path fill="#404041" d="M705.514,275.387v-20.72h2.828v7.591h0.237c0.744-0.923,2.411-2.471,4.883-2.471
						c4.911,0,4.941,3.87,4.941,4.436v11.164h-2.828v-10.271c0-0.357-0.029-2.917-2.648-2.917c-2.084,0-4.585,2.56-4.585,6.877
						v6.311L705.514,275.387L705.514,275.387z"/>
					<path fill="#404041" d="M726.74,268.48c0.27,2.858,2.203,4.733,4.437,4.733c1.815,0,3.364-1.22,4.198-3.245l2.56,1.131
						c-1.131,2.798-3.751,4.525-6.758,4.525c-4.139,0-7.412-3.186-7.412-7.859c0-4.763,3.215-7.979,7.264-7.979
						s7.265,3.215,7.265,7.979v0.714L726.74,268.48L726.74,268.48z M726.86,266.248h8.336c-0.506-2.441-2.203-4.049-4.168-4.049
						C729.033,262.199,727.336,263.807,726.86,266.248z"/>
					<path fill="#404041" d="M743.622,275.387v-15.271h2.828v2.144h0.238c0.744-0.923,2.411-2.471,4.882-2.471
						c4.912,0,4.942,3.87,4.942,4.436v0.744h-2.828c-0.03-0.625-0.269-2.769-2.65-2.769c-2.083,0-4.584,2.56-4.584,6.877v6.311
						H743.622z"/>
					<path fill="#404041" d="M764.849,268.48c0.269,2.858,2.203,4.733,4.436,4.733c1.816,0,3.364-1.22,4.198-3.245l2.561,1.131
						c-1.132,2.798-3.752,4.525-6.759,4.525c-4.138,0-7.412-3.186-7.412-7.859c0-4.763,3.216-7.979,7.265-7.979
						s7.264,3.215,7.264,7.979v0.714L764.849,268.48L764.849,268.48z M764.968,266.248h8.336c-0.506-2.441-2.203-4.049-4.168-4.049
						C767.142,262.199,765.445,263.807,764.968,266.248z"/>
				</g>
			</g>
			<g>
				<defs>
					<polygon id="SVGID_19_" points="0,715.289 947.305,715.289 1043.558,0 -30.019,123.729 					"/>
				</defs>
				<clipPath id="SVGID_20_">
					<use xlink:href="#SVGID_19_"  overflow="visible"/>
				</clipPath>
				<g clip-path="url(#SVGID_20_)">
					<path fill="#404041" d="M707.271,296.019v-5.626h2.828v5.626h7.085v2.292h-7.085v7.71c0,0.357,0.03,2.917,2.648,2.917
						c1.995,0,2.947-1.369,3.306-1.875l2.411,1.34c-1.311,2.054-3.008,2.947-5.717,2.947c-5.446,0-5.478-3.87-5.478-4.436v-8.604
						h-4.02v-2.292L707.271,296.019L707.271,296.019z"/>
					<path fill="#404041" d="M723.973,311.112v-20.72h2.828v7.591h0.237c0.744-0.923,2.411-2.471,4.883-2.471
						c4.911,0,4.941,3.87,4.941,4.437v11.164h-2.828v-10.271c0-0.357-0.029-2.917-2.648-2.917c-2.084,0-4.585,2.56-4.585,6.877
						v6.311H723.973L723.973,311.112z"/>
					<path fill="#404041" d="M745.199,304.205c0.27,2.858,2.203,4.733,4.437,4.733c1.815,0,3.364-1.22,4.198-3.245l2.56,1.131
						c-1.131,2.798-3.751,4.525-6.758,4.525c-4.139,0-7.412-3.186-7.412-7.859c0-4.763,3.215-7.979,7.264-7.979
						s7.265,3.215,7.265,7.979v0.714L745.199,304.205L745.199,304.205z M745.319,301.973h8.336
						c-0.506-2.441-2.203-4.049-4.168-4.049C747.492,297.924,745.795,299.531,745.319,301.973z"/>
				</g>
			</g>
			<g>
				<defs>
					<polygon id="SVGID_21_" points="0,715.289 947.305,715.289 1043.558,0 -30.019,123.729 					"/>
				</defs>
				<clipPath id="SVGID_22_">
					<use xlink:href="#SVGID_21_"  overflow="visible"/>
				</clipPath>
				<g clip-path="url(#SVGID_22_)">
					<path fill="#404041" d="M677.35,336.24c-0.09-0.446-0.417-2.59-3.632-2.59c-3.098,0-3.483,1.607-3.483,2.084
						c0,1.667,2.947,1.965,3.989,2.083c2.888,0.298,6.787,0.745,6.787,4.585c0,2.232-1.994,4.674-6.906,4.674
						c-4.674,0-7.294-2.947-7.383-5.329h2.947c0.118,1.25,1.368,2.917,4.376,2.917c3.154,0,4.019-1.28,4.019-2.262
						c0-2.203-2.679-1.965-4.941-2.292c-2.382-0.357-5.835-1.191-5.835-4.376c0-0.774,0.597-4.496,6.371-4.496
						c5.983,0,6.668,4.823,6.698,5.001L677.35,336.24L677.35,336.24z"/>
					<path fill="#404041" d="M686.311,344.546h5.419v-10.687h-4.646v-2.292h7.474v12.979h5.239v2.292h-13.486V344.546z
						 M693.039,325.791c1.19,0,2.145,0.953,2.145,2.144c0,1.131-0.953,2.054-2.145,2.054c-1.131,0-2.054-0.923-2.054-2.054
						C690.986,326.744,691.908,325.791,693.039,325.791z"/>
					<path fill="#404041" d="M718.97,346.838h-2.828v-1.697h-0.209c-0.804,0.863-2.353,1.935-4.376,1.935
						c-3.899,0-6.966-3.573-6.966-7.889c0-4.376,3.065-7.949,6.966-7.949c2.023,0,3.603,1.25,4.347,2.084h0.238v-7.204h2.828
						V346.838z M716.142,339.158c0-3.275-1.578-5.507-4.316-5.507c-2.411,0-4.286,2.411-4.286,5.507
						c0,3.096,1.875,5.507,4.286,5.507c2.649,0,4.228-2.143,4.316-5.269V339.158z"/>
					<path fill="#404041" d="M726.74,339.932c0.27,2.858,2.203,4.733,4.437,4.733c1.815,0,3.364-1.22,4.198-3.245l2.56,1.131
						c-1.131,2.798-3.751,4.525-6.758,4.525c-4.139,0-7.412-3.186-7.412-7.859c0-4.763,3.215-7.979,7.264-7.979
						s7.265,3.215,7.265,7.979v0.714L726.74,339.932L726.74,339.932z M726.86,337.699h8.336c-0.506-2.441-2.203-4.049-4.168-4.049
						C729.033,333.65,727.336,335.258,726.86,337.699z"/>
					<path fill="#404041" d="M747.879,346.838h-3.542l-2.947-15.272h2.798l1.965,11.849l2.382-10.539h3.097l2.411,10.539
						l1.936-11.849h2.798l-2.947,15.272h-3.542l-2.202-10.598L747.879,346.838z"/>
					<path fill="#404041" d="M762.259,336.181c0.06-0.923,0.327-1.727,0.834-2.471c0.804-1.221,2.439-2.471,5.655-2.471
						c1.28,0,2.232,0.268,2.978,0.596c2.055,0.953,2.44,2.769,2.44,4.287v7.889c0,0.506,0.357,0.804,0.686,0.804
						s0.477-0.149,0.596-0.298c0.089-0.089,0.148-0.178,0.18-0.297l1.993,0.982c-0.179,0.357-0.387,0.685-0.654,0.953
						c-0.446,0.476-1.103,0.923-1.966,0.923c-1.548,0-2.769-1.131-2.856-1.935h-0.238c-1.548,1.518-3.273,1.935-4.555,1.935
						c-0.953,0-5.835-0.09-5.835-4.704c0-2.858,2.739-4.168,4.972-4.644l4.854-1.012v-0.596c0-0.833-0.061-2.471-2.681-2.471
						c-1.756,0-2.619,0.655-3.065,1.28c-0.269,0.357-0.416,0.774-0.477,1.25H762.259L762.259,336.181z M771.339,339.068
						l-3.572,0.744c-1.607,0.328-3.305,1.072-3.305,2.59c0,2.203,2.084,2.262,2.888,2.262h0.119c1.756,0,3.87-1.339,3.87-3.007
						V339.068z"/>
					<path fill="#404041" d="M781.432,344.546h5.418v-16.135h-4.645v-2.292h7.473v18.427h5.239v2.292h-13.485V344.546
						L781.432,344.546z"/>
					<path fill="#404041" d="M801.17,346.838v-20.72h2.827v10.836l5.865-5.388h3.812l-5.717,5.18v0.268l6.906,9.824h-3.273
						l-5.717-8.216l-1.876,1.727v6.49L801.17,346.838L801.17,346.838z"/>
				</g>
			</g>
			<g>
				<defs>
					<polygon id="SVGID_23_" points="0,715.289 947.305,715.289 1043.558,0 -30.019,123.729 					"/>
				</defs>
				<clipPath id="SVGID_24_">
					<use xlink:href="#SVGID_23_"  overflow="visible"/>
				</clipPath>
				<g clip-path="url(#SVGID_24_)">
					<path fill="#404041" d="M707.687,375.657c0.269,2.858,2.203,4.733,4.436,4.733c1.816,0,3.364-1.221,4.198-3.246l2.561,1.131
						c-1.131,2.799-3.751,4.525-6.759,4.525c-4.138,0-7.411-3.186-7.411-7.859c0-4.762,3.215-7.979,7.264-7.979
						s7.264,3.215,7.264,7.979v0.715L707.687,375.657L707.687,375.657z M707.806,373.425h8.336c-0.506-2.44-2.203-4.049-4.168-4.049
						C709.98,369.376,708.282,370.982,707.806,373.425z"/>
					<path fill="#404041" d="M724.568,382.564v-15.272h2.828v2.144h0.238c0.744-0.922,2.411-2.471,4.882-2.471
						c4.912,0,4.941,3.87,4.941,4.436v11.164h-2.827v-10.271c0-0.356-0.03-2.917-2.65-2.917c-2.083,0-4.584,2.561-4.584,6.877v6.311
						H724.568L724.568,382.564z"/>
					<path fill="#404041" d="M757.078,382.564h-2.828v-1.697h-0.209c-0.804,0.863-2.352,1.935-4.375,1.935
						c-3.899,0-6.967-3.573-6.967-7.889c0-4.376,3.066-7.949,6.967-7.949c2.023,0,3.603,1.25,4.347,2.084h0.237v-7.204h2.828
						V382.564z M754.25,374.883c0-3.275-1.578-5.507-4.316-5.507c-2.412,0-4.287,2.411-4.287,5.507s1.875,5.508,4.287,5.508
						c2.648,0,4.227-2.144,4.316-5.27V374.883z"/>
					<path fill="#404041" d="M772.619,371.966c-0.09-0.446-0.417-2.59-3.632-2.59c-3.097,0-3.482,1.606-3.482,2.084
						c0,1.667,2.946,1.965,3.988,2.083c2.889,0.298,6.787,0.745,6.787,4.585c0,2.231-1.994,4.675-6.905,4.675
						c-4.675,0-7.295-2.947-7.384-5.33h2.947c0.119,1.25,1.369,2.918,4.376,2.918c3.155,0,4.02-1.281,4.02-2.263
						c0-2.203-2.68-1.965-4.941-2.292c-2.382-0.357-5.835-1.191-5.835-4.376c0-0.774,0.596-4.496,6.371-4.496
						c5.982,0,6.668,4.823,6.698,5.001L772.619,371.966L772.619,371.966z"/>
					<path fill="#404041" d="M787.863,361.725c1.311,0,2.292,0.953,2.292,2.561v0.387c0,3.811-4.197,6.043-4.197,6.043l-1.102-1.311
						c1.518-1.19,2.411-2.144,2.857-3.363c-1.071,0-2.024-0.953-2.024-2.083C785.689,362.708,786.731,361.725,787.863,361.725z"/>
				</g>
			</g>
			<g>
				<g>
					<g>
						<defs>
							<polygon id="SVGID_25_" points="-30.019,123.729 917.287,123.729 947.305,715.289 0,715.289 							"/>
						</defs>
						<clipPath id="SVGID_26_">
							<use xlink:href="#SVGID_25_"  overflow="visible"/>
						</clipPath>
						<g clip-path="url(#SVGID_26_)">
							<g>
								<defs>
									<rect id="SVGID_27_" x="0" y="123.729" width="947.305" height="591.56"/>
								</defs>
								<clipPath id="SVGID_28_">
									<use xlink:href="#SVGID_27_"  overflow="visible"/>
								</clipPath>
								<g clip-path="url(#SVGID_28_)">
									<g>
										<g>
											<defs>
												<rect id="SVGID_29_" x="589.983" y="230.489" width="279.674" height="240.438"/>
											</defs>
											<clipPath id="SVGID_30_">
												<use xlink:href="#SVGID_29_"  overflow="visible"/>
											</clipPath>
											<path clip-path="url(#SVGID_30_)" fill="none" stroke="#FFE500" stroke-width="5" stroke-linecap="round" d="
												M623.147,316.3c4.555-49.935,77.23-75.555,117.02-79.674c32.691-3.386,78.729-6.679,100.685,24.464
												c17.635,25.015,14.979,64.759,6.412,92.398c-10.877,35.103-36.144,59.705-66.957,77.394
												c-37.34,21.441-79.799,38.365-123.342,35.74c-21.854-1.318-54.595-5.908-50.982-35.285
												c5.383-43.776,43.221-72.149,75.605-94.878"/>
										</g>
									</g>
								</g>
							</g>
						</g>
					</g>
				</g>
			</g>
		</g>
	</g>
</g>
<g>
	<path d="M19.402,431.109c-1.672,1.076-3.032,1.246-4.789,1.246v-2.211c2.295,0,4.789-0.566,4.789-2.72h2.692v19.553h-2.692V431.109
		z"/>
	<path d="M27.844,433.064v-0.369c0-1.389,1.558-5.497,6.233-5.497c4.137,0,6.291,3.599,6.291,5.554c0,1.758-0.482,4.647-5.44,6.857
		c-2.097,0.936-4.279,2.211-4.279,4.676v0.482h10.484v2.21l-13.459,0.028v-0.822c0-5.299,2.097-6.801,6.262-8.784
		c3.202-1.529,3.627-3.372,3.627-4.448c0-1.359-1.19-3.457-3.458-3.457c-2.579,0-3.457,2.578-3.457,3.457v0.113H27.844z"/>
	<path d="M52.58,445.135c0,1.135-0.907,2.07-2.125,2.07c-1.133,0-2.068-0.936-2.068-2.07c0-1.219,0.935-2.125,2.068-2.125
		C51.673,443.01,52.58,443.916,52.58,445.135z"/>
	<path d="M71.25,430.117c1.19,1.785,1.757,4.279,1.757,7.027c0,2.805-0.567,5.299-1.757,7.141c-1.161,1.814-2.748,2.92-4.874,2.92
		c-2.182,0-3.797-1.105-4.959-2.92c-1.19-1.842-1.757-4.336-1.757-7.141c0-2.748,0.566-5.242,1.757-7.027
		c1.162-1.785,2.777-2.919,4.959-2.919C68.502,427.198,70.089,428.332,71.25,430.117z M63.458,431.732
		c-0.623,1.36-0.992,3.287-0.992,5.44s0.369,4.081,0.992,5.47c0.708,1.389,1.644,2.266,2.89,2.266c1.219,0,2.154-0.877,2.862-2.266
		c0.624-1.389,0.992-3.316,0.992-5.47s-0.368-4.08-0.992-5.44c-0.708-1.359-1.643-2.238-2.862-2.238
		C65.102,429.494,64.167,430.373,63.458,431.732z"/>
	<path d="M88.221,432.525c-0.595-1.785-1.671-3.031-3.712-3.031c-2.664,0-3.996,3.287-4.25,6.404
		c0.425-0.539,1.955-2.182,4.108-2.182c3.797,0,6.659,3.088,6.659,6.856c0,3.655-2.862,6.632-6.518,6.632
		c-2.947,0-5.101-1.701-6.234-4.562c-0.623-1.56-0.878-3.401-0.878-5.555c0-5.582,2.947-9.89,7.254-9.89
		c3.287,0,5.101,1.729,6.121,4.364L88.221,432.525z M80.74,440.46c0,2.493,1.672,4.448,3.741,4.448c2.068,0,3.74-1.955,3.74-4.448
		c0-2.465-1.671-4.448-3.74-4.448C82.412,436.012,80.74,437.995,80.74,440.46z"/>
	<path d="M103.861,445.135c0,1.135-0.907,2.07-2.125,2.07c-1.134,0-2.069-0.936-2.069-2.07c0-1.219,0.935-2.125,2.069-2.125
		C102.954,443.01,103.861,443.916,103.861,445.135z"/>
	<path d="M113.976,433.064v-0.369c0-1.389,1.558-5.497,6.234-5.497c4.137,0,6.291,3.599,6.291,5.554
		c0,1.758-0.481,4.647-5.441,6.857c-2.097,0.936-4.279,2.211-4.279,4.676v0.482h10.485v2.21l-13.46,0.028v-0.822
		c0-5.299,2.097-6.801,6.263-8.784c3.202-1.529,3.627-3.372,3.627-4.448c0-1.359-1.191-3.457-3.458-3.457
		c-2.579,0-3.457,2.578-3.457,3.457v0.113H113.976z"/>
	<path d="M142.367,430.117c1.189,1.785,1.756,4.279,1.756,7.027c0,2.805-0.567,5.299-1.756,7.141
		c-1.162,1.814-2.749,2.92-4.874,2.92c-2.182,0-3.797-1.105-4.959-2.92c-1.189-1.842-1.756-4.336-1.756-7.141
		c0-2.748,0.566-5.242,1.756-7.027c1.163-1.785,2.777-2.919,4.959-2.919C139.618,427.198,141.205,428.332,142.367,430.117z
		 M134.574,431.732c-0.623,1.36-0.991,3.287-0.991,5.44s0.368,4.081,0.991,5.47c0.709,1.389,1.644,2.266,2.891,2.266
		c1.218,0,2.153-0.877,2.861-2.266c0.624-1.389,0.992-3.316,0.992-5.47s-0.368-4.08-0.992-5.44
		c-0.708-1.359-1.644-2.238-2.861-2.238C136.218,429.494,135.283,430.373,134.574,431.732z"/>
	<path d="M153.699,431.109c-1.672,1.076-3.032,1.246-4.789,1.246v-2.211c2.295,0,4.789-0.566,4.789-2.72h2.692v19.553h-2.692
		V431.109z"/>
	<path d="M165.115,441.111c0,0,0.283,3.797,3.655,3.797s3.656-3.797,3.656-4.959c0-1.416-0.539-4.363-3.146-4.363
		c-2.209,0-3.23,2.069-3.314,2.579l-2.777-0.283l1.02-10.457h10.145v2.21h-7.679c-0.227,2.127-0.312,2.637-0.51,4.818
		c0.255-0.199,1.672-1.162,3.344-1.162c4.704,0,5.724,4.392,5.724,6.602c0,1.672-0.51,7.312-6.489,7.312
		c-5.243,0-6.263-4.732-6.376-5.668L165.115,441.111z"/>
	<path d="M17.079,506.882v-0.368c0-1.389,1.559-5.498,6.234-5.498c4.137,0,6.29,3.6,6.29,5.555c0,1.757-0.481,4.646-5.44,6.857
		c-2.097,0.936-4.279,2.211-4.279,4.676v0.481h10.485v2.211l-13.46,0.027v-0.821c0-5.299,2.097-6.801,6.262-8.785
		c3.202-1.529,3.627-3.371,3.627-4.448c0-1.36-1.19-3.456-3.457-3.456c-2.578,0-3.457,2.578-3.457,3.456v0.113H17.079z"/>
	<path d="M51.444,518.954c0,1.133-0.907,2.068-2.125,2.068c-1.134,0-2.069-0.936-2.069-2.068c0-1.219,0.935-2.126,2.069-2.126
		C50.537,516.828,51.444,517.735,51.444,518.954z"/>
	<path d="M72.383,503.936c1.19,1.785,1.756,4.278,1.756,7.027c0,2.805-0.566,5.299-1.756,7.141
		c-1.162,1.813-2.749,2.919-4.874,2.919c-2.182,0-3.797-1.105-4.959-2.919c-1.19-1.842-1.756-4.336-1.756-7.141
		c0-2.749,0.566-5.242,1.756-7.027c1.162-1.785,2.777-2.92,4.959-2.92C69.634,501.016,71.221,502.15,72.383,503.936z
		 M64.591,505.551c-0.624,1.36-0.992,3.286-0.992,5.439c0,2.154,0.369,4.082,0.992,5.471c0.708,1.388,1.644,2.266,2.89,2.266
		c1.218,0,2.153-0.878,2.862-2.266c0.623-1.389,0.991-3.316,0.991-5.471c0-2.153-0.368-4.079-0.991-5.439
		c-0.709-1.36-1.644-2.238-2.862-2.238C66.234,503.312,65.299,504.19,64.591,505.551z"/>
	<path d="M81.592,515.695c0.595,1.785,1.672,3.031,3.712,3.031c2.664,0,3.995-3.287,4.25-6.404
		c-0.425,0.539-1.956,2.182-4.109,2.182c-3.797,0-6.66-3.088-6.66-6.856c0-3.655,2.863-6.632,6.519-6.632
		c2.947,0,5.1,1.701,6.234,4.563c0.624,1.559,0.878,3.399,0.878,5.554c0,5.582-2.947,9.89-7.254,9.89
		c-3.287,0-5.102-1.729-6.121-4.364L81.592,515.695z M89.073,507.761c0-2.493-1.672-4.448-3.741-4.448s-3.741,1.955-3.741,4.448
		c0,2.465,1.672,4.448,3.741,4.448S89.073,510.226,89.073,507.761z"/>
	<path d="M104.713,518.954c0,1.133-0.907,2.068-2.125,2.068c-1.134,0-2.069-0.936-2.069-2.068c0-1.219,0.935-2.126,2.069-2.126
		C103.806,516.828,104.713,517.735,104.713,518.954z"/>
	<path d="M112.843,506.882v-0.368c0-1.389,1.559-5.498,6.234-5.498c4.138,0,6.291,3.6,6.291,5.555c0,1.757-0.481,4.646-5.44,6.857
		c-2.097,0.936-4.279,2.211-4.279,4.676v0.481h10.485v2.211l-13.46,0.027v-0.821c0-5.299,2.097-6.801,6.262-8.785
		c3.202-1.529,3.627-3.371,3.627-4.448c0-1.36-1.19-3.456-3.457-3.456c-2.578,0-3.458,2.578-3.458,3.456v0.113H112.843z"/>
	<path d="M141.802,503.936c1.189,1.785,1.756,4.278,1.756,7.027c0,2.805-0.567,5.299-1.756,7.141
		c-1.162,1.813-2.749,2.919-4.875,2.919c-2.182,0-3.796-1.105-4.959-2.919c-1.189-1.842-1.757-4.336-1.757-7.141
		c0-2.749,0.567-5.242,1.757-7.027c1.163-1.785,2.777-2.92,4.959-2.92C139.052,501.016,140.639,502.15,141.802,503.936z
		 M134.009,505.551c-0.623,1.36-0.992,3.286-0.992,5.439c0,2.154,0.369,4.082,0.992,5.471c0.708,1.388,1.644,2.266,2.89,2.266
		c1.219,0,2.154-0.878,2.862-2.266c0.624-1.389,0.992-3.316,0.992-5.471c0-2.153-0.368-4.079-0.992-5.439
		c-0.708-1.36-1.644-2.238-2.862-2.238C135.652,503.312,134.717,504.19,134.009,505.551z"/>
	<path d="M152.85,504.928c-1.672,1.076-3.032,1.246-4.789,1.246v-2.21c2.295,0,4.789-0.567,4.789-2.72h2.692v19.552h-2.692V504.928z
		"/>
	<path d="M165.117,514.93c0,0,0.284,3.797,3.656,3.797s3.655-3.797,3.655-4.959c0-1.416-0.539-4.363-3.146-4.363
		c-2.21,0-3.23,2.068-3.315,2.578l-2.777-0.283l1.02-10.455h10.145v2.209h-7.679c-0.227,2.126-0.312,2.636-0.51,4.817
		c0.255-0.198,1.672-1.162,3.343-1.162c4.704,0,5.724,4.393,5.724,6.603c0,1.672-0.51,7.312-6.489,7.312
		c-5.242,0-6.263-4.733-6.376-5.667L165.117,514.93z"/>
</g>
<g>
	<path d="M35.83,521.088v-0.086c0-9.066,4.081-14.678,6.404-17.256h-9.351v-2.21H45.38v1.983c0,0-6.829,5.441-6.829,17.482v0.086
		H35.83z"/>
</g>
<line fill="none" stroke="#FFCC00" stroke-width="5" stroke-miterlimit="10" x1="8.652" y1="480.744" x2="180.641" y2="469.49"/>
<g>
	<path d="M-1329.669,444.269c-1.372,0.884-2.488,1.022-3.929,1.022v-1.813c1.883,0,3.929-0.465,3.929-2.231h2.208v16.041h-2.208
		V444.269z"/>
	<path d="M-1322.742,445.873v-0.303c0-1.14,1.278-4.51,5.114-4.51c3.394,0,5.161,2.952,5.161,4.556c0,1.442-0.396,3.813-4.463,5.626
		c-1.721,0.768-3.511,1.814-3.511,3.836v0.396h8.602v1.812l-11.042,0.023v-0.675c0-4.347,1.72-5.579,5.138-7.206
		c2.627-1.255,2.976-2.767,2.976-3.649c0-1.115-0.977-2.836-2.837-2.836c-2.115,0-2.836,2.114-2.836,2.836v0.093H-1322.742z"/>
	<path d="M-1302.449,455.775c0,0.931-0.744,1.698-1.744,1.698c-0.93,0-1.697-0.768-1.697-1.698c0-1,0.767-1.743,1.697-1.743
		C-1303.193,454.032-1302.449,454.775-1302.449,455.775z"/>
	<path d="M-1287.132,443.455c0.977,1.465,1.441,3.511,1.441,5.766c0,2.301-0.465,4.347-1.441,5.857
		c-0.953,1.489-2.255,2.396-3.999,2.396c-1.791,0-3.115-0.906-4.068-2.396c-0.977-1.511-1.441-3.557-1.441-5.857
		c0-2.255,0.465-4.301,1.441-5.766c0.953-1.465,2.278-2.395,4.068-2.395C-1289.386,441.061-1288.085,441.99-1287.132,443.455z
		 M-1293.524,444.78c-0.512,1.116-0.814,2.696-0.814,4.463s0.303,3.349,0.814,4.487c0.581,1.14,1.348,1.859,2.371,1.859
		c1,0,1.767-0.72,2.348-1.859c0.512-1.139,0.814-2.721,0.814-4.487s-0.302-3.347-0.814-4.463c-0.581-1.115-1.348-1.836-2.348-1.836
		C-1292.176,442.944-1292.943,443.665-1293.524,444.78z"/>
	<path d="M-1273.209,445.431c-0.488-1.465-1.372-2.486-3.045-2.486c-2.185,0-3.278,2.696-3.487,5.254
		c0.349-0.442,1.604-1.79,3.371-1.79c3.115,0,5.463,2.533,5.463,5.625c0,2.999-2.349,5.44-5.347,5.44
		c-2.417,0-4.185-1.396-5.115-3.743c-0.511-1.279-0.72-2.79-0.72-4.557c0-4.579,2.417-8.113,5.951-8.113
		c2.697,0,4.185,1.418,5.021,3.58L-1273.209,445.431z M-1279.346,451.94c0,2.045,1.372,3.649,3.069,3.649
		c1.697,0,3.068-1.604,3.068-3.649c0-2.022-1.372-3.649-3.068-3.649C-1277.974,448.291-1279.346,449.918-1279.346,451.94z"/>
	<path d="M-1260.378,455.775c0,0.931-0.744,1.698-1.744,1.698c-0.93,0-1.697-0.768-1.697-1.698c0-1,0.768-1.743,1.697-1.743
		C-1261.122,454.032-1260.378,454.775-1260.378,455.775z"/>
	<path d="M-1252.08,445.873v-0.303c0-1.14,1.278-4.51,5.115-4.51c3.394,0,5.161,2.952,5.161,4.556c0,1.442-0.395,3.813-4.464,5.626
		c-1.72,0.768-3.51,1.814-3.51,3.836v0.396h8.602v1.812l-11.043,0.023v-0.675c0-4.347,1.721-5.579,5.138-7.206
		c2.627-1.255,2.976-2.767,2.976-3.649c0-1.115-0.978-2.836-2.837-2.836c-2.115,0-2.836,2.114-2.836,2.836v0.093H-1252.08z"/>
	<path d="M-1228.787,443.455c0.976,1.465,1.441,3.511,1.441,5.766c0,2.301-0.465,4.347-1.441,5.857
		c-0.953,1.489-2.255,2.396-3.999,2.396c-1.79,0-3.115-0.906-4.069-2.396c-0.976-1.511-1.44-3.557-1.44-5.857
		c0-2.255,0.464-4.301,1.44-5.766c0.954-1.465,2.279-2.395,4.069-2.395C-1231.042,441.061-1229.74,441.99-1228.787,443.455z
		 M-1235.18,444.78c-0.512,1.116-0.813,2.696-0.813,4.463s0.302,3.349,0.813,4.487c0.581,1.14,1.349,1.859,2.372,1.859
		c0.999,0,1.767-0.72,2.347-1.859c0.512-1.139,0.814-2.721,0.814-4.487s-0.302-3.347-0.814-4.463
		c-0.581-1.115-1.348-1.836-2.347-1.836C-1233.832,442.944-1234.599,443.665-1235.18,444.78z"/>
	<path d="M-1219.49,444.269c-1.372,0.884-2.488,1.022-3.929,1.022v-1.813c1.882,0,3.929-0.465,3.929-2.231h2.208v16.041h-2.208
		V444.269z"/>
	<path d="M-1210.124,452.475c0,0,0.232,3.115,2.999,3.115c2.767,0,3-3.115,3-4.068c0-1.162-0.442-3.58-2.581-3.58
		c-1.812,0-2.65,1.698-2.719,2.116l-2.278-0.232l0.837-8.579h8.322v1.813h-6.3c-0.187,1.745-0.256,2.163-0.419,3.953
		c0.21-0.164,1.372-0.954,2.743-0.954c3.859,0,4.696,3.604,4.696,5.416c0,1.372-0.418,5.999-5.323,5.999
		c-4.301,0-5.138-3.882-5.231-4.649L-1210.124,452.475z"/>
	<path d="M-1331.574,506.434v-0.303c0-1.139,1.279-4.511,5.115-4.511c3.394,0,5.161,2.953,5.161,4.558
		c0,1.441-0.396,3.812-4.464,5.626c-1.72,0.768-3.51,1.813-3.51,3.836v0.395h8.602v1.814l-11.043,0.022v-0.674
		c0-4.348,1.721-5.58,5.138-7.208c2.627-1.254,2.976-2.766,2.976-3.649c0-1.115-0.976-2.835-2.836-2.835
		c-2.115,0-2.836,2.115-2.836,2.835v0.094H-1331.574z"/>
	<path d="M-1303.382,516.337c0,0.93-0.744,1.697-1.743,1.697c-0.93,0-1.697-0.768-1.697-1.697c0-0.999,0.767-1.744,1.697-1.744
		C-1304.125,514.593-1303.382,515.338-1303.382,516.337z"/>
	<path d="M-1286.202,504.016c0.976,1.465,1.441,3.511,1.441,5.766c0,2.301-0.465,4.348-1.441,5.858
		c-0.953,1.487-2.255,2.395-3.999,2.395c-1.79,0-3.115-0.907-4.068-2.395c-0.977-1.511-1.441-3.558-1.441-5.858
		c0-2.255,0.465-4.301,1.441-5.766c0.953-1.464,2.278-2.396,4.068-2.396C-1288.458,501.62-1287.156,502.552-1286.202,504.016z
		 M-1292.595,505.341c-0.512,1.116-0.814,2.696-0.814,4.463c0,1.768,0.302,3.349,0.814,4.488c0.581,1.139,1.349,1.858,2.371,1.858
		c1,0,1.767-0.72,2.348-1.858c0.511-1.14,0.813-2.721,0.813-4.488c0-1.767-0.302-3.347-0.813-4.463
		c-0.582-1.115-1.349-1.836-2.348-1.836C-1291.247,503.505-1292.014,504.226-1292.595,505.341z"/>
	<path d="M-1278.647,513.664c0.488,1.464,1.372,2.486,3.045,2.486c2.185,0,3.278-2.696,3.487-5.254
		c-0.349,0.442-1.604,1.79-3.371,1.79c-3.115,0-5.464-2.533-5.464-5.625c0-2.999,2.349-5.441,5.348-5.441
		c2.418,0,4.184,1.396,5.115,3.744c0.511,1.279,0.72,2.789,0.72,4.557c0,4.579-2.418,8.113-5.951,8.113
		c-2.697,0-4.185-1.418-5.021-3.58L-1278.647,513.664z M-1272.51,507.154c0-2.046-1.372-3.649-3.069-3.649s-3.069,1.604-3.069,3.649
		c0,2.022,1.372,3.649,3.069,3.649S-1272.51,509.177-1272.51,507.154z"/>
	<path d="M-1259.678,516.337c0,0.93-0.745,1.697-1.744,1.697c-0.931,0-1.697-0.768-1.697-1.697c0-0.999,0.767-1.744,1.697-1.744
		C-1260.423,514.593-1259.678,515.338-1259.678,516.337z"/>
	<path d="M-1253.01,506.434v-0.303c0-1.139,1.279-4.511,5.115-4.511c3.395,0,5.16,2.953,5.16,4.558c0,1.441-0.395,3.812-4.463,5.626
		c-1.721,0.768-3.511,1.813-3.511,3.836v0.395h8.602v1.814l-11.042,0.022v-0.674c0-4.348,1.72-5.58,5.138-7.208
		c2.627-1.254,2.976-2.766,2.976-3.649c0-1.115-0.977-2.835-2.836-2.835c-2.115,0-2.836,2.115-2.836,2.835v0.094H-1253.01z"/>
	<path d="M-1229.251,504.016c0.976,1.465,1.441,3.511,1.441,5.766c0,2.301-0.465,4.348-1.441,5.858
		c-0.954,1.487-2.255,2.395-3.999,2.395c-1.791,0-3.115-0.907-4.068-2.395c-0.976-1.511-1.441-3.558-1.441-5.858
		c0-2.255,0.465-4.301,1.441-5.766c0.954-1.464,2.278-2.396,4.068-2.396C-1231.507,501.62-1230.205,502.552-1229.251,504.016z
		 M-1235.644,505.341c-0.512,1.116-0.814,2.696-0.814,4.463c0,1.768,0.302,3.349,0.814,4.488c0.581,1.139,1.348,1.858,2.371,1.858
		c1,0,1.767-0.72,2.348-1.858c0.512-1.14,0.814-2.721,0.814-4.488c0-1.767-0.302-3.347-0.814-4.463
		c-0.581-1.115-1.348-1.836-2.348-1.836C-1234.296,503.505-1235.064,504.226-1235.644,505.341z"/>
	<path d="M-1220.187,504.83c-1.372,0.883-2.487,1.022-3.929,1.022v-1.813c1.883,0,3.929-0.465,3.929-2.231h2.208v16.041h-2.208
		V504.83z"/>
	<path d="M-1210.123,513.036c0,0,0.233,3.114,2.999,3.114s2.999-3.114,2.999-4.068c0-1.161-0.442-3.579-2.581-3.579
		c-1.813,0-2.65,1.696-2.72,2.115l-2.278-0.232l0.836-8.578h8.323v1.812h-6.3c-0.186,1.744-0.256,2.162-0.418,3.952
		c0.209-0.162,1.372-0.953,2.743-0.953c3.859,0,4.696,3.604,4.696,5.417c0,1.371-0.418,5.998-5.323,5.998
		c-4.301,0-5.138-3.883-5.23-4.649L-1210.123,513.036z"/>
</g>
<g>
	<path d="M-1316.191,518.088v-0.07c0-7.438,3.348-12.042,5.254-14.157h-7.672v-1.812h10.252v1.627c0,0-5.603,4.464-5.603,14.343
		v0.07H-1316.191z"/>
</g>
<line fill="none" stroke="#FFCC00" stroke-width="4" stroke-miterlimit="10" x1="-1338.488" y1="484.989" x2="-1197.387" y2="475.757"/>
<rect x="-937.5" y="537.5" fill="none" width="456" height="62"/>
<text transform="matrix(1 0 0 1 -937.4998 591.7881)" font-family="'LetteraPro-Bold'" font-size="78">art route</text>
<rect x="-937.5" y="617.5" fill="none" width="494.892" height="33.37"/>
<text transform="matrix(1 0 0 1 -937.4998 638.4062)" fill="#FFCC00" font-family="'LetteraPro'" font-size="30.3">where the sidewalk ends</text>
<rect x="-1072.002" y="478.168" fill="none" width="109.759" height="54.952"/>
<text transform="matrix(1 0 0 1 -1072.0017 490.2432)"><tspan x="0" y="0" fill="#231F20" font-family="'LetteraPro'" font-size="17.5">Zuidas</tspan><tspan x="0" y="21" fill="#231F20" font-family="'LetteraPro'" font-size="17.5">Amsterdam</tspan></text>
<rect x="-683.521" y="232.066" fill="none" width="361.153" height="110.524"/>
<text transform="matrix(1 0 0 1 -683.5212 244.0718)"><tspan x="0" y="0" fill="#E8A723" font-family="'LetteraPro-Bold'" font-size="17.25">FESTIVE OPENING:</tspan><tspan x="0" y="20.7" fill="#231F20" font-family="'LetteraPro'" font-size="17.25">12.06.15 from 4</tspan><tspan x="165.601" y="20.7" fill="#231F20" font-family="'LetteraPro'" font-size="17.25" letter-spacing="-6"> </tspan><tspan x="170.431" y="20.7" fill="#231F20" font-family="'LetteraPro'" font-size="17.25">to</tspan><tspan x="192.511" y="20.7" fill="#231F20" font-family="'LetteraPro'" font-size="17.25" letter-spacing="-6"> </tspan><tspan x="197.341" y="20.7" fill="#231F20" font-family="'LetteraPro'" font-size="17.25">8 PM</tspan><tspan x="0" y="62.101" fill="#231F20" font-family="'LetteraPro'" font-size="17.25">Prinses Irenelaan x </tspan><tspan x="0" y="82.8" fill="#231F20" font-family="'LetteraPro'" font-size="17.25">Minervalaan, Zuidas Amsterdam</tspan></text>
<g>
	
		<line fill="none" stroke="#FFCC00" stroke-width="3" stroke-miterlimit="10" x1="-1068.194" y1="398.985" x2="-984.401" y2="398.701"/>
	<rect x="-1072.002" y="372.767" fill="none" width="152.823" height="73.444"/>
	<text transform="matrix(1 0 0 1 -1072.0017 384.8418)"><tspan x="0" y="0" fill="#231F20" font-family="'LetteraPro'" font-size="17.5">1</tspan><tspan x="10.5" y="0" fill="#231F20" font-family="'LetteraPro'" font-size="17.5">2.0</tspan><tspan x="43.051" y="0" fill="#231F20" font-family="'LetteraPro'" font-size="17.5">6</tspan><tspan x="54.251" y="0" fill="#231F20" font-family="'LetteraPro'" font-size="17.5" letter-spacing="-2">.</tspan><tspan x="63.001" y="0" fill="#231F20" font-family="'LetteraPro'" font-size="17.5" letter-spacing="-1">1</tspan><tspan x="72.801" y="0" fill="#231F20" font-family="'LetteraPro'" font-size="17.5">5</tspan><tspan x="0" y="38" fill="#231F20" font-family="'LetteraPro'" font-size="17.5" letter-spacing="-8"> </tspan><tspan x="2.45" y="38" fill="#231F20" font-family="'LetteraPro'" font-size="17.5" letter-spacing="-1">2</tspan><tspan x="12.601" y="38" fill="#231F20" font-family="'LetteraPro'" font-size="17.5" letter-spacing="-1">7</tspan><tspan x="22.051" y="38" fill="#231F20" font-family="'LetteraPro'" font-size="17.5">.</tspan><tspan x="32.901" y="38" fill="#231F20" font-family="'LetteraPro'" font-size="17.5">09</tspan><tspan x="55.301" y="38" fill="#231F20" font-family="'LetteraPro'" font-size="17.5" letter-spacing="-2">.</tspan><tspan x="63.701" y="38" fill="#231F20" font-family="'LetteraPro'" font-size="17.5" letter-spacing="-1">1</tspan><tspan x="73.852" y="38" fill="#231F20" font-family="'LetteraPro'" font-size="17.5">5</tspan></text>
</g>
</svg>
