<?xml version="1.0" encoding="utf-8"?>
<!-- Generator: Adobe Illustrator 15.0.0, SVG Export Plug-In . SVG Version: 6.00 Build 0)  -->
<!DOCTYPE svg PUBLIC "-//W3C//DTD SVG 1.1//EN" "http://www.w3.org/Graphics/SVG/1.1/DTD/svg11.dtd">
<svg version="1.1" id="Layer_1" xmlns="http://www.w3.org/2000/svg" xmlns:xlink="http://www.w3.org/1999/xlink" x="0px" y="0px"
	 width="1037.342px" height="1257.144px" viewBox="0 277.214 1037.342 1257.144"
	 enable-background="new 0 277.214 1037.342 1257.144" xml:space="preserve">
<path d="M312.848,747.721c-4.2,8.801-17.8,20-34.399,20c-16.6,0-30.8-6.8-41.8-19c-11-12.398-17.799-29.999-17.799-51.599
	c0-21.4,6.8-39,18-51.399c10.8-12.199,25-19.199,41.6-19.199c26.399,0,53.799,17,53.799,49.398h-19.2c0-19.8-16.6-32.6-34.599-32.6
	c-26,0-39.399,28-39.399,53.8c0,16.6,4.6,29.999,12,39.397c7.2,9.2,16.4,14.4,27.4,14.4c20.799,0,35.399-22,35.599-41.6l-37.399,0.2
	V692.92h55.599v73.198h-19.399v-18.397H312.848z"/>
<path d="M449.648,644.723h-73.6v43.199h65.6v16.6h-65.6v45h77.6v16.6h-97V628.122h93V644.723z"/>
<path d="M580.646,644.723h-45.998V766.12h-19.4V644.723h-45.6v-16.601h110.998V644.723L580.646,644.723z"/>
<path d="M379.648,913.521h75.399v16.6h-94.799V792.123h19.399V913.521L379.648,913.521z"/>
<path d="M480.049,810.123c10.601-12.2,25.799-19.2,41.6-19.2c15.6,0,30.6,7,40.999,19.2c10.601,12.398,17,29.8,17,51.199
	c0,21.6-6.399,38.999-16.801,51.398c-10.6,12.199-25.6,18.999-41.198,18.999c-15.801,0-31-6.8-41.8-19.198
	c-10.399-12.2-17-29.601-17-51.199C462.85,839.923,469.449,822.521,480.049,810.123z M494.649,900.321
	c6.6,9.399,16.399,14.6,26.6,14.6c10.4,0,20.2-5.199,26.799-14.6c7.2-9,11.4-22.399,11.4-39.199c0-16.6-4.2-30-11.4-39
	c-6.6-9.399-16.398-14.799-26.799-14.799c-10.2,0-20,5.398-26.6,14.799c-7.4,9-11.601,22.4-11.601,39
	C483.049,877.922,487.249,891.321,494.649,900.321z"/>
<path d="M702.646,829.723h-21c-3.199-15.199-14.8-22.398-32.6-22.398c-12.398,0-29.199,6.398-29.199,21.398
	c0,15.601,18.399,19.601,34.601,21.2c25.8,2.399,55.398,8.199,55.398,39.398c0,29.2-22.399,42.398-51.6,42.398
	c-33.399,0-56.999-17.8-61.399-48.198h20.4c4.399,20.8,19.199,31.398,39.999,31.398c17,0,32.399-4.999,32.399-25.6
	c0-15.999-12-19.799-37.601-22.601c-23.6-2.6-52.398-10-52.398-37.999c0-23.8,25.199-38.198,48.8-38.198
	C676.646,790.523,696.848,802.724,702.646,829.723z"/>
<path d="M832.646,808.724h-46v121.397h-19.398V808.724h-45.6v-16.601h110.999L832.646,808.724L832.646,808.724z"/>
<path d="M356.257,981.972c0.156-2.418,0.858-4.523,2.185-6.475c2.105-3.198,6.396-6.475,14.819-6.475c3.354,0,5.851,0.702,7.8,1.561
	c5.383,2.496,6.396,7.254,6.396,11.232v20.671c0,1.326,0.936,2.105,1.794,2.105s1.248-0.391,1.56-0.779
	c0.234-0.234,0.391-0.469,0.469-0.78l5.227,2.573c-0.468,0.937-1.014,1.795-1.716,2.496c-1.17,1.248-2.886,2.418-5.147,2.418
	c-4.057,0-7.255-2.964-7.488-5.069h-0.625c-4.055,3.979-8.58,5.069-11.935,5.069c-2.495,0-15.288-0.233-15.288-12.323
	c0-7.488,7.176-10.921,13.025-12.169l12.714-2.651v-1.561c0-2.185-0.155-6.476-7.021-6.476c-4.602,0-6.863,1.717-8.033,3.354
	c-0.702,0.937-1.092,2.027-1.248,3.275h-7.487V981.972z M380.048,989.538l-9.36,1.949c-4.211,0.857-8.657,2.809-8.657,6.787
	c0,5.771,5.46,5.928,7.565,5.928h0.312c4.602,0,10.14-3.51,10.14-7.878V989.538L380.048,989.538z"/>
<path d="M407.269,1009.896V969.88h7.411v5.616h0.624c1.95-2.418,6.318-6.475,12.792-6.475c12.871,0,12.949,10.141,12.949,11.623
	v1.949h-7.41c-0.078-1.638-0.702-7.255-6.941-7.255c-5.46,0-12.013,6.709-12.013,18.021v16.536L407.269,1009.896L407.269,1009.896z"
	/>
<path d="M463.352,970.349v-14.741h7.41v14.741h18.564v6.008h-18.564v20.201c0,0.938,0.078,7.646,6.942,7.646
	c5.226,0,7.722-3.588,8.658-4.914l6.317,3.51c-3.433,5.383-7.878,7.724-14.977,7.724c-14.275,0-14.354-10.142-14.354-11.623v-22.542
	h-10.53v-6.008L463.352,970.349L463.352,970.349z"/>
<path d="M557.028,1009.896V969.88h7.411v5.616h0.624c1.948-2.418,6.317-6.475,12.792-6.475c12.869,0,12.947,10.141,12.947,11.623
	v1.949h-7.41c-0.077-1.638-0.7-7.255-6.94-7.255c-5.461,0-12.013,6.709-12.013,18.021v16.536L557.028,1009.896L557.028,1009.896z"/>
<path d="M623.954,969.021c10.686,0,19.266,8.426,19.266,20.905c0,12.247-8.58,20.593-19.266,20.593
	c-10.843,0-19.424-8.346-19.424-20.593C604.53,977.447,613.111,969.021,623.954,969.021z M623.876,1004.202
	c6.318,0,11.622-5.851,11.622-14.431c0-8.503-5.304-14.432-11.622-14.432s-11.623,5.929-11.623,14.432
	C612.253,998.354,617.558,1004.202,623.876,1004.202z"/>
<path d="M690.722,969.881v40.016h-7.409v-5.693h-0.78c-2.027,2.418-6.162,6.318-12.636,6.318c-12.871,0-12.949-9.984-12.949-11.468
	v-29.173h7.41v26.755c0,0.938,0.077,7.566,6.942,7.566c5.46,0,12.013-6.553,12.013-17.707v-16.614H690.722z"/>
<path d="M712.951,970.349v-14.741h7.41v14.741h18.564v6.008h-18.564v20.201c0,0.938,0.078,7.646,6.941,7.646
	c5.228,0,7.724-3.588,8.658-4.914l6.318,3.51c-3.433,5.383-7.878,7.724-14.978,7.724c-14.273,0-14.353-10.142-14.353-11.623v-22.542
	h-10.53v-6.008L712.951,970.349L712.951,970.349z"/>
<path d="M762.403,991.8c0.702,7.488,5.771,12.402,11.622,12.402c4.759,0,8.813-3.198,10.999-8.502l6.708,2.964
	c-2.965,7.332-9.828,11.855-17.707,11.855c-10.843,0-19.422-8.346-19.422-20.593c0-12.479,8.424-20.905,19.031-20.905
	c10.608,0,19.032,8.426,19.032,20.905v1.872L762.403,991.8L762.403,991.8z M762.715,985.95h21.842
	c-1.325-6.396-5.771-10.609-10.921-10.609C768.409,975.341,763.963,979.554,762.715,985.95z"/>
<path fill="#FFCC00" d="M350.648,1042.645h1.817l2.606,12.817l2.849-11.092h2.183l2.849,11.092l2.606-12.817h1.817l-3.333,15.362
	h-2.121l-2.908-11.516l-2.91,11.516h-2.121L350.648,1042.645z"/>
<path fill="#FFCC00" d="M372.102,1058.007v-20.909h1.787v8.909h0.242c1.182-2.121,3.182-3.666,5.637-3.666
	c4.879,0,4.909,3.879,4.909,4.454v11.212h-1.788v-10.879c0-0.363-0.029-3.091-3.303-3.091c-2.605,0-5.697,2.697-5.697,7.271v6.697
	L372.102,1058.007L372.102,1058.007z"/>
<path fill="#FFCC00" d="M390.766,1050.311c0-4.728,3.273-7.97,7.243-7.97c4,0,6.879,3.242,6.879,7.97v0.484h-12.213
	c0.091,3.425,2.606,5.758,5.576,5.758c2.212,0,3.818-1.333,4.697-3.453l1.605,0.727c-1.182,2.729-3.667,4.425-6.546,4.425
	C394.039,1058.25,390.766,1055.038,390.766,1050.311z M392.675,1049.22h10.304c-0.363-3.122-2.363-5.183-5-5.183
	C395.251,1044.037,393.039,1046.098,392.675,1049.22z"/>
<path fill="#FFCC00" d="M410.885,1058.007v-15.363h1.788v3.363h0.242c1.182-2.121,3.182-3.666,5.637-3.666
	c4.879,0,4.879,3.879,4.879,4.454v0.454h-1.758v-0.121c0-0.363-0.03-3.091-3.303-3.091c-2.606,0-5.697,2.697-5.697,7.271v6.697
	L410.885,1058.007L410.885,1058.007z"/>
<path fill="#FFCC00" d="M429.55,1050.311c0-4.728,3.273-7.97,7.243-7.97c4,0,6.879,3.242,6.879,7.97v0.484h-12.213
	c0.091,3.425,2.606,5.758,5.576,5.758c2.212,0,3.817-1.333,4.697-3.453l1.605,0.727c-1.182,2.729-3.667,4.425-6.546,4.425
	C432.823,1058.25,429.55,1055.038,429.55,1050.311z M431.459,1049.22h10.304c-0.363-3.122-2.363-5.183-5-5.183
	C434.035,1044.037,431.823,1046.098,431.459,1049.22z"/>
<path fill="#FFCC00" d="M474.062,1053.492c0,1.546,1,3.061,3.363,3.061c1.333,0,2.879-0.574,3.667-2l1.576,0.788
	c-1.151,2.062-3.364,2.909-5.243,2.909c-3.605,0-5.15-2.395-5.15-4.849v-9.121h-4.333v-1.638h4.333v-5.546h1.787v5.546h7.517v1.638
	h-7.517V1053.492L474.062,1053.492z"/>
<path fill="#FFCC00" d="M488.454,1058.007v-20.909h1.788v8.909h0.242c1.182-2.121,3.182-3.666,5.637-3.666
	c4.879,0,4.909,3.879,4.909,4.454v11.212h-1.788v-10.879c0-0.363-0.03-3.091-3.303-3.091c-2.606,0-5.697,2.697-5.697,7.271v6.697
	L488.454,1058.007L488.454,1058.007z"/>
<path fill="#FFCC00" d="M507.118,1050.311c0-4.728,3.272-7.97,7.243-7.97c4,0,6.879,3.242,6.879,7.97v0.484h-12.213
	c0.091,3.425,2.605,5.758,5.576,5.758c2.212,0,3.817-1.333,4.696-3.453l1.606,0.727c-1.183,2.729-3.667,4.425-6.546,4.425
	C510.391,1058.25,507.118,1055.038,507.118,1050.311z M509.027,1049.22h10.304c-0.364-3.122-2.364-5.183-5-5.183
	C511.604,1044.037,509.391,1046.098,509.027,1049.22z"/>
<path fill="#FFCC00" d="M547.721,1053.067c0,0.061,0.333,1.213,1.305,2.03c0.848,0.696,2.149,1.363,4.271,1.363
	c2.091,0,3.272-0.576,3.97-1.213c0.697-0.666,0.88-1.395,0.88-1.787c0-2.272-3.093-2.213-5.242-2.455
	c-2.121-0.242-4.517-0.576-5.577-1.938c-0.606-0.787-0.849-1.484-0.849-2.091c0-0.395,0.092-1.547,0.971-2.637
	c0.788-1.03,2.333-2,5.212-2c3.091,0,4.667,1.211,5.546,2.454c0.788,1.183,0.818,2.364,0.818,2.425h-1.818
	c0-0.03-0.03-0.879-0.576-1.637c-0.576-0.788-1.666-1.546-3.879-1.546c-2.182,0-3.242,0.575-3.818,1.243
	c-0.545,0.636-0.604,1.271-0.604,1.545c0.03,1.788,2.212,2.182,5,2.484c3.637,0.395,4.697,0.576,5.728,1.605
	c0.637,0.637,0.939,1.546,0.939,2.576c0,0.606-0.272,1.757-1.212,2.788c-0.939,1.03-2.576,1.97-5.364,1.97
	c-2.879,0-4.667-0.97-5.788-2.062c-1.364-1.333-1.788-3.029-1.788-3.121h1.877V1053.067z"/>
<path fill="#FFCC00" d="M566.991,1042.645h6.668v13.728h5.696v1.636h-13.184v-1.636h5.697v-12.091h-4.879L566.991,1042.645
	L566.991,1042.645z M572.78,1036.886c0.969,0,1.758,0.787,1.758,1.759c0,0.969-0.789,1.727-1.758,1.727
	c-0.972,0-1.729-0.758-1.729-1.727C571.052,1037.673,571.81,1036.886,572.78,1036.886z"/>
<path fill="#FFCC00" d="M598.415,1058.007h-1.789v-2.697h-0.182c-1.363,1.939-3.151,2.94-5.183,2.94
	c-3.849,0-6.909-3.576-6.909-7.94c0-4.394,3.062-7.969,6.909-7.969c2.03,0,3.818,1.183,5.183,3.121h0.182v-8.364h1.789V1058.007z
	 M596.626,1050.28c0-3.697-1.908-6.243-5.242-6.243c-2.909,0-5.182,2.758-5.182,6.271c0,3.485,2.271,6.243,5.182,6.243
	c3.242,0,5.152-2.454,5.242-6V1050.28z"/>
<path fill="#FFCC00" d="M604.079,1050.311c0-4.728,3.271-7.97,7.242-7.97c4,0,6.879,3.242,6.879,7.97v0.484h-12.213
	c0.092,3.425,2.606,5.758,5.575,5.758c2.214,0,3.818-1.333,4.697-3.453l1.606,0.727c-1.183,2.729-3.667,4.425-6.546,4.425
	C607.352,1058.25,604.079,1055.038,604.079,1050.311z M605.987,1049.22h10.305c-0.364-3.122-2.364-5.183-5.001-5.183
	C608.562,1044.037,606.352,1046.098,605.987,1049.22z"/>
<path fill="#FFCC00" d="M622.138,1042.645h1.818l2.604,12.817l2.851-11.092h2.182l2.849,11.092l2.605-12.817h1.818l-3.333,15.362
	h-2.121l-2.91-11.516l-2.908,11.516h-2.121L622.138,1042.645z"/>
<path fill="#FFCC00" d="M643.196,1046.977c0,0,0.091-4.636,6.272-4.636c4.939,0,5.242,3,5.242,4.575v8.001
	c0,0.515,0.151,1.757,1.637,1.787c1.062,0,1.484-0.818,1.516-0.879l1.516,0.758c-0.03,0.062-0.97,1.667-3.062,1.667
	c-2.062,0-2.818-1.212-3.029-2.271h-0.273c-1.786,1.969-4.182,2.271-4.938,2.271c-1,0-5.605-0.091-5.637-4.788
	c0-2.879,2.971-4.182,5.334-4.667l5.182-1.091v-0.788c0-0.938-0.212-2.879-3.545-2.879c-4.364,0-4.425,2.939-4.425,2.939H643.196
	L643.196,1046.977z M652.954,1049.341l-4.545,0.969c-2.243,0.485-4.184,1.214-4.184,3.122c0.03,2.909,3.151,3.121,3.818,3.121
	c2.243,0,4.909-1.697,4.909-3.818L652.954,1049.341L652.954,1049.341z"/>
<path fill="#FFCC00" d="M663.952,1037.098h6.667v19.273h5.697v1.636h-13.184v-1.636h5.697v-17.639h-4.879L663.952,1037.098
	L663.952,1037.098z"/>
<path fill="#FFCC00" d="M682.708,1058.007v-20.909h1.788v11.517h0.271l7.213-5.971h2.605l-6.212,5.242v0.303l7.637,9.818h-2.334
	l-6.637-8.516h-0.424l-2.121,1.788v6.728H682.708L682.708,1058.007z"/>
<path fill="#FFCC00" d="M720.431,1050.311c0-4.728,3.272-7.97,7.242-7.97c4,0,6.879,3.242,6.879,7.97v0.484H722.34
	c0.091,3.425,2.605,5.758,5.575,5.758c2.213,0,3.818-1.333,4.697-3.453l1.605,0.727c-1.182,2.729-3.667,4.425-6.546,4.425
	C723.703,1058.25,720.431,1055.038,720.431,1050.311z M722.34,1049.22h10.303c-0.362-3.122-2.362-5.183-5-5.183
	C724.915,1044.037,722.703,1046.098,722.34,1049.22z"/>
<path fill="#FFCC00" d="M740.549,1058.007v-15.363h1.788v3.363h0.243c1.182-2.121,3.182-3.666,5.636-3.666
	c4.879,0,4.909,3.879,4.909,4.454v11.212h-1.787v-10.879c0-0.363-0.03-3.091-3.304-3.091c-2.605,0-5.697,2.697-5.697,7.271v6.697
	L740.549,1058.007L740.549,1058.007z"/>
<path fill="#FFCC00" d="M772.941,1058.007h-1.788v-2.697h-0.183c-1.363,1.939-3.15,2.94-5.182,2.94c-3.85,0-6.91-3.576-6.91-7.94
	c0-4.394,3.062-7.969,6.91-7.969c2.03,0,3.816,1.183,5.182,3.121h0.183v-8.364h1.788V1058.007z M771.153,1050.28
	c0-3.697-1.909-6.243-5.242-6.243c-2.909,0-5.183,2.758-5.183,6.271c0,3.485,2.272,6.243,5.183,6.243c3.242,0,5.151-2.454,5.242-6
	V1050.28z"/>
<path fill="#FFCC00" d="M780.424,1053.067c0,0.061,0.333,1.213,1.303,2.03c0.85,0.696,2.151,1.363,4.272,1.363
	c2.092,0,3.272-0.576,3.97-1.213c0.697-0.666,0.879-1.395,0.879-1.787c0-2.272-3.091-2.213-5.242-2.455
	c-2.12-0.242-4.516-0.576-5.575-1.938c-0.605-0.787-0.85-1.484-0.85-2.091c0-0.395,0.091-1.547,0.971-2.637
	c0.788-1.03,2.334-2,5.213-2c3.091,0,4.667,1.211,5.545,2.454c0.788,1.183,0.817,2.364,0.817,2.425h-1.817
	c0-0.03-0.03-0.879-0.575-1.637c-0.576-0.788-1.667-1.546-3.879-1.546c-2.183,0-3.243,0.575-3.818,1.243
	c-0.546,0.636-0.605,1.271-0.605,1.545c0.029,1.788,2.213,2.182,5,2.484c3.637,0.395,4.696,0.576,5.728,1.605
	c0.637,0.637,0.939,1.546,0.939,2.576c0,0.606-0.272,1.757-1.212,2.788c-0.939,1.03-2.576,1.97-5.363,1.97
	c-2.879,0-4.667-0.97-5.788-2.062c-1.364-1.333-1.788-3.029-1.788-3.121h1.877V1053.067z"/>
<path fill="#FFCC00" d="M232.367,1171.405v-20.815h13.486v1.721h-11.645v7.691h10.739v1.721h-10.739v9.684L232.367,1171.405
	L232.367,1171.405z"/>
<path fill="#FFCC00" d="M264.766,1152.311h-11.645v7.691h10.739v1.721h-10.739v7.965h12.55v1.719H251.28v-20.815h13.486V1152.311z"
	/>
<path fill="#FFCC00" d="M281.658,1151.677c1.327,0.904,2.353,2.263,3.107,4.435h-2.022c-0.573-1.417-1.297-2.414-2.322-3.077
	c-1.026-0.634-2.323-0.905-4.013-0.905c-1.267,0-2.655,0.363-3.681,1.026c-1.116,0.693-1.84,1.659-1.84,2.956
	c0,0.846,0.332,1.509,0.905,2.081c0.815,0.813,1.629,1.178,5.4,1.51c3.771,0.331,5.521,0.844,7.09,2.473
	c0.784,0.814,1.206,1.872,1.206,3.138c0,2.053-0.754,3.651-2.172,4.737c-1.387,1.058-3.439,1.6-5.822,1.6
	c-2.292,0-4.284-0.634-5.883-1.843c-1.508-1.145-2.806-3.136-3.258-5.127h1.961c0.513,1.629,1.388,3.107,2.625,3.982
	c1.207,0.876,2.715,1.205,4.465,1.205c1.9,0,3.409-0.271,4.495-1.055c1.116-0.813,1.689-2.084,1.689-3.592
	c0-0.724-0.332-1.417-0.875-1.959c-1.479-1.479-3.319-1.418-5.973-1.751c-3.41-0.423-4.737-0.571-6.275-2.051
	c-0.875-0.845-1.478-2.021-1.478-3.531c0-1.808,0.935-3.166,2.383-4.131c1.448-0.966,3.318-1.448,5.008-1.448
	C278.611,1150.349,280.331,1150.741,281.658,1151.677z"/>
<path fill="#FFCC00" d="M304.463,1152.311h-7.21v19.096h-1.84v-19.096h-7.15v-1.721h16.2V1152.311L304.463,1152.311z"/>
<path fill="#FFCC00" d="M309.379,1150.59h12.58v1.72h-5.37v17.377h5.37v1.72h-12.58v-1.72h5.37v-17.377h-5.37V1150.59z"/>
<path fill="#FFCC00" d="M343.075,1150.59l-6.637,20.815h-2.986l-6.637-20.815h1.991l6.094,19.459h0.091l6.093-19.459H343.075z"/>
<path fill="#FFCC00" d="M361.295,1152.311H349.65v7.691h10.74v1.721h-10.74v7.965h12.55v1.719h-14.39v-20.815h13.485
	L361.295,1152.311L361.295,1152.311z"/>
<path fill="#FFCC00" d="M386.693,1153.246c1.599-1.842,3.83-2.897,6.244-2.897c2.354,0,4.556,1.057,6.124,2.897
	c1.63,1.868,2.564,4.523,2.564,7.753c0,3.257-0.935,5.911-2.534,7.783c-1.599,1.839-3.802,2.864-6.154,2.864
	c-2.414,0-4.646-1.025-6.274-2.896c-1.599-1.842-2.563-4.496-2.563-7.753C384.098,1157.771,385.062,1155.114,386.693,1153.246z
	 M388.05,1167.483c1.237,1.538,2.957,2.383,4.827,2.383s3.589-0.845,4.827-2.383c1.237-1.539,2.021-3.741,2.021-6.484
	c0-2.717-0.784-4.919-2.021-6.457c-1.237-1.539-2.957-2.414-4.827-2.414s-3.59,0.875-4.827,2.414
	c-1.267,1.538-2.051,3.74-2.051,6.457C386,1163.742,386.784,1165.944,388.05,1167.483z"/>
<path fill="#FFCC00" d="M407.295,1162.778v8.627h-1.84v-20.815h9.443c3.076,0,5.551,2.656,5.551,6.034s-2.475,6.154-5.551,6.154
	H407.295L407.295,1162.778z M407.295,1161.061h7.361c2.111,0,3.892-1.964,3.892-4.377c0-2.412-1.78-4.373-3.892-4.373h-7.361
	V1161.061z"/>
<path fill="#FFCC00" d="M438.519,1152.311h-11.645v7.691h10.739v1.721h-10.739v7.965h12.55v1.719h-14.391v-20.815h13.485V1152.311z"
	/>
<path fill="#FFCC00" d="M458.849,1150.59v20.815h-3.317l-10.83-19.52h-0.121v19.52h-1.84v-20.815h3.317l10.801,19.521h0.149v-19.521
	H458.849z"/>
<path fill="#FFCC00" d="M463.826,1150.59h12.579v1.72h-5.37v17.377h5.37v1.72h-12.579v-1.72h5.37v-17.377h-5.37V1150.59z"/>
<path fill="#FFCC00" d="M497.461,1150.59v20.815h-3.318l-10.829-19.52h-0.121v19.52h-1.841v-20.815h3.319l10.8,19.521h0.15v-19.521
	H497.461z"/>
<path fill="#FFCC00" d="M514.896,1167.756c-0.693,1.207-1.6,2.141-2.654,2.805c-1.086,0.726-2.323,1.088-3.771,1.088
	c-2.442,0-4.646-1.026-6.244-2.865c-1.599-1.872-2.563-4.526-2.563-7.783c0-3.229,0.965-5.885,2.594-7.753
	c1.569-1.842,3.771-2.897,6.215-2.897c1.841,0,3.561,0.636,5.009,1.779c1.418,1.118,2.775,2.986,3.197,4.979h-1.871
	c-0.543-1.539-1.447-2.867-2.562-3.742c-1.117-0.874-2.414-1.237-3.771-1.237c-1.899,0-3.619,0.875-4.856,2.385
	c-1.268,1.567-2.051,3.739-2.051,6.457c0,2.772,0.783,4.976,2.051,6.545c1.237,1.508,2.957,2.353,4.856,2.353
	c1.6,0,3.229-0.692,4.436-1.989c1.177-1.236,1.991-3.076,2.112-5.399h-6.335v-1.72h8.054v10.647h-1.84v-3.651H514.896z"/>
<path fill="#FFCC00" d="M526.148,1158.615c0-0.996,0.844-1.842,1.84-1.842c1.086,0,1.899,0.846,1.899,1.842
	c0,1.086-0.813,1.897-1.899,1.897C526.992,1160.514,526.148,1159.701,526.148,1158.615z M526.148,1169.747
	c0-0.995,0.844-1.84,1.84-1.84c1.086,0,1.899,0.845,1.899,1.84c0,1.086-0.813,1.899-1.899,1.899
	C526.992,1171.646,526.148,1170.833,526.148,1169.747z"/>
<path d="M244.042,1186.787v20.814h-1.779v-17.587h-0.211c-1.569,1.146-3.289,1.326-5.159,1.326v-1.658
	c2.444,0,5.371-0.604,5.371-2.896H244.042z"/>
<path d="M252.849,1192.611v-0.272c0-1.448,1.599-5.792,6.335-5.792c4.254,0,6.426,3.771,6.426,5.792v0.062
	c0,1.84-0.272,4.555-4.404,7.028c-2.504,1.509-4.225,2.654-5.34,3.831c-0.452,0.513-0.815,1.057-1.056,1.631v1.084h11.615v1.629
	h-13.787v-0.181c0-2.562,0.664-3.952,1.931-5.311c1.267-1.357,3.349-2.744,5.822-4.345c3.319-2.141,3.378-3.801,3.378-4.978v-0.18
	c0-1.538-1.569-4.377-4.555-4.377c-3.409,0-4.525,3.26-4.525,4.377L252.849,1192.611L252.849,1192.611z"/>
<path d="M277.585,1205.944c0-0.994,0.844-1.841,1.84-1.841c1.086,0,1.9,0.847,1.9,1.841c0,1.086-0.814,1.9-1.9,1.9
	C278.43,1207.846,277.585,1207.03,277.585,1205.944z"/>
<path d="M303.739,1189.654c1.207,1.899,1.811,4.555,1.811,7.48c0,2.986-0.604,5.642-1.811,7.604
	c-1.177,1.931-2.805,3.106-4.947,3.106c-2.203,0-3.861-1.177-5.038-3.106c-1.207-1.962-1.811-4.616-1.811-7.604
	c0-2.927,0.604-5.581,1.811-7.48c1.177-1.901,2.835-3.107,5.038-3.107C300.934,1186.547,302.562,1187.753,303.739,1189.654z
	 M295.081,1190.86c-0.845,1.568-1.297,3.802-1.297,6.274c0,2.534,0.452,4.769,1.297,6.365c0.875,1.659,2.112,2.654,3.681,2.654
	c1.569,0,2.776-0.995,3.65-2.654c0.845-1.598,1.297-3.831,1.297-6.365c0-2.474-0.452-4.706-1.297-6.274
	c-0.875-1.63-2.082-2.626-3.65-2.626C297.194,1188.234,295.956,1189.23,295.081,1190.86z"/>
<path d="M323.226,1191.767c-0.754-2.083-2.142-3.531-4.706-3.531c-3.41,0-5.461,3.893-5.461,9.262h0.121
	c1.056-2.11,2.926-3.801,5.129-3.801c3.861,0,6.788,3.229,6.788,7.181c0,3.862-2.927,6.97-6.637,6.97
	c-2.987,0-5.189-1.78-6.366-4.798c-0.604-1.63-0.875-3.559-0.875-5.821c0-5.854,2.745-10.68,7.241-10.68
	c3.439,0,5.339,1.84,6.396,4.646L323.226,1191.767z M313.632,1200.785c0,2.986,2.142,5.37,4.797,5.37
	c2.685,0,4.827-2.384,4.827-5.37s-2.142-5.399-4.827-5.399C315.774,1195.386,313.632,1197.799,313.632,1200.785z"/>
<path d="M335.503,1205.944c0-0.994,0.844-1.841,1.84-1.841c1.086,0,1.9,0.847,1.9,1.841c0,1.086-0.814,1.9-1.9,1.9
	C336.347,1207.846,335.503,1207.03,335.503,1205.944z"/>
<path d="M359.876,1186.787v20.814h-1.778v-17.587h-0.211c-1.57,1.146-3.289,1.326-5.16,1.326v-1.658
	c2.443,0,5.371-0.604,5.371-2.896H359.876z"/>
<path d="M371.822,1201.631c0,0,0.361,4.524,4.675,4.524c4.375,0,4.737-4.524,4.737-5.882c0-1.689-0.725-5.189-4.073-5.189
	c-2.443,0-4.103,2.594-4.164,2.958l-2.142-0.243l1.056-11.012h10.288v1.63h-8.629c-0.24,2.262-0.543,4.706-0.754,7.029h0.092
	c0.875-0.997,2.412-2.202,4.344-2.202c4.827,0,5.854,4.615,5.854,6.938c0,1.75-0.543,7.663-6.607,7.663
	c-5.339,0-6.365-4.978-6.486-5.941L371.822,1201.631z"/>
<path d="M421.716,1189.413c-0.844-1.148-2.442-1.66-3.801-1.66c-2.323,0-3.318,1.509-3.318,3.047v1.509h5.701v1.629h-5.701v13.666
	h-1.779v-13.666h-4.436v-1.629h4.436v-1.418c0-2.442,1.539-4.826,5.099-4.826c1.84,0,4.042,0.724,5.25,2.384L421.716,1189.413z"/>
<path d="M427.626,1207.604v-15.295h1.78v3.351h0.242c1.176-2.112,3.168-3.651,5.61-3.651c4.857,0,4.857,3.861,4.857,4.437v0.451
	h-1.75v-0.121c0-0.36-0.03-3.077-3.288-3.077c-2.595,0-5.672,2.687-5.672,7.241v6.666L427.626,1207.604L427.626,1207.604z"/>
<path d="M453.238,1192.007c3.892,0,7.148,3.229,7.148,7.935c0,4.707-3.258,7.904-7.148,7.904c-3.953,0-7.21-3.197-7.21-7.904
	S449.286,1192.007,453.238,1192.007z M453.208,1206.155c2.926,0,5.339-2.505,5.339-6.215s-2.413-6.245-5.339-6.245
	c-2.927,0-5.34,2.535-5.34,6.245S450.281,1206.155,453.208,1206.155z"/>
<path d="M466.028,1207.604h-1.78v-15.295h1.78v2.201h0.392c0.965-1.629,1.811-2.503,3.229-2.503c2.11,0,3.046,1.298,3.469,2.503
	h0.453c0.965-1.599,2.021-2.503,3.438-2.503c3.771,0,3.801,3.47,3.801,4.072v11.522h-1.779v-11.28c0-0.395-0.03-2.626-2.143-2.626
	c-1.688,0-3.469,2.505-3.469,5.101v8.808h-1.779v-11.281c0-0.395-0.029-2.626-2.112-2.626c-1.689,0-3.499,2.505-3.499,5.101
	V1207.604z"/>
<path d="M503.101,1200.545l9.985-13.758h2.262v13.365h3.771v1.63h-3.771v5.819h-1.779v-5.819h-10.468V1200.545L503.101,1200.545z
	 M505.272,1200.152h8.296v-11.134h-0.061C510.311,1193.485,508.44,1195.777,505.272,1200.152z"/>
<path d="M537.7,1199.52h11.977v1.629H537.7V1199.52z"/>
<path d="M572.632,1196.562v-0.212c-1.66-0.995-3.018-2.596-3.018-4.436c0-2.986,2.746-5.369,6.035-5.369
	c3.348,0,6.094,2.383,6.094,5.369c0,1.81-1.418,3.438-3.047,4.405v0.24c1.961,1.085,3.619,3.019,3.619,5.189
	c0,3.378-2.986,6.094-6.666,6.094c-3.621,0-6.607-2.716-6.607-6.094C569.042,1199.58,570.642,1197.646,572.632,1196.562z
	 M575.679,1206.155c2.654,0,4.797-1.959,4.797-4.435c0-2.384-2.051-4.436-4.586-4.436h-0.422c-2.563,0.121-4.586,2.052-4.586,4.436
	C570.882,1204.196,573.024,1206.155,575.679,1206.155z M575.679,1195.628c2.324,0,4.226-1.63,4.226-3.682
	c0-2.082-1.9-3.742-4.226-3.742c-2.321,0-4.223,1.66-4.223,3.742C571.456,1193.998,573.356,1195.628,575.679,1195.628z"/>
<path d="M609.403,1198.976v8.627h-1.841v-20.814h9.443c3.076,0,5.549,2.656,5.549,6.035c0,3.378-2.473,6.152-5.549,6.152H609.403z
	 M609.403,1197.257h7.36c2.111,0,3.892-1.962,3.892-4.376c0-2.412-1.779-4.373-3.892-4.373h-7.36V1197.257z"/>
<path d="M641.019,1207.604v-18.943l-4.676,16.439h-3.078l-4.676-16.439v18.943h-1.84v-20.815h3.168l4.795,16.714h0.182l4.798-16.714
	h3.168v20.815H641.019z"/>
<path d="M235.957,1271.371v8.627h-1.84v-20.815h9.442c3.077,0,5.551,2.656,5.551,6.035c0,3.378-2.474,6.153-5.551,6.153H235.957z
	 M235.957,1269.652h7.361c2.112,0,3.892-1.963,3.892-4.376c0-2.412-1.78-4.373-3.892-4.373h-7.361V1269.652z"/>
<path d="M253.875,1279.998v-15.294h1.78v3.35h0.242c1.177-2.111,3.168-3.65,5.611-3.65c4.857,0,4.857,3.86,4.857,4.436v0.451h-1.75
	v-0.121c0-0.359-0.03-3.077-3.289-3.077c-2.595,0-5.672,2.688-5.672,7.241v6.666L253.875,1279.998L253.875,1279.998z"/>
<path d="M274.146,1264.704h6.636v13.665h5.672v1.629h-13.123v-1.629h5.671v-12.036h-4.856V1264.704z M279.908,1258.973
	c0.965,0,1.75,0.784,1.75,1.749c0,0.966-0.785,1.721-1.75,1.721c-0.965,0-1.719-0.755-1.719-1.721
	C278.189,1259.757,278.943,1258.973,279.908,1258.973z"/>
<path d="M292.486,1279.998v-15.294h1.78v3.35h0.241c1.177-2.111,3.168-3.65,5.611-3.65c4.857,0,4.888,3.86,4.888,4.436v11.16h-1.78
	v-10.83c0-0.359-0.03-3.077-3.288-3.077c-2.595,0-5.672,2.688-5.672,7.241v6.666L292.486,1279.998L292.486,1279.998z"/>
<path d="M312.878,1275.081c0,0.062,0.332,1.207,1.297,2.022c0.845,0.692,2.142,1.355,4.254,1.355c2.081,0,3.258-0.572,3.952-1.205
	c0.693-0.663,0.875-1.389,0.875-1.781c0-2.263-3.077-2.201-5.219-2.443c-2.111-0.24-4.495-0.572-5.551-1.93
	c-0.603-0.783-0.845-1.479-0.845-2.082c0-0.393,0.091-1.538,0.965-2.625c0.785-1.025,2.323-1.99,5.189-1.99
	c3.077,0,4.646,1.207,5.521,2.441c0.785,1.18,0.815,2.354,0.815,2.414h-1.811c0-0.029-0.03-0.875-0.573-1.629
	c-0.573-0.785-1.659-1.539-3.861-1.539c-2.172,0-3.228,0.574-3.801,1.239c-0.544,0.633-0.604,1.266-0.604,1.538
	c0.03,1.777,2.202,2.172,4.978,2.473c3.62,0.394,4.676,0.574,5.701,1.601c0.634,0.633,0.936,1.538,0.936,2.562
	c0,0.604-0.272,1.751-1.207,2.775s-2.564,1.962-5.339,1.962c-2.867,0-4.646-0.967-5.763-2.053c-1.358-1.328-1.779-3.017-1.779-3.107
	L312.878,1275.081L312.878,1275.081z"/>
<path d="M330.374,1272.336c0-4.706,3.258-7.934,7.21-7.934c3.982,0,6.848,3.228,6.848,7.934v0.483h-12.158
	c0.091,3.407,2.595,5.73,5.552,5.73c2.201,0,3.801-1.326,4.675-3.438l1.599,0.726c-1.177,2.714-3.649,4.404-6.516,4.404
	C333.632,1280.241,330.374,1277.043,330.374,1272.336z M332.274,1271.25h10.257c-0.362-3.107-2.354-5.159-4.979-5.159
	C334.839,1266.091,332.637,1268.143,332.274,1271.25z"/>
<path d="M351.49,1275.081c0,0.062,0.332,1.207,1.297,2.022c0.845,0.692,2.143,1.355,4.253,1.355c2.082,0,3.258-0.572,3.953-1.205
	c0.692-0.663,0.875-1.389,0.875-1.781c0-2.263-3.077-2.201-5.22-2.443c-2.111-0.24-4.494-0.572-5.551-1.93
	c-0.604-0.783-0.845-1.479-0.845-2.082c0-0.393,0.091-1.538,0.966-2.625c0.784-1.025,2.323-1.99,5.188-1.99
	c3.077,0,4.646,1.207,5.521,2.441c0.784,1.18,0.814,2.354,0.814,2.414h-1.811c0-0.029-0.029-0.875-0.572-1.629
	c-0.573-0.785-1.659-1.539-3.862-1.539c-2.172,0-3.228,0.574-3.802,1.239c-0.543,0.633-0.604,1.266-0.604,1.538
	c0.03,1.777,2.202,2.172,4.979,2.473c3.619,0.394,4.676,0.574,5.701,1.601c0.635,0.633,0.937,1.538,0.937,2.562
	c0,0.604-0.271,1.751-1.207,2.775c-0.935,1.024-2.565,1.962-5.34,1.962c-2.866,0-4.646-0.967-5.763-2.053
	c-1.357-1.328-1.779-3.017-1.779-3.107L351.49,1275.081L351.49,1275.081z"/>
<path d="M389.016,1259.183h12.579v1.722h-5.37v17.376h5.37v1.719h-12.579v-1.719h5.371v-17.376h-5.371V1259.183z"/>
<path d="M408.321,1279.998v-15.294h1.779v3.35h0.241c1.177-2.111,3.168-3.65,5.611-3.65c4.856,0,4.856,3.86,4.856,4.436v0.451h-1.75
	v-0.121c0-0.359-0.029-3.077-3.287-3.077c-2.596,0-5.673,2.688-5.673,7.241v6.666L408.321,1279.998L408.321,1279.998z"/>
<path d="M426.903,1272.336c0-4.706,3.258-7.934,7.21-7.934c3.981,0,6.848,3.228,6.848,7.934v0.483h-12.158
	c0.091,3.407,2.596,5.73,5.553,5.73c2.201,0,3.801-1.326,4.675-3.438l1.599,0.726c-1.177,2.714-3.65,4.404-6.516,4.404
	C430.161,1280.241,426.903,1277.043,426.903,1272.336z M428.803,1271.25h10.257c-0.361-3.107-2.354-5.159-4.978-5.159
	C431.368,1266.091,429.166,1268.143,428.803,1271.25z"/>
<path d="M446.933,1279.998v-15.294h1.78v3.35h0.242c1.177-2.111,3.168-3.65,5.611-3.65c4.856,0,4.887,3.86,4.887,4.436v11.16h-1.78
	v-10.83c0-0.359-0.03-3.077-3.289-3.077c-2.595,0-5.672,2.688-5.672,7.241v6.666L446.933,1279.998L446.933,1279.998z"/>
<path d="M465.515,1272.336c0-4.706,3.259-7.934,7.21-7.934c3.981,0,6.849,3.228,6.849,7.934v0.483h-12.158
	c0.091,3.407,2.595,5.73,5.551,5.73c2.202,0,3.801-1.326,4.675-3.438l1.6,0.726c-1.176,2.714-3.65,4.404-6.517,4.404
	C468.772,1280.241,465.515,1277.043,465.515,1272.336z M467.415,1271.25h10.257c-0.362-3.107-2.353-5.159-4.978-5.159
	C469.979,1266.091,467.778,1268.143,467.415,1271.25z"/>
<path d="M486.51,1259.183h6.637v19.188h5.672v1.629h-13.123v-1.629h5.671v-17.558h-4.856V1259.183z"/>
<path d="M504.458,1269.02c0,0,0.09-4.616,6.244-4.616c4.918,0,5.219,2.985,5.219,4.556v7.963c0,0.515,0.15,1.751,1.629,1.781
	c1.056,0,1.479-0.814,1.508-0.875l1.509,0.754c-0.03,0.062-0.966,1.66-3.047,1.66c-2.052,0-2.807-1.207-3.019-2.263h-0.271
	c-1.78,1.959-4.164,2.263-4.917,2.263c-0.995,0-5.581-0.092-5.611-4.768c0-2.865,2.957-4.163,5.31-4.646l5.158-1.086v-0.784
	c0-0.935-0.211-2.867-3.53-2.867c-4.344,0-4.403,2.929-4.403,2.929H504.458L504.458,1269.02z M514.172,1271.371l-4.523,0.965
	c-2.233,0.483-4.164,1.207-4.164,3.107c0.029,2.896,3.137,3.106,3.801,3.106c2.231,0,4.887-1.689,4.887-3.801V1271.371z"/>
<path d="M523.764,1269.02c0,0,0.09-4.616,6.244-4.616c4.918,0,5.219,2.985,5.219,4.556v7.963c0,0.515,0.151,1.751,1.63,1.781
	c1.056,0,1.478-0.814,1.508-0.875l1.508,0.754c-0.03,0.062-0.966,1.66-3.047,1.66c-2.051,0-2.807-1.207-3.018-2.263h-0.271
	c-1.78,1.959-4.164,2.263-4.918,2.263c-0.995,0-5.581-0.092-5.611-4.768c0-2.865,2.957-4.163,5.311-4.646l5.158-1.086v-0.784
	c0-0.935-0.211-2.867-3.529-2.867c-4.345,0-4.404,2.929-4.404,2.929H523.764L523.764,1269.02z M533.479,1271.371l-4.525,0.965
	c-2.233,0.483-4.164,1.207-4.164,3.107c0.03,2.896,3.138,3.106,3.802,3.106c2.232,0,4.888-1.689,4.888-3.801V1271.371z"/>
<path d="M543.461,1279.998v-15.294h1.78v3.35h0.241c1.177-2.111,3.168-3.65,5.611-3.65c4.857,0,4.888,3.86,4.888,4.436v11.16h-1.779
	v-10.83c0-0.359-0.031-3.077-3.289-3.077c-2.594,0-5.671,2.688-5.671,7.241v6.666L543.461,1279.998L543.461,1279.998z"/>
<path d="M588.409,1273.424h-0.062l-4.524,6.574h-2.172l5.521-7.783v-0.359l-5.188-7.15h2.172l4.192,5.941h0.062l4.192-5.941h2.172
	l-5.188,7.15v0.359l5.521,7.783h-2.172L588.409,1273.424z"/>
<path d="M247.059,1316.196v-18.944l-4.676,16.441h-3.077l-4.676-16.441v18.944h-1.84v-20.815h3.167l4.796,16.713h0.182l4.797-16.713
	h3.167v20.815H247.059z"/>
<path d="M254.84,1300.901h6.637v13.665h5.672v1.63h-13.123v-1.63h5.671v-12.035h-4.856L254.84,1300.901L254.84,1300.901z
	 M260.603,1295.17c0.965,0,1.75,0.784,1.75,1.749c0,0.966-0.784,1.721-1.75,1.721s-1.72-0.755-1.72-1.721
	C258.883,1295.954,259.637,1295.17,260.603,1295.17z"/>
<path d="M273.18,1316.196v-15.295h1.78v3.35h0.242c1.177-2.112,3.168-3.65,5.611-3.65c4.857,0,4.888,3.861,4.888,4.437v11.16h-1.78
	v-10.83c0-0.36-0.03-3.077-3.288-3.077c-2.595,0-5.672,2.687-5.672,7.241v6.666L273.18,1316.196L273.18,1316.196z"/>
<path d="M291.762,1308.534c0-4.707,3.258-7.935,7.21-7.935c3.982,0,6.848,3.228,6.848,7.935v0.481h-12.158
	c0.091,3.409,2.595,5.731,5.551,5.731c2.202,0,3.801-1.326,4.676-3.438l1.599,0.727c-1.177,2.713-3.65,4.402-6.516,4.402
	C295.02,1316.438,291.762,1313.24,291.762,1308.534z M293.663,1307.448h10.257c-0.362-3.107-2.354-5.159-4.978-5.159
	C296.227,1302.289,294.025,1304.341,293.663,1307.448z"/>
<path d="M311.792,1316.196v-15.295h1.78v3.35h0.242c1.177-2.112,3.168-3.65,5.611-3.65c4.857,0,4.857,3.861,4.857,4.437v0.451h-1.75
	v-0.121c0-0.36-0.03-3.077-3.289-3.077c-2.595,0-5.672,2.687-5.672,7.241v6.666L311.792,1316.196L311.792,1316.196z"/>
<path d="M344.281,1300.901l-5.49,15.295h-2.836l-5.49-15.295h2.021l4.857,13.907h0.061l4.858-13.907H344.281z"/>
<path d="M350.012,1305.216c0,0,0.09-4.615,6.244-4.615c4.917,0,5.219,2.986,5.219,4.556v7.964c0,0.514,0.151,1.751,1.631,1.781
	c1.055,0,1.478-0.815,1.508-0.876l1.508,0.755c-0.03,0.061-0.965,1.659-3.047,1.659c-2.051,0-2.807-1.207-3.018-2.264h-0.271
	c-1.78,1.96-4.164,2.264-4.918,2.264c-0.995,0-5.581-0.092-5.611-4.768c0-2.865,2.957-4.163,5.31-4.646l5.16-1.086v-0.784
	c0-0.936-0.211-2.866-3.531-2.866c-4.344,0-4.404,2.927-4.404,2.927L350.012,1305.216L350.012,1305.216z M359.727,1307.569
	l-4.525,0.965c-2.233,0.481-4.164,1.206-4.164,3.106c0.029,2.896,3.138,3.106,3.802,3.106c2.231,0,4.888-1.689,4.888-3.801V1307.569
	z"/>
<path d="M370.675,1295.381h6.638v19.187h5.672v1.63h-13.123v-1.63h5.671v-17.558h-4.856L370.675,1295.381L370.675,1295.381z"/>
<path d="M388.624,1305.216c0,0,0.09-4.615,6.244-4.615c4.918,0,5.219,2.986,5.219,4.556v7.964c0,0.514,0.151,1.751,1.629,1.781
	c1.056,0,1.479-0.815,1.508-0.876l1.509,0.755c-0.03,0.061-0.966,1.659-3.048,1.659c-2.051,0-2.806-1.207-3.017-2.264h-0.271
	c-1.779,1.96-4.164,2.264-4.918,2.264c-0.994,0-5.58-0.092-5.61-4.768c0-2.865,2.957-4.163,5.31-4.646l5.158-1.086v-0.784
	c0-0.936-0.211-2.866-3.529-2.866c-4.345,0-4.404,2.927-4.404,2.927L388.624,1305.216L388.624,1305.216z M398.337,1307.569
	l-4.524,0.965c-2.232,0.481-4.164,1.206-4.164,3.106c0.031,2.896,3.139,3.106,3.803,3.106c2.232,0,4.886-1.689,4.886-3.801V1307.569
	z"/>
<path d="M407.929,1305.216c0,0,0.09-4.615,6.245-4.615c4.917,0,5.219,2.986,5.219,4.556v7.964c0,0.514,0.151,1.751,1.629,1.781
	c1.057,0,1.479-0.815,1.509-0.876l1.508,0.755c-0.03,0.061-0.965,1.659-3.047,1.659c-2.051,0-2.807-1.207-3.018-2.264h-0.271
	c-1.78,1.96-4.164,2.264-4.918,2.264c-0.995,0-5.581-0.092-5.611-4.768c0-2.865,2.957-4.163,5.311-4.646l5.158-1.086v-0.784
	c0-0.936-0.211-2.866-3.529-2.866c-4.345,0-4.404,2.927-4.404,2.927L407.929,1305.216L407.929,1305.216z M417.643,1307.569
	l-4.524,0.965c-2.233,0.481-4.164,1.206-4.164,3.106c0.03,2.896,3.138,3.106,3.802,3.106c2.232,0,4.887-1.689,4.887-3.801V1307.569z
	"/>
<path d="M427.626,1316.196v-15.295h1.78v3.35h0.242c1.176-2.112,3.168-3.65,5.61-3.65c4.857,0,4.888,3.861,4.888,4.437v11.16h-1.78
	v-10.83c0-0.36-0.03-3.077-3.288-3.077c-2.595,0-5.672,2.687-5.672,7.241v6.666L427.626,1316.196L427.626,1316.196z"/>
<path d="M453.177,1312.698c1.087,0,1.901,0.813,1.901,2.142v0.331c-0.241,3.198-3.469,5.792-3.469,5.792l-0.967-1.085
	c1.269-1.268,2.022-2.563,2.385-3.561c-0.905,0-1.689-0.784-1.689-1.779S452.182,1312.698,453.177,1312.698z"/>
<path d="M483.04,1316.196v-1.811l14.36-17.073v-0.213h-13.365v-1.72h15.598v1.78l-14.359,17.105v0.21h15.234v1.72L483.04,1316.196
	L483.04,1316.196z"/>
<path d="M517.37,1300.901v15.295h-1.78v-3.438h-0.242c-1.177,2.111-3.167,3.681-5.61,3.681c-4.857,0-4.888-3.861-4.888-4.435V1300.9
	h1.78v10.771c0,0.363,0.03,3.076,3.289,3.076c2.595,0,5.672-2.685,5.672-7.239v-6.606H517.37L517.37,1300.901z"/>
<path d="M525.122,1300.901h6.636v13.665h5.672v1.63h-13.123v-1.63h5.672v-12.035h-4.856V1300.901z M530.884,1295.17
	c0.965,0,1.75,0.784,1.75,1.749c0,0.966-0.785,1.721-1.75,1.721s-1.719-0.755-1.719-1.721
	C529.165,1295.954,529.918,1295.17,530.884,1295.17z"/>
<path d="M556.403,1316.196h-1.779v-2.685h-0.18c-1.359,1.931-3.14,2.927-5.16,2.927c-3.832,0-6.878-3.562-6.878-7.904
	c0-4.374,3.047-7.935,6.878-7.935c2.021,0,3.801,1.178,5.16,3.107h0.18v-8.327h1.779V1316.196z M554.624,1308.504
	c0-3.68-1.9-6.215-5.219-6.215c-2.896,0-5.16,2.747-5.16,6.245c0,3.471,2.264,6.214,5.16,6.214c3.229,0,5.129-2.443,5.219-5.972
	V1308.504z"/>
<path d="M562.376,1305.216c0,0,0.09-4.615,6.244-4.615c4.918,0,5.219,2.986,5.219,4.556v7.964c0,0.514,0.15,1.751,1.629,1.781
	c1.058,0,1.479-0.815,1.511-0.876l1.508,0.755c-0.031,0.061-0.965,1.659-3.047,1.659c-2.052,0-2.808-1.207-3.019-2.264h-0.271
	c-1.779,1.96-4.162,2.264-4.918,2.264c-0.994,0-5.58-0.092-5.611-4.768c0-2.865,2.957-4.163,5.311-4.646l5.158-1.086v-0.784
	c0-0.936-0.211-2.866-3.529-2.866c-4.344,0-4.403,2.927-4.403,2.927L562.376,1305.216L562.376,1305.216z M572.089,1307.569
	l-4.522,0.965c-2.234,0.481-4.164,1.206-4.164,3.106c0.028,2.896,3.137,3.106,3.801,3.106c2.231,0,4.887-1.689,4.887-3.801
	L572.089,1307.569L572.089,1307.569z"/>
<path d="M583.159,1311.279c0,0.061,0.332,1.207,1.297,2.021c0.846,0.693,2.143,1.356,4.254,1.356c2.082,0,3.258-0.572,3.953-1.205
	c0.693-0.663,0.875-1.389,0.875-1.78c0-2.263-3.078-2.202-5.221-2.444c-2.111-0.24-4.494-0.571-5.552-1.93
	c-0.604-0.784-0.844-1.478-0.844-2.082c0-0.392,0.09-1.538,0.965-2.624c0.785-1.026,2.322-1.991,5.189-1.991
	c3.076,0,4.645,1.207,5.521,2.442c0.783,1.178,0.814,2.354,0.814,2.414H592.6c0-0.03-0.03-0.876-0.573-1.63
	c-0.572-0.784-1.658-1.538-3.861-1.538c-2.172,0-3.227,0.573-3.801,1.238c-0.543,0.633-0.604,1.267-0.604,1.538
	c0.031,1.777,2.203,2.172,4.979,2.474c3.619,0.392,4.676,0.574,5.701,1.599c0.633,0.635,0.936,1.539,0.936,2.564
	c0,0.603-0.271,1.75-1.207,2.774c-0.936,1.025-2.563,1.962-5.34,1.962c-2.865,0-4.646-0.967-5.762-2.053
	c-1.357-1.328-1.779-3.017-1.779-3.106L583.159,1311.279L583.159,1311.279z"/>
<path d="M625.481,1295.381h2.926l6.639,20.815h-1.961l-1.963-6.186h-8.295l-1.961,6.186h-1.961L625.481,1295.381z M630.55,1308.263
	l-3.59-11.522h-0.029l-3.561,11.522H630.55z"/>
<path d="M639.78,1316.196h-1.779v-15.295h1.779v2.202h0.393c0.965-1.631,1.81-2.504,3.228-2.504c2.112,0,3.047,1.299,3.471,2.504
	h0.451c0.967-1.601,2.021-2.504,3.438-2.504c3.771,0,3.802,3.47,3.802,4.071v11.524h-1.779v-11.281c0-0.395-0.031-2.626-2.144-2.626
	c-1.688,0-3.469,2.505-3.469,5.1v8.809h-1.778v-11.281c0-0.396-0.031-2.626-2.113-2.626c-1.689,0-3.498,2.505-3.498,5.1
	L639.78,1316.196L639.78,1316.196z"/>
<path d="M660.384,1311.279c0,0.061,0.33,1.207,1.297,2.021c0.845,0.693,2.142,1.356,4.254,1.356c2.08,0,3.259-0.572,3.951-1.205
	c0.693-0.663,0.875-1.389,0.875-1.78c0-2.263-3.078-2.202-5.219-2.444c-2.111-0.24-4.496-0.571-5.551-1.93
	c-0.604-0.784-0.847-1.478-0.847-2.082c0-0.392,0.093-1.538,0.966-2.624c0.784-1.026,2.323-1.991,5.188-1.991
	c3.078,0,4.646,1.207,5.521,2.442c0.785,1.178,0.813,2.354,0.813,2.414h-1.811c0-0.03-0.029-0.876-0.572-1.63
	c-0.574-0.784-1.66-1.538-3.861-1.538c-2.174,0-3.229,0.573-3.801,1.238c-0.545,0.633-0.604,1.267-0.604,1.538
	c0.028,1.777,2.2,2.172,4.977,2.474c3.619,0.392,4.676,0.574,5.701,1.599c0.635,0.635,0.936,1.539,0.936,2.564
	c0,0.603-0.271,1.75-1.207,2.774c-0.934,1.025-2.563,1.962-5.338,1.962c-2.867,0-4.646-0.967-5.764-2.053
	c-1.357-1.328-1.779-3.017-1.779-3.106L660.384,1311.279L660.384,1311.279z"/>
<path d="M683.581,1311.702c0,1.538,0.996,3.046,3.348,3.046c1.328,0,2.867-0.572,3.65-1.989l1.568,0.784
	c-1.146,2.051-3.349,2.896-5.22,2.896c-3.59,0-5.129-2.385-5.129-4.827v-9.08h-4.313v-1.63h4.313v-5.521h1.781v5.521h7.479v1.63
	h-7.479L683.581,1311.702L683.581,1311.702z"/>
<path d="M697.185,1308.534c0-4.707,3.259-7.935,7.212-7.935c3.979,0,6.848,3.228,6.848,7.935v0.481h-12.158
	c0.09,3.409,2.594,5.731,5.551,5.731c2.203,0,3.802-1.326,4.677-3.438l1.6,0.727c-1.178,2.713-3.65,4.402-6.516,4.402
	C700.442,1316.438,697.185,1313.24,697.185,1308.534z M699.085,1307.448h10.258c-0.362-3.107-2.354-5.159-4.979-5.159
	C701.649,1302.289,699.448,1304.341,699.085,1307.448z"/>
<path d="M717.214,1316.196v-15.295h1.779v3.35h0.242c1.178-2.112,3.168-3.65,5.61-3.65c4.857,0,4.857,3.861,4.857,4.437v0.451h-1.75
	v-0.121c0-0.36-0.029-3.077-3.289-3.077c-2.594,0-5.672,2.687-5.672,7.241v6.666L717.214,1316.196L717.214,1316.196z"/>
<path d="M749.462,1316.196h-1.779v-2.685h-0.182c-1.357,1.931-3.137,2.927-5.158,2.927c-3.832,0-6.879-3.562-6.879-7.904
	c0-4.374,3.047-7.935,6.879-7.935c2.021,0,3.801,1.178,5.158,3.107h0.182v-8.327h1.779V1316.196z M747.683,1308.504
	c0-3.68-1.899-6.215-5.219-6.215c-2.896,0-5.16,2.747-5.16,6.245c0,3.471,2.265,6.214,5.16,6.214c3.228,0,5.127-2.443,5.219-5.972
	V1308.504z"/>
<path d="M755.435,1305.216c0,0,0.091-4.615,6.244-4.615c4.916,0,5.22,2.986,5.22,4.556v7.964c0,0.514,0.149,1.751,1.631,1.781
	c1.053,0,1.477-0.815,1.508-0.876l1.508,0.755c-0.029,0.061-0.967,1.659-3.047,1.659c-2.051,0-2.807-1.207-3.018-2.264h-0.271
	c-1.781,1.96-4.164,2.264-4.918,2.264c-0.994,0-5.58-0.092-5.611-4.768c0-2.865,2.957-4.163,5.312-4.646l5.157-1.086v-0.784
	c0-0.936-0.213-2.866-3.528-2.866c-4.344,0-4.404,2.927-4.404,2.927L755.435,1305.216L755.435,1305.216z M765.146,1307.569
	l-4.524,0.965c-2.232,0.481-4.162,1.206-4.162,3.106c0.029,2.896,3.137,3.106,3.801,3.106c2.232,0,4.888-1.689,4.888-3.801v-3.377
	H765.146z"/>
<path d="M774.921,1316.196h-1.781v-15.295h1.781v2.202h0.394c0.965-1.631,1.809-2.504,3.227-2.504c2.113,0,3.047,1.299,3.471,2.504
	h0.451c0.967-1.601,2.021-2.504,3.441-2.504c3.77,0,3.801,3.47,3.801,4.071v11.524h-1.781v-11.281c0-0.395-0.031-2.626-2.141-2.626
	c-1.691,0-3.471,2.505-3.471,5.1v8.809h-1.779v-11.281c0-0.396-0.029-2.626-2.113-2.626c-1.688,0-3.498,2.505-3.498,5.1
	L774.921,1316.196L774.921,1316.196z"/>
<path d="M225.674,904.966v-1.183l9.371-11.142v-0.138h-8.721v-1.122h10.178v1.162l-9.371,11.161v0.137h9.941v1.123L225.674,904.966
	L225.674,904.966z"/>
<path d="M248.076,894.985v9.979h-1.162v-2.244h-0.158c-0.768,1.378-2.066,2.402-3.662,2.402c-3.169,0-3.189-2.521-3.189-2.896
	v-7.243h1.162v7.026c0,0.236,0.02,2.008,2.146,2.008c1.693,0,3.701-1.753,3.701-4.725v-4.312h1.162V894.985z"/>
<path d="M252.74,894.985h4.331v8.917h3.701v1.062h-8.563v-1.062h3.701v-7.854h-3.169L252.74,894.985L252.74,894.985z M256.5,891.244
	c0.63,0,1.142,0.512,1.142,1.143c0,0.63-0.512,1.122-1.142,1.122s-1.122-0.492-1.122-1.122
	C255.378,891.756,255.871,891.244,256.5,891.244z"/>
<path d="M271.972,904.966h-1.161v-1.752h-0.118c-0.886,1.26-2.048,1.91-3.367,1.91c-2.5,0-4.488-2.324-4.488-5.158
	c0-2.854,1.988-5.178,4.488-5.178c1.319,0,2.48,0.769,3.367,2.026h0.118v-5.433h1.161V904.966z M270.811,899.946
	c0-2.401-1.24-4.057-3.405-4.057c-1.89,0-3.367,1.791-3.367,4.075c0,2.264,1.477,4.055,3.367,4.055c2.106,0,3.346-1.595,3.405-3.896
	V899.946z"/>
<path d="M275.87,897.8c0,0,0.059-3.012,4.074-3.012c3.209,0,3.406,1.948,3.406,2.972v5.198c0,0.334,0.099,1.142,1.063,1.162
	c0.688,0,0.964-0.532,0.984-0.571l0.984,0.492c-0.02,0.039-0.63,1.083-1.988,1.083c-1.339,0-1.831-0.789-1.968-1.479h-0.177
	c-1.162,1.279-2.717,1.479-3.209,1.479c-0.649,0-3.642-0.06-3.662-3.111c0-1.87,1.929-2.717,3.465-3.03l3.366-0.711v-0.512
	c0-0.609-0.138-1.869-2.303-1.869c-2.835,0-2.875,1.909-2.875,1.909H275.87L275.87,897.8z M282.208,899.335l-2.953,0.631
	c-1.457,0.313-2.717,0.786-2.717,2.027c0.02,1.89,2.047,2.026,2.48,2.026c1.457,0,3.189-1.103,3.189-2.479L282.208,899.335
	L282.208,899.335z"/>
<path d="M289.038,901.756c0,0.04,0.216,0.789,0.846,1.32c0.551,0.453,1.397,0.886,2.775,0.886c1.358,0,2.126-0.374,2.579-0.788
	c0.453-0.433,0.571-0.906,0.571-1.161c0-1.476-2.008-1.437-3.406-1.595c-1.378-0.158-2.933-0.373-3.622-1.26
	c-0.394-0.513-0.551-0.965-0.551-1.358c0-0.255,0.06-1.004,0.63-1.713c0.512-0.669,1.516-1.299,3.386-1.299
	c2.008,0,3.032,0.788,3.603,1.595c0.512,0.769,0.532,1.535,0.532,1.575h-1.182c0-0.021-0.02-0.571-0.374-1.063
	c-0.374-0.512-1.082-1.004-2.52-1.004c-1.417,0-2.106,0.373-2.48,0.809c-0.354,0.412-0.394,0.827-0.394,1.004
	c0.02,1.161,1.437,1.417,3.248,1.613c2.362,0.257,3.051,0.373,3.72,1.043c0.414,0.412,0.611,1.005,0.611,1.675
	c0,0.393-0.177,1.141-0.788,1.81c-0.61,0.67-1.673,1.281-3.484,1.281c-1.871,0-3.031-0.631-3.76-1.341
	c-0.886-0.865-1.161-1.968-1.161-2.027L289.038,901.756L289.038,901.756z"/>
<path d="M229.652,915.003h1.91l4.331,13.583h-1.28l-1.28-4.035h-5.414l-1.279,4.035h-1.28L229.652,915.003z M232.958,923.408
	l-2.342-7.521h-0.02l-2.323,7.521H232.958z"/>
<path d="M239.77,928.586h-1.162v-9.979h1.162v1.438h0.256c0.63-1.062,1.181-1.635,2.106-1.635c1.378,0,1.988,0.847,2.264,1.635
	h0.295c0.63-1.044,1.318-1.635,2.244-1.635c2.46,0,2.48,2.265,2.48,2.658v7.52h-1.162v-7.362c0-0.256-0.02-1.713-1.397-1.713
	c-1.103,0-2.264,1.636-2.264,3.327v5.748h-1.161v-7.362c0-0.256-0.02-1.713-1.379-1.713c-1.102,0-2.283,1.636-2.283,3.327
	L239.77,928.586L239.77,928.586z"/>
<path d="M253.607,925.376c0,0.04,0.216,0.789,0.846,1.32c0.551,0.453,1.397,0.886,2.775,0.886c1.358,0,2.126-0.373,2.579-0.787
	c0.453-0.434,0.571-0.906,0.571-1.161c0-1.477-2.008-1.438-3.406-1.596c-1.378-0.158-2.933-0.373-3.622-1.26
	c-0.394-0.513-0.551-0.964-0.551-1.358c0-0.255,0.06-1.004,0.63-1.713c0.512-0.669,1.516-1.299,3.386-1.299
	c2.008,0,3.031,0.788,3.603,1.595c0.512,0.768,0.532,1.535,0.532,1.575h-1.182c0-0.021-0.02-0.571-0.374-1.063
	c-0.374-0.512-1.083-1.004-2.52-1.004c-1.417,0-2.106,0.374-2.48,0.809c-0.355,0.413-0.394,0.826-0.394,1.004
	c0.02,1.161,1.437,1.417,3.248,1.612c2.362,0.258,3.051,0.375,3.72,1.044c0.414,0.413,0.611,1.005,0.611,1.675
	c0,0.394-0.177,1.142-0.788,1.81c-0.61,0.671-1.673,1.281-3.485,1.281c-1.87,0-3.031-0.631-3.76-1.34
	c-0.886-0.866-1.161-1.97-1.161-2.028L253.607,925.376L253.607,925.376z"/>
<path d="M267.563,925.653c0,1.004,0.65,1.987,2.185,1.987c0.867,0,1.871-0.375,2.382-1.3l1.024,0.513
	c-0.748,1.339-2.185,1.891-3.406,1.891c-2.342,0-3.346-1.557-3.346-3.15v-5.925h-2.815v-1.062h2.815v-3.604h1.161v3.604h4.882v1.062
	h-4.882V925.653L267.563,925.653z"/>
<path d="M276.046,923.586c0-3.071,2.126-5.178,4.705-5.178c2.598,0,4.468,2.105,4.468,5.178v0.314h-7.933
	c0.059,2.226,1.693,3.74,3.623,3.74c1.437,0,2.48-0.866,3.051-2.244l1.043,0.473c-0.768,1.771-2.382,2.875-4.252,2.875
	C278.172,928.744,276.046,926.657,276.046,923.586z M277.287,922.876h6.693c-0.236-2.027-1.536-3.365-3.248-3.365
	C278.96,919.511,277.523,920.849,277.287,922.876z"/>
<path d="M288.723,928.586v-9.979h1.161v2.185h0.158c0.768-1.378,2.067-2.382,3.662-2.382c3.169,0,3.169,2.52,3.169,2.895v0.295
	h-1.142v-0.079c0-0.235-0.02-2.008-2.146-2.008c-1.693,0-3.701,1.752-3.701,4.727v4.35h-1.161V928.586z"/>
<path d="M308.585,928.586h-1.161v-1.752h-0.118c-0.886,1.26-2.047,1.91-3.367,1.91c-2.5,0-4.488-2.324-4.488-5.158
	c0-2.854,1.988-5.178,4.488-5.178c1.319,0,2.481,0.769,3.367,2.026h0.118v-5.433h1.161V928.586z M307.424,923.566
	c0-2.401-1.24-4.057-3.406-4.057c-1.89,0-3.367,1.792-3.367,4.075c0,2.264,1.477,4.056,3.367,4.056c2.106,0,3.346-1.595,3.406-3.897
	V923.566z"/>
<path d="M312.482,921.42c0,0,0.059-3.012,4.075-3.012c3.209,0,3.405,1.947,3.405,2.972v5.198c0,0.334,0.099,1.143,1.063,1.162
	c0.689,0,0.964-0.531,0.984-0.571l0.984,0.492c-0.02,0.039-0.63,1.083-1.988,1.083c-1.339,0-1.831-0.789-1.969-1.479h-0.177
	c-1.162,1.28-2.717,1.479-3.209,1.479c-0.649,0-3.642-0.061-3.662-3.11c0-1.871,1.929-2.718,3.465-3.032l3.366-0.709v-0.513
	c0-0.608-0.138-1.869-2.303-1.869c-2.835,0-2.875,1.909-2.875,1.909H312.482z M318.82,922.955l-2.953,0.631
	c-1.457,0.314-2.717,0.786-2.717,2.027c0.02,1.89,2.047,2.027,2.481,2.027c1.457,0,3.188-1.104,3.188-2.479L318.82,922.955
	L318.82,922.955z"/>
<path d="M325.985,928.586h-1.162v-9.979h1.162v1.438h0.256c0.63-1.062,1.181-1.635,2.106-1.635c1.378,0,1.988,0.847,2.264,1.635
	h0.295c0.63-1.044,1.319-1.635,2.244-1.635c2.46,0,2.48,2.265,2.48,2.658v7.52h-1.161v-7.362c0-0.256-0.02-1.713-1.398-1.713
	c-1.102,0-2.264,1.636-2.264,3.327v5.748h-1.161v-7.362c0-0.256-0.02-1.713-1.378-1.713c-1.103,0-2.283,1.636-2.283,3.327V928.586z"
	/>
<path d="M233.644,800.136v15.271h-1.305v-12.901h-0.155c-1.151,0.841-2.412,0.974-3.785,0.974v-1.217c1.793,0,3.94-0.442,3.94-2.125
	L233.644,800.136L233.644,800.136z"/>
<path d="M239.662,804.408v-0.2c0-1.062,1.173-4.249,4.647-4.249c3.12,0,4.714,2.767,4.714,4.249v0.045
	c0,1.35-0.199,3.341-3.231,5.156c-1.837,1.105-3.099,1.947-3.917,2.811c-0.332,0.375-0.598,0.774-0.774,1.195v0.795h8.52v1.195
	h-10.113v-0.132c0-1.882,0.486-2.899,1.416-3.896c0.929-0.996,2.457-2.014,4.271-3.188c2.435-1.569,2.479-2.787,2.479-3.65v-0.132
	c0-1.129-1.151-3.211-3.342-3.211c-2.5,0-3.32,2.392-3.32,3.211L239.662,804.408L239.662,804.408z"/>
<path d="M257.808,814.189c0-0.729,0.619-1.352,1.35-1.352c0.797,0,1.394,0.621,1.394,1.352c0,0.796-0.597,1.394-1.394,1.394
	C258.427,815.583,257.808,814.985,257.808,814.189z"/>
<path d="M276.109,802.238c0.886,1.395,1.328,3.342,1.328,5.488c0,2.19-0.442,4.139-1.328,5.576
	c-0.863,1.416-2.058,2.279-3.629,2.279c-1.616,0-2.833-0.863-3.696-2.279c-0.886-1.438-1.328-3.386-1.328-5.576
	c0-2.146,0.442-4.095,1.328-5.488c0.863-1.395,2.08-2.279,3.696-2.279C274.051,799.959,275.246,800.845,276.109,802.238z
	 M269.758,803.124c-0.62,1.15-0.952,2.788-0.952,4.604c0,1.857,0.332,3.496,0.952,4.669c0.642,1.218,1.549,1.946,2.7,1.946
	s2.036-0.729,2.678-1.946c0.62-1.173,0.952-2.812,0.952-4.669c0-1.815-0.332-3.453-0.952-4.604
	c-0.642-1.195-1.527-1.927-2.678-1.927S270.4,801.929,269.758,803.124z"/>
<path d="M290.404,803.788c-0.553-1.527-1.571-2.591-3.452-2.591c-2.501,0-4.006,2.854-4.006,6.794h0.088
	c0.775-1.548,2.147-2.788,3.763-2.788c2.833,0,4.979,2.368,4.979,5.269c0,2.832-2.147,5.111-4.869,5.111
	c-2.191,0-3.807-1.307-4.669-3.521c-0.443-1.194-0.642-2.608-0.642-4.27c0-4.295,2.014-7.835,5.312-7.835
	c2.523,0,3.917,1.35,4.692,3.408L290.404,803.788z M283.367,810.404c0,2.189,1.571,3.938,3.519,3.938
	c1.97,0,3.541-1.749,3.541-3.938c0-2.19-1.571-3.961-3.541-3.961C284.938,806.443,283.367,808.214,283.367,810.404z"/>
<path d="M298.968,814.189c0-0.729,0.619-1.352,1.35-1.352c0.797,0,1.394,0.621,1.394,1.352c0,0.796-0.597,1.394-1.394,1.394
	C299.587,815.583,298.968,814.985,298.968,814.189z"/>
<path d="M314.635,800.136v15.271h-1.305v-12.901h-0.155c-1.151,0.841-2.413,0.974-3.785,0.974v-1.217c1.793,0,3.94-0.442,3.94-2.125
	L314.635,800.136L314.635,800.136z"/>
<path d="M321.627,811.024c0,0,0.266,3.318,3.43,3.318c3.209,0,3.475-3.318,3.475-4.313c0-1.24-0.531-3.809-2.988-3.809
	c-1.792,0-3.01,1.903-3.054,2.17l-1.571-0.178l0.774-8.078h7.546v1.195h-6.33c-0.177,1.66-0.398,3.453-0.553,5.156h0.067
	c0.641-0.73,1.77-1.615,3.187-1.615c3.541,0,4.293,3.387,4.293,5.09c0,1.283-0.398,5.621-4.847,5.621
	c-3.917,0-4.67-3.65-4.758-4.358L321.627,811.024z"/>
<path d="M227.712,854.987v-0.2c0-1.062,1.173-4.249,4.647-4.249c3.121,0,4.714,2.768,4.714,4.249v0.044
	c0,1.351-0.199,3.342-3.231,5.157c-1.837,1.105-3.099,1.946-3.917,2.811c-0.332,0.375-0.598,0.774-0.774,1.195v0.795h8.52v1.195
	h-10.113v-0.133c0-1.881,0.486-2.898,1.417-3.896c0.929-0.995,2.457-2.013,4.271-3.187c2.435-1.569,2.479-2.787,2.479-3.65v-0.132
	c0-1.13-1.151-3.211-3.341-3.211c-2.501,0-3.32,2.391-3.32,3.211H227.712L227.712,854.987z"/>
<path d="M243.978,865.984v-0.066c0-7.081,3.054-11.685,4.78-13.676v-0.332h-7.17v-1.195h9.162v1.239c0,0-5.444,4.56-5.444,14.03
	H243.978L243.978,865.984z"/>
<path d="M257.808,864.769c0-0.729,0.619-1.35,1.35-1.35c0.797,0,1.394,0.619,1.394,1.35c0,0.797-0.597,1.395-1.394,1.395
	C258.427,866.162,257.808,865.564,257.808,864.769z"/>
<path d="M276.108,852.817c0.885,1.395,1.328,3.342,1.328,5.488c0,2.19-0.443,4.139-1.328,5.576
	c-0.863,1.416-2.058,2.279-3.629,2.279c-1.616,0-2.833-0.863-3.696-2.279c-0.885-1.438-1.328-3.386-1.328-5.576
	c0-2.146,0.443-4.095,1.328-5.488c0.863-1.395,2.08-2.279,3.696-2.279C274.051,850.538,275.245,851.424,276.108,852.817z
	 M269.757,853.703c-0.62,1.15-0.951,2.788-0.951,4.604c0,1.858,0.332,3.497,0.951,4.669c0.642,1.218,1.549,1.947,2.7,1.947
	s2.036-0.729,2.678-1.947c0.62-1.172,0.951-2.811,0.951-4.669c0-1.814-0.331-3.453-0.951-4.604
	c-0.642-1.195-1.527-1.927-2.678-1.927S270.399,852.508,269.757,853.703z"/>
<path d="M289.961,854.367c-0.553-1.527-1.571-2.591-3.452-2.591c-2.501,0-4.006,2.854-4.006,6.794h0.088
	c0.775-1.548,2.147-2.788,3.763-2.788c2.833,0,4.979,2.368,4.979,5.268c0,2.833-2.147,5.112-4.869,5.112
	c-2.191,0-3.806-1.307-4.669-3.52c-0.443-1.194-0.642-2.61-0.642-4.271c0-4.295,2.014-7.835,5.312-7.835
	c2.523,0,3.917,1.35,4.692,3.408L289.961,854.367z M282.924,860.983c0,2.189,1.571,3.938,3.519,3.938
	c1.969,0,3.541-1.749,3.541-3.938c0-2.19-1.572-3.962-3.541-3.962C284.496,857.021,282.924,858.793,282.924,860.983z"/>
<path d="M298.525,864.769c0-0.729,0.62-1.35,1.35-1.35c0.797,0,1.395,0.619,1.395,1.35c0,0.797-0.597,1.395-1.395,1.395
	C299.145,866.162,298.525,865.564,298.525,864.769z"/>
<path d="M315.077,850.715v15.271h-1.305v-12.901h-0.155c-1.151,0.841-2.412,0.973-3.785,0.973v-1.216
	c1.793,0,3.939-0.442,3.939-2.125L315.077,850.715L315.077,850.715z"/>
<path d="M322.512,861.604c0,0,0.266,3.319,3.43,3.319c3.209,0,3.475-3.319,3.475-4.313c0-1.24-0.531-3.809-2.988-3.809
	c-1.792,0-3.01,1.903-3.054,2.17l-1.571-0.178l0.774-8.078h7.546v1.195h-6.329c-0.177,1.659-0.399,3.452-0.554,5.156h0.067
	c0.641-0.73,1.77-1.615,3.187-1.615c3.541,0,4.293,3.386,4.293,5.09c0,1.283-0.398,5.621-4.847,5.621
	c-3.917,0-4.67-3.651-4.758-4.358L322.512,861.604z"/>
<line fill="none" stroke="#FFCC00" stroke-width="3" stroke-miterlimit="10" x1="227.741" y1="834.011" x2="332.741" y2="834.011"/>
<line fill="none" stroke="#FFCC00" stroke-width="3" stroke-miterlimit="10" x1="224.741" y1="1106.011" x2="800.741" y2="1106.011"/>
<line fill="none" stroke="#FFCC00" stroke-width="3" stroke-miterlimit="10" x1="224.741" y1="1360.011" x2="800.741" y2="1360.011"/>
<polygon fill="#FFCC02" points="0,0 0,547.663 7.283,553.712 13.01,552.662 19.904,556.327 26.017,552.662 33.324,545.667 
	39.805,544.429 47.013,530.532 52.03,529.556 60.041,515.836 65.617,512.441 72.361,504.344 77.664,488.621 85.381,485.766 
	90.752,486.105 98.08,475.401 103.84,475.259 111.399,470.77 116.66,471.645 123.838,484.288 129.48,487.507 137.219,488.864 
	143.3,491.472 149.796,493.951 155.556,497.641 163.179,498.742 168.486,500.94 176.109,496.175 181.415,496.175 189.029,506.227 
	195.013,513.56 201.764,520.891 207.071,527.378 214.937,527.433 221.119,529.267 227.723,537.909 233.577,541.053 240.849,543.986 
	245.909,548.75 254.106,554.981 259.813,557.916 266.506,564.881 270.48,568.547 277.172,568.547 285.068,566.713 292.019,566.713 
	298.184,569.646 305.135,569.646 311.3,570.747 318.127,574.413 324.179,570.747 331.771,557.916 337.057,546.186 344.083,546.186 
	350.314,552.415 357.339,550.584 363.57,548.75 370.564,566.346 376.062,567.812 383.43,565.981 388.557,567.08 395.884,575.146 
	401.644,574.413 407.998,578.077 414.73,594.211 422.224,596.407 427.439,599.117 434.062,594.34 440.15,592.741 447.797,594.211 
	453.12,594.942 459.893,596.407 466.446,612.171 473.504,614.735 479.333,633.067 486.748,640.398 492.577,641.863 499.164,641.498 
	505.229,636.729 512.31,636.729 517.878,640.398 525.69,655.06 531.833,653.229 539.13,655.794 544.208,655.794 551.586,647.729 
	557.383,647.729 564.369,663.312 570.559,668.37 577.778,679.304 583.45,710.911 589.898,721.52 596.344,743.555 603.365,758.222 
	609.592,759.85 616.612,760.838 622.84,760.912 629.042,757.246 635.245,757.246 641.821,757.246 647.653,753.58 655.552,753.108 
	661.055,741.467 668.156,742.565 674.451,746.965 681.104,746.598 687.006,749.898 694.031,768.7 699.983,771.867 706.348,780.681 
	714.538,800.179 720.249,805.915 725.194,808.37 732.432,815.255 738.3,813.799 745.332,827.351 752.064,830.129 758.815,827.351 
	765.249,825.13 772.041,805.715 777.379,775.56 784.854,769.675 790.055,761.367 797.202,706.543 804.349,703.488 810.258,693.104 
	816.168,679.818 823.625,669.665 829.49,671.497 835.705,668.197 842.35,653.168 849.55,653.901 855.21,650.604 862.273,653.168 
	867.827,671.497 875.368,675.162 882.056,691.382 888.406,688.083 894.759,652.575 901.489,659.905 907.459,678.233 914.91,698.485 
	920.099,738.812 927.175,742.477 932.736,738.812 940.729,733.68 946.294,731.481 953.38,750.085 960.062,751.552 966.715,744.219 
	971.883,709.485 978.619,695.188 983.912,720.893 991.405,724.56 998.051,728.226 1005.068,728.226 1010.585,724.56 
	1018.29,706.229 1024.346,673.237 1030.811,669.938 1036.546,665.906 1036.546,0 "/>
</svg>
