<?xml version="1.0" encoding="utf-8"?>
<!-- Generator: Adobe Illustrator 15.0.0, SVG Export Plug-In  -->
<!DOCTYPE svg PUBLIC "-//W3C//DTD SVG 1.1//EN" "http://www.w3.org/Graphics/SVG/1.1/DTD/svg11.dtd" [
	<!ENTITY ns_flows "http://ns.adobe.com/Flows/1.0/">
]>
<svg version="1.1"
	 xmlns="http://www.w3.org/2000/svg" xmlns:xlink="http://www.w3.org/1999/xlink" xmlns:a="http://ns.adobe.com/AdobeSVGViewerExtensions/3.0/"
	 x="0px" y="0px" width="678px" height="1208px" viewBox="180.741 303.511 678 1208"
	 overflow="visible" enable-background="new 180.741 303.511 678 1208" xml:space="preserve">
<defs>
</defs>
<path d="M312.848,747.721c-4.2,8.8-17.8,20-34.399,20c-16.6,0-30.8-6.8-41.8-19c-11-12.399-17.799-29.999-17.799-51.599
	c0-21.4,6.8-39,18-51.399c10.8-12.2,25-19.2,41.6-19.2c26.399,0,53.799,17,53.799,49.399h-19.2c0-19.8-16.6-32.6-34.599-32.6
	c-26,0-39.399,28-39.399,53.8c0,16.6,4.6,29.999,12,39.398c7.2,9.2,16.4,14.4,27.4,14.4c20.799,0,35.399-22,35.599-41.6l-37.399,0.2
	v-16.6h55.599v73.198h-19.399V747.721z"/>
<path d="M449.648,644.723h-73.599v43.199h65.599v16.6h-65.599v44.999h77.599v16.6h-96.999V628.122h92.999V644.723z"/>
<path d="M580.647,644.723h-45.999V766.12h-19.4V644.723h-45.599v-16.601h110.998V644.723z"/>
<path d="M379.649,913.521h75.399v16.6h-94.799V792.123h19.4V913.521z"/>
<path d="M480.049,810.123c10.6-12.2,25.799-19.2,41.599-19.2c15.6,0,30.6,7,40.999,19.2c10.601,12.399,17,29.8,17,51.199
	c0,21.6-6.399,38.999-16.8,51.399c-10.6,12.199-25.6,18.999-41.199,18.999c-15.8,0-31-6.8-41.799-19.199
	c-10.4-12.2-17-29.6-17-51.199C462.85,839.923,469.449,822.522,480.049,810.123z M494.649,900.321c6.6,9.4,16.4,14.6,26.6,14.6
	c10.4,0,20.2-5.199,26.799-14.6c7.2-9,11.4-22.399,11.4-39.199c0-16.6-4.2-30-11.4-39c-6.6-9.399-16.399-14.799-26.799-14.799
	c-10.2,0-20,5.399-26.6,14.799c-7.4,9-11.6,22.4-11.6,39C483.049,877.922,487.249,891.321,494.649,900.321z"/>
<path d="M702.647,829.723h-21c-3.2-15.2-14.8-22.399-32.6-22.399c-12.399,0-29.199,6.399-29.199,21.399
	c0,15.6,18.399,19.6,34.6,21.2c25.8,2.399,55.399,8.199,55.399,39.398c0,29.2-22.4,42.399-51.6,42.399
	c-33.399,0-56.999-17.8-61.399-48.199h20.4c4.399,20.8,19.199,31.399,39.999,31.399c17,0,32.399-4.999,32.399-25.6
	c0-15.999-12-19.799-37.6-22.6c-23.6-2.6-52.399-10-52.399-37.999c0-23.8,25.2-38.199,48.8-38.199
	C676.647,790.523,696.848,802.724,702.647,829.723z"/>
<path d="M832.647,808.724h-46v121.397h-19.399V808.724h-45.6v-16.601h110.999V808.724z"/>
<path d="M356.257,981.972c0.156-2.418,0.858-4.524,2.184-6.475c2.106-3.198,6.396-6.475,14.82-6.475c3.354,0,5.851,0.703,7.8,1.561
	c5.382,2.496,6.396,7.254,6.396,11.232v20.671c0,1.326,0.936,2.106,1.794,2.106s1.248-0.391,1.56-0.78
	c0.234-0.234,0.39-0.468,0.468-0.78l5.227,2.574c-0.468,0.936-1.014,1.794-1.716,2.496c-1.17,1.248-2.886,2.418-5.148,2.418
	c-4.056,0-7.254-2.964-7.488-5.07h-0.624c-4.056,3.979-8.581,5.07-11.935,5.07c-2.496,0-15.289-0.234-15.289-12.324
	c0-7.488,7.176-10.921,13.026-12.169l12.714-2.651v-1.561c0-2.184-0.156-6.475-7.02-6.475c-4.602,0-6.864,1.717-8.034,3.354
	c-0.702,0.937-1.092,2.028-1.248,3.276H356.257z M380.048,989.538l-9.36,1.949c-4.212,0.858-8.658,2.809-8.658,6.787
	c0,5.771,5.46,5.928,7.566,5.928h0.312c4.602,0,10.14-3.51,10.14-7.878V989.538z"/>
<path d="M407.269,1009.896v-40.016h7.411v5.616h0.624c1.95-2.418,6.318-6.475,12.792-6.475c12.871,0,12.949,10.141,12.949,11.623
	v1.95h-7.41c-0.078-1.638-0.702-7.255-6.942-7.255c-5.46,0-12.012,6.709-12.012,18.02v16.536H407.269z"/>
<path d="M463.352,970.349v-14.742h7.41v14.742h18.564v6.007h-18.564v20.202c0,0.937,0.078,7.645,6.942,7.645
	c5.226,0,7.722-3.588,8.658-4.914l6.318,3.51c-3.433,5.383-7.878,7.723-14.977,7.723c-14.275,0-14.353-10.141-14.353-11.623v-22.542
	h-10.531v-6.007H463.352z"/>
<path d="M557.028,1009.896v-40.016h7.411v5.616h0.624c1.949-2.418,6.318-6.475,12.792-6.475c12.87,0,12.948,10.141,12.948,11.623
	v1.95h-7.41c-0.078-1.638-0.701-7.255-6.941-7.255c-5.461,0-12.013,6.709-12.013,18.02v16.536H557.028z"/>
<path d="M623.954,969.022c10.686,0,19.266,8.425,19.266,20.905c0,12.247-8.58,20.593-19.266,20.593
	c-10.843,0-19.424-8.346-19.424-20.593C604.53,977.447,613.111,969.022,623.954,969.022z M623.876,1004.202
	c6.318,0,11.622-5.85,11.622-14.431c0-8.502-5.304-14.431-11.622-14.431s-11.623,5.929-11.623,14.431
	C612.253,998.353,617.558,1004.202,623.876,1004.202z"/>
<path d="M690.722,969.881v40.016h-7.41v-5.694h-0.78c-2.027,2.418-6.162,6.318-12.636,6.318c-12.871,0-12.949-9.984-12.949-11.467
	v-29.173h7.41v26.755c0,0.937,0.078,7.566,6.943,7.566c5.46,0,12.012-6.553,12.012-17.707v-16.614H690.722z"/>
<path d="M712.951,970.349v-14.742h7.41v14.742h18.565v6.007h-18.565v20.202c0,0.937,0.078,7.645,6.942,7.645
	c5.227,0,7.723-3.588,8.658-4.914l6.318,3.51c-3.432,5.383-7.878,7.723-14.977,7.723c-14.274,0-14.353-10.141-14.353-11.623v-22.542
	h-10.53v-6.007H712.951z"/>
<path d="M762.403,991.8c0.702,7.488,5.772,12.402,11.622,12.402c4.759,0,8.814-3.198,10.999-8.502l6.708,2.964
	c-2.964,7.332-9.828,11.856-17.707,11.856c-10.842,0-19.422-8.346-19.422-20.593c0-12.48,8.424-20.905,19.032-20.905
	s19.032,8.425,19.032,20.905v1.872H762.403z M762.715,985.95h21.842c-1.326-6.396-5.772-10.609-10.921-10.609
	C768.409,975.341,763.963,979.554,762.715,985.95z"/>
<path fill="#FFCC00" d="M350.648,1042.644h1.818l2.606,12.818l2.849-11.092h2.182l2.849,11.092l2.606-12.818h1.818l-3.333,15.363
	h-2.121l-2.909-11.516l-2.909,11.516h-2.121L350.648,1042.644z"/>
<path fill="#FFCC00" d="M372.101,1058.007v-20.909h1.788v8.909h0.242c1.182-2.121,3.182-3.666,5.637-3.666
	c4.879,0,4.909,3.879,4.909,4.454v11.212h-1.788v-10.879c0-0.363-0.03-3.091-3.303-3.091c-2.606,0-5.697,2.697-5.697,7.272v6.697
	H372.101z"/>
<path fill="#FFCC00" d="M390.766,1050.31c0-4.727,3.273-7.969,7.243-7.969c4,0,6.879,3.242,6.879,7.969v0.485h-12.213
	c0.091,3.425,2.606,5.758,5.576,5.758c2.212,0,3.818-1.333,4.697-3.454l1.606,0.727c-1.182,2.728-3.667,4.425-6.546,4.425
	C394.039,1058.25,390.766,1055.038,390.766,1050.31z M392.675,1049.22h10.304c-0.364-3.122-2.364-5.183-5-5.183
	C395.251,1044.037,393.039,1046.098,392.675,1049.22z"/>
<path fill="#FFCC00" d="M410.885,1058.007v-15.363h1.788v3.363h0.242c1.182-2.121,3.182-3.666,5.637-3.666
	c4.879,0,4.879,3.879,4.879,4.454v0.454h-1.758v-0.121c0-0.363-0.03-3.091-3.303-3.091c-2.606,0-5.697,2.697-5.697,7.272v6.697
	H410.885z"/>
<path fill="#FFCC00" d="M429.55,1050.31c0-4.727,3.273-7.969,7.243-7.969c4,0,6.879,3.242,6.879,7.969v0.485h-12.213
	c0.091,3.425,2.606,5.758,5.576,5.758c2.212,0,3.818-1.333,4.697-3.454l1.606,0.727c-1.182,2.728-3.667,4.425-6.546,4.425
	C432.823,1058.25,429.55,1055.038,429.55,1050.31z M431.459,1049.22h10.304c-0.364-3.122-2.364-5.183-5-5.183
	C434.035,1044.037,431.823,1046.098,431.459,1049.22z"/>
<path fill="#FFCC00" d="M474.062,1053.492c0,1.546,1,3.061,3.364,3.061c1.333,0,2.879-0.575,3.667-2l1.576,0.788
	c-1.151,2.061-3.364,2.909-5.243,2.909c-3.606,0-5.151-2.394-5.151-4.849v-9.121h-4.333v-1.637h4.333v-5.546h1.788v5.546h7.516
	v1.637h-7.516V1053.492z"/>
<path fill="#FFCC00" d="M488.454,1058.007v-20.909h1.788v8.909h0.242c1.182-2.121,3.182-3.666,5.637-3.666
	c4.879,0,4.909,3.879,4.909,4.454v11.212h-1.788v-10.879c0-0.363-0.03-3.091-3.303-3.091c-2.606,0-5.697,2.697-5.697,7.272v6.697
	H488.454z"/>
<path fill="#FFCC00" d="M507.118,1050.31c0-4.727,3.273-7.969,7.243-7.969c4,0,6.879,3.242,6.879,7.969v0.485h-12.213
	c0.091,3.425,2.606,5.758,5.576,5.758c2.212,0,3.818-1.333,4.697-3.454l1.606,0.727c-1.182,2.728-3.667,4.425-6.546,4.425
	C510.391,1058.25,507.118,1055.038,507.118,1050.31z M509.027,1049.22h10.304c-0.364-3.122-2.364-5.183-5-5.183
	C511.604,1044.037,509.391,1046.098,509.027,1049.22z"/>
<path fill="#FFCC00" d="M547.721,1053.067c0,0.061,0.333,1.213,1.304,2.031c0.848,0.696,2.15,1.363,4.272,1.363
	c2.091,0,3.272-0.576,3.97-1.213c0.697-0.666,0.879-1.394,0.879-1.787c0-2.273-3.092-2.213-5.242-2.455
	c-2.121-0.242-4.516-0.576-5.577-1.939c-0.606-0.787-0.848-1.484-0.848-2.091c0-0.394,0.091-1.546,0.97-2.636
	c0.788-1.031,2.333-2,5.212-2c3.091,0,4.667,1.211,5.546,2.454c0.788,1.182,0.818,2.364,0.818,2.425h-1.818
	c0-0.031-0.03-0.879-0.576-1.637c-0.576-0.788-1.666-1.546-3.879-1.546c-2.182,0-3.242,0.575-3.818,1.243
	c-0.545,0.636-0.605,1.271-0.605,1.545c0.03,1.788,2.212,2.182,5,2.484c3.637,0.395,4.697,0.576,5.728,1.606
	c0.636,0.637,0.939,1.546,0.939,2.576c0,0.606-0.272,1.757-1.212,2.788c-0.939,1.03-2.576,1.97-5.364,1.97
	c-2.879,0-4.667-0.97-5.788-2.062c-1.364-1.333-1.788-3.029-1.788-3.121H547.721z"/>
<path fill="#FFCC00" d="M566.991,1042.644h6.668v13.728h5.696v1.636h-13.183v-1.636h5.697v-12.091h-4.879V1042.644z
	 M572.78,1036.886c0.969,0,1.758,0.787,1.758,1.758c0,0.969-0.789,1.727-1.758,1.727c-0.971,0-1.729-0.758-1.729-1.727
	C571.052,1037.673,571.81,1036.886,572.78,1036.886z"/>
<path fill="#FFCC00" d="M598.415,1058.007h-1.789v-2.697h-0.182c-1.363,1.939-3.151,2.94-5.182,2.94
	c-3.849,0-6.909-3.576-6.909-7.94c0-4.394,3.061-7.969,6.909-7.969c2.03,0,3.818,1.182,5.182,3.121h0.182v-8.364h1.789V1058.007z
	 M596.626,1050.28c0-3.697-1.908-6.243-5.242-6.243c-2.909,0-5.182,2.758-5.182,6.272c0,3.485,2.272,6.243,5.182,6.243
	c3.242,0,5.152-2.454,5.242-6V1050.28z"/>
<path fill="#FFCC00" d="M604.079,1050.31c0-4.727,3.272-7.969,7.242-7.969c4,0,6.879,3.242,6.879,7.969v0.485h-12.213
	c0.092,3.425,2.607,5.758,5.576,5.758c2.213,0,3.818-1.333,4.697-3.454l1.606,0.727c-1.182,2.728-3.667,4.425-6.546,4.425
	C607.352,1058.25,604.079,1055.038,604.079,1050.31z M605.987,1049.22h10.305c-0.364-3.122-2.364-5.183-5.001-5.183
	C608.563,1044.037,606.352,1046.098,605.987,1049.22z"/>
<path fill="#FFCC00" d="M622.138,1042.644h1.818l2.605,12.818l2.85-11.092h2.182l2.848,11.092l2.606-12.818h1.818l-3.333,15.363
	h-2.121l-2.91-11.516l-2.908,11.516h-2.121L622.138,1042.644z"/>
<path fill="#FFCC00" d="M643.196,1046.977c0,0,0.091-4.636,6.273-4.636c4.939,0,5.242,3,5.242,4.575v8.001
	c0,0.515,0.151,1.757,1.637,1.787c1.061,0,1.484-0.818,1.515-0.879l1.516,0.758c-0.03,0.061-0.97,1.667-3.062,1.667
	c-2.061,0-2.818-1.212-3.029-2.272h-0.273c-1.787,1.969-4.182,2.272-4.939,2.272c-1,0-5.605-0.091-5.637-4.788
	c0-2.879,2.971-4.182,5.334-4.667l5.182-1.091v-0.788c0-0.939-0.212-2.879-3.545-2.879c-4.364,0-4.425,2.939-4.425,2.939H643.196z
	 M652.954,1049.341l-4.545,0.969c-2.243,0.485-4.183,1.213-4.183,3.122c0.03,2.909,3.151,3.121,3.818,3.121
	c2.243,0,4.909-1.697,4.909-3.818V1049.341z"/>
<path fill="#FFCC00" d="M663.952,1037.098h6.667v19.273h5.697v1.636h-13.183v-1.636h5.697v-17.638h-4.879V1037.098z"/>
<path fill="#FFCC00" d="M682.708,1058.007v-20.909h1.788v11.516h0.272l7.212-5.97h2.606l-6.212,5.242v0.303l7.637,9.818h-2.334
	l-6.637-8.516h-0.424l-2.121,1.789v6.727H682.708z"/>
<path fill="#FFCC00" d="M720.431,1050.31c0-4.727,3.272-7.969,7.242-7.969c4,0,6.879,3.242,6.879,7.969v0.485H722.34
	c0.091,3.425,2.605,5.758,5.575,5.758c2.213,0,3.818-1.333,4.697-3.454l1.606,0.727c-1.182,2.728-3.667,4.425-6.546,4.425
	C723.703,1058.25,720.431,1055.038,720.431,1050.31z M722.34,1049.22h10.303c-0.363-3.122-2.363-5.183-5-5.183
	C724.915,1044.037,722.703,1046.098,722.34,1049.22z"/>
<path fill="#FFCC00" d="M740.549,1058.007v-15.363h1.788v3.363h0.243c1.182-2.121,3.182-3.666,5.636-3.666
	c4.879,0,4.909,3.879,4.909,4.454v11.212h-1.787v-10.879c0-0.363-0.03-3.091-3.304-3.091c-2.605,0-5.697,2.697-5.697,7.272v6.697
	H740.549z"/>
<path fill="#FFCC00" d="M772.941,1058.007h-1.788v-2.697h-0.182c-1.364,1.939-3.151,2.94-5.182,2.94c-3.849,0-6.91-3.576-6.91-7.94
	c0-4.394,3.062-7.969,6.91-7.969c2.03,0,3.817,1.182,5.182,3.121h0.182v-8.364h1.788V1058.007z M771.153,1050.28
	c0-3.697-1.909-6.243-5.242-6.243c-2.909,0-5.183,2.758-5.183,6.272c0,3.485,2.273,6.243,5.183,6.243c3.242,0,5.151-2.454,5.242-6
	V1050.28z"/>
<path fill="#FFCC00" d="M780.424,1053.067c0,0.061,0.333,1.213,1.303,2.031c0.849,0.696,2.151,1.363,4.272,1.363
	c2.092,0,3.273-0.576,3.97-1.213c0.697-0.666,0.879-1.394,0.879-1.787c0-2.273-3.091-2.213-5.242-2.455
	c-2.121-0.242-4.516-0.576-5.576-1.939c-0.605-0.787-0.849-1.484-0.849-2.091c0-0.394,0.091-1.546,0.97-2.636
	c0.788-1.031,2.334-2,5.213-2c3.091,0,4.667,1.211,5.545,2.454c0.788,1.182,0.818,2.364,0.818,2.425h-1.818
	c0-0.031-0.03-0.879-0.575-1.637c-0.576-0.788-1.667-1.546-3.879-1.546c-2.182,0-3.243,0.575-3.818,1.243
	c-0.546,0.636-0.606,1.271-0.606,1.545c0.03,1.788,2.213,2.182,5,2.484c3.637,0.395,4.697,0.576,5.728,1.606
	c0.637,0.637,0.939,1.546,0.939,2.576c0,0.606-0.272,1.757-1.212,2.788c-0.939,1.03-2.576,1.97-5.363,1.97
	c-2.879,0-4.667-0.97-5.788-2.062c-1.364-1.333-1.788-3.029-1.788-3.121H780.424z"/>
<path fill="#FFCC00" d="M232.367,1171.405v-20.815h13.486v1.72h-11.645v7.692h10.739v1.721h-10.739v9.683H232.367z"/>
<path fill="#FFCC00" d="M264.766,1152.31h-11.645v7.692h10.739v1.721h-10.739v7.964h12.55v1.719H251.28v-20.815h13.486V1152.31z"/>
<path fill="#FFCC00" d="M281.658,1151.677c1.327,0.904,2.353,2.263,3.107,4.434h-2.022c-0.573-1.417-1.297-2.414-2.322-3.077
	c-1.026-0.633-2.323-0.905-4.013-0.905c-1.267,0-2.655,0.363-3.681,1.026c-1.116,0.694-1.84,1.66-1.84,2.956
	c0,0.846,0.332,1.509,0.905,2.081c0.815,0.814,1.629,1.178,5.4,1.51c3.771,0.331,5.521,0.844,7.09,2.473
	c0.784,0.814,1.206,1.872,1.206,3.138c0,2.052-0.754,3.651-2.172,4.737c-1.387,1.057-3.439,1.599-5.822,1.599
	c-2.292,0-4.284-0.633-5.883-1.842c-1.508-1.145-2.806-3.136-3.258-5.127h1.961c0.513,1.629,1.388,3.107,2.625,3.982
	c1.207,0.876,2.715,1.205,4.465,1.205c1.9,0,3.409-0.271,4.495-1.055c1.116-0.813,1.689-2.083,1.689-3.591
	c0-0.724-0.332-1.417-0.875-1.959c-1.479-1.479-3.319-1.418-5.973-1.751c-3.41-0.423-4.737-0.572-6.275-2.051
	c-0.875-0.845-1.478-2.022-1.478-3.531c0-1.808,0.935-3.166,2.383-4.131c1.448-0.966,3.318-1.449,5.008-1.449
	C278.611,1150.349,280.331,1150.741,281.658,1151.677z"/>
<path fill="#FFCC00" d="M304.463,1152.31h-7.21v19.096h-1.84v-19.096h-7.15v-1.72h16.2V1152.31z"/>
<path fill="#FFCC00" d="M309.379,1150.59h12.58v1.72h-5.37v17.377h5.37v1.719h-12.58v-1.719h5.37v-17.377h-5.37V1150.59z"/>
<path fill="#FFCC00" d="M343.075,1150.59l-6.637,20.815h-2.986l-6.637-20.815h1.991l6.094,19.459h0.091l6.093-19.459H343.075z"/>
<path fill="#FFCC00" d="M361.295,1152.31H349.65v7.692h10.74v1.721h-10.74v7.964h12.55v1.719h-14.39v-20.815h13.486V1152.31z"/>
<path fill="#FFCC00" d="M386.693,1153.246c1.599-1.842,3.831-2.897,6.245-2.897c2.353,0,4.555,1.056,6.124,2.897
	c1.629,1.868,2.564,4.524,2.564,7.753c0,3.257-0.935,5.911-2.534,7.783c-1.599,1.839-3.802,2.865-6.154,2.865
	c-2.414,0-4.646-1.026-6.275-2.896c-1.599-1.842-2.564-4.496-2.564-7.753C384.098,1157.771,385.063,1155.114,386.693,1153.246z
	 M388.05,1167.483c1.237,1.538,2.957,2.383,4.827,2.383s3.589-0.845,4.827-2.383c1.237-1.539,2.022-3.741,2.022-6.484
	c0-2.717-0.785-4.919-2.022-6.457c-1.237-1.539-2.957-2.414-4.827-2.414s-3.59,0.875-4.827,2.414
	c-1.267,1.538-2.051,3.74-2.051,6.457C386,1163.742,386.784,1165.944,388.05,1167.483z"/>
<path fill="#FFCC00" d="M407.295,1162.778v8.627h-1.84v-20.815h9.443c3.077,0,5.551,2.656,5.551,6.034s-2.474,6.154-5.551,6.154
	H407.295z M407.295,1161.06h7.361c2.112,0,3.892-1.963,3.892-4.377c0-2.412-1.78-4.373-3.892-4.373h-7.361V1161.06z"/>
<path fill="#FFCC00" d="M438.519,1152.31h-11.645v7.692h10.739v1.721h-10.739v7.964h12.55v1.719h-14.391v-20.815h13.486V1152.31z"/>
<path fill="#FFCC00" d="M458.849,1150.59v20.815h-3.318l-10.83-19.519h-0.121v19.519h-1.84v-20.815h3.318l10.8,19.52h0.15v-19.52
	H458.849z"/>
<path fill="#FFCC00" d="M463.826,1150.59h12.579v1.72h-5.37v17.377h5.37v1.719h-12.579v-1.719h5.37v-17.377h-5.37V1150.59z"/>
<path fill="#FFCC00" d="M497.461,1150.59v20.815h-3.318l-10.83-19.519h-0.121v19.519h-1.84v-20.815h3.319l10.8,19.52h0.15v-19.52
	H497.461z"/>
<path fill="#FFCC00" d="M514.896,1167.756c-0.693,1.207-1.599,2.141-2.654,2.805c-1.086,0.725-2.323,1.087-3.771,1.087
	c-2.443,0-4.646-1.026-6.244-2.865c-1.599-1.872-2.564-4.526-2.564-7.783c0-3.229,0.965-5.885,2.594-7.753
	c1.569-1.842,3.771-2.897,6.215-2.897c1.841,0,3.56,0.635,5.008,1.779c1.418,1.118,2.776,2.986,3.198,4.979h-1.871
	c-0.543-1.539-1.448-2.867-2.563-3.742c-1.117-0.874-2.414-1.237-3.771-1.237c-1.9,0-3.62,0.875-4.857,2.384
	c-1.267,1.568-2.051,3.74-2.051,6.457c0,2.773,0.784,4.976,2.051,6.545c1.237,1.508,2.957,2.353,4.857,2.353
	c1.599,0,3.229-0.693,4.435-1.989c1.177-1.237,1.991-3.077,2.112-5.4h-6.335v-1.72h8.054v10.648h-1.84V1167.756z"/>
<path fill="#FFCC00" d="M526.148,1158.615c0-0.996,0.844-1.842,1.84-1.842c1.086,0,1.9,0.846,1.9,1.842
	c0,1.086-0.814,1.898-1.9,1.898C526.992,1160.514,526.148,1159.701,526.148,1158.615z M526.148,1169.747
	c0-0.995,0.844-1.84,1.84-1.84c1.086,0,1.9,0.845,1.9,1.84c0,1.086-0.814,1.9-1.9,1.9
	C526.992,1171.647,526.148,1170.833,526.148,1169.747z"/>
<path d="M244.042,1186.787v20.815h-1.779v-17.587h-0.211c-1.569,1.146-3.289,1.326-5.159,1.326v-1.658
	c2.444,0,5.371-0.604,5.371-2.896H244.042z"/>
<path d="M252.849,1192.611v-0.272c0-1.448,1.599-5.792,6.335-5.792c4.254,0,6.426,3.771,6.426,5.792v0.061
	c0,1.84-0.272,4.555-4.404,7.029c-2.504,1.508-4.225,2.654-5.34,3.831c-0.452,0.512-0.815,1.056-1.056,1.63v1.084h11.615v1.629
	h-13.787v-0.18c0-2.563,0.664-3.952,1.931-5.311c1.267-1.357,3.349-2.744,5.822-4.344c3.319-2.141,3.378-3.801,3.378-4.978v-0.18
	c0-1.538-1.569-4.377-4.555-4.377c-3.409,0-4.525,3.26-4.525,4.377H252.849z"/>
<path d="M277.585,1205.944c0-0.994,0.844-1.84,1.84-1.84c1.086,0,1.9,0.846,1.9,1.84c0,1.086-0.814,1.901-1.9,1.901
	C278.43,1207.846,277.585,1207.03,277.585,1205.944z"/>
<path d="M303.739,1189.654c1.207,1.9,1.811,4.555,1.811,7.481c0,2.986-0.604,5.641-1.811,7.603
	c-1.177,1.931-2.805,3.107-4.947,3.107c-2.203,0-3.861-1.177-5.038-3.107c-1.207-1.962-1.811-4.616-1.811-7.603
	c0-2.927,0.604-5.581,1.811-7.481c1.177-1.901,2.835-3.107,5.038-3.107C300.934,1186.547,302.562,1187.753,303.739,1189.654z
	 M295.081,1190.86c-0.845,1.569-1.297,3.802-1.297,6.275c0,2.534,0.452,4.768,1.297,6.365c0.875,1.659,2.112,2.654,3.681,2.654
	s2.776-0.995,3.65-2.654c0.845-1.598,1.297-3.831,1.297-6.365c0-2.474-0.452-4.706-1.297-6.275c-0.875-1.629-2.082-2.626-3.65-2.626
	S295.956,1189.231,295.081,1190.86z"/>
<path d="M323.226,1191.767c-0.754-2.083-2.142-3.532-4.706-3.532c-3.41,0-5.461,3.893-5.461,9.262h0.121
	c1.056-2.11,2.926-3.801,5.129-3.801c3.861,0,6.788,3.229,6.788,7.181c0,3.862-2.927,6.97-6.637,6.97
	c-2.987,0-5.189-1.781-6.366-4.798c-0.604-1.63-0.875-3.559-0.875-5.821c0-5.854,2.745-10.68,7.241-10.68
	c3.439,0,5.339,1.84,6.396,4.646L323.226,1191.767z M313.632,1200.785c0,2.986,2.142,5.37,4.797,5.37
	c2.685,0,4.827-2.384,4.827-5.37s-2.142-5.399-4.827-5.399C315.774,1195.386,313.632,1197.799,313.632,1200.785z"/>
<path d="M335.503,1205.944c0-0.994,0.844-1.84,1.84-1.84c1.086,0,1.9,0.846,1.9,1.84c0,1.086-0.814,1.901-1.9,1.901
	C336.347,1207.846,335.503,1207.03,335.503,1205.944z"/>
<path d="M359.876,1186.787v20.815h-1.779v-17.587h-0.211c-1.569,1.146-3.289,1.326-5.16,1.326v-1.658
	c2.444,0,5.371-0.604,5.371-2.896H359.876z"/>
<path d="M371.822,1201.631c0,0,0.362,4.524,4.675,4.524c4.375,0,4.737-4.524,4.737-5.882c0-1.689-0.724-5.189-4.073-5.189
	c-2.443,0-4.103,2.594-4.164,2.958l-2.141-0.243l1.055-11.012h10.288v1.63h-8.628c-0.241,2.262-0.543,4.706-0.754,7.029h0.091
	c0.875-0.997,2.413-2.202,4.344-2.202c4.827,0,5.853,4.615,5.853,6.938c0,1.749-0.543,7.663-6.607,7.663
	c-5.339,0-6.365-4.978-6.486-5.942L371.822,1201.631z"/>
<path d="M421.716,1189.413c-0.844-1.148-2.443-1.66-3.801-1.66c-2.323,0-3.318,1.509-3.318,3.047v1.509h5.701v1.629h-5.701v13.665
	h-1.78v-13.665h-4.435v-1.629h4.435v-1.418c0-2.443,1.539-4.827,5.099-4.827c1.84,0,4.042,0.724,5.25,2.384L421.716,1189.413z"/>
<path d="M427.626,1207.603v-15.294h1.78v3.35h0.242c1.176-2.112,3.168-3.651,5.611-3.651c4.857,0,4.857,3.861,4.857,4.436v0.451
	h-1.75v-0.121c0-0.36-0.03-3.077-3.288-3.077c-2.595,0-5.672,2.687-5.672,7.241v6.666H427.626z"/>
<path d="M453.238,1192.007c3.892,0,7.149,3.228,7.149,7.934c0,4.707-3.258,7.905-7.149,7.905c-3.953,0-7.21-3.198-7.21-7.905
	C446.028,1195.234,449.286,1192.007,453.238,1192.007z M453.208,1206.155c2.926,0,5.339-2.505,5.339-6.215s-2.413-6.245-5.339-6.245
	c-2.927,0-5.34,2.535-5.34,6.245S450.281,1206.155,453.208,1206.155z"/>
<path d="M466.028,1207.603h-1.78v-15.294h1.78v2.201h0.392c0.965-1.629,1.81-2.503,3.228-2.503c2.111,0,3.046,1.298,3.469,2.503
	h0.453c0.965-1.599,2.021-2.503,3.439-2.503c3.771,0,3.801,3.47,3.801,4.072v11.523h-1.78v-11.281c0-0.394-0.03-2.626-2.142-2.626
	c-1.689,0-3.469,2.505-3.469,5.101v8.807h-1.779v-11.281c0-0.394-0.03-2.626-2.113-2.626c-1.689,0-3.499,2.505-3.499,5.101V1207.603
	z"/>
<path d="M503.101,1200.545l9.985-13.758h2.262v13.365h3.771v1.63h-3.771v5.82h-1.78v-5.82h-10.467V1200.545z M505.272,1200.152
	h8.296v-11.133h-0.06C510.311,1193.485,508.44,1195.777,505.272,1200.152z"/>
<path d="M537.7,1199.52h11.977v1.628H537.7V1199.52z"/>
<path d="M572.632,1196.562v-0.211c-1.66-0.996-3.018-2.596-3.018-4.436c0-2.986,2.746-5.369,6.035-5.369
	c3.348,0,6.094,2.383,6.094,5.369c0,1.81-1.418,3.439-3.047,4.405v0.241c1.961,1.085,3.619,3.018,3.619,5.189
	c0,3.378-2.986,6.094-6.666,6.094c-3.621,0-6.607-2.716-6.607-6.094C569.042,1199.58,570.642,1197.647,572.632,1196.562z
	 M575.679,1206.155c2.654,0,4.797-1.959,4.797-4.434c0-2.384-2.051-4.436-4.586-4.436h-0.422c-2.564,0.121-4.586,2.052-4.586,4.436
	C570.882,1204.196,573.024,1206.155,575.679,1206.155z M575.679,1195.628c2.324,0,4.225-1.63,4.225-3.682
	c0-2.082-1.9-3.742-4.225-3.742c-2.322,0-4.223,1.66-4.223,3.742C571.456,1193.998,573.356,1195.628,575.679,1195.628z"/>
<path d="M609.403,1198.976v8.627h-1.84v-20.815h9.443c3.076,0,5.549,2.656,5.549,6.035c0,3.378-2.473,6.153-5.549,6.153H609.403z
	 M609.403,1197.257h7.361c2.111,0,3.891-1.962,3.891-4.376c0-2.412-1.779-4.373-3.891-4.373h-7.361V1197.257z"/>
<path d="M641.019,1207.603v-18.943l-4.676,16.44h-3.078l-4.676-16.44v18.943h-1.84v-20.815h3.168l4.795,16.714h0.182l4.797-16.714
	h3.168v20.815H641.019z"/>
<path d="M235.957,1271.371v8.627h-1.84v-20.815h9.442c3.077,0,5.551,2.656,5.551,6.035c0,3.378-2.474,6.153-5.551,6.153H235.957z
	 M235.957,1269.652h7.361c2.112,0,3.892-1.962,3.892-4.376c0-2.412-1.78-4.373-3.892-4.373h-7.361V1269.652z"/>
<path d="M253.875,1279.998v-15.294h1.78v3.35h0.242c1.177-2.112,3.168-3.651,5.611-3.651c4.857,0,4.857,3.861,4.857,4.436v0.451
	h-1.75v-0.121c0-0.36-0.03-3.077-3.289-3.077c-2.595,0-5.672,2.687-5.672,7.241v6.666H253.875z"/>
<path d="M274.146,1264.704h6.636v13.665h5.672v1.629h-13.123v-1.629h5.671v-12.036h-4.856V1264.704z M279.908,1258.973
	c0.965,0,1.75,0.784,1.75,1.749c0,0.966-0.785,1.72-1.75,1.72s-1.719-0.754-1.719-1.72
	C278.189,1259.757,278.943,1258.973,279.908,1258.973z"/>
<path d="M292.486,1279.998v-15.294h1.78v3.35h0.241c1.177-2.112,3.168-3.651,5.611-3.651c4.857,0,4.888,3.861,4.888,4.436v11.16
	h-1.78v-10.83c0-0.36-0.03-3.077-3.288-3.077c-2.595,0-5.672,2.687-5.672,7.241v6.666H292.486z"/>
<path d="M312.878,1275.081c0,0.061,0.332,1.207,1.297,2.022c0.845,0.693,2.142,1.356,4.254,1.356c2.081,0,3.258-0.572,3.952-1.205
	c0.693-0.663,0.875-1.389,0.875-1.781c0-2.263-3.077-2.202-5.219-2.444c-2.111-0.24-4.495-0.572-5.551-1.929
	c-0.603-0.784-0.845-1.479-0.845-2.082c0-0.393,0.091-1.539,0.965-2.625c0.785-1.026,2.323-1.991,5.189-1.991
	c3.077,0,4.646,1.207,5.521,2.442c0.785,1.179,0.815,2.354,0.815,2.414h-1.811c0-0.03-0.03-0.875-0.573-1.629
	c-0.573-0.785-1.659-1.539-3.861-1.539c-2.172,0-3.228,0.574-3.801,1.239c-0.544,0.633-0.604,1.266-0.604,1.538
	c0.03,1.777,2.202,2.172,4.978,2.473c3.62,0.393,4.676,0.574,5.701,1.6c0.634,0.633,0.936,1.538,0.936,2.563
	c0,0.603-0.272,1.751-1.207,2.775c-0.935,1.025-2.564,1.962-5.339,1.962c-2.867,0-4.646-0.967-5.763-2.053
	c-1.358-1.328-1.779-3.016-1.779-3.107H312.878z"/>
<path d="M330.374,1272.336c0-4.706,3.258-7.934,7.21-7.934c3.982,0,6.848,3.228,6.848,7.934v0.483h-12.158
	c0.091,3.408,2.595,5.731,5.552,5.731c2.202,0,3.801-1.326,4.675-3.439l1.599,0.726c-1.177,2.714-3.65,4.404-6.516,4.404
	C333.632,1280.241,330.374,1277.043,330.374,1272.336z M332.274,1271.25h10.257c-0.362-3.107-2.353-5.159-4.978-5.159
	C334.839,1266.091,332.637,1268.143,332.274,1271.25z"/>
<path d="M351.49,1275.081c0,0.061,0.332,1.207,1.297,2.022c0.845,0.693,2.142,1.356,4.253,1.356c2.082,0,3.258-0.572,3.953-1.205
	c0.693-0.663,0.875-1.389,0.875-1.781c0-2.263-3.077-2.202-5.219-2.444c-2.112-0.24-4.495-0.572-5.551-1.929
	c-0.604-0.784-0.845-1.479-0.845-2.082c0-0.393,0.091-1.539,0.966-2.625c0.784-1.026,2.323-1.991,5.188-1.991
	c3.077,0,4.646,1.207,5.521,2.442c0.784,1.179,0.814,2.354,0.814,2.414h-1.81c0-0.03-0.03-0.875-0.573-1.629
	c-0.573-0.785-1.659-1.539-3.862-1.539c-2.172,0-3.228,0.574-3.801,1.239c-0.543,0.633-0.604,1.266-0.604,1.538
	c0.03,1.777,2.202,2.172,4.978,2.473c3.62,0.393,4.676,0.574,5.702,1.6c0.634,0.633,0.936,1.538,0.936,2.563
	c0,0.603-0.271,1.751-1.207,2.775c-0.935,1.025-2.565,1.962-5.34,1.962c-2.866,0-4.646-0.967-5.763-2.053
	c-1.357-1.328-1.779-3.016-1.779-3.107H351.49z"/>
<path d="M389.015,1259.183h12.58v1.721h-5.37v17.376h5.37v1.719h-12.58v-1.719h5.371v-17.376h-5.371V1259.183z"/>
<path d="M408.321,1279.998v-15.294h1.78v3.35h0.241c1.177-2.112,3.168-3.651,5.611-3.651c4.857,0,4.857,3.861,4.857,4.436v0.451
	h-1.75v-0.121c0-0.36-0.03-3.077-3.288-3.077c-2.595,0-5.672,2.687-5.672,7.241v6.666H408.321z"/>
<path d="M426.903,1272.336c0-4.706,3.258-7.934,7.21-7.934c3.982,0,6.848,3.228,6.848,7.934v0.483h-12.158
	c0.091,3.408,2.595,5.731,5.552,5.731c2.202,0,3.801-1.326,4.675-3.439l1.599,0.726c-1.177,2.714-3.65,4.404-6.516,4.404
	C430.161,1280.241,426.903,1277.043,426.903,1272.336z M428.803,1271.25h10.257c-0.362-3.107-2.354-5.159-4.978-5.159
	C431.368,1266.091,429.166,1268.143,428.803,1271.25z"/>
<path d="M446.933,1279.998v-15.294h1.78v3.35h0.242c1.177-2.112,3.168-3.651,5.611-3.651c4.857,0,4.887,3.861,4.887,4.436v11.16
	h-1.78v-10.83c0-0.36-0.03-3.077-3.289-3.077c-2.595,0-5.672,2.687-5.672,7.241v6.666H446.933z"/>
<path d="M465.515,1272.336c0-4.706,3.258-7.934,7.21-7.934c3.981,0,6.848,3.228,6.848,7.934v0.483h-12.158
	c0.091,3.408,2.595,5.731,5.551,5.731c2.202,0,3.801-1.326,4.675-3.439l1.599,0.726c-1.176,2.714-3.65,4.404-6.516,4.404
	C468.772,1280.241,465.515,1277.043,465.515,1272.336z M467.415,1271.25h10.257c-0.362-3.107-2.353-5.159-4.978-5.159
	C469.979,1266.091,467.778,1268.143,467.415,1271.25z"/>
<path d="M486.51,1259.183h6.636v19.187h5.672v1.629h-13.123v-1.629h5.671v-17.557h-4.856V1259.183z"/>
<path d="M504.458,1269.019c0,0,0.09-4.616,6.244-4.616c4.918,0,5.219,2.986,5.219,4.556v7.963c0,0.514,0.15,1.751,1.629,1.781
	c1.055,0,1.478-0.814,1.508-0.875l1.508,0.754c-0.03,0.061-0.965,1.66-3.047,1.66c-2.051,0-2.806-1.207-3.018-2.263h-0.271
	c-1.78,1.959-4.164,2.263-4.917,2.263c-0.995,0-5.581-0.092-5.611-4.768c0-2.865,2.957-4.163,5.31-4.646l5.158-1.086v-0.784
	c0-0.935-0.211-2.867-3.53-2.867c-4.344,0-4.404,2.928-4.404,2.928H504.458z M514.172,1271.371l-4.524,0.965
	c-2.233,0.483-4.164,1.207-4.164,3.107c0.03,2.897,3.137,3.107,3.801,3.107c2.232,0,4.887-1.69,4.887-3.801V1271.371z"/>
<path d="M523.764,1269.019c0,0,0.09-4.616,6.244-4.616c4.918,0,5.219,2.986,5.219,4.556v7.963c0,0.514,0.151,1.751,1.629,1.781
	c1.056,0,1.478-0.814,1.508-0.875l1.508,0.754c-0.03,0.061-0.966,1.66-3.047,1.66c-2.051,0-2.806-1.207-3.017-2.263h-0.271
	c-1.78,1.959-4.164,2.263-4.918,2.263c-0.995,0-5.581-0.092-5.611-4.768c0-2.865,2.957-4.163,5.31-4.646l5.159-1.086v-0.784
	c0-0.935-0.211-2.867-3.53-2.867c-4.344,0-4.404,2.928-4.404,2.928H523.764z M533.478,1271.371l-4.525,0.965
	c-2.233,0.483-4.164,1.207-4.164,3.107c0.03,2.897,3.138,3.107,3.802,3.107c2.232,0,4.887-1.69,4.887-3.801V1271.371z"/>
<path d="M543.461,1279.998v-15.294h1.78v3.35h0.241c1.177-2.112,3.168-3.651,5.612-3.651c4.857,0,4.887,3.861,4.887,4.436v11.16
	h-1.779v-10.83c0-0.36-0.031-3.077-3.289-3.077c-2.594,0-5.671,2.687-5.671,7.241v6.666H543.461z"/>
<path d="M588.409,1273.424h-0.061l-4.525,6.574h-2.172l5.521-7.783v-0.36l-5.189-7.15h2.172l4.193,5.941h0.061l4.193-5.941h2.172
	l-5.189,7.15v0.36l5.521,7.783h-2.172L588.409,1273.424z"/>
<path d="M247.059,1316.196v-18.944l-4.676,16.441h-3.077l-4.676-16.441v18.944h-1.84v-20.815h3.167l4.796,16.713h0.182l4.797-16.713
	h3.167v20.815H247.059z"/>
<path d="M254.84,1300.901h6.637v13.665h5.672v1.63h-13.123v-1.63h5.671v-12.035h-4.856V1300.901z M260.603,1295.17
	c0.965,0,1.75,0.784,1.75,1.749c0,0.966-0.784,1.721-1.75,1.721s-1.72-0.755-1.72-1.721
	C258.883,1295.954,259.637,1295.17,260.603,1295.17z"/>
<path d="M273.18,1316.196v-15.295h1.78v3.35h0.242c1.177-2.112,3.168-3.65,5.611-3.65c4.857,0,4.888,3.861,4.888,4.436v11.16h-1.78
	v-10.83c0-0.36-0.03-3.077-3.288-3.077c-2.595,0-5.672,2.687-5.672,7.241v6.666H273.18z"/>
<path d="M291.762,1308.534c0-4.707,3.258-7.934,7.21-7.934c3.982,0,6.848,3.227,6.848,7.934v0.482h-12.158
	c0.091,3.409,2.595,5.731,5.551,5.731c2.202,0,3.801-1.326,4.676-3.438l1.599,0.726c-1.177,2.713-3.65,4.403-6.516,4.403
	C295.02,1316.438,291.762,1313.24,291.762,1308.534z M293.663,1307.448h10.257c-0.362-3.107-2.354-5.159-4.978-5.159
	C296.227,1302.289,294.025,1304.341,293.663,1307.448z"/>
<path d="M311.792,1316.196v-15.295h1.78v3.35h0.242c1.177-2.112,3.168-3.65,5.611-3.65c4.857,0,4.857,3.861,4.857,4.436v0.451h-1.75
	v-0.121c0-0.36-0.03-3.077-3.289-3.077c-2.595,0-5.672,2.687-5.672,7.241v6.666H311.792z"/>
<path d="M344.281,1300.901l-5.49,15.295h-2.836l-5.49-15.295h2.021l4.857,13.908h0.061l4.857-13.908H344.281z"/>
<path d="M350.012,1305.216c0,0,0.09-4.615,6.244-4.615c4.917,0,5.219,2.986,5.219,4.555v7.964c0,0.514,0.151,1.751,1.63,1.781
	c1.055,0,1.478-0.815,1.508-0.876l1.508,0.755c-0.03,0.061-0.965,1.659-3.047,1.659c-2.051,0-2.806-1.207-3.017-2.263h-0.271
	c-1.78,1.96-4.164,2.263-4.918,2.263c-0.995,0-5.581-0.091-5.611-4.767c0-2.865,2.957-4.163,5.31-4.646l5.159-1.086v-0.784
	c0-0.935-0.211-2.866-3.53-2.866c-4.344,0-4.405,2.927-4.405,2.927H350.012z M359.726,1307.569l-4.525,0.965
	c-2.233,0.482-4.164,1.206-4.164,3.107c0.03,2.896,3.138,3.106,3.802,3.106c2.232,0,4.887-1.689,4.887-3.801V1307.569z"/>
<path d="M370.675,1295.381h6.637v19.186h5.672v1.63h-13.123v-1.63h5.671v-17.557h-4.856V1295.381z"/>
<path d="M388.624,1305.216c0,0,0.09-4.615,6.244-4.615c4.918,0,5.219,2.986,5.219,4.555v7.964c0,0.514,0.151,1.751,1.629,1.781
	c1.056,0,1.478-0.815,1.508-0.876l1.508,0.755c-0.03,0.061-0.965,1.659-3.047,1.659c-2.051,0-2.806-1.207-3.017-2.263h-0.271
	c-1.78,1.96-4.164,2.263-4.918,2.263c-0.995,0-5.581-0.091-5.611-4.767c0-2.865,2.957-4.163,5.31-4.646l5.158-1.086v-0.784
	c0-0.935-0.211-2.866-3.53-2.866c-4.344,0-4.404,2.927-4.404,2.927H388.624z M398.337,1307.569l-4.524,0.965
	c-2.233,0.482-4.164,1.206-4.164,3.107c0.03,2.896,3.138,3.106,3.802,3.106c2.232,0,4.886-1.689,4.886-3.801V1307.569z"/>
<path d="M407.929,1305.216c0,0,0.09-4.615,6.245-4.615c4.917,0,5.219,2.986,5.219,4.555v7.964c0,0.514,0.151,1.751,1.629,1.781
	c1.056,0,1.478-0.815,1.508-0.876l1.508,0.755c-0.03,0.061-0.965,1.659-3.047,1.659c-2.051,0-2.806-1.207-3.017-2.263h-0.271
	c-1.78,1.96-4.164,2.263-4.918,2.263c-0.995,0-5.581-0.091-5.611-4.767c0-2.865,2.957-4.163,5.31-4.646l5.159-1.086v-0.784
	c0-0.935-0.211-2.866-3.53-2.866c-4.344,0-4.404,2.927-4.404,2.927H407.929z M417.643,1307.569l-4.525,0.965
	c-2.233,0.482-4.164,1.206-4.164,3.107c0.03,2.896,3.138,3.106,3.802,3.106c2.232,0,4.887-1.689,4.887-3.801V1307.569z"/>
<path d="M427.626,1316.196v-15.295h1.78v3.35h0.242c1.176-2.112,3.168-3.65,5.611-3.65c4.857,0,4.887,3.861,4.887,4.436v11.16h-1.78
	v-10.83c0-0.36-0.03-3.077-3.288-3.077c-2.595,0-5.672,2.687-5.672,7.241v6.666H427.626z"/>
<path d="M453.177,1312.698c1.087,0,1.901,0.814,1.901,2.142v0.331c-0.241,3.198-3.469,5.792-3.469,5.792l-0.966-1.085
	c1.268-1.268,2.022-2.564,2.384-3.561c-0.905,0-1.689-0.784-1.689-1.779S452.182,1312.698,453.177,1312.698z"/>
<path d="M483.04,1316.196v-1.81l14.36-17.074v-0.212h-13.365v-1.72h15.598v1.78l-14.36,17.106v0.21h15.235v1.719H483.04z"/>
<path d="M517.37,1300.901v15.295h-1.78v-3.438h-0.242c-1.177,2.111-3.167,3.68-5.611,3.68c-4.857,0-4.887-3.861-4.887-4.434v-11.104
	h1.78v10.771c0,0.363,0.03,3.076,3.289,3.076c2.595,0,5.672-2.685,5.672-7.239v-6.607H517.37z"/>
<path d="M525.122,1300.901h6.636v13.665h5.672v1.63h-13.123v-1.63h5.671v-12.035h-4.856V1300.901z M530.884,1295.17
	c0.965,0,1.75,0.784,1.75,1.749c0,0.966-0.785,1.721-1.75,1.721s-1.719-0.755-1.719-1.721
	C529.165,1295.954,529.918,1295.17,530.884,1295.17z"/>
<path d="M556.403,1316.196h-1.779v-2.684h-0.18c-1.359,1.93-3.139,2.926-5.16,2.926c-3.832,0-6.878-3.561-6.878-7.904
	c0-4.374,3.047-7.934,6.878-7.934c2.021,0,3.801,1.177,5.16,3.107h0.18v-8.327h1.779V1316.196z M554.624,1308.504
	c0-3.68-1.9-6.215-5.219-6.215c-2.896,0-5.16,2.747-5.16,6.245c0,3.471,2.264,6.214,5.16,6.214c3.229,0,5.129-2.443,5.219-5.972
	V1308.504z"/>
<path d="M562.376,1305.216c0,0,0.09-4.615,6.244-4.615c4.918,0,5.219,2.986,5.219,4.555v7.964c0,0.514,0.15,1.751,1.629,1.781
	c1.057,0,1.479-0.815,1.51-0.876l1.508,0.755c-0.031,0.061-0.965,1.659-3.047,1.659c-2.051,0-2.807-1.207-3.018-2.263h-0.271
	c-1.779,1.96-4.162,2.263-4.918,2.263c-0.994,0-5.58-0.091-5.611-4.767c0-2.865,2.957-4.163,5.311-4.646l5.158-1.086v-0.784
	c0-0.935-0.211-2.866-3.529-2.866c-4.344,0-4.404,2.927-4.404,2.927H562.376z M572.089,1307.569l-4.523,0.965
	c-2.234,0.482-4.164,1.206-4.164,3.107c0.029,2.896,3.137,3.106,3.801,3.106c2.232,0,4.887-1.689,4.887-3.801V1307.569z"/>
<path d="M583.159,1311.279c0,0.061,0.332,1.207,1.297,2.021c0.846,0.693,2.143,1.356,4.254,1.356c2.082,0,3.258-0.572,3.953-1.205
	c0.693-0.663,0.875-1.389,0.875-1.78c0-2.263-3.078-2.202-5.221-2.444c-2.111-0.241-4.494-0.572-5.551-1.93
	c-0.604-0.784-0.844-1.478-0.844-2.082c0-0.392,0.09-1.538,0.965-2.624c0.785-1.027,2.322-1.991,5.189-1.991
	c3.076,0,4.645,1.207,5.521,2.442c0.783,1.178,0.814,2.354,0.814,2.414h-1.811c0-0.03-0.031-0.876-0.574-1.63
	c-0.572-0.784-1.658-1.538-3.861-1.538c-2.172,0-3.227,0.573-3.801,1.238c-0.543,0.633-0.604,1.267-0.604,1.539
	c0.031,1.777,2.203,2.171,4.979,2.473c3.619,0.392,4.676,0.574,5.701,1.599c0.633,0.634,0.936,1.539,0.936,2.564
	c0,0.603-0.271,1.75-1.207,2.775s-2.564,1.961-5.34,1.961c-2.865,0-4.645-0.966-5.762-2.052c-1.357-1.328-1.779-3.017-1.779-3.107
	H583.159z"/>
<path d="M625.481,1295.381h2.926l6.639,20.815h-1.961l-1.963-6.185h-8.295l-1.961,6.185h-1.961L625.481,1295.381z M630.55,1308.263
	l-3.59-11.523h-0.029l-3.561,11.523H630.55z"/>
<path d="M639.78,1316.196h-1.779v-15.295h1.779v2.202h0.393c0.965-1.63,1.809-2.503,3.227-2.503c2.113,0,3.047,1.298,3.471,2.503
	h0.451c0.967-1.6,2.021-2.503,3.439-2.503c3.771,0,3.801,3.469,3.801,4.071v11.524h-1.779v-11.281c0-0.395-0.031-2.626-2.143-2.626
	c-1.689,0-3.469,2.505-3.469,5.1v8.808h-1.779v-11.281c0-0.395-0.031-2.626-2.113-2.626c-1.689,0-3.498,2.505-3.498,5.1V1316.196z"
	/>
<path d="M660.384,1311.279c0,0.061,0.33,1.207,1.297,2.021c0.844,0.693,2.141,1.356,4.254,1.356c2.08,0,3.258-0.572,3.951-1.205
	c0.693-0.663,0.875-1.389,0.875-1.78c0-2.263-3.078-2.202-5.219-2.444c-2.111-0.241-4.496-0.572-5.551-1.93
	c-0.604-0.784-0.846-1.478-0.846-2.082c0-0.392,0.092-1.538,0.965-2.624c0.785-1.027,2.324-1.991,5.189-1.991
	c3.078,0,4.646,1.207,5.521,2.442c0.785,1.178,0.814,2.354,0.814,2.414h-1.811c0-0.03-0.029-0.876-0.572-1.63
	c-0.574-0.784-1.66-1.538-3.861-1.538c-2.174,0-3.229,0.573-3.801,1.238c-0.545,0.633-0.604,1.267-0.604,1.539
	c0.029,1.777,2.201,2.171,4.977,2.473c3.619,0.392,4.676,0.574,5.701,1.599c0.635,0.634,0.936,1.539,0.936,2.564
	c0,0.603-0.271,1.75-1.207,2.775c-0.934,1.025-2.564,1.961-5.338,1.961c-2.867,0-4.646-0.966-5.764-2.052
	c-1.357-1.328-1.779-3.017-1.779-3.107H660.384z"/>
<path d="M683.581,1311.702c0,1.538,0.996,3.046,3.348,3.046c1.328,0,2.867-0.572,3.65-1.989l1.568,0.784
	c-1.146,2.051-3.348,2.896-5.219,2.896c-3.59,0-5.129-2.384-5.129-4.827v-9.08h-4.314v-1.63h4.314v-5.521h1.781v5.521h7.48v1.63
	h-7.48V1311.702z"/>
<path d="M697.185,1308.534c0-4.707,3.258-7.934,7.211-7.934c3.98,0,6.848,3.227,6.848,7.934v0.482h-12.158
	c0.09,3.409,2.594,5.731,5.551,5.731c2.203,0,3.801-1.326,4.676-3.438l1.6,0.726c-1.178,2.713-3.65,4.403-6.516,4.403
	C700.442,1316.438,697.185,1313.24,697.185,1308.534z M699.085,1307.448h10.258c-0.363-3.107-2.354-5.159-4.979-5.159
	C701.649,1302.289,699.448,1304.341,699.085,1307.448z"/>
<path d="M717.214,1316.196v-15.295h1.779v3.35h0.242c1.178-2.112,3.168-3.65,5.611-3.65c4.857,0,4.857,3.861,4.857,4.436v0.451
	h-1.75v-0.121c0-0.36-0.029-3.077-3.289-3.077c-2.594,0-5.672,2.687-5.672,7.241v6.666H717.214z"/>
<path d="M749.462,1316.196h-1.779v-2.684h-0.182c-1.357,1.93-3.137,2.926-5.158,2.926c-3.832,0-6.879-3.561-6.879-7.904
	c0-4.374,3.047-7.934,6.879-7.934c2.021,0,3.801,1.177,5.158,3.107h0.182v-8.327h1.779V1316.196z M747.683,1308.504
	c0-3.68-1.9-6.215-5.219-6.215c-2.896,0-5.16,2.747-5.16,6.245c0,3.471,2.264,6.214,5.16,6.214c3.227,0,5.127-2.443,5.219-5.972
	V1308.504z"/>
<path d="M755.435,1305.216c0,0,0.09-4.615,6.244-4.615c4.916,0,5.219,2.986,5.219,4.555v7.964c0,0.514,0.15,1.751,1.631,1.781
	c1.053,0,1.477-0.815,1.508-0.876l1.508,0.755c-0.029,0.061-0.967,1.659-3.047,1.659c-2.051,0-2.807-1.207-3.018-2.263h-0.271
	c-1.781,1.96-4.164,2.263-4.918,2.263c-0.994,0-5.58-0.091-5.611-4.767c0-2.865,2.957-4.163,5.311-4.646l5.158-1.086v-0.784
	c0-0.935-0.213-2.866-3.529-2.866c-4.344,0-4.404,2.927-4.404,2.927H755.435z M765.147,1307.569l-4.525,0.965
	c-2.232,0.482-4.162,1.206-4.162,3.107c0.029,2.896,3.137,3.106,3.801,3.106c2.232,0,4.887-1.689,4.887-3.801V1307.569z"/>
<path d="M774.921,1316.196h-1.781v-15.295h1.781v2.202h0.393c0.965-1.63,1.809-2.503,3.227-2.503c2.113,0,3.047,1.298,3.471,2.503
	h0.451c0.967-1.6,2.021-2.503,3.441-2.503c3.77,0,3.801,3.469,3.801,4.071v11.524h-1.781v-11.281c0-0.395-0.031-2.626-2.141-2.626
	c-1.691,0-3.471,2.505-3.471,5.1v8.808h-1.779v-11.281c0-0.395-0.029-2.626-2.113-2.626c-1.689,0-3.498,2.505-3.498,5.1V1316.196z"
	/>
<path d="M225.674,904.966v-1.183l9.371-11.141v-0.138h-8.721v-1.122h10.178v1.162l-9.371,11.161v0.137h9.941v1.123H225.674z"/>
<path d="M248.076,894.985v9.98h-1.162v-2.244h-0.158c-0.768,1.378-2.066,2.402-3.662,2.402c-3.169,0-3.189-2.521-3.189-2.895v-7.244
	h1.162v7.027c0,0.236,0.02,2.008,2.146,2.008c1.693,0,3.701-1.753,3.701-4.725v-4.311H248.076z"/>
<path d="M252.74,894.985h4.331v8.917h3.701v1.063h-8.563v-1.063h3.701v-7.854h-3.169V894.985z M256.5,891.244
	c0.63,0,1.142,0.512,1.142,1.143c0,0.63-0.512,1.122-1.142,1.122s-1.122-0.492-1.122-1.122
	C255.378,891.756,255.871,891.244,256.5,891.244z"/>
<path d="M271.972,904.966h-1.161v-1.752h-0.118c-0.886,1.26-2.048,1.91-3.367,1.91c-2.5,0-4.488-2.324-4.488-5.158
	c0-2.855,1.988-5.178,4.488-5.178c1.319,0,2.48,0.769,3.367,2.027h0.118v-5.433h1.161V904.966z M270.811,899.946
	c0-2.401-1.24-4.056-3.405-4.056c-1.89,0-3.367,1.791-3.367,4.075c0,2.264,1.477,4.055,3.367,4.055c2.106,0,3.346-1.595,3.405-3.897
	V899.946z"/>
<path d="M275.87,897.8c0,0,0.059-3.012,4.074-3.012c3.209,0,3.406,1.948,3.406,2.972v5.198c0,0.334,0.099,1.142,1.063,1.162
	c0.688,0,0.964-0.532,0.984-0.571l0.984,0.492c-0.02,0.039-0.63,1.083-1.988,1.083c-1.339,0-1.831-0.789-1.968-1.478h-0.177
	c-1.162,1.279-2.717,1.478-3.209,1.478c-0.649,0-3.642-0.06-3.662-3.111c0-1.87,1.929-2.717,3.465-3.031l3.366-0.71v-0.512
	c0-0.609-0.138-1.869-2.303-1.869c-2.835,0-2.875,1.909-2.875,1.909H275.87z M282.208,899.335l-2.953,0.631
	c-1.457,0.313-2.717,0.786-2.717,2.027c0.02,1.89,2.047,2.027,2.48,2.027c1.457,0,3.189-1.103,3.189-2.479V899.335z"/>
<path d="M289.038,901.756c0,0.04,0.216,0.789,0.846,1.32c0.551,0.453,1.397,0.886,2.775,0.886c1.358,0,2.126-0.374,2.579-0.788
	c0.453-0.433,0.571-0.906,0.571-1.161c0-1.476-2.008-1.437-3.406-1.595c-1.378-0.158-2.933-0.373-3.622-1.26
	c-0.394-0.512-0.551-0.965-0.551-1.358c0-0.255,0.06-1.004,0.63-1.713c0.512-0.669,1.516-1.299,3.386-1.299
	c2.008,0,3.032,0.788,3.603,1.595c0.512,0.768,0.532,1.535,0.532,1.575h-1.182c0-0.021-0.02-0.571-0.374-1.063
	c-0.374-0.512-1.082-1.004-2.52-1.004c-1.417,0-2.106,0.373-2.48,0.808c-0.354,0.412-0.394,0.827-0.394,1.004
	c0.02,1.161,1.437,1.417,3.248,1.613c2.362,0.257,3.051,0.374,3.72,1.043c0.414,0.413,0.611,1.005,0.611,1.675
	c0,0.393-0.177,1.141-0.788,1.81c-0.61,0.67-1.673,1.281-3.484,1.281c-1.871,0-3.031-0.631-3.76-1.341
	c-0.886-0.865-1.161-1.968-1.161-2.027H289.038z"/>
<path d="M229.652,915.003h1.91l4.331,13.583h-1.28l-1.28-4.035h-5.414l-1.279,4.035h-1.28L229.652,915.003z M232.958,923.408
	l-2.342-7.52h-0.02l-2.323,7.52H232.958z"/>
<path d="M239.77,928.586h-1.162v-9.98h1.162v1.438h0.256c0.63-1.063,1.181-1.635,2.106-1.635c1.378,0,1.988,0.847,2.264,1.635h0.295
	c0.63-1.044,1.318-1.635,2.244-1.635c2.46,0,2.48,2.265,2.48,2.658v7.52h-1.162v-7.362c0-0.256-0.02-1.713-1.397-1.713
	c-1.103,0-2.264,1.635-2.264,3.327v5.748h-1.161v-7.362c0-0.256-0.02-1.713-1.379-1.713c-1.102,0-2.283,1.635-2.283,3.327V928.586z"
	/>
<path d="M253.607,925.376c0,0.04,0.216,0.789,0.846,1.32c0.551,0.453,1.397,0.886,2.775,0.886c1.358,0,2.126-0.373,2.579-0.787
	c0.453-0.434,0.571-0.906,0.571-1.161c0-1.477-2.008-1.438-3.406-1.596c-1.378-0.158-2.933-0.373-3.622-1.26
	c-0.394-0.512-0.551-0.964-0.551-1.358c0-0.255,0.06-1.004,0.63-1.713c0.512-0.669,1.516-1.299,3.386-1.299
	c2.008,0,3.031,0.788,3.603,1.595c0.512,0.768,0.532,1.535,0.532,1.575h-1.182c0-0.02-0.02-0.571-0.374-1.063
	c-0.374-0.512-1.083-1.004-2.52-1.004c-1.417,0-2.106,0.374-2.48,0.808c-0.355,0.413-0.394,0.827-0.394,1.004
	c0.02,1.161,1.437,1.417,3.248,1.613c2.362,0.257,3.051,0.375,3.72,1.044c0.414,0.413,0.611,1.004,0.611,1.674
	c0,0.394-0.177,1.142-0.788,1.81c-0.61,0.671-1.673,1.281-3.485,1.281c-1.87,0-3.031-0.631-3.76-1.34
	c-0.886-0.866-1.161-1.969-1.161-2.028H253.607z"/>
<path d="M267.563,925.653c0,1.004,0.65,1.988,2.185,1.988c0.867,0,1.871-0.375,2.382-1.3l1.024,0.512
	c-0.748,1.339-2.185,1.891-3.406,1.891c-2.342,0-3.346-1.556-3.346-3.15v-5.925h-2.815v-1.063h2.815v-3.603h1.161v3.603h4.882v1.063
	h-4.882V925.653z"/>
<path d="M276.046,923.586c0-3.071,2.126-5.178,4.705-5.178c2.598,0,4.468,2.106,4.468,5.178v0.314h-7.933
	c0.059,2.226,1.693,3.741,3.623,3.741c1.437,0,2.48-0.867,3.051-2.245l1.043,0.473c-0.768,1.772-2.382,2.875-4.252,2.875
	C278.172,928.744,276.046,926.657,276.046,923.586z M277.287,922.876h6.693c-0.236-2.027-1.536-3.365-3.248-3.365
	C278.96,919.511,277.523,920.849,277.287,922.876z"/>
<path d="M288.723,928.586v-9.98h1.161v2.185h0.158c0.768-1.378,2.067-2.382,3.662-2.382c3.169,0,3.169,2.52,3.169,2.895v0.295
	h-1.142v-0.079c0-0.236-0.02-2.008-2.146-2.008c-1.693,0-3.701,1.752-3.701,4.726v4.35H288.723z"/>
<path d="M308.585,928.586h-1.161v-1.752h-0.118c-0.886,1.26-2.047,1.91-3.367,1.91c-2.5,0-4.488-2.324-4.488-5.158
	c0-2.854,1.988-5.178,4.488-5.178c1.319,0,2.481,0.769,3.367,2.027h0.118v-5.433h1.161V928.586z M307.424,923.566
	c0-2.401-1.24-4.056-3.406-4.056c-1.89,0-3.367,1.792-3.367,4.075c0,2.264,1.477,4.056,3.367,4.056c2.106,0,3.346-1.595,3.406-3.898
	V923.566z"/>
<path d="M312.482,921.42c0,0,0.059-3.012,4.075-3.012c3.209,0,3.405,1.948,3.405,2.972v5.198c0,0.334,0.099,1.143,1.063,1.162
	c0.689,0,0.964-0.531,0.984-0.571l0.984,0.492c-0.02,0.039-0.63,1.083-1.988,1.083c-1.339,0-1.831-0.789-1.969-1.478h-0.177
	c-1.162,1.28-2.717,1.478-3.209,1.478c-0.649,0-3.642-0.06-3.662-3.11c0-1.871,1.929-2.718,3.465-3.032l3.366-0.709v-0.513
	c0-0.609-0.138-1.869-2.303-1.869c-2.835,0-2.875,1.909-2.875,1.909H312.482z M318.82,922.955l-2.953,0.631
	c-1.457,0.314-2.717,0.786-2.717,2.027c0.02,1.89,2.047,2.028,2.481,2.028c1.457,0,3.188-1.104,3.188-2.48V922.955z"/>
<path d="M325.985,928.586h-1.162v-9.98h1.162v1.438h0.256c0.63-1.063,1.181-1.635,2.106-1.635c1.378,0,1.988,0.847,2.264,1.635
	h0.295c0.63-1.044,1.319-1.635,2.244-1.635c2.46,0,2.48,2.265,2.48,2.658v7.52h-1.161v-7.362c0-0.256-0.02-1.713-1.398-1.713
	c-1.102,0-2.264,1.635-2.264,3.327v5.748h-1.161v-7.362c0-0.256-0.02-1.713-1.378-1.713c-1.103,0-2.283,1.635-2.283,3.327V928.586z"
	/>
<path d="M233.644,800.136v15.27h-1.305v-12.901h-0.155c-1.151,0.841-2.412,0.974-3.785,0.974v-1.217c1.793,0,3.94-0.443,3.94-2.125
	H233.644z"/>
<path d="M239.662,804.408v-0.2c0-1.062,1.173-4.249,4.647-4.249c3.12,0,4.714,2.767,4.714,4.249v0.045
	c0,1.35-0.199,3.341-3.231,5.156c-1.837,1.106-3.099,1.947-3.917,2.811c-0.332,0.375-0.598,0.774-0.774,1.195v0.795h8.52v1.195
	h-10.113v-0.132c0-1.881,0.486-2.899,1.416-3.896c0.929-0.996,2.457-2.014,4.271-3.187c2.435-1.57,2.479-2.788,2.479-3.651v-0.132
	c0-1.129-1.151-3.211-3.342-3.211c-2.5,0-3.32,2.392-3.32,3.211H239.662z"/>
<path d="M257.808,814.189c0-0.729,0.619-1.351,1.35-1.351c0.797,0,1.394,0.621,1.394,1.351c0,0.796-0.597,1.394-1.394,1.394
	C258.427,815.583,257.808,814.985,257.808,814.189z"/>
<path d="M276.109,802.238c0.886,1.395,1.328,3.342,1.328,5.489c0,2.19-0.442,4.138-1.328,5.576
	c-0.863,1.416-2.058,2.279-3.629,2.279c-1.616,0-2.833-0.863-3.696-2.279c-0.886-1.438-1.328-3.386-1.328-5.576
	c0-2.147,0.442-4.095,1.328-5.489c0.863-1.394,2.08-2.279,3.696-2.279C274.051,799.959,275.246,800.845,276.109,802.238z
	 M269.758,803.124c-0.62,1.15-0.952,2.788-0.952,4.604c0,1.858,0.332,3.497,0.952,4.669c0.642,1.218,1.549,1.947,2.7,1.947
	s2.036-0.729,2.678-1.947c0.62-1.172,0.952-2.811,0.952-4.669c0-1.815-0.332-3.453-0.952-4.604
	c-0.642-1.195-1.527-1.927-2.678-1.927S270.4,801.929,269.758,803.124z"/>
<path d="M290.404,803.788c-0.553-1.527-1.571-2.591-3.452-2.591c-2.501,0-4.006,2.854-4.006,6.794h0.088
	c0.775-1.548,2.147-2.788,3.763-2.788c2.833,0,4.979,2.368,4.979,5.269c0,2.832-2.147,5.111-4.869,5.111
	c-2.191,0-3.807-1.307-4.669-3.52c-0.443-1.195-0.642-2.609-0.642-4.27c0-4.295,2.014-7.835,5.312-7.835
	c2.523,0,3.917,1.35,4.692,3.408L290.404,803.788z M283.367,810.404c0,2.19,1.571,3.939,3.519,3.939c1.97,0,3.541-1.749,3.541-3.939
	s-1.571-3.961-3.541-3.961C284.938,806.443,283.367,808.214,283.367,810.404z"/>
<path d="M298.968,814.189c0-0.729,0.619-1.351,1.35-1.351c0.797,0,1.394,0.621,1.394,1.351c0,0.796-0.597,1.394-1.394,1.394
	C299.587,815.583,298.968,814.985,298.968,814.189z"/>
<path d="M314.635,800.136v15.27h-1.305v-12.901h-0.155c-1.151,0.841-2.413,0.974-3.785,0.974v-1.217c1.793,0,3.94-0.443,3.94-2.125
	H314.635z"/>
<path d="M321.627,811.024c0,0,0.266,3.319,3.43,3.319c3.209,0,3.475-3.319,3.475-4.314c0-1.24-0.531-3.808-2.988-3.808
	c-1.792,0-3.01,1.903-3.054,2.17l-1.571-0.178l0.774-8.078h7.546v1.195h-6.33c-0.177,1.66-0.398,3.453-0.553,5.156h0.067
	c0.641-0.73,1.77-1.615,3.187-1.615c3.541,0,4.293,3.387,4.293,5.09c0,1.283-0.398,5.621-4.847,5.621
	c-3.917,0-4.67-3.65-4.758-4.358L321.627,811.024z"/>
<path d="M227.712,854.987v-0.2c0-1.062,1.173-4.249,4.647-4.249c3.121,0,4.714,2.768,4.714,4.249v0.044
	c0,1.351-0.199,3.342-3.231,5.157c-1.837,1.106-3.099,1.947-3.917,2.811c-0.332,0.375-0.598,0.774-0.774,1.195v0.795h8.52v1.195
	h-10.113v-0.132c0-1.881,0.486-2.899,1.417-3.896c0.929-0.995,2.457-2.013,4.271-3.186c2.435-1.57,2.479-2.788,2.479-3.651v-0.132
	c0-1.129-1.151-3.211-3.341-3.211c-2.501,0-3.32,2.391-3.32,3.211H227.712z"/>
<path d="M243.978,865.984v-0.066c0-7.081,3.054-11.685,4.78-13.676v-0.332h-7.17v-1.195h9.162v1.239c0,0-5.444,4.56-5.444,14.03
	H243.978z"/>
<path d="M257.808,864.769c0-0.73,0.619-1.35,1.35-1.35c0.797,0,1.394,0.619,1.394,1.35c0,0.796-0.597,1.394-1.394,1.394
	C258.427,866.162,257.808,865.564,257.808,864.769z"/>
<path d="M276.108,852.817c0.885,1.395,1.328,3.342,1.328,5.489c0,2.19-0.443,4.138-1.328,5.576
	c-0.863,1.416-2.058,2.279-3.629,2.279c-1.616,0-2.833-0.863-3.696-2.279c-0.885-1.438-1.328-3.386-1.328-5.576
	c0-2.147,0.443-4.095,1.328-5.489c0.863-1.394,2.08-2.279,3.696-2.279C274.051,850.538,275.245,851.424,276.108,852.817z
	 M269.757,853.703c-0.62,1.15-0.951,2.788-0.951,4.604c0,1.858,0.332,3.497,0.951,4.669c0.642,1.217,1.549,1.947,2.7,1.947
	s2.036-0.73,2.678-1.947c0.62-1.172,0.951-2.811,0.951-4.669c0-1.815-0.331-3.453-0.951-4.604c-0.642-1.195-1.527-1.927-2.678-1.927
	S270.399,852.508,269.757,853.703z"/>
<path d="M289.961,854.367c-0.553-1.527-1.571-2.591-3.452-2.591c-2.501,0-4.006,2.855-4.006,6.794h0.088
	c0.775-1.548,2.147-2.788,3.763-2.788c2.833,0,4.979,2.368,4.979,5.268c0,2.833-2.147,5.112-4.869,5.112
	c-2.191,0-3.806-1.306-4.669-3.519c-0.443-1.195-0.642-2.611-0.642-4.271c0-4.295,2.014-7.835,5.312-7.835
	c2.523,0,3.917,1.35,4.692,3.408L289.961,854.367z M282.924,860.983c0,2.19,1.571,3.939,3.519,3.939
	c1.969,0,3.541-1.749,3.541-3.939s-1.572-3.961-3.541-3.961C284.496,857.022,282.924,858.793,282.924,860.983z"/>
<path d="M298.525,864.769c0-0.73,0.62-1.35,1.35-1.35c0.797,0,1.395,0.619,1.395,1.35c0,0.796-0.597,1.394-1.395,1.394
	C299.145,866.162,298.525,865.564,298.525,864.769z"/>
<path d="M315.077,850.715v15.27h-1.305v-12.901h-0.155c-1.151,0.841-2.412,0.973-3.785,0.973v-1.216
	c1.793,0,3.939-0.443,3.939-2.125H315.077z"/>
<path d="M322.512,861.604c0,0,0.266,3.319,3.43,3.319c3.209,0,3.475-3.319,3.475-4.314c0-1.24-0.531-3.808-2.988-3.808
	c-1.792,0-3.01,1.903-3.054,2.17l-1.571-0.178l0.774-8.078h7.546v1.195h-6.329c-0.177,1.659-0.399,3.452-0.554,5.156h0.067
	c0.641-0.73,1.77-1.615,3.187-1.615c3.541,0,4.293,3.386,4.293,5.09c0,1.283-0.398,5.621-4.847,5.621
	c-3.917,0-4.67-3.651-4.758-4.358L322.512,861.604z"/>
<line fill="none" stroke="#FFCC00" stroke-width="3" stroke-miterlimit="10" x1="227.741" y1="834.011" x2="332.741" y2="834.011"/>
<line fill="none" stroke="#FFCC00" stroke-width="3" stroke-miterlimit="10" x1="224.741" y1="1106.011" x2="800.741" y2="1106.011"/>
<line fill="none" stroke="#FFCC00" stroke-width="3" stroke-miterlimit="10" x1="224.741" y1="1360.011" x2="800.741" y2="1360.011"/>
<polygon fill="#FFCC02" points="0,0 0,497.631 7.283,507.683 13.01,506.632 19.904,510.297 26.017,506.632 33.324,495.635 
	39.805,494.397 47.013,480.5 52.03,479.524 60.041,465.805 65.617,462.409 72.361,454.313 77.664,438.589 85.381,435.734 
	90.752,436.073 98.08,425.369 103.84,425.228 111.399,420.738 116.66,421.613 123.838,434.256 129.48,437.476 137.219,448.839 
	143.3,471.459 149.796,493.951 155.556,497.641 163.179,498.742 168.486,500.94 176.109,496.175 181.415,496.175 189.029,506.227 
	195.013,513.56 201.764,520.891 207.071,527.378 214.937,527.433 221.119,529.267 227.723,537.909 233.577,541.053 240.849,543.986 
	245.909,548.75 254.106,554.981 259.813,557.916 266.506,564.881 270.48,568.547 277.172,568.547 285.068,566.713 292.019,566.713 
	298.184,569.646 305.135,569.646 311.3,570.747 318.127,574.413 324.179,570.747 331.771,557.916 337.057,546.186 344.083,546.186 
	350.315,552.415 357.339,550.584 363.57,548.75 370.565,566.346 376.063,567.812 383.429,565.981 388.557,567.08 395.884,575.146 
	401.644,574.413 407.998,578.077 414.73,594.211 422.224,596.407 427.439,599.117 434.062,594.34 440.15,592.741 447.797,594.211 
	453.12,594.942 459.893,596.407 466.446,612.171 473.504,614.735 479.333,633.067 486.748,640.398 492.577,641.863 499.164,641.498 
	505.229,636.729 512.31,636.729 517.878,640.398 525.69,655.06 531.833,653.228 539.13,655.794 544.208,655.794 551.586,647.729 
	557.383,647.729 564.369,663.313 570.559,668.37 577.778,679.304 583.45,710.911 589.898,721.52 596.344,743.555 603.365,758.222 
	609.592,759.85 616.612,760.838 622.84,760.912 629.042,757.246 635.245,757.246 641.821,757.246 647.653,753.58 655.552,753.108 
	661.055,741.467 668.156,742.565 674.451,746.965 681.104,746.598 687.006,749.898 694.031,768.7 699.983,771.867 706.348,780.681 
	714.538,800.179 720.249,805.915 725.194,808.37 732.432,815.255 738.3,813.799 745.332,827.351 752.064,830.129 758.815,827.351 
	765.249,825.13 772.041,805.715 777.379,775.56 784.854,769.675 790.055,761.367 797.202,706.543 804.349,703.488 810.258,693.103 
	816.168,679.818 823.625,669.665 829.49,671.497 835.705,668.197 842.35,653.168 849.55,653.901 855.21,650.603 862.273,653.168 
	867.827,671.497 875.368,675.162 882.056,691.382 888.406,688.083 894.759,652.575 901.489,659.905 907.459,678.233 914.91,698.485 
	920.099,738.812 927.175,742.477 932.736,738.812 940.729,733.68 946.294,731.481 953.38,750.085 960.062,751.552 966.715,744.219 
	971.883,709.485 978.619,695.188 983.912,720.893 991.405,724.56 998.051,728.226 1005.068,728.226 1010.585,724.56 
	1018.29,706.229 1024.346,673.237 1030.811,669.938 1036.546,665.906 1036.546,0 "/>
</svg>
