<?xml version="1.0" encoding="utf-8"?>
<!-- Generator: Adobe Illustrator 15.0.0, SVG Export Plug-In . SVG Version: 6.00 Build 0)  -->
<!DOCTYPE svg PUBLIC "-//W3C//DTD SVG 1.1//EN" "http://www.w3.org/Graphics/SVG/1.1/DTD/svg11.dtd">
<svg version="1.1" id="Layer_1" xmlns="http://www.w3.org/2000/svg" xmlns:xlink="http://www.w3.org/1999/xlink" x="0px" y="0px"
	 width="795px" height="560px" viewBox="0 0 795 560" enable-background="new 0 0 795 560" xml:space="preserve">
<g>
	<path d="M156.107,180.209c-4.2,8.8-17.8,20-34.399,20c-16.6,0-30.8-6.8-41.8-19c-11-12.399-17.799-30-17.799-51.599
		c0-21.399,6.8-39,18-51.399c10.8-12.2,25-19.2,41.6-19.2c26.399,0,53.799,17,53.799,49.399h-19.2c0-19.8-16.6-32.6-34.599-32.6
		c-26,0-39.399,28-39.399,53.799c0,16.6,4.6,30,12,39.399c7.2,9.2,16.4,14.4,27.4,14.4c20.799,0,35.399-22,35.599-41.6l-37.399,0.2
		v-16.6h55.599v73.199h-19.399V180.209z"/>
	<path d="M292.907,77.211h-73.599v43.199h65.599v16.6h-65.599v45h77.599v16.6h-96.999V60.611h92.999V77.211z"/>
	<path d="M423.906,77.211h-45.999v121.398h-19.4V77.211h-45.599v-16.6h110.998V77.211z"/>
	<path d="M222.908,346.01h75.399v16.6h-94.799V224.611h19.4V346.01z"/>
	<path d="M323.308,242.611c10.6-12.2,25.799-19.2,41.599-19.2c15.6,0,30.6,7,40.999,19.2c10.601,12.4,17,29.799,17,51.199
		c0,21.6-6.399,38.999-16.8,51.399c-10.6,12.199-25.6,18.999-41.199,18.999c-15.8,0-31-6.8-41.799-19.199
		c-10.4-12.2-17-29.6-17-51.199C306.108,272.41,312.708,255.011,323.308,242.611z M337.908,332.81c6.6,9.4,16.4,14.6,26.6,14.6
		c10.4,0,20.2-5.199,26.799-14.6c7.2-9,11.4-22.399,11.4-39.199c0-16.6-4.2-30-11.4-39c-6.6-9.4-16.399-14.8-26.799-14.8
		c-10.2,0-20,5.4-26.6,14.8c-7.4,9-11.6,22.4-11.6,39C326.308,310.41,330.508,323.81,337.908,332.81z"/>
	<path d="M545.906,262.211h-21c-3.2-15.2-14.8-22.4-32.6-22.4c-12.399,0-29.199,6.4-29.199,21.4c0,15.6,18.399,19.6,34.6,21.199
		c25.8,2.4,55.399,8.2,55.399,39.399c0,29.2-22.4,42.399-51.6,42.399c-33.399,0-56.999-17.8-61.399-48.199h20.4
		c4.399,20.8,19.199,31.399,39.999,31.399c17,0,32.399-4.999,32.399-25.6c0-15.999-12-19.799-37.6-22.599
		c-23.6-2.601-52.399-10-52.399-38c0-23.8,25.2-38.199,48.8-38.199C519.906,223.012,540.106,235.211,545.906,262.211z"/>
	<path d="M675.906,241.211h-46v121.398h-19.399V241.211h-45.6v-16.6h110.999V241.211z"/>
</g>
<g>
	<path d="M199.516,414.461c0.156-2.418,0.858-4.524,2.184-6.475c2.106-3.198,6.396-6.475,14.82-6.475c3.354,0,5.851,0.703,7.8,1.561
		c5.382,2.496,6.396,7.254,6.396,11.232v20.671c0,1.326,0.936,2.106,1.794,2.106s1.248-0.391,1.56-0.78
		c0.234-0.234,0.39-0.468,0.468-0.78l5.227,2.574c-0.468,0.936-1.014,1.794-1.716,2.496c-1.17,1.248-2.886,2.418-5.148,2.418
		c-4.056,0-7.254-2.964-7.488-5.07h-0.624c-4.056,3.979-8.581,5.07-11.935,5.07c-2.496,0-15.289-0.234-15.289-12.324
		c0-7.488,7.176-10.921,13.026-12.169l12.714-2.651v-1.561c0-2.184-0.156-6.475-7.02-6.475c-4.602,0-6.864,1.717-8.034,3.354
		c-0.702,0.937-1.092,2.028-1.248,3.276H199.516z M223.307,422.027l-9.36,1.949c-4.212,0.858-8.658,2.809-8.658,6.787
		c0,5.771,5.46,5.928,7.566,5.928h0.312c4.602,0,10.14-3.51,10.14-7.878V422.027z"/>
	<path d="M250.528,442.386V402.37h7.411v5.616h0.624c1.95-2.418,6.318-6.475,12.792-6.475c12.871,0,12.949,10.141,12.949,11.623
		v1.95h-7.41c-0.078-1.638-0.702-7.255-6.942-7.255c-5.46,0-12.012,6.709-12.012,18.02v16.536H250.528z"/>
	<path d="M306.61,402.838v-14.742h7.41v14.742h18.564v6.007h-18.564v20.202c0,0.937,0.078,7.645,6.942,7.645
		c5.226,0,7.722-3.588,8.658-4.914l6.318,3.51c-3.433,5.383-7.878,7.723-14.977,7.723c-14.275,0-14.353-10.141-14.353-11.623
		v-22.542H296.08v-6.007H306.61z"/>
	<path d="M400.287,442.386V402.37h7.411v5.616h0.624c1.949-2.418,6.318-6.475,12.792-6.475c12.87,0,12.948,10.141,12.948,11.623
		v1.95h-7.41c-0.078-1.638-0.701-7.255-6.941-7.255c-5.461,0-12.013,6.709-12.013,18.02v16.536H400.287z"/>
	<path d="M467.213,401.512c10.686,0,19.266,8.425,19.266,20.905c0,12.247-8.58,20.593-19.266,20.593
		c-10.843,0-19.424-8.346-19.424-20.593C447.789,409.937,456.37,401.512,467.213,401.512z M467.135,436.691
		c6.318,0,11.622-5.85,11.622-14.431c0-8.502-5.304-14.431-11.622-14.431s-11.623,5.929-11.623,14.431
		C455.512,430.842,460.816,436.691,467.135,436.691z"/>
	<path d="M533.98,402.37v40.016h-7.41v-5.694h-0.78c-2.027,2.418-6.162,6.318-12.636,6.318c-12.871,0-12.949-9.984-12.949-11.467
		V402.37h7.41v26.755c0,0.937,0.078,7.566,6.943,7.566c5.46,0,12.012-6.553,12.012-17.707V402.37H533.98z"/>
	<path d="M556.21,402.838v-14.742h7.41v14.742h18.565v6.007H563.62v20.202c0,0.937,0.078,7.645,6.942,7.645
		c5.227,0,7.723-3.588,8.658-4.914l6.318,3.51c-3.432,5.383-7.878,7.723-14.977,7.723c-14.274,0-14.353-10.141-14.353-11.623
		v-22.542h-10.53v-6.007H556.21z"/>
	<path d="M605.662,424.289c0.702,7.488,5.772,12.402,11.622,12.402c4.759,0,8.814-3.198,10.999-8.502l6.708,2.964
		c-2.964,7.332-9.828,11.856-17.707,11.856c-10.842,0-19.422-8.346-19.422-20.593c0-12.48,8.424-20.905,19.032-20.905
		s19.032,8.425,19.032,20.905v1.872H605.662z M605.974,418.439h21.842c-1.326-6.396-5.772-10.609-10.921-10.609
		C611.668,407.83,607.222,412.043,605.974,418.439z"/>
</g>
<g>
	<path fill="#FFCC00" d="M193.907,467.133h1.818l2.606,12.818l2.849-11.092h2.182l2.849,11.092l2.606-12.818h1.818l-3.333,15.363
		h-2.121l-2.909-11.516l-2.909,11.516h-2.121L193.907,467.133z"/>
	<path fill="#FFCC00" d="M215.36,482.496v-20.909h1.788v8.909h0.242c1.182-2.121,3.182-3.666,5.637-3.666
		c4.879,0,4.909,3.879,4.909,4.454v11.212h-1.788v-10.879c0-0.363-0.03-3.091-3.303-3.091c-2.606,0-5.697,2.697-5.697,7.272v6.697
		H215.36z"/>
	<path fill="#FFCC00" d="M234.024,474.799c0-4.727,3.273-7.969,7.243-7.969c4,0,6.879,3.242,6.879,7.969v0.485h-12.213
		c0.091,3.425,2.606,5.758,5.576,5.758c2.212,0,3.818-1.333,4.697-3.454l1.606,0.727c-1.182,2.728-3.667,4.425-6.546,4.425
		C237.297,482.739,234.024,479.527,234.024,474.799z M235.934,473.709h10.304c-0.364-3.122-2.364-5.183-5-5.183
		C238.51,468.526,236.297,470.587,235.934,473.709z"/>
	<path fill="#FFCC00" d="M254.144,482.496v-15.363h1.788v3.363h0.242c1.182-2.121,3.182-3.666,5.637-3.666
		c4.879,0,4.879,3.879,4.879,4.454v0.454h-1.758v-0.121c0-0.363-0.03-3.091-3.303-3.091c-2.606,0-5.697,2.697-5.697,7.272v6.697
		H254.144z"/>
	<path fill="#FFCC00" d="M272.809,474.799c0-4.727,3.273-7.969,7.243-7.969c4,0,6.879,3.242,6.879,7.969v0.485h-12.213
		c0.091,3.425,2.606,5.758,5.576,5.758c2.212,0,3.818-1.333,4.697-3.454l1.606,0.727c-1.182,2.728-3.667,4.425-6.546,4.425
		C276.082,482.739,272.809,479.527,272.809,474.799z M274.718,473.709h10.304c-0.364-3.122-2.364-5.183-5-5.183
		C277.294,468.526,275.082,470.587,274.718,473.709z"/>
	<path fill="#FFCC00" d="M317.32,477.981c0,1.546,1,3.061,3.364,3.061c1.333,0,2.879-0.575,3.667-2l1.576,0.788
		c-1.151,2.061-3.364,2.909-5.243,2.909c-3.606,0-5.151-2.394-5.151-4.849v-9.121h-4.333v-1.637h4.333v-5.546h1.788v5.546h7.516
		v1.637h-7.516V477.981z"/>
	<path fill="#FFCC00" d="M331.712,482.496v-20.909h1.788v8.909h0.242c1.182-2.121,3.182-3.666,5.637-3.666
		c4.879,0,4.909,3.879,4.909,4.454v11.212H342.5v-10.879c0-0.363-0.03-3.091-3.303-3.091c-2.606,0-5.697,2.697-5.697,7.272v6.697
		H331.712z"/>
	<path fill="#FFCC00" d="M350.377,474.799c0-4.727,3.273-7.969,7.243-7.969c4,0,6.879,3.242,6.879,7.969v0.485h-12.213
		c0.091,3.425,2.606,5.758,5.576,5.758c2.212,0,3.818-1.333,4.697-3.454l1.606,0.727c-1.182,2.728-3.667,4.425-6.546,4.425
		C353.65,482.739,350.377,479.527,350.377,474.799z M352.286,473.709h10.304c-0.364-3.122-2.364-5.183-5-5.183
		C354.862,468.526,352.65,470.587,352.286,473.709z"/>
	<path fill="#FFCC00" d="M390.979,477.557c0,0.061,0.333,1.213,1.304,2.031c0.848,0.696,2.15,1.363,4.272,1.363
		c2.091,0,3.272-0.576,3.97-1.213c0.697-0.666,0.879-1.394,0.879-1.787c0-2.273-3.092-2.213-5.242-2.455
		c-2.121-0.242-4.516-0.576-5.577-1.939c-0.606-0.787-0.848-1.484-0.848-2.091c0-0.394,0.091-1.546,0.97-2.636
		c0.788-1.031,2.333-2,5.212-2c3.091,0,4.667,1.211,5.546,2.454c0.788,1.182,0.818,2.364,0.818,2.425h-1.818
		c0-0.031-0.03-0.879-0.576-1.637c-0.576-0.788-1.666-1.546-3.879-1.546c-2.182,0-3.242,0.575-3.818,1.243
		c-0.545,0.636-0.605,1.271-0.605,1.545c0.03,1.788,2.212,2.182,5,2.484c3.637,0.395,4.697,0.576,5.728,1.606
		c0.636,0.637,0.939,1.546,0.939,2.576c0,0.606-0.272,1.757-1.212,2.788c-0.939,1.03-2.576,1.97-5.364,1.97
		c-2.879,0-4.667-0.97-5.788-2.062c-1.364-1.333-1.788-3.029-1.788-3.121H390.979z"/>
	<path fill="#FFCC00" d="M410.25,467.133h6.668v13.728h5.696v1.636h-13.183v-1.636h5.697V468.77h-4.879V467.133z M416.039,461.375
		c0.969,0,1.758,0.787,1.758,1.758c0,0.969-0.789,1.727-1.758,1.727c-0.971,0-1.729-0.758-1.729-1.727
		C414.311,462.162,415.068,461.375,416.039,461.375z"/>
	<path fill="#FFCC00" d="M441.674,482.496h-1.789v-2.697h-0.182c-1.363,1.939-3.151,2.94-5.182,2.94
		c-3.849,0-6.909-3.576-6.909-7.94c0-4.394,3.061-7.969,6.909-7.969c2.03,0,3.818,1.182,5.182,3.121h0.182v-8.364h1.789V482.496z
		 M439.885,474.77c0-3.697-1.908-6.243-5.242-6.243c-2.909,0-5.182,2.758-5.182,6.272c0,3.485,2.272,6.243,5.182,6.243
		c3.242,0,5.152-2.454,5.242-6V474.77z"/>
	<path fill="#FFCC00" d="M447.338,474.799c0-4.727,3.272-7.969,7.242-7.969c4,0,6.879,3.242,6.879,7.969v0.485h-12.213
		c0.092,3.425,2.607,5.758,5.576,5.758c2.213,0,3.818-1.333,4.697-3.454l1.606,0.727c-1.182,2.728-3.667,4.425-6.546,4.425
		C450.61,482.739,447.338,479.527,447.338,474.799z M449.246,473.709h10.305c-0.364-3.122-2.364-5.183-5.001-5.183
		C451.822,468.526,449.61,470.587,449.246,473.709z"/>
	<path fill="#FFCC00" d="M465.396,467.133h1.818l2.605,12.818l2.85-11.092h2.182l2.848,11.092l2.606-12.818h1.818l-3.333,15.363
		h-2.121l-2.91-11.516l-2.908,11.516h-2.121L465.396,467.133z"/>
	<path fill="#FFCC00" d="M486.455,471.466c0,0,0.091-4.636,6.273-4.636c4.939,0,5.242,3,5.242,4.575v8.001
		c0,0.515,0.151,1.757,1.637,1.787c1.061,0,1.484-0.818,1.515-0.879l1.516,0.758c-0.03,0.061-0.97,1.667-3.062,1.667
		c-2.061,0-2.818-1.212-3.029-2.272h-0.273c-1.787,1.969-4.182,2.272-4.939,2.272c-1,0-5.605-0.091-5.637-4.788
		c0-2.879,2.971-4.182,5.334-4.667l5.182-1.091v-0.788c0-0.939-0.212-2.879-3.545-2.879c-4.364,0-4.425,2.939-4.425,2.939H486.455z
		 M496.213,473.83l-4.545,0.969c-2.243,0.485-4.183,1.213-4.183,3.122c0.03,2.909,3.151,3.121,3.818,3.121
		c2.243,0,4.909-1.697,4.909-3.818V473.83z"/>
	<path fill="#FFCC00" d="M507.211,461.587h6.667v19.273h5.697v1.636h-13.183v-1.636h5.697v-17.638h-4.879V461.587z"/>
	<path fill="#FFCC00" d="M525.967,482.496v-20.909h1.788v11.516h0.272l7.212-5.97h2.606l-6.212,5.242v0.303l7.637,9.818h-2.334
		l-6.637-8.516h-0.424l-2.121,1.789v6.727H525.967z"/>
	<path fill="#FFCC00" d="M563.689,474.799c0-4.727,3.272-7.969,7.242-7.969c4,0,6.879,3.242,6.879,7.969v0.485h-12.212
		c0.091,3.425,2.605,5.758,5.575,5.758c2.213,0,3.818-1.333,4.697-3.454l1.606,0.727c-1.182,2.728-3.667,4.425-6.546,4.425
		C566.962,482.739,563.689,479.527,563.689,474.799z M565.599,473.709h10.303c-0.363-3.122-2.363-5.183-5-5.183
		C568.174,468.526,565.962,470.587,565.599,473.709z"/>
	<path fill="#FFCC00" d="M583.808,482.496v-15.363h1.788v3.363h0.243c1.182-2.121,3.182-3.666,5.636-3.666
		c4.879,0,4.909,3.879,4.909,4.454v11.212h-1.787v-10.879c0-0.363-0.03-3.091-3.304-3.091c-2.605,0-5.697,2.697-5.697,7.272v6.697
		H583.808z"/>
	<path fill="#FFCC00" d="M616.2,482.496h-1.788v-2.697h-0.182c-1.364,1.939-3.151,2.94-5.182,2.94c-3.849,0-6.91-3.576-6.91-7.94
		c0-4.394,3.062-7.969,6.91-7.969c2.03,0,3.817,1.182,5.182,3.121h0.182v-8.364h1.788V482.496z M614.412,474.77
		c0-3.697-1.909-6.243-5.242-6.243c-2.909,0-5.183,2.758-5.183,6.272c0,3.485,2.273,6.243,5.183,6.243c3.242,0,5.151-2.454,5.242-6
		V474.77z"/>
	<path fill="#FFCC00" d="M623.683,477.557c0,0.061,0.333,1.213,1.303,2.031c0.849,0.696,2.151,1.363,4.272,1.363
		c2.092,0,3.273-0.576,3.97-1.213c0.697-0.666,0.879-1.394,0.879-1.787c0-2.273-3.091-2.213-5.242-2.455
		c-2.121-0.242-4.516-0.576-5.576-1.939c-0.605-0.787-0.849-1.484-0.849-2.091c0-0.394,0.091-1.546,0.97-2.636
		c0.788-1.031,2.334-2,5.213-2c3.091,0,4.667,1.211,5.545,2.454c0.788,1.182,0.818,2.364,0.818,2.425h-1.818
		c0-0.031-0.03-0.879-0.575-1.637c-0.576-0.788-1.667-1.546-3.879-1.546c-2.182,0-3.243,0.575-3.818,1.243
		c-0.546,0.636-0.606,1.271-0.606,1.545c0.03,1.788,2.213,2.182,5,2.484c3.637,0.395,4.697,0.576,5.728,1.606
		c0.637,0.637,0.939,1.546,0.939,2.576c0,0.606-0.272,1.757-1.212,2.788c-0.939,1.03-2.576,1.97-5.363,1.97
		c-2.879,0-4.667-0.97-5.788-2.062c-1.364-1.333-1.788-3.029-1.788-3.121H623.683z"/>
</g>
<g>
	<path d="M70.629,225.588v12.076h-1.032v-10.204h-0.123c-0.91,0.665-1.908,0.77-2.993,0.77v-0.962c1.418,0,3.116-0.35,3.116-1.68
		H70.629z"/>
	<path d="M75.389,228.966v-0.158c0-0.84,0.928-3.36,3.675-3.36c2.468,0,3.728,2.188,3.728,3.36v0.035
		c0,1.067-0.158,2.643-2.555,4.078c-1.453,0.875-2.451,1.541-3.098,2.223c-0.262,0.297-0.473,0.612-0.612,0.945v0.63h6.738v0.945
		h-7.998v-0.105c0-1.488,0.385-2.293,1.12-3.081c0.735-0.788,1.943-1.592,3.378-2.52c1.925-1.243,1.96-2.205,1.96-2.888v-0.105
		c0-0.893-0.91-2.538-2.643-2.538c-1.978,0-2.625,1.89-2.625,2.538H75.389z"/>
	<path d="M89.74,236.702c0-0.578,0.49-1.068,1.067-1.068c0.63,0,1.103,0.49,1.103,1.068c0,0.63-0.472,1.103-1.103,1.103
		C90.229,237.805,89.74,237.332,89.74,236.702z"/>
	<path d="M104.213,227.251c0.7,1.103,1.05,2.643,1.05,4.34c0,1.733-0.35,3.273-1.05,4.411c-0.683,1.12-1.627,1.803-2.87,1.803
		c-1.278,0-2.24-0.683-2.923-1.803c-0.7-1.138-1.05-2.678-1.05-4.411c0-1.698,0.35-3.238,1.05-4.34
		c0.683-1.103,1.645-1.803,2.923-1.803C102.585,225.448,103.53,226.148,104.213,227.251z M99.19,227.951
		c-0.49,0.91-0.752,2.205-0.752,3.64c0,1.47,0.262,2.766,0.752,3.693c0.508,0.963,1.225,1.54,2.135,1.54s1.61-0.577,2.118-1.54
		c0.49-0.927,0.752-2.223,0.752-3.693c0-1.435-0.262-2.73-0.752-3.64c-0.507-0.945-1.208-1.523-2.118-1.523
		S99.698,227.006,99.19,227.951z"/>
	<path d="M115.518,228.476c-0.438-1.208-1.243-2.048-2.73-2.048c-1.978,0-3.168,2.258-3.168,5.373h0.07
		c0.613-1.225,1.698-2.205,2.976-2.205c2.24,0,3.938,1.873,3.938,4.166c0,2.24-1.698,4.043-3.851,4.043
		c-1.733,0-3.01-1.033-3.693-2.783c-0.35-0.945-0.508-2.065-0.508-3.378c0-3.396,1.593-6.196,4.201-6.196
		c1.995,0,3.098,1.068,3.71,2.695L115.518,228.476z M109.953,233.709c0,1.733,1.243,3.115,2.783,3.115c1.558,0,2.8-1.382,2.8-3.115
		c0-1.732-1.243-3.133-2.8-3.133C111.195,230.576,109.953,231.977,109.953,233.709z"/>
	<path d="M122.291,236.702c0-0.578,0.49-1.068,1.067-1.068c0.63,0,1.103,0.49,1.103,1.068c0,0.63-0.472,1.103-1.103,1.103
		C122.78,237.805,122.291,237.332,122.291,236.702z"/>
	<path d="M134.681,225.588v12.076h-1.032v-10.204h-0.123c-0.91,0.665-1.908,0.77-2.993,0.77v-0.962c1.418,0,3.116-0.35,3.116-1.68
		H134.681z"/>
	<path d="M140.211,234.199c0,0,0.21,2.625,2.712,2.625c2.538,0,2.748-2.625,2.748-3.413c0-0.98-0.42-3.01-2.363-3.01
		c-1.417,0-2.38,1.505-2.416,1.715l-1.242-0.14l0.612-6.388h5.968v0.945h-5.006c-0.14,1.313-0.315,2.73-0.438,4.078h0.053
		c0.507-0.578,1.4-1.278,2.52-1.278c2.8,0,3.396,2.678,3.396,4.025c0,1.015-0.315,4.446-3.833,4.446
		c-3.098,0-3.693-2.888-3.763-3.448L140.211,234.199z"/>
	<path d="M65.939,268.967v-0.158c0-0.84,0.928-3.36,3.675-3.36c2.468,0,3.728,2.188,3.728,3.36v0.035
		c0,1.067-0.158,2.643-2.555,4.078c-1.453,0.875-2.451,1.54-3.098,2.223c-0.262,0.297-0.473,0.612-0.612,0.945v0.629h6.738v0.945
		h-7.998v-0.104c0-1.487,0.385-2.293,1.12-3.081c0.735-0.787,1.943-1.592,3.378-2.52c1.925-1.242,1.96-2.205,1.96-2.888v-0.104
		c0-0.893-0.91-2.539-2.643-2.539c-1.978,0-2.625,1.891-2.625,2.539H65.939z"/>
	<path d="M78.802,277.664v-0.053c0-5.6,2.415-9.24,3.78-10.815v-0.263h-5.671v-0.945h7.246v0.98c0,0-4.306,3.605-4.306,11.096
		H78.802z"/>
	<path d="M89.74,276.702c0-0.577,0.49-1.067,1.067-1.067c0.63,0,1.103,0.49,1.103,1.067c0,0.63-0.472,1.103-1.103,1.103
		C90.229,277.805,89.74,277.332,89.74,276.702z"/>
	<path d="M104.212,267.251c0.7,1.103,1.05,2.643,1.05,4.341c0,1.732-0.35,3.272-1.05,4.41c-0.683,1.12-1.627,1.803-2.87,1.803
		c-1.278,0-2.24-0.683-2.923-1.803c-0.7-1.138-1.05-2.678-1.05-4.41c0-1.698,0.35-3.238,1.05-4.341
		c0.683-1.103,1.645-1.803,2.923-1.803C102.585,265.448,103.53,266.148,104.212,267.251z M99.189,267.951
		c-0.49,0.91-0.752,2.205-0.752,3.641c0,1.47,0.262,2.766,0.752,3.692c0.508,0.963,1.225,1.54,2.135,1.54s1.61-0.577,2.118-1.54
		c0.49-0.927,0.752-2.223,0.752-3.692c0-1.436-0.262-2.73-0.752-3.641c-0.507-0.945-1.208-1.523-2.118-1.523
		S99.697,267.006,99.189,267.951z"/>
	<path d="M115.168,268.477c-0.438-1.208-1.243-2.049-2.73-2.049c-1.978,0-3.168,2.258-3.168,5.373h0.07
		c0.613-1.225,1.698-2.205,2.976-2.205c2.24,0,3.938,1.873,3.938,4.166c0,2.24-1.698,4.043-3.851,4.043
		c-1.733,0-3.01-1.033-3.693-2.783c-0.35-0.945-0.508-2.064-0.508-3.377c0-3.396,1.593-6.196,4.201-6.196
		c1.995,0,3.098,1.067,3.71,2.695L115.168,268.477z M109.603,273.709c0,1.732,1.243,3.115,2.783,3.115c1.558,0,2.8-1.383,2.8-3.115
		s-1.243-3.133-2.8-3.133C110.845,270.576,109.603,271.977,109.603,273.709z"/>
	<path d="M121.94,276.702c0-0.577,0.49-1.067,1.067-1.067c0.63,0,1.103,0.49,1.103,1.067c0,0.63-0.472,1.103-1.103,1.103
		C122.43,277.805,121.94,277.332,121.94,276.702z"/>
	<path d="M135.03,265.588v12.076h-1.032v-10.203h-0.123c-0.91,0.665-1.908,0.77-2.993,0.77v-0.962c1.418,0,3.116-0.351,3.116-1.681
		H135.03z"/>
	<path d="M140.911,274.199c0,0,0.21,2.625,2.712,2.625c2.538,0,2.748-2.625,2.748-3.412c0-0.98-0.42-3.011-2.363-3.011
		c-1.417,0-2.38,1.505-2.416,1.716l-1.242-0.141l0.612-6.389h5.968v0.945h-5.005c-0.14,1.312-0.315,2.73-0.438,4.078h0.053
		c0.507-0.578,1.4-1.277,2.52-1.277c2.8,0,3.396,2.678,3.396,4.025c0,1.015-0.315,4.445-3.833,4.445
		c-3.098,0-3.693-2.888-3.763-3.447L140.911,274.199z"/>
</g>
<g>
	<path fill="#FFCC00" d="M435.923,101.665V89.588h7.823v0.998h-6.756v4.463h6.23v0.998h-6.23v5.618H435.923z"/>
	<path fill="#FFCC00" d="M454.719,90.586h-6.756v4.463h6.23v0.998h-6.23v4.621h7.281v0.998h-8.349V89.588h7.823V90.586z"/>
	<path fill="#FFCC00" d="M464.52,90.218c0.77,0.525,1.365,1.312,1.803,2.573h-1.174c-0.332-0.822-0.752-1.4-1.347-1.785
		c-0.595-0.368-1.348-0.525-2.328-0.525c-0.735,0-1.54,0.21-2.136,0.595c-0.646,0.402-1.066,0.962-1.066,1.715
		c0,0.49,0.191,0.875,0.524,1.208c0.473,0.473,0.945,0.683,3.133,0.875c2.188,0.192,3.203,0.49,4.113,1.435
		c0.454,0.473,0.7,1.085,0.7,1.82c0,1.19-0.438,2.118-1.261,2.748c-0.805,0.613-1.995,0.928-3.378,0.928
		c-1.33,0-2.484-0.368-3.412-1.068c-0.875-0.665-1.628-1.82-1.891-2.975h1.138c0.298,0.945,0.806,1.803,1.522,2.31
		c0.7,0.508,1.575,0.7,2.59,0.7c1.104,0,1.979-0.158,2.608-0.613c0.647-0.472,0.979-1.208,0.979-2.083
		c0-0.42-0.191-0.823-0.507-1.138c-0.858-0.857-1.925-0.822-3.466-1.015c-1.978-0.245-2.748-0.333-3.641-1.19
		c-0.507-0.49-0.857-1.173-0.857-2.048c0-1.05,0.543-1.837,1.383-2.397s1.926-0.84,2.905-0.84
		C462.752,89.448,463.749,89.676,464.52,90.218z"/>
	<path fill="#FFCC00" d="M477.75,90.586h-4.184v11.079h-1.067V90.586h-4.147v-0.998h9.398V90.586z"/>
	<path fill="#FFCC00" d="M480.602,89.588h7.298v0.998h-3.115v10.081h3.115v0.998h-7.298v-0.998h3.115V90.586h-3.115V89.588z"/>
	<path fill="#FFCC00" d="M500.15,89.588l-3.852,12.076h-1.732l-3.85-12.076h1.154l3.535,11.289h0.053l3.535-11.289H500.15z"/>
	<path fill="#FFCC00" d="M510.721,90.586h-6.756v4.463h6.23v0.998h-6.23v4.621h7.28v0.998h-8.349V89.588h7.824V90.586z"/>
	<path fill="#FFCC00" d="M525.455,91.128c0.928-1.067,2.223-1.68,3.623-1.68c1.364,0,2.643,0.613,3.553,1.68
		c0.945,1.085,1.487,2.625,1.487,4.498c0,1.89-0.542,3.43-1.47,4.516c-0.928,1.067-2.206,1.663-3.57,1.663
		c-1.4,0-2.695-0.595-3.641-1.68c-0.928-1.068-1.488-2.608-1.488-4.498C523.949,93.754,524.51,92.213,525.455,91.128z
		 M526.242,99.389c0.718,0.893,1.715,1.383,2.801,1.383c1.084,0,2.082-0.49,2.8-1.383s1.173-2.17,1.173-3.763
		c0-1.575-0.455-2.853-1.173-3.746s-1.716-1.4-2.8-1.4c-1.086,0-2.083,0.507-2.801,1.4c-0.734,0.893-1.189,2.17-1.189,3.746
		C525.053,97.219,525.508,98.497,526.242,99.389z"/>
	<path fill="#FFCC00" d="M537.407,96.659v5.005h-1.067V89.588h5.479c1.785,0,3.22,1.54,3.22,3.5c0,1.96-1.435,3.57-3.22,3.57
		H537.407z M537.407,95.662h4.271c1.225,0,2.258-1.138,2.258-2.538c0-1.4-1.033-2.538-2.258-2.538h-4.271V95.662z"/>
	<path fill="#FFCC00" d="M555.521,90.586h-6.756v4.463h6.23v0.998h-6.23v4.621h7.28v0.998h-8.349V89.588h7.824V90.586z"/>
	<path fill="#FFCC00" d="M567.316,89.588v12.076h-1.926l-6.283-11.324h-0.07v11.324h-1.066V89.588h1.925l6.266,11.324h0.087V89.588
		H567.316z"/>
	<path fill="#FFCC00" d="M570.203,89.588h7.298v0.998h-3.115v10.081h3.115v0.998h-7.298v-0.998h3.115V90.586h-3.115V89.588z"/>
	<path fill="#FFCC00" d="M589.717,89.588v12.076h-1.926l-6.283-11.324h-0.07v11.324h-1.066V89.588h1.925l6.266,11.324h0.087V89.588
		H589.717z"/>
	<path fill="#FFCC00" d="M599.832,99.547c-0.402,0.7-0.928,1.243-1.541,1.627c-0.63,0.42-1.348,0.63-2.188,0.63
		c-1.418,0-2.695-0.595-3.623-1.663c-0.928-1.085-1.487-2.625-1.487-4.516c0-1.873,0.56-3.413,1.505-4.498
		c0.91-1.067,2.188-1.68,3.605-1.68c1.068,0,2.065,0.368,2.905,1.033c0.823,0.647,1.61,1.732,1.855,2.888h-1.085
		c-0.315-0.893-0.84-1.663-1.488-2.17c-0.647-0.507-1.4-0.717-2.188-0.717c-1.103,0-2.1,0.507-2.818,1.382
		c-0.734,0.91-1.189,2.17-1.189,3.746c0,1.61,0.455,2.888,1.189,3.798c0.719,0.875,1.716,1.365,2.818,1.365
		c0.928,0,1.873-0.402,2.572-1.155c0.684-0.717,1.156-1.785,1.226-3.133h-3.675v-0.998h4.672v6.178h-1.066V99.547z"/>
	<path fill="#FFCC00" d="M606.359,94.244c0-0.578,0.489-1.067,1.066-1.067c0.631,0,1.104,0.49,1.104,1.067
		c0,0.63-0.473,1.103-1.104,1.103C606.849,95.346,606.359,94.874,606.359,94.244z M606.359,100.702c0-0.578,0.489-1.068,1.066-1.068
		c0.631,0,1.104,0.49,1.104,1.068c0,0.63-0.473,1.103-1.104,1.103C606.849,101.805,606.359,101.332,606.359,100.702z"/>
	<path d="M442.695,110.588v12.076h-1.031v-10.204h-0.123c-0.91,0.665-1.908,0.77-2.993,0.77v-0.962c1.418,0,3.116-0.35,3.116-1.68
		H442.695z"/>
	<path d="M447.806,113.966v-0.158c0-0.84,0.928-3.36,3.675-3.36c2.469,0,3.729,2.188,3.729,3.36v0.035
		c0,1.067-0.158,2.643-2.555,4.078c-1.453,0.875-2.451,1.541-3.099,2.223c-0.263,0.297-0.473,0.612-0.612,0.945v0.63h6.738v0.945
		h-7.998v-0.105c0-1.488,0.385-2.293,1.119-3.081c0.735-0.788,1.943-1.592,3.379-2.52c1.925-1.243,1.959-2.205,1.959-2.888v-0.105
		c0-0.893-0.91-2.538-2.643-2.538c-1.978,0-2.625,1.89-2.625,2.538H447.806z"/>
	<path d="M462.156,121.702c0-0.578,0.49-1.068,1.067-1.068c0.63,0,1.103,0.49,1.103,1.068c0,0.63-0.473,1.103-1.103,1.103
		C462.646,122.805,462.156,122.332,462.156,121.702z"/>
	<path d="M477.329,112.251c0.7,1.103,1.05,2.643,1.05,4.34c0,1.733-0.35,3.273-1.05,4.411c-0.683,1.12-1.628,1.803-2.87,1.803
		c-1.277,0-2.24-0.683-2.923-1.803c-0.7-1.138-1.05-2.678-1.05-4.411c0-1.698,0.35-3.238,1.05-4.34
		c0.683-1.103,1.646-1.803,2.923-1.803C475.701,110.448,476.646,111.148,477.329,112.251z M472.307,112.951
		c-0.49,0.91-0.753,2.205-0.753,3.64c0,1.47,0.263,2.766,0.753,3.693c0.508,0.963,1.225,1.54,2.135,1.54s1.61-0.577,2.117-1.54
		c0.49-0.927,0.753-2.223,0.753-3.693c0-1.435-0.263-2.73-0.753-3.64c-0.507-0.945-1.207-1.523-2.117-1.523
		S472.814,112.006,472.307,112.951z"/>
	<path d="M488.635,113.476c-0.438-1.208-1.243-2.048-2.73-2.048c-1.979,0-3.168,2.258-3.168,5.373h0.07
		c0.612-1.225,1.697-2.205,2.975-2.205c2.24,0,3.938,1.873,3.938,4.166c0,2.24-1.698,4.043-3.851,4.043
		c-1.732,0-3.01-1.033-3.693-2.783c-0.35-0.945-0.508-2.065-0.508-3.378c0-3.396,1.594-6.196,4.201-6.196
		c1.995,0,3.098,1.068,3.711,2.695L488.635,113.476z M483.068,118.709c0,1.733,1.243,3.115,2.783,3.115
		c1.558,0,2.801-1.382,2.801-3.115c0-1.732-1.243-3.133-2.801-3.133C484.312,115.576,483.068,116.977,483.068,118.709z"/>
	<path d="M495.757,121.702c0-0.578,0.489-1.068,1.067-1.068c0.631,0,1.103,0.49,1.103,1.068c0,0.63-0.472,1.103-1.103,1.103
		C496.246,122.805,495.757,122.332,495.757,121.702z"/>
	<path d="M509.896,110.588v12.076h-1.031v-10.204h-0.123c-0.91,0.665-1.908,0.77-2.993,0.77v-0.962c1.418,0,3.116-0.35,3.116-1.68
		H509.896z"/>
	<path d="M516.827,119.199c0,0,0.21,2.625,2.712,2.625c2.539,0,2.748-2.625,2.748-3.413c0-0.98-0.42-3.01-2.362-3.01
		c-1.417,0-2.38,1.505-2.415,1.715l-1.242-0.14l0.611-6.388h5.969v0.945h-5.006c-0.14,1.313-0.314,2.73-0.438,4.078h0.053
		c0.508-0.578,1.4-1.278,2.52-1.278c2.801,0,3.396,2.678,3.396,4.025c0,1.015-0.315,4.446-3.834,4.446
		c-3.098,0-3.692-2.888-3.762-3.448L516.827,119.199z"/>
	<path d="M545.773,112.111c-0.49-0.665-1.418-0.962-2.205-0.962c-1.348,0-1.926,0.875-1.926,1.768v0.875h3.308v0.945h-3.308v7.928
		h-1.033v-7.928h-2.572v-0.945h2.572v-0.822c0-1.418,0.893-2.8,2.959-2.8c1.066,0,2.345,0.42,3.045,1.382L545.773,112.111z"/>
	<path d="M549.202,122.665v-8.874h1.032v1.943h0.141c0.683-1.225,1.838-2.118,3.256-2.118c2.817,0,2.817,2.24,2.817,2.573v0.262
		h-1.015v-0.07c0-0.21-0.018-1.785-1.908-1.785c-1.506,0-3.291,1.558-3.291,4.201v3.868H549.202z"/>
	<path d="M564.061,113.616c2.258,0,4.148,1.873,4.148,4.603c0,2.73-1.891,4.585-4.148,4.585c-2.293,0-4.184-1.855-4.184-4.585
		C559.877,115.489,561.768,113.616,564.061,113.616z M564.043,121.824c1.697,0,3.098-1.453,3.098-3.605
		c0-2.153-1.4-3.623-3.098-3.623s-3.098,1.47-3.098,3.623C560.945,120.372,562.346,121.824,564.043,121.824z"/>
	<path d="M571.48,122.665h-1.033v-8.874h1.033v1.278h0.228c0.56-0.945,1.05-1.453,1.872-1.453c1.226,0,1.768,0.752,2.014,1.453
		h0.262c0.561-0.928,1.173-1.453,1.996-1.453c2.188,0,2.205,2.013,2.205,2.363v6.686h-1.033v-6.546c0-0.228-0.018-1.522-1.242-1.522
		c-0.98,0-2.014,1.453-2.014,2.958v5.11h-1.031v-6.546c0-0.228-0.018-1.522-1.227-1.522c-0.979,0-2.029,1.453-2.029,2.958V122.665z"
		/>
	<path d="M592.988,118.569l5.793-7.981h1.312v7.753h2.188v0.945h-2.188v3.378h-1.033v-3.378h-6.072V118.569z M594.248,118.342h4.812
		v-6.458h-0.034C597.171,114.474,596.086,115.804,594.248,118.342z"/>
	<path d="M613.061,117.974h6.949v0.945h-6.949V117.974z"/>
	<path d="M633.326,116.259v-0.123c-0.963-0.578-1.75-1.505-1.75-2.573c0-1.732,1.593-3.115,3.5-3.115
		c1.943,0,3.536,1.383,3.536,3.115c0,1.05-0.823,1.995-1.769,2.555v0.14c1.139,0.63,2.102,1.75,2.102,3.01
		c0,1.96-1.733,3.536-3.869,3.536c-2.1,0-3.832-1.575-3.832-3.536C631.244,118.009,632.172,116.889,633.326,116.259z
		 M635.094,121.824c1.541,0,2.783-1.137,2.783-2.573c0-1.382-1.189-2.573-2.66-2.573h-0.245c-1.487,0.07-2.66,1.19-2.66,2.573
		C632.312,120.687,633.555,121.824,635.094,121.824z M635.094,115.716c1.348,0,2.451-0.945,2.451-2.135
		c0-1.208-1.104-2.17-2.451-2.17s-2.449,0.963-2.449,2.17C632.645,114.771,633.746,115.716,635.094,115.716z"/>
	<path d="M654.659,117.659v5.005h-1.067v-12.076h5.479c1.785,0,3.22,1.54,3.22,3.5c0,1.96-1.435,3.57-3.22,3.57H654.659z
		 M654.659,116.662h4.271c1.225,0,2.258-1.138,2.258-2.538c0-1.4-1.033-2.538-2.258-2.538h-4.271V116.662z"/>
	<path d="M673,122.665v-10.991l-2.713,9.539h-1.785l-2.713-9.539v10.991h-1.066v-12.076h1.837l2.782,9.696h0.105l2.783-9.696h1.838
		v12.076H673z"/>
	<path d="M438.006,159.659v5.005h-1.068v-12.076h5.479c1.785,0,3.221,1.54,3.221,3.5c0,1.96-1.436,3.57-3.221,3.57H438.006z
		 M438.006,158.662h4.27c1.226,0,2.258-1.138,2.258-2.538c0-1.4-1.032-2.538-2.258-2.538h-4.27V158.662z"/>
	<path d="M448.4,164.665v-8.874h1.033v1.943h0.14c0.683-1.225,1.838-2.118,3.255-2.118c2.818,0,2.818,2.24,2.818,2.573v0.262h-1.016
		v-0.07c0-0.21-0.018-1.785-1.907-1.785c-1.505,0-3.29,1.558-3.29,4.201v3.868H448.4z"/>
	<path d="M460.161,155.791h3.851v7.928h3.29v0.945h-7.613v-0.945h3.29v-6.983h-2.817V155.791z M463.504,152.466
		c0.561,0,1.016,0.455,1.016,1.015s-0.455,0.998-1.016,0.998s-0.998-0.438-0.998-0.998S462.943,152.466,463.504,152.466z"/>
	<path d="M470.801,164.665v-8.874h1.033v1.943h0.14c0.683-1.225,1.838-2.118,3.255-2.118c2.818,0,2.836,2.24,2.836,2.573v6.476
		h-1.033v-6.283c0-0.21-0.018-1.785-1.907-1.785c-1.505,0-3.29,1.558-3.29,4.201v3.868H470.801z"/>
	<path d="M482.631,161.812c0,0.035,0.193,0.7,0.753,1.173c0.49,0.402,1.243,0.788,2.468,0.788c1.207,0,1.891-0.333,2.293-0.7
		c0.402-0.385,0.508-0.805,0.508-1.033c0-1.312-1.785-1.277-3.028-1.417c-1.226-0.14-2.608-0.333-3.22-1.12
		c-0.351-0.455-0.49-0.857-0.49-1.208c0-0.228,0.053-0.893,0.56-1.523c0.455-0.595,1.348-1.155,3.011-1.155
		c1.785,0,2.695,0.7,3.203,1.417c0.455,0.683,0.473,1.365,0.473,1.4h-1.051c0-0.018-0.018-0.508-0.332-0.945
		c-0.333-0.455-0.963-0.893-2.24-0.893c-1.261,0-1.873,0.333-2.205,0.718c-0.316,0.367-0.351,0.735-0.351,0.893
		c0.018,1.032,1.277,1.26,2.888,1.435c2.1,0.228,2.713,0.333,3.308,0.928c0.368,0.367,0.543,0.893,0.543,1.487
		c0,0.35-0.157,1.015-0.7,1.61s-1.488,1.138-3.098,1.138c-1.663,0-2.695-0.56-3.344-1.19c-0.787-0.77-1.031-1.75-1.031-1.803
		H482.631z"/>
	<path d="M492.781,160.219c0-2.73,1.891-4.603,4.184-4.603c2.31,0,3.973,1.873,3.973,4.603v0.28h-7.054
		c0.053,1.978,1.505,3.325,3.221,3.325c1.277,0,2.205-0.77,2.712-1.995l0.928,0.42c-0.682,1.575-2.117,2.555-3.779,2.555
		C494.672,164.805,492.781,162.949,492.781,160.219z M493.884,159.589h5.95c-0.209-1.803-1.365-2.993-2.887-2.993
		C495.371,156.596,494.094,157.786,493.884,159.589z"/>
	<path d="M505.031,161.812c0,0.035,0.193,0.7,0.753,1.173c0.49,0.402,1.243,0.788,2.468,0.788c1.207,0,1.891-0.333,2.293-0.7
		c0.402-0.385,0.508-0.805,0.508-1.033c0-1.312-1.785-1.277-3.028-1.417c-1.226-0.14-2.608-0.333-3.22-1.12
		c-0.351-0.455-0.49-0.857-0.49-1.208c0-0.228,0.053-0.893,0.56-1.523c0.455-0.595,1.348-1.155,3.011-1.155
		c1.785,0,2.695,0.7,3.203,1.417c0.455,0.683,0.473,1.365,0.473,1.4h-1.051c0-0.018-0.018-0.508-0.332-0.945
		c-0.333-0.455-0.963-0.893-2.24-0.893c-1.261,0-1.873,0.333-2.205,0.718c-0.316,0.367-0.351,0.735-0.351,0.893
		c0.018,1.032,1.277,1.26,2.888,1.435c2.1,0.228,2.713,0.333,3.308,0.928c0.368,0.367,0.543,0.893,0.543,1.487
		c0,0.35-0.157,1.015-0.7,1.61s-1.488,1.138-3.098,1.138c-1.663,0-2.695-0.56-3.344-1.19c-0.787-0.77-1.031-1.75-1.031-1.803
		H505.031z"/>
	<path d="M526.802,152.588h7.298v0.998h-3.115v10.081h3.115v0.998h-7.298v-0.998h3.116v-10.081h-3.116V152.588z"/>
	<path d="M538.002,164.665v-8.874h1.033v1.943h0.14c0.683-1.225,1.838-2.118,3.255-2.118c2.818,0,2.818,2.24,2.818,2.573v0.262
		h-1.016v-0.07c0-0.21-0.018-1.785-1.907-1.785c-1.505,0-3.29,1.558-3.29,4.201v3.868H538.002z"/>
	<path d="M548.782,160.219c0-2.73,1.89-4.603,4.183-4.603c2.311,0,3.973,1.873,3.973,4.603v0.28h-7.053
		c0.053,1.978,1.506,3.325,3.221,3.325c1.277,0,2.205-0.77,2.713-1.995l0.928,0.42c-0.684,1.575-2.118,2.555-3.781,2.555
		C550.672,164.805,548.782,162.949,548.782,160.219z M549.885,159.589h5.951c-0.211-1.803-1.365-2.993-2.889-2.993
		C551.373,156.596,550.096,157.786,549.885,159.589z"/>
	<path d="M560.402,164.665v-8.874h1.033v1.943h0.14c0.683-1.225,1.838-2.118,3.255-2.118c2.818,0,2.836,2.24,2.836,2.573v6.476
		h-1.033v-6.283c0-0.21-0.018-1.785-1.907-1.785c-1.505,0-3.29,1.558-3.29,4.201v3.868H560.402z"/>
	<path d="M571.183,160.219c0-2.73,1.89-4.603,4.183-4.603c2.311,0,3.973,1.873,3.973,4.603v0.28h-7.053
		c0.053,1.978,1.506,3.325,3.221,3.325c1.277,0,2.205-0.77,2.713-1.995l0.928,0.42c-0.684,1.575-2.118,2.555-3.781,2.555
		C573.072,164.805,571.183,162.949,571.183,160.219z M572.285,159.589h5.951c-0.211-1.803-1.365-2.993-2.889-2.993
		C573.773,156.596,572.496,157.786,572.285,159.589z"/>
	<path d="M583.363,152.588h3.85v11.131h3.291v0.945h-7.613v-0.945h3.29v-10.186h-2.817V152.588z"/>
	<path d="M593.775,158.294c0,0,0.053-2.678,3.623-2.678c2.854,0,3.027,1.732,3.027,2.643v4.621c0,0.297,0.088,1.015,0.945,1.033
		c0.613,0,0.857-0.473,0.875-0.508l0.875,0.438c-0.018,0.035-0.56,0.963-1.768,0.963c-1.189,0-1.627-0.7-1.75-1.313h-0.157
		c-1.032,1.138-2.415,1.313-2.853,1.313c-0.578,0-3.238-0.053-3.256-2.766c0-1.663,1.715-2.415,3.08-2.695l2.993-0.63v-0.455
		c0-0.542-0.122-1.663-2.048-1.663c-2.52,0-2.555,1.698-2.555,1.698H593.775z M599.411,159.659l-2.625,0.56
		c-1.296,0.28-2.415,0.7-2.415,1.803c0.018,1.68,1.82,1.802,2.205,1.802c1.295,0,2.835-0.98,2.835-2.205V159.659z"/>
	<path d="M604.977,158.294c0,0,0.052-2.678,3.622-2.678c2.853,0,3.028,1.732,3.028,2.643v4.621c0,0.297,0.087,1.015,0.945,1.033
		c0.611,0,0.857-0.473,0.875-0.508l0.875,0.438c-0.018,0.035-0.561,0.963-1.768,0.963c-1.19,0-1.629-0.7-1.751-1.313h-0.157
		c-1.033,1.138-2.416,1.313-2.854,1.313c-0.576,0-3.237-0.053-3.255-2.766c0-1.663,1.716-2.415,3.081-2.695l2.992-0.63v-0.455
		c0-0.542-0.123-1.663-2.048-1.663c-2.521,0-2.556,1.698-2.556,1.698H604.977z M610.611,159.659l-2.625,0.56
		c-1.295,0.28-2.416,0.7-2.416,1.803c0.018,1.68,1.82,1.802,2.206,1.802c1.295,0,2.835-0.98,2.835-2.205V159.659z"/>
	<path d="M616.403,164.665v-8.874h1.032v1.943h0.141c0.683-1.225,1.838-2.118,3.256-2.118c2.817,0,2.835,2.24,2.835,2.573v6.476
		h-1.032v-6.283c0-0.21-0.018-1.785-1.908-1.785c-1.506,0-3.291,1.558-3.291,4.201v3.868H616.403z"/>
	<path d="M642.479,160.849h-0.035l-2.626,3.815h-1.26l3.203-4.516v-0.21l-3.01-4.148h1.26l2.433,3.448h0.035l2.433-3.448h1.26
		l-3.01,4.148v0.21l3.203,4.516h-1.261L642.479,160.849z"/>
	<path d="M444.446,185.665v-10.991l-2.713,9.539h-1.785l-2.713-9.539v10.991h-1.067v-12.076h1.838l2.782,9.696h0.105l2.782-9.696
		h1.838v12.076H444.446z"/>
	<path d="M448.961,176.791h3.85v7.928h3.291v0.945h-7.613v-0.945h3.29v-6.983h-2.817V176.791z M452.304,173.466
		c0.56,0,1.015,0.455,1.015,1.015s-0.455,0.998-1.015,0.998s-0.997-0.438-0.997-0.998S451.744,173.466,452.304,173.466z"/>
	<path d="M459.601,185.665v-8.874h1.032v1.943h0.141c0.683-1.225,1.838-2.118,3.256-2.118c2.817,0,2.835,2.24,2.835,2.573v6.476
		h-1.032v-6.283c0-0.21-0.018-1.785-1.908-1.785c-1.506,0-3.291,1.558-3.291,4.201v3.868H459.601z"/>
	<path d="M470.381,181.219c0-2.73,1.891-4.603,4.184-4.603c2.31,0,3.973,1.873,3.973,4.603v0.28h-7.054
		c0.053,1.978,1.505,3.325,3.221,3.325c1.277,0,2.205-0.77,2.712-1.995l0.928,0.42c-0.682,1.575-2.117,2.555-3.779,2.555
		C472.271,185.805,470.381,183.949,470.381,181.219z M471.483,180.589h5.95c-0.209-1.803-1.365-2.993-2.887-2.993
		C472.971,177.596,471.693,178.786,471.483,180.589z"/>
	<path d="M482.001,185.665v-8.874h1.032v1.943h0.141c0.683-1.225,1.838-2.118,3.256-2.118c2.817,0,2.817,2.24,2.817,2.573v0.262
		h-1.015v-0.07c0-0.21-0.018-1.785-1.908-1.785c-1.506,0-3.291,1.558-3.291,4.201v3.868H482.001z"/>
	<path d="M500.85,176.791l-3.186,8.874h-1.645l-3.186-8.874h1.172l2.818,8.068h0.035l2.818-8.068H500.85z"/>
	<path d="M504.174,179.294c0,0,0.053-2.678,3.623-2.678c2.854,0,3.027,1.732,3.027,2.643v4.621c0,0.297,0.088,1.015,0.945,1.033
		c0.613,0,0.857-0.473,0.875-0.508l0.875,0.438c-0.018,0.035-0.56,0.963-1.768,0.963c-1.189,0-1.627-0.7-1.75-1.313h-0.157
		c-1.032,1.138-2.415,1.313-2.853,1.313c-0.578,0-3.238-0.053-3.256-2.766c0-1.663,1.715-2.415,3.08-2.695l2.993-0.63v-0.455
		c0-0.542-0.122-1.663-2.048-1.663c-2.52,0-2.555,1.698-2.555,1.698H504.174z M509.81,180.659l-2.625,0.56
		c-1.296,0.28-2.415,0.7-2.415,1.803c0.018,1.68,1.82,1.802,2.205,1.802c1.295,0,2.835-0.98,2.835-2.205V180.659z"/>
	<path d="M516.162,173.588h3.85v11.131h3.291v0.945h-7.613v-0.945h3.29v-10.186h-2.817V173.588z"/>
	<path d="M526.574,179.294c0,0,0.053-2.678,3.623-2.678c2.854,0,3.027,1.732,3.027,2.643v4.621c0,0.297,0.088,1.015,0.945,1.033
		c0.613,0,0.857-0.473,0.875-0.508l0.875,0.438c-0.018,0.035-0.56,0.963-1.768,0.963c-1.189,0-1.627-0.7-1.75-1.313h-0.157
		c-1.032,1.138-2.415,1.313-2.853,1.313c-0.578,0-3.238-0.053-3.256-2.766c0-1.663,1.715-2.415,3.08-2.695l2.993-0.63v-0.455
		c0-0.542-0.122-1.663-2.048-1.663c-2.52,0-2.555,1.698-2.555,1.698H526.574z M532.21,180.659l-2.625,0.56
		c-1.296,0.28-2.415,0.7-2.415,1.803c0.018,1.68,1.82,1.802,2.205,1.802c1.295,0,2.835-0.98,2.835-2.205V180.659z"/>
	<path d="M537.775,179.294c0,0,0.052-2.678,3.622-2.678c2.853,0,3.028,1.732,3.028,2.643v4.621c0,0.297,0.087,1.015,0.945,1.033
		c0.611,0,0.857-0.473,0.875-0.508l0.875,0.438c-0.018,0.035-0.561,0.963-1.768,0.963c-1.19,0-1.629-0.7-1.751-1.313h-0.157
		c-1.033,1.138-2.416,1.313-2.854,1.313c-0.576,0-3.237-0.053-3.255-2.766c0-1.663,1.716-2.415,3.081-2.695l2.992-0.63v-0.455
		c0-0.542-0.123-1.663-2.048-1.663c-2.521,0-2.556,1.698-2.556,1.698H537.775z M543.41,180.659l-2.625,0.56
		c-1.295,0.28-2.416,0.7-2.416,1.803c0.018,1.68,1.82,1.802,2.206,1.802c1.295,0,2.835-0.98,2.835-2.205V180.659z"/>
	<path d="M549.202,185.665v-8.874h1.032v1.943h0.141c0.683-1.225,1.838-2.118,3.256-2.118c2.817,0,2.835,2.24,2.835,2.573v6.476
		h-1.032v-6.283c0-0.21-0.018-1.785-1.908-1.785c-1.506,0-3.291,1.558-3.291,4.201v3.868H549.202z"/>
	<path d="M564.025,183.634c0.631,0,1.103,0.473,1.103,1.243v0.192c-0.14,1.855-2.013,3.36-2.013,3.36l-0.561-0.63
		c0.736-0.735,1.174-1.488,1.383-2.065c-0.524,0-0.979-0.455-0.979-1.032C562.958,184.125,563.447,183.634,564.025,183.634z"/>
	<path d="M581.35,185.665v-1.05l8.332-9.906v-0.123h-7.754v-0.998h9.049v1.033l-8.331,9.923v0.123h8.839v0.998H581.35z"/>
	<path d="M601.267,176.791v8.874h-1.032v-1.995h-0.141c-0.683,1.225-1.838,2.135-3.256,2.135c-2.817,0-2.835-2.24-2.835-2.573
		v-6.441h1.032v6.248c0,0.21,0.018,1.785,1.908,1.785c1.506,0,3.291-1.558,3.291-4.2v-3.833H601.267z"/>
	<path d="M605.764,176.791h3.85v7.928h3.291v0.945h-7.613v-0.945h3.29v-6.983h-2.817V176.791z M609.106,173.466
		c0.56,0,1.015,0.455,1.015,1.015s-0.455,0.998-1.015,0.998s-0.997-0.438-0.997-0.998S608.547,173.466,609.106,173.466z"/>
	<path d="M623.912,185.665h-1.033v-1.558h-0.104c-0.788,1.12-1.82,1.698-2.993,1.698c-2.223,0-3.99-2.065-3.99-4.585
		c0-2.538,1.768-4.603,3.99-4.603c1.173,0,2.205,0.683,2.993,1.803h0.104v-4.831h1.033V185.665z M622.879,181.202
		c0-2.135-1.102-3.605-3.027-3.605c-1.68,0-2.993,1.593-2.993,3.623c0,2.013,1.313,3.605,2.993,3.605
		c1.873,0,2.975-1.417,3.027-3.465V181.202z"/>
	<path d="M627.377,179.294c0,0,0.052-2.678,3.622-2.678c2.853,0,3.028,1.732,3.028,2.643v4.621c0,0.297,0.087,1.015,0.945,1.033
		c0.611,0,0.857-0.473,0.875-0.508l0.875,0.438c-0.018,0.035-0.561,0.963-1.768,0.963c-1.19,0-1.629-0.7-1.751-1.313h-0.157
		c-1.033,1.138-2.416,1.313-2.854,1.313c-0.576,0-3.237-0.053-3.255-2.766c0-1.663,1.716-2.415,3.081-2.695l2.992-0.63v-0.455
		c0-0.542-0.123-1.663-2.048-1.663c-2.521,0-2.556,1.698-2.556,1.698H627.377z M633.012,180.659l-2.625,0.56
		c-1.295,0.28-2.416,0.7-2.416,1.803c0.018,1.68,1.82,1.802,2.206,1.802c1.295,0,2.835-0.98,2.835-2.205V180.659z"/>
	<path d="M639.434,182.812c0,0.035,0.193,0.7,0.753,1.173c0.49,0.402,1.243,0.788,2.468,0.788c1.207,0,1.891-0.333,2.293-0.7
		c0.402-0.385,0.508-0.805,0.508-1.033c0-1.312-1.785-1.277-3.028-1.417c-1.226-0.14-2.608-0.333-3.22-1.12
		c-0.351-0.455-0.49-0.857-0.49-1.208c0-0.228,0.053-0.893,0.56-1.523c0.455-0.595,1.348-1.155,3.011-1.155
		c1.785,0,2.695,0.7,3.203,1.417c0.455,0.683,0.473,1.365,0.473,1.4h-1.051c0-0.018-0.018-0.508-0.332-0.945
		c-0.333-0.455-0.963-0.893-2.24-0.893c-1.261,0-1.873,0.333-2.205,0.718c-0.316,0.367-0.351,0.735-0.351,0.893
		c0.018,1.032,1.277,1.26,2.888,1.435c2.1,0.228,2.713,0.333,3.308,0.928c0.368,0.367,0.543,0.893,0.543,1.487
		c0,0.35-0.157,1.015-0.7,1.61s-1.488,1.138-3.098,1.138c-1.663,0-2.695-0.56-3.344-1.19c-0.787-0.77-1.031-1.75-1.031-1.803
		H639.434z"/>
	<path d="M663.987,173.588h1.697l3.851,12.076h-1.138l-1.138-3.588h-4.812l-1.138,3.588h-1.138L663.987,173.588z M666.928,181.062
		l-2.083-6.686h-0.018l-2.065,6.686H666.928z"/>
	<path d="M672.282,185.665h-1.032v-8.874h1.032v1.278h0.228c0.561-0.945,1.05-1.453,1.873-1.453c1.225,0,1.768,0.752,2.012,1.453
		h0.264c0.56-0.928,1.172-1.453,1.994-1.453c2.188,0,2.205,2.013,2.205,2.363v6.686h-1.032v-6.546c0-0.228-0.018-1.522-1.243-1.522
		c-0.979,0-2.012,1.453-2.012,2.958v5.11h-1.033v-6.546c0-0.228-0.018-1.522-1.225-1.522c-0.98,0-2.03,1.453-2.03,2.958V185.665z"/>
	<path d="M684.234,182.812c0,0.035,0.193,0.7,0.753,1.173c0.49,0.402,1.243,0.788,2.468,0.788c1.207,0,1.891-0.333,2.293-0.7
		c0.402-0.385,0.508-0.805,0.508-1.033c0-1.312-1.785-1.277-3.028-1.417c-1.226-0.14-2.608-0.333-3.22-1.12
		c-0.351-0.455-0.49-0.857-0.49-1.208c0-0.228,0.053-0.893,0.56-1.523c0.455-0.595,1.348-1.155,3.011-1.155
		c1.785,0,2.695,0.7,3.203,1.417c0.455,0.683,0.473,1.365,0.473,1.4h-1.051c0-0.018-0.018-0.508-0.332-0.945
		c-0.333-0.455-0.963-0.893-2.24-0.893c-1.261,0-1.873,0.333-2.205,0.718c-0.316,0.367-0.351,0.735-0.351,0.893
		c0.018,1.032,1.277,1.26,2.888,1.435c2.1,0.228,2.713,0.333,3.308,0.928c0.368,0.367,0.543,0.893,0.543,1.487
		c0,0.35-0.157,1.015-0.7,1.61s-1.488,1.138-3.098,1.138c-1.663,0-2.695-0.56-3.344-1.19c-0.787-0.77-1.031-1.75-1.031-1.803
		H684.234z"/>
	<path d="M697.693,183.057c0,0.893,0.577,1.768,1.941,1.768c0.771,0,1.664-0.333,2.118-1.155l0.91,0.455
		c-0.665,1.19-1.942,1.68-3.028,1.68c-2.082,0-2.975-1.383-2.975-2.8v-5.268h-2.503v-0.945h2.503v-3.203h1.033v3.203h4.34v0.945
		h-4.34V183.057z"/>
	<path d="M705.585,181.219c0-2.73,1.89-4.603,4.183-4.603c2.311,0,3.973,1.873,3.973,4.603v0.28h-7.053
		c0.053,1.978,1.506,3.325,3.221,3.325c1.277,0,2.205-0.77,2.713-1.995l0.928,0.42c-0.684,1.575-2.118,2.555-3.781,2.555
		C707.475,185.805,705.585,183.949,705.585,181.219z M706.688,180.589h5.951c-0.211-1.803-1.365-2.993-2.889-2.993
		C708.176,177.596,706.898,178.786,706.688,180.589z"/>
	<path d="M717.205,185.665v-8.874h1.033v1.943h0.14c0.683-1.225,1.838-2.118,3.255-2.118c2.818,0,2.818,2.24,2.818,2.573v0.262
		h-1.016v-0.07c0-0.21-0.018-1.785-1.907-1.785c-1.505,0-3.29,1.558-3.29,4.201v3.868H717.205z"/>
	<path d="M735.914,185.665h-1.033v-1.558h-0.104c-0.788,1.12-1.82,1.698-2.993,1.698c-2.223,0-3.99-2.065-3.99-4.585
		c0-2.538,1.768-4.603,3.99-4.603c1.173,0,2.205,0.683,2.993,1.803h0.104v-4.831h1.033V185.665z M734.881,181.202
		c0-2.135-1.102-3.605-3.027-3.605c-1.68,0-2.993,1.593-2.993,3.623c0,2.013,1.313,3.605,2.993,3.605
		c1.873,0,2.975-1.417,3.027-3.465V181.202z"/>
	<path d="M739.379,179.294c0,0,0.052-2.678,3.622-2.678c2.853,0,3.028,1.732,3.028,2.643v4.621c0,0.297,0.087,1.015,0.945,1.033
		c0.611,0,0.857-0.473,0.875-0.508l0.875,0.438c-0.018,0.035-0.561,0.963-1.768,0.963c-1.19,0-1.629-0.7-1.751-1.313h-0.157
		c-1.033,1.138-2.416,1.313-2.854,1.313c-0.576,0-3.237-0.053-3.255-2.766c0-1.663,1.716-2.415,3.081-2.695l2.992-0.63v-0.455
		c0-0.542-0.123-1.663-2.048-1.663c-2.521,0-2.556,1.698-2.556,1.698H739.379z M745.014,180.659l-2.625,0.56
		c-1.295,0.28-2.416,0.7-2.416,1.803c0.018,1.68,1.82,1.802,2.206,1.802c1.295,0,2.835-0.98,2.835-2.205V180.659z"/>
	<path d="M750.684,185.665h-1.033v-8.874h1.033v1.278h0.228c0.56-0.945,1.05-1.453,1.872-1.453c1.226,0,1.768,0.752,2.014,1.453
		h0.262c0.561-0.928,1.173-1.453,1.996-1.453c2.188,0,2.205,2.013,2.205,2.363v6.686h-1.033v-6.546c0-0.228-0.018-1.522-1.242-1.522
		c-0.98,0-2.014,1.453-2.014,2.958v5.11h-1.031v-6.546c0-0.228-0.018-1.522-1.227-1.522c-0.979,0-2.029,1.453-2.029,2.958V185.665z"
		/>
</g>
<g>
	<path d="M66.66,342.744v-1.05l8.331-9.906v-0.122h-7.753v-0.998h9.049v1.033l-8.331,9.923v0.123h8.838v0.997H66.66z"/>
	<path d="M86.576,333.871v8.873h-1.033v-1.995h-0.14c-0.683,1.226-1.837,2.136-3.255,2.136c-2.818,0-2.835-2.24-2.835-2.573v-6.44
		h1.033v6.248c0,0.21,0.018,1.785,1.908,1.785c1.505,0,3.291-1.558,3.291-4.2v-3.833H86.576z"/>
	<path d="M90.723,333.871h3.851v7.928h3.291v0.945H90.25v-0.945h3.29v-6.982h-2.818V333.871z M94.066,330.546
		c0.56,0,1.015,0.455,1.015,1.015c0,0.561-0.455,0.998-1.015,0.998s-0.998-0.438-0.998-0.998
		C93.068,331.001,93.506,330.546,94.066,330.546z"/>
	<path d="M107.821,342.744h-1.032v-1.558h-0.105c-0.788,1.12-1.82,1.698-2.993,1.698c-2.223,0-3.99-2.065-3.99-4.586
		c0-2.538,1.768-4.603,3.99-4.603c1.173,0,2.206,0.683,2.993,1.803h0.105v-4.831h1.032V342.744z M106.789,338.281
		c0-2.135-1.103-3.605-3.028-3.605c-1.68,0-2.993,1.593-2.993,3.623c0,2.013,1.313,3.605,2.993,3.605
		c1.873,0,2.975-1.418,3.028-3.466V338.281z"/>
	<path d="M111.286,336.374c0,0,0.052-2.678,3.623-2.678c2.853,0,3.028,1.732,3.028,2.643v4.62c0,0.298,0.087,1.016,0.945,1.033
		c0.612,0,0.857-0.473,0.875-0.508l0.875,0.438c-0.018,0.035-0.56,0.963-1.768,0.963c-1.19,0-1.628-0.7-1.75-1.313h-0.158
		c-1.033,1.138-2.416,1.313-2.853,1.313c-0.577,0-3.238-0.053-3.255-2.766c0-1.663,1.715-2.415,3.081-2.695l2.993-0.63v-0.455
		c0-0.543-0.123-1.663-2.047-1.663c-2.521,0-2.556,1.698-2.556,1.698H111.286z M116.921,337.739l-2.625,0.56
		c-1.295,0.28-2.416,0.7-2.416,1.803c0.018,1.681,1.82,1.803,2.206,1.803c1.295,0,2.835-0.98,2.835-2.205V337.739z"/>
	<path d="M122.994,339.892c0,0.035,0.192,0.7,0.752,1.173c0.49,0.402,1.243,0.787,2.468,0.787c1.208,0,1.89-0.332,2.293-0.7
		c0.402-0.385,0.507-0.805,0.507-1.032c0-1.312-1.785-1.277-3.028-1.418c-1.225-0.14-2.608-0.332-3.22-1.12
		c-0.35-0.455-0.49-0.857-0.49-1.207c0-0.228,0.053-0.893,0.56-1.523c0.455-0.595,1.348-1.154,3.01-1.154
		c1.785,0,2.695,0.7,3.203,1.417c0.455,0.683,0.473,1.365,0.473,1.4h-1.05c0-0.018-0.018-0.508-0.333-0.945
		c-0.333-0.455-0.962-0.893-2.24-0.893c-1.26,0-1.873,0.333-2.205,0.718c-0.315,0.367-0.35,0.735-0.35,0.893
		c0.018,1.032,1.277,1.26,2.888,1.436c2.1,0.228,2.713,0.332,3.308,0.928c0.368,0.367,0.543,0.893,0.543,1.487
		c0,0.35-0.158,1.015-0.7,1.61c-0.542,0.595-1.488,1.138-3.098,1.138c-1.663,0-2.695-0.561-3.343-1.19
		c-0.788-0.771-1.032-1.75-1.032-1.803H122.994z"/>
	<path d="M70.196,351.668h1.698l3.85,12.076h-1.138l-1.138-3.588h-4.813l-1.137,3.588H66.38L70.196,351.668z M73.136,359.142
		l-2.083-6.686h-0.018l-2.065,6.686H73.136z"/>
	<path d="M79.191,363.744h-1.033v-8.873h1.033v1.277h0.228c0.56-0.945,1.05-1.452,1.873-1.452c1.225,0,1.768,0.752,2.013,1.452
		h0.263c0.56-0.928,1.172-1.452,1.995-1.452c2.188,0,2.205,2.013,2.205,2.362v6.686h-1.033v-6.546c0-0.228-0.018-1.522-1.243-1.522
		c-0.98,0-2.013,1.453-2.013,2.958v5.11h-1.032v-6.546c0-0.228-0.018-1.522-1.226-1.522c-0.98,0-2.03,1.453-2.03,2.958V363.744z"/>
	<path d="M91.493,360.892c0,0.035,0.192,0.7,0.752,1.173c0.49,0.402,1.243,0.787,2.468,0.787c1.208,0,1.89-0.332,2.293-0.7
		c0.402-0.385,0.507-0.805,0.507-1.032c0-1.312-1.785-1.277-3.028-1.418c-1.225-0.14-2.608-0.332-3.22-1.12
		c-0.35-0.455-0.49-0.857-0.49-1.207c0-0.228,0.053-0.893,0.56-1.523c0.455-0.595,1.348-1.154,3.01-1.154
		c1.785,0,2.695,0.7,3.203,1.417c0.455,0.683,0.473,1.365,0.473,1.4h-1.05c0-0.018-0.018-0.508-0.333-0.945
		c-0.333-0.455-0.962-0.893-2.24-0.893c-1.26,0-1.873,0.333-2.205,0.718c-0.315,0.367-0.35,0.735-0.35,0.893
		c0.018,1.032,1.277,1.26,2.888,1.436c2.1,0.228,2.713,0.332,3.308,0.928c0.368,0.367,0.543,0.893,0.543,1.487
		c0,0.35-0.158,1.015-0.7,1.61c-0.542,0.595-1.488,1.138-3.098,1.138c-1.663,0-2.695-0.561-3.343-1.19
		c-0.788-0.771-1.032-1.75-1.032-1.803H91.493z"/>
	<path d="M103.901,361.137c0,0.893,0.578,1.768,1.942,1.768c0.771,0,1.663-0.333,2.118-1.155l0.91,0.455
		c-0.665,1.19-1.942,1.681-3.028,1.681c-2.083,0-2.975-1.383-2.975-2.801v-5.268h-2.503v-0.945h2.503v-3.203h1.033v3.203h4.34v0.945
		h-4.34V361.137z"/>
	<path d="M111.443,359.299c0-2.73,1.89-4.603,4.183-4.603c2.31,0,3.973,1.872,3.973,4.603v0.28h-7.053
		c0.053,1.978,1.505,3.325,3.221,3.325c1.277,0,2.205-0.771,2.712-1.995l0.928,0.42c-0.683,1.575-2.118,2.556-3.78,2.556
		C113.333,363.885,111.443,362.029,111.443,359.299z M112.546,358.669h5.951c-0.21-1.803-1.365-2.993-2.888-2.993
		C114.034,355.676,112.756,356.866,112.546,358.669z"/>
	<path d="M122.714,363.744v-8.873h1.032v1.942h0.14c0.683-1.225,1.838-2.117,3.255-2.117c2.818,0,2.818,2.24,2.818,2.572v0.263
		h-1.015v-0.07c0-0.21-0.018-1.785-1.908-1.785c-1.505,0-3.291,1.558-3.291,4.201v3.867H122.714z"/>
	<path d="M140.372,363.744h-1.032v-1.558h-0.105c-0.788,1.12-1.82,1.698-2.993,1.698c-2.223,0-3.99-2.065-3.99-4.586
		c0-2.538,1.768-4.603,3.99-4.603c1.173,0,2.206,0.683,2.993,1.803h0.105v-4.831h1.032V363.744z M139.34,359.281
		c0-2.135-1.103-3.605-3.028-3.605c-1.68,0-2.993,1.593-2.993,3.623c0,2.013,1.313,3.605,2.993,3.605
		c1.873,0,2.975-1.418,3.028-3.466V359.281z"/>
	<path d="M143.837,357.374c0,0,0.052-2.678,3.623-2.678c2.853,0,3.028,1.732,3.028,2.643v4.62c0,0.298,0.087,1.016,0.945,1.033
		c0.612,0,0.857-0.473,0.875-0.508l0.875,0.438c-0.018,0.035-0.56,0.963-1.768,0.963c-1.19,0-1.628-0.7-1.75-1.313h-0.158
		c-1.033,1.138-2.416,1.313-2.853,1.313c-0.577,0-3.238-0.053-3.255-2.766c0-1.663,1.715-2.415,3.081-2.695l2.993-0.63v-0.455
		c0-0.543-0.123-1.663-2.047-1.663c-2.521,0-2.556,1.698-2.556,1.698H143.837z M149.472,358.739l-2.625,0.56
		c-1.295,0.28-2.416,0.7-2.416,1.803c0.018,1.681,1.82,1.803,2.206,1.803c1.295,0,2.835-0.98,2.835-2.205V358.739z"/>
	<path d="M155.842,363.744h-1.033v-8.873h1.033v1.277h0.228c0.56-0.945,1.05-1.452,1.873-1.452c1.225,0,1.768,0.752,2.013,1.452
		h0.263c0.56-0.928,1.172-1.452,1.995-1.452c2.188,0,2.205,2.013,2.205,2.362v6.686h-1.033v-6.546c0-0.228-0.018-1.522-1.243-1.522
		c-0.98,0-2.013,1.453-2.013,2.958v5.11h-1.032v-6.546c0-0.228-0.018-1.522-1.226-1.522c-0.98,0-2.03,1.453-2.03,2.958V363.744z"/>
</g>
<line fill="none" stroke="#FFCC00" stroke-width="3" stroke-miterlimit="10" x1="66" y1="252.5" x2="149" y2="252.5"/>
</svg>
