<?xml version="1.0" encoding="utf-8"?>
<!-- Generator: Adobe Illustrator 15.0.0, SVG Export Plug-In  -->
<!DOCTYPE svg PUBLIC "-//W3C//DTD SVG 1.1//EN" "http://www.w3.org/Graphics/SVG/1.1/DTD/svg11.dtd" [
	<!ENTITY ns_flows "http://ns.adobe.com/Flows/1.0/">
]>
<svg version="1.1"
	 xmlns="http://www.w3.org/2000/svg" xmlns:xlink="http://www.w3.org/1999/xlink" xmlns:a="http://ns.adobe.com/AdobeSVGViewerExtensions/3.0/"
	 x="0px" y="0px" width="900px" height="88px" viewBox="-7.701 -7.231 900 88"
	 overflow="visible" enable-background="new -7.701 -7.231 900 88" xml:space="preserve">
<defs>
</defs>
<path d="M16.801,38.102h-2.5L9.7,42.703v27.102H0V0.8h9.7v29.302L38.602,0.8h12.901L23.101,29.202v2.2l29.602,38.402H41.002
	L16.801,38.102z"/>
<path d="M110.502,9.101H73.7v21.601h32.802v8.301H73.7v22.501h38.803v8.3H64V0.8h46.502V9.101z"/>
<path d="M174.503,9.101H137.7v21.601h32.802v8.301H137.7v22.501h38.803v8.3H128V0.8h46.503V9.101z"/>
<path d="M202.5,42.502v27.302h-9.7V0.8h32.302c10.4,0,18.801,9.101,18.801,20.602c0,11.601-8.401,21.101-18.801,21.101H202.5z
	 M202.5,34.202h20.201c7.601,0,11.101-5.5,11.101-12.501c0-8.101-4.3-12.601-11.101-12.601H202.5V34.202z"/>
<path d="M327.6,13.001v56.803h-9.701V0.8h14.9l11.502,48.703l11.5-48.703h14.9v69.004h-9.699V13.001l-11.301,48.203h-10.801
	L327.6,13.001z"/>
<path d="M430.502,9.101H393.7v21.601h32.803v8.301H393.7v22.501h38.803v8.3h-48.504V0.8h46.504V9.101z"/>
<path d="M522.5,42.502v27.302h-9.701V0.8h32.303c10.4,0,18.801,9.101,18.801,20.602c0,11.601-8.4,21.101-18.801,21.101H522.5z
	 M522.5,34.202h20.201c7.6,0,11.1-5.5,11.1-12.501c0-8.101-4.299-12.601-11.1-12.601H522.5V34.202z"/>
<path d="M579.7,9.801C585,3.7,592.6,0.2,600.5,0.2c7.801,0,15.301,3.5,20.502,9.601c5.301,6.2,8.5,14.901,8.5,25.602
	c0,10.8-3.199,19.501-8.4,25.701c-5.301,6.101-12.801,9.501-20.602,9.501c-7.9,0-15.5-3.4-20.9-9.601
	c-5.201-6.101-8.502-14.801-8.502-25.602C571.098,24.702,574.399,16.001,579.7,9.801z M587,54.903c3.299,4.7,8.199,7.3,13.301,7.3
	c5.199,0,10.1-2.6,13.4-7.3c3.6-4.5,5.701-11.201,5.701-19.601c0-8.301-2.102-15.001-5.701-19.501c-3.301-4.7-8.201-7.4-13.4-7.4
	c-5.102,0-10.002,2.7-13.301,7.4c-3.701,4.5-5.801,11.201-5.801,19.501C581.2,43.703,583.299,50.403,587,54.903z"/>
<path d="M689.002,19.601h-10.5C676.901,12,671.102,8.4,662.2,8.4c-6.199,0-14.6,3.2-14.6,10.701c0,7.8,9.201,9.801,17.301,10.601
	c12.9,1.2,27.701,4.1,27.701,19.701c0,14.601-11.201,21.202-25.801,21.202c-16.701,0-28.502-8.901-30.703-24.102h10.201
	c2.201,10.4,9.602,15.701,20.002,15.701c8.5,0,16.201-2.5,16.201-12.801c0-8-6-9.9-18.801-11.301
	c-11.801-1.3-26.203-5-26.203-19.001C637.499,7.2,650.1,0,661.901,0C676.002,0,686.102,6.1,689.002,19.601z"/>
<path d="M756.002,9.101H733v60.704h-9.699V9.101h-22.803V0.8h55.504V9.101z"/>
<path d="M814.502,9.101H777.7v21.601h32.803v8.301H777.7v22.501h38.803v8.3h-48.504V0.8h46.504V9.101z"/>
<path d="M829.7,69.804V0.8h26.9c14.902,0,26.803,15.501,26.803,34.502c0,19.001-11.9,34.502-26.803,34.502H829.7z M855.401,61.504
	c9.9,0,17.9-11.801,17.9-26.102c0-14.601-8-26.302-17.9-26.302h-16.002v52.403H855.401z"/>
</svg>
