<?xml version="1.0" encoding="utf-8"?>
<!-- Generator: Adobe Illustrator 15.0.0, SVG Export Plug-In  -->
<!DOCTYPE svg PUBLIC "-//W3C//DTD SVG 1.1//EN" "http://www.w3.org/Graphics/SVG/1.1/DTD/svg11.dtd" [
	<!ENTITY ns_flows "http://ns.adobe.com/Flows/1.0/">
]>
<svg version="1.1"
	 xmlns="http://www.w3.org/2000/svg" xmlns:xlink="http://www.w3.org/1999/xlink" xmlns:a="http://ns.adobe.com/AdobeSVGViewerExtensions/3.0/"
	 x="0px" y="0px" width="762px" height="88px" viewBox="-2.8 -5.229 762 88"
	 overflow="visible" enable-background="new -2.8 -5.229 762 88" xml:space="preserve">
<defs>
</defs>
<path d="M8.601,9.801C13.901,3.7,21.501,0.2,29.402,0.2c7.8,0,15.301,3.5,20.501,9.601c5.3,6.2,8.5,14.901,8.5,25.602
	c0,10.8-3.2,19.501-8.4,25.701c-5.3,6.101-12.801,9.501-20.601,9.501c-7.901,0-15.501-3.4-20.901-9.601
	C3.3,54.903,0,46.203,0,35.402C0,24.702,3.3,16.001,8.601,9.801z M15.901,54.903c3.3,4.7,8.201,7.3,13.301,7.3
	c5.2,0,10.101-2.6,13.401-7.3c3.6-4.5,5.7-11.201,5.7-19.601c0-8.301-2.1-15.001-5.7-19.501c-3.3-4.7-8.201-7.4-13.401-7.4
	c-5.1,0-10,2.7-13.301,7.4c-3.7,4.5-5.8,11.201-5.8,19.501C10.101,43.703,12.201,50.403,15.901,54.903z"/>
<path d="M75.401,69.804H65.7V0.8h32.202c10.201,0,18.501,9.001,18.501,20.001c0,9.101-5.8,16.301-13.201,18.801l16.301,30.202
	h-10.701L93.302,41.002H75.501L75.401,69.804z M95.202,32.702c6.1,0,11.101-3.5,11.101-11.801c0-4.7-1.9-11.801-11.101-11.801
	H75.401v23.602H95.202z"/>
<path d="M171.003,60.604c-2.101,4.4-8.9,10.001-17.201,10.001s-15.401-3.4-20.901-9.501c-5.5-6.2-8.9-15.001-8.9-25.801
	c0-10.701,3.4-19.501,9-25.702C138.401,3.5,145.501,0,153.802,0c13.201,0,26.901,8.5,26.901,24.702h-9.601
	c0-9.901-8.3-16.301-17.301-16.301c-13.001,0-19.701,14.001-19.701,26.902c0,8.3,2.3,15.001,6,19.701c3.6,4.6,8.2,7.2,13.701,7.2
	c10.4,0,17.701-11,17.801-20.801l-18.701,0.1v-8.3h27.801v36.602h-9.7V60.604z"/>
<path d="M236.702,69.804l-5.9-19.601h-23.201L201.6,69.804h-10.101L213.4,0.8h11.602l21.801,69.004H236.702z M211.101,41.902h16.101
	l-8-30.802L211.101,41.902z"/>
<path d="M308.803,0.8v69.004h-14.902l-26.602-58.704v58.704H257.6V0.8h14.9l26.602,58.904V0.8H308.803z"/>
<path d="M322.6,0.8h45.303v8.301h-17.801v52.403h17.801v8.3H322.6v-8.3h17.801V9.101H322.6V0.8z"/>
<path d="M431.903,19.601h-10.5C419.801,12,414.002,8.4,405.1,8.4c-6.199,0-14.6,3.2-14.6,10.701c0,7.8,9.201,9.801,17.301,10.601
	c12.9,1.2,27.701,4.1,27.701,19.701c0,14.601-11.201,21.202-25.801,21.202c-16.701,0-28.502-8.901-30.703-24.102H389.2
	c2.201,10.4,9.602,15.701,20.002,15.701c8.5,0,16.201-2.5,16.201-12.801c0-8-6-9.9-18.801-11.301
	c-11.801-1.3-26.203-5-26.203-19.001C380.399,7.2,393,0,404.801,0C418.903,0,429.002,6.1,431.903,19.601z"/>
<path d="M490.702,69.804l-5.9-19.601H461.6l-6,19.601h-10.102L467.401,0.8h11.602l21.801,69.004H490.702z M465.1,41.902h16.102
	l-8-30.802L465.1,41.902z"/>
<path d="M560.903,9.101h-23.002v60.704h-9.699V9.101h-22.803V0.8h55.504V9.101z"/>
<path d="M574.6,0.8h45.303v8.301h-17.801v52.403h17.801v8.3H574.6v-8.3h17.801V9.101H574.6V0.8z"/>
<path d="M638.6,9.801C643.901,3.7,651.5,0.2,659.401,0.2c7.801,0,15.301,3.5,20.502,9.601c5.301,6.2,8.5,14.901,8.5,25.602
	c0,10.8-3.199,19.501-8.4,25.701c-5.301,6.101-12.801,9.501-20.602,9.501c-7.9,0-15.5-3.4-20.9-9.601
	c-5.201-6.101-8.502-14.801-8.502-25.602C629.999,24.702,633.299,16.001,638.6,9.801z M645.901,54.903
	c3.299,4.7,8.199,7.3,13.301,7.3c5.199,0,10.1-2.6,13.4-7.3c3.6-4.5,5.701-11.201,5.701-19.601c0-8.301-2.102-15.001-5.701-19.501
	c-3.301-4.7-8.201-7.4-13.4-7.4c-5.102,0-10.002,2.7-13.301,7.4c-3.701,4.5-5.801,11.201-5.801,19.501
	C640.1,43.703,642.2,50.403,645.901,54.903z"/>
<path d="M750.803,0.8v69.004h-14.902l-26.602-58.704v58.704H699.6V0.8h14.9l26.602,58.904V0.8H750.803z"/>
</svg>
