<?xml version="1.0" encoding="utf-8"?>
<!-- Generator: Adobe Illustrator 15.0.0, SVG Export Plug-In . SVG Version: 6.00 Build 0)  -->
<!DOCTYPE svg PUBLIC "-//W3C//DTD SVG 1.1//EN" "http://www.w3.org/Graphics/SVG/1.1/DTD/svg11.dtd">
<svg version="1.1" id="Layer_1" xmlns="http://www.w3.org/2000/svg" xmlns:xlink="http://www.w3.org/1999/xlink" x="0px" y="0px"
	 width="769.063px" height="87.5px" viewBox="0 0 769.063 87.5" enable-background="new 0 0 769.063 87.5" xml:space="preserve">
<g>
	<path d="M18.201,47.732v27.302H8.5V6.029h32.302c10.401,0,18.801,9.101,18.801,20.602c0,11.601-8.4,21.101-18.801,21.101H18.201z
		 M18.201,39.432h20.201c7.601,0,11.101-5.5,11.101-12.501c0-8.101-4.3-12.601-11.101-12.601H18.201V39.432z"/>
	<path d="M113.503,75.034l-5.9-19.601H84.401l-6,19.601H68.3L90.202,6.029h11.601l21.801,69.004H113.503z M87.901,47.132h16.101
		l-8-30.802L87.901,47.132z"/>
	<path d="M146.201,75.034H136.5V6.029h32.202c10.2,0,18.501,9.001,18.501,20.001c0,9.101-5.801,16.301-13.201,18.801l16.302,30.202
		h-10.701l-15.501-28.802h-17.801L146.201,75.034z M166.002,37.932c6.101,0,11.101-3.5,11.101-11.801
		c0-4.7-1.9-11.801-11.101-11.801h-19.801v23.602H166.002z"/>
	<path d="M251.703,14.33h-23.001v60.704h-9.7V14.33H196.2V6.029h55.503V14.33z"/>
	<path d="M265.4,6.029h45.303v8.301h-17.801v52.403h17.801v8.3H265.4v-8.3h17.801V14.33H265.4V6.029z"/>
	<path d="M352.402,67.433c9.799,0,15-8.601,17.301-17.301h10.1c-1.6,8-5.5,14.701-10.1,19.101c-4.9,4.3-10.801,6.601-17.301,6.601
		c-8.201,0-15.803-3.4-20.902-9.601c-5.301-6.101-8.701-14.801-8.701-25.602c0-10.701,3.301-19.401,8.801-25.602
		c5.102-6.101,12.602-9.601,20.803-9.601c13.699,0,24,10.8,27,24.501h-10.199c-1.701-6.701-7.502-16.301-16.801-16.301
		c-12.701,0-19.502,14.301-19.502,26.902C332.9,53.433,339.5,67.433,352.402,67.433z"/>
	<path d="M393.4,6.029h45.303v8.301h-17.801v52.403h17.801v8.3H393.4v-8.3h17.801V14.33H393.4V6.029z"/>
	<path d="M466.201,47.732v27.302H456.5V6.029h32.303c10.4,0,18.801,9.101,18.801,20.602c0,11.601-8.4,21.101-18.801,21.101H466.201z
		 M466.201,39.432h20.201c7.6,0,11.1-5.5,11.1-12.501c0-8.101-4.299-12.601-11.1-12.601h-20.201V39.432z"/>
	<path d="M561.502,75.034l-5.9-19.601H532.4l-6,19.601h-10.102l21.902-69.004h11.602l21.801,69.004H561.502z M535.9,47.132h16.102
		l-8-30.802L535.9,47.132z"/>
	<path d="M633.604,6.029v69.004h-14.902L592.1,16.33v58.704H582.4V6.029h14.9l26.602,58.904V6.029H633.604z"/>
	<path d="M699.703,14.33h-23.002v60.704h-9.699V14.33h-22.803V6.029h55.504V14.33z"/>
	<path d="M760.703,24.831h-10.5c-1.602-7.601-7.4-11.201-16.303-11.201c-6.199,0-14.6,3.2-14.6,10.701
		c0,7.8,9.201,9.801,17.301,10.601c12.9,1.2,27.701,4.1,27.701,19.701c0,14.601-11.201,21.202-25.801,21.202
		c-16.701,0-28.502-8.901-30.703-24.102H718c2.201,10.4,9.602,15.701,20.002,15.701c8.5,0,16.201-2.5,16.201-12.801
		c0-8-6-9.9-18.801-11.301c-11.801-1.3-26.203-5-26.203-19.001c0-11.901,12.602-19.101,24.402-19.101
		C747.703,5.229,757.803,11.33,760.703,24.831z"/>
</g>
</svg>
