<?xml version="1.0" encoding="utf-8"?>
<!-- Generator: Adobe Illustrator 15.0.0, SVG Export Plug-In . SVG Version: 6.00 Build 0)  -->
<!DOCTYPE svg PUBLIC "-//W3C//DTD SVG 1.1//EN" "http://www.w3.org/Graphics/SVG/1.1/DTD/svg11.dtd">
<svg version="1.1" id="Layer_1" xmlns="http://www.w3.org/2000/svg" xmlns:xlink="http://www.w3.org/1999/xlink" x="0px" y="0px"
	 width="453px" height="87.5px" viewBox="0 0 453 87.5" enable-background="new 0 0 453 87.5" xml:space="preserve">
<g>
	<path fill="#147ECC" d="M18.201,47.732v27.302H8.5V6.029h32.302c10.401,0,18.801,9.102,18.801,20.602
		c0,11.602-8.4,21.102-18.801,21.102H18.201L18.201,47.732z M18.201,39.432h20.201c7.601,0,11.101-5.5,11.101-12.5
		c0-8.102-4.3-12.602-11.101-12.602H18.201V39.432z"/>
	<path fill="#147ECC" d="M79.2,75.034h-9.701V6.029h32.202c10.201,0,18.501,9.001,18.501,20.002c0,9.101-5.8,16.301-13.201,18.801
		l16.301,30.202h-10.701L97.1,46.232H79.3L79.2,75.034z M99,37.932c6.1,0,11.101-3.5,11.101-11.801c0-4.7-1.9-11.801-11.101-11.801
		H79.2v23.602H99z"/>
	<path fill="#147ECC" d="M137.4,15.03c5.3-6.101,12.9-9.601,20.801-9.601c7.8,0,15.3,3.5,20.501,9.601
		c5.3,6.2,8.5,14.901,8.5,25.602c0,10.802-3.2,19.501-8.4,25.702c-5.301,6.1-12.801,9.5-20.601,9.5
		c-7.901,0-15.501-3.4-20.901-9.602c-5.2-6.102-8.5-14.801-8.5-25.603C128.799,29.932,132.1,21.23,137.4,15.03z M144.7,60.133
		c3.3,4.701,8.201,7.301,13.301,7.301c5.201,0,10.101-2.6,13.401-7.301c3.601-4.5,5.7-11.199,5.7-19.601
		c0-8.301-2.1-15.001-5.7-19.501c-3.3-4.701-8.2-7.4-13.401-7.4c-5.1,0-10,2.699-13.301,7.4c-3.7,4.5-5.8,11.2-5.8,19.501
		C138.9,48.934,141,55.633,144.7,60.133z"/>
	<path fill="#147ECC" d="M240.801,65.834c-2.1,4.4-8.898,10-17.2,10c-8.3,0-15.4-3.4-20.9-9.5
		c-5.501-6.201-8.901-15.002-8.901-25.802c0-10.7,3.4-19.501,9.001-25.702c5.4-6.1,12.501-9.6,20.801-9.6
		c13.2,0,26.902,8.5,26.902,24.701h-9.602c0-9.9-8.301-16.301-17.301-16.301c-13,0-19.701,14-19.701,26.901
		c0,8.3,2.301,15.001,6.001,19.701c3.6,4.601,8.2,7.199,13.7,7.199c10.4,0,17.7-11,17.801-20.802l-18.7,0.101v-8.3h27.801v36.603
		h-9.702V65.834L240.801,65.834z"/>
	<path fill="#147ECC" d="M274.201,75.034H264.5V6.029h32.201c10.201,0,18.502,9.001,18.502,20.002
		c0,9.101-5.801,16.301-13.201,18.801l16.301,30.202h-10.699l-15.502-28.802h-17.801L274.201,75.034z M294.002,37.932
		c6.1,0,11.1-3.5,11.1-11.801c0-4.7-1.896-11.801-11.1-11.801h-19.801v23.602H294.002z"/>
	<path fill="#147ECC" d="M370.503,75.034l-5.9-19.601h-23.2l-6,19.601h-10.104l21.902-69.005h11.602l21.803,69.005H370.503z
		 M344.901,47.133h16.102l-8-30.803L344.901,47.133z"/>
	<path fill="#147ECC" d="M400.302,18.23v56.804h-9.701V6.029h14.9l11.502,48.704l11.5-48.704h14.9v69.005h-9.699V18.23
		l-11.301,48.204h-10.803L400.302,18.23z"/>
</g>
</svg>
