<?xml version="1.0" encoding="utf-8"?>
<!-- Generator: Adobe Illustrator 15.0.0, SVG Export Plug-In . SVG Version: 6.00 Build 0)  -->
<!DOCTYPE svg PUBLIC "-//W3C//DTD SVG 1.1//EN" "http://www.w3.org/Graphics/SVG/1.1/DTD/svg11.dtd">
<svg version="1.1" id="Layer_1" xmlns="http://www.w3.org/2000/svg" xmlns:xlink="http://www.w3.org/1999/xlink" x="0px" y="0px"
	 width="574.333px" height="40.5px" viewBox="0 0 574.333 40.5" enable-background="new 0 0 574.333 40.5" xml:space="preserve">
<g>
	<path d="M10.595,32.578H5.954L2.093,12.57h3.666l2.574,15.522l3.12-13.806h4.056l3.159,13.806l2.535-15.522h3.666l-3.861,20.008
		h-4.641l-2.886-13.884L10.595,32.578z"/>
	<path d="M29.978,32.578V5.433h3.705v9.945h0.312c0.975-1.209,3.159-3.237,6.396-3.237c6.435,0,6.474,5.07,6.474,5.812v14.625
		h-3.705V19.122c0-0.468-0.039-3.822-3.471-3.822c-2.73,0-6.006,3.354-6.006,9.01v8.268H29.978z"/>
	<path d="M57.785,23.529c0.351,3.744,2.886,6.201,5.811,6.201c2.379,0,4.407-1.599,5.5-4.251l3.354,1.482
		c-1.482,3.666-4.914,5.928-8.854,5.928c-5.421,0-9.711-4.173-9.711-10.296c0-6.24,4.212-10.453,9.516-10.453
		s9.516,4.212,9.516,10.453v0.936H57.785z M57.941,20.604h10.921c-0.663-3.198-2.886-5.304-5.46-5.304
		C60.788,15.3,58.565,17.406,57.941,20.604z"/>
	<path d="M79.898,32.578V12.57h3.705v2.808h0.312c0.975-1.209,3.159-3.237,6.396-3.237c6.435,0,6.474,5.07,6.474,5.812v0.975h-3.705
		c-0.039-0.819-0.351-3.627-3.471-3.627c-2.73,0-6.006,3.354-6.006,9.01v8.268H79.898z"/>
	<path d="M107.705,23.529c0.351,3.744,2.886,6.201,5.811,6.201c2.379,0,4.407-1.599,5.5-4.251l3.354,1.482
		c-1.482,3.666-4.914,5.928-8.854,5.928c-5.421,0-9.711-4.173-9.711-10.296c0-6.24,4.212-10.453,9.516-10.453
		s9.516,4.212,9.516,10.453v0.936H107.705z M107.861,20.604h10.921c-0.663-3.198-2.886-5.304-5.46-5.304
		C110.708,15.3,108.485,17.406,107.861,20.604z"/>
	<path d="M157.859,12.804V5.433h3.705v7.371h9.282v3.003h-9.282v10.101c0,0.468,0.039,3.822,3.472,3.822
		c2.612,0,3.86-1.794,4.329-2.457l3.159,1.755c-1.717,2.691-3.939,3.861-7.488,3.861c-7.138,0-7.177-5.07-7.177-5.811V15.807h-5.265
		v-3.003H157.859z"/>
	<path d="M179.739,32.578V5.433h3.705v9.945h0.312c0.976-1.209,3.159-3.237,6.396-3.237c6.436,0,6.474,5.07,6.474,5.812v14.625
		h-3.705V19.122c0-0.468-0.039-3.822-3.471-3.822c-2.73,0-6.006,3.354-6.006,9.01v8.268H179.739z"/>
	<path d="M207.545,23.529c0.351,3.744,2.886,6.201,5.812,6.201c2.379,0,4.407-1.599,5.499-4.251l3.354,1.482
		c-1.481,3.666-4.914,5.928-8.853,5.928c-5.422,0-9.712-4.173-9.712-10.296c0-6.24,4.213-10.453,9.517-10.453
		s9.517,4.212,9.517,10.453v0.936H207.545z M207.702,20.604h10.92c-0.663-3.198-2.886-5.304-5.46-5.304
		C210.548,15.3,208.326,17.406,207.702,20.604z"/>
	<path d="M267.646,18.693c-0.117-0.585-0.547-3.394-4.76-3.394c-4.055,0-4.562,2.106-4.562,2.73c0,2.184,3.861,2.574,5.227,2.73
		c3.783,0.39,8.893,0.975,8.893,6.006c0,2.925-2.613,6.123-9.049,6.123c-6.123,0-9.555-3.861-9.672-6.981h3.861
		c0.156,1.638,1.793,3.822,5.732,3.822c4.135,0,5.266-1.677,5.266-2.964c0-2.886-3.51-2.574-6.475-3.003
		c-3.119-0.468-7.645-1.56-7.645-5.733c0-1.014,0.781-5.89,8.346-5.89c7.84,0,8.736,6.318,8.775,6.553H267.646z"/>
	<path d="M279.384,29.575h7.098V15.573h-6.084V12.57h9.789v17.005h6.865v3.003h-17.668V29.575z M288.198,5.003
		c1.559,0,2.807,1.248,2.807,2.808c0,1.482-1.248,2.691-2.807,2.691c-1.482,0-2.691-1.209-2.691-2.691
		C285.507,6.251,286.716,5.003,288.198,5.003z"/>
	<path d="M322.167,32.578h-3.705v-2.223h-0.273c-1.053,1.131-3.08,2.535-5.732,2.535c-5.109,0-9.127-4.68-9.127-10.335
		c0-5.733,4.018-10.414,9.127-10.414c2.652,0,4.719,1.638,5.693,2.73h0.312V5.433h3.705V32.578z M318.462,22.515
		c0-4.29-2.066-7.215-5.656-7.215c-3.158,0-5.615,3.159-5.615,7.215s2.457,7.215,5.615,7.215c3.473,0,5.539-2.808,5.656-6.903
		V22.515z"/>
	<path d="M332.345,23.529c0.352,3.744,2.887,6.201,5.812,6.201c2.379,0,4.406-1.599,5.498-4.251l3.355,1.482
		c-1.482,3.666-4.916,5.928-8.854,5.928c-5.422,0-9.713-4.173-9.713-10.296c0-6.24,4.213-10.453,9.518-10.453
		s9.516,4.212,9.516,10.453v0.936H332.345z M332.501,20.604h10.92c-0.662-3.198-2.885-5.304-5.459-5.304
		C335.349,15.3,333.126,17.406,332.501,20.604z"/>
	<path d="M360.036,32.578h-4.643l-3.861-20.008h3.666l2.574,15.522l3.121-13.806h4.057l3.158,13.806l2.535-15.522h3.666
		l-3.861,20.008h-4.641l-2.887-13.884L360.036,32.578z"/>
	<path d="M378.872,18.615c0.078-1.209,0.43-2.262,1.092-3.237c1.053-1.599,3.199-3.237,7.41-3.237c1.678,0,2.926,0.351,3.9,0.78
		c2.691,1.248,3.197,3.627,3.197,5.616v10.335c0,0.663,0.469,1.053,0.898,1.053c0.428,0,0.623-0.195,0.779-0.39
		c0.117-0.117,0.195-0.234,0.234-0.39l2.613,1.287c-0.234,0.468-0.508,0.897-0.857,1.248c-0.586,0.624-1.443,1.209-2.574,1.209
		c-2.029,0-3.627-1.482-3.744-2.535h-0.312c-2.029,1.989-4.291,2.535-5.967,2.535c-1.248,0-7.645-0.117-7.645-6.162
		c0-3.744,3.588-5.46,6.514-6.084l6.355-1.326v-0.78c0-1.092-0.076-3.237-3.51-3.237c-2.301,0-3.432,0.858-4.018,1.677
		c-0.35,0.468-0.545,1.014-0.623,1.638H378.872z M390.767,22.398l-4.68,0.975c-2.105,0.429-4.328,1.404-4.328,3.394
		c0,2.886,2.729,2.964,3.783,2.964h0.156c2.301,0,5.068-1.755,5.068-3.939V22.398z"/>
	<path d="M403.987,29.575h7.1V8.436h-6.084V5.433h9.789v24.142h6.863v3.003h-17.668V29.575z"/>
	<path d="M429.845,32.578V5.433h3.705v14.196l7.684-7.059h4.992l-7.488,6.786v0.351l9.049,12.871h-4.291l-7.488-10.764l-2.457,2.262
		v8.502H429.845z"/>
	<path d="M482.104,23.529c0.352,3.744,2.887,6.201,5.812,6.201c2.379,0,4.406-1.599,5.498-4.251l3.355,1.482
		c-1.482,3.666-4.916,5.928-8.854,5.928c-5.422,0-9.713-4.173-9.713-10.296c0-6.24,4.213-10.453,9.518-10.453
		s9.516,4.212,9.516,10.453v0.936H482.104z M482.261,20.604h10.92c-0.662-3.198-2.885-5.304-5.459-5.304
		C485.108,15.3,482.886,17.406,482.261,20.604z"/>
	<path d="M504.218,32.578V12.57h3.705v2.808h0.312c0.975-1.209,3.158-3.237,6.396-3.237c6.436,0,6.475,5.07,6.475,5.812v14.625
		h-3.707V19.122c0-0.468-0.037-3.822-3.471-3.822c-2.73,0-6.006,3.354-6.006,9.01v8.268H504.218z"/>
	<path d="M546.806,32.578h-3.705v-2.223h-0.271c-1.055,1.131-3.082,2.535-5.734,2.535c-5.109,0-9.125-4.68-9.125-10.335
		c0-5.733,4.016-10.414,9.125-10.414c2.652,0,4.719,1.638,5.695,2.73h0.311V5.433h3.705V32.578z M543.101,22.515
		c0-4.29-2.066-7.215-5.654-7.215c-3.16,0-5.617,3.159-5.617,7.215s2.457,7.215,5.617,7.215c3.471,0,5.537-2.808,5.654-6.903V22.515
		z"/>
	<path d="M567.165,18.693c-0.117-0.585-0.547-3.394-4.76-3.394c-4.055,0-4.562,2.106-4.562,2.73c0,2.184,3.861,2.574,5.227,2.73
		c3.783,0.39,8.893,0.975,8.893,6.006c0,2.925-2.613,6.123-9.049,6.123c-6.123,0-9.555-3.861-9.672-6.981h3.861
		c0.156,1.638,1.793,3.822,5.732,3.822c4.135,0,5.266-1.677,5.266-2.964c0-2.886-3.51-2.574-6.475-3.003
		c-3.119-0.468-7.645-1.56-7.645-5.733c0-1.014,0.781-5.89,8.346-5.89c7.84,0,8.736,6.318,8.775,6.553H567.165z"/>
</g>
<g>
	<path d="M17.768,107.303l3.003-19.969h3.9l-4.407,26.91h-4.68l-2.769-18.993l-2.769,18.993h-4.68l-4.407-26.91h3.9l3.003,19.969
		l2.262-15.757h5.382L17.768,107.303z"/>
	<path d="M29.311,114.244V87.1h3.705v9.945h0.312c0.975-1.209,3.159-3.237,6.396-3.237c6.435,0,6.474,5.07,6.474,5.812v14.625
		h-3.705v-13.455c0-0.468-0.039-3.822-3.471-3.822c-2.73,0-6.006,3.354-6.006,9.01v8.268H29.311z"/>
	<path d="M57.118,105.196c0.351,3.744,2.886,6.201,5.811,6.201c2.379,0,4.407-1.599,5.5-4.251l3.354,1.482
		c-1.482,3.666-4.914,5.928-8.854,5.928c-5.421,0-9.711-4.174-9.711-10.297c0-6.24,4.212-10.452,9.516-10.452
		s9.516,4.212,9.516,10.452v0.937H57.118z M57.274,102.271h10.921c-0.663-3.198-2.886-5.305-5.46-5.305
		C60.121,96.967,57.898,99.073,57.274,102.271z"/>
	<path d="M79.231,114.244V94.236h3.705v2.809h0.312c0.975-1.209,3.159-3.237,6.396-3.237c6.435,0,6.474,5.07,6.474,5.812v0.975
		h-3.705c-0.039-0.818-0.351-3.627-3.471-3.627c-2.73,0-6.006,3.354-6.006,9.01v8.268H79.231z"/>
	<path d="M107.038,105.196c0.351,3.744,2.886,6.201,5.811,6.201c2.379,0,4.407-1.599,5.5-4.251l3.354,1.482
		c-1.482,3.666-4.914,5.928-8.854,5.928c-5.421,0-9.711-4.174-9.711-10.297c0-6.24,4.212-10.452,9.516-10.452
		s9.516,4.212,9.516,10.452v0.937H107.038z M107.194,102.271h10.921c-0.663-3.198-2.886-5.305-5.46-5.305
		C110.041,96.967,107.818,99.073,107.194,102.271z"/>
	<path d="M157.192,94.471V87.1h3.705v7.371h9.282v3.004h-9.282v10.101c0,0.468,0.039,3.822,3.472,3.822
		c2.612,0,3.86-1.794,4.329-2.457l3.159,1.755c-1.717,2.691-3.939,3.861-7.488,3.861c-7.138,0-7.177-5.07-7.177-5.811V97.475h-5.265
		v-3.004H157.192z"/>
	<path d="M179.072,114.244V87.1h3.705v9.945h0.312c0.976-1.209,3.159-3.237,6.396-3.237c6.436,0,6.474,5.07,6.474,5.812v14.625
		h-3.705v-13.455c0-0.468-0.039-3.822-3.471-3.822c-2.73,0-6.006,3.354-6.006,9.01v8.268H179.072z"/>
	<path d="M206.878,105.196c0.351,3.744,2.886,6.201,5.812,6.201c2.379,0,4.407-1.599,5.499-4.251l3.354,1.482
		c-1.481,3.666-4.914,5.928-8.853,5.928c-5.422,0-9.712-4.174-9.712-10.297c0-6.24,4.213-10.452,9.517-10.452
		s9.517,4.212,9.517,10.452v0.937H206.878z M207.035,102.271h10.92c-0.663-3.198-2.886-5.305-5.46-5.305
		C209.881,96.967,207.659,99.073,207.035,102.271z"/>
	<path d="M272.048,94.666h-4.096c-0.623-2.965-2.885-4.368-6.357-4.368c-2.418,0-5.693,1.248-5.693,4.173
		c0,3.043,3.588,3.822,6.748,4.135c5.031,0.468,10.803,1.599,10.803,7.683c0,5.694-4.369,8.269-10.062,8.269
		c-6.514,0-11.115-3.471-11.973-9.399h3.977c0.859,4.056,3.744,6.123,7.801,6.123c3.314,0,6.318-0.975,6.318-4.992
		c0-3.12-2.34-3.86-7.332-4.407c-4.602-0.507-10.219-1.949-10.219-7.41c0-4.641,4.914-7.449,9.516-7.449
		C266.978,87.021,270.917,89.4,272.048,94.666z"/>
	<path d="M278.716,111.242h7.098V97.24h-6.084v-3.004h9.791v17.006h6.863v3.002h-17.668V111.242z M287.53,86.67
		c1.561,0,2.809,1.248,2.809,2.809c0,1.482-1.248,2.691-2.809,2.691c-1.482,0-2.691-1.209-2.691-2.691
		C284.839,87.918,286.048,86.67,287.53,86.67z"/>
	<path d="M321.499,114.244h-3.705v-2.223h-0.271c-1.055,1.131-3.082,2.535-5.734,2.535c-5.109,0-9.127-4.68-9.127-10.336
		c0-5.732,4.018-10.413,9.127-10.413c2.652,0,4.719,1.638,5.695,2.73h0.311V87.1h3.705V114.244z M317.794,104.182
		c0-4.289-2.066-7.215-5.654-7.215c-3.16,0-5.617,3.159-5.617,7.215c0,4.057,2.457,7.216,5.617,7.216
		c3.471,0,5.537-2.808,5.654-6.903V104.182z"/>
	<path d="M331.679,105.196c0.35,3.744,2.885,6.201,5.811,6.201c2.379,0,4.408-1.599,5.5-4.251l3.354,1.482
		c-1.482,3.666-4.914,5.928-8.854,5.928c-5.422,0-9.711-4.174-9.711-10.297c0-6.24,4.211-10.452,9.516-10.452
		s9.518,4.212,9.518,10.452v0.937H331.679z M331.835,102.271h10.92c-0.664-3.198-2.887-5.305-5.461-5.305
		C334.681,96.967,332.458,99.073,331.835,102.271z"/>
	<path d="M359.368,114.244h-4.641l-3.861-20.008h3.666l2.574,15.523l3.119-13.807h4.057l3.16,13.807l2.535-15.523h3.666
		l-3.861,20.008h-4.643l-2.885-13.884L359.368,114.244z"/>
	<path d="M378.204,100.282c0.078-1.209,0.43-2.263,1.094-3.237c1.053-1.6,3.197-3.237,7.41-3.237c1.676,0,2.924,0.351,3.9,0.78
		c2.689,1.248,3.197,3.627,3.197,5.616v10.335c0,0.664,0.469,1.054,0.896,1.054c0.43,0,0.625-0.195,0.781-0.39
		c0.117-0.117,0.193-0.234,0.232-0.391l2.613,1.287c-0.232,0.468-0.506,0.896-0.857,1.248c-0.586,0.624-1.443,1.209-2.574,1.209
		c-2.027,0-3.627-1.482-3.744-2.535h-0.312c-2.027,1.989-4.289,2.535-5.967,2.535c-1.248,0-7.645-0.117-7.645-6.162
		c0-3.744,3.588-5.461,6.514-6.084l6.357-1.326v-0.78c0-1.092-0.078-3.237-3.51-3.237c-2.301,0-3.434,0.858-4.018,1.678
		c-0.352,0.468-0.547,1.014-0.625,1.638H378.204z M390.101,104.065l-4.68,0.975c-2.107,0.429-4.33,1.404-4.33,3.394
		c0,2.886,2.73,2.964,3.783,2.964h0.156c2.301,0,5.07-1.755,5.07-3.938V104.065z"/>
	<path d="M403.321,111.242h7.098v-21.14h-6.084V87.1h9.789v24.143h6.865v3.002h-17.668V111.242z"/>
	<path d="M429.179,114.244V87.1h3.705v14.196l7.682-7.06h4.992l-7.488,6.787v0.351l9.049,12.87h-4.289l-7.488-10.764l-2.457,2.262
		v8.502H429.179z"/>
	<path d="M495.712,90.57H481.36v8.425h12.793v3.237H481.36v8.775h15.133v3.236h-18.916v-26.91h18.135V90.57z"/>
	<path d="M503.552,114.244V94.236h3.705v2.809h0.311c0.977-1.209,3.16-3.237,6.396-3.237c6.436,0,6.475,5.07,6.475,5.812v14.625
		h-3.705v-13.455c0-0.468-0.039-3.822-3.471-3.822c-2.73,0-6.006,3.354-6.006,9.01v8.268H503.552z"/>
	<path d="M546.14,114.244h-3.705v-2.223h-0.273c-1.053,1.131-3.08,2.535-5.732,2.535c-5.109,0-9.127-4.68-9.127-10.336
		c0-5.732,4.018-10.413,9.127-10.413c2.652,0,4.719,1.638,5.693,2.73h0.312V87.1h3.705V114.244z M542.435,104.182
		c0-4.289-2.066-7.215-5.656-7.215c-3.158,0-5.615,3.159-5.615,7.215c0,4.057,2.457,7.216,5.615,7.216
		c3.473,0,5.539-2.808,5.656-6.903V104.182z"/>
	<path d="M566.497,100.36c-0.117-0.585-0.545-3.394-4.758-3.394c-4.057,0-4.562,2.106-4.562,2.73c0,2.184,3.859,2.574,5.225,2.73
		c3.783,0.39,8.893,0.975,8.893,6.006c0,2.925-2.613,6.123-9.049,6.123c-6.123,0-9.555-3.861-9.672-6.981h3.861
		c0.156,1.638,1.795,3.822,5.734,3.822c4.133,0,5.264-1.677,5.264-2.964c0-2.887-3.51-2.574-6.473-3.004
		c-3.121-0.467-7.645-1.56-7.645-5.732c0-1.014,0.779-5.89,8.346-5.89c7.84,0,8.736,6.318,8.775,6.553H566.497z"/>
</g>
<g>
	<path d="M13.399,181.041H13.36L7.783,201.01H4.156L3.337,174.1h2.458l0.546,24.414l5.304-19.266h3.939l0.312,19.266l6.942-24.414
		h2.457l-7.839,26.91h-3.627L13.399,181.041z"/>
	<path d="M32.197,192.234l-1.17,8.775h-2.301l3.51-26.91h2.301l-1.521,11.466h0.156c1.911-2.729,4.836-4.719,8.034-4.719
		c3.12,0,5.616,2.262,5.616,5.069c0,0.234,0,0.312-0.039,0.625l-1.872,14.469h-2.301l1.833-14.079
		c0.039-0.233,0.039-0.351,0.039-0.546c0-1.326-1.053-3.354-3.822-3.354C37.306,183.031,32.977,186.424,32.197,192.234z"/>
	<path d="M55.48,198.396c-1.404-1.754-2.106-4.017-2.106-6.356c0-2.535,0.78-5.265,2.457-7.372c1.716-2.145,4.368-3.821,8.034-3.821
		c2.808,0,4.836,1.209,6.202,3.003c1.404,1.833,1.833,3.9,1.833,6.708c0,0.39-0.078,0.976-0.117,1.171H55.792v0.312
		c0,1.872,0.507,3.627,1.482,4.914c1.014,1.326,2.535,2.185,4.485,2.185c1.482,0,2.886-0.352,4.095-1.093
		c1.131-0.702,2.145-1.755,2.847-3.159l2.301,0.625c-0.351,0.74-0.819,1.481-1.326,2.145c-1.755,2.145-4.251,3.666-7.957,3.666
		C58.912,201.322,56.884,200.113,55.48,198.396z M58.795,184.863c-1.365,1.17-2.34,2.848-2.77,4.836h13.456
		c-0.039-1.793-0.429-3.51-1.443-4.758c-0.936-1.17-2.418-1.91-4.368-1.91C61.837,183.031,60.121,183.693,58.795,184.863z"/>
	<path d="M83.248,192.234l-1.17,8.775h-2.301l2.574-19.773h2.301l-0.585,4.329h0.156c1.911-2.729,4.836-4.719,8.034-4.719
		c3.12,0,5.616,2.262,5.616,5.069c0,0.234,0,0.312-0.039,0.625l-0.078,0.623h-2.301l0.039-0.233
		c0.039-0.233,0.039-0.351,0.039-0.546c0-1.326-1.053-3.354-3.822-3.354C88.357,183.031,84.028,186.424,83.248,192.234z"/>
	<path d="M105.4,198.396c-1.404-1.754-2.106-4.017-2.106-6.356c0-2.535,0.78-5.265,2.457-7.372c1.716-2.145,4.368-3.821,8.034-3.821
		c2.808,0,4.836,1.209,6.202,3.003c1.404,1.833,1.833,3.9,1.833,6.708c0,0.39-0.078,0.976-0.117,1.171h-15.991v0.312
		c0,1.872,0.507,3.627,1.482,4.914c1.014,1.326,2.535,2.185,4.485,2.185c1.482,0,2.886-0.352,4.095-1.093
		c1.131-0.702,2.145-1.755,2.847-3.159l2.301,0.625c-0.351,0.74-0.819,1.481-1.326,2.145c-1.755,2.145-4.251,3.666-7.957,3.666
		C108.832,201.322,106.804,200.113,105.4,198.396z M108.715,184.863c-1.365,1.17-2.34,2.848-2.77,4.836h13.456
		c-0.039-1.793-0.429-3.51-1.443-4.758c-0.936-1.17-2.418-1.91-4.368-1.91C111.757,183.031,110.041,183.693,108.715,184.863z"/>
	<path d="M160.039,195.745c0,0.937,0.273,1.872,1.014,2.496c0.624,0.546,1.56,0.897,2.847,0.897c1.717,0,3.822-0.742,5.07-2.574
		l1.872,1.014c-1.794,2.652-4.758,3.744-7.176,3.744c-1.95,0-3.354-0.546-4.33-1.404c-1.092-1.014-1.599-2.379-1.599-4.134
		c0-0.585,1.482-12.441,1.482-12.441h-5.577l0.273-2.106h5.577l0.897-7.137h2.301l-0.896,7.137h9.672l-0.272,2.106h-9.673
		C161.521,183.343,160.039,195.355,160.039,195.745z"/>
	<path d="M181.958,192.234l-1.17,8.775h-2.302l3.511-26.91h2.301l-1.521,11.466h0.155c1.911-2.729,4.837-4.719,8.034-4.719
		c3.121,0,5.617,2.262,5.617,5.069c0,0.234,0,0.312-0.039,0.625l-1.872,14.469h-2.302l1.833-14.079
		c0.039-0.233,0.039-0.351,0.039-0.546c0-1.326-1.053-3.354-3.822-3.354C187.067,183.031,182.738,186.424,181.958,192.234z"/>
	<path d="M205.241,198.396c-1.404-1.754-2.106-4.017-2.106-6.356c0-2.535,0.78-5.265,2.457-7.372
		c1.716-2.145,4.368-3.821,8.034-3.821c2.809,0,4.836,1.209,6.201,3.003c1.404,1.833,1.833,3.9,1.833,6.708
		c0,0.39-0.078,0.976-0.117,1.171h-15.99v0.312c0,1.872,0.507,3.627,1.482,4.914c1.014,1.326,2.535,2.185,4.485,2.185
		c1.481,0,2.886-0.352,4.095-1.093c1.131-0.702,2.146-1.755,2.847-3.159l2.302,0.625c-0.352,0.74-0.819,1.481-1.326,2.145
		c-1.755,2.145-4.251,3.666-7.956,3.666C208.672,201.322,206.644,200.113,205.241,198.396z M208.555,184.863
		c-1.364,1.17-2.34,2.848-2.769,4.836h13.455c-0.039-1.793-0.429-3.51-1.443-4.758c-0.936-1.17-2.418-1.91-4.367-1.91
		C211.597,183.031,209.881,183.693,208.555,184.863z"/>
	<path d="M250.636,191.962h2.34v0.351c0,1.951,0.938,3.588,2.574,4.798c1.561,1.209,3.744,1.911,6.123,1.911
		c2.418,0,4.564-0.702,6.123-1.834c1.6-1.17,2.535-2.769,2.535-4.602c0-3.276-4.484-4.096-7.877-4.524
		c-7.918-0.975-9.479-3.315-9.479-6.942c0-2.027,1.131-3.822,2.965-5.188c1.832-1.325,4.289-2.145,7.215-2.145
		s5.383,0.78,7.215,2.106c1.834,1.325,3.004,3.081,3.004,5.108v0.43h-2.457v-0.312c0-1.404-0.818-2.652-2.223-3.549
		c-1.443-0.936-3.355-1.482-5.539-1.482c-2.145,0-4.096,0.547-5.537,1.482c-1.404,0.896-2.225,2.145-2.225,3.549
		c0,3.549,3.588,4.369,7.684,4.836c5.148,0.586,9.596,1.912,9.596,6.514c0,2.496-1.248,4.719-3.277,6.318
		c-1.988,1.6-4.641,2.535-7.762,2.535c-3.08,0-5.732-0.975-7.721-2.535c-1.99-1.6-3.277-3.861-3.277-6.396V191.962z"/>
	<path d="M282.421,181.236h8.58l-2.301,17.668h7.332l-0.271,2.105h-16.967l0.273-2.105h7.332l2.027-15.562h-6.279L282.421,181.236z
		 M292.835,175.854c0,1.442-1.17,2.457-2.457,2.457c-1.17,0-2.068-0.897-2.068-2.028c0-1.443,1.172-2.457,2.535-2.457
		C292.017,173.826,292.835,174.723,292.835,175.854z"/>
	<path d="M304.261,198.436c-1.326-1.754-1.949-4.134-1.949-6.513c0-2.574,0.701-5.304,2.34-7.449
		c1.678-2.185,4.135-3.627,7.566-3.627c3.197,0,5.305,1.599,6.631,4.017h0.115l1.404-10.764h2.301l-3.471,26.91h-2.301l0.391-3.471
		h-0.117c-1.678,2.184-3.393,3.783-6.865,3.783C307.692,201.322,305.587,200.191,304.261,198.436z M316.353,196.252
		c1.285-1.716,1.832-3.9,1.832-5.967c0-1.873-0.469-3.744-1.482-5.07c-0.975-1.326-2.418-2.184-4.406-2.184
		c-2.652,0-4.525,1.17-5.812,2.847c-1.287,1.716-1.832,3.899-1.832,6.006c0,1.911,0.469,3.744,1.482,5.07
		c0.975,1.326,2.457,2.185,4.406,2.185C313.192,199.139,315.065,197.93,316.353,196.252z"/>
	<path d="M330.04,198.396c-1.404-1.754-2.105-4.017-2.105-6.356c0-2.535,0.779-5.265,2.457-7.372
		c1.715-2.145,4.367-3.821,8.033-3.821c2.809,0,4.836,1.209,6.201,3.003c1.404,1.833,1.834,3.9,1.834,6.708
		c0,0.39-0.078,0.976-0.117,1.171h-15.99v0.312c0,1.872,0.506,3.627,1.482,4.914c1.014,1.326,2.535,2.185,4.484,2.185
		c1.482,0,2.887-0.352,4.096-1.093c1.131-0.702,2.145-1.755,2.846-3.159l2.303,0.625c-0.352,0.74-0.82,1.481-1.326,2.145
		c-1.756,2.145-4.252,3.666-7.957,3.666C333.472,201.322,331.444,200.113,330.04,198.396z M333.354,184.863
		c-1.365,1.17-2.34,2.848-2.768,4.836h13.455c-0.039-1.793-0.43-3.51-1.443-4.758c-0.936-1.17-2.418-1.91-4.369-1.91
		C336.397,183.031,334.681,183.693,333.354,184.863z"/>
	<path d="M351.958,181.236h2.34l1.17,16.498l5.539-14.275h2.807l1.795,14.275l5.539-16.498h2.34l-6.865,19.773h-2.73l-1.832-14.82
		l-5.656,14.82h-2.729L351.958,181.236z"/>
	<path d="M379.647,198.436c-1.326-1.754-1.949-4.134-1.949-6.513c0-2.574,0.701-5.304,2.34-7.449
		c1.678-2.185,4.135-3.627,7.566-3.627c3.197,0,5.305,1.599,6.631,4.017h0.117l0.467-3.627h2.301l-2.535,19.773h-2.301l0.391-3.471
		h-0.156c-1.678,2.184-3.354,3.783-6.826,3.783C383.081,201.322,380.974,200.191,379.647,198.436z M391.739,196.252
		c1.287-1.716,1.832-3.9,1.832-5.967c0-1.873-0.467-3.744-1.482-5.07c-0.975-1.326-2.418-2.184-4.406-2.184
		c-2.652,0-4.525,1.17-5.811,2.847c-1.287,1.716-1.834,3.899-1.834,6.006c0,1.911,0.469,3.744,1.482,5.07
		c0.975,1.326,2.457,2.185,4.406,2.185C388.579,199.139,390.452,197.93,391.739,196.252z"/>
	<path d="M408.118,174.1h8.58l-3.236,24.805h7.332l-0.273,2.105h-16.965l0.271-2.105h7.334l2.963-22.699h-6.279L408.118,174.1z"/>
	<path d="M429.101,201.01l3.51-26.91h2.301l-1.949,14.82h0.35l10.297-7.684h3.354l-8.893,6.748l-0.037,0.39l8.189,12.636h-3.004
		l-7.137-10.959h-0.545l-3.043,2.301l-1.092,8.658H429.101z"/>
	<path d="M497.351,176.322h-15.055l-1.287,9.945h13.885l-0.312,2.223h-13.885l-1.326,10.297h16.225l-0.271,2.223H476.72l3.51-26.91
		h17.434L497.351,176.322z"/>
	<path d="M506.632,192.234l-1.17,8.775h-2.301l2.574-19.773h2.301l-0.586,4.329h0.156c1.912-2.729,4.836-4.719,8.035-4.719
		c3.119,0,5.615,2.262,5.615,5.069c0,0.234,0,0.312-0.039,0.625l-1.871,14.469h-2.301l1.832-14.079
		c0.039-0.233,0.039-0.351,0.039-0.546c0-1.326-1.053-3.354-3.822-3.354C511.741,183.031,507.411,186.424,506.632,192.234z"/>
	<path d="M528.901,198.436c-1.326-1.754-1.951-4.134-1.951-6.513c0-2.574,0.703-5.304,2.34-7.449
		c1.678-2.185,4.135-3.627,7.566-3.627c3.199,0,5.305,1.599,6.631,4.017h0.117l1.404-10.764h2.301l-3.471,26.91h-2.301l0.389-3.471
		h-0.117c-1.676,2.184-3.393,3.783-6.863,3.783C532.333,201.322,530.228,200.191,528.901,198.436z M540.991,196.252
		c1.287-1.716,1.834-3.9,1.834-5.967c0-1.873-0.469-3.744-1.482-5.07c-0.975-1.326-2.418-2.184-4.408-2.184
		c-2.652,0-4.523,1.17-5.811,2.847c-1.287,1.716-1.834,3.899-1.834,6.006c0,1.911,0.469,3.744,1.482,5.07
		c0.975,1.326,2.457,2.185,4.408,2.185C537.833,199.139,539.704,197.93,540.991,196.252z"/>
	<path d="M555.694,189.855c-0.82-0.896-1.287-1.988-1.287-3.275c0-1.717,0.857-3.043,2.379-4.096
		c1.482-0.975,3.51-1.638,5.654-1.638c2.574,0,4.525,0.78,5.969,1.911c1.402,1.131,2.145,2.691,2.145,4.329v0.624h-2.379v-0.624
		c0-1.093-0.508-2.146-1.521-2.886c-0.975-0.703-2.379-1.17-4.174-1.17c-1.559,0-2.963,0.351-4.016,1.053
		c-1.055,0.623-1.678,1.521-1.678,2.535c0,0.701,0.273,1.287,0.74,1.755c0.352,0.351,0.975,1.014,4.953,1.481
		c2.262,0.273,4.758,0.702,5.969,1.834c0.857,0.779,1.402,1.793,1.402,3.197c0,1.756-0.975,3.394-2.535,4.524
		c-1.559,1.17-3.627,1.911-6.084,1.911c-2.496,0-4.602-0.702-6.123-1.872c-1.561-1.17-2.535-2.769-2.535-4.524v-0.74h2.379v0.779
		c0,1.131,0.664,2.184,1.834,2.887c1.131,0.701,2.691,1.17,4.445,1.17c1.717,0,3.238-0.469,4.408-1.17
		c1.131-0.703,1.832-1.756,1.832-2.887c0-0.74-0.35-1.326-0.857-1.716c-1.014-0.819-3.354-1.015-4.992-1.287
		C560.296,191.729,557.216,191.572,555.694,189.855z"/>
</g>
</svg>
