<?xml version="1.0" encoding="utf-8"?>
<!-- Generator: Adobe Illustrator 15.0.0, SVG Export Plug-In . SVG Version: 6.00 Build 0)  -->
<!DOCTYPE svg PUBLIC "-//W3C//DTD SVG 1.1//EN" "http://www.w3.org/Graphics/SVG/1.1/DTD/svg11.dtd">
<svg version="1.1" id="Layer_1" xmlns="http://www.w3.org/2000/svg" xmlns:xlink="http://www.w3.org/1999/xlink" x="0px" y="0px"
	 width="1489.426px" height="87.973px" viewBox="0 0 1489.426 87.973" enable-background="new 0 0 1489.426 87.973"
	 xml:space="preserve">
<g>
	<path d="M51.424,59.409l7.722-51.333H69.17l-11.33,69.18H45.81L38.691,28.43l-7.12,48.826h-12.03L8.211,8.075h10.024l7.722,51.333
		l5.814-40.503h13.837L51.424,59.409z"/>
	<path d="M77.188,77.255V8.075h9.725V36.75h31.883V8.075h9.726v69.18h-9.726V45.071H86.914v32.184H77.188z"/>
	<path d="M189.277,16.397h-36.896v21.658h32.884v8.32h-32.884v22.559h38.902v8.322h-48.627V8.075h46.621V16.397z"/>
	<path d="M217.349,77.255h-9.726V8.075h32.284c10.226,0,18.548,9.022,18.548,20.053c0,9.123-5.814,16.343-13.235,18.849
		l16.343,30.278h-10.729l-15.54-28.875h-17.844L217.349,77.255z M237.201,40.058c6.115,0,11.126-3.51,11.126-11.829
		c0-4.715-1.902-11.832-11.126-11.832h-19.853v23.661H237.201z"/>
	<path d="M317.605,16.397H280.71v21.658h32.884v8.32H280.71v22.559h38.901v8.322h-48.627V8.075h46.621V16.397z"/>
	<path d="M451.447,16.397h-23.056v60.858h-9.729V16.397h-22.857V8.075h55.642V16.397z"/>
	<path d="M462.177,77.255V8.075h9.726V36.75h31.883V8.075h9.726v69.18h-9.726V45.071h-31.883v32.184H462.177z"/>
	<path d="M574.263,16.397h-36.894v21.658h32.887v8.32h-32.887v22.559h38.902v8.322h-48.627V8.075h46.618V16.397z"/>
	<path d="M705.104,26.923h-10.529c-1.606-7.619-7.421-11.227-16.343-11.227c-6.216,0-14.641,3.208-14.641,10.725
		c0,7.822,9.229,9.826,17.347,10.629c12.935,1.205,27.771,4.112,27.771,19.752c0,14.636-11.227,21.253-25.867,21.253
		c-16.739,0-28.574-8.922-30.778-24.161h10.228c2.204,10.426,9.625,15.741,20.054,15.741c8.521,0,16.242-2.505,16.242-12.833
		c0-8.023-6.02-9.926-18.854-11.33c-11.829-1.303-26.264-5.013-26.264-19.052c0-11.93,12.633-19.15,24.462-19.15
		C692.069,7.271,702.191,13.39,705.104,26.923z"/>
	<path d="M721.843,8.075h45.419v8.322h-17.849v52.536h17.849v8.322h-45.419v-8.322h17.845V16.397h-17.845V8.075z"/>
	<path d="M781.998,77.255V8.075h26.967c14.942,0,26.872,15.54,26.872,34.589c0,19.049-11.93,34.591-26.872,34.591H781.998z
		 M807.766,68.933c9.921,0,17.944-11.829,17.944-26.169c0-14.636-8.023-26.367-17.944-26.367h-16.042v52.536H807.766z"/>
	<path d="M895.089,16.397H858.19v21.658h32.887v8.32H858.19v22.559h38.901v8.322h-48.627V8.075h46.624V16.397z"/>
	<path d="M949.726,59.409l7.723-51.333h10.026l-11.332,69.18h-12.03l-7.119-48.826l-7.12,48.826h-12.03l-11.327-69.18h10.027
		l7.717,51.333l5.814-40.503h13.837L949.726,59.409z"/>
	<path d="M1018.703,77.255l-5.915-19.649h-23.262l-6.015,19.649h-10.128l21.962-69.18h11.628l21.856,69.18H1018.703z
		 M993.036,49.281h16.142l-8.018-30.878L993.036,49.281z"/>
	<path d="M1052.488,68.933h37.797v8.322h-47.522V8.075h9.726V68.933z"/>
	<path d="M1121.967,45.473h-2.505l-4.614,4.612v27.17h-9.726V8.075h9.726v29.377l28.976-29.377h12.934l-28.474,28.473v2.207
		l29.679,38.5h-11.729L1121.967,45.473z"/>
	<path d="M1280.074,16.397h-36.898v21.658h32.887v8.32h-32.887v22.559h38.902v8.322h-48.627V8.075h46.623V16.397z"/>
	<path d="M1347.646,8.075v69.18h-14.937l-26.672-58.853v58.853h-9.725V8.075h14.941l26.666,59.056V8.075H1347.646z"/>
	<path d="M1359.475,77.255V8.075h26.973c14.937,0,26.866,15.54,26.866,34.589c0,19.049-11.93,34.591-26.866,34.591H1359.475z
		 M1385.242,68.933c9.926,0,17.944-11.829,17.944-26.169c0-14.636-8.019-26.367-17.944-26.367H1369.2v52.536H1385.242z"/>
	<path d="M1475.075,26.923h-10.528c-1.606-7.619-7.421-11.227-16.343-11.227c-6.216,0-14.642,3.208-14.642,10.725
		c0,7.822,9.229,9.826,17.348,10.629c12.934,1.205,27.771,4.112,27.771,19.752c0,14.636-11.227,21.253-25.868,21.253
		c-16.739,0-28.573-8.922-30.777-24.161h10.228c2.204,10.426,9.625,15.741,20.054,15.741c8.52,0,16.242-2.505,16.242-12.833
		c0-8.023-6.021-9.926-18.854-11.33c-11.829-1.303-26.265-5.013-26.265-19.052c0-11.93,12.633-19.15,24.462-19.15
		C1462.041,7.271,1472.163,13.39,1475.075,26.923z"/>
</g>
</svg>
