<?xml version="1.0" encoding="utf-8"?>
<!-- Generator: Adobe Illustrator 15.0.0, SVG Export Plug-In . SVG Version: 6.00 Build 0)  -->
<!DOCTYPE svg PUBLIC "-//W3C//DTD SVG 1.1//EN" "http://www.w3.org/Graphics/SVG/1.1/DTD/svg11.dtd">
<svg version="1.1" id="Layer_1" xmlns="http://www.w3.org/2000/svg" xmlns:xlink="http://www.w3.org/1999/xlink" x="0px" y="0px"
	 width="574.333px" height="40.5px" viewBox="0 0 574.333 40.5" enable-background="new 0 0 574.333 40.5" xml:space="preserve">
<rect x="1.001" y="87.767" fill="none" width="617.511" height="36.678"/>
<text transform="matrix(1 0 0 1 1.001 114.9106)" font-family="'LetteraPro-Bold'" font-size="39">where the sidewalk ends</text>
<g>
	<path d="M18.435,26.968L21.438,7h3.9l-4.407,26.911h-4.68l-2.769-18.994l-2.769,18.994h-4.68L1.625,7h3.9l3.003,19.969
		l2.262-15.756h5.382L18.435,26.968z"/>
	<path d="M28.457,33.911V7h3.783v11.155h12.402V7h3.783v26.911h-3.783v-12.52H32.24v12.52H28.457z"/>
	<path d="M72.06,10.237H57.707v8.424H70.5v3.237H57.707v8.775H72.84v3.237H53.924V7H72.06V10.237z"/>
	<path d="M82.979,33.911h-3.783V7h12.559c3.978,0,7.215,3.51,7.215,7.8c0,3.549-2.262,6.357-5.148,7.333l6.357,11.778h-4.173
		L89.96,22.678h-6.942L82.979,33.911z M90.702,19.441c2.379,0,4.329-1.365,4.329-4.602c0-1.833-0.741-4.602-4.329-4.602h-7.723
		v9.204H90.702z"/>
	<path d="M121.979,10.237h-14.353v8.424h12.792v3.237h-12.792v8.775h15.133v3.237h-18.916V7h18.136V10.237z"/>
	<path d="M174.044,10.237h-8.97v23.674h-3.784V10.237h-8.892V7h21.646V10.237z"/>
	<path d="M178.217,33.911V7H182v11.155h12.402V7h3.783v26.911h-3.783v-12.52H182v12.52H178.217z"/>
	<path d="M221.82,10.237h-14.353v8.424h12.793v3.237h-12.793v8.775H222.6v3.237h-18.916V7h18.136V10.237z"/>
	<path d="M272.716,14.332h-4.096c-0.625-2.964-2.887-4.368-6.357-4.368c-2.418,0-5.695,1.248-5.695,4.173
		c0,3.042,3.59,3.822,6.748,4.134c5.031,0.468,10.803,1.599,10.803,7.683c0,5.694-4.367,8.269-10.062,8.269
		c-6.512,0-11.115-3.471-11.973-9.399h3.979c0.857,4.056,3.744,6.123,7.801,6.123c3.314,0,6.318-0.975,6.318-4.992
		c0-3.12-2.342-3.861-7.334-4.407c-4.602-0.507-10.217-1.95-10.217-7.411c0-4.641,4.914-7.449,9.516-7.449
		C267.646,6.688,271.583,9.067,272.716,14.332z"/>
	<path d="M279.228,7h17.668v3.237h-6.943v20.437h6.943v3.237h-17.668v-3.237h6.941V10.237h-6.941V7z"/>
	<path d="M302.628,33.911V7h10.49c5.812,0,10.453,6.045,10.453,13.456s-4.641,13.456-10.453,13.456H302.628z M312.651,30.673
		c3.859,0,6.98-4.602,6.98-10.179c0-5.694-3.121-10.257-6.98-10.257h-6.24v20.437H312.651z"/>
	<path d="M346.62,10.237h-14.354v8.424h12.793v3.237h-12.793v8.775h15.133v3.237h-18.916V7h18.137V10.237z"/>
	<path d="M367.874,26.968L370.878,7h3.9l-4.408,26.911h-4.68l-2.77-18.994l-2.77,18.994h-4.68L351.065,7h3.9l3.002,19.969
		l2.262-15.756h5.383L367.874,26.968z"/>
	<path d="M394.706,33.911l-2.301-7.644h-9.049l-2.34,7.644h-3.939L385.62,7h4.523l8.502,26.911H394.706z M384.722,23.029h6.279
		l-3.119-12.013L384.722,23.029z"/>
	<path d="M407.849,30.673h14.703v3.237h-18.486V7h3.783V30.673z"/>
	<path d="M434.876,21.547h-0.975l-1.795,1.794v10.569h-3.783V7h3.783v11.428L443.378,7h5.031l-11.076,11.077v0.858l11.545,14.977
		h-4.562L434.876,21.547z"/>
	<path d="M496.38,10.237h-14.354v8.424h12.793v3.237h-12.793v8.775h15.133v3.237h-18.916V7h18.137V10.237z"/>
	<path d="M522.665,7v26.911h-5.811l-10.375-22.894v22.894h-3.783V7h5.812l10.373,22.972V7H522.665z"/>
	<path d="M527.267,33.911V7h10.492c5.811,0,10.451,6.045,10.451,13.456s-4.641,13.456-10.451,13.456H527.267z M537.29,30.673
		c3.861,0,6.98-4.602,6.98-10.179c0-5.694-3.119-10.257-6.98-10.257h-6.24v20.437H537.29z"/>
	<path d="M572.235,14.332h-4.096c-0.625-2.964-2.887-4.368-6.357-4.368c-2.418,0-5.695,1.248-5.695,4.173
		c0,3.042,3.59,3.822,6.748,4.134c5.031,0.468,10.803,1.599,10.803,7.683c0,5.694-4.367,8.269-10.062,8.269
		c-6.512,0-11.115-3.471-11.973-9.399h3.979c0.857,4.056,3.744,6.123,7.801,6.123c3.314,0,6.318-0.975,6.318-4.992
		c0-3.12-2.342-3.861-7.334-4.407c-4.602-0.507-10.217-1.95-10.217-7.411c0-4.641,4.914-7.449,9.516-7.449
		C567.165,6.688,571.103,9.067,572.235,14.332z"/>
</g>
<rect x="0.334" y="169.1" fill="none" width="617.511" height="36.678"/>
<text transform="matrix(1 0 0 1 0.334 196.2437)" font-family="'LetteraPro-Bold'" font-size="39">Where the Sidewalk Ends</text>
<rect x="0.334" y="256.1" fill="none" width="617.511" height="36.678"/>
<text transform="matrix(1 0 0 1 0.334 283.0093)" font-family="'LetteraPro-Italic'" font-size="39">where the sidewalk ends</text>
</svg>
