<?xml version="1.0" encoding="utf-8"?>
<!-- Generator: Adobe Illustrator 15.0.0, SVG Export Plug-In  -->
<!DOCTYPE svg PUBLIC "-//W3C//DTD SVG 1.1//EN" "http://www.w3.org/Graphics/SVG/1.1/DTD/svg11.dtd" [
	<!ENTITY ns_flows "http://ns.adobe.com/Flows/1.0/">
]>
<svg version="1.1"
	 xmlns="http://www.w3.org/2000/svg" xmlns:xlink="http://www.w3.org/1999/xlink" xmlns:a="http://ns.adobe.com/AdobeSVGViewerExtensions/3.0/"
	 x="0px" y="0px" width="574px" height="88px" viewBox="-4.2 -7.431 574 88"
	 overflow="visible" enable-background="new -4.2 -7.431 574 88" xml:space="preserve">
<defs>
</defs>
<path d="M55.503,8.9H32.502v60.704h-9.701V8.9H0V0.6h55.503V8.9z"/>
<path d="M66.2,69.604V0.6h9.701v28.602h31.802V0.6h9.701v69.004h-9.701V37.502H75.901v32.102H66.2z"/>
<path d="M178.003,8.9h-36.803v21.601h32.802v8.301h-32.802v22.501h38.803v8.3H131.5V0.6h46.503V8.9z"/>
<path d="M270.001,69.604H260.3V0.6h32.201c10.201,0,18.502,9.001,18.502,20.001c0,9.101-5.801,16.301-13.201,18.801l16.301,30.202
	h-10.699l-15.502-28.802h-17.801L270.001,69.604z M289.802,32.502c6.1,0,11.1-3.5,11.1-11.801c0-4.7-1.898-11.801-11.1-11.801
	h-19.801v23.602H289.802z"/>
<path d="M327.2,9.601C332.501,3.5,340.101,0,348.001,0c7.801,0,15.301,3.5,20.502,9.601c5.301,6.2,8.5,14.901,8.5,25.602
	c0,10.8-3.199,19.501-8.4,25.701c-5.301,6.101-12.801,9.501-20.602,9.501c-7.9,0-15.5-3.4-20.9-9.601
	c-5.201-6.101-8.502-14.801-8.502-25.602C318.599,24.501,321.899,15.801,327.2,9.601z M334.501,54.703
	c3.299,4.7,8.199,7.3,13.301,7.3c5.199,0,10.1-2.6,13.4-7.3c3.6-4.5,5.701-11.201,5.701-19.601c0-8.301-2.102-15.001-5.701-19.501
	c-3.301-4.7-8.201-7.4-13.4-7.4c-5.102,0-10.002,2.7-13.301,7.4c-3.701,4.5-5.801,11.201-5.801,19.501
	C328.7,43.502,330.8,50.203,334.501,54.703z"/>
<path d="M427.702,40.702V0.6h9.701v42.903c0,15.301-5.602,26.902-25.602,26.902c-20.002,0-25.602-11.601-25.602-26.902V0.6h9.699
	v40.103c0,12.001,1,21.301,15.902,21.301C426.702,62.003,427.702,52.703,427.702,40.702z"/>
<path d="M503.503,8.9h-23.002v60.704h-9.699V8.9h-22.803V0.6h55.504V8.9z"/>
<path d="M562.003,8.9H525.2v21.601h32.803v8.301H525.2v22.501h38.803v8.3h-48.504V0.6h46.504V8.9z"/>
</svg>
