<?xml version="1.0" encoding="utf-8"?>
<!-- Generator: Adobe Illustrator 15.0.0, SVG Export Plug-In . SVG Version: 6.00 Build 0)  -->
<!DOCTYPE svg PUBLIC "-//W3C//DTD SVG 1.1//EN" "http://www.w3.org/Graphics/SVG/1.1/DTD/svg11.dtd">
<svg version="1.1" id="Layer_1" xmlns="http://www.w3.org/2000/svg" xmlns:xlink="http://www.w3.org/1999/xlink" x="0px" y="0px"
	 width="319.086px" height="87.5px" viewBox="0 0 319.086 87.5" enable-background="new 0 0 319.086 87.5" xml:space="preserve">
<g>
	<path d="M59.604,6.029L37.802,75.034H26.202L4.3,6.029h10.201l17.501,58.404L49.403,6.029H59.604z"/>
	<path d="M73.4,6.029h45.303v8.301h-17.801v52.403h17.801v8.3H73.4v-8.3h17.801V14.33H73.4V6.029z"/>
	<path d="M184.704,24.831h-10.501c-1.6-7.601-7.4-11.201-16.301-11.201c-6.2,0-14.601,3.2-14.601,10.701
		c0,7.8,9.201,9.801,17.301,10.601c12.9,1.2,27.701,4.1,27.701,19.701c0,14.601-11.2,21.202-25.801,21.202
		c-16.701,0-28.502-8.901-30.702-24.102h10.201c2.2,10.4,9.601,15.701,20.001,15.701c8.5,0,16.2-2.5,16.2-12.801
		c0-8-6-9.9-18.801-11.301c-11.801-1.3-26.202-5-26.202-19.001c0-11.901,12.601-19.101,24.402-19.101
		C171.703,5.229,181.803,11.33,184.704,24.831z"/>
	<path d="M201.4,6.029h45.303v8.301h-17.801v52.403h17.801v8.3H201.4v-8.3h17.801V14.33H201.4V6.029z"/>
	<path d="M315.703,14.33h-23.002v60.704h-9.699V14.33h-22.803V6.029h55.504V14.33z"/>
</g>
</svg>
