<?xml version="1.0" encoding="utf-8"?>
<!-- Generator: Adobe Illustrator 15.0.0, SVG Export Plug-In  -->
<!DOCTYPE svg PUBLIC "-//W3C//DTD SVG 1.1//EN" "http://www.w3.org/Graphics/SVG/1.1/DTD/svg11.dtd" [
	<!ENTITY ns_flows "http://ns.adobe.com/Flows/1.0/">
]>
<svg version="1.1"
	 xmlns="http://www.w3.org/2000/svg" xmlns:xlink="http://www.w3.org/1999/xlink" xmlns:a="http://ns.adobe.com/AdobeSVGViewerExtensions/3.0/"
	 x="0px" y="0px" width="468px" height="80px" viewBox="-15.839 -5.821 468 80"
	 overflow="visible" enable-background="new -15.839 -5.821 468 80" xml:space="preserve">
<defs>
</defs>
<path d="M41.562,5.846c1.7-1.9,3.2-2.3,4.7-0.8c1.6,1.6,2.6,2.7,3.8,4.8c1.1,1.9,1.2,2.7-0.1,6c-3.1,7.6-7.9,21.301-10,32.302
	c7.5-13.901,23.701-37.002,32.202-46.903c1-1.2,2.3-1.7,3.3-0.1c2.1,3.5,1.1,7.3-1.5,11.601
	c-6.101,9.901-18.701,27.302-31.302,51.403c-1.2,2.2-2.4,1.9-4.701,0.9c-2.5-1.1-4.5-2.5-6.4-4c-1.8-1.4-2.7-4-2.3-7.201
	c0.8-7.4,3-18.301,6-26.001c-7.101,10.301-16.501,26.102-21.702,35.802c-1.4,2.6-3,2.7-4.8,1.6c-2.6-1.5-4.8-3-6.3-4.5
	c-2.2-2.2-3.3-3.8-1.7-12C3.36,35.048,9.36,14.747,14.061,2.946c0.7-1.7,1.7-2.3,3.3-1.1c1.7,1.3,3.1,3.1,4.3,4.8
	c1.1,1.6,0.9,3.7,0.1,6.1c-2.9,8.601-7.8,24.501-10,33.702C20.061,32.147,31.762,16.646,41.562,5.846z"/>
<path d="M92.162,30.047c2.1,0,3.5,0.4,4.5,1.7c0.9,1.1,2.1,2.9,2.6,4c0.7,1.5,0.2,2.3-1.2,2.5c-5.2,0.8-12.801,1.9-20.001,3.8
	c-2.1,4.101-4.101,8-5.9,11.701c5.7-1.1,10.801-1.5,15.001-1.5c2.2,0,3.9,0.4,5.1,1.7c1.2,1.3,2.5,3,3.1,4.4c0.8,1.9,0,2.6-1.7,2.8
	c-7,1-17.601,2.6-24.401,4.7c-3.5,1.1-4.2,0.6-5.7-0.6c-1.2-0.9-2.8-2.2-3.6-3.2c-1.3-1.5-2-2.5-0.9-5.3
	c4.8-12.501,14.101-32.002,22.001-45.103c-0.5-1.4-1-3.1-1.3-4.1c-0.5-1.9,0.2-2.8,2-3.3c8.8-2.2,21.201-3.2,29.202-3.2
	c2.7,0,4.4,0.6,5.9,2.1c1.2,1.2,2.3,3.3,3.1,5.101c0.5,1.8-0.3,2.3-2.2,2.5c-5.6,0.5-16.801,2-24.102,3.6
	c-2.9,4.701-6.1,10.301-9.4,16.201C87.462,30.248,90.262,30.047,92.162,30.047z"/>
<path d="M137.261,30.047c2.1,0,3.5,0.4,4.5,1.7c0.9,1.1,2.1,2.9,2.6,4c0.7,1.5,0.2,2.3-1.2,2.5c-5.2,0.8-12.801,1.9-20.001,3.8
	c-2.1,4.101-4.101,8-5.9,11.701c5.7-1.1,10.801-1.5,15.001-1.5c2.2,0,3.9,0.4,5.1,1.7c1.2,1.3,2.5,3,3.1,4.4c0.8,1.9,0,2.6-1.7,2.8
	c-7,1-17.601,2.6-24.401,4.7c-3.5,1.1-4.2,0.6-5.7-0.6c-1.2-0.9-2.8-2.2-3.6-3.2c-1.3-1.5-2-2.5-0.9-5.3
	c4.8-12.501,14.101-32.002,22.001-45.103c-0.5-1.4-1-3.1-1.3-4.1c-0.5-1.9,0.2-2.8,2-3.3c8.8-2.2,21.201-3.2,29.202-3.2
	c2.701,0,4.4,0.6,5.9,2.1c1.2,1.2,2.301,3.3,3.101,5.101c0.5,1.8-0.3,2.3-2.2,2.5c-5.6,0.5-16.801,2-24.102,3.6
	c-2.9,4.701-6.1,10.301-9.4,16.201C132.561,30.248,135.361,30.047,137.261,30.047z"/>
<path d="M154.048,64.95c-0.7,1.8-1.6,1.8-3,0.7c-1.1-0.9-2.7-1.8-4.2-3.5s-1.7-3.3-0.8-5.701
	c5.701-15.701,17.702-39.102,27.202-53.303c1.2-1.8,2.4-2,4.2-0.5c1.601,1.4,3.101,3.3,4.501,4.9c1.5,1.8,1.3,3-0.4,5.601
	c-3.2,4.9-6.801,10.9-10.501,17.301c12.201-10.5,29.502-23.401,38.803-29.702c1.4-1,2.7-1.2,3.1,0.7c0.801,4.2-0.5,7.3-4.3,11
	c-5.5,5.3-21.802,18.501-33.202,29.202c3.7,6.101,9.601,13.701,13.401,18.001c1.5,1.7,1,2.5-0.301,3.3c-1.399,0.8-3.1,1.4-4.9,1.9
	c-1.699,0.5-3.1,0.5-5.9-1.7c-3.5-2.8-10.8-11.801-14.601-18.001C159.548,52.149,156.348,59.049,154.048,64.95z"/>
<path d="M227.05,30.047c2.101,0,3.5,0.4,4.5,1.7c0.9,1.1,2.101,2.9,2.601,4c0.7,1.5,0.2,2.3-1.2,2.5c-5.2,0.8-12.801,1.9-20.001,3.8
	c-2.101,4.101-4.101,8-5.9,11.701c5.7-1.1,10.801-1.5,15.001-1.5c2.2,0,3.9,0.4,5.101,1.7c1.199,1.3,2.5,3,3.1,4.4
	c0.8,1.9,0,2.6-1.7,2.8c-7,1-17.601,2.6-24.401,4.7c-3.5,1.1-4.2,0.6-5.7-0.6c-1.2-0.9-2.8-2.2-3.601-3.2c-1.3-1.5-2-2.5-0.899-5.3
	c4.8-12.501,14.101-32.002,22.001-45.103c-0.5-1.4-1-3.1-1.3-4.1c-0.5-1.9,0.2-2.8,2-3.3c8.801-2.2,21.201-3.2,29.202-3.2
	c2.7,0,4.399,0.6,5.899,2.1c1.2,1.2,2.301,3.3,3.101,5.101c0.5,1.8-0.3,2.3-2.2,2.5c-5.601,0.5-16.801,2-24.102,3.6
	c-2.9,4.701-6.101,10.301-9.4,16.201C222.35,30.248,225.149,30.047,227.05,30.047z"/>
<path d="M244.853,64.95c-0.7,1.6-1.7,1.5-3.101,0.7c-1.8-1.1-3.601-2.9-4.4-4.3c-0.6-1.1-1.1-2.5-0.5-4.2
	c4.601-13.501,18.201-40.402,26.002-54.303c1.399-2.4,3.1-2.1,4.9-1.5c2.3,0.8,5.5,2.6,8.3,4.7c2.101,1.6,1.801,2.9,1.2,5.9
	c-1.6,7.8-3.6,21.501-4.6,32.002c6.4-13.101,16.9-31.602,23.901-41.103c0.899-1.3,2-1.8,3.399,0c2.301,3.5,2.601,6.8,0.301,11.301
	c-5.601,10.9-16.602,31.302-24.202,48.603c-1,2.2-2.3,2.4-4.5,1.5c-2.4-1-4.7-2.4-6.5-3.7c-1.9-1.4-3.101-3.4-3.101-6.601
	c-0.1-7.3,0.9-19.601,2.5-28.802C257.453,37.648,248.853,55.549,244.853,64.95z"/>
<path d="M306.854,9.446c-1.2-1.7-0.8-2.7,0.899-3.701c3.101-1.8,7.301-3.5,11.401-4.2c6.601-1.1,14.101-0.9,19.201,2.3
	c7.9,4.9,11.2,10.101,10.7,16.301c-1.399,17.901-28.602,37.102-46.702,44.603c-3.001,1.2-4.201,1.7-7.301,0.4
	c-2.3-1-5.4-2.7-7.501-4.4c-1.899-1.6-2.5-2.2-1.199-5.2c4.3-9.701,15.101-30.002,22.601-43.203
	C308.354,11.446,307.454,10.346,306.854,9.446z M299.154,54.949c28.102-13.201,41.802-37.202,39.002-42.002
	c-1.5-2.5-9.2-2.7-15.101,0.3C317.155,22.647,306.454,41.348,299.154,54.949z"/>
<path d="M370.863,30.047c2.101,0,3.5,0.4,4.5,1.7c0.9,1.1,2.101,2.9,2.601,4c0.7,1.5,0.2,2.3-1.2,2.5
	c-5.2,0.8-12.801,1.9-20.001,3.8c-2.101,4.101-4.101,8-5.9,11.701c5.7-1.1,10.801-1.5,15.001-1.5c2.2,0,3.9,0.4,5.101,1.7
	c1.199,1.3,2.5,3,3.1,4.4c0.8,1.9,0,2.6-1.7,2.8c-7,1-17.601,2.6-24.401,4.7c-3.5,1.1-4.2,0.6-5.7-0.6c-1.2-0.9-2.8-2.2-3.601-3.2
	c-1.3-1.5-2-2.5-0.899-5.3c4.8-12.501,14.101-32.002,22.001-45.103c-0.5-1.4-1-3.1-1.3-4.1c-0.5-1.9,0.2-2.8,2-3.3
	c8.801-2.2,21.201-3.2,29.202-3.2c2.699,0,4.399,0.6,5.9,2.1c1.199,1.2,2.3,3.3,3.1,5.101c0.5,1.8-0.3,2.3-2.2,2.5
	c-5.601,0.5-16.801,2-24.102,3.6c-2.9,4.701-6.101,10.301-9.4,16.201C366.163,30.248,368.963,30.047,370.863,30.047z"/>
<path d="M390.454,64.35c-1,2.3-2.3,1.6-3.9,0.4c-1.2-0.9-2.1-1.8-3.2-3.6c-1.1-1.8-1.7-3.4-0.7-5.9
	c5-12.001,14.501-29.702,22.401-41.903c-1.7-1.6-2.7-2.9-3.8-4.2c-1.301-1.5-1.101-2.6,0.7-3.5c6.9-3.4,14.9-5,21.801-5
	c7.301,0,14.101,3.1,18.302,7.9c5.5,6.201,2.699,10.201,0.1,13.701c-4.801,6.4-17.201,15.901-30.202,20.601
	c3.801,5.7,9.601,12.601,13.501,16.101c1.5,1.3,1.3,2.4,0.1,3.1c-1.3,0.8-3.5,1.7-5.3,2c-2.7,0.5-3.5,0.3-6.4-1.8
	c-4.601-3.4-10.301-9.601-14.601-15.301C396.055,52.849,393.054,58.749,390.454,64.35z M434.156,11.246c-0.8-1.8-8.5-0.8-14,1.1
	c-4.301,6.3-9.001,13.701-13.602,21.602C419.256,29.147,435.957,15.247,434.156,11.246z"/>
</svg>
